<svg width="20" height="21" viewBox="0 0 20 21" fill="none" xmlns="http://www.w3.org/2000/svg">
<g clip-path="url(#clip0_1374_98430)">
<path d="M10.0002 3C14.4935 3 18.2319 6.23333 19.016 10.5C18.2327 14.7667 14.4935 18 10.0002 18C5.50687 18 1.76854 14.7667 0.984375 10.5C1.76771 6.23333 5.50687 3 10.0002 3ZM10.0002 16.3333C11.6998 16.333 13.3489 15.7557 14.6776 14.696C16.0063 13.6363 16.936 12.1569 17.3144 10.5C16.9346 8.84442 16.0043 7.36667 14.6757 6.30835C13.3471 5.25004 11.6988 4.67377 10.0002 4.67377C8.30162 4.67377 6.65328 5.25004 5.32469 6.30835C3.99609 7.36667 3.06585 8.84442 2.68604 10.5C3.06446 12.1569 3.9941 13.6363 5.32283 14.696C6.65155 15.7557 8.30065 16.333 10.0002 16.3333ZM10.0002 14.25C9.00565 14.25 8.05182 13.8549 7.34856 13.1516C6.6453 12.4484 6.25021 11.4946 6.25021 10.5C6.25021 9.50544 6.6453 8.55161 7.34856 7.84835C8.05182 7.14509 9.00565 6.75 10.0002 6.75C10.9948 6.75 11.9486 7.14509 12.6519 7.84835C13.3551 8.55161 13.7502 9.50544 13.7502 10.5C13.7502 11.4946 13.3551 12.4484 12.6519 13.1516C11.9486 13.8549 10.9948 14.25 10.0002 14.25ZM10.0002 12.5833C10.5527 12.5833 11.0826 12.3638 11.4733 11.9731C11.864 11.5824 12.0835 11.0525 12.0835 10.5C12.0835 9.94747 11.864 9.41756 11.4733 9.02686C11.0826 8.63616 10.5527 8.41667 10.0002 8.41667C9.44767 8.41667 8.91777 8.63616 8.52707 9.02686C8.13637 9.41756 7.91687 9.94747 7.91687 10.5C7.91687 11.0525 8.13637 11.5824 8.52707 11.9731C8.91777 12.3638 9.44767 12.5833 10.0002 12.5833Z" fill="#ff3366"/>
</g>
<defs>
<clipPath id="clip0_1374_98430">
<rect width="20" height="20" fill="white" transform="translate(0 0.5)"/>
</clipPath>
</defs>
</svg>
