<svg width="20" height="20" viewBox="0 0 20 20" fill="none" xmlns="http://www.w3.org/2000/svg">
<g clip-path="url(#clip0_1709_89098)">
<path d="M14.9019 16.0802C13.4362 17.0098 11.7358 17.5021 10.0002 17.4993C5.50687 17.4993 1.76854 14.266 0.984375 9.99932C1.34273 8.05825 2.31907 6.28507 3.76771 4.94432L1.16021 2.33932L2.33937 1.16016L18.8385 17.6602L17.6594 18.8385L14.901 16.0802H14.9019ZM4.94604 6.12432C3.81355 7.15398 3.02464 8.50664 2.68604 9.99932C2.94629 11.138 3.46876 12.2003 4.21188 13.1015C4.95499 14.0027 5.89823 14.718 6.9665 15.1904C8.03477 15.6628 9.19858 15.8794 10.3653 15.8228C11.532 15.7662 12.6694 15.438 13.6869 14.8643L11.9969 13.1743C11.2774 13.6275 10.4254 13.8227 9.58041 13.728C8.73544 13.6333 7.94774 13.2542 7.34652 12.653C6.74529 12.0518 6.36623 11.2641 6.27151 10.4191C6.17679 9.57416 6.37203 8.72208 6.82521 8.00266L4.94604 6.12432ZM10.7619 11.9393L8.06021 9.23766C7.91193 9.6151 7.87703 10.0276 7.9598 10.4246C8.04256 10.8216 8.23939 11.1858 8.52614 11.4726C8.81289 11.7593 9.1771 11.9561 9.57409 12.0389C9.97108 12.1217 10.3836 12.0868 10.761 11.9385L10.7619 11.9393ZM17.3394 13.826L16.1469 12.6343C16.7039 11.8404 17.1005 10.9453 17.3144 9.99932C17.0879 9.00743 16.6621 8.07194 16.0628 7.24973C15.4636 6.42753 14.7034 5.73576 13.8284 5.21649C12.9535 4.69722 11.9821 4.3613 10.9733 4.22913C9.96452 4.09696 8.93938 4.17131 7.96021 4.44766L6.64521 3.13266C7.68437 2.72432 8.81687 2.49932 10.0002 2.49932C14.4935 2.49932 18.2319 5.73266 19.016 9.99932C18.7607 11.3874 18.1868 12.6973 17.3394 13.826ZM9.76937 6.25599C10.2998 6.22321 10.8311 6.30354 11.3282 6.49167C11.8252 6.6798 12.2765 6.97142 12.6523 7.3472C13.0281 7.72298 13.3197 8.17435 13.5079 8.67137C13.696 9.1684 13.7763 9.69973 13.7435 10.2302L9.76854 6.25599H9.76937Z" fill="#ff3366"/>
</g>
<defs>
<clipPath id="clip0_1709_89098">
<rect width="20" height="20" fill="white"/>
</clipPath>
</defs>
</svg>
