<svg width="21" height="20" viewBox="0 0 21 20" fill="none" xmlns="http://www.w3.org/2000/svg">
<g clip-path="url(#clip0_1374_90896)">
<path d="M6.50033 5.0013V2.5013C6.50033 2.28029 6.58812 2.06833 6.7444 1.91205C6.90068 1.75577 7.11264 1.66797 7.33366 1.66797H17.3337C17.5547 1.66797 17.7666 1.75577 17.9229 1.91205C18.0792 2.06833 18.167 2.28029 18.167 2.5013V14.168C18.167 14.389 18.0792 14.6009 17.9229 14.7572C17.7666 14.9135 17.5547 15.0013 17.3337 15.0013H14.8337V17.5013C14.8337 17.9613 14.4587 18.3346 13.9945 18.3346H4.00616C3.89626 18.3353 3.78732 18.3142 3.68559 18.2727C3.58386 18.2311 3.49135 18.1698 3.41337 18.0924C3.3354 18.0149 3.27349 17.9229 3.2312 17.8214C3.18892 17.72 3.1671 17.6112 3.16699 17.5013L3.16949 5.83464C3.16949 5.37464 3.54449 5.0013 4.00866 5.0013H6.50033ZM4.83616 6.66797L4.83366 16.668H13.167V6.66797H4.83616ZM8.16699 5.0013H14.8337V13.3346H16.5003V3.33464H8.16699V5.0013Z" fill="#ff3366"/>
</g>
<defs>
<clipPath id="clip0_1374_90896">
<rect width="20" height="20" fill="white" transform="translate(0.666992)"/>
</clipPath>
</defs>
</svg>
