<?xml version="1.0" standalone="no"?>
<!DOCTYPE svg PUBLIC "-//W3C//DTD SVG 1.1//EN" "http://www.w3.org/Graphics/SVG/1.1/DTD/svg11.dtd" >
<svg xmlns="http://www.w3.org/2000/svg" xmlns:xlink="http://www.w3.org/1999/xlink" version="1.1">
<metadata>
Created by FontForge 20170731 at Thu Jun 17 14:12:06 2021
 By Aleksey,,,
Copyright 2020 IBM Corp. All rights reserved.
</metadata>
<defs>
<font id="IBMPlexSerif-Regular" horiz-adv-x="600" >
  <font-face 
    font-family="IBM Plex Serif"
    font-weight="400"
    font-stretch="normal"
    units-per-em="1000"
    panose-1="2 6 5 3 5 4 6 0 2 3"
    ascent="800"
    descent="-200"
    x-height="516"
    cap-height="698"
    bbox="-252 -246 1227 1122"
    underline-thickness="44"
    underline-position="-144"
    unicode-range="U+000D-FB02"
  />
<missing-glyph horiz-adv-x="464" 
d="M32 0v780h400v-780h-400zM76 44h312v692h-312v-692z" />
    <glyph glyph-name="fi" unicode="fi" horiz-adv-x="633" 
d="M45 46h74v421h-74v49h74v29q0 100 59.5 157.5t172.5 57.5q84 0 126 -26t42 -67q0 -25 -15 -40.5t-38 -15.5t-36 14t-13 34q0 35 29 46v2q-14 6 -33 10t-59 4q-37 0 -65.5 -12.5t-48 -34t-29.5 -51.5t-10 -66v-41h162l157 12v-482h74v-46h-230v46h74v421h-237v-421h74v-46
h-230v46z" />
    <glyph glyph-name="fl" unicode="fl" horiz-adv-x="633" 
d="M45 46h74v421h-74v49h74v51q0 45 15.5 81t44 60.5t68 38t87.5 13.5q39 0 63 -4.5t44 -12.5l83 17v-714h74v-46h-230v46h74v653q-21 9 -46 12.5t-54 3.5q-66 0 -103.5 -34t-37.5 -96v-69h112v-49h-112v-421h74v-46h-230v46z" />
    <glyph glyph-name=".notdef" horiz-adv-x="464" 
d="M32 0v780h400v-780h-400zM76 44h312v692h-312v-692z" />
    <glyph glyph-name=".null" horiz-adv-x="0" 
 />
    <glyph glyph-name=".null" horiz-adv-x="0" 
 />
    <glyph glyph-name="uni000D" unicode="&#xd;" horiz-adv-x="232" 
 />
    <glyph glyph-name="space" unicode=" " horiz-adv-x="232" 
 />
    <glyph glyph-name="exclam" unicode="!" horiz-adv-x="280" 
d="M140 -12q-29 0 -45.5 17.5t-16.5 42.5v6q0 25 16.5 42.5t45.5 17.5t45.5 -17.5t16.5 -42.5v-6q0 -25 -16.5 -42.5t-45.5 -17.5zM99 487v211h82v-211l-24 -303h-34z" />
    <glyph glyph-name="quotedbl" unicode="&#x22;" horiz-adv-x="415" 
d="M84 657v91h73v-91l-21 -186h-31zM259 657v91h73v-91l-21 -186h-31z" />
    <glyph glyph-name="numbersign" unicode="#" horiz-adv-x="695" 
d="M189 210h-130v49h139l30 180h-130v49h138l36 210h55l-35 -210h157l35 210h56l-35 -210h130v-49h-138l-31 -180h130v-49h-138l-36 -210h-55l35 210h-157l-35 -210h-56zM253 259h157l31 180h-157z" />
    <glyph glyph-name="dollar" unicode="$" horiz-adv-x="592" 
d="M278 -6q-94 3 -148.5 38.5t-54.5 87.5q0 31 17 49.5t46 18.5q30 0 45.5 -18.5t15.5 -42.5q0 -43 -43 -62v-3q17 -7 48 -13t76 -7v281q-100 26 -151.5 72t-51.5 129q0 39 14.5 70.5t41 54.5t63.5 36.5t82 17.5v77h52v-77q84 -5 131.5 -39.5t47.5 -85.5q0 -31 -17 -49.5
t-46 -18.5q-30 0 -45.5 18.5t-15.5 42.5q0 43 43 62v3q-14 7 -38.5 12.5t-61.5 7.5v-257q103 -27 151.5 -74.5t48.5 -126.5q0 -84 -50.5 -137.5t-147.5 -64.5v-78h-52v76zM280 655q-64 -5 -97.5 -36t-33.5 -79q0 -50 32.5 -80.5t98.5 -47.5v243zM328 44q66 8 98 42t32 91
q0 54 -33 87t-97 47v-267z" />
    <glyph glyph-name="percent" unicode="%" horiz-adv-x="913" 
d="M223 354q86 0 86 119v78q0 119 -86 119t-86 -119v-78q0 -119 86 -119zM690 28q86 0 86 119v78q0 119 -86 119t-86 -119v-78q0 -119 86 -119zM223 314q-73 0 -115.5 50.5t-42.5 147.5t42.5 147.5t115.5 50.5t115.5 -50.5t42.5 -147.5t-42.5 -147.5t-115.5 -50.5zM690 -12
q-73 0 -115.5 50.5t-42.5 147.5t42.5 147.5t115.5 50.5t115.5 -50.5t42.5 -147.5t-42.5 -147.5t-115.5 -50.5zM669 698h60l-483 -698h-60z" />
    <glyph glyph-name="ampersand" unicode="&#x26;" horiz-adv-x="710" 
d="M295 -12q-53 0 -97 12.5t-75.5 36.5t-49.5 59t-18 80q0 71 40.5 116t106.5 80l-17 19q-32 34 -51 73t-19 86q0 73 50 116.5t137 43.5q40 0 72 -10.5t54.5 -29t35 -44.5t12.5 -56q0 -31 -14 -58.5t-38 -52t-56 -45.5t-68 -39l195 -213q17 35 27 79t13 92h-73v46h204v-46
h-80q-5 -59 -20 -112t-39 -94l34 -38q22 -23 46.5 -33t67.5 -10v-46h-66q-39 0 -65.5 11.5t-49.5 37.5l-14 16q-36 -37 -82 -57t-103 -20zM272 407q66 34 98 69.5t32 77.5v14q0 41 -27.5 68t-76.5 27q-50 0 -76.5 -30.5t-26.5 -74.5v-10q0 -38 22 -70t49 -64zM301 40
q48 0 85 15t64 43l-220 243q-50 -31 -68 -68.5t-18 -85.5v-17q0 -62 44 -96t113 -34z" />
    <glyph glyph-name="quotesingle" unicode="'" horiz-adv-x="241" 
d="M84 657v91h73v-91l-21 -186h-31z" />
    <glyph glyph-name="parenleft" unicode="(" horiz-adv-x="329" 
d="M306 -155q-43 28 -86 73.5t-77.5 105.5t-56 132.5t-21.5 155.5q0 82 21.5 155t56 133t77.5 105t86 73l25 -30q-41 -31 -74 -74t-56 -95t-35 -110t-12 -119v-77q0 -60 12 -118.5t35 -110t56 -95t74 -74.5l-25 -30v0z" />
    <glyph glyph-name="parenright" unicode=")" horiz-adv-x="329" 
d="M-2 -125q41 31 74 74.5t56 95t35 110t12 118.5v77q0 61 -12 119t-35 110t-56 95t-74 74l25 30q43 -28 86 -73t77.5 -105t56 -133t21.5 -155q0 -83 -21.5 -155.5t-56 -132.5t-77.5 -105.5t-86 -73.5z" />
    <glyph glyph-name="asterisk" unicode="*" horiz-adv-x="442" 
d="M84 436l30 40l76 64l20 -15l-37 -92l-29 -41zM83 569l-48 15l23 70l47 -16l85 -52l-8 -24zM184 697v50h73v-50l-23 -97h-26zM269 433l-37 92l20 15l76 -64l30 -40l-60 -44zM252 586l85 52l47 16l23 -70l-48 -15l-99 -7z" />
    <glyph glyph-name="plus" unicode="+" 
d="M272 279h-206v52h206v203h56v-203h206v-52h-206v-203h-56v203z" />
    <glyph glyph-name="comma" unicode="," horiz-adv-x="268" 
d="M45 -136q34 30 57 62.5t30 61.5h-2q-28 0 -43 18t-15 41v6q0 26 17 43.5t45 17.5q29 0 45.5 -19t16.5 -46v-9q0 -22 -8 -46t-21.5 -48t-32 -45t-39.5 -37h-50v0z" />
    <glyph glyph-name="hyphen" unicode="-" horiz-adv-x="393" 
d="M66 340h261v-70h-261v70z" />
    <glyph glyph-name="period" unicode="." horiz-adv-x="268" 
d="M134 -12q-29 0 -45.5 17.5t-16.5 42.5v6q0 25 16.5 42.5t45.5 17.5t45.5 -17.5t16.5 -42.5v-6q0 -25 -16.5 -42.5t-45.5 -17.5z" />
    <glyph glyph-name="slash" unicode="/" horiz-adv-x="366" 
d="M268 748h57l-259 -891h-57z" />
    <glyph glyph-name="zero" unicode="0" 
d="M300 37q42 0 71.5 16.5t48 47.5t27 75.5t8.5 99.5v146q0 55 -8.5 99.5t-27 75.5t-48 47.5t-71.5 16.5t-71.5 -16.5t-48 -47.5t-27 -75.5t-8.5 -99.5v-146q0 -55 8.5 -99.5t27 -75.5t48 -47.5t71.5 -16.5zM300 -12q-120 0 -184.5 92t-64.5 269t64.5 269t184.5 92
t184.5 -92t64.5 -269t-64.5 -269t-184.5 -92z" />
    <glyph glyph-name="one" unicode="1" 
d="M88 45h173v584l-180 -83l-15 43l204 109h77v-653h167v-45h-426v45z" />
    <glyph glyph-name="two" unicode="2" 
d="M61 65l227 229q50 50 77 100t27 110v22q0 63 -36.5 99.5t-101.5 36.5q-35 0 -60.5 -7t-40.5 -16v-2q13 -5 24.5 -20.5t11.5 -37.5q0 -26 -17 -43.5t-43 -17.5q-28 0 -44 18t-16 48q0 25 15.5 48t42 40t63 27.5t78.5 10.5q101 0 159.5 -50.5t58.5 -140.5q0 -45 -13 -82
t-35 -69.5t-51.5 -61.5t-62.5 -58l-189 -167v-4h330v97h50v-174h-454v65z" />
    <glyph glyph-name="three" unicode="3" 
d="M271 -12q-47 0 -85 11t-65 29t-41.5 40.5t-14.5 45.5q0 30 17 48t43 18q27 0 43.5 -17.5t16.5 -44.5q0 -20 -11.5 -36t-24.5 -21v-2q17 -10 44.5 -16t65.5 -6q78 0 122.5 34.5t44.5 100.5v34q0 63 -40.5 98.5t-117.5 35.5h-81v49h75q73 0 111 34.5t38 86.5v38
q0 57 -36.5 85t-97.5 28q-37 0 -64.5 -6t-43.5 -16v-2q14 -6 25 -22t11 -36q0 -26 -17 -43.5t-44 -17.5t-43 18t-16 48q0 23 14 45.5t39.5 40.5t62 29t81.5 11q46 0 86.5 -11t71 -33t48 -55t17.5 -77q0 -34 -12.5 -61.5t-33 -47.5t-47 -33.5t-55.5 -20.5v-4q30 -6 59 -19.5
t52 -35.5t37.5 -52.5t14.5 -69.5q0 -47 -18 -84.5t-51 -63.5t-79 -40t-101 -14z" />
    <glyph glyph-name="four" unicode="4" 
d="M369 161h-328v58l333 479h77v-473h101v-64h-101v-161h-82v161zM100 225h269v379h-4z" />
    <glyph glyph-name="five" unicode="5" 
d="M270 -12q-45 0 -82 11t-63 29t-40 40.5t-14 45.5q0 30 17 48t44 18t43 -17.5t16 -43.5q0 -20 -10 -35t-26 -21v-4q17 -10 44.5 -16t65.5 -6q84 0 125 41t41 112v23q0 73 -38.5 115t-111.5 42q-48 0 -78.5 -20t-47.5 -46l-54 11l25 383h367v-83h-326l-19 -273l4 -1
q20 36 59 62t96 26q46 0 85.5 -13.5t69 -41.5t46.5 -69.5t17 -97.5q0 -48 -18.5 -88.5t-52.5 -69.5t-80.5 -45t-103.5 -16z" />
    <glyph glyph-name="six" unicode="6" 
d="M301 -12q-115 0 -175.5 73.5t-60.5 204.5q0 95 29 171.5t80 133t119.5 92t146.5 47.5l13 -41q-64 -12 -116.5 -42t-90.5 -74t-61 -100t-29 -120l6 -1q8 18 22 36t34.5 32t47.5 23t61 9q48 0 86 -15.5t65 -44.5t41.5 -69.5t14.5 -89.5q0 -50 -17.5 -91.5t-49 -71t-74 -46
t-92.5 -16.5zM300 37q38 0 65 12.5t44.5 34t25.5 51t8 64.5v18q0 34 -8 64t-25.5 51.5t-44.5 34t-65 12.5t-65 -12.5t-44.5 -34t-25.5 -51.5t-8 -64v-18q0 -35 8 -64.5t25.5 -51t44.5 -34t65 -12.5z" />
    <glyph glyph-name="seven" unicode="7" 
d="M468 615h-349v-116h-50v199h459v-60l-269 -638h-71z" />
    <glyph glyph-name="eight" unicode="8" 
d="M300 -12q-57 0 -101.5 14.5t-75 40.5t-47 62.5t-16.5 80.5q0 38 14 68.5t36.5 52t51.5 35.5t60 19v7q-27 4 -52.5 18t-45 36t-31 50t-11.5 60q0 41 16 74t44.5 56t68.5 35.5t89 12.5t89 -12.5t68.5 -35.5t44.5 -56t16 -74q0 -32 -11.5 -60t-31 -50t-45 -36t-52.5 -18v-7
q31 -5 60 -19t51.5 -35.5t36.5 -52t14 -68.5q0 -44 -16.5 -80.5t-47 -62.5t-75 -40.5t-101.5 -14.5zM300 35q36 0 64 11t46.5 30.5t28.5 46t10 56.5v21q0 30 -10 56.5t-28.5 46t-46.5 30.5t-64 11t-64 -11t-46.5 -30.5t-28.5 -46t-10 -56.5v-21q0 -30 10 -56.5t28.5 -46
t46.5 -30.5t64 -11zM300 389q33 0 57 11t40 29t23.5 41.5t7.5 49.5v14q0 26 -7.5 49.5t-23.5 41.5t-40 29t-57 11t-57 -11t-40 -29t-23.5 -41.5t-7.5 -49.5v-14q0 -26 7.5 -49.5t23.5 -41.5t40 -29t57 -11z" />
    <glyph glyph-name="nine" unicode="9" 
d="M147 29q64 12 116.5 42t90.5 74t61 100t29 120l-6 1q-8 -18 -22 -36t-34.5 -32t-47.5 -23t-61 -9q-48 0 -86 15.5t-65 44.5t-41.5 69t-14.5 90t17.5 91.5t49 71t74 46t92.5 16.5q115 0 175.5 -73.5t60.5 -204.5q0 -95 -29 -171.5t-80 -133t-119.5 -92t-146.5 -47.5z
M300 319q38 0 65 12.5t44.5 34t25.5 51t8 64.5v18q0 34 -8 64t-25.5 51.5t-44.5 34t-65 12.5t-65 -12.5t-44.5 -34t-25.5 -51.5t-8 -64v-18q0 -35 8 -64.5t25.5 -51t44.5 -34t65 -12.5z" />
    <glyph glyph-name="colon" unicode=":" horiz-adv-x="288" 
d="M144 -12q-29 0 -45.5 17.5t-16.5 42.5v6q0 25 16.5 42.5t45.5 17.5t45.5 -17.5t16.5 -42.5v-6q0 -25 -16.5 -42.5t-45.5 -17.5zM144 402q-29 0 -45.5 17.5t-16.5 42.5v6q0 25 16.5 42.5t45.5 17.5t45.5 -17.5t16.5 -42.5v-6q0 -25 -16.5 -42.5t-45.5 -17.5z" />
    <glyph glyph-name="semicolon" unicode=";" horiz-adv-x="288" 
d="M55 -136q34 30 57 62.5t30 61.5h-2q-28 0 -43 18t-15 41v6q0 26 17 43.5t45 17.5q29 0 45.5 -19t16.5 -46v-9q0 -22 -8 -46t-21.5 -48t-32 -45t-39.5 -37h-50v0zM144 402q-29 0 -45.5 17.5t-16.5 42.5v6q0 25 16.5 42.5t45.5 17.5t45.5 -17.5t16.5 -42.5v-6
q0 -25 -16.5 -42.5t-45.5 -17.5z" />
    <glyph glyph-name="less" unicode="&#x3c;" 
d="M89 234v64l421 246v-60l-362 -215v-6l362 -215v-60z" />
    <glyph glyph-name="equal" unicode="=" 
d="M66 229h468v-53h-468v53zM66 434h468v-52h-468v52z" />
    <glyph glyph-name="greater" unicode="&#x3e;" 
d="M89 48l362 215v6l-362 215v60l421 -246v-64l-421 -246v60z" />
    <glyph glyph-name="question" unicode="?" horiz-adv-x="487" 
d="M170 371q82 3 133.5 39.5t51.5 103.5v23q0 60 -35 92t-92 32q-37 0 -61 -6.5t-41 -16.5v-2q11 -4 23.5 -19.5t12.5 -37.5q0 -26 -15.5 -43.5t-43.5 -17.5t-44.5 17t-16.5 49q0 25 16 47.5t43 40t63 28t76 10.5q45 0 83 -13t65 -37t42 -57.5t15 -74.5q0 -45 -17 -81.5
t-47 -62.5t-70 -42t-86 -20v-117h-55v166zM198 -12q-29 0 -45.5 17.5t-16.5 42.5v6q0 25 16.5 42.5t45.5 17.5t45.5 -17.5t16.5 -42.5v-6q0 -25 -16.5 -42.5t-45.5 -17.5z" />
    <glyph glyph-name="at" unicode="@" horiz-adv-x="923" 
d="M453 -121q-84 0 -152.5 29t-117.5 82.5t-76 129.5t-27 169t27.5 170.5t77 133t119.5 86.5t156 31q85 0 155.5 -28.5t121 -80.5t78.5 -123.5t28 -158.5q0 -51 -9 -96.5t-29 -79.5t-51.5 -54t-76.5 -20q-52 0 -79 24t-32 63h-3q-19 -39 -48 -63t-75 -24q-34 0 -64 13.5
t-53 40.5t-36.5 68.5t-13.5 97.5t13.5 97.5t36.5 68.5t53 40.5t64 13.5q46 0 73 -23t41 -55h3l28 69h37v-316q0 -76 59 -76q51 0 76.5 48t25.5 149v46q0 67 -21.5 125t-63 100.5t-101.5 67t-137 24.5t-136.5 -27t-100.5 -73.5t-62.5 -109.5t-21.5 -136v-59q0 -74 22 -136
t63 -106.5t99 -69.5t131 -25h225v-30q-51 -7 -106 -12t-120 -5zM451 120q53 0 79.5 25.5t26.5 73.5v140q0 48 -26.5 73.5t-79.5 25.5q-54 0 -79.5 -32.5t-25.5 -86.5v-100q0 -54 25.5 -86.5t79.5 -32.5z" />
    <glyph glyph-name="A" unicode="A" horiz-adv-x="686" 
d="M16 46h53l227 652h95l226 -652h53v-46h-236v46h90l-62 181h-272l-62 -181h90v-46h-202v46zM204 275h243l-117 350h-6z" />
    <glyph glyph-name="B" unicode="B" horiz-adv-x="670" 
d="M55 46h75v606h-75v46h334q88 0 137.5 -45t49.5 -120q0 -37 -11 -66t-29.5 -50t-42 -34t-48.5 -17v-3q26 -2 54 -13t51 -32t38 -52t15 -72q0 -44 -13.5 -80t-38 -61.5t-58.5 -39t-74 -13.5h-364v46zM216 49h172q58 0 90.5 34t32.5 88v44q0 53 -32.5 87t-90.5 34h-172v-287
zM216 385h156q54 0 83 31t29 79v44q0 48 -29 79t-83 31h-156v-264z" />
    <glyph glyph-name="C" unicode="C" horiz-adv-x="649" 
d="M342 -12q-66 0 -120 25t-92 72t-59 114t-21 150q0 87 21 154t58.5 113t90.5 70t117 24q65 0 108.5 -21.5t57.5 -53.5h4v63h72v-204h-72v52q0 50 -44 80.5t-115 30.5q-53 0 -91.5 -19.5t-63 -53t-36 -78t-11.5 -93.5v-121q0 -55 14.5 -99t42 -75.5t67.5 -48.5t91 -17
q71 0 119 37t70 94l39 -19q-9 -29 -29 -60t-50.5 -57t-72.5 -42.5t-95 -16.5z" />
    <glyph glyph-name="D" unicode="D" horiz-adv-x="706" 
d="M55 46h75v606h-75v46h292q69 0 126 -21.5t97.5 -65t63 -109t22.5 -153.5t-22.5 -153.5t-63 -109t-97.5 -65t-126 -21.5h-292v46zM216 49h122q51 0 92.5 17.5t70 49t44 75.5t15.5 98v120q0 54 -15.5 98t-44 75.5t-70 49t-92.5 17.5h-122v-600z" />
    <glyph glyph-name="E" unicode="E" horiz-adv-x="641" 
d="M55 46h75v606h-75v46h516v-168h-72v119h-283v-265h198v80h60v-209h-60v80h-198v-286h293v128h72v-177h-526v46z" />
    <glyph glyph-name="F" unicode="F" horiz-adv-x="626" 
d="M55 46h75v606h-75v46h516v-168h-72v119h-283v-280h198v80h60v-209h-60v80h-198v-274h95v-46h-256v46z" />
    <glyph glyph-name="G" unicode="G" horiz-adv-x="721" 
d="M341 -12q-66 0 -119.5 25t-91.5 71.5t-59 113.5t-21 151q0 87 21 154.5t60 113.5t94.5 69.5t124.5 23.5q81 0 125 -22.5t56 -53.5h5v64h72v-204h-72v49q0 56 -47 85t-128 29q-55 0 -95.5 -17.5t-67 -49.5t-39.5 -76.5t-13 -99.5v-128q0 -54 14.5 -98.5t41.5 -75.5t65 -48
t84 -17q38 0 71 10t57 29t37.5 47t13.5 65v93h-124v46h275v-46h-64v-291h-33l-48 97h-4q-8 -20 -24 -39.5t-39.5 -35t-55.5 -25t-72 -9.5z" />
    <glyph glyph-name="H" unicode="H" horiz-adv-x="787" 
d="M55 46h75v606h-75v46h236v-46h-75v-272h355v272h-75v46h236v-46h-75v-606h75v-46h-236v46h75v285h-355v-285h75v-46h-236v46z" />
    <glyph glyph-name="I" unicode="I" horiz-adv-x="346" 
d="M55 46h75v606h-75v46h236v-46h-75v-606h75v-46h-236v46z" />
    <glyph glyph-name="J" unicode="J" horiz-adv-x="457" 
d="M153 -12q-69 0 -103.5 27t-34.5 69q0 28 16 46.5t45 18.5q25 0 39 -16t14 -42q0 -20 -10 -32.5t-21 -16.5v-3q10 -3 24 -5t31 -2q98 0 98 119v501h-95v46h256v-46h-75v-493q0 -86 -48.5 -128.5t-135.5 -42.5z" />
    <glyph glyph-name="K" unicode="K" horiz-adv-x="707" 
d="M55 46h75v606h-75v46h236v-46h-75v-334h4l93 105l210 229h-80v46h215v-46h-67l-216 -233l241 -373h69v-46h-239v46h71l-202 311l-99 -107v-204h75v-46h-236v46z" />
    <glyph glyph-name="L" unicode="L" horiz-adv-x="594" 
d="M55 46h75v606h-75v46h236v-46h-75v-603h256v128h72v-177h-489v46z" />
    <glyph glyph-name="M" unicode="M" horiz-adv-x="872" 
d="M55 46h75v606h-75v46h176l204 -432h3l214 432h165v-46h-75v-606h75v-46h-236v46h75v551h-4l-44 -97l-192 -383l-171 358l-56 122h-4v-551h75v-46h-205v46z" />
    <glyph glyph-name="N" unicode="N" horiz-adv-x="778" 
d="M55 46h75v606h-75v46h169l375 -560h4v514h-75v46h205v-46h-75v-652h-67l-402 601h-4v-555h75v-46h-205v46z" />
    <glyph glyph-name="O" unicode="O" horiz-adv-x="716" 
d="M358 41q51 0 90.5 18.5t66.5 52t41 79.5t14 101v114q0 55 -14 101t-41 79.5t-66.5 52t-90.5 18.5t-90.5 -18.5t-66.5 -52t-41 -79.5t-14 -101v-114q0 -55 14 -101t41 -79.5t66.5 -52t90.5 -18.5zM358 -12q-69 0 -126 25t-97.5 72t-62.5 113.5t-22 150.5t22 150.5
t62.5 113.5t97.5 72t126 25t126 -25t97.5 -72t62.5 -113.5t22 -150.5t-22 -150.5t-62.5 -113.5t-97.5 -72t-126 -25z" />
    <glyph glyph-name="P" unicode="P" horiz-adv-x="625" 
d="M55 46h75v606h-75v46h326q95 0 145.5 -47.5t50.5 -139.5q0 -91 -52 -141t-146 -50h-163v-274h95v-46h-256v46zM216 369h158q54 0 82.5 34t28.5 83v46q0 49 -28.5 83t-82.5 34h-158v-280z" />
    <glyph glyph-name="Q" unicode="Q" horiz-adv-x="716" 
d="M514 -173q-29 0 -50 4t-37.5 12.5t-29.5 22t-26 32.5l-64 94q-59 9 -106 37.5t-81 74t-52 107.5t-18 138q0 84 22 150.5t62.5 113.5t97.5 72t126 25t126 -25t97.5 -72t62.5 -113.5t22 -150.5q0 -77 -19 -140t-53.5 -109t-83.5 -74t-110 -35l45 -62q11 -16 20.5 -26.5
t20 -17t22.5 -9.5t29 -3h30v-46h-53zM358 41q51 0 90.5 18.5t66.5 52t41 79.5t14 101v114q0 55 -14 101t-41 79.5t-66.5 52t-90.5 18.5t-90.5 -18.5t-66.5 -52t-41 -79.5t-14 -101v-114q0 -55 14 -101t41 -79.5t66.5 -52t90.5 -18.5z" />
    <glyph glyph-name="R" unicode="R" horiz-adv-x="672" 
d="M55 46h75v606h-75v46h326q93 0 144.5 -46.5t51.5 -138.5q0 -71 -39.5 -118.5t-115.5 -61.5l117 -217q20 -36 45 -53t62 -17h9v-46h-64q-29 0 -48.5 6t-34.5 17t-26.5 28t-23.5 39l-124 231h-118v-275h75v-46h-236v46zM216 370h157q54 0 83 33.5t29 82.5v46q0 49 -29 83
t-83 34h-157v-279z" />
    <glyph glyph-name="S" unicode="S" horiz-adv-x="588" 
d="M295 -12q-63 0 -102.5 19.5t-55.5 52.5h-5v-60h-72v205h72v-46q0 -25 7.5 -46.5t25 -37.5t46 -25t69.5 -9q87 0 125.5 37t38.5 99q0 53 -29.5 83t-92.5 47l-55 14q-93 24 -144 72t-51 132q0 42 16 76.5t45 58.5t69.5 37t89.5 13q57 0 93.5 -17.5t51.5 -48.5h6v54h72v-195
h-72v46q0 25 -7.5 45t-25.5 34t-47 21.5t-71 7.5q-70 0 -105 -32t-35 -84q0 -54 31.5 -84.5t99.5 -48.5l51 -13q91 -24 140 -72t49 -126q0 -45 -15 -83.5t-44 -66.5t-71.5 -43.5t-97.5 -15.5z" />
    <glyph glyph-name="T" unicode="T" horiz-adv-x="652" 
d="M188 46h95v603h-176v-119h-72v168h582v-168h-72v119h-176v-603h95v-46h-276v46z" />
    <glyph glyph-name="U" unicode="U" horiz-adv-x="735" 
d="M375 -12q-68 0 -116.5 15t-79.5 49t-45 87t-14 130v383h-75v46h236v-46h-75v-399q0 -53 9 -92t29.5 -64.5t53.5 -38.5t82 -13q98 0 139 51.5t41 156.5v399h-75v46h205v-46h-75v-370q0 -76 -12 -131.5t-40.5 -91.5t-74.5 -53.5t-113 -17.5z" />
    <glyph glyph-name="V" unicode="V" horiz-adv-x="664" 
d="M74 652h-53v46h234v-46h-90l103 -310l79 -256h4l81 257l98 309h-90v46h203v-46h-53l-215 -652h-86z" />
    <glyph glyph-name="W" unicode="W" horiz-adv-x="968" 
d="M76 652h-53v46h234v-46h-90l130 -550h4l153 596h85l157 -596h4l131 550h-90v46h204v-46h-53l-166 -652h-83l-159 584h-4l-155 -584h-83z" />
    <glyph glyph-name="X" unicode="X" horiz-adv-x="669" 
d="M18 46h60l211 294l-206 312h-60v46h238v-46h-74l159 -247h4l166 247h-66v46h194v-46h-60l-206 -289l211 -317h60v-46h-239v46h74l-162 251h-4l-170 -251h66v-46h-196v46z" />
    <glyph glyph-name="Y" unicode="Y" horiz-adv-x="634" 
d="M179 46h95v235l-201 371h-53v46h241v-46h-90l161 -310h4l165 310h-90v46h203v-46h-53l-201 -366v-240h95v-46h-276v46z" />
    <glyph glyph-name="Z" unicode="Z" horiz-adv-x="637" 
d="M60 49l403 600h-322v-119h-72v168h494v-49l-403 -600h340v128h72v-177h-512v49z" />
    <glyph glyph-name="bracketleft" unicode="[" horiz-adv-x="284" 
d="M61 760h194v-45h-118v-808h118v-45h-194v898z" />
    <glyph glyph-name="backslash" unicode="\" horiz-adv-x="365" 
d="M41 748h57l259 -891h-57z" />
    <glyph glyph-name="bracketright" unicode="]" horiz-adv-x="284" 
d="M29 -93h118v808h-118v45h194v-898h-194v45z" />
    <glyph glyph-name="asciicircum" unicode="^" 
d="M58 339l208 359h68l208 -359l-45 -24l-195 324h-4l-195 -324z" />
    <glyph glyph-name="underscore" unicode="_" horiz-adv-x="564" 
d="M25 -102h514v-55h-514v55z" />
    <glyph glyph-name="grave" unicode="`" 
d="M181 738l77 38l76 -177l-27 -14z" />
    <glyph glyph-name="a" unicode="a" horiz-adv-x="546" 
d="M203 -12q-72 0 -112.5 37.5t-40.5 102.5q0 37 12 65.5t39.5 47.5t71.5 29t107 10h74v76q0 61 -29.5 93.5t-88.5 32.5q-26 0 -48 -4.5t-36 -12.5v-2q11 -6 21.5 -18t10.5 -34q0 -26 -15 -40.5t-40 -14.5q-24 0 -39.5 14.5t-15.5 43.5q0 22 13 42.5t37 36.5t59.5 25.5
t80.5 9.5q81 0 126.5 -42t45.5 -118v-325h75v-35q-11 -8 -29.5 -14t-41.5 -6q-39 0 -60 22t-21 59v7h-5q-7 -17 -18.5 -33t-29.5 -28t-43.5 -19.5t-59.5 -7.5zM238 43q48 0 82 24.5t34 75.5v97h-65q-43 0 -72 -6.5t-46 -19t-24.5 -30.5t-7.5 -42v-21q0 -38 26 -58t73 -20z
" />
    <glyph glyph-name="b" unicode="b" horiz-adv-x="598" 
d="M337 -12q-62 0 -100 26t-55 63h-4l-46 -77h-33v683l-74 13v35l156 29v-322h4q17 37 54 63.5t98 26.5q96 0 153.5 -69.5t57.5 -200.5t-57.5 -200.5t-153.5 -69.5zM313 45q69 0 107.5 46.5t38.5 124.5v84q0 78 -38.5 124.5t-107.5 46.5q-24 0 -48 -7t-42.5 -20t-30 -32.5
t-11.5 -43.5v-220q0 -24 11.5 -43.5t30 -32.5t42.5 -20t48 -7z" />
    <glyph glyph-name="c" unicode="c" horiz-adv-x="516" 
d="M280 -12q-56 0 -99.5 19.5t-73.5 55t-46 85t-16 110.5q0 62 17.5 112t49.5 85t76.5 54t98.5 19q81 0 128.5 -34.5t47.5 -87.5q0 -32 -16.5 -50t-45.5 -18q-31 0 -46 18t-15 43q0 22 11 38t31 25v3q-13 8 -33.5 12t-52.5 4q-35 0 -64.5 -13t-50.5 -36.5t-33 -55t-12 -68.5
v-74q0 -41 11 -74.5t31.5 -57.5t49 -37t64.5 -13q61 0 96 25.5t56 66.5l32 -21q-9 -26 -26 -50.5t-41 -43t-56.5 -30t-72.5 -11.5z" />
    <glyph glyph-name="d" unicode="d" horiz-adv-x="608" 
d="M261 -12q-96 0 -153.5 69.5t-57.5 200.5t57.5 200.5t153.5 69.5q60 0 97.5 -26t54.5 -63h4v244l-75 13v35l157 29v-695l74 -13v-34l-156 -30v90h-4q-17 -37 -54 -63.5t-98 -26.5zM285 45q24 0 48 7t42.5 20t30 32.5t11.5 43.5v220q0 24 -11.5 43.5t-30 32.5t-42.5 20
t-48 7q-69 0 -107.5 -46.5t-38.5 -124.5v-84q0 -78 38.5 -124.5t107.5 -46.5z" />
    <glyph glyph-name="e" unicode="e" horiz-adv-x="536" 
d="M279 -12q-55 0 -98.5 19.5t-73.5 54.5t-46 85t-16 111q0 60 17.5 109.5t48 85.5t72.5 55.5t92 19.5q51 0 91 -18t67.5 -50.5t42.5 -77.5t15 -98v-23h-355v-26q0 -85 42.5 -134t113.5 -49q62 0 98.5 25.5t57.5 66.5l33 -21q-10 -26 -27.5 -50.5t-42.5 -43t-58 -30
t-74 -11.5zM136 307h269v10q0 35 -7.5 65t-23.5 52t-40.5 34.5t-58.5 12.5t-60 -12t-43.5 -34t-26.5 -51.5t-9 -64.5v-12z" />
    <glyph glyph-name="f" unicode="f" horiz-adv-x="342" 
d="M45 46h74v421h-74v49h74v81q0 36 12 66t33.5 51.5t51 33.5t64.5 12q54 0 85.5 -21t31.5 -60q0 -26 -14.5 -41.5t-37.5 -15.5q-22 0 -35.5 14t-13.5 34q0 35 27 46v2q-7 2 -16 3t-20 1q-42 0 -64 -30t-22 -84v-92h112v-49h-112v-421h94v-46h-250v46z" />
    <glyph glyph-name="g" unicode="g" horiz-adv-x="544" 
d="M262 -212q-60 0 -102 9t-68 25t-37.5 39t-11.5 51q0 20 9 37t24 30t34 22.5t39 14.5v4q-63 22 -63 85q0 40 25.5 63t59.5 32v5q-47 20 -74.5 59t-27.5 94q0 39 14.5 70.5t41 53.5t62.5 34t79 12q47 0 80.5 -12.5t56.5 -30.5q1 58 22.5 79t50.5 21q22 0 36.5 -13t14.5 -35
q0 -21 -13.5 -34.5t-37.5 -13.5q-28 0 -43 20h-3v-50q11 -15 23 -39t12 -62q0 -39 -15 -71t-41.5 -54t-63 -34t-79.5 -12q-28 0 -53 6q-26 -5 -47 -21.5t-21 -39.5q0 -25 19 -35t64 -10h118q88 0 130.5 -35.5t42.5 -101.5q0 -74 -65 -118t-192 -44zM267 230q55 0 82.5 29
t27.5 79v39q0 50 -27.5 79t-82.5 29t-82.5 -29t-27.5 -79v-39q0 -50 27.5 -79t82.5 -29zM116 -83q0 -40 34.5 -60t92.5 -20h47q75 0 117.5 25t42.5 67q0 38 -26 57.5t-91 19.5h-156q-32 -14 -46.5 -37t-14.5 -52z" />
    <glyph glyph-name="h" unicode="h" horiz-adv-x="624" 
d="M35 46h74v637l-74 13v35l156 29v-321h4q6 15 18 31t30.5 29t43 21t55.5 8q93 0 133 -48.5t40 -145.5v-288h74v-46h-230v46h74v281q0 73 -29 108.5t-92 35.5q-22 0 -43.5 -6t-39 -19t-28 -32t-10.5 -45v-323h74v-46h-230v46z" />
    <glyph glyph-name="i" unicode="i" horiz-adv-x="315" 
d="M165 635q-26 0 -39.5 15.5t-13.5 37.5v5q0 22 13.5 37.5t39.5 15.5t40 -15.5t14 -37.5v-5q0 -22 -14 -37.5t-40 -15.5zM50 46h74v405l-74 13v34l156 30v-482h74v-46h-230v46z" />
    <glyph glyph-name="j" unicode="j" horiz-adv-x="303" 
d="M58 -212q-50 0 -74 22t-24 56q0 22 13 37t36 15q22 0 33.5 -13t11.5 -34q0 -14 -6.5 -25.5t-15.5 -14.5v-3q9 -4 26 -4q62 0 62 80v547l-74 13v34l156 30v-580q0 -81 -38 -120.5t-106 -39.5zM161 635q-26 0 -39.5 15.5t-13.5 37.5v5q0 22 13.5 37.5t39.5 15.5t40 -15.5
t14 -37.5v-5q0 -22 -14 -37.5t-40 -15.5z" />
    <glyph glyph-name="k" unicode="k" horiz-adv-x="584" 
d="M35 46h74v637l-74 13v35l156 29v-523h5l84 94l126 139h-68v46h214v-46h-73l-145 -151l181 -273h57v-46h-213v46h64l-145 218l-87 -91v-127h74v-46h-230v46z" />
    <glyph glyph-name="l" unicode="l" horiz-adv-x="300" 
d="M35 46h74v637l-74 13v35l156 29v-714h74v-46h-230v46z" />
    <glyph glyph-name="m" unicode="m" horiz-adv-x="953" 
d="M50 46h74v405l-74 13v34l154 30v-90h4q6 16 18 32t30.5 29t42.5 21t54 8q66 0 105 -25t54 -77h3q8 18 21 36t32 33t44.5 24t59.5 9q93 0 132.5 -49t39.5 -146v-287h74v-46h-230v46h74v281q0 144 -119 144q-22 0 -43.5 -6.5t-38 -19t-26.5 -32t-10 -45.5v-322h74v-46h-230
v46h74v281q0 144 -118 144q-23 0 -44 -6.5t-38 -19t-27 -32t-10 -45.5v-322h74v-46h-230v46z" />
    <glyph glyph-name="n" unicode="n" horiz-adv-x="639" 
d="M50 46h74v405l-74 13v34l154 30v-90h4q6 15 18.5 31t31 29t43.5 21.5t55 8.5q93 0 133.5 -48.5t40.5 -145.5v-288h74v-46h-230v46h74v281q0 144 -121 144q-22 0 -43.5 -6t-39 -19t-28 -32t-10.5 -45v-323h74v-46h-230v46z" />
    <glyph glyph-name="o" unicode="o" horiz-adv-x="564" 
d="M282 37q37 0 64.5 12.5t45 35t26 53t8.5 66.5v108q0 36 -8.5 66.5t-26 53t-45 35t-64.5 12.5q-38 0 -65 -12.5t-44.5 -35t-26 -53t-8.5 -66.5v-108q0 -36 8.5 -66.5t26 -53t44.5 -35t65 -12.5zM282 -12q-53 0 -97 19t-75 54.5t-48 85t-17 111.5q0 61 17 111t48 85.5
t75 54.5t97 19t97 -19t75 -54.5t48 -85.5t17 -111q0 -62 -17 -111.5t-48 -85t-75 -54.5t-97 -19z" />
    <glyph glyph-name="p" unicode="p" horiz-adv-x="613" 
d="M40 -154h74v605l-74 13v34l156 30v-90h4q17 37 54 63.5t98 26.5q96 0 153.5 -69.5t57.5 -200.5t-57.5 -200.5t-153.5 -69.5q-60 0 -97.5 26t-54.5 63h-4v-231h94v-46h-250v46zM328 45q69 0 107.5 46.5t38.5 124.5v84q0 78 -38.5 124.5t-107.5 46.5q-24 0 -48 -7
t-42.5 -20t-30 -32.5t-11.5 -43.5v-220q0 -24 11.5 -43.5t30 -32.5t42.5 -20t48 -7z" />
    <glyph glyph-name="q" unicode="q" horiz-adv-x="598" 
d="M323 -154h94v232h-4q-17 -37 -54 -63.5t-98 -26.5q-96 0 -153.5 69.5t-57.5 200.5t57.5 200.5t153.5 69.5q62 0 100 -26t55 -63h4l46 77h33v-670h74v-46h-250v46zM285 45q24 0 48 7t42.5 20t30 32.5t11.5 43.5v220q0 24 -11.5 43.5t-30 32.5t-42.5 20t-48 7
q-69 0 -107.5 -46.5t-38.5 -124.5v-84q0 -78 38.5 -124.5t107.5 -46.5z" />
    <glyph glyph-name="r" unicode="r" horiz-adv-x="443" 
d="M50 46h74v405l-74 13v34l154 30v-90h5q7 16 17.5 32t26 29t36 21t47.5 8q44 0 70.5 -21t26.5 -61q0 -30 -15 -47t-39 -17q-27 0 -43 14.5t-16 37.5q0 20 8.5 32.5t19.5 14.5v2q-4 1 -10 1.5t-15 0.5q-21 0 -42 -10.5t-37.5 -27t-27 -37.5t-10.5 -42v-322h94v-46h-250v46z
" />
    <glyph glyph-name="s" unicode="s" horiz-adv-x="488" 
d="M252 -12q-47 0 -82 19.5t-46 43.5h-4v-51h-60v155h60v-21q0 -43 27 -70t89 -27q57 0 88.5 20.5t31.5 65.5q0 70 -85 89l-60 13q-74 16 -111.5 54t-37.5 104q0 68 47 106.5t126 38.5q48 0 78.5 -15t40.5 -39h4v42h60v-155h-60v38q0 80 -112 80q-51 0 -79.5 -19.5
t-28.5 -61.5q0 -35 23 -58.5t63 -32.5l56 -12q77 -16 115.5 -53t38.5 -103q0 -32 -12.5 -59.5t-36 -48t-57 -32t-76.5 -11.5z" />
    <glyph glyph-name="t" unicode="t" horiz-adv-x="353" 
d="M202 -6q-53 0 -73 21.5t-20 73.5v378h-66v49h9q21 0 33.5 3t20 8.5t11 14t6.5 19.5l23 89h45v-134h133v-49h-133v-418h133v-33q-9 -5 -22.5 -9t-30 -7t-34.5 -4.5t-35 -1.5z" />
    <glyph glyph-name="u" unicode="u" horiz-adv-x="619" 
d="M278 -12q-93 0 -133.5 48.5t-40.5 146.5v268l-74 13v34l156 30v-338q0 -145 121 -145q22 0 43.5 6t39 19t28 32t10.5 45v304l-74 13v34l156 30v-463l74 -13v-34l-154 -30v90h-4q-6 -15 -18.5 -31t-31 -29t-43.5 -21.5t-55 -8.5z" />
    <glyph glyph-name="v" unicode="v" horiz-adv-x="534" 
d="M54 470h-52v46h214v-46h-72l139 -378h4l135 378h-72v46h182v-46h-52l-181 -470h-63z" />
    <glyph glyph-name="w" unicode="w" horiz-adv-x="777" 
d="M60 470h-52v46h207v-46h-72l103 -390h4l125 436h69l115 -436h4l105 390h-72v46h173v-46h-52l-131 -470h-80l-111 405h-4l-121 -405h-80z" />
    <glyph glyph-name="x" unicode="x" horiz-adv-x="561" 
d="M31 46h57l151 206l-153 218h-52v46h210v-46h-59l112 -164h4l106 164h-62v46h181v-46h-57l-143 -203l153 -221h52v-46h-211v46h59l-111 167h-4l-114 -167h62v-46h-181v46z" />
    <glyph glyph-name="y" unicode="y" horiz-adv-x="534" 
d="M123 -212q-51 0 -74 21.5t-23 56.5q0 26 14 42t40 16q23 0 35.5 -13.5t12.5 -36.5q0 -17 -8.5 -27.5t-18.5 -13.5v-3q11 -4 26 -4q26 0 51 22.5t45 73.5l21 57l-190 491h-52v46h214v-46h-72l139 -378h4l135 378h-72v46h182v-46h-52l-214 -556q-21 -55 -56.5 -90.5
t-86.5 -35.5z" />
    <glyph glyph-name="z" unicode="z" horiz-adv-x="508" 
d="M50 35l295 434h-227v-108h-60v155h392v-35l-295 -434h243v108h60v-155h-408v35z" />
    <glyph glyph-name="braceleft" unicode="{" horiz-adv-x="327" 
d="M195 -138q-39 0 -58.5 22t-19.5 54v259q0 44 -28.5 66t-72.5 22v52q44 0 72.5 22t28.5 66v259q0 32 19.5 54t58.5 22h98v-45h-100v-273q0 -24 -9 -45t-24 -38t-35.5 -28t-42.5 -15v-10q22 -4 42.5 -15t35.5 -28t24 -38t9 -45v-273h100v-45h-98v0z" />
    <glyph glyph-name="bar" unicode="|" horiz-adv-x="298" 
d="M122 760h54v-898h-54v898z" />
    <glyph glyph-name="braceright" unicode="}" horiz-adv-x="327" 
d="M34 -93h100v273q0 24 9 45t24 38t35 28t43 15v10q-23 4 -43 15t-35 28t-24 38t-9 45v273h-100v45h98q39 0 58.5 -22t19.5 -54v-259q0 -44 28.5 -66t72.5 -22v-52q-44 0 -72.5 -22t-28.5 -66v-259q0 -32 -19.5 -54t-58.5 -22h-98v45z" />
    <glyph glyph-name="asciitilde" unicode="~" 
d="M420 244q-36 0 -65 10t-64 27q-30 14 -57 24t-57 10q-26 0 -45.5 -8t-42.5 -25l-25 33q21 25 46.5 39.5t69.5 14.5q36 0 65 -10t64 -27q30 -14 57 -24t57 -10q26 0 45.5 7.5t42.5 24.5l25 -32q-21 -25 -46.5 -39.5t-69.5 -14.5z" />
    <glyph glyph-name="uni00A0" unicode="&#xa0;" horiz-adv-x="232" 
 />
    <glyph glyph-name="exclamdown" unicode="&#xa1;" horiz-adv-x="280" 
d="M140 402q-29 0 -45.5 17.5t-16.5 42.5v6q0 25 16.5 42.5t45.5 17.5t45.5 -17.5t16.5 -42.5v-6q0 -25 -16.5 -42.5t-45.5 -17.5zM99 29l24 303h34l24 -303v-211h-82v211z" />
    <glyph glyph-name="cent" unicode="&#xa2;" horiz-adv-x="516" 
d="M252 -11q-49 4 -87.5 25.5t-65 56.5t-40.5 82.5t-14 104.5t15 103.5t42 81t65 55.5t85 27v104h52v-102q74 -4 116.5 -37.5t42.5 -84.5q0 -30 -16.5 -47.5t-45.5 -17.5q-27 0 -42.5 17.5t-15.5 42.5q0 20 11.5 34.5t31.5 22.5v3q-14 8 -34.5 14.5t-49.5 6.5v-429
q57 2 89.5 27.5t52.5 64.5l32 -21q-9 -24 -23.5 -46.5t-35.5 -41t-49 -31t-64 -15.5v-103h-52v103zM254 475q-54 -14 -86.5 -59.5t-32.5 -108.5v-73q0 -71 31.5 -118t87.5 -60v419z" />
    <glyph glyph-name="sterling" unicode="&#xa3;" horiz-adv-x="587" 
d="M67 71q43 20 66 68t23 105q0 15 -2.5 30t-5.5 30h-91v47h79q-13 40 -25 80t-12 85q0 42 15.5 78t43.5 61.5t67.5 40t88.5 14.5q46 0 83 -10t63.5 -27.5t41 -41t14.5 -51.5q0 -32 -17 -50.5t-47 -18.5q-29 0 -44.5 18.5t-15.5 41.5q0 44 43 63v3q-15 9 -43.5 14.5
t-60.5 5.5q-79 0 -114.5 -37t-35.5 -93q0 -52 13 -93.5t25 -82.5h184v-47h-174q2 -12 3.5 -24t1.5 -26q0 -32 -9.5 -60t-24.5 -51t-33.5 -40.5t-36.5 -27.5v-4h345v100h50v-171h-458v71z" />
    <glyph glyph-name="currency" unicode="&#xa4;" horiz-adv-x="610" 
d="M305 119q-79 0 -132 44l-101 -101l-44 44l103 103q-37 57 -37 140t37 140l-103 103l44 44l101 -101q53 44 132 44t132 -44l101 101l44 -44l-103 -103q37 -57 37 -140t-37 -140l103 -103l-44 -44l-101 101q-53 -44 -132 -44zM305 168q33 0 57.5 10.5t40.5 29.5t23.5 44
t7.5 55v84q0 30 -7.5 55t-23.5 44t-40.5 29.5t-57.5 10.5t-57.5 -10.5t-40.5 -29.5t-23.5 -44t-7.5 -55v-84q0 -30 7.5 -55t23.5 -44t40.5 -29.5t57.5 -10.5z" />
    <glyph glyph-name="yen" unicode="&#xa5;" horiz-adv-x="631" 
d="M177 46h95v104h-174v46h174v107h-174v46h149l-175 303h-56v46h243v-46h-90l161 -287h4l164 287h-90v46h207v-46h-56l-180 -303h153v-46h-174v-107h174v-46h-174v-104h95v-46h-276v46z" />
    <glyph glyph-name="brokenbar" unicode="&#xa6;" horiz-adv-x="298" 
d="M122 221h54v-359h-54v359zM122 760h54v-359h-54v359z" />
    <glyph glyph-name="section" unicode="&#xa7;" horiz-adv-x="596" 
d="M274 -154q-71 0 -114 24.5t-43 69.5q0 30 16.5 47t42.5 17q25 0 40 -14.5t15 -37.5q0 -21 -10 -31.5t-24 -16.5v-2q14 -5 30 -7.5t33 -2.5q61 0 94 24t33 73q0 41 -23.5 66.5t-62.5 37.5l-69 20q-38 11 -67 24.5t-49 32.5t-30 44t-10 59q0 51 35 89t89 55v4
q-67 43 -67 130q0 75 48.5 117t140.5 42q72 0 114.5 -24.5t42.5 -69.5q0 -30 -16.5 -47t-42.5 -17q-25 0 -40 14.5t-15 37.5q0 21 10 31.5t24 16.5v2q-14 5 -30 7.5t-33 2.5q-61 0 -94 -24t-33 -73q0 -41 23.5 -66.5t62.5 -37.5l69 -20q38 -11 67 -24.5t49 -32.5t30 -44
t10 -59q0 -51 -34.5 -89t-88.5 -55v-4q66 -44 66 -130q0 -75 -48 -117t-141 -42zM355 157q42 7 64.5 33t22.5 77q0 38 -22.5 61.5t-64.5 35.5l-73 21q-11 3 -21 6.5t-19 7.5q-42 -7 -65 -33t-23 -77q0 -38 22.5 -61.5t64.5 -35.5l73 -21q11 -3 21 -6.5t20 -7.5z" />
    <glyph glyph-name="dieresis" unicode="&#xa8;" 
d="M209 619q-23 0 -36.5 14.5t-13.5 34.5v3q0 20 13.5 34.5t36.5 14.5t36.5 -14.5t13.5 -34.5v-3q0 -20 -13.5 -34.5t-36.5 -14.5zM391 619q-23 0 -36.5 14.5t-13.5 34.5v3q0 20 13.5 34.5t36.5 14.5t36.5 -14.5t13.5 -34.5v-3q0 -20 -13.5 -34.5t-36.5 -14.5z" />
    <glyph glyph-name="copyright" unicode="&#xa9;" horiz-adv-x="778" 
d="M398 155q-83 0 -128 53t-45 140q0 45 13 81t36.5 61.5t56.5 39t72 13.5q59 0 94 -26t35 -66q0 -22 -12.5 -35t-34.5 -13q-20 0 -31 13t-11 32q0 29 32 43v2q-11 5 -26.5 8.5t-38.5 3.5q-52 0 -85 -34t-33 -86v-54q0 -57 31 -91.5t84 -34.5q45 0 70 17t39 44l25 -15
q-7 -18 -19 -35.5t-29.5 -31t-41 -21.5t-53.5 -8zM389 35q61 0 112.5 21.5t89 59.5t58 90t20.5 113v60q0 61 -20.5 113t-58 90t-89 59.5t-112.5 21.5q-62 0 -113 -21.5t-88.5 -59.5t-58 -90t-20.5 -113v-60q0 -61 20.5 -113t58 -90t88.5 -59.5t113 -21.5zM389 -12
q-71 0 -131.5 25t-105.5 72t-70.5 114t-25.5 150t25.5 150t70.5 114t105.5 72t131.5 25q70 0 131 -25t106 -72t70.5 -114t25.5 -150t-25.5 -150t-70.5 -114t-106 -72t-131 -25z" />
    <glyph glyph-name="ordfeminine" unicode="&#xaa;" horiz-adv-x="396" 
d="M147 346q-51 0 -79 25t-28 67q0 50 35.5 76.5t121.5 26.5h49v48q0 40 -19.5 61.5t-57.5 21.5q-36 0 -55 -10v-3q9 -3 16 -12.5t7 -21.5q0 -17 -11.5 -27t-28.5 -10q-18 0 -29.5 10.5t-11.5 30.5q0 28 34 51.5t97 23.5q57 0 89 -28t32 -79v-214h50v-24q-8 -5 -20.5 -9
t-29.5 -4q-57 0 -57 53v4h-3q-11 -23 -34 -40t-67 -17zM170 384q32 0 54 16t22 49v62h-44q-56 0 -77 -15.5t-21 -47.5v-12q0 -26 17.5 -39t48.5 -13z" />
    <glyph glyph-name="guillemotleft" unicode="&#xab;" horiz-adv-x="510" 
d="M36 262v46l193 179l20 -27l-127 -175l127 -175l-20 -27zM242 262v46l193 179l20 -27l-127 -175l127 -175l-20 -27z" />
    <glyph glyph-name="logicalnot" unicode="&#xac;" 
d="M462 279h-396v52h452v-250h-56v198z" />
    <glyph glyph-name="uni00AD" unicode="&#xad;" horiz-adv-x="393" 
d="M66 340h261v-70h-261v70z" />
    <glyph glyph-name="registered" unicode="&#xae;" horiz-adv-x="475" 
d="M147 416h20v176h-20v18h102q31 0 48 -14.5t17 -41.5q0 -46 -42 -58l34 -62q10 -18 27 -18h2v-18h-11q-20 0 -33 6t-23 23l-35 63h-28v-74h17v-18h-75v18zM237 329q36 0 65.5 13.5t50.5 36t33 52.5t12 62v22q0 32 -12 62t-33 52.5t-50.5 36t-65.5 13.5t-65.5 -13.5
t-50.5 -36t-33 -52.5t-12 -62v-22q0 -32 12 -62t33 -52.5t50.5 -36t65.5 -13.5zM237 298q-41 0 -77 15.5t-63 43t-42.5 65.5t-15.5 82t15.5 82t42.5 65.5t63 43t77 15.5q40 0 76 -15.5t63 -43t43 -65.5t16 -82t-16 -82t-43 -65.5t-63 -43t-76 -15.5zM205 511h41q14 0 21.5 9
t7.5 23v13q0 14 -7.5 22.5t-21.5 8.5h-41v-76z" />
    <glyph glyph-name="macron" unicode="&#xaf;" 
d="M161 699h278v-57h-278v57z" />
    <glyph glyph-name="degree" unicode="&#xb0;" horiz-adv-x="466" 
d="M233 368q-36 0 -66.5 13t-53 36t-35 54.5t-12.5 67.5t12.5 67.5t35 54.5t53 36t66.5 13t66.5 -13t53 -36t35 -54.5t12.5 -67.5t-12.5 -67.5t-35 -54.5t-53 -36t-66.5 -13zM233 418q25 0 45.5 9.5t35 26t22.5 38.5t8 47t-8 47t-22.5 38.5t-35 26t-45.5 9.5t-45.5 -9.5
t-35 -26t-22.5 -38.5t-8 -47t8 -47t22.5 -38.5t35 -26t45.5 -9.5z" />
    <glyph glyph-name="plusminus" unicode="&#xb1;" 
d="M272 365h-206v52h206v198h56v-198h206v-52h-206v-198h-56v198zM66 52h468v-52h-468v52z" />
    <glyph glyph-name="twosuperior" unicode="&#xb2;" horiz-adv-x="346" 
d="M36 382l130 108q24 20 41 45t17 54v11q0 31 -19.5 50.5t-52.5 19.5q-17 0 -28.5 -2.5t-20.5 -7.5v-3q8 -5 13.5 -15t5.5 -20q0 -18 -10.5 -29.5t-28.5 -11.5q-20 0 -31 12t-11 33q0 32 34 55t88 23q63 0 98 -27.5t35 -76.5q0 -50 -29 -84.5t-68 -59.5l-109 -70v-4h182v45
h40v-97h-276v52z" />
    <glyph glyph-name="threesuperior" unicode="&#xb3;" horiz-adv-x="346" 
d="M156 324q-60 0 -92.5 24t-32.5 55q0 20 11 32t31 12t29.5 -11.5t9.5 -28.5q0 -11 -5 -20t-12 -14v-3q17 -12 51 -12q40 0 61.5 18.5t21.5 48.5v15q0 29 -19.5 46t-57.5 17h-33v37h29q36 0 55 18t19 41v13q0 29 -18.5 43.5t-49.5 14.5q-34 0 -49 -9v-3q6 -5 11.5 -13.5
t5.5 -20.5q0 -17 -10 -28.5t-29 -11.5q-20 0 -31 12.5t-11 32.5q0 29 34 52t87 23q64 0 98 -22t34 -70q0 -17 -7 -31.5t-18.5 -26t-26.5 -18.5t-31 -10v-4q37 -6 63.5 -28t26.5 -60q0 -54 -40 -82t-105 -28z" />
    <glyph glyph-name="acute" unicode="&#xb4;" 
d="M266 599l76 177l77 -38l-126 -153z" />
    <glyph glyph-name="mu" unicode="&#xb5;" horiz-adv-x="619" 
d="M104 451l-74 13v34l156 30v-338q0 -145 121 -145q22 0 43.5 6t39 19t28 32t10.5 45v304l-74 13v34l156 30v-463l74 -13v-34l-154 -30v90h-4q-6 -15 -18.5 -31t-31 -29t-43.5 -21.5t-55 -8.5q-41 0 -73 14.5t-49 40.5h-4l41 -187v-56h-89v651z" />
    <glyph glyph-name="paragraph" unicode="&#xb6;" horiz-adv-x="641" 
d="M297 -154q-38 0 -70 8.5t-55 24.5t-36.5 37t-13.5 47q0 30 16 48.5t45 18.5q26 0 39.5 -16t13.5 -40q0 -23 -12.5 -37t-33.5 -20v-3q17 -12 43 -19t64 -7h8v417q-52 0 -98 12.5t-80 37t-54 61t-20 86.5q0 49 20 86t54 61.5t80 36.5t98 12h261v-46h-75v-578
q0 -114 -51 -171t-143 -57zM355 -102q42 16 64 59t22 117v578h-86v-754z" />
    <glyph glyph-name="periodcentered" unicode="&#xb7;" horiz-adv-x="324" 
d="M162 241q-29 0 -45.5 17.5t-16.5 42.5v6q0 25 16.5 42.5t45.5 17.5t45.5 -17.5t16.5 -42.5v-6q0 -25 -16.5 -42.5t-45.5 -17.5z" />
    <glyph glyph-name="cedilla" unicode="&#xb8;" 
d="M312 -206q-36 0 -56.5 13t-31.5 26l20 21q10 -11 24 -17.5t34 -6.5q24 0 38.5 10.5t14.5 31.5q0 16 -11.5 29.5t-49.5 17.5l-28 3l19 96h38l-16 -80l3 -3q20 5 36 5q32 0 53 -16.5t21 -48.5q0 -21 -8.5 -36t-23.5 -25t-34.5 -15t-41.5 -5z" />
    <glyph glyph-name="onesuperior" unicode="&#xb9;" horiz-adv-x="360" 
d="M56 368h108v276l-112 -42l-15 32l141 64h53v-330h95v-38h-270v38z" />
    <glyph glyph-name="ordmasculine" unicode="&#xba;" horiz-adv-x="406" 
d="M203 380q25 0 42.5 8.5t28.5 23.5t16.5 34.5t5.5 41.5v74q0 22 -5.5 41.5t-16.5 34.5t-28.5 23.5t-42.5 8.5t-42.5 -8.5t-29 -23.5t-16.5 -34.5t-5 -41.5v-74q0 -22 5 -41.5t16.5 -34.5t29 -23.5t42.5 -8.5zM203 346q-36 0 -66 13t-51 36.5t-32.5 56.5t-11.5 73t11.5 73
t32.5 56.5t51 36.5t66 13t66 -13t51 -36.5t32.5 -56.5t11.5 -73t-11.5 -73t-32.5 -56.5t-51 -36.5t-66 -13z" />
    <glyph glyph-name="guillemotright" unicode="&#xbb;" horiz-adv-x="510" 
d="M55 110l127 175l-127 175l20 27l193 -179v-46l-193 -179zM261 110l127 175l-127 175l20 27l193 -179v-46l-193 -179z" />
    <glyph glyph-name="onequarter" unicode="&#xbc;" horiz-adv-x="900" 
d="M56 368h108v276l-112 -42l-15 32l141 64h53v-330h95v-38h-270v38zM689 698h62l-483 -698h-62zM729 72h-187v49l182 247h67v-247h56v-49h-56v-72h-62v72zM585 121h144v191h-4z" />
    <glyph glyph-name="onehalf" unicode="&#xbd;" horiz-adv-x="903" 
d="M56 368h108v276l-112 -42l-15 32l141 64h53v-330h95v-38h-270v38zM689 698h62l-483 -698h-62zM593 52l130 108q24 20 41 45t17 54v11q0 31 -19.5 50.5t-52.5 19.5q-17 0 -28.5 -2.5t-20.5 -7.5v-3q8 -5 13.5 -15t5.5 -20q0 -18 -10.5 -29.5t-28.5 -11.5q-20 0 -31 12
t-11 33q0 32 34 55t88 23q63 0 98 -27.5t35 -76.5q0 -50 -29 -84.5t-68 -59.5l-109 -70v-4h182v45h40v-97h-276v52z" />
    <glyph glyph-name="threequarters" unicode="&#xbe;" horiz-adv-x="846" 
d="M156 324q-60 0 -92.5 24t-32.5 55q0 20 11 32t31 12t29.5 -11.5t9.5 -28.5q0 -11 -5 -20t-12 -14v-3q17 -12 51 -12q40 0 61.5 18.5t21.5 48.5v15q0 29 -19.5 46t-57.5 17h-33v37h29q36 0 55 18t19 41v13q0 29 -18.5 43.5t-49.5 14.5q-34 0 -49 -9v-3q6 -5 11.5 -13.5
t5.5 -20.5q0 -17 -10 -28.5t-29 -11.5q-20 0 -31 12.5t-11 32.5q0 29 34 52t87 23q64 0 98 -22t34 -70q0 -17 -7 -31.5t-18.5 -26t-26.5 -18.5t-31 -10v-4q37 -6 63.5 -28t26.5 -60q0 -54 -40 -82t-105 -28zM635 698h62l-483 -698h-62zM675 72h-187v49l182 247h67v-247h56
v-49h-56v-72h-62v72zM531 121h144v191h-4z" />
    <glyph glyph-name="questiondown" unicode="&#xbf;" horiz-adv-x="487" 
d="M247 -194q-45 0 -83 13t-65 37t-42 57.5t-15 74.5q0 45 17 81.5t47 62.5t70 42t86 20v117h55v-166q-82 -3 -133.5 -39.5t-51.5 -103.5v-23q0 -60 35 -92t92 -32q37 0 61 6.5t41 16.5v2q-11 4 -23.5 19.5t-12.5 37.5q0 26 15.5 43.5t43.5 17.5t44.5 -17t16.5 -49
q0 -25 -16 -47.5t-43 -40t-63 -28t-76 -10.5zM289 402q-29 0 -45.5 17.5t-16.5 42.5v6q0 25 16.5 42.5t45.5 17.5t45.5 -17.5t16.5 -42.5v-6q0 -25 -16.5 -42.5t-45.5 -17.5z" />
    <glyph glyph-name="Agrave" unicode="&#xc0;" horiz-adv-x="686" 
d="M16 46h53l227 652h95l226 -652h53v-46h-236v46h90l-62 181h-272l-62 -181h90v-46h-202v46zM204 275h243l-117 350h-6zM224 914l77 38l76 -177l-27 -14z" />
    <glyph glyph-name="Aacute" unicode="&#xc1;" horiz-adv-x="686" 
d="M16 46h53l227 652h95l226 -652h53v-46h-236v46h90l-62 181h-272l-62 -181h90v-46h-202v46zM204 275h243l-117 350h-6zM309 775l76 177l77 -38l-126 -153z" />
    <glyph glyph-name="Acircumflex" unicode="&#xc2;" horiz-adv-x="686" 
d="M16 46h53l227 652h95l226 -652h53v-46h-236v46h90l-62 181h-272l-62 -181h90v-46h-202v46zM204 275h243l-117 350h-6zM192 785l123 149h56l123 -149l-24 -16l-127 97l-127 -97z" />
    <glyph glyph-name="Atilde" unicode="&#xc3;" horiz-adv-x="686" 
d="M16 46h53l227 652h95l226 -652h53v-46h-236v46h90l-62 181h-272l-62 -181h90v-46h-202v46zM204 275h243l-117 350h-6zM404 786q-19 0 -36.5 8.5t-35.5 18.5q-18 9 -38 18.5t-35 9.5t-24.5 -7t-28.5 -26l-19 20q25 31 44.5 49.5t50.5 18.5q19 0 36.5 -8.5t35.5 -18.5
q18 -9 38 -18.5t35 -9.5t24.5 7t28.5 26l19 -20q-25 -31 -44.5 -49.5t-50.5 -18.5z" />
    <glyph glyph-name="Adieresis" unicode="&#xc4;" horiz-adv-x="686" 
d="M16 46h53l227 652h95l226 -652h53v-46h-236v46h90l-62 181h-272l-62 -181h90v-46h-202v46zM204 275h243l-117 350h-6zM252 791q-23 0 -36.5 14.5t-13.5 34.5v3q0 20 13.5 34.5t36.5 14.5t36.5 -14.5t13.5 -34.5v-3q0 -20 -13.5 -34.5t-36.5 -14.5zM434 791
q-23 0 -36.5 14.5t-13.5 34.5v3q0 20 13.5 34.5t36.5 14.5t36.5 -14.5t13.5 -34.5v-3q0 -20 -13.5 -34.5t-36.5 -14.5z" />
    <glyph glyph-name="Aring" unicode="&#xc5;" horiz-adv-x="686" 
d="M16 46h53l227 652h95l226 -652h53v-46h-236v46h90l-62 181h-272l-62 -181h90v-46h-202v46zM204 275h243l-117 350h-6zM343 782q28 0 43.5 16.5t15.5 46.5v30q0 30 -15.5 46.5t-43.5 16.5t-43.5 -16.5t-15.5 -46.5v-30q0 -30 15.5 -46.5t43.5 -16.5zM343 748
q-25 0 -46.5 8.5t-37 23.5t-24.5 35.5t-9 44.5t9 44.5t24.5 35.5t37 23.5t46.5 8.5t46 -8.5t37 -23.5t25 -35.5t9 -44.5t-9 -44.5t-25 -35.5t-37 -23.5t-46 -8.5z" />
    <glyph glyph-name="AE" unicode="&#xc6;" horiz-adv-x="954" 
d="M11 46h53l311 606h-76v46h585v-168h-72v119h-283v-265h198v80h60v-209h-60v80h-198v-286h293v128h72v-177h-526v46h75v181h-226l-92 -181h77v-46h-191v46zM238 275h205v377h-10z" />
    <glyph glyph-name="Ccedilla" unicode="&#xc7;" horiz-adv-x="649" 
d="M354 -206q-36 0 -56.5 13t-31.5 26l20 21q10 -11 24 -17.5t34 -6.5q24 0 38.5 10.5t14.5 31.5q0 16 -11.5 29.5t-49.5 17.5l-28 3l13 67q-62 4 -112 30.5t-85 73t-54.5 111.5t-19.5 145q0 87 21 154t58.5 113t90.5 70t117 24q65 0 108.5 -21.5t57.5 -53.5h4v63h72v-204
h-72v52q0 50 -44 80.5t-115 30.5q-53 0 -91.5 -19.5t-63 -53t-36 -78t-11.5 -93.5v-121q0 -55 14.5 -99t42 -75.5t67.5 -48.5t91 -17q71 0 119 37t70 94l39 -19q-9 -28 -27.5 -57.5t-47 -55t-67.5 -42.5t-88 -20l-10 -51l3 -3q20 5 36 5q32 0 53 -16.5t21 -48.5
q0 -21 -8.5 -36t-23.5 -25t-34.5 -15t-41.5 -5z" />
    <glyph glyph-name="Egrave" unicode="&#xc8;" horiz-adv-x="641" 
d="M55 46h75v606h-75v46h516v-168h-72v119h-283v-265h198v80h60v-209h-60v80h-198v-286h293v128h72v-177h-526v46zM216 914l77 38l76 -177l-27 -14z" />
    <glyph glyph-name="Eacute" unicode="&#xc9;" horiz-adv-x="641" 
d="M55 46h75v606h-75v46h516v-168h-72v119h-283v-265h198v80h60v-209h-60v80h-198v-286h293v128h72v-177h-526v46zM301 775l76 177l77 -38l-126 -153z" />
    <glyph glyph-name="Ecircumflex" unicode="&#xca;" horiz-adv-x="641" 
d="M55 46h75v606h-75v46h516v-168h-72v119h-283v-265h198v80h60v-209h-60v80h-198v-286h293v128h72v-177h-526v46zM184 785l123 149h56l123 -149l-24 -16l-127 97l-127 -97z" />
    <glyph glyph-name="Edieresis" unicode="&#xcb;" horiz-adv-x="641" 
d="M55 46h75v606h-75v46h516v-168h-72v119h-283v-265h198v80h60v-209h-60v80h-198v-286h293v128h72v-177h-526v46zM244 791q-23 0 -36.5 14.5t-13.5 34.5v3q0 20 13.5 34.5t36.5 14.5t36.5 -14.5t13.5 -34.5v-3q0 -20 -13.5 -34.5t-36.5 -14.5zM426 791q-23 0 -36.5 14.5
t-13.5 34.5v3q0 20 13.5 34.5t36.5 14.5t36.5 -14.5t13.5 -34.5v-3q0 -20 -13.5 -34.5t-36.5 -14.5z" />
    <glyph glyph-name="Igrave" unicode="&#xcc;" horiz-adv-x="346" 
d="M55 46h75v606h-75v46h236v-46h-75v-606h75v-46h-236v46zM55 914l77 38l76 -177l-27 -14z" />
    <glyph glyph-name="Iacute" unicode="&#xcd;" horiz-adv-x="346" 
d="M55 46h75v606h-75v46h236v-46h-75v-606h75v-46h-236v46zM140 775l76 177l77 -38l-126 -153z" />
    <glyph glyph-name="Icircumflex" unicode="&#xce;" horiz-adv-x="346" 
d="M55 46h75v606h-75v46h236v-46h-75v-606h75v-46h-236v46zM23 785l123 149h56l123 -149l-24 -16l-127 97l-127 -97z" />
    <glyph glyph-name="Idieresis" unicode="&#xcf;" horiz-adv-x="346" 
d="M55 46h75v606h-75v46h236v-46h-75v-606h75v-46h-236v46zM83 791q-23 0 -36.5 14.5t-13.5 34.5v3q0 20 13.5 34.5t36.5 14.5t36.5 -14.5t13.5 -34.5v-3q0 -20 -13.5 -34.5t-36.5 -14.5zM265 791q-23 0 -36.5 14.5t-13.5 34.5v3q0 20 13.5 34.5t36.5 14.5t36.5 -14.5
t13.5 -34.5v-3q0 -20 -13.5 -34.5t-36.5 -14.5z" />
    <glyph glyph-name="Eth" unicode="&#xd0;" horiz-adv-x="706" 
d="M55 46h75v279h-90v48h90v279h-75v46h292q69 0 126 -21.5t97.5 -65t63 -109t22.5 -153.5t-22.5 -153.5t-63 -109t-97.5 -65t-126 -21.5h-292v46zM216 49h122q51 0 92.5 17.5t70 49t44 75.5t15.5 98v120q0 54 -15.5 98t-44 75.5t-70 49t-92.5 17.5h-122v-276h138v-48h-138
v-276z" />
    <glyph glyph-name="Ntilde" unicode="&#xd1;" horiz-adv-x="778" 
d="M55 46h75v606h-75v46h169l375 -560h4v514h-75v46h205v-46h-75v-652h-67l-402 601h-4v-555h75v-46h-205v46zM453 786q-19 0 -36.5 8.5t-35.5 18.5q-18 9 -38 18.5t-35 9.5t-24.5 -7t-28.5 -26l-19 20q25 31 44.5 49.5t50.5 18.5q19 0 36.5 -8.5t35.5 -18.5q18 -9 38 -18.5
t35 -9.5t24.5 7t28.5 26l19 -20q-25 -31 -44.5 -49.5t-50.5 -18.5z" />
    <glyph glyph-name="Ograve" unicode="&#xd2;" horiz-adv-x="716" 
d="M358 41q51 0 90.5 18.5t66.5 52t41 79.5t14 101v114q0 55 -14 101t-41 79.5t-66.5 52t-90.5 18.5t-90.5 -18.5t-66.5 -52t-41 -79.5t-14 -101v-114q0 -55 14 -101t41 -79.5t66.5 -52t90.5 -18.5zM358 -12q-69 0 -126 25t-97.5 72t-62.5 113.5t-22 150.5t22 150.5
t62.5 113.5t97.5 72t126 25t126 -25t97.5 -72t62.5 -113.5t22 -150.5t-22 -150.5t-62.5 -113.5t-97.5 -72t-126 -25zM239 914l77 38l76 -177l-27 -14z" />
    <glyph glyph-name="Oacute" unicode="&#xd3;" horiz-adv-x="716" 
d="M358 41q51 0 90.5 18.5t66.5 52t41 79.5t14 101v114q0 55 -14 101t-41 79.5t-66.5 52t-90.5 18.5t-90.5 -18.5t-66.5 -52t-41 -79.5t-14 -101v-114q0 -55 14 -101t41 -79.5t66.5 -52t90.5 -18.5zM358 -12q-69 0 -126 25t-97.5 72t-62.5 113.5t-22 150.5t22 150.5
t62.5 113.5t97.5 72t126 25t126 -25t97.5 -72t62.5 -113.5t22 -150.5t-22 -150.5t-62.5 -113.5t-97.5 -72t-126 -25zM324 775l76 177l77 -38l-126 -153z" />
    <glyph glyph-name="Ocircumflex" unicode="&#xd4;" horiz-adv-x="716" 
d="M358 41q51 0 90.5 18.5t66.5 52t41 79.5t14 101v114q0 55 -14 101t-41 79.5t-66.5 52t-90.5 18.5t-90.5 -18.5t-66.5 -52t-41 -79.5t-14 -101v-114q0 -55 14 -101t41 -79.5t66.5 -52t90.5 -18.5zM358 -12q-69 0 -126 25t-97.5 72t-62.5 113.5t-22 150.5t22 150.5
t62.5 113.5t97.5 72t126 25t126 -25t97.5 -72t62.5 -113.5t22 -150.5t-22 -150.5t-62.5 -113.5t-97.5 -72t-126 -25zM207 785l123 149h56l123 -149l-24 -16l-127 97l-127 -97z" />
    <glyph glyph-name="Otilde" unicode="&#xd5;" horiz-adv-x="716" 
d="M358 41q51 0 90.5 18.5t66.5 52t41 79.5t14 101v114q0 55 -14 101t-41 79.5t-66.5 52t-90.5 18.5t-90.5 -18.5t-66.5 -52t-41 -79.5t-14 -101v-114q0 -55 14 -101t41 -79.5t66.5 -52t90.5 -18.5zM358 -12q-69 0 -126 25t-97.5 72t-62.5 113.5t-22 150.5t22 150.5
t62.5 113.5t97.5 72t126 25t126 -25t97.5 -72t62.5 -113.5t22 -150.5t-22 -150.5t-62.5 -113.5t-97.5 -72t-126 -25zM419 786q-19 0 -36.5 8.5t-35.5 18.5q-18 9 -38 18.5t-35 9.5t-24.5 -7t-28.5 -26l-19 20q25 31 44.5 49.5t50.5 18.5q19 0 36.5 -8.5t35.5 -18.5
q18 -9 38 -18.5t35 -9.5t24.5 7t28.5 26l19 -20q-25 -31 -44.5 -49.5t-50.5 -18.5z" />
    <glyph glyph-name="Odieresis" unicode="&#xd6;" horiz-adv-x="716" 
d="M358 41q51 0 90.5 18.5t66.5 52t41 79.5t14 101v114q0 55 -14 101t-41 79.5t-66.5 52t-90.5 18.5t-90.5 -18.5t-66.5 -52t-41 -79.5t-14 -101v-114q0 -55 14 -101t41 -79.5t66.5 -52t90.5 -18.5zM358 -12q-69 0 -126 25t-97.5 72t-62.5 113.5t-22 150.5t22 150.5
t62.5 113.5t97.5 72t126 25t126 -25t97.5 -72t62.5 -113.5t22 -150.5t-22 -150.5t-62.5 -113.5t-97.5 -72t-126 -25zM267 791q-23 0 -36.5 14.5t-13.5 34.5v3q0 20 13.5 34.5t36.5 14.5t36.5 -14.5t13.5 -34.5v-3q0 -20 -13.5 -34.5t-36.5 -14.5zM449 791q-23 0 -36.5 14.5
t-13.5 34.5v3q0 20 13.5 34.5t36.5 14.5t36.5 -14.5t13.5 -34.5v-3q0 -20 -13.5 -34.5t-36.5 -14.5z" />
    <glyph glyph-name="multiply" unicode="&#xd7;" 
d="M96 138l167 167l-167 167l37 37l167 -167l167 167l37 -37l-167 -167l167 -167l-37 -37l-167 167l-167 -167z" />
    <glyph glyph-name="Oslash" unicode="&#xd8;" horiz-adv-x="716" 
d="M89 -17l58 88q-46 48 -71.5 117.5t-25.5 160.5q0 84 22 150.5t62.5 113.5t97.5 72t126 25q101 0 174 -52l56 84l39 -27l-58 -88q46 -48 71.5 -117.5t25.5 -160.5q0 -84 -22 -150.5t-62.5 -113.5t-97.5 -72t-126 -25q-101 0 -174 52l-56 -84zM498 605q-26 25 -61 38.5
t-79 13.5q-51 0 -90.5 -18.5t-66.5 -52t-41 -79.5t-14 -101v-114q0 -96 41 -161zM358 41q51 0 90.5 18.5t66.5 52t41 79.5t14 101v114q0 96 -41 161l-311 -474q26 -25 61 -38.5t79 -13.5z" />
    <glyph glyph-name="Ugrave" unicode="&#xd9;" horiz-adv-x="735" 
d="M375 -12q-68 0 -116.5 15t-79.5 49t-45 87t-14 130v383h-75v46h236v-46h-75v-399q0 -53 9 -92t29.5 -64.5t53.5 -38.5t82 -13q98 0 139 51.5t41 156.5v399h-75v46h205v-46h-75v-370q0 -76 -12 -131.5t-40.5 -91.5t-74.5 -53.5t-113 -17.5zM264 914l77 38l76 -177l-27 -14
z" />
    <glyph glyph-name="Uacute" unicode="&#xda;" horiz-adv-x="735" 
d="M375 -12q-68 0 -116.5 15t-79.5 49t-45 87t-14 130v383h-75v46h236v-46h-75v-399q0 -53 9 -92t29.5 -64.5t53.5 -38.5t82 -13q98 0 139 51.5t41 156.5v399h-75v46h205v-46h-75v-370q0 -76 -12 -131.5t-40.5 -91.5t-74.5 -53.5t-113 -17.5zM349 775l76 177l77 -38
l-126 -153z" />
    <glyph glyph-name="Ucircumflex" unicode="&#xdb;" horiz-adv-x="735" 
d="M375 -12q-68 0 -116.5 15t-79.5 49t-45 87t-14 130v383h-75v46h236v-46h-75v-399q0 -53 9 -92t29.5 -64.5t53.5 -38.5t82 -13q98 0 139 51.5t41 156.5v399h-75v46h205v-46h-75v-370q0 -76 -12 -131.5t-40.5 -91.5t-74.5 -53.5t-113 -17.5zM232 785l123 149h56l123 -149
l-24 -16l-127 97l-127 -97z" />
    <glyph glyph-name="Udieresis" unicode="&#xdc;" horiz-adv-x="735" 
d="M375 -12q-68 0 -116.5 15t-79.5 49t-45 87t-14 130v383h-75v46h236v-46h-75v-399q0 -53 9 -92t29.5 -64.5t53.5 -38.5t82 -13q98 0 139 51.5t41 156.5v399h-75v46h205v-46h-75v-370q0 -76 -12 -131.5t-40.5 -91.5t-74.5 -53.5t-113 -17.5zM292 791q-23 0 -36.5 14.5
t-13.5 34.5v3q0 20 13.5 34.5t36.5 14.5t36.5 -14.5t13.5 -34.5v-3q0 -20 -13.5 -34.5t-36.5 -14.5zM474 791q-23 0 -36.5 14.5t-13.5 34.5v3q0 20 13.5 34.5t36.5 14.5t36.5 -14.5t13.5 -34.5v-3q0 -20 -13.5 -34.5t-36.5 -14.5z" />
    <glyph glyph-name="Yacute" unicode="&#xdd;" horiz-adv-x="634" 
d="M179 46h95v235l-201 371h-53v46h241v-46h-90l161 -310h4l165 310h-90v46h203v-46h-53l-201 -366v-240h95v-46h-276v46zM302 775l76 177l77 -38l-126 -153z" />
    <glyph glyph-name="Thorn" unicode="&#xde;" horiz-adv-x="625" 
d="M55 46h75v606h-75v46h237v-46h-76v-110h165q95 0 145.5 -48.5t50.5 -142.5q0 -91 -50.5 -139t-145.5 -48h-165v-118h76v-46h-237v46zM216 213h158q54 0 82.5 33.5t28.5 82.5v48q0 49 -28.5 82.5t-82.5 33.5h-158v-280z" />
    <glyph glyph-name="germandbls" unicode="&#xdf;" horiz-adv-x="646" 
d="M439 -12q-81 0 -123 28t-42 70q0 24 13 39.5t35 15.5q21 0 33 -13.5t12 -33.5q0 -16 -6.5 -27t-17.5 -17v-4q17 -7 36 -10t45 -3q57 0 87.5 23.5t30.5 68.5q0 41 -20.5 62t-67.5 33l-27 7q-69 20 -100.5 52.5t-31.5 93.5q0 65 47 102.5t128 41.5v32q0 81 -34.5 121.5
t-98.5 40.5q-71 0 -103.5 -39t-32.5 -115v-557h-156v46h74v421h-74v49h74v30q0 48 15.5 87.5t44 67.5t68.5 43.5t90 15.5q49 0 88.5 -17.5t67.5 -47.5t42.5 -70.5t14.5 -87.5v-64h-38q-75 0 -108 -24t-33 -62q0 -35 17 -54t61 -32l26 -7q72 -18 108 -53t36 -95
q0 -34 -12.5 -63t-36 -50t-56.5 -33t-75 -12z" />
    <glyph glyph-name="agrave" unicode="&#xe0;" horiz-adv-x="546" 
d="M203 -12q-72 0 -112.5 37.5t-40.5 102.5q0 37 12 65.5t39.5 47.5t71.5 29t107 10h74v76q0 61 -29.5 93.5t-88.5 32.5q-26 0 -48 -4.5t-36 -12.5v-2q11 -6 21.5 -18t10.5 -34q0 -26 -15 -40.5t-40 -14.5q-24 0 -39.5 14.5t-15.5 43.5q0 22 13 42.5t37 36.5t59.5 25.5
t80.5 9.5q81 0 126.5 -42t45.5 -118v-325h75v-35q-11 -8 -29.5 -14t-41.5 -6q-39 0 -60 22t-21 59v7h-5q-7 -17 -18.5 -33t-29.5 -28t-43.5 -19.5t-59.5 -7.5zM238 43q48 0 82 24.5t34 75.5v97h-65q-43 0 -72 -6.5t-46 -19t-24.5 -30.5t-7.5 -42v-21q0 -38 26 -58t73 -20z
M146 738l77 38l76 -177l-27 -14z" />
    <glyph glyph-name="aacute" unicode="&#xe1;" horiz-adv-x="546" 
d="M203 -12q-72 0 -112.5 37.5t-40.5 102.5q0 37 12 65.5t39.5 47.5t71.5 29t107 10h74v76q0 61 -29.5 93.5t-88.5 32.5q-26 0 -48 -4.5t-36 -12.5v-2q11 -6 21.5 -18t10.5 -34q0 -26 -15 -40.5t-40 -14.5q-24 0 -39.5 14.5t-15.5 43.5q0 22 13 42.5t37 36.5t59.5 25.5
t80.5 9.5q81 0 126.5 -42t45.5 -118v-325h75v-35q-11 -8 -29.5 -14t-41.5 -6q-39 0 -60 22t-21 59v7h-5q-7 -17 -18.5 -33t-29.5 -28t-43.5 -19.5t-59.5 -7.5zM238 43q48 0 82 24.5t34 75.5v97h-65q-43 0 -72 -6.5t-46 -19t-24.5 -30.5t-7.5 -42v-21q0 -38 26 -58t73 -20z
M231 599l76 177l77 -38l-126 -153z" />
    <glyph glyph-name="acircumflex" unicode="&#xe2;" horiz-adv-x="546" 
d="M203 -12q-72 0 -112.5 37.5t-40.5 102.5q0 37 12 65.5t39.5 47.5t71.5 29t107 10h74v76q0 61 -29.5 93.5t-88.5 32.5q-26 0 -48 -4.5t-36 -12.5v-2q11 -6 21.5 -18t10.5 -34q0 -26 -15 -40.5t-40 -14.5q-24 0 -39.5 14.5t-15.5 43.5q0 22 13 42.5t37 36.5t59.5 25.5
t80.5 9.5q81 0 126.5 -42t45.5 -118v-325h75v-35q-11 -8 -29.5 -14t-41.5 -6q-39 0 -60 22t-21 59v7h-5q-7 -17 -18.5 -33t-29.5 -28t-43.5 -19.5t-59.5 -7.5zM238 43q48 0 82 24.5t34 75.5v97h-65q-43 0 -72 -6.5t-46 -19t-24.5 -30.5t-7.5 -42v-21q0 -38 26 -58t73 -20z
M114 614l123 149h56l123 -149l-24 -16l-127 97l-127 -97z" />
    <glyph glyph-name="atilde" unicode="&#xe3;" horiz-adv-x="546" 
d="M203 -12q-72 0 -112.5 37.5t-40.5 102.5q0 37 12 65.5t39.5 47.5t71.5 29t107 10h74v76q0 61 -29.5 93.5t-88.5 32.5q-26 0 -48 -4.5t-36 -12.5v-2q11 -6 21.5 -18t10.5 -34q0 -26 -15 -40.5t-40 -14.5q-24 0 -39.5 14.5t-15.5 43.5q0 22 13 42.5t37 36.5t59.5 25.5
t80.5 9.5q81 0 126.5 -42t45.5 -118v-325h75v-35q-11 -8 -29.5 -14t-41.5 -6q-39 0 -60 22t-21 59v7h-5q-7 -17 -18.5 -33t-29.5 -28t-43.5 -19.5t-59.5 -7.5zM238 43q48 0 82 24.5t34 75.5v97h-65q-43 0 -72 -6.5t-46 -19t-24.5 -30.5t-7.5 -42v-21q0 -38 26 -58t73 -20z
M326 618q-19 0 -36.5 8.5t-35.5 18.5q-18 9 -38 18.5t-35 9.5t-24.5 -7t-28.5 -26l-19 20q25 31 44.5 49.5t50.5 18.5q19 0 36.5 -8.5t35.5 -18.5q18 -9 38 -18.5t35 -9.5t24.5 7t28.5 26l19 -20q-25 -31 -44.5 -49.5t-50.5 -18.5z" />
    <glyph glyph-name="adieresis" unicode="&#xe4;" horiz-adv-x="546" 
d="M203 -12q-72 0 -112.5 37.5t-40.5 102.5q0 37 12 65.5t39.5 47.5t71.5 29t107 10h74v76q0 61 -29.5 93.5t-88.5 32.5q-26 0 -48 -4.5t-36 -12.5v-2q11 -6 21.5 -18t10.5 -34q0 -26 -15 -40.5t-40 -14.5q-24 0 -39.5 14.5t-15.5 43.5q0 22 13 42.5t37 36.5t59.5 25.5
t80.5 9.5q81 0 126.5 -42t45.5 -118v-325h75v-35q-11 -8 -29.5 -14t-41.5 -6q-39 0 -60 22t-21 59v7h-5q-7 -17 -18.5 -33t-29.5 -28t-43.5 -19.5t-59.5 -7.5zM238 43q48 0 82 24.5t34 75.5v97h-65q-43 0 -72 -6.5t-46 -19t-24.5 -30.5t-7.5 -42v-21q0 -38 26 -58t73 -20z
M174 619q-23 0 -36.5 14.5t-13.5 34.5v3q0 20 13.5 34.5t36.5 14.5t36.5 -14.5t13.5 -34.5v-3q0 -20 -13.5 -34.5t-36.5 -14.5zM356 619q-23 0 -36.5 14.5t-13.5 34.5v3q0 20 13.5 34.5t36.5 14.5t36.5 -14.5t13.5 -34.5v-3q0 -20 -13.5 -34.5t-36.5 -14.5z" />
    <glyph glyph-name="aring" unicode="&#xe5;" horiz-adv-x="546" 
d="M203 -12q-72 0 -112.5 37.5t-40.5 102.5q0 37 12 65.5t39.5 47.5t71.5 29t107 10h74v76q0 61 -29.5 93.5t-88.5 32.5q-26 0 -48 -4.5t-36 -12.5v-2q11 -6 21.5 -18t10.5 -34q0 -26 -15 -40.5t-40 -14.5q-24 0 -39.5 14.5t-15.5 43.5q0 22 13 42.5t37 36.5t59.5 25.5
t80.5 9.5q81 0 126.5 -42t45.5 -118v-325h75v-35q-11 -8 -29.5 -14t-41.5 -6q-39 0 -60 22t-21 59v7h-5q-7 -17 -18.5 -33t-29.5 -28t-43.5 -19.5t-59.5 -7.5zM238 43q48 0 82 24.5t34 75.5v97h-65q-43 0 -72 -6.5t-46 -19t-24.5 -30.5t-7.5 -42v-21q0 -38 26 -58t73 -20z
M265 613q28 0 43.5 16.5t15.5 46.5v30q0 30 -15.5 46.5t-43.5 16.5t-43.5 -16.5t-15.5 -46.5v-30q0 -30 15.5 -46.5t43.5 -16.5zM265 579q-25 0 -46.5 8.5t-37 23.5t-24.5 35.5t-9 44.5t9 44.5t24.5 35.5t37 23.5t46.5 8.5t46 -8.5t37 -23.5t25 -35.5t9 -44.5t-9 -44.5
t-25 -35.5t-37 -23.5t-46 -8.5z" />
    <glyph glyph-name="ae" unicode="&#xe6;" horiz-adv-x="823" 
d="M203 -12q-72 0 -112.5 40t-40.5 105q0 40 12 70t39.5 49.5t71.5 29t107 9.5h74v65q0 61 -29.5 93.5t-88.5 32.5q-26 0 -48 -4.5t-36 -12.5v-2q11 -6 21.5 -18t10.5 -34q0 -26 -15 -40.5t-40 -14.5q-24 0 -39.5 14.5t-15.5 43.5q0 22 13 42.5t37 36.5t59.5 25.5t80.5 9.5
q32 0 57 -9t43 -24t28.5 -35t13.5 -42h6q14 48 56.5 79t103.5 31q51 0 89.5 -19.5t64.5 -53t39 -79.5t13 -99v-28h-341v-14q0 -85 42.5 -134t113.5 -49q31 0 53 5.5t38 16t27.5 26t22.5 35.5l33 -21q-10 -26 -25 -49t-37.5 -40t-53 -27t-71.5 -10q-37 0 -67.5 10t-53.5 26.5
t-39 38t-23 44.5h-6q-19 -63 -67.5 -91t-120.5 -28zM238 43q48 0 82 24.5t34 75.5v108h-65q-43 0 -72 -6.5t-46 -19.5t-24.5 -31t-7.5 -42v-31q0 -38 26 -58t73 -20zM437 293h256v17q0 35 -6.5 66t-20.5 54.5t-37.5 37t-56.5 13.5q-34 0 -59 -12.5t-42 -34.5t-25.5 -52
t-8.5 -65v-24z" />
    <glyph glyph-name="ccedilla" unicode="&#xe7;" horiz-adv-x="516" 
d="M291 -206q-36 0 -56.5 13t-31.5 26l20 21q10 -11 24 -17.5t34 -6.5q24 0 38.5 10.5t14.5 31.5q0 16 -11.5 29.5t-49.5 17.5l-28 3l13 67q-51 4 -90.5 24.5t-66.5 56t-41.5 83t-14.5 105.5q0 62 17.5 112t49.5 85t76.5 54t98.5 19q81 0 128.5 -34.5t47.5 -87.5
q0 -32 -16.5 -50t-45.5 -18q-31 0 -46 18t-15 43q0 22 11 38t31 25v3q-13 8 -33.5 12t-52.5 4q-35 0 -64.5 -13t-50.5 -36.5t-33 -55t-12 -68.5v-74q0 -41 11 -74.5t31.5 -57.5t49 -37t64.5 -13q61 0 96 25.5t56 66.5l32 -21q-9 -24 -24.5 -47.5t-38 -42t-51.5 -30.5
t-66 -14l-10 -51l3 -3q20 5 36 5q32 0 53 -16.5t21 -48.5q0 -21 -8.5 -36t-23.5 -25t-34.5 -15t-41.5 -5z" />
    <glyph glyph-name="egrave" unicode="&#xe8;" horiz-adv-x="536" 
d="M279 -12q-55 0 -98.5 19.5t-73.5 54.5t-46 85t-16 111q0 60 17.5 109.5t48 85.5t72.5 55.5t92 19.5q51 0 91 -18t67.5 -50.5t42.5 -77.5t15 -98v-23h-355v-26q0 -85 42.5 -134t113.5 -49q62 0 98.5 25.5t57.5 66.5l33 -21q-10 -26 -27.5 -50.5t-42.5 -43t-58 -30
t-74 -11.5zM136 307h269v10q0 35 -7.5 65t-23.5 52t-40.5 34.5t-58.5 12.5t-60 -12t-43.5 -34t-26.5 -51.5t-9 -64.5v-12zM155 738l77 38l76 -177l-27 -14z" />
    <glyph glyph-name="eacute" unicode="&#xe9;" horiz-adv-x="536" 
d="M279 -12q-55 0 -98.5 19.5t-73.5 54.5t-46 85t-16 111q0 60 17.5 109.5t48 85.5t72.5 55.5t92 19.5q51 0 91 -18t67.5 -50.5t42.5 -77.5t15 -98v-23h-355v-26q0 -85 42.5 -134t113.5 -49q62 0 98.5 25.5t57.5 66.5l33 -21q-10 -26 -27.5 -50.5t-42.5 -43t-58 -30
t-74 -11.5zM136 307h269v10q0 35 -7.5 65t-23.5 52t-40.5 34.5t-58.5 12.5t-60 -12t-43.5 -34t-26.5 -51.5t-9 -64.5v-12zM240 599l76 177l77 -38l-126 -153z" />
    <glyph glyph-name="ecircumflex" unicode="&#xea;" horiz-adv-x="536" 
d="M279 -12q-55 0 -98.5 19.5t-73.5 54.5t-46 85t-16 111q0 60 17.5 109.5t48 85.5t72.5 55.5t92 19.5q51 0 91 -18t67.5 -50.5t42.5 -77.5t15 -98v-23h-355v-26q0 -85 42.5 -134t113.5 -49q62 0 98.5 25.5t57.5 66.5l33 -21q-10 -26 -27.5 -50.5t-42.5 -43t-58 -30
t-74 -11.5zM136 307h269v10q0 35 -7.5 65t-23.5 52t-40.5 34.5t-58.5 12.5t-60 -12t-43.5 -34t-26.5 -51.5t-9 -64.5v-12zM123 614l123 149h56l123 -149l-24 -16l-127 97l-127 -97z" />
    <glyph glyph-name="edieresis" unicode="&#xeb;" horiz-adv-x="536" 
d="M279 -12q-55 0 -98.5 19.5t-73.5 54.5t-46 85t-16 111q0 60 17.5 109.5t48 85.5t72.5 55.5t92 19.5q51 0 91 -18t67.5 -50.5t42.5 -77.5t15 -98v-23h-355v-26q0 -85 42.5 -134t113.5 -49q62 0 98.5 25.5t57.5 66.5l33 -21q-10 -26 -27.5 -50.5t-42.5 -43t-58 -30
t-74 -11.5zM136 307h269v10q0 35 -7.5 65t-23.5 52t-40.5 34.5t-58.5 12.5t-60 -12t-43.5 -34t-26.5 -51.5t-9 -64.5v-12zM183 619q-23 0 -36.5 14.5t-13.5 34.5v3q0 20 13.5 34.5t36.5 14.5t36.5 -14.5t13.5 -34.5v-3q0 -20 -13.5 -34.5t-36.5 -14.5zM365 619
q-23 0 -36.5 14.5t-13.5 34.5v3q0 20 13.5 34.5t36.5 14.5t36.5 -14.5t13.5 -34.5v-3q0 -20 -13.5 -34.5t-36.5 -14.5z" />
    <glyph glyph-name="igrave" unicode="&#xec;" horiz-adv-x="315" 
d="M50 46h74v405l-74 13v34l156 30v-482h74v-46h-230v46zM47 738l77 38l76 -177l-27 -14z" />
    <glyph glyph-name="iacute" unicode="&#xed;" horiz-adv-x="315" 
d="M50 46h74v405l-74 13v34l156 30v-482h74v-46h-230v46zM132 599l76 177l77 -38l-126 -153z" />
    <glyph glyph-name="icircumflex" unicode="&#xee;" horiz-adv-x="315" 
d="M50 46h74v405l-74 13v34l156 30v-482h74v-46h-230v46zM15 614l123 149h56l123 -149l-24 -16l-127 97l-127 -97z" />
    <glyph glyph-name="idieresis" unicode="&#xef;" horiz-adv-x="315" 
d="M50 46h74v405l-74 13v34l156 30v-482h74v-46h-230v46zM75 619q-23 0 -36.5 14.5t-13.5 34.5v3q0 20 13.5 34.5t36.5 14.5t36.5 -14.5t13.5 -34.5v-3q0 -20 -13.5 -34.5t-36.5 -14.5zM257 619q-23 0 -36.5 14.5t-13.5 34.5v3q0 20 13.5 34.5t36.5 14.5t36.5 -14.5
t13.5 -34.5v-3q0 -20 -13.5 -34.5t-36.5 -14.5z" />
    <glyph glyph-name="eth" unicode="&#xf0;" horiz-adv-x="566" 
d="M278 -12q-55 0 -98.5 18t-73.5 52t-46 82t-16 107t15.5 106.5t44.5 81.5t70 52t91 18q81 0 129 -63l4 2q-17 51 -44.5 100t-62.5 87l-87 -64l-29 39l82 60q-23 20 -52.5 43.5t-58.5 38.5h84q14 -8 34.5 -22t37.5 -27l83 61l31 -39l-74 -54q32 -30 62.5 -67.5t54.5 -86.5
t38.5 -109.5t14.5 -135.5q0 -142 -63 -211t-171 -69zM278 37q66 0 105.5 41.5t39.5 126.5v83q0 85 -39.5 126.5t-105.5 41.5t-105.5 -41.5t-39.5 -126.5v-83q0 -85 39.5 -126.5t105.5 -41.5z" />
    <glyph glyph-name="ntilde" unicode="&#xf1;" horiz-adv-x="639" 
d="M50 46h74v405l-74 13v34l154 30v-90h4q6 15 18.5 31t31 29t43.5 21.5t55 8.5q93 0 133.5 -48.5t40.5 -145.5v-288h74v-46h-230v46h74v281q0 144 -121 144q-22 0 -43.5 -6t-39 -19t-28 -32t-10.5 -45v-323h74v-46h-230v46zM397 618q-19 0 -36.5 8.5t-35.5 18.5
q-18 9 -38 18.5t-35 9.5t-24.5 -7t-28.5 -26l-19 20q25 31 44.5 49.5t50.5 18.5q19 0 36.5 -8.5t35.5 -18.5q18 -9 38 -18.5t35 -9.5t24.5 7t28.5 26l19 -20q-25 -31 -44.5 -49.5t-50.5 -18.5z" />
    <glyph glyph-name="ograve" unicode="&#xf2;" horiz-adv-x="564" 
d="M282 37q37 0 64.5 12.5t45 35t26 53t8.5 66.5v108q0 36 -8.5 66.5t-26 53t-45 35t-64.5 12.5q-38 0 -65 -12.5t-44.5 -35t-26 -53t-8.5 -66.5v-108q0 -36 8.5 -66.5t26 -53t44.5 -35t65 -12.5zM282 -12q-53 0 -97 19t-75 54.5t-48 85t-17 111.5q0 61 17 111t48 85.5
t75 54.5t97 19t97 -19t75 -54.5t48 -85.5t17 -111q0 -62 -17 -111.5t-48 -85t-75 -54.5t-97 -19zM164 738l77 38l76 -177l-27 -14z" />
    <glyph glyph-name="oacute" unicode="&#xf3;" horiz-adv-x="564" 
d="M282 37q37 0 64.5 12.5t45 35t26 53t8.5 66.5v108q0 36 -8.5 66.5t-26 53t-45 35t-64.5 12.5q-38 0 -65 -12.5t-44.5 -35t-26 -53t-8.5 -66.5v-108q0 -36 8.5 -66.5t26 -53t44.5 -35t65 -12.5zM282 -12q-53 0 -97 19t-75 54.5t-48 85t-17 111.5q0 61 17 111t48 85.5
t75 54.5t97 19t97 -19t75 -54.5t48 -85.5t17 -111q0 -62 -17 -111.5t-48 -85t-75 -54.5t-97 -19zM249 599l76 177l77 -38l-126 -153z" />
    <glyph glyph-name="ocircumflex" unicode="&#xf4;" horiz-adv-x="564" 
d="M282 37q37 0 64.5 12.5t45 35t26 53t8.5 66.5v108q0 36 -8.5 66.5t-26 53t-45 35t-64.5 12.5q-38 0 -65 -12.5t-44.5 -35t-26 -53t-8.5 -66.5v-108q0 -36 8.5 -66.5t26 -53t44.5 -35t65 -12.5zM282 -12q-53 0 -97 19t-75 54.5t-48 85t-17 111.5q0 61 17 111t48 85.5
t75 54.5t97 19t97 -19t75 -54.5t48 -85.5t17 -111q0 -62 -17 -111.5t-48 -85t-75 -54.5t-97 -19zM132 614l123 149h56l123 -149l-24 -16l-127 97l-127 -97z" />
    <glyph glyph-name="otilde" unicode="&#xf5;" horiz-adv-x="564" 
d="M282 37q37 0 64.5 12.5t45 35t26 53t8.5 66.5v108q0 36 -8.5 66.5t-26 53t-45 35t-64.5 12.5q-38 0 -65 -12.5t-44.5 -35t-26 -53t-8.5 -66.5v-108q0 -36 8.5 -66.5t26 -53t44.5 -35t65 -12.5zM282 -12q-53 0 -97 19t-75 54.5t-48 85t-17 111.5q0 61 17 111t48 85.5
t75 54.5t97 19t97 -19t75 -54.5t48 -85.5t17 -111q0 -62 -17 -111.5t-48 -85t-75 -54.5t-97 -19zM344 618q-19 0 -36.5 8.5t-35.5 18.5q-18 9 -38 18.5t-35 9.5t-24.5 -7t-28.5 -26l-19 20q25 31 44.5 49.5t50.5 18.5q19 0 36.5 -8.5t35.5 -18.5q18 -9 38 -18.5t35 -9.5
t24.5 7t28.5 26l19 -20q-25 -31 -44.5 -49.5t-50.5 -18.5z" />
    <glyph glyph-name="odieresis" unicode="&#xf6;" horiz-adv-x="564" 
d="M282 37q37 0 64.5 12.5t45 35t26 53t8.5 66.5v108q0 36 -8.5 66.5t-26 53t-45 35t-64.5 12.5q-38 0 -65 -12.5t-44.5 -35t-26 -53t-8.5 -66.5v-108q0 -36 8.5 -66.5t26 -53t44.5 -35t65 -12.5zM282 -12q-53 0 -97 19t-75 54.5t-48 85t-17 111.5q0 61 17 111t48 85.5
t75 54.5t97 19t97 -19t75 -54.5t48 -85.5t17 -111q0 -62 -17 -111.5t-48 -85t-75 -54.5t-97 -19zM192 619q-23 0 -36.5 14.5t-13.5 34.5v3q0 20 13.5 34.5t36.5 14.5t36.5 -14.5t13.5 -34.5v-3q0 -20 -13.5 -34.5t-36.5 -14.5zM374 619q-23 0 -36.5 14.5t-13.5 34.5v3
q0 20 13.5 34.5t36.5 14.5t36.5 -14.5t13.5 -34.5v-3q0 -20 -13.5 -34.5t-36.5 -14.5z" />
    <glyph glyph-name="divide" unicode="&#xf7;" 
d="M300 61q-28 0 -43.5 17t-15.5 40v6q0 23 15.5 40t43.5 17t43.5 -17t15.5 -40v-6q0 -23 -15.5 -40t-43.5 -17zM300 429q-28 0 -43.5 17t-15.5 40v6q0 23 15.5 40t43.5 17t43.5 -17t15.5 -40v-6q0 -23 -15.5 -40t-43.5 -17zM66 331h468v-52h-468v52z" />
    <glyph glyph-name="oslash" unicode="&#xf8;" horiz-adv-x="564" 
d="M48 -11l58 77q-29 35 -45 83.5t-16 108.5q0 61 17 111t48 85.5t75 54.5t97 19q83 0 143 -46l56 72l35 -27l-58 -77q29 -35 45 -83.5t16 -108.5q0 -62 -17 -111.5t-48 -85t-75 -54.5t-97 -19q-83 0 -143 46l-56 -72zM390 434q-18 21 -44.5 33t-63.5 12q-38 0 -65 -12.5
t-44.5 -35t-26 -53t-8.5 -66.5v-108q0 -23 3 -43.5t11 -38.5zM282 37q37 0 64.5 12.5t45 35t26 53t8.5 66.5v108q0 23 -3 43.5t-11 38.5l-238 -312q18 -21 44.5 -33t63.5 -12z" />
    <glyph glyph-name="ugrave" unicode="&#xf9;" horiz-adv-x="619" 
d="M278 -12q-93 0 -133.5 48.5t-40.5 146.5v268l-74 13v34l156 30v-338q0 -145 121 -145q22 0 43.5 6t39 19t28 32t10.5 45v304l-74 13v34l156 30v-463l74 -13v-34l-154 -30v90h-4q-6 -15 -18.5 -31t-31 -29t-43.5 -21.5t-55 -8.5zM181 738l77 38l76 -177l-27 -14z" />
    <glyph glyph-name="uacute" unicode="&#xfa;" horiz-adv-x="619" 
d="M278 -12q-93 0 -133.5 48.5t-40.5 146.5v268l-74 13v34l156 30v-338q0 -145 121 -145q22 0 43.5 6t39 19t28 32t10.5 45v304l-74 13v34l156 30v-463l74 -13v-34l-154 -30v90h-4q-6 -15 -18.5 -31t-31 -29t-43.5 -21.5t-55 -8.5zM266 599l76 177l77 -38l-126 -153z" />
    <glyph glyph-name="ucircumflex" unicode="&#xfb;" horiz-adv-x="619" 
d="M278 -12q-93 0 -133.5 48.5t-40.5 146.5v268l-74 13v34l156 30v-338q0 -145 121 -145q22 0 43.5 6t39 19t28 32t10.5 45v304l-74 13v34l156 30v-463l74 -13v-34l-154 -30v90h-4q-6 -15 -18.5 -31t-31 -29t-43.5 -21.5t-55 -8.5zM149 614l123 149h56l123 -149l-24 -16
l-127 97l-127 -97z" />
    <glyph glyph-name="udieresis" unicode="&#xfc;" horiz-adv-x="619" 
d="M278 -12q-93 0 -133.5 48.5t-40.5 146.5v268l-74 13v34l156 30v-338q0 -145 121 -145q22 0 43.5 6t39 19t28 32t10.5 45v304l-74 13v34l156 30v-463l74 -13v-34l-154 -30v90h-4q-6 -15 -18.5 -31t-31 -29t-43.5 -21.5t-55 -8.5zM209 619q-23 0 -36.5 14.5t-13.5 34.5v3
q0 20 13.5 34.5t36.5 14.5t36.5 -14.5t13.5 -34.5v-3q0 -20 -13.5 -34.5t-36.5 -14.5zM391 619q-23 0 -36.5 14.5t-13.5 34.5v3q0 20 13.5 34.5t36.5 14.5t36.5 -14.5t13.5 -34.5v-3q0 -20 -13.5 -34.5t-36.5 -14.5z" />
    <glyph glyph-name="yacute" unicode="&#xfd;" horiz-adv-x="534" 
d="M123 -212q-51 0 -74 21.5t-23 56.5q0 26 14 42t40 16q23 0 35.5 -13.5t12.5 -36.5q0 -17 -8.5 -27.5t-18.5 -13.5v-3q11 -4 26 -4q26 0 51 22.5t45 73.5l21 57l-190 491h-52v46h214v-46h-72l139 -378h4l135 378h-72v46h182v-46h-52l-214 -556q-21 -55 -56.5 -90.5
t-86.5 -35.5zM249 599l76 177l77 -38l-126 -153z" />
    <glyph glyph-name="thorn" unicode="&#xfe;" horiz-adv-x="598" 
d="M25 -154h74v837l-74 13v35l156 29v-322h4q17 37 54 63.5t98 26.5q96 0 153.5 -69.5t57.5 -200.5t-57.5 -200.5t-153.5 -69.5q-60 0 -97.5 26t-54.5 63h-4v-231h94v-46h-250v46zM313 45q69 0 107.5 46.5t38.5 124.5v84q0 78 -38.5 124.5t-107.5 46.5q-24 0 -48 -7
t-42.5 -20t-30 -32.5t-11.5 -43.5v-220q0 -24 11.5 -43.5t30 -32.5t42.5 -20t48 -7z" />
    <glyph glyph-name="ydieresis" unicode="&#xff;" horiz-adv-x="534" 
d="M123 -212q-51 0 -74 21.5t-23 56.5q0 26 14 42t40 16q23 0 35.5 -13.5t12.5 -36.5q0 -17 -8.5 -27.5t-18.5 -13.5v-3q11 -4 26 -4q26 0 51 22.5t45 73.5l21 57l-190 491h-52v46h214v-46h-72l139 -378h4l135 378h-72v46h182v-46h-52l-214 -556q-21 -55 -56.5 -90.5
t-86.5 -35.5zM192 619q-23 0 -36.5 14.5t-13.5 34.5v3q0 20 13.5 34.5t36.5 14.5t36.5 -14.5t13.5 -34.5v-3q0 -20 -13.5 -34.5t-36.5 -14.5zM374 619q-23 0 -36.5 14.5t-13.5 34.5v3q0 20 13.5 34.5t36.5 14.5t36.5 -14.5t13.5 -34.5v-3q0 -20 -13.5 -34.5t-36.5 -14.5z
" />
    <glyph glyph-name="Amacron" unicode="&#x100;" horiz-adv-x="686" 
d="M16 46h53l227 652h95l226 -652h53v-46h-236v46h90l-62 181h-272l-62 -181h90v-46h-202v46zM204 275h243l-117 350h-6zM204 870h278v-57h-278v57z" />
    <glyph glyph-name="amacron" unicode="&#x101;" horiz-adv-x="546" 
d="M203 -12q-72 0 -112.5 37.5t-40.5 102.5q0 37 12 65.5t39.5 47.5t71.5 29t107 10h74v76q0 61 -29.5 93.5t-88.5 32.5q-26 0 -48 -4.5t-36 -12.5v-2q11 -6 21.5 -18t10.5 -34q0 -26 -15 -40.5t-40 -14.5q-24 0 -39.5 14.5t-15.5 43.5q0 22 13 42.5t37 36.5t59.5 25.5
t80.5 9.5q81 0 126.5 -42t45.5 -118v-325h75v-35q-11 -8 -29.5 -14t-41.5 -6q-39 0 -60 22t-21 59v7h-5q-7 -17 -18.5 -33t-29.5 -28t-43.5 -19.5t-59.5 -7.5zM238 43q48 0 82 24.5t34 75.5v97h-65q-43 0 -72 -6.5t-46 -19t-24.5 -30.5t-7.5 -42v-21q0 -38 26 -58t73 -20z
M126 699h278v-57h-278v57z" />
    <glyph glyph-name="Abreve" unicode="&#x102;" horiz-adv-x="686" 
d="M16 46h53l227 652h95l226 -652h53v-46h-236v46h90l-62 181h-272l-62 -181h90v-46h-202v46zM204 275h243l-117 350h-6zM343 769q-36 0 -59.5 12.5t-39 32t-25 43t-17.5 46.5l27 14l21 -38q12 -23 32 -34.5t61 -11.5t61 11.5t32 34.5l21 38l27 -14q-8 -23 -17.5 -46.5
t-25 -43t-39 -32t-59.5 -12.5z" />
    <glyph glyph-name="abreve" unicode="&#x103;" horiz-adv-x="546" 
d="M203 -12q-72 0 -112.5 37.5t-40.5 102.5q0 37 12 65.5t39.5 47.5t71.5 29t107 10h74v76q0 61 -29.5 93.5t-88.5 32.5q-26 0 -48 -4.5t-36 -12.5v-2q11 -6 21.5 -18t10.5 -34q0 -26 -15 -40.5t-40 -14.5q-24 0 -39.5 14.5t-15.5 43.5q0 22 13 42.5t37 36.5t59.5 25.5
t80.5 9.5q81 0 126.5 -42t45.5 -118v-325h75v-35q-11 -8 -29.5 -14t-41.5 -6q-39 0 -60 22t-21 59v7h-5q-7 -17 -18.5 -33t-29.5 -28t-43.5 -19.5t-59.5 -7.5zM238 43q48 0 82 24.5t34 75.5v97h-65q-43 0 -72 -6.5t-46 -19t-24.5 -30.5t-7.5 -42v-21q0 -38 26 -58t73 -20z
M265 598q-36 0 -59.5 12.5t-39 32t-25 43t-17.5 46.5l27 14l21 -38q12 -23 32 -34.5t61 -11.5t61 11.5t32 34.5l21 38l27 -14q-8 -23 -17.5 -46.5t-25 -43t-39 -32t-59.5 -12.5z" />
    <glyph glyph-name="Aogonek" unicode="&#x104;" horiz-adv-x="685" 
d="M597 -206q-36 0 -62 17.5t-26 57.5q0 36 34.5 67t82.5 60l-1 4h-191v46h90l-62 181h-272l-62 -181h90v-46h-202v46h53l227 652h95l226 -652h53v-46q-32 -24 -50 -43t-27.5 -34t-12 -26.5t-2.5 -20.5q0 -20 11 -33t30 -13q14 0 24.5 6t18.5 16l21 -20q-10 -16 -31 -27
t-55 -11zM204 275h243l-117 350h-6z" />
    <glyph glyph-name="aogonek" unicode="&#x105;" horiz-adv-x="545" 
d="M435 -206q-38 0 -65.5 17.5t-27.5 56.5q0 34 26 60.5t78 58.5v3h-6q-39 0 -60 21t-21 58v7h-5q-7 -17 -18.5 -33t-29.5 -28t-43.5 -19.5t-59.5 -7.5q-72 0 -112.5 37.5t-40.5 102.5q0 37 12 65.5t39.5 47.5t71.5 29t107 10h74v76q0 61 -29.5 93.5t-88.5 32.5
q-26 0 -48 -4.5t-36 -12.5v-2q11 -6 21.5 -18t10.5 -34q0 -26 -15 -40.5t-40 -14.5q-24 0 -39.5 14.5t-15.5 43.5q0 22 13 42.5t37 36.5t59.5 25.5t80.5 9.5q81 0 126.5 -42t45.5 -118v-325h75v-35l-16 -10q-27 -17 -43.5 -34.5t-25.5 -33.5t-12 -30t-3 -23q0 -21 12.5 -34
t33.5 -13q13 0 24.5 6t19.5 16l21 -20q-9 -16 -31.5 -27t-55.5 -11zM238 43q48 0 82 24.5t34 75.5v97h-65q-43 0 -72 -6.5t-46 -19t-24.5 -30.5t-7.5 -42v-21q0 -38 26 -58t73 -20z" />
    <glyph glyph-name="Cacute" unicode="&#x106;" horiz-adv-x="649" 
d="M342 -12q-66 0 -120 25t-92 72t-59 114t-21 150q0 87 21 154t58.5 113t90.5 70t117 24q65 0 108.5 -21.5t57.5 -53.5h4v63h72v-204h-72v52q0 50 -44 80.5t-115 30.5q-53 0 -91.5 -19.5t-63 -53t-36 -78t-11.5 -93.5v-121q0 -55 14.5 -99t42 -75.5t67.5 -48.5t91 -17
q71 0 119 37t70 94l39 -19q-9 -29 -29 -60t-50.5 -57t-72.5 -42.5t-95 -16.5zM303 775l76 177l77 -38l-126 -153z" />
    <glyph glyph-name="cacute" unicode="&#x107;" horiz-adv-x="516" 
d="M280 -12q-56 0 -99.5 19.5t-73.5 55t-46 85t-16 110.5q0 62 17.5 112t49.5 85t76.5 54t98.5 19q81 0 128.5 -34.5t47.5 -87.5q0 -32 -16.5 -50t-45.5 -18q-31 0 -46 18t-15 43q0 22 11 38t31 25v3q-13 8 -33.5 12t-52.5 4q-35 0 -64.5 -13t-50.5 -36.5t-33 -55t-12 -68.5
v-74q0 -41 11 -74.5t31.5 -57.5t49 -37t64.5 -13q61 0 96 25.5t56 66.5l32 -21q-9 -26 -26 -50.5t-41 -43t-56.5 -30t-72.5 -11.5zM247 599l76 177l77 -38l-126 -153z" />
    <glyph glyph-name="Ccircumflex" unicode="&#x108;" horiz-adv-x="649" 
d="M342 -12q-66 0 -120 25t-92 72t-59 114t-21 150q0 87 21 154t58.5 113t90.5 70t117 24q65 0 108.5 -21.5t57.5 -53.5h4v63h72v-204h-72v52q0 50 -44 80.5t-115 30.5q-53 0 -91.5 -19.5t-63 -53t-36 -78t-11.5 -93.5v-121q0 -55 14.5 -99t42 -75.5t67.5 -48.5t91 -17
q71 0 119 37t70 94l39 -19q-9 -29 -29 -60t-50.5 -57t-72.5 -42.5t-95 -16.5zM186 785l123 149h56l123 -149l-24 -16l-127 97l-127 -97z" />
    <glyph glyph-name="ccircumflex" unicode="&#x109;" horiz-adv-x="516" 
d="M280 -12q-56 0 -99.5 19.5t-73.5 55t-46 85t-16 110.5q0 62 17.5 112t49.5 85t76.5 54t98.5 19q81 0 128.5 -34.5t47.5 -87.5q0 -32 -16.5 -50t-45.5 -18q-31 0 -46 18t-15 43q0 22 11 38t31 25v3q-13 8 -33.5 12t-52.5 4q-35 0 -64.5 -13t-50.5 -36.5t-33 -55t-12 -68.5
v-74q0 -41 11 -74.5t31.5 -57.5t49 -37t64.5 -13q61 0 96 25.5t56 66.5l32 -21q-9 -26 -26 -50.5t-41 -43t-56.5 -30t-72.5 -11.5zM130 614l123 149h56l123 -149l-24 -16l-127 97l-127 -97z" />
    <glyph glyph-name="Cdotaccent" unicode="&#x10a;" horiz-adv-x="649" 
d="M342 -12q-66 0 -120 25t-92 72t-59 114t-21 150q0 87 21 154t58.5 113t90.5 70t117 24q65 0 108.5 -21.5t57.5 -53.5h4v63h72v-204h-72v52q0 50 -44 80.5t-115 30.5q-53 0 -91.5 -19.5t-63 -53t-36 -78t-11.5 -93.5v-121q0 -55 14.5 -99t42 -75.5t67.5 -48.5t91 -17
q71 0 119 37t70 94l39 -19q-9 -29 -29 -60t-50.5 -57t-72.5 -42.5t-95 -16.5zM337 791q-23 0 -36.5 14.5t-13.5 34.5v3q0 20 13.5 34.5t36.5 14.5t36.5 -14.5t13.5 -34.5v-3q0 -20 -13.5 -34.5t-36.5 -14.5z" />
    <glyph glyph-name="cdotaccent" unicode="&#x10b;" horiz-adv-x="516" 
d="M280 -12q-56 0 -99.5 19.5t-73.5 55t-46 85t-16 110.5q0 62 17.5 112t49.5 85t76.5 54t98.5 19q81 0 128.5 -34.5t47.5 -87.5q0 -32 -16.5 -50t-45.5 -18q-31 0 -46 18t-15 43q0 22 11 38t31 25v3q-13 8 -33.5 12t-52.5 4q-35 0 -64.5 -13t-50.5 -36.5t-33 -55t-12 -68.5
v-74q0 -41 11 -74.5t31.5 -57.5t49 -37t64.5 -13q61 0 96 25.5t56 66.5l32 -21q-9 -26 -26 -50.5t-41 -43t-56.5 -30t-72.5 -11.5zM281 619q-23 0 -36.5 14.5t-13.5 34.5v3q0 20 13.5 34.5t36.5 14.5t36.5 -14.5t13.5 -34.5v-3q0 -20 -13.5 -34.5t-36.5 -14.5z" />
    <glyph glyph-name="Ccaron" unicode="&#x10c;" horiz-adv-x="649" 
d="M342 -12q-66 0 -120 25t-92 72t-59 114t-21 150q0 87 21 154t58.5 113t90.5 70t117 24q65 0 108.5 -21.5t57.5 -53.5h4v63h72v-204h-72v52q0 50 -44 80.5t-115 30.5q-53 0 -91.5 -19.5t-63 -53t-36 -78t-11.5 -93.5v-121q0 -55 14.5 -99t42 -75.5t67.5 -48.5t91 -17
q71 0 119 37t70 94l39 -19q-9 -29 -29 -60t-50.5 -57t-72.5 -42.5t-95 -16.5zM186 922l24 16l127 -97l127 97l24 -16l-123 -149h-56z" />
    <glyph glyph-name="ccaron" unicode="&#x10d;" horiz-adv-x="516" 
d="M280 -12q-56 0 -99.5 19.5t-73.5 55t-46 85t-16 110.5q0 62 17.5 112t49.5 85t76.5 54t98.5 19q81 0 128.5 -34.5t47.5 -87.5q0 -32 -16.5 -50t-45.5 -18q-31 0 -46 18t-15 43q0 22 11 38t31 25v3q-13 8 -33.5 12t-52.5 4q-35 0 -64.5 -13t-50.5 -36.5t-33 -55t-12 -68.5
v-74q0 -41 11 -74.5t31.5 -57.5t49 -37t64.5 -13q61 0 96 25.5t56 66.5l32 -21q-9 -26 -26 -50.5t-41 -43t-56.5 -30t-72.5 -11.5zM130 751l24 16l127 -97l127 97l24 -16l-123 -149h-56z" />
    <glyph glyph-name="Dcaron" unicode="&#x10e;" horiz-adv-x="706" 
d="M55 46h75v606h-75v46h292q69 0 126 -21.5t97.5 -65t63 -109t22.5 -153.5t-22.5 -153.5t-63 -109t-97.5 -65t-126 -21.5h-292v46zM216 49h122q51 0 92.5 17.5t70 49t44 75.5t15.5 98v120q0 54 -15.5 98t-44 75.5t-70 49t-92.5 17.5h-122v-600zM169 922l24 16l127 -97
l127 97l24 -16l-123 -149h-56z" />
    <glyph glyph-name="dcaron" unicode="&#x10f;" horiz-adv-x="608" 
d="M261 -12q-96 0 -153.5 69.5t-57.5 200.5t57.5 200.5t153.5 69.5q60 0 97.5 -26t54.5 -63h4v244l-75 13v35l157 29v-695l74 -13v-34l-156 -30v90h-4q-17 -37 -54 -63.5t-98 -26.5zM285 45q24 0 48 7t42.5 20t30 32.5t11.5 43.5v220q0 24 -11.5 43.5t-30 32.5t-42.5 20
t-48 7q-69 0 -107.5 -46.5t-38.5 -124.5v-84q0 -78 38.5 -124.5t107.5 -46.5zM560 748h81l-65 -184h-28z" />
    <glyph glyph-name="Dcroat" unicode="&#x110;" horiz-adv-x="706" 
d="M55 46h75v279h-90v48h90v279h-75v46h292q69 0 126 -21.5t97.5 -65t63 -109t22.5 -153.5t-22.5 -153.5t-63 -109t-97.5 -65t-126 -21.5h-292v46zM216 49h122q51 0 92.5 17.5t70 49t44 75.5t15.5 98v120q0 54 -15.5 98t-44 75.5t-70 49t-92.5 17.5h-122v-276h138v-48h-138
v-276z" />
    <glyph glyph-name="dcroat" unicode="&#x111;" horiz-adv-x="608" 
d="M261 -12q-96 0 -153.5 69.5t-57.5 200.5t57.5 200.5t153.5 69.5q60 0 97.5 -26t54.5 -63h4v180h-194v46h194v79l82 16v-95h89v-46h-89v-554l74 -13v-34l-156 -30v90h-4q-17 -37 -54 -63.5t-98 -26.5zM285 45q24 0 48 7t42.5 20t30 32.5t11.5 43.5v220q0 24 -11.5 43.5
t-30 32.5t-42.5 20t-48 7q-69 0 -107.5 -46.5t-38.5 -124.5v-84q0 -78 38.5 -124.5t107.5 -46.5z" />
    <glyph glyph-name="Emacron" unicode="&#x112;" horiz-adv-x="641" 
d="M55 46h75v606h-75v46h516v-168h-72v119h-283v-265h198v80h60v-209h-60v80h-198v-286h293v128h72v-177h-526v46zM196 870h278v-57h-278v57z" />
    <glyph glyph-name="emacron" unicode="&#x113;" horiz-adv-x="536" 
d="M279 -12q-55 0 -98.5 19.5t-73.5 54.5t-46 85t-16 111q0 60 17.5 109.5t48 85.5t72.5 55.5t92 19.5q51 0 91 -18t67.5 -50.5t42.5 -77.5t15 -98v-23h-355v-26q0 -85 42.5 -134t113.5 -49q62 0 98.5 25.5t57.5 66.5l33 -21q-10 -26 -27.5 -50.5t-42.5 -43t-58 -30
t-74 -11.5zM136 307h269v10q0 35 -7.5 65t-23.5 52t-40.5 34.5t-58.5 12.5t-60 -12t-43.5 -34t-26.5 -51.5t-9 -64.5v-12zM135 699h278v-57h-278v57z" />
    <glyph glyph-name="Ebreve" unicode="&#x114;" horiz-adv-x="641" 
d="M55 46h75v606h-75v46h516v-168h-72v119h-283v-265h198v80h60v-209h-60v80h-198v-286h293v128h72v-177h-526v46zM335 769q-36 0 -59.5 12.5t-39 32t-25 43t-17.5 46.5l27 14l21 -38q12 -23 32 -34.5t61 -11.5t61 11.5t32 34.5l21 38l27 -14q-8 -23 -17.5 -46.5t-25 -43
t-39 -32t-59.5 -12.5z" />
    <glyph glyph-name="ebreve" unicode="&#x115;" horiz-adv-x="536" 
d="M279 -12q-55 0 -98.5 19.5t-73.5 54.5t-46 85t-16 111q0 60 17.5 109.5t48 85.5t72.5 55.5t92 19.5q51 0 91 -18t67.5 -50.5t42.5 -77.5t15 -98v-23h-355v-26q0 -85 42.5 -134t113.5 -49q62 0 98.5 25.5t57.5 66.5l33 -21q-10 -26 -27.5 -50.5t-42.5 -43t-58 -30
t-74 -11.5zM136 307h269v10q0 35 -7.5 65t-23.5 52t-40.5 34.5t-58.5 12.5t-60 -12t-43.5 -34t-26.5 -51.5t-9 -64.5v-12zM274 598q-36 0 -59.5 12.5t-39 32t-25 43t-17.5 46.5l27 14l21 -38q12 -23 32 -34.5t61 -11.5t61 11.5t32 34.5l21 38l27 -14q-8 -23 -17.5 -46.5
t-25 -43t-39 -32t-59.5 -12.5z" />
    <glyph glyph-name="Edotaccent" unicode="&#x116;" horiz-adv-x="641" 
d="M55 46h75v606h-75v46h516v-168h-72v119h-283v-265h198v80h60v-209h-60v80h-198v-286h293v128h72v-177h-526v46zM335 791q-23 0 -36.5 14.5t-13.5 34.5v3q0 20 13.5 34.5t36.5 14.5t36.5 -14.5t13.5 -34.5v-3q0 -20 -13.5 -34.5t-36.5 -14.5z" />
    <glyph glyph-name="edotaccent" unicode="&#x117;" horiz-adv-x="536" 
d="M279 -12q-55 0 -98.5 19.5t-73.5 54.5t-46 85t-16 111q0 60 17.5 109.5t48 85.5t72.5 55.5t92 19.5q51 0 91 -18t67.5 -50.5t42.5 -77.5t15 -98v-23h-355v-26q0 -85 42.5 -134t113.5 -49q62 0 98.5 25.5t57.5 66.5l33 -21q-10 -26 -27.5 -50.5t-42.5 -43t-58 -30
t-74 -11.5zM136 307h269v10q0 35 -7.5 65t-23.5 52t-40.5 34.5t-58.5 12.5t-60 -12t-43.5 -34t-26.5 -51.5t-9 -64.5v-12zM274 619q-23 0 -36.5 14.5t-13.5 34.5v3q0 20 13.5 34.5t36.5 14.5t36.5 -14.5t13.5 -34.5v-3q0 -20 -13.5 -34.5t-36.5 -14.5z" />
    <glyph glyph-name="Eogonek" unicode="&#x118;" horiz-adv-x="641" 
d="M526 -206q-38 0 -65.5 18t-27.5 56t29 65.5t78 62.5l-1 4h-484v46h75v606h-75v46h516v-168h-72v119h-283v-265h198v80h60v-209h-60v80h-198v-286h293v128h72v-177q-28 -25 -44 -44t-23.5 -33.5t-9.5 -26t-2 -20.5q0 -20 12.5 -33t33.5 -13q14 0 25 6t19 16l21 -20
q-10 -16 -31.5 -27t-55.5 -11z" />
    <glyph glyph-name="eogonek" unicode="&#x119;" horiz-adv-x="536" 
d="M342 -206q-38 0 -66.5 17t-28.5 57q0 20 9.5 38.5t24.5 34.5t34 30.5t38 26.5l-1 4q-13 -7 -30 -10.5t-43 -3.5q-55 0 -98.5 19.5t-73.5 54.5t-46 85t-16 111q0 60 17.5 109.5t48 85.5t72.5 55.5t92 19.5q51 0 91 -18t67.5 -50.5t42.5 -77.5t15 -98v-23h-355v-26
q0 -85 42.5 -134t113.5 -49q62 0 98.5 25.5t57.5 66.5l33 -21q-17 -45 -56 -82q-56 -53 -82.5 -91.5t-26.5 -72.5q0 -23 13 -35t34 -12q14 0 24.5 6t18.5 16l21 -20q-9 -15 -30.5 -26.5t-54.5 -11.5zM136 307h269v10q0 34 -7.5 64t-23.5 52.5t-40.5 35t-58.5 12.5t-60 -12
t-43.5 -34t-26.5 -51.5t-9 -64.5v-12z" />
    <glyph glyph-name="Ecaron" unicode="&#x11a;" horiz-adv-x="641" 
d="M55 46h75v606h-75v46h516v-168h-72v119h-283v-265h198v80h60v-209h-60v80h-198v-286h293v128h72v-177h-526v46zM184 922l24 16l127 -97l127 97l24 -16l-123 -149h-56z" />
    <glyph glyph-name="ecaron" unicode="&#x11b;" horiz-adv-x="536" 
d="M279 -12q-55 0 -98.5 19.5t-73.5 54.5t-46 85t-16 111q0 60 17.5 109.5t48 85.5t72.5 55.5t92 19.5q51 0 91 -18t67.5 -50.5t42.5 -77.5t15 -98v-23h-355v-26q0 -85 42.5 -134t113.5 -49q62 0 98.5 25.5t57.5 66.5l33 -21q-10 -26 -27.5 -50.5t-42.5 -43t-58 -30
t-74 -11.5zM136 307h269v10q0 35 -7.5 65t-23.5 52t-40.5 34.5t-58.5 12.5t-60 -12t-43.5 -34t-26.5 -51.5t-9 -64.5v-12zM123 751l24 16l127 -97l127 97l24 -16l-123 -149h-56z" />
    <glyph glyph-name="Gcircumflex" unicode="&#x11c;" horiz-adv-x="721" 
d="M341 -12q-66 0 -119.5 25t-91.5 71.5t-59 113.5t-21 151q0 87 21 154.5t60 113.5t94.5 69.5t124.5 23.5q81 0 125 -22.5t56 -53.5h5v64h72v-204h-72v49q0 56 -47 85t-128 29q-55 0 -95.5 -17.5t-67 -49.5t-39.5 -76.5t-13 -99.5v-128q0 -54 14.5 -98.5t41.5 -75.5t65 -48
t84 -17q38 0 71 10t57 29t37.5 47t13.5 65v93h-124v46h275v-46h-64v-291h-33l-48 97h-4q-8 -20 -24 -39.5t-39.5 -35t-55.5 -25t-72 -9.5zM198 785l123 149h56l123 -149l-24 -16l-127 97l-127 -97z" />
    <glyph glyph-name="gcircumflex" unicode="&#x11d;" horiz-adv-x="547" 
d="M262 -212q-60 0 -102 9t-68 25t-37.5 39t-11.5 51q0 20 9 37t24 30t34 22.5t39 14.5v4q-63 22 -63 85q0 40 25.5 63t59.5 32v5q-47 20 -74.5 59t-27.5 94q0 39 14.5 70.5t41 53.5t62.5 34t79 12t79 -12h168v-47h-61l-32 1v-2q20 -21 32.5 -48.5t12.5 -61.5q0 -39 -15 -71
t-42 -54t-63.5 -34t-78.5 -12q-28 0 -53 6q-26 -5 -47 -21.5t-21 -39.5q0 -25 19 -35t64 -10h118q88 0 130.5 -35.5t42.5 -101.5q0 -74 -65 -118t-192 -44zM267 230q55 0 82.5 29t27.5 79v39q0 50 -27.5 79t-82.5 29t-82.5 -29t-27.5 -79v-39q0 -50 27.5 -79t82.5 -29z
M116 -83q0 -40 34.5 -60t92.5 -20h47q75 0 117.5 25t42.5 67q0 38 -26 57.5t-91 19.5h-156q-32 -14 -46.5 -37t-14.5 -52zM114 614l123 149h56l123 -149l-24 -16l-127 97l-127 -97z" />
    <glyph glyph-name="Gbreve" unicode="&#x11e;" horiz-adv-x="721" 
d="M341 -12q-66 0 -119.5 25t-91.5 71.5t-59 113.5t-21 151q0 87 21 154.5t60 113.5t94.5 69.5t124.5 23.5q81 0 125 -22.5t56 -53.5h5v64h72v-204h-72v49q0 56 -47 85t-128 29q-55 0 -95.5 -17.5t-67 -49.5t-39.5 -76.5t-13 -99.5v-128q0 -54 14.5 -98.5t41.5 -75.5t65 -48
t84 -17q38 0 71 10t57 29t37.5 47t13.5 65v93h-124v46h275v-46h-64v-291h-33l-48 97h-4q-8 -20 -24 -39.5t-39.5 -35t-55.5 -25t-72 -9.5zM349 769q-36 0 -59.5 12.5t-39 32t-25 43t-17.5 46.5l27 14l21 -38q12 -23 32 -34.5t61 -11.5t61 11.5t32 34.5l21 38l27 -14
q-8 -23 -17.5 -46.5t-25 -43t-39 -32t-59.5 -12.5z" />
    <glyph glyph-name="gbreve" unicode="&#x11f;" horiz-adv-x="547" 
d="M262 -212q-60 0 -102 9t-68 25t-37.5 39t-11.5 51q0 20 9 37t24 30t34 22.5t39 14.5v4q-63 22 -63 85q0 40 25.5 63t59.5 32v5q-47 20 -74.5 59t-27.5 94q0 39 14.5 70.5t41 53.5t62.5 34t79 12t79 -12h168v-47h-61l-32 1v-2q20 -21 32.5 -48.5t12.5 -61.5q0 -39 -15 -71
t-42 -54t-63.5 -34t-78.5 -12q-28 0 -53 6q-26 -5 -47 -21.5t-21 -39.5q0 -25 19 -35t64 -10h118q88 0 130.5 -35.5t42.5 -101.5q0 -74 -65 -118t-192 -44zM267 230q55 0 82.5 29t27.5 79v39q0 50 -27.5 79t-82.5 29t-82.5 -29t-27.5 -79v-39q0 -50 27.5 -79t82.5 -29z
M116 -83q0 -40 34.5 -60t92.5 -20h47q75 0 117.5 25t42.5 67q0 38 -26 57.5t-91 19.5h-156q-32 -14 -46.5 -37t-14.5 -52zM265 598q-36 0 -59.5 12.5t-39 32t-25 43t-17.5 46.5l27 14l21 -38q12 -23 32 -34.5t61 -11.5t61 11.5t32 34.5l21 38l27 -14q-8 -23 -17.5 -46.5
t-25 -43t-39 -32t-59.5 -12.5z" />
    <glyph glyph-name="Gdotaccent" unicode="&#x120;" horiz-adv-x="721" 
d="M341 -12q-66 0 -119.5 25t-91.5 71.5t-59 113.5t-21 151q0 87 21 154.5t60 113.5t94.5 69.5t124.5 23.5q81 0 125 -22.5t56 -53.5h5v64h72v-204h-72v49q0 56 -47 85t-128 29q-55 0 -95.5 -17.5t-67 -49.5t-39.5 -76.5t-13 -99.5v-128q0 -54 14.5 -98.5t41.5 -75.5t65 -48
t84 -17q38 0 71 10t57 29t37.5 47t13.5 65v93h-124v46h275v-46h-64v-291h-33l-48 97h-4q-8 -20 -24 -39.5t-39.5 -35t-55.5 -25t-72 -9.5zM349 791q-23 0 -36.5 14.5t-13.5 34.5v3q0 20 13.5 34.5t36.5 14.5t36.5 -14.5t13.5 -34.5v-3q0 -20 -13.5 -34.5t-36.5 -14.5z" />
    <glyph glyph-name="gdotaccent" unicode="&#x121;" horiz-adv-x="547" 
d="M262 -212q-60 0 -102 9t-68 25t-37.5 39t-11.5 51q0 20 9 37t24 30t34 22.5t39 14.5v4q-63 22 -63 85q0 40 25.5 63t59.5 32v5q-47 20 -74.5 59t-27.5 94q0 39 14.5 70.5t41 53.5t62.5 34t79 12t79 -12h168v-47h-61l-32 1v-2q20 -21 32.5 -48.5t12.5 -61.5q0 -39 -15 -71
t-42 -54t-63.5 -34t-78.5 -12q-28 0 -53 6q-26 -5 -47 -21.5t-21 -39.5q0 -25 19 -35t64 -10h118q88 0 130.5 -35.5t42.5 -101.5q0 -74 -65 -118t-192 -44zM267 230q55 0 82.5 29t27.5 79v39q0 50 -27.5 79t-82.5 29t-82.5 -29t-27.5 -79v-39q0 -50 27.5 -79t82.5 -29z
M116 -83q0 -40 34.5 -60t92.5 -20h47q75 0 117.5 25t42.5 67q0 38 -26 57.5t-91 19.5h-156q-32 -14 -46.5 -37t-14.5 -52zM265 619q-23 0 -36.5 14.5t-13.5 34.5v3q0 20 13.5 34.5t36.5 14.5t36.5 -14.5t13.5 -34.5v-3q0 -20 -13.5 -34.5t-36.5 -14.5z" />
    <glyph glyph-name="Gcommaaccent" unicode="&#x122;" horiz-adv-x="721" 
d="M341 -12q-66 0 -119.5 25t-91.5 71.5t-59 113.5t-21 151q0 87 21 154.5t60 113.5t94.5 69.5t124.5 23.5q81 0 125 -22.5t56 -53.5h5v64h72v-204h-72v49q0 56 -47 85t-128 29q-55 0 -95.5 -17.5t-67 -49.5t-39.5 -76.5t-13 -99.5v-128q0 -54 14.5 -98.5t41.5 -75.5t65 -48
t84 -17q38 0 71 10t57 29t37.5 47t13.5 65v93h-124v46h275v-46h-64v-291h-33l-48 97h-4q-8 -20 -24 -39.5t-39.5 -35t-55.5 -25t-72 -9.5zM292 -246q19 20 32.5 43.5t20.5 44.5q-27 0 -41.5 14t-14.5 36v4q0 21 14.5 35t40.5 14q24 0 38 -15t14 -36v-7q0 -32 -18 -69
t-47 -64h-39v0z" />
    <glyph glyph-name="gcommaaccent" unicode="&#x123;" horiz-adv-x="547" 
d="M262 -212q-60 0 -102 9t-68 25t-37.5 39t-11.5 51q0 20 9 37t24 30t34 22.5t39 14.5v4q-63 22 -63 85q0 40 25.5 63t59.5 32v5q-47 20 -74.5 59t-27.5 94q0 39 14.5 70.5t41 53.5t62.5 34t79 12t79 -12h168v-47h-61l-32 1v-2q20 -21 32.5 -48.5t12.5 -61.5q0 -39 -15 -71
t-42 -54t-63.5 -34t-78.5 -12q-28 0 -53 6q-26 -5 -47 -21.5t-21 -39.5q0 -25 19 -35t64 -10h118q88 0 130.5 -35.5t42.5 -101.5q0 -74 -65 -118t-192 -44zM267 230q55 0 82.5 29t27.5 79v39q0 50 -27.5 79t-82.5 29t-82.5 -29t-27.5 -79v-39q0 -50 27.5 -79t82.5 -29z
M116 -83q0 -40 34.5 -60t92.5 -20h47q75 0 117.5 25t42.5 67q0 38 -26 57.5t-91 19.5h-156q-32 -14 -46.5 -37t-14.5 -52zM265 586q-24 0 -38 15t-14 36v7q0 32 18 69t47 64h39q-19 -20 -32.5 -43.5t-20.5 -44.5q27 0 41.5 -14t14.5 -36v-4q0 -21 -14.5 -35t-40.5 -14z" />
    <glyph glyph-name="Hcircumflex" unicode="&#x124;" horiz-adv-x="787" 
d="M55 46h75v606h-75v46h236v-46h-75v-272h355v272h-75v46h236v-46h-75v-606h75v-46h-236v46h75v285h-355v-285h75v-46h-236v46zM242 785l123 149h56l123 -149l-24 -16l-127 97l-127 -97z" />
    <glyph glyph-name="hcircumflex" unicode="&#x125;" horiz-adv-x="624" 
d="M35 46h74v637l-74 13v35l156 29v-321h4q6 15 18 31t30.5 29t43 21t55.5 8q93 0 133 -48.5t40 -145.5v-288h74v-46h-230v46h74v281q0 73 -29 108.5t-92 35.5q-22 0 -43.5 -6t-39 -19t-28 -32t-10.5 -45v-323h74v-46h-230v46zM0 792l123 149h56l123 -149l-24 -16l-127 97
l-127 -97z" />
    <glyph glyph-name="Hbar" unicode="&#x126;" horiz-adv-x="787" 
d="M55 46h75v454h-90v48h90v104h-75v46h236v-46h-75v-104h355v104h-75v46h236v-46h-75v-104h90v-48h-90v-454h75v-46h-236v46h75v285h-355v-285h75v-46h-236v46zM216 380h355v120h-355v-120z" />
    <glyph glyph-name="hbar" unicode="&#x127;" horiz-adv-x="624" 
d="M35 46h74v573h-89v46h89v79l82 16v-95h193v-46h-193v-180h4q6 15 18 31t30.5 29t43 21t55.5 8q93 0 133 -48.5t40 -145.5v-288h74v-46h-230v46h74v281q0 73 -29 108.5t-92 35.5q-22 0 -43.5 -6t-39 -19t-28 -32t-10.5 -45v-323h74v-46h-230v46z" />
    <glyph glyph-name="Itilde" unicode="&#x128;" horiz-adv-x="346" 
d="M55 46h75v606h-75v46h236v-46h-75v-606h75v-46h-236v46zM235 786q-19 0 -36.5 8.5t-35.5 18.5q-18 9 -38 18.5t-35 9.5t-24.5 -7t-28.5 -26l-19 20q25 31 44.5 49.5t50.5 18.5q19 0 36.5 -8.5t35.5 -18.5q18 -9 38 -18.5t35 -9.5t24.5 7t28.5 26l19 -20
q-25 -31 -44.5 -49.5t-50.5 -18.5z" />
    <glyph glyph-name="itilde" unicode="&#x129;" horiz-adv-x="315" 
d="M50 46h74v405l-74 13v34l156 30v-482h74v-46h-230v46zM227 618q-19 0 -36.5 8.5t-35.5 18.5q-18 9 -38 18.5t-35 9.5t-24.5 -7t-28.5 -26l-19 20q25 31 44.5 49.5t50.5 18.5q19 0 36.5 -8.5t35.5 -18.5q18 -9 38 -18.5t35 -9.5t24.5 7t28.5 26l19 -20
q-25 -31 -44.5 -49.5t-50.5 -18.5z" />
    <glyph glyph-name="Imacron" unicode="&#x12a;" horiz-adv-x="346" 
d="M55 46h75v606h-75v46h236v-46h-75v-606h75v-46h-236v46zM35 870h278v-57h-278v57z" />
    <glyph glyph-name="imacron" unicode="&#x12b;" horiz-adv-x="315" 
d="M50 46h74v405l-74 13v34l156 30v-482h74v-46h-230v46zM27 699h278v-57h-278v57z" />
    <glyph glyph-name="Ibreve" unicode="&#x12c;" horiz-adv-x="346" 
d="M55 46h75v606h-75v46h236v-46h-75v-606h75v-46h-236v46zM174 769q-36 0 -59.5 12.5t-39 32t-25 43t-17.5 46.5l27 14l21 -38q12 -23 32 -34.5t61 -11.5t61 11.5t32 34.5l21 38l27 -14q-8 -23 -17.5 -46.5t-25 -43t-39 -32t-59.5 -12.5z" />
    <glyph glyph-name="ibreve" unicode="&#x12d;" horiz-adv-x="315" 
d="M50 46h74v405l-74 13v34l156 30v-482h74v-46h-230v46zM166 598q-36 0 -59.5 12.5t-39 32t-25 43t-17.5 46.5l27 14l21 -38q12 -23 32 -34.5t61 -11.5t61 11.5t32 34.5l21 38l27 -14q-8 -23 -17.5 -46.5t-25 -43t-39 -32t-59.5 -12.5z" />
    <glyph glyph-name="Iogonek" unicode="&#x12e;" horiz-adv-x="346" 
d="M236 -206q-37 0 -65 18t-28 56q0 19 8 35t22 30.5t33.5 29.5t43.5 33l-1 4h-194v46h75v606h-75v46h236v-46h-75v-606h75v-46q-27 -25 -43 -44t-24 -33.5t-10 -26t-2 -20.5q0 -20 13 -33t33 -13q15 0 26.5 6t17.5 16l21 -20q-8 -16 -30 -27t-57 -11z" />
    <glyph glyph-name="iogonek" unicode="&#x12f;" horiz-adv-x="315" 
d="M225 -206q-38 0 -65.5 18t-27.5 56q0 37 28 66t75 62l-1 4h-184v46h74v405l-74 13v34l156 30v-482h74v-46q-28 -25 -44 -44t-23.5 -33.5t-9.5 -26t-2 -20.5q0 -20 12.5 -33t33.5 -13q14 0 25 6t19 16l21 -20q-10 -16 -31.5 -27t-55.5 -11zM165 635q-26 0 -39.5 15.5
t-13.5 37.5v5q0 22 13.5 37.5t39.5 15.5t40 -15.5t14 -37.5v-5q0 -22 -14 -37.5t-40 -15.5z" />
    <glyph glyph-name="Idotaccent" unicode="&#x130;" horiz-adv-x="346" 
d="M55 46h75v606h-75v46h236v-46h-75v-606h75v-46h-236v46zM174 791q-23 0 -36.5 14.5t-13.5 34.5v3q0 20 13.5 34.5t36.5 14.5t36.5 -14.5t13.5 -34.5v-3q0 -20 -13.5 -34.5t-36.5 -14.5z" />
    <glyph glyph-name="dotlessi" unicode="&#x131;" horiz-adv-x="315" 
d="M50 46h74v405l-74 13v34l156 30v-482h74v-46h-230v46z" />
    <glyph glyph-name="IJ" unicode="&#x132;" horiz-adv-x="814" 
d="M55 46h75v606h-75v46h236v-46h-75v-606h75v-46h-236v46zM509 -12q-69 0 -103.5 27t-34.5 69q0 28 16 46.5t45 18.5q25 0 39 -16t14 -42q0 -20 -10 -32.5t-21 -16.5v-3q10 -3 24 -5t31 -2q98 0 98 119v501h-95v46h256v-46h-75v-493q0 -86 -48.5 -128.5t-135.5 -42.5z" />
    <glyph glyph-name="ij" unicode="&#x133;" horiz-adv-x="627" 
d="M165 635q-26 0 -39.5 15.5t-13.5 37.5v5q0 22 13.5 37.5t39.5 15.5t40 -15.5t14 -37.5v-5q0 -22 -14 -37.5t-40 -15.5zM50 46h74v405l-74 13v34l156 30v-482h74v-46h-230v46zM382 -212q-50 0 -74 22t-24 56q0 22 13 37t36 15q22 0 33.5 -13t11.5 -34q0 -14 -6.5 -25.5
t-15.5 -14.5v-3q9 -4 26 -4q62 0 62 80v547l-74 13v34l156 30v-580q0 -81 -38 -120.5t-106 -39.5zM485 635q-26 0 -39.5 15.5t-13.5 37.5v5q0 22 13.5 37.5t39.5 15.5t40 -15.5t14 -37.5v-5q0 -22 -14 -37.5t-40 -15.5z" />
    <glyph glyph-name="Jcircumflex" unicode="&#x134;" horiz-adv-x="457" 
d="M153 -12q-69 0 -103.5 27t-34.5 69q0 28 16 46.5t45 18.5q25 0 39 -16t14 -42q0 -20 -10 -32.5t-21 -16.5v-3q10 -3 24 -5t31 -2q98 0 98 119v501h-95v46h256v-46h-75v-493q0 -86 -48.5 -128.5t-135.5 -42.5zM134 785l123 149h56l123 -149l-24 -16l-127 97l-127 -97z" />
    <glyph glyph-name="jcircumflex" unicode="&#x135;" horiz-adv-x="302" 
d="M58 -212q-50 0 -74 22t-24 56q0 22 13 37t36 15q22 0 33.5 -13t11.5 -34q0 -14 -6.5 -25.5t-15.5 -14.5v-3q9 -4 26 -4q62 0 62 80v547l-74 13v34l156 30v-580q0 -81 -38 -120.5t-106 -39.5zM11 614l123 149h56l123 -149l-24 -16l-127 97l-127 -97z" />
    <glyph glyph-name="Kcommaaccent" unicode="&#x136;" horiz-adv-x="707" 
d="M55 46h75v606h-75v46h236v-46h-75v-334h4l93 105l210 229h-80v46h215v-46h-67l-216 -233l241 -373h69v-46h-239v46h71l-202 311l-99 -107v-204h75v-46h-236v46zM308 -246q19 20 32.5 43.5t20.5 44.5q-27 0 -41.5 14t-14.5 36v4q0 21 14.5 35t40.5 14q24 0 38 -15t14 -36
v-7q0 -32 -18 -69t-47 -64h-39v0z" />
    <glyph glyph-name="kcommaaccent" unicode="&#x137;" horiz-adv-x="584" 
d="M35 46h74v637l-74 13v35l156 29v-523h5l84 94l126 139h-68v46h214v-46h-73l-145 -151l181 -273h57v-46h-213v46h64l-145 218l-87 -91v-127h74v-46h-230v46zM262 -246q19 20 32.5 43.5t20.5 44.5q-27 0 -41.5 14t-14.5 36v4q0 21 14.5 35t40.5 14q24 0 38 -15t14 -36v-7
q0 -32 -18 -69t-47 -64h-39v0z" />
    <glyph glyph-name="kgreenlandic" unicode="&#x138;" horiz-adv-x="584" 
d="M35 46h74v405l-74 13v35l156 29v-291h5l84 94l126 139h-68v46h214v-46h-73l-145 -151l181 -273h57v-46h-213v46h64l-145 218l-87 -91v-127h74v-46h-230v46z" />
    <glyph glyph-name="Lacute" unicode="&#x139;" horiz-adv-x="594" 
d="M55 46h75v606h-75v46h236v-46h-75v-603h256v128h72v-177h-489v46zM140 775l76 177l77 -38l-126 -153z" />
    <glyph glyph-name="lacute" unicode="&#x13a;" horiz-adv-x="300" 
d="M35 46h74v637l-74 13v35l156 29v-714h74v-46h-230v46zM117 801l76 177l77 -38l-126 -153z" />
    <glyph glyph-name="Lcommaaccent" unicode="&#x13b;" horiz-adv-x="594" 
d="M55 46h75v606h-75v46h236v-46h-75v-603h256v128h72v-177h-489v46zM259 -246q19 20 32.5 43.5t20.5 44.5q-27 0 -41.5 14t-14.5 36v4q0 21 14.5 35t40.5 14q24 0 38 -15t14 -36v-7q0 -32 -18 -69t-47 -64h-39v0z" />
    <glyph glyph-name="lcommaaccent" unicode="&#x13c;" horiz-adv-x="300" 
d="M35 46h74v637l-74 13v35l156 29v-714h74v-46h-230v46zM101 -246q19 20 32.5 43.5t20.5 44.5q-27 0 -41.5 14t-14.5 36v4q0 21 14.5 35t40.5 14q24 0 38 -15t14 -36v-7q0 -32 -18 -69t-47 -64h-39v0z" />
    <glyph glyph-name="Lcaron" unicode="&#x13d;" horiz-adv-x="594" 
d="M55 46h75v606h-75v46h236v-46h-75v-603h256v128h72v-177h-489v46zM376 731h81l-65 -184h-28z" />
    <glyph glyph-name="lcaron" unicode="&#x13e;" horiz-adv-x="300" 
d="M35 46h74v637l-74 13v35l156 29v-714h74v-46h-230v46zM254 748h81l-65 -184h-28z" />
    <glyph glyph-name="Ldot" unicode="&#x13f;" horiz-adv-x="594" 
d="M55 46h75v606h-75v46h236v-46h-75v-603h256v128h72v-177h-489v46zM376 296q-23 0 -36.5 14.5t-13.5 34.5v3q0 20 13.5 34.5t36.5 14.5t36.5 -14.5t13.5 -34.5v-3q0 -20 -13.5 -34.5t-36.5 -14.5z" />
    <glyph glyph-name="ldot" unicode="&#x140;" horiz-adv-x="341" 
d="M35 46h74v637l-74 13v35l156 29v-714h74v-46h-230v46zM325 248q-23 0 -36.5 14.5t-13.5 34.5v3q0 20 13.5 34.5t36.5 14.5t36.5 -14.5t13.5 -34.5v-3q0 -20 -13.5 -34.5t-36.5 -14.5z" />
    <glyph glyph-name="Lslash" unicode="&#x141;" horiz-adv-x="594" 
d="M55 46h75v236l-93 -32v50l93 32v320h-75v46h236v-46h-75v-291l156 54v-50l-156 -54v-262h256v128h72v-177h-489v46z" />
    <glyph glyph-name="lslash" unicode="&#x142;" horiz-adv-x="308" 
d="M38 46h74v296l-87 -28v48l87 28v293l-74 13v35l156 29v-344l89 28v-48l-89 -28v-322h74v-46h-230v46z" />
    <glyph glyph-name="Nacute" unicode="&#x143;" horiz-adv-x="778" 
d="M55 46h75v606h-75v46h169l375 -560h4v514h-75v46h205v-46h-75v-652h-67l-402 601h-4v-555h75v-46h-205v46zM358 775l76 177l77 -38l-126 -153z" />
    <glyph glyph-name="nacute" unicode="&#x144;" horiz-adv-x="639" 
d="M50 46h74v405l-74 13v34l154 30v-90h4q6 15 18.5 31t31 29t43.5 21.5t55 8.5q93 0 133.5 -48.5t40.5 -145.5v-288h74v-46h-230v46h74v281q0 144 -121 144q-22 0 -43.5 -6t-39 -19t-28 -32t-10.5 -45v-323h74v-46h-230v46zM302 599l76 177l77 -38l-126 -153z" />
    <glyph glyph-name="Ncommaaccent" unicode="&#x145;" horiz-adv-x="778" 
d="M55 46h75v606h-75v46h169l375 -560h4v514h-75v46h205v-46h-75v-652h-67l-402 601h-4v-555h75v-46h-205v46zM343 -246q19 20 32.5 43.5t20.5 44.5q-27 0 -41.5 14t-14.5 36v4q0 21 14.5 35t40.5 14q24 0 38 -15t14 -36v-7q0 -32 -18 -69t-47 -64h-39v0z" />
    <glyph glyph-name="ncommaaccent" unicode="&#x146;" horiz-adv-x="639" 
d="M50 46h74v405l-74 13v34l154 30v-90h4q6 15 18.5 31t31 29t43.5 21.5t55 8.5q93 0 133.5 -48.5t40.5 -145.5v-288h74v-46h-230v46h74v281q0 144 -121 144q-22 0 -43.5 -6t-39 -19t-28 -32t-10.5 -45v-323h74v-46h-230v46zM278 -246q19 20 32.5 43.5t20.5 44.5
q-27 0 -41.5 14t-14.5 36v4q0 21 14.5 35t40.5 14q24 0 38 -15t14 -36v-7q0 -32 -18 -69t-47 -64h-39v0z" />
    <glyph glyph-name="Ncaron" unicode="&#x147;" horiz-adv-x="778" 
d="M55 46h75v606h-75v46h169l375 -560h4v514h-75v46h205v-46h-75v-652h-67l-402 601h-4v-555h75v-46h-205v46zM241 922l24 16l127 -97l127 97l24 -16l-123 -149h-56z" />
    <glyph glyph-name="ncaron" unicode="&#x148;" horiz-adv-x="639" 
d="M50 46h74v405l-74 13v34l154 30v-90h4q6 15 18.5 31t31 29t43.5 21.5t55 8.5q93 0 133.5 -48.5t40.5 -145.5v-288h74v-46h-230v46h74v281q0 144 -121 144q-22 0 -43.5 -6t-39 -19t-28 -32t-10.5 -45v-323h74v-46h-230v46zM185 751l24 16l127 -97l127 97l24 -16l-123 -149
h-56z" />
    <glyph glyph-name="napostrophe" unicode="&#x149;" horiz-adv-x="882" 
d="M45 498q34 30 57 62.5t30 61.5h-2q-28 0 -43 18t-15 41v6q0 26 17 43.5t45 17.5q29 0 45.5 -19t16.5 -46v-9q0 -22 -8 -46t-21.5 -48t-32 -45t-39.5 -37h-50v0zM292 46h74v405l-74 13v34l154 30v-90h4q6 15 18.5 31t31 29t43.5 21.5t55 8.5q93 0 133.5 -48.5t40.5 -145.5
v-288h74v-46h-230v46h74v281q0 144 -121 144q-22 0 -43.5 -6t-39 -19t-28 -32t-10.5 -45v-323h74v-46h-230v46z" />
    <glyph glyph-name="Eng" unicode="&#x14a;" horiz-adv-x="778" 
d="M540 -212q-49 0 -73.5 22t-24.5 56q0 22 13 37t36 15q22 0 34 -13t12 -34q0 -14 -6.5 -25.5t-16.5 -14.5v-3q9 -4 26 -4q63 0 63 86v90h-12l-402 601h-4v-555h75v-46h-205v46h75v606h-75v46h169l375 -560h4v514h-75v46h205v-46h-75v-742q0 -60 -33 -91t-85 -31z" />
    <glyph glyph-name="eng" unicode="&#x14b;" horiz-adv-x="630" 
d="M386 -212q-50 0 -74 22t-24 56q0 22 13 37t36 15q22 0 33.5 -13t11.5 -34q0 -14 -6.5 -25.5t-15.5 -14.5v-3q9 -4 26 -4q62 0 62 80v423q0 144 -121 144q-22 0 -43.5 -6t-39 -19t-28 -32t-10.5 -45v-323h74v-46h-230v46h74v405l-74 13v34l154 30v-90h4q6 15 18.5 31
t31 29t43.5 21.5t55 8.5q93 0 133.5 -48.5t40.5 -145.5v-386q0 -81 -38 -120.5t-106 -39.5z" />
    <glyph glyph-name="Omacron" unicode="&#x14c;" horiz-adv-x="716" 
d="M358 41q51 0 90.5 18.5t66.5 52t41 79.5t14 101v114q0 55 -14 101t-41 79.5t-66.5 52t-90.5 18.5t-90.5 -18.5t-66.5 -52t-41 -79.5t-14 -101v-114q0 -55 14 -101t41 -79.5t66.5 -52t90.5 -18.5zM358 -12q-69 0 -126 25t-97.5 72t-62.5 113.5t-22 150.5t22 150.5
t62.5 113.5t97.5 72t126 25t126 -25t97.5 -72t62.5 -113.5t22 -150.5t-22 -150.5t-62.5 -113.5t-97.5 -72t-126 -25zM219 870h278v-57h-278v57z" />
    <glyph glyph-name="omacron" unicode="&#x14d;" horiz-adv-x="564" 
d="M282 37q37 0 64.5 12.5t45 35t26 53t8.5 66.5v108q0 36 -8.5 66.5t-26 53t-45 35t-64.5 12.5q-38 0 -65 -12.5t-44.5 -35t-26 -53t-8.5 -66.5v-108q0 -36 8.5 -66.5t26 -53t44.5 -35t65 -12.5zM282 -12q-53 0 -97 19t-75 54.5t-48 85t-17 111.5q0 61 17 111t48 85.5
t75 54.5t97 19t97 -19t75 -54.5t48 -85.5t17 -111q0 -62 -17 -111.5t-48 -85t-75 -54.5t-97 -19zM144 699h278v-57h-278v57z" />
    <glyph glyph-name="Obreve" unicode="&#x14e;" horiz-adv-x="716" 
d="M358 41q51 0 90.5 18.5t66.5 52t41 79.5t14 101v114q0 55 -14 101t-41 79.5t-66.5 52t-90.5 18.5t-90.5 -18.5t-66.5 -52t-41 -79.5t-14 -101v-114q0 -55 14 -101t41 -79.5t66.5 -52t90.5 -18.5zM358 -12q-69 0 -126 25t-97.5 72t-62.5 113.5t-22 150.5t22 150.5
t62.5 113.5t97.5 72t126 25t126 -25t97.5 -72t62.5 -113.5t22 -150.5t-22 -150.5t-62.5 -113.5t-97.5 -72t-126 -25zM358 769q-36 0 -59.5 12.5t-39 32t-25 43t-17.5 46.5l27 14l21 -38q12 -23 32 -34.5t61 -11.5t61 11.5t32 34.5l21 38l27 -14q-8 -23 -17.5 -46.5t-25 -43
t-39 -32t-59.5 -12.5z" />
    <glyph glyph-name="obreve" unicode="&#x14f;" horiz-adv-x="564" 
d="M282 37q37 0 64.5 12.5t45 35t26 53t8.5 66.5v108q0 36 -8.5 66.5t-26 53t-45 35t-64.5 12.5q-38 0 -65 -12.5t-44.5 -35t-26 -53t-8.5 -66.5v-108q0 -36 8.5 -66.5t26 -53t44.5 -35t65 -12.5zM282 -12q-53 0 -97 19t-75 54.5t-48 85t-17 111.5q0 61 17 111t48 85.5
t75 54.5t97 19t97 -19t75 -54.5t48 -85.5t17 -111q0 -62 -17 -111.5t-48 -85t-75 -54.5t-97 -19zM283 598q-36 0 -59.5 12.5t-39 32t-25 43t-17.5 46.5l27 14l21 -38q12 -23 32 -34.5t61 -11.5t61 11.5t32 34.5l21 38l27 -14q-8 -23 -17.5 -46.5t-25 -43t-39 -32
t-59.5 -12.5z" />
    <glyph glyph-name="Ohungarumlaut" unicode="&#x150;" horiz-adv-x="716" 
d="M358 41q51 0 90.5 18.5t66.5 52t41 79.5t14 101v114q0 55 -14 101t-41 79.5t-66.5 52t-90.5 18.5t-90.5 -18.5t-66.5 -52t-41 -79.5t-14 -101v-114q0 -55 14 -101t41 -79.5t66.5 -52t90.5 -18.5zM358 -12q-69 0 -126 25t-97.5 72t-62.5 113.5t-22 150.5t22 150.5
t62.5 113.5t97.5 72t126 25t126 -25t97.5 -72t62.5 -113.5t22 -150.5t-22 -150.5t-62.5 -113.5t-97.5 -72t-126 -25zM246 775l76 177l77 -38l-126 -153zM406 775l76 177l77 -38l-126 -153z" />
    <glyph glyph-name="ohungarumlaut" unicode="&#x151;" horiz-adv-x="564" 
d="M282 37q37 0 64.5 12.5t45 35t26 53t8.5 66.5v108q0 36 -8.5 66.5t-26 53t-45 35t-64.5 12.5q-38 0 -65 -12.5t-44.5 -35t-26 -53t-8.5 -66.5v-108q0 -36 8.5 -66.5t26 -53t44.5 -35t65 -12.5zM282 -12q-53 0 -97 19t-75 54.5t-48 85t-17 111.5q0 61 17 111t48 85.5
t75 54.5t97 19t97 -19t75 -54.5t48 -85.5t17 -111q0 -62 -17 -111.5t-48 -85t-75 -54.5t-97 -19zM171 599l76 177l77 -38l-126 -153zM331 599l76 177l77 -38l-126 -153z" />
    <glyph glyph-name="OE" unicode="&#x152;" horiz-adv-x="1011" 
d="M368 -12q-75 0 -134 25t-100 72t-62.5 113.5t-21.5 150.5t21.5 150.5t62.5 113.5t100 72t134 25q52 0 94 -12h479v-168h-72v119h-283v-265h198v80h60v-209h-60v80h-198v-286h293v128h72v-177h-489q-42 -12 -94 -12zM368 41q42 0 75.5 9t56.5 26v546q-23 17 -56.5 26
t-75.5 9q-56 0 -97.5 -18.5t-69.5 -52t-41.5 -79.5t-13.5 -101v-114q0 -55 13.5 -101t41 -79.5t69 -52t98.5 -18.5z" />
    <glyph glyph-name="oe" unicode="&#x153;" horiz-adv-x="915" 
d="M281 -12q-53 0 -96.5 19t-74.5 54.5t-48 85t-17 111.5q0 61 17 111t48 85.5t74.5 54.5t96.5 19q63 0 114.5 -29t71.5 -88h6q22 59 72 88t109 29q51 0 91 -18t67.5 -50.5t42.5 -77t15 -97.5v-24h-355v-26q0 -86 42.5 -134.5t113.5 -48.5q62 0 98.5 25.5t57.5 66.5l33 -21
q-10 -26 -27.5 -50.5t-42.5 -43t-58 -30t-74 -11.5q-64 0 -111 27.5t-75 86.5h-6q-28 -59 -75 -86.5t-110 -27.5zM282 37q37 0 64.5 12.5t45 35t26 53t8.5 65.5v110q0 36 -8.5 66t-26 52.5t-45 35t-64.5 12.5q-38 0 -65 -12.5t-44.5 -35t-26 -52.5t-8.5 -66v-110
q0 -35 8.5 -65.5t26 -53t44.5 -35t65 -12.5zM515 307h269v11q0 34 -7.5 64t-23.5 52t-40.5 34.5t-58.5 12.5t-60 -12t-43.5 -34t-26.5 -51.5t-9 -64.5v-12z" />
    <glyph glyph-name="Racute" unicode="&#x154;" horiz-adv-x="672" 
d="M55 46h75v606h-75v46h326q93 0 144.5 -46.5t51.5 -138.5q0 -71 -39.5 -118.5t-115.5 -61.5l117 -217q20 -36 45 -53t62 -17h9v-46h-64q-29 0 -48.5 6t-34.5 17t-26.5 28t-23.5 39l-124 231h-118v-275h75v-46h-236v46zM216 370h157q54 0 83 33.5t29 82.5v46q0 49 -29 83
t-83 34h-157v-279zM276 775l76 177l77 -38l-126 -153z" />
    <glyph glyph-name="racute" unicode="&#x155;" horiz-adv-x="443" 
d="M50 46h74v405l-74 13v34l154 30v-90h5q7 16 17.5 32t26 29t36 21t47.5 8q44 0 70.5 -21t26.5 -61q0 -30 -15 -47t-39 -17q-27 0 -43 14.5t-16 37.5q0 20 8.5 32.5t19.5 14.5v2q-4 1 -10 1.5t-15 0.5q-21 0 -42 -10.5t-37.5 -27t-27 -37.5t-10.5 -42v-322h94v-46h-250v46z
M230 599l76 177l77 -38l-126 -153z" />
    <glyph glyph-name="Rcommaaccent" unicode="&#x156;" horiz-adv-x="672" 
d="M55 46h75v606h-75v46h326q93 0 144.5 -46.5t51.5 -138.5q0 -71 -39.5 -118.5t-115.5 -61.5l117 -217q20 -36 45 -53t62 -17h9v-46h-64q-29 0 -48.5 6t-34.5 17t-26.5 28t-23.5 39l-124 231h-118v-275h75v-46h-236v46zM216 370h157q54 0 83 33.5t29 82.5v46q0 49 -29 83
t-83 34h-157v-279zM331 -246q19 20 32.5 43.5t20.5 44.5q-27 0 -41.5 14t-14.5 36v4q0 21 14.5 35t40.5 14q24 0 38 -15t14 -36v-7q0 -32 -18 -69t-47 -64h-39v0z" />
    <glyph glyph-name="rcommaaccent" unicode="&#x157;" horiz-adv-x="443" 
d="M50 46h74v405l-74 13v34l154 30v-90h5q7 16 17.5 32t26 29t36 21t47.5 8q44 0 70.5 -21t26.5 -61q0 -30 -15 -47t-39 -17q-27 0 -43 14.5t-16 37.5q0 20 8.5 32.5t19.5 14.5v2q-4 1 -10 1.5t-15 0.5q-21 0 -42 -10.5t-37.5 -27t-27 -37.5t-10.5 -42v-322h94v-46h-250v46z
M116 -246q19 20 32.5 43.5t20.5 44.5q-27 0 -41.5 14t-14.5 36v4q0 21 14.5 35t40.5 14q24 0 38 -15t14 -36v-7q0 -32 -18 -69t-47 -64h-39v0z" />
    <glyph glyph-name="Rcaron" unicode="&#x158;" horiz-adv-x="672" 
d="M55 46h75v606h-75v46h326q93 0 144.5 -46.5t51.5 -138.5q0 -71 -39.5 -118.5t-115.5 -61.5l117 -217q20 -36 45 -53t62 -17h9v-46h-64q-29 0 -48.5 6t-34.5 17t-26.5 28t-23.5 39l-124 231h-118v-275h75v-46h-236v46zM216 370h157q54 0 83 33.5t29 82.5v46q0 49 -29 83
t-83 34h-157v-279zM159 922l24 16l127 -97l127 97l24 -16l-123 -149h-56z" />
    <glyph glyph-name="rcaron" unicode="&#x159;" horiz-adv-x="443" 
d="M50 46h74v405l-74 13v34l154 30v-90h5q7 16 17.5 32t26 29t36 21t47.5 8q44 0 70.5 -21t26.5 -61q0 -30 -15 -47t-39 -17q-27 0 -43 14.5t-16 37.5q0 20 8.5 32.5t19.5 14.5v2q-4 1 -10 1.5t-15 0.5q-21 0 -42 -10.5t-37.5 -27t-27 -37.5t-10.5 -42v-322h94v-46h-250v46z
M113 751l24 16l127 -97l127 97l24 -16l-123 -149h-56z" />
    <glyph glyph-name="Sacute" unicode="&#x15a;" horiz-adv-x="588" 
d="M295 -12q-63 0 -102.5 19.5t-55.5 52.5h-5v-60h-72v205h72v-46q0 -25 7.5 -46.5t25 -37.5t46 -25t69.5 -9q87 0 125.5 37t38.5 99q0 53 -29.5 83t-92.5 47l-55 14q-93 24 -144 72t-51 132q0 42 16 76.5t45 58.5t69.5 37t89.5 13q57 0 93.5 -17.5t51.5 -48.5h6v54h72v-195
h-72v46q0 25 -7.5 45t-25.5 34t-47 21.5t-71 7.5q-70 0 -105 -32t-35 -84q0 -54 31.5 -84.5t99.5 -48.5l51 -13q91 -24 140 -72t49 -126q0 -45 -15 -83.5t-44 -66.5t-71.5 -43.5t-97.5 -15.5zM258 775l76 177l77 -38l-126 -153z" />
    <glyph glyph-name="sacute" unicode="&#x15b;" horiz-adv-x="488" 
d="M252 -12q-47 0 -82 19.5t-46 43.5h-4v-51h-60v155h60v-21q0 -43 27 -70t89 -27q57 0 88.5 20.5t31.5 65.5q0 70 -85 89l-60 13q-74 16 -111.5 54t-37.5 104q0 68 47 106.5t126 38.5q48 0 78.5 -15t40.5 -39h4v42h60v-155h-60v38q0 80 -112 80q-51 0 -79.5 -19.5
t-28.5 -61.5q0 -35 23 -58.5t63 -32.5l56 -12q77 -16 115.5 -53t38.5 -103q0 -32 -12.5 -59.5t-36 -48t-57 -32t-76.5 -11.5zM203 599l76 177l77 -38l-126 -153z" />
    <glyph glyph-name="Scircumflex" unicode="&#x15c;" horiz-adv-x="588" 
d="M295 -12q-63 0 -102.5 19.5t-55.5 52.5h-5v-60h-72v205h72v-46q0 -25 7.5 -46.5t25 -37.5t46 -25t69.5 -9q87 0 125.5 37t38.5 99q0 53 -29.5 83t-92.5 47l-55 14q-93 24 -144 72t-51 132q0 42 16 76.5t45 58.5t69.5 37t89.5 13q57 0 93.5 -17.5t51.5 -48.5h6v54h72v-195
h-72v46q0 25 -7.5 45t-25.5 34t-47 21.5t-71 7.5q-70 0 -105 -32t-35 -84q0 -54 31.5 -84.5t99.5 -48.5l51 -13q91 -24 140 -72t49 -126q0 -45 -15 -83.5t-44 -66.5t-71.5 -43.5t-97.5 -15.5zM141 785l123 149h56l123 -149l-24 -16l-127 97l-127 -97z" />
    <glyph glyph-name="scircumflex" unicode="&#x15d;" horiz-adv-x="488" 
d="M252 -12q-47 0 -82 19.5t-46 43.5h-4v-51h-60v155h60v-21q0 -43 27 -70t89 -27q57 0 88.5 20.5t31.5 65.5q0 70 -85 89l-60 13q-74 16 -111.5 54t-37.5 104q0 68 47 106.5t126 38.5q48 0 78.5 -15t40.5 -39h4v42h60v-155h-60v38q0 80 -112 80q-51 0 -79.5 -19.5
t-28.5 -61.5q0 -35 23 -58.5t63 -32.5l56 -12q77 -16 115.5 -53t38.5 -103q0 -32 -12.5 -59.5t-36 -48t-57 -32t-76.5 -11.5zM86 614l123 149h56l123 -149l-24 -16l-127 97l-127 -97z" />
    <glyph glyph-name="Scedilla" unicode="&#x15e;" horiz-adv-x="588" 
d="M306 -206q-36 0 -56.5 13t-31.5 26l20 21q10 -11 24 -17.5t34 -6.5q24 0 38.5 10.5t14.5 31.5q0 16 -11.5 29.5t-49.5 17.5l-28 3l13 67q-53 3 -87.5 22t-48.5 49h-5v-60h-72v205h72v-46q0 -25 7.5 -46.5t25 -37.5t46 -25t69.5 -9q87 0 125.5 37t38.5 99q0 53 -29.5 83
t-92.5 47l-55 14q-93 24 -144 72t-51 132q0 42 16 76.5t45 58.5t69.5 37t89.5 13q57 0 93.5 -17.5t51.5 -48.5h6v54h72v-195h-72v46q0 25 -7.5 45t-25.5 34t-47 21.5t-71 7.5q-70 0 -105 -32t-35 -84q0 -54 31.5 -84.5t99.5 -48.5l51 -13q91 -24 140 -72t49 -126
q0 -44 -14 -81t-41 -64.5t-66.5 -44t-90.5 -19.5l-10 -50l3 -3q20 5 36 5q32 0 53 -16.5t21 -48.5q0 -21 -8.5 -36t-23.5 -25t-34.5 -15t-41.5 -5z" />
    <glyph glyph-name="scedilla" unicode="&#x15f;" horiz-adv-x="488" 
d="M264 -206q-36 0 -56.5 13t-31.5 26l20 21q10 -11 24 -17.5t34 -6.5q24 0 38.5 10.5t14.5 31.5q0 16 -11.5 29.5t-49.5 17.5l-28 3l13 67q-40 5 -68.5 23t-38.5 39h-4v-51h-60v155h60v-21q0 -43 27 -70t89 -27q57 0 88.5 20.5t31.5 65.5q0 70 -85 89l-60 13
q-74 16 -111.5 54t-37.5 104q0 68 47 106.5t126 38.5q48 0 78.5 -15t40.5 -39h4v42h60v-155h-60v38q0 80 -112 80q-51 0 -79.5 -19.5t-28.5 -61.5q0 -35 23 -58.5t63 -32.5l56 -12q77 -16 115.5 -53t38.5 -103q0 -61 -43.5 -103t-121.5 -47l-10 -51l3 -3q20 5 36 5
q32 0 53 -16.5t21 -48.5q0 -21 -8.5 -36t-23.5 -25t-34.5 -15t-41.5 -5z" />
    <glyph glyph-name="Scaron" unicode="&#x160;" horiz-adv-x="588" 
d="M295 -12q-63 0 -102.5 19.5t-55.5 52.5h-5v-60h-72v205h72v-46q0 -25 7.5 -46.5t25 -37.5t46 -25t69.5 -9q87 0 125.5 37t38.5 99q0 53 -29.5 83t-92.5 47l-55 14q-93 24 -144 72t-51 132q0 42 16 76.5t45 58.5t69.5 37t89.5 13q57 0 93.5 -17.5t51.5 -48.5h6v54h72v-195
h-72v46q0 25 -7.5 45t-25.5 34t-47 21.5t-71 7.5q-70 0 -105 -32t-35 -84q0 -54 31.5 -84.5t99.5 -48.5l51 -13q91 -24 140 -72t49 -126q0 -45 -15 -83.5t-44 -66.5t-71.5 -43.5t-97.5 -15.5zM141 922l24 16l127 -97l127 97l24 -16l-123 -149h-56z" />
    <glyph glyph-name="scaron" unicode="&#x161;" horiz-adv-x="488" 
d="M252 -12q-47 0 -82 19.5t-46 43.5h-4v-51h-60v155h60v-21q0 -43 27 -70t89 -27q57 0 88.5 20.5t31.5 65.5q0 70 -85 89l-60 13q-74 16 -111.5 54t-37.5 104q0 68 47 106.5t126 38.5q48 0 78.5 -15t40.5 -39h4v42h60v-155h-60v38q0 80 -112 80q-51 0 -79.5 -19.5
t-28.5 -61.5q0 -35 23 -58.5t63 -32.5l56 -12q77 -16 115.5 -53t38.5 -103q0 -32 -12.5 -59.5t-36 -48t-57 -32t-76.5 -11.5zM86 751l24 16l127 -97l127 97l24 -16l-123 -149h-56z" />
    <glyph glyph-name="uni0162" unicode="&#x162;" horiz-adv-x="652" 
d="M188 46h95v603h-176v-119h-72v168h582v-168h-72v119h-176v-603h95v-46h-276v46zM276 -246q19 20 32.5 43.5t20.5 44.5q-27 0 -41.5 14t-14.5 36v4q0 21 14.5 35t40.5 14q24 0 38 -15t14 -36v-7q0 -32 -18 -69t-47 -64h-39v0z" />
    <glyph glyph-name="uni0163" unicode="&#x163;" horiz-adv-x="353" 
d="M202 -6q-53 0 -73 21.5t-20 73.5v378h-66v49h9q21 0 33.5 3t20 8.5t11 14t6.5 19.5l23 89h45v-134h133v-49h-133v-418h133v-33q-9 -5 -22.5 -9t-30 -7t-34.5 -4.5t-35 -1.5zM165 -246q19 20 32.5 43.5t20.5 44.5q-27 0 -41.5 14t-14.5 36v4q0 21 14.5 35t40.5 14
q24 0 38 -15t14 -36v-7q0 -32 -18 -69t-47 -64h-39v0z" />
    <glyph glyph-name="Tcaron" unicode="&#x164;" horiz-adv-x="652" 
d="M188 46h95v603h-176v-119h-72v168h582v-168h-72v119h-176v-603h95v-46h-276v46zM175 922l24 16l127 -97l127 97l24 -16l-123 -149h-56z" />
    <glyph glyph-name="tcaron" unicode="&#x165;" horiz-adv-x="353" 
d="M202 -6q-53 0 -73 21.5t-20 73.5v378h-66v49h9q21 0 33.5 3t20 8.5t11 14t6.5 19.5l23 89h45v-134h133v-49h-133v-418h133v-33q-9 -5 -22.5 -9t-30 -7t-34.5 -4.5t-35 -1.5zM259 748h81l-65 -184h-28z" />
    <glyph glyph-name="Tbar" unicode="&#x166;" horiz-adv-x="652" 
d="M188 46h95v288h-155v48h155v267h-176v-119h-72v168h582v-168h-72v119h-176v-267h155v-48h-155v-288h95v-46h-276v46z" />
    <glyph glyph-name="tbar" unicode="&#x167;" horiz-adv-x="358" 
d="M207 -6q-53 0 -73 21.5t-20 73.5v167h-51v46h51v165h-66v49h9q21 0 33.5 3t20 8.5t11 14t6.5 19.5l23 89h45v-134h133v-49h-133v-165h118v-46h-118v-207h133v-33q-9 -5 -22.5 -9t-30 -7t-34.5 -4.5t-35 -1.5z" />
    <glyph glyph-name="Utilde" unicode="&#x168;" horiz-adv-x="735" 
d="M375 -12q-68 0 -116.5 15t-79.5 49t-45 87t-14 130v383h-75v46h236v-46h-75v-399q0 -53 9 -92t29.5 -64.5t53.5 -38.5t82 -13q98 0 139 51.5t41 156.5v399h-75v46h205v-46h-75v-370q0 -76 -12 -131.5t-40.5 -91.5t-74.5 -53.5t-113 -17.5zM444 786q-19 0 -36.5 8.5
t-35.5 18.5q-18 9 -38 18.5t-35 9.5t-24.5 -7t-28.5 -26l-19 20q25 31 44.5 49.5t50.5 18.5q19 0 36.5 -8.5t35.5 -18.5q18 -9 38 -18.5t35 -9.5t24.5 7t28.5 26l19 -20q-25 -31 -44.5 -49.5t-50.5 -18.5z" />
    <glyph glyph-name="utilde" unicode="&#x169;" horiz-adv-x="619" 
d="M278 -12q-93 0 -133.5 48.5t-40.5 146.5v268l-74 13v34l156 30v-338q0 -145 121 -145q22 0 43.5 6t39 19t28 32t10.5 45v304l-74 13v34l156 30v-463l74 -13v-34l-154 -30v90h-4q-6 -15 -18.5 -31t-31 -29t-43.5 -21.5t-55 -8.5zM361 618q-19 0 -36.5 8.5t-35.5 18.5
q-18 9 -38 18.5t-35 9.5t-24.5 -7t-28.5 -26l-19 20q25 31 44.5 49.5t50.5 18.5q19 0 36.5 -8.5t35.5 -18.5q18 -9 38 -18.5t35 -9.5t24.5 7t28.5 26l19 -20q-25 -31 -44.5 -49.5t-50.5 -18.5z" />
    <glyph glyph-name="Umacron" unicode="&#x16a;" horiz-adv-x="735" 
d="M375 -12q-68 0 -116.5 15t-79.5 49t-45 87t-14 130v383h-75v46h236v-46h-75v-399q0 -53 9 -92t29.5 -64.5t53.5 -38.5t82 -13q98 0 139 51.5t41 156.5v399h-75v46h205v-46h-75v-370q0 -76 -12 -131.5t-40.5 -91.5t-74.5 -53.5t-113 -17.5zM244 870h278v-57h-278v57z" />
    <glyph glyph-name="umacron" unicode="&#x16b;" horiz-adv-x="619" 
d="M278 -12q-93 0 -133.5 48.5t-40.5 146.5v268l-74 13v34l156 30v-338q0 -145 121 -145q22 0 43.5 6t39 19t28 32t10.5 45v304l-74 13v34l156 30v-463l74 -13v-34l-154 -30v90h-4q-6 -15 -18.5 -31t-31 -29t-43.5 -21.5t-55 -8.5zM161 699h278v-57h-278v57z" />
    <glyph glyph-name="Ubreve" unicode="&#x16c;" horiz-adv-x="735" 
d="M375 -12q-68 0 -116.5 15t-79.5 49t-45 87t-14 130v383h-75v46h236v-46h-75v-399q0 -53 9 -92t29.5 -64.5t53.5 -38.5t82 -13q98 0 139 51.5t41 156.5v399h-75v46h205v-46h-75v-370q0 -76 -12 -131.5t-40.5 -91.5t-74.5 -53.5t-113 -17.5zM383 769q-36 0 -59.5 12.5
t-39 32t-25 43t-17.5 46.5l27 14l21 -38q12 -23 32 -34.5t61 -11.5t61 11.5t32 34.5l21 38l27 -14q-8 -23 -17.5 -46.5t-25 -43t-39 -32t-59.5 -12.5z" />
    <glyph glyph-name="ubreve" unicode="&#x16d;" horiz-adv-x="619" 
d="M278 -12q-93 0 -133.5 48.5t-40.5 146.5v268l-74 13v34l156 30v-338q0 -145 121 -145q22 0 43.5 6t39 19t28 32t10.5 45v304l-74 13v34l156 30v-463l74 -13v-34l-154 -30v90h-4q-6 -15 -18.5 -31t-31 -29t-43.5 -21.5t-55 -8.5zM300 598q-36 0 -59.5 12.5t-39 32t-25 43
t-17.5 46.5l27 14l21 -38q12 -23 32 -34.5t61 -11.5t61 11.5t32 34.5l21 38l27 -14q-8 -23 -17.5 -46.5t-25 -43t-39 -32t-59.5 -12.5z" />
    <glyph glyph-name="Uring" unicode="&#x16e;" horiz-adv-x="735" 
d="M375 -12q-68 0 -116.5 15t-79.5 49t-45 87t-14 130v383h-75v46h236v-46h-75v-399q0 -53 9 -92t29.5 -64.5t53.5 -38.5t82 -13q98 0 139 51.5t41 156.5v399h-75v46h205v-46h-75v-370q0 -76 -12 -131.5t-40.5 -91.5t-74.5 -53.5t-113 -17.5zM383 782q28 0 43.5 16.5
t15.5 46.5v30q0 30 -15.5 46.5t-43.5 16.5t-43.5 -16.5t-15.5 -46.5v-30q0 -30 15.5 -46.5t43.5 -16.5zM383 748q-25 0 -46.5 8.5t-37 23.5t-24.5 35.5t-9 44.5t9 44.5t24.5 35.5t37 23.5t46.5 8.5t46 -8.5t37 -23.5t25 -35.5t9 -44.5t-9 -44.5t-25 -35.5t-37 -23.5
t-46 -8.5z" />
    <glyph glyph-name="uring" unicode="&#x16f;" horiz-adv-x="619" 
d="M278 -12q-93 0 -133.5 48.5t-40.5 146.5v268l-74 13v34l156 30v-338q0 -145 121 -145q22 0 43.5 6t39 19t28 32t10.5 45v304l-74 13v34l156 30v-463l74 -13v-34l-154 -30v90h-4q-6 -15 -18.5 -31t-31 -29t-43.5 -21.5t-55 -8.5zM300 613q28 0 43.5 16.5t15.5 46.5v30
q0 30 -15.5 46.5t-43.5 16.5t-43.5 -16.5t-15.5 -46.5v-30q0 -30 15.5 -46.5t43.5 -16.5zM300 579q-25 0 -46.5 8.5t-37 23.5t-24.5 35.5t-9 44.5t9 44.5t24.5 35.5t37 23.5t46.5 8.5t46 -8.5t37 -23.5t25 -35.5t9 -44.5t-9 -44.5t-25 -35.5t-37 -23.5t-46 -8.5z" />
    <glyph glyph-name="Uhungarumlaut" unicode="&#x170;" horiz-adv-x="735" 
d="M375 -12q-68 0 -116.5 15t-79.5 49t-45 87t-14 130v383h-75v46h236v-46h-75v-399q0 -53 9 -92t29.5 -64.5t53.5 -38.5t82 -13q98 0 139 51.5t41 156.5v399h-75v46h205v-46h-75v-370q0 -76 -12 -131.5t-40.5 -91.5t-74.5 -53.5t-113 -17.5zM271 775l76 177l77 -38
l-126 -153zM431 775l76 177l77 -38l-126 -153z" />
    <glyph glyph-name="uhungarumlaut" unicode="&#x171;" horiz-adv-x="619" 
d="M278 -12q-93 0 -133.5 48.5t-40.5 146.5v268l-74 13v34l156 30v-338q0 -145 121 -145q22 0 43.5 6t39 19t28 32t10.5 45v304l-74 13v34l156 30v-463l74 -13v-34l-154 -30v90h-4q-6 -15 -18.5 -31t-31 -29t-43.5 -21.5t-55 -8.5zM188 599l76 177l77 -38l-126 -153z
M348 599l76 177l77 -38l-126 -153z" />
    <glyph glyph-name="Uogonek" unicode="&#x172;" horiz-adv-x="735" 
d="M466 -206q-19 0 -36.5 4t-30.5 13t-20.5 23.5t-7.5 35.5q0 33 28 63.5t68 60.5l-2 4q-19 -5 -42 -7.5t-48 -2.5q-68 0 -116.5 15t-79.5 49t-45 87t-14 130v383h-75v46h236v-46h-75v-399q0 -53 9 -92t29.5 -64.5t53.5 -38.5t82 -13q98 0 139 51.5t41 156.5v399h-75v46h205
v-46h-75v-370q0 -93 -17.5 -152.5t-59.5 -96.5q-31 -27 -50.5 -50.5t-30 -43t-14 -35.5t-3.5 -27q0 -21 12.5 -34t32.5 -13q14 0 25.5 6t19.5 16l21 -20q-10 -16 -31.5 -27t-53.5 -11z" />
    <glyph glyph-name="uogonek" unicode="&#x173;" horiz-adv-x="618" 
d="M521 -206q-19 0 -36 4t-30 13t-20.5 23t-7.5 34q0 39 31 70.5t80 66.5l-1 4l-107 -21v90h-4q-6 -15 -18.5 -31t-31 -29t-43.5 -21.5t-55 -8.5q-93 0 -133.5 48.5t-40.5 146.5v268l-74 13v34l156 30v-338q0 -145 121 -145q22 0 43.5 6t39 19t28 32t10.5 45v304l-74 13v34
l156 30v-463l74 -13v-34q-31 -29 -48.5 -51t-26.5 -38.5t-11 -29t-2 -22.5q0 -23 13 -35t34 -12q13 0 24 6t19 16l21 -20q-10 -16 -31.5 -27t-54.5 -11z" />
    <glyph glyph-name="Wcircumflex" unicode="&#x174;" horiz-adv-x="968" 
d="M76 652h-53v46h234v-46h-90l130 -550h4l153 596h85l157 -596h4l131 550h-90v46h204v-46h-53l-166 -652h-83l-159 584h-4l-155 -584h-83zM346 785l123 149h56l123 -149l-24 -16l-127 97l-127 -97z" />
    <glyph glyph-name="wcircumflex" unicode="&#x175;" horiz-adv-x="777" 
d="M60 470h-52v46h207v-46h-72l103 -390h4l125 436h69l115 -436h4l105 390h-72v46h173v-46h-52l-131 -470h-80l-111 405h-4l-121 -405h-80zM258 614l123 149h56l123 -149l-24 -16l-127 97l-127 -97z" />
    <glyph glyph-name="Ycircumflex" unicode="&#x176;" horiz-adv-x="634" 
d="M179 46h95v235l-201 371h-53v46h241v-46h-90l161 -310h4l165 310h-90v46h203v-46h-53l-201 -366v-240h95v-46h-276v46zM185 785l123 149h56l123 -149l-24 -16l-127 97l-127 -97z" />
    <glyph glyph-name="ycircumflex" unicode="&#x177;" horiz-adv-x="534" 
d="M123 -212q-51 0 -74 21.5t-23 56.5q0 26 14 42t40 16q23 0 35.5 -13.5t12.5 -36.5q0 -17 -8.5 -27.5t-18.5 -13.5v-3q11 -4 26 -4q26 0 51 22.5t45 73.5l21 57l-190 491h-52v46h214v-46h-72l139 -378h4l135 378h-72v46h182v-46h-52l-214 -556q-21 -55 -56.5 -90.5
t-86.5 -35.5zM132 614l123 149h56l123 -149l-24 -16l-127 97l-127 -97z" />
    <glyph glyph-name="Ydieresis" unicode="&#x178;" horiz-adv-x="634" 
d="M179 46h95v235l-201 371h-53v46h241v-46h-90l161 -310h4l165 310h-90v46h203v-46h-53l-201 -366v-240h95v-46h-276v46zM245 791q-23 0 -36.5 14.5t-13.5 34.5v3q0 20 13.5 34.5t36.5 14.5t36.5 -14.5t13.5 -34.5v-3q0 -20 -13.5 -34.5t-36.5 -14.5zM427 791
q-23 0 -36.5 14.5t-13.5 34.5v3q0 20 13.5 34.5t36.5 14.5t36.5 -14.5t13.5 -34.5v-3q0 -20 -13.5 -34.5t-36.5 -14.5z" />
    <glyph glyph-name="Zacute" unicode="&#x179;" horiz-adv-x="637" 
d="M60 49l403 600h-322v-119h-72v168h494v-49l-403 -600h340v128h72v-177h-512v49zM274 775l76 177l77 -38l-126 -153z" />
    <glyph glyph-name="zacute" unicode="&#x17a;" horiz-adv-x="508" 
d="M50 35l295 434h-227v-108h-60v155h392v-35l-295 -434h243v108h60v-155h-408v35zM223 599l76 177l77 -38l-126 -153z" />
    <glyph glyph-name="Zdotaccent" unicode="&#x17b;" horiz-adv-x="637" 
d="M60 49l403 600h-322v-119h-72v168h494v-49l-403 -600h340v128h72v-177h-512v49zM308 791q-23 0 -36.5 14.5t-13.5 34.5v3q0 20 13.5 34.5t36.5 14.5t36.5 -14.5t13.5 -34.5v-3q0 -20 -13.5 -34.5t-36.5 -14.5z" />
    <glyph glyph-name="zdotaccent" unicode="&#x17c;" horiz-adv-x="508" 
d="M50 35l295 434h-227v-108h-60v155h392v-35l-295 -434h243v108h60v-155h-408v35zM257 619q-23 0 -36.5 14.5t-13.5 34.5v3q0 20 13.5 34.5t36.5 14.5t36.5 -14.5t13.5 -34.5v-3q0 -20 -13.5 -34.5t-36.5 -14.5z" />
    <glyph glyph-name="Zcaron" unicode="&#x17d;" horiz-adv-x="637" 
d="M60 49l403 600h-322v-119h-72v168h494v-49l-403 -600h340v128h72v-177h-512v49zM157 922l24 16l127 -97l127 97l24 -16l-123 -149h-56z" />
    <glyph glyph-name="zcaron" unicode="&#x17e;" horiz-adv-x="508" 
d="M50 35l295 434h-227v-108h-60v155h392v-35l-295 -434h243v108h60v-155h-408v35zM106 751l24 16l127 -97l127 97l24 -16l-123 -149h-56z" />
    <glyph glyph-name="uni018F" unicode="&#x18f;" horiz-adv-x="698" 
d="M346 -12q-71 0 -126 25t-92.5 66t-57.5 94.5t-20 110.5v47h502v75q0 52 -14 96t-43 76t-73 50t-104 18q-79 0 -133.5 -37t-77.5 -97l-38 19q9 30 30.5 62t55 58t79 42.5t103.5 16.5q74 0 132 -25t97.5 -71.5t60.5 -113.5t21 -151t-21.5 -150.5t-61 -113.5t-95.5 -72
t-124 -25zM346 41q49 0 87 17.5t64.5 49t40.5 75t14 96.5v3h-406v-3q0 -53 13.5 -96.5t39 -75t63 -49t84.5 -17.5z" />
    <glyph glyph-name="florin" unicode="&#x192;" horiz-adv-x="465" 
d="M42 -146q-51 0 -79.5 21t-28.5 56q0 26 16 43.5t42 17.5q20 0 33 -13t13 -33q0 -16 -9.5 -29t-25.5 -19v-2q6 -2 17 -3t22 -1q19 0 36 6.5t30.5 22.5t22.5 43t13 67l27 263h-149l6 47h147l18 181q9 94 56.5 141t129.5 47q51 0 79.5 -21t28.5 -56q0 -26 -16 -43.5
t-42 -17.5q-20 0 -33 13t-13 33q0 16 9.5 29t25.5 19v2q-5 2 -16 3t-22 1q-20 0 -37 -6.5t-30.5 -22.5t-22.5 -43t-13 -67l-19 -192h179l-6 -47h-177l-26 -252q-20 -188 -186 -188z" />
    <glyph glyph-name="Ohorn" unicode="&#x1a0;" horiz-adv-x="716" 
d="M358 -12q-69 0 -126 25t-97.5 72t-62.5 113.5t-22 150.5t22 150.5t62.5 113.5t97.5 72t126 25q48 0 90 -12h128v112h76v-86q0 -26 -16.5 -43.5t-51.5 -17.5h-59q66 -44 103.5 -124t37.5 -190q0 -84 -22 -150.5t-62.5 -113.5t-97.5 -72t-126 -25zM358 41q51 0 90.5 18.5
t66.5 52t41 79.5t14 101v114q0 55 -14 101t-41 79.5t-66.5 52t-90.5 18.5t-90.5 -18.5t-66.5 -52t-41 -79.5t-14 -101v-114q0 -55 14 -101t41 -79.5t66.5 -52t90.5 -18.5z" />
    <glyph glyph-name="ohorn" unicode="&#x1a1;" horiz-adv-x="565" 
d="M282 -12q-53 0 -97 19t-75 54.5t-48 85t-17 111.5q0 61 17 111t48 85.5t75 54.5t97 19q45 0 81 -13h76v112h77v-86q0 -26 -17 -43t-52 -17h-21q44 -35 68.5 -91.5t24.5 -131.5q0 -62 -17 -111.5t-48 -85t-75 -54.5t-97 -19zM282 37q37 0 64.5 12.5t45 35t26 53t8.5 66.5
v108q0 36 -8.5 66.5t-26 53t-45 35t-64.5 12.5q-38 0 -65 -12.5t-44.5 -35t-26 -53t-8.5 -66.5v-108q0 -36 8.5 -66.5t26 -53t44.5 -35t65 -12.5z" />
    <glyph glyph-name="Uhorn" unicode="&#x1af;" horiz-adv-x="733" 
d="M375 -12q-68 0 -116.5 15t-79.5 49t-45 87t-14 130v383h-75v46h236v-46h-75v-399q0 -53 9 -92t29.5 -64.5t53.5 -38.5t82 -13q98 0 139 51.5t41 156.5v399h-75v46h149v112h76v-86q0 -26 -16.5 -43.5t-51.5 -17.5h-27v-381q0 -76 -12 -131.5t-40.5 -91.5t-74.5 -53.5
t-113 -17.5z" />
    <glyph glyph-name="uhorn" unicode="&#x1b0;" horiz-adv-x="618" 
d="M278 -12q-93 0 -133.5 48.5t-40.5 146.5v268l-74 13v34l156 30v-338q0 -145 121 -145q22 0 43.5 6t39 19t28 32t10.5 45v304l-74 13v34l170 27v102h77v-81q0 -26 -15.5 -43t-49.5 -17h-26v-421l74 -13v-34l-154 -30v90h-4q-6 -15 -18.5 -31t-31 -29t-43.5 -21.5t-55 -8.5
z" />
    <glyph glyph-name="Aringacute" unicode="&#x1fa;" horiz-adv-x="686" 
d="M16 46h53l227 652h95l226 -652h53v-46h-236v46h90l-62 181h-272l-62 -181h90v-46h-202v46zM204 275h243l-117 350h-6zM343 773q28 0 43.5 16.5t15.5 46.5v30q0 30 -15.5 46.5t-43.5 16.5t-43.5 -16.5t-15.5 -46.5v-30q0 -30 15.5 -46.5t43.5 -16.5zM343 739
q-25 0 -46.5 8.5t-37 23.5t-24.5 35.5t-9 44.5t9 44.5t24.5 35.5t37 23.5t46.5 8.5t46 -8.5t37 -23.5t25 -35.5t9 -44.5t-9 -44.5t-25 -35.5t-37 -23.5t-46 -8.5zM322 1002l68 120l54 -34l-99 -101z" />
    <glyph glyph-name="aringacute" unicode="&#x1fb;" horiz-adv-x="546" 
d="M203 -12q-72 0 -112.5 37.5t-40.5 102.5q0 37 12 65.5t39.5 47.5t71.5 29t107 10h74v76q0 61 -29.5 93.5t-88.5 32.5q-26 0 -48 -4.5t-36 -12.5v-2q11 -6 21.5 -18t10.5 -34q0 -26 -15 -40.5t-40 -14.5q-24 0 -39.5 14.5t-15.5 43.5q0 22 13 42.5t37 36.5t59.5 25.5
t80.5 9.5q81 0 126.5 -42t45.5 -118v-325h75v-35q-11 -8 -29.5 -14t-41.5 -6q-39 0 -60 22t-21 59v7h-5q-7 -17 -18.5 -33t-29.5 -28t-43.5 -19.5t-59.5 -7.5zM238 43q48 0 82 24.5t34 75.5v97h-65q-43 0 -72 -6.5t-46 -19t-24.5 -30.5t-7.5 -42v-21q0 -38 26 -58t73 -20z
M265 603q28 0 43.5 16.5t15.5 46.5v30q0 30 -15.5 46.5t-43.5 16.5t-43.5 -16.5t-15.5 -46.5v-30q0 -30 15.5 -46.5t43.5 -16.5zM265 569q-25 0 -46.5 8.5t-37 23.5t-24.5 35.5t-9 44.5t9 44.5t24.5 35.5t37 23.5t46.5 8.5t46 -8.5t37 -23.5t25 -35.5t9 -44.5t-9 -44.5
t-25 -35.5t-37 -23.5t-46 -8.5zM244 832l68 120l54 -34l-99 -101z" />
    <glyph glyph-name="AEacute" unicode="&#x1fc;" horiz-adv-x="954" 
d="M11 46h53l311 606h-76v46h585v-168h-72v119h-283v-265h198v80h60v-209h-60v80h-198v-286h293v128h72v-177h-526v46h75v181h-226l-92 -181h77v-46h-191v46zM238 275h205v377h-10zM572 775l76 177l77 -38l-126 -153z" />
    <glyph glyph-name="aeacute" unicode="&#x1fd;" horiz-adv-x="823" 
d="M203 -12q-72 0 -112.5 40t-40.5 105q0 40 12 70t39.5 49.5t71.5 29t107 9.5h74v65q0 61 -29.5 93.5t-88.5 32.5q-26 0 -48 -4.5t-36 -12.5v-2q11 -6 21.5 -18t10.5 -34q0 -26 -15 -40.5t-40 -14.5q-24 0 -39.5 14.5t-15.5 43.5q0 22 13 42.5t37 36.5t59.5 25.5t80.5 9.5
q32 0 57 -9t43 -24t28.5 -35t13.5 -42h6q14 48 56.5 79t103.5 31q51 0 89.5 -19.5t64.5 -53t39 -79.5t13 -99v-28h-341v-14q0 -85 42.5 -134t113.5 -49q31 0 53 5.5t38 16t27.5 26t22.5 35.5l33 -21q-10 -26 -25 -49t-37.5 -40t-53 -27t-71.5 -10q-37 0 -67.5 10t-53.5 26.5
t-39 38t-23 44.5h-6q-19 -63 -67.5 -91t-120.5 -28zM238 43q48 0 82 24.5t34 75.5v108h-65q-43 0 -72 -6.5t-46 -19.5t-24.5 -31t-7.5 -42v-31q0 -38 26 -58t73 -20zM437 293h256v17q0 35 -6.5 66t-20.5 54.5t-37.5 37t-56.5 13.5q-34 0 -59 -12.5t-42 -34.5t-25.5 -52
t-8.5 -65v-24zM375 599l76 177l77 -38l-126 -153z" />
    <glyph glyph-name="Oslashacute" unicode="&#x1fe;" horiz-adv-x="716" 
d="M89 -17l58 88q-46 48 -71.5 117.5t-25.5 160.5q0 84 22 150.5t62.5 113.5t97.5 72t126 25q101 0 174 -52l56 84l39 -27l-58 -88q46 -48 71.5 -117.5t25.5 -160.5q0 -84 -22 -150.5t-62.5 -113.5t-97.5 -72t-126 -25q-101 0 -174 52l-56 -84zM498 605q-26 25 -61 38.5
t-79 13.5q-51 0 -90.5 -18.5t-66.5 -52t-41 -79.5t-14 -101v-114q0 -96 41 -161zM358 41q51 0 90.5 18.5t66.5 52t41 79.5t14 101v114q0 96 -41 161l-311 -474q26 -25 61 -38.5t79 -13.5zM324 775l76 177l77 -38l-126 -153z" />
    <glyph glyph-name="oslashacute" unicode="&#x1ff;" horiz-adv-x="564" 
d="M48 -11l58 77q-29 35 -45 83.5t-16 108.5q0 61 17 111t48 85.5t75 54.5t97 19q83 0 143 -46l56 72l35 -27l-58 -77q29 -35 45 -83.5t16 -108.5q0 -62 -17 -111.5t-48 -85t-75 -54.5t-97 -19q-83 0 -143 46l-56 -72zM390 434q-18 21 -44.5 33t-63.5 12q-38 0 -65 -12.5
t-44.5 -35t-26 -53t-8.5 -66.5v-108q0 -23 3 -43.5t11 -38.5zM282 37q37 0 64.5 12.5t45 35t26 53t8.5 66.5v108q0 23 -3 43.5t-11 38.5l-238 -312q18 -21 44.5 -33t63.5 -12zM249 599l76 177l77 -38l-126 -153z" />
    <glyph glyph-name="Scommaaccent" unicode="&#x218;" horiz-adv-x="588" 
d="M295 -12q-63 0 -102.5 19.5t-55.5 52.5h-5v-60h-72v205h72v-46q0 -25 7.5 -46.5t25 -37.5t46 -25t69.5 -9q87 0 125.5 37t38.5 99q0 53 -29.5 83t-92.5 47l-55 14q-93 24 -144 72t-51 132q0 42 16 76.5t45 58.5t69.5 37t89.5 13q57 0 93.5 -17.5t51.5 -48.5h6v54h72v-195
h-72v46q0 25 -7.5 45t-25.5 34t-47 21.5t-71 7.5q-70 0 -105 -32t-35 -84q0 -54 31.5 -84.5t99.5 -48.5l51 -13q91 -24 140 -72t49 -126q0 -45 -15 -83.5t-44 -66.5t-71.5 -43.5t-97.5 -15.5zM244 -246q19 20 32.5 43.5t20.5 44.5q-27 0 -41.5 14t-14.5 36v4q0 21 14.5 35
t40.5 14q24 0 38 -15t14 -36v-7q0 -32 -18 -69t-47 -64h-39v0z" />
    <glyph glyph-name="scommaaccent" unicode="&#x219;" horiz-adv-x="488" 
d="M252 -12q-47 0 -82 19.5t-46 43.5h-4v-51h-60v155h60v-21q0 -43 27 -70t89 -27q57 0 88.5 20.5t31.5 65.5q0 70 -85 89l-60 13q-74 16 -111.5 54t-37.5 104q0 68 47 106.5t126 38.5q48 0 78.5 -15t40.5 -39h4v42h60v-155h-60v38q0 80 -112 80q-51 0 -79.5 -19.5
t-28.5 -61.5q0 -35 23 -58.5t63 -32.5l56 -12q77 -16 115.5 -53t38.5 -103q0 -32 -12.5 -59.5t-36 -48t-57 -32t-76.5 -11.5zM202 -246q19 20 32.5 43.5t20.5 44.5q-27 0 -41.5 14t-14.5 36v4q0 21 14.5 35t40.5 14q24 0 38 -15t14 -36v-7q0 -32 -18 -69t-47 -64h-39v0z" />
    <glyph glyph-name="uni021A" unicode="&#x21a;" horiz-adv-x="652" 
d="M188 46h95v603h-176v-119h-72v168h582v-168h-72v119h-176v-603h95v-46h-276v46zM276 -246q19 20 32.5 43.5t20.5 44.5q-27 0 -41.5 14t-14.5 36v4q0 21 14.5 35t40.5 14q24 0 38 -15t14 -36v-7q0 -32 -18 -69t-47 -64h-39v0z" />
    <glyph glyph-name="uni021B" unicode="&#x21b;" horiz-adv-x="353" 
d="M202 -6q-53 0 -73 21.5t-20 73.5v378h-66v49h9q21 0 33.5 3t20 8.5t11 14t6.5 19.5l23 89h45v-134h133v-49h-133v-418h133v-33q-9 -5 -22.5 -9t-30 -7t-34.5 -4.5t-35 -1.5zM165 -246q19 20 32.5 43.5t20.5 44.5q-27 0 -41.5 14t-14.5 36v4q0 21 14.5 35t40.5 14
q24 0 38 -15t14 -36v-7q0 -32 -18 -69t-47 -64h-39v0z" />
    <glyph glyph-name="uni0237" unicode="&#x237;" horiz-adv-x="302" 
d="M58 -212q-50 0 -74 22t-24 56q0 22 13 37t36 15q22 0 33.5 -13t11.5 -34q0 -14 -6.5 -25.5t-15.5 -14.5v-3q9 -4 26 -4q62 0 62 80v547l-74 13v34l156 30v-580q0 -81 -38 -120.5t-106 -39.5z" />
    <glyph glyph-name="uni0259" unicode="&#x259;" horiz-adv-x="536" 
d="M261 -12q-51 0 -91 18t-67.5 50.5t-42.5 77.5t-15 98v23h355v26q0 85 -42.5 134t-113.5 49q-62 0 -98.5 -25.5t-57.5 -66.5l-33 21q10 26 27.5 50.5t42.5 43t58 30t74 11.5q55 0 98.5 -19.5t73.5 -54.5t46 -85t16 -111q0 -60 -17.5 -109.5t-48 -85.5t-73 -55.5
t-91.5 -19.5zM261 35q34 0 60 12t43.5 34t26.5 51.5t9 64.5v12h-269v-10q0 -35 7.5 -65t23.5 -52t40.5 -34.5t58.5 -12.5z" />
    <glyph glyph-name="uni02BB" unicode="&#x2bb;" 
d="M300 586q-24 0 -38 15t-14 36v7q0 32 18 69t47 64h39q-19 -20 -32.5 -43.5t-20.5 -44.5q27 0 41.5 -14t14.5 -36v-4q0 -21 -14.5 -35t-40.5 -14z" />
    <glyph glyph-name="uni02BC" unicode="&#x2bc;" 
d="M315 748h81l-65 -184h-28z" />
    <glyph glyph-name="circumflex" unicode="&#x2c6;" 
d="M149 614l123 149h56l123 -149l-24 -16l-127 97l-127 -97z" />
    <glyph glyph-name="caron" unicode="&#x2c7;" 
d="M149 751l24 16l127 -97l127 97l24 -16l-123 -149h-56z" />
    <glyph glyph-name="breve" unicode="&#x2d8;" 
d="M300 598q-36 0 -59.5 12.5t-39 32t-25 43t-17.5 46.5l27 14l21 -38q12 -23 32 -34.5t61 -11.5t61 11.5t32 34.5l21 38l27 -14q-8 -23 -17.5 -46.5t-25 -43t-39 -32t-59.5 -12.5z" />
    <glyph glyph-name="dotaccent" unicode="&#x2d9;" 
d="M300 619q-23 0 -36.5 14.5t-13.5 34.5v3q0 20 13.5 34.5t36.5 14.5t36.5 -14.5t13.5 -34.5v-3q0 -20 -13.5 -34.5t-36.5 -14.5z" />
    <glyph glyph-name="ring" unicode="&#x2da;" 
d="M300 613q28 0 43.5 16.5t15.5 46.5v30q0 30 -15.5 46.5t-43.5 16.5t-43.5 -16.5t-15.5 -46.5v-30q0 -30 15.5 -46.5t43.5 -16.5zM300 579q-25 0 -46.5 8.5t-37 23.5t-24.5 35.5t-9 44.5t9 44.5t24.5 35.5t37 23.5t46.5 8.5t46 -8.5t37 -23.5t25 -35.5t9 -44.5t-9 -44.5
t-25 -35.5t-37 -23.5t-46 -8.5z" />
    <glyph glyph-name="ogonek" unicode="&#x2db;" 
d="M245 -206q-38 0 -65.5 18t-27.5 56q0 39 31.5 69.5t82.5 66.5l-5 17h31l8 -21q-28 -25 -44 -44t-23.5 -33.5t-9.5 -26t-2 -20.5q0 -20 12.5 -33t33.5 -13q14 0 25 6t19 16l21 -20q-10 -16 -31.5 -27t-55.5 -11z" />
    <glyph glyph-name="tilde" unicode="&#x2dc;" 
d="M361 618q-19 0 -36.5 8.5t-35.5 18.5q-18 9 -38 18.5t-35 9.5t-24.5 -7t-28.5 -26l-19 20q25 31 44.5 49.5t50.5 18.5q19 0 36.5 -8.5t35.5 -18.5q18 -9 38 -18.5t35 -9.5t24.5 7t28.5 26l19 -20q-25 -31 -44.5 -49.5t-50.5 -18.5z" />
    <glyph glyph-name="hungarumlaut" unicode="&#x2dd;" 
d="M188 599l76 177l77 -38l-126 -153zM348 599l76 177l77 -38l-126 -153z" />
    <glyph glyph-name="uni0300" unicode="&#x300;" horiz-adv-x="0" 
d="M-118 738l77 38l76 -177l-27 -14z" />
    <glyph glyph-name="uni0301" unicode="&#x301;" horiz-adv-x="0" 
d="M-33 599l76 177l77 -38l-126 -153z" />
    <glyph glyph-name="uni0302" unicode="&#x302;" horiz-adv-x="0" 
d="M-150 614l123 149h56l123 -149l-24 -16l-127 97l-127 -97z" />
    <glyph glyph-name="uni0303" unicode="&#x303;" horiz-adv-x="0" 
d="M62 618q-19 0 -36.5 8.5t-35.5 18.5q-18 9 -38 18.5t-35 9.5t-24.5 -7t-28.5 -26l-19 20q25 31 44.5 49.5t50.5 18.5q19 0 36.5 -8.5t35.5 -18.5q18 -9 38 -18.5t35 -9.5t24.5 7t28.5 26l19 -20q-25 -31 -44.5 -49.5t-50.5 -18.5z" />
    <glyph glyph-name="uni0304" unicode="&#x304;" horiz-adv-x="0" 
d="M-138 699h278v-57h-278v57z" />
    <glyph glyph-name="uni0306" unicode="&#x306;" horiz-adv-x="0" 
d="M1 598q-36 0 -59.5 12.5t-39 32t-25 43t-17.5 46.5l27 14l21 -38q12 -23 32 -34.5t61 -11.5t61 11.5t32 34.5l21 38l27 -14q-8 -23 -17.5 -46.5t-25 -43t-39 -32t-59.5 -12.5z" />
    <glyph glyph-name="uni0307" unicode="&#x307;" horiz-adv-x="0" 
d="M1 619q-23 0 -36.5 14.5t-13.5 34.5v3q0 20 13.5 34.5t36.5 14.5t36.5 -14.5t13.5 -34.5v-3q0 -20 -13.5 -34.5t-36.5 -14.5z" />
    <glyph glyph-name="uni0308" unicode="&#x308;" horiz-adv-x="0" 
d="M-90 619q-23 0 -36.5 14.5t-13.5 34.5v3q0 20 13.5 34.5t36.5 14.5t36.5 -14.5t13.5 -34.5v-3q0 -20 -13.5 -34.5t-36.5 -14.5zM92 619q-23 0 -36.5 14.5t-13.5 34.5v3q0 20 13.5 34.5t36.5 14.5t36.5 -14.5t13.5 -34.5v-3q0 -20 -13.5 -34.5t-36.5 -14.5z" />
    <glyph glyph-name="uni0309" unicode="&#x309;" horiz-adv-x="0" 
d="M-14 592l54 108h-123v62h106q35 0 50 -15t15 -36q0 -20 -12 -44.5t-35 -54.5l-27 -34z" />
    <glyph glyph-name="uni030A" unicode="&#x30a;" horiz-adv-x="0" 
d="M1 613q28 0 43.5 16.5t15.5 46.5v30q0 30 -15.5 46.5t-43.5 16.5t-43.5 -16.5t-15.5 -46.5v-30q0 -30 15.5 -46.5t43.5 -16.5zM1 579q-25 0 -46.5 8.5t-37 23.5t-24.5 35.5t-9 44.5t9 44.5t24.5 35.5t37 23.5t46.5 8.5t46 -8.5t37 -23.5t25 -35.5t9 -44.5t-9 -44.5
t-25 -35.5t-37 -23.5t-46 -8.5z" />
    <glyph glyph-name="uni030B" unicode="&#x30b;" horiz-adv-x="0" 
d="M-111 599l76 177l77 -38l-126 -153zM49 599l76 177l77 -38l-126 -153z" />
    <glyph glyph-name="uni030C" unicode="&#x30c;" horiz-adv-x="0" 
d="M-150 751l24 16l127 -97l127 97l24 -16l-123 -149h-56z" />
    <glyph glyph-name="uni0312" unicode="&#x312;" horiz-adv-x="0" 
d="M1 586q-24 0 -38 15t-14 36v7q0 32 18 69t47 64h39q-19 -20 -32.5 -43.5t-20.5 -44.5q27 0 41.5 -14t14.5 -36v-4q0 -21 -14.5 -35t-40.5 -14z" />
    <glyph glyph-name="uni0315" unicode="&#x315;" horiz-adv-x="0" 
d="M23 748h81l-65 -184h-28z" />
    <glyph glyph-name="uni031B" unicode="&#x31b;" horiz-adv-x="0" 
d="M-89 515h90v112h76v-87q0 -26 -16.5 -42.5t-51.5 -16.5h-98v34z" />
    <glyph glyph-name="uni0323" unicode="&#x323;" horiz-adv-x="0" 
d="M0 -162q-23 0 -36.5 14.5t-13.5 34.5v3q0 20 13.5 34.5t36.5 14.5t36.5 -14.5t13.5 -34.5v-3q0 -20 -13.5 -34.5t-36.5 -14.5z" />
    <glyph glyph-name="uni0326" unicode="&#x326;" horiz-adv-x="0" 
d="M-50 -246q19 20 32.5 43.5t20.5 44.5q-27 0 -41.5 14t-14.5 36v4q0 21 14.5 35t40.5 14q24 0 38 -15t14 -36v-7q0 -32 -18 -69t-47 -64h-39v0z" />
    <glyph glyph-name="uni0327" unicode="&#x327;" horiz-adv-x="0" 
d="M13 -206q-36 0 -56.5 13t-31.5 26l20 21q10 -11 24 -17.5t34 -6.5q24 0 38.5 10.5t14.5 31.5q0 16 -11.5 29.5t-49.5 17.5l-28 3l19 96h38l-16 -80l3 -3q20 5 36 5q32 0 53 -16.5t21 -48.5q0 -21 -8.5 -36t-23.5 -25t-34.5 -15t-41.5 -5z" />
    <glyph glyph-name="uni0328" unicode="&#x328;" horiz-adv-x="0" 
d="M-54 -206q-38 0 -65.5 18t-27.5 56q0 39 31.5 69.5t82.5 66.5l-5 17h31l8 -21q-28 -25 -44 -44t-23.5 -33.5t-9.5 -26t-2 -20.5q0 -20 12.5 -33t33.5 -13q14 0 25 6t19 16l21 -20q-10 -16 -31.5 -27t-55.5 -11z" />
    <glyph glyph-name="pi" unicode="&#x3c0;" horiz-adv-x="613" 
d="M501 -9q-53 0 -73 21t-20 73v382h-213v-467h-82v467h-93v49h563v-49h-93v-421h93v-34q-16 -8 -36 -14.5t-46 -6.5z" />
    <glyph glyph-name="uni0400" unicode="&#x400;" horiz-adv-x="641" 
d="M55 46h75v606h-75v46h516v-168h-72v119h-283v-265h198v80h60v-209h-60v80h-198v-286h293v128h72v-177h-526v46zM216 914l77 38l76 -177l-27 -14z" />
    <glyph glyph-name="uni0401" unicode="&#x401;" horiz-adv-x="641" 
d="M55 46h75v606h-75v46h516v-168h-72v119h-283v-265h198v80h60v-209h-60v80h-198v-286h293v128h72v-177h-526v46zM244 791q-23 0 -36.5 14.5t-13.5 34.5v3q0 20 13.5 34.5t36.5 14.5t36.5 -14.5t13.5 -34.5v-3q0 -20 -13.5 -34.5t-36.5 -14.5zM426 791q-23 0 -36.5 14.5
t-13.5 34.5v3q0 20 13.5 34.5t36.5 14.5t36.5 -14.5t13.5 -34.5v-3q0 -20 -13.5 -34.5t-36.5 -14.5z" />
    <glyph glyph-name="uni0402" unicode="&#x402;" horiz-adv-x="807" 
d="M515 -115h106q9 9 17.5 19.5t14.5 24.5t9.5 33.5t3.5 45.5v189q0 48 -7.5 81.5t-25 54t-46.5 30t-72 9.5q-46 0 -81 -10t-65 -28v-288h75v-46h-236v46h75v603h-176v-119h-72v168h582v-168h-72v119h-176v-265h4q35 19 74 28t90 9q60 0 101 -13.5t66.5 -40.5t36.5 -68.5
t11 -98.5v-197q0 -45 -13 -77t-34 -52t-47 -29t-52 -9h-91v49z" />
    <glyph glyph-name="uni0403" unicode="&#x403;" horiz-adv-x="560" 
d="M55 46h75v606h-75v46h470v-168h-72v119h-237v-603h95v-46h-256v46zM276 775l76 177l77 -38l-126 -153z" />
    <glyph glyph-name="uni0404" unicode="&#x404;" horiz-adv-x="649" 
d="M357 -12q-72 0 -129 25t-96.5 72t-60.5 114t-21 150q0 87 21 154t58.5 113t90.5 70t117 24q62 0 103.5 -21t63.5 -54h4v63h71v-213h-71v61q0 25 -11.5 46t-33 36.5t-51 24.5t-65.5 9q-51 0 -88.5 -18.5t-62.5 -51t-37 -77.5t-12 -98v-37h290v-49h-290v-38q0 -55 14 -102
t42 -81.5t69.5 -54t96.5 -19.5q51 0 86 8t54 21v2q-12 5 -24 21t-12 37q0 27 16.5 44.5t43.5 17.5q26 0 43 -18t17 -48q0 -24 -15 -48t-45 -43t-74 -30.5t-102 -11.5z" />
    <glyph glyph-name="uni0405" unicode="&#x405;" horiz-adv-x="588" 
d="M295 -12q-63 0 -102.5 19.5t-55.5 52.5h-5v-60h-72v205h72v-46q0 -25 7.5 -46.5t25 -37.5t46 -25t69.5 -9q87 0 125.5 37t38.5 99q0 53 -29.5 83t-92.5 47l-55 14q-93 24 -144 72t-51 132q0 42 16 76.5t45 58.5t69.5 37t89.5 13q57 0 93.5 -17.5t51.5 -48.5h6v54h72v-195
h-72v46q0 25 -7.5 45t-25.5 34t-47 21.5t-71 7.5q-70 0 -105 -32t-35 -84q0 -54 31.5 -84.5t99.5 -48.5l51 -13q91 -24 140 -72t49 -126q0 -45 -15 -83.5t-44 -66.5t-71.5 -43.5t-97.5 -15.5z" />
    <glyph glyph-name="uni0406" unicode="&#x406;" horiz-adv-x="347" 
d="M55 46h75v606h-75v46h236v-46h-75v-606h75v-46h-236v46z" />
    <glyph glyph-name="uni0407" unicode="&#x407;" horiz-adv-x="347" 
d="M55 46h75v606h-75v46h236v-46h-75v-606h75v-46h-236v46zM83 791q-23 0 -36.5 14.5t-13.5 34.5v3q0 20 13.5 34.5t36.5 14.5t36.5 -14.5t13.5 -34.5v-3q0 -20 -13.5 -34.5t-36.5 -14.5zM265 791q-23 0 -36.5 14.5t-13.5 34.5v3q0 20 13.5 34.5t36.5 14.5t36.5 -14.5
t13.5 -34.5v-3q0 -20 -13.5 -34.5t-36.5 -14.5z" />
    <glyph glyph-name="uni0408" unicode="&#x408;" horiz-adv-x="458" 
d="M153 -12q-69 0 -103.5 27t-34.5 69q0 28 16 46.5t45 18.5q25 0 39 -16t14 -42q0 -20 -10 -32.5t-21 -16.5v-3q10 -3 24 -5t31 -2q98 0 98 119v501h-95v46h256v-46h-75v-493q0 -86 -48.5 -128.5t-135.5 -42.5z" />
    <glyph glyph-name="uni0409" unicode="&#x409;" horiz-adv-x="935" 
d="M113 -12q-50 0 -76.5 27t-26.5 65q0 32 15.5 51t43.5 19q26 0 40.5 -16t14.5 -41q0 -19 -10 -32.5t-21 -17.5v-4q6 -3 18 -3t24 5t23 16q15 15 26.5 43t19.5 83t12 142.5t4 221.5v105h-75v46h470v-46h-75v-245h149q97 0 149.5 -51.5t52.5 -151.5q0 -101 -52.5 -152.5
t-149.5 -51.5h-310v46h75v603h-173v-97q0 -133 -4 -224t-13.5 -151.5t-24.5 -96t-36 -57.5q-20 -19 -43.5 -27t-46.5 -8zM685 49q56 0 85 34.5t29 88.5v63q0 54 -29 88.5t-85 34.5h-145v-309h145z" />
    <glyph glyph-name="uni040A" unicode="&#x40a;" horiz-adv-x="1017" 
d="M55 46h75v606h-75v46h236v-46h-75v-272h320v272h-75v46h236v-46h-75v-245h149q97 0 149.5 -51.5t52.5 -151.5q0 -101 -52.5 -152.5t-149.5 -51.5h-310v46h75v285h-320v-285h75v-46h-236v46zM767 49q56 0 85 34.5t29 89.5v62q0 54 -29 88.5t-85 34.5h-145v-309h145z" />
    <glyph glyph-name="uni040B" unicode="&#x40b;" horiz-adv-x="891" 
d="M208 46h75v603h-176v-119h-72v168h582v-168h-72v119h-176v-265h4q35 18 73 27.5t93 9.5q61 0 103.5 -13t69 -40t38 -68.5t11.5 -99.5v-154h75v-46h-236v46h75v150q0 49 -8 82.5t-26 54.5t-47.5 30t-71.5 9q-49 0 -88 -10.5t-65 -27.5v-288h75v-46h-236v46z" />
    <glyph glyph-name="uni040C" unicode="&#x40c;" horiz-adv-x="687" 
d="M55 46h75v606h-75v46h236v-46h-75v-273h99l99 195q20 40 38 66t35.5 41.5t36.5 22t40 6.5q36 0 55.5 -20.5t19.5 -50.5q0 -27 -15 -46t-44 -19q-26 0 -42 17t-16 46h-3q-13 -17 -28 -41t-26 -47l-95 -188q17 -3 31 -12.5t30 -33.5l175 -269h69v-46h-144l-215 331h-100
v-285h75v-46h-236v46zM340 775l76 177l77 -38l-126 -153z" />
    <glyph glyph-name="uni040D" unicode="&#x40d;" horiz-adv-x="787" 
d="M55 46h75v606h-75v46h234v-46h-75v-312l-10 -191h3l366 478v25h-75v46h234v-46h-75v-606h75v-46h-234v46h75v312l10 191h-3l-366 -478v-25h75v-46h-234v46zM275 914l77 38l76 -177l-27 -14z" />
    <glyph glyph-name="uni040E" unicode="&#x40e;" horiz-adv-x="649" 
d="M218 -12q-58 0 -91 27t-33 69q0 28 16 46.5t44 18.5q26 0 40 -16t14 -42q0 -20 -10.5 -32.5t-21.5 -16.5v-3q9 -3 19 -5t21 -2q18 0 32.5 4t27 14.5t24.5 29.5t24 48l15 37l-267 487h-57v46h244v-46h-89l135 -246l73 -137h3l54 136l98 247h-87v46h203v-46h-57l-217 -537
q-29 -72 -66 -99.5t-91 -27.5zM353 770q-42 0 -71.5 9.5t-49 24.5t-28.5 34.5t-9 40.5q0 26 14 39.5t37 13.5t36 -13t13 -37q0 -20 -11 -31.5t-25 -16.5v-2q17 -9 41 -13t53 -4t53 4t41 13v2q-14 5 -25 16.5t-11 31.5q0 24 13 37t36 13t37 -13.5t14 -39.5q0 -21 -9 -40.5
t-28.5 -34.5t-49 -24.5t-71.5 -9.5z" />
    <glyph glyph-name="uni040F" unicode="&#x40f;" horiz-adv-x="768" 
d="M345 0h-290v46h75v606h-75v46h236v-46h-75v-603h336v603h-75v46h236v-46h-75v-606h75v-46h-290v-160h-78v160z" />
    <glyph glyph-name="uni0410" unicode="&#x410;" horiz-adv-x="686" 
d="M16 46h53l227 652h95l226 -652h53v-46h-236v46h90l-62 181h-272l-62 -181h90v-46h-202v46zM204 275h243l-117 350h-6z" />
    <glyph glyph-name="uni0411" unicode="&#x411;" horiz-adv-x="620" 
d="M55 46h75v606h-75v46h463v-168h-72v119h-230v-251h148q97 0 149.5 -50.5t52.5 -147.5q0 -98 -52.5 -149t-149.5 -51h-309v46zM360 49q56 0 85 34t29 89v54q0 55 -29 89t-85 34h-144v-300h144z" />
    <glyph glyph-name="uni0412" unicode="&#x412;" horiz-adv-x="670" 
d="M55 46h75v606h-75v46h334q88 0 137.5 -45t49.5 -120q0 -37 -11 -66t-29.5 -50t-42 -34t-48.5 -17v-3q26 -2 54 -13t51 -32t38 -52t15 -72q0 -44 -13.5 -80t-38 -61.5t-58.5 -39t-74 -13.5h-364v46zM216 49h172q58 0 90.5 34t32.5 88v44q0 53 -32.5 87t-90.5 34h-172v-287
zM216 385h156q54 0 83 31t29 79v44q0 48 -29 79t-83 31h-156v-264z" />
    <glyph glyph-name="uni0413" unicode="&#x413;" horiz-adv-x="560" 
d="M55 46h75v606h-75v46h470v-168h-72v119h-237v-603h95v-46h-256v46z" />
    <glyph glyph-name="uni0414" unicode="&#x414;" horiz-adv-x="690" 
d="M5 49h75q61 85 99 222.5t38 331.5v49h-75v46h480v-46h-75v-603h103v-209h-78v160h-489v-160h-78v209zM461 49v600h-183v-46q0 -87 -8.5 -167.5t-24.5 -151.5t-40 -130.5t-55 -104.5h311z" />
    <glyph glyph-name="uni0415" unicode="&#x415;" horiz-adv-x="641" 
d="M55 46h75v606h-75v46h516v-168h-72v119h-283v-265h198v80h60v-209h-60v80h-198v-286h293v128h72v-177h-526v46z" />
    <glyph glyph-name="uni0416" unicode="&#x416;" horiz-adv-x="983" 
d="M12 46h69l164 267q17 26 30 35.5t28 12.5l-81 184q-14 31 -28 54.5t-27 37.5h-3q0 -28 -16 -45t-42 -17q-28 0 -42.5 19.5t-14.5 45.5q0 28 18 49t54 21q47 0 82.5 -32t70.5 -112l83 -187h92v273h-75v46h235v-46h-75v-273h92l83 187q35 79 70.5 111.5t82.5 32.5
q36 0 54 -21t18 -49q0 -26 -14.5 -45.5t-43.5 -19.5q-26 0 -42 17t-16 45h-3q-12 -14 -26.5 -37.5t-28.5 -54.5l-81 -184q16 -3 29 -12.5t30 -35.5l164 -267h69v-46h-142l-203 331h-92v-285h75v-46h-235v46h75v285h-92l-204 -331h-141v46z" />
    <glyph glyph-name="uni0417" unicode="&#x417;" horiz-adv-x="604" 
d="M282 -12q-53 0 -94.5 11.5t-70 30.5t-43.5 42.5t-15 47.5q0 30 16.5 48.5t43.5 18.5t43 -17.5t16 -44.5q0 -22 -11.5 -38t-23.5 -21v-2q17 -11 49.5 -19t77.5 -8q85 0 129 38t44 101v30q0 59 -32.5 92t-95.5 33h-114v49h107q54 0 88 33.5t34 89.5v36q0 53 -32.5 87.5
t-99.5 34.5q-34 0 -62 -8.5t-48.5 -24t-31.5 -36.5t-11 -45v-62h-72v213h72v-62h4q21 32 61.5 53t106.5 21q49 0 87.5 -13t65 -36.5t40.5 -56t14 -71.5q0 -36 -10.5 -65t-29.5 -50.5t-44 -35.5t-55 -20v-4q29 -5 56.5 -16t48.5 -31t34 -49.5t13 -70.5q0 -45 -18.5 -82.5
t-52 -64.5t-80.5 -41.5t-104 -14.5z" />
    <glyph glyph-name="uni0418" unicode="&#x418;" horiz-adv-x="787" 
d="M55 46h75v606h-75v46h234v-46h-75v-312l-10 -191h3l366 478v25h-75v46h234v-46h-75v-606h75v-46h-234v46h75v312l10 191h-3l-366 -478v-25h75v-46h-234v46z" />
    <glyph glyph-name="uni0419" unicode="&#x419;" horiz-adv-x="787" 
d="M55 46h75v606h-75v46h234v-46h-75v-312l-10 -191h3l366 478v25h-75v46h234v-46h-75v-606h75v-46h-234v46h75v312l10 191h-3l-366 -478v-25h75v-46h-234v46zM394 770q-42 0 -71.5 9.5t-49 24.5t-28.5 34.5t-9 40.5q0 26 14 39.5t37 13.5t36 -13t13 -37q0 -20 -11 -31.5
t-25 -16.5v-2q17 -9 41 -13t53 -4t53 4t41 13v2q-14 5 -25 16.5t-11 31.5q0 24 13 37t36 13t37 -13.5t14 -39.5q0 -21 -9 -40.5t-28.5 -34.5t-49 -24.5t-71.5 -9.5z" />
    <glyph glyph-name="uni041A" unicode="&#x41a;" horiz-adv-x="687" 
d="M55 46h75v606h-75v46h236v-46h-75v-273h99l99 195q20 40 38 66t35.5 41.5t36.5 22t40 6.5q36 0 55.5 -20.5t19.5 -50.5q0 -27 -15 -46t-44 -19q-26 0 -42 17t-16 46h-3q-13 -17 -28 -41t-26 -47l-95 -188q17 -3 31 -12.5t30 -33.5l175 -269h69v-46h-144l-215 331h-100
v-285h75v-46h-236v46z" />
    <glyph glyph-name="uni041B" unicode="&#x41b;" horiz-adv-x="681" 
d="M113 -12q-50 0 -76.5 27t-26.5 65q0 32 15.5 51t43.5 19q26 0 40.5 -16t14.5 -41q0 -19 -10 -32.5t-21 -17.5v-4q6 -3 18 -3t24 5t23 16q15 15 26.5 43t19.5 83t12 142.5t4 221.5v105h-75v46h481v-46h-75v-606h75v-46h-236v46h75v603h-184v-97q0 -133 -4 -224
t-13.5 -151.5t-24.5 -96t-36 -57.5q-20 -19 -43.5 -27t-46.5 -8z" />
    <glyph glyph-name="uni041C" unicode="&#x41c;" horiz-adv-x="873" 
d="M55 46h75v606h-75v46h176l204 -432h3l214 432h165v-46h-75v-606h75v-46h-236v46h75v551h-4l-44 -97l-192 -383l-171 358l-56 122h-4v-551h75v-46h-205v46z" />
    <glyph glyph-name="uni041D" unicode="&#x41d;" horiz-adv-x="788" 
d="M55 46h75v606h-75v46h236v-46h-75v-272h355v272h-75v46h236v-46h-75v-606h75v-46h-236v46h75v285h-355v-285h75v-46h-236v46z" />
    <glyph glyph-name="uni041E" unicode="&#x41e;" horiz-adv-x="717" 
d="M358 41q51 0 90.5 18.5t66.5 52t41 79.5t14 101v114q0 55 -14 101t-41 79.5t-66.5 52t-90.5 18.5t-90.5 -18.5t-66.5 -52t-41 -79.5t-14 -101v-114q0 -55 14 -101t41 -79.5t66.5 -52t90.5 -18.5zM358 -12q-69 0 -126 25t-97.5 72t-62.5 113.5t-22 150.5t22 150.5
t62.5 113.5t97.5 72t126 25t126 -25t97.5 -72t62.5 -113.5t22 -150.5t-22 -150.5t-62.5 -113.5t-97.5 -72t-126 -25z" />
    <glyph glyph-name="uni041F" unicode="&#x41f;" horiz-adv-x="787" 
d="M55 46h75v606h-75v46h677v-46h-75v-606h75v-46h-236v46h75v603h-355v-603h75v-46h-236v46z" />
    <glyph glyph-name="uni0420" unicode="&#x420;" horiz-adv-x="625" 
d="M55 46h75v606h-75v46h326q95 0 145.5 -47.5t50.5 -139.5q0 -91 -52 -141t-146 -50h-163v-274h95v-46h-256v46zM216 369h158q54 0 82.5 34t28.5 83v46q0 49 -28.5 83t-82.5 34h-158v-280z" />
    <glyph glyph-name="uni0421" unicode="&#x421;" horiz-adv-x="649" 
d="M342 -12q-66 0 -120 25t-92 72t-59 114t-21 150q0 87 21 154t58.5 113t90.5 70t117 24q65 0 108.5 -21.5t57.5 -53.5h4v63h72v-204h-72v52q0 50 -44 80.5t-115 30.5q-53 0 -91.5 -19.5t-63 -53t-36 -78t-11.5 -93.5v-121q0 -55 14.5 -99t42 -75.5t67.5 -48.5t91 -17
q71 0 119 37t70 94l39 -19q-9 -29 -29 -60t-50.5 -57t-72.5 -42.5t-95 -16.5z" />
    <glyph glyph-name="uni0422" unicode="&#x422;" horiz-adv-x="652" 
d="M188 46h95v603h-176v-119h-72v168h582v-168h-72v119h-176v-603h95v-46h-276v46z" />
    <glyph glyph-name="uni0423" unicode="&#x423;" horiz-adv-x="649" 
d="M218 -12q-58 0 -91 27t-33 69q0 28 16 46.5t44 18.5q26 0 40 -16t14 -42q0 -20 -10.5 -32.5t-21.5 -16.5v-3q9 -3 19 -5t21 -2q18 0 32.5 4t27 14.5t24.5 29.5t24 48l15 37l-267 487h-57v46h244v-46h-89l135 -246l73 -137h3l54 136l98 247h-87v46h203v-46h-57l-217 -537
q-29 -72 -66 -99.5t-91 -27.5z" />
    <glyph glyph-name="uni0424" unicode="&#x424;" horiz-adv-x="826" 
d="M295 34h75v82h-54q-127 0 -199 60.5t-72 176.5t72 176.5t199 60.5h54v74h-75v46h236v-46h-75v-74h54q127 0 199 -60.5t72 -176.5t-72 -176.5t-199 -60.5h-54v-82h75v-46h-236v46zM370 165v376h-49q-82 0 -133.5 -38t-51.5 -115v-70q0 -77 51.5 -115t133.5 -38h49z
M505 165q82 0 133.5 38t51.5 115v70q0 77 -51.5 115t-133.5 38h-49v-376h49z" />
    <glyph glyph-name="uni0425" unicode="&#x425;" horiz-adv-x="669" 
d="M18 46h60l211 294l-206 312h-60v46h238v-46h-74l159 -247h4l166 247h-66v46h194v-46h-60l-206 -289l211 -317h60v-46h-239v46h74l-162 251h-4l-170 -251h66v-46h-196v46z" />
    <glyph glyph-name="uni0426" unicode="&#x426;" horiz-adv-x="780" 
d="M662 0h-607v46h75v606h-75v46h236v-46h-75v-603h335v603h-75v46h236v-46h-75v-602h103v-210h-78v160z" />
    <glyph glyph-name="uni0427" unicode="&#x427;" horiz-adv-x="718" 
d="M407 46h95v257h-4q-35 -18 -73 -27.5t-93 -9.5q-62 0 -104 13t-68.5 40t-38 68.5t-11.5 99.5v165h-75v46h236v-46h-75v-162q0 -49 8 -82.5t26 -54t47.5 -29.5t71.5 -9q49 0 88 10.5t65 27.5v299h-75v46h236v-46h-75v-606h75v-46h-256v46z" />
    <glyph glyph-name="uni0428" unicode="&#x428;" horiz-adv-x="1008" 
d="M55 46h75v606h-75v46h236v-46h-75v-603h245v603h-75v46h236v-46h-75v-603h245v603h-75v46h236v-46h-75v-606h75v-46h-898v46z" />
    <glyph glyph-name="uni0429" unicode="&#x429;" horiz-adv-x="1021" 
d="M902 0h-847v46h75v606h-75v46h236v-46h-75v-603h245v603h-75v46h236v-46h-75v-603h245v603h-75v46h236v-46h-75v-603h103v-209h-79v160z" />
    <glyph glyph-name="uni042A" unicode="&#x42a;" horiz-adv-x="746" 
d="M180 46h75v603h-148v-119h-72v168h381v-46h-75v-245h159q97 0 149.5 -51.5t52.5 -151.5q0 -101 -52.5 -152.5t-149.5 -51.5h-320v46zM495 49q57 0 86 34.5t29 89.5v62q0 54 -29 88.5t-86 34.5h-154v-309h154z" />
    <glyph glyph-name="uni042B" unicode="&#x42b;" horiz-adv-x="911" 
d="M55 46h75v606h-75v46h236v-46h-75v-245h149q97 0 149.5 -51.5t52.5 -151.5q0 -101 -52.5 -152.5t-149.5 -51.5h-310v46zM620 46h75v606h-75v46h236v-46h-75v-606h75v-46h-236v46zM361 49q57 0 85.5 34.5t28.5 89.5v62q0 54 -28.5 88.5t-85.5 34.5h-145v-309h145z" />
    <glyph glyph-name="uni042C" unicode="&#x42c;" horiz-adv-x="621" 
d="M55 46h75v606h-75v46h236v-46h-75v-245h159q97 0 149.5 -51.5t52.5 -151.5q0 -101 -52.5 -152.5t-149.5 -51.5h-320v46zM371 49q56 0 85 34.5t29 88.5v63q0 54 -29 88.5t-85 34.5h-155v-309h155z" />
    <glyph glyph-name="uni042D" unicode="&#x42d;" horiz-adv-x="651" 
d="M292 -12q-56 0 -99.5 11.5t-73 30.5t-45 43t-15.5 48q0 30 16.5 48t43.5 18q26 0 42.5 -17.5t16.5 -44.5q0 -21 -11.5 -37t-24.5 -21v-2q19 -13 54 -21t86 -8q55 0 96.5 19.5t69.5 54t42 81.5t14 102v37h-290v49h290v38q0 53 -12 98t-36.5 77.5t-62.5 51t-89 18.5
q-72 0 -115.5 -33t-43.5 -83v-61h-72v213h72v-63h3q22 33 63.5 54t108.5 21q62 0 114 -24t89 -70.5t57.5 -113.5t20.5 -153q0 -84 -21 -150.5t-61 -113.5t-97 -72t-130 -25z" />
    <glyph glyph-name="uni042E" unicode="&#x42e;" horiz-adv-x="987" 
d="M643 -12q-66 0 -118.5 23t-89.5 67t-57.5 108t-22.5 146h-139v-286h75v-46h-236v46h75v606h-75v46h236v-46h-75v-272h140q7 158 82 244t205 86q68 0 121.5 -24.5t91 -70.5t57 -113.5t19.5 -152.5q0 -86 -19.5 -153t-57 -113t-91 -70.5t-121.5 -24.5zM643 41q50 0 86.5 18
t60 50.5t35 78t11.5 99.5v124q0 54 -11.5 99.5t-35 78t-60 50.5t-86.5 18t-86 -18t-59.5 -50.5t-35 -78t-11.5 -99.5v-124q0 -54 11.5 -99.5t35 -78t59.5 -50.5t86 -18z" />
    <glyph glyph-name="uni042F" unicode="&#x42f;" horiz-adv-x="668" 
d="M14 46h69l140 225q16 26 30.5 38.5t31.5 16.5v4q-104 5 -149 50t-45 127q0 88 52 139.5t146 51.5h324v-46h-75v-606h75v-46h-236v46h75v275h-97l-200 -321h-141v46zM452 649h-157q-54 0 -83 -33.5t-29 -82.5v-47q0 -49 29 -82.5t83 -33.5h157v279z" />
    <glyph glyph-name="uni0430" unicode="&#x430;" horiz-adv-x="546" 
d="M203 -12q-72 0 -112.5 37.5t-40.5 102.5q0 37 12 65.5t39.5 47.5t71.5 29t107 10h74v76q0 61 -29.5 93.5t-88.5 32.5q-26 0 -48 -4.5t-36 -12.5v-2q11 -6 21.5 -18t10.5 -34q0 -26 -15 -40.5t-40 -14.5q-24 0 -39.5 14.5t-15.5 43.5q0 22 13 42.5t37 36.5t59.5 25.5
t80.5 9.5q81 0 126.5 -42t45.5 -118v-325h75v-35q-11 -8 -29.5 -14t-41.5 -6q-39 0 -60 22t-21 59v7h-5q-7 -17 -18.5 -33t-29.5 -28t-43.5 -19.5t-59.5 -7.5zM238 43q48 0 82 24.5t34 75.5v97h-65q-43 0 -72 -6.5t-46 -19t-24.5 -30.5t-7.5 -42v-21q0 -38 26 -58t73 -20z
" />
    <glyph glyph-name="uni0431" unicode="&#x431;" horiz-adv-x="546" 
d="M274 -12q-92 0 -152 62q-36 38 -56.5 99t-20.5 148q0 73 5 128.5t15.5 97t26.5 71.5t38 53q14 15 31 24.5t39.5 16t53 10.5t71.5 9q38 5 63 8t42 6l5 39h40q6 -18 6 -43q0 -23 -5.5 -38.5t-16.5 -27.5q-7 -7 -17 -12.5t-26.5 -10t-41 -7.5t-60.5 -6q-36 -2 -61.5 -4.5
t-44 -6.5t-31.5 -10.5t-24 -16.5q-12 -13 -21 -29t-15.5 -38t-11 -52t-7.5 -71h4q25 58 68 88.5t113 30.5q100 0 159 -65t59 -189q0 -60 -16 -109t-45.5 -83.5t-71.5 -53t-94 -18.5zM273 37q35 0 60.5 12t42 34t24.5 52t8 65v94q0 35 -8 65t-24.5 51.5t-42 34t-60.5 12.5
t-60.5 -12.5t-42 -34t-24.5 -51.5t-8 -65v-94q0 -35 8 -65t24.5 -52t42 -34t60.5 -12z" />
    <glyph glyph-name="uni0432" unicode="&#x432;" horiz-adv-x="560" 
d="M50 46h74v425h-74v45h288q72 0 111 -34t39 -89q0 -57 -30.5 -85t-73.5 -37v-4q22 -2 43.5 -11t38.5 -24.5t28 -38t11 -52.5q0 -71 -43.5 -106t-121.5 -35h-290v46zM332 49q43 0 64.5 22.5t21.5 57.5v29q0 35 -22 57.5t-64 22.5h-126v-189h126zM322 287q38 0 58.5 21.5
t20.5 53.5v30q0 32 -20.5 53.5t-58.5 21.5h-116v-180h116z" />
    <glyph glyph-name="uni0433" unicode="&#x433;" horiz-adv-x="487" 
d="M50 46h74v425h-74v45h403v-152h-60v103h-187v-421h94v-46h-250v46z" />
    <glyph glyph-name="uni0434" unicode="&#x434;" horiz-adv-x="612" 
d="M18 49h72q46 60 73.5 152.5t27.5 223.5v46h-75v45h434v-45h-74v-422h100v-199h-74v150h-410v-150h-74v199zM394 49v418h-143v-42q0 -123 -25 -220t-67 -156h235z" />
    <glyph glyph-name="uni0435" unicode="&#x435;" horiz-adv-x="536" 
d="M279 -12q-55 0 -98.5 19.5t-73.5 54.5t-46 85t-16 111q0 60 17.5 109.5t48 85.5t72.5 55.5t92 19.5q51 0 91 -18t67.5 -50.5t42.5 -77.5t15 -98v-23h-355v-26q0 -85 42.5 -134t113.5 -49q62 0 98.5 25.5t57.5 66.5l33 -21q-10 -26 -27.5 -50.5t-42.5 -43t-58 -30
t-74 -11.5zM136 307h269v10q0 35 -7.5 65t-23.5 52t-40.5 34.5t-58.5 12.5t-60 -12t-43.5 -34t-26.5 -51.5t-9 -64.5v-12z" />
    <glyph glyph-name="uni0436" unicode="&#x436;" horiz-adv-x="798" 
d="M15 46h56l112 178q12 20 26.5 30t31.5 13l-55 126q-9 21 -19.5 39t-18.5 26h-3q0 -58 -52 -58q-25 0 -40.5 17t-15.5 45t18 47t52 19t63.5 -24.5t58.5 -91.5l56 -128h74v187h-74v45h228v-45h-74v-187h73l56 128q29 67 59 91.5t64 24.5q33 0 51.5 -19t18.5 -47t-16 -45
t-40 -17q-52 0 -52 58h-3q-8 -8 -19 -26t-20 -39l-55 -126q18 -3 32 -13t27 -30l112 -178h56v-46h-121l-150 238h-73v-192h74v-46h-228v46h74v192h-74l-149 -238h-121v46z" />
    <glyph glyph-name="uni0437" unicode="&#x437;" horiz-adv-x="502" 
d="M239 -12q-45 0 -80.5 10t-60.5 26.5t-38.5 39t-13.5 46.5q0 29 16 46t42 17q28 0 42 -17t14 -41q0 -19 -9.5 -33.5t-27.5 -22.5v-2q17 -11 41.5 -17t66.5 -6q63 0 94.5 27t31.5 65v25q0 36 -25 62t-78 26h-73v49h68q44 0 69.5 23.5t25.5 61.5v20q0 38 -24.5 64t-72.5 26
q-56 0 -90.5 -26t-34.5 -69v-29h-60v157h60v-49h3q19 26 50.5 43.5t82.5 17.5q83 0 128 -36.5t45 -99.5q0 -48 -29 -78.5t-74 -41.5v-4q53 -11 84 -42t31 -84q0 -35 -15.5 -63.5t-43 -48.5t-65 -31t-80.5 -11z" />
    <glyph glyph-name="uni0438" unicode="&#x438;" horiz-adv-x="660" 
d="M50 46h74v425h-74v45h228v-45h-74v-189l-9 -139h3l258 298v30h-74v45h228v-45h-74v-425h74v-46h-228v46h74v187l9 140h-4l-257 -298v-29h74v-46h-228v46z" />
    <glyph glyph-name="uni0439" unicode="&#x439;" horiz-adv-x="660" 
d="M50 46h74v425h-74v45h228v-45h-74v-189l-9 -139h3l258 298v30h-74v45h228v-45h-74v-425h74v-46h-228v46h74v187l9 140h-4l-257 -298v-29h74v-46h-228v46zM330 597q-42 0 -71.5 9.5t-49 24.5t-28.5 34.5t-9 40.5q0 26 14 39.5t37 13.5t36 -13t13 -37q0 -20 -11 -31.5
t-25 -16.5v-2q17 -9 41 -13t53 -4t53 4t41 13v2q-14 5 -25 16.5t-11 31.5q0 24 13 37t36 13t37 -13.5t14 -39.5q0 -21 -9 -40.5t-28.5 -34.5t-49 -24.5t-71.5 -9.5z" />
    <glyph glyph-name="uni043A" unicode="&#x43a;" horiz-adv-x="581" 
d="M50 46h74v425h-74v45h230v-45h-74v-187h83l56 126q29 66 59.5 92t68.5 26q33 0 51 -19t18 -48t-15.5 -46.5t-41.5 -17.5t-40 16t-14 45h-3q-8 -10 -18 -26.5t-20 -38.5l-56 -126q20 -3 34 -13t27 -30l115 -178h56v-46h-123l-154 238h-83v-192h74v-46h-230v46z" />
    <glyph glyph-name="uni043B" unicode="&#x43b;" horiz-adv-x="604" 
d="M95 -12q-45 0 -67.5 23.5t-22.5 56.5q0 26 13.5 42t39.5 16q23 0 35.5 -13t12.5 -35q0 -16 -8 -27.5t-18 -15.5v-3q3 -2 7.5 -2h8.5q23 0 39 16q10 10 20 29.5t17.5 59.5t12 106.5t4.5 170.5v59h-74v45h439v-45h-74v-425h74v-46h-230v46h74v421h-149v-50
q0 -104 -4.5 -173t-13 -114t-21 -70.5t-29.5 -41.5q-17 -17 -40 -23.5t-46 -6.5z" />
    <glyph glyph-name="uni043C" unicode="&#x43c;" horiz-adv-x="753" 
d="M50 46h75v425h-75v45h182l148 -296h4l147 296h172v-45h-74v-425h74v-46h-231v46h75v394h-3l-37 -76l-141 -284l-143 284l-36 76h-3v-394h74v-46h-208v46z" />
    <glyph glyph-name="uni043D" unicode="&#x43d;" horiz-adv-x="660" 
d="M50 46h74v425h-74v45h230v-45h-74v-185h248v185h-74v45h230v-45h-74v-425h74v-46h-230v46h74v191h-248v-191h74v-46h-230v46z" />
    <glyph glyph-name="uni043E" unicode="&#x43e;" horiz-adv-x="563" 
d="M282 37q37 0 64.5 12.5t45 35t26 53t8.5 66.5v108q0 36 -8.5 66.5t-26 53t-45 35t-64.5 12.5q-38 0 -65 -12.5t-44.5 -35t-26 -53t-8.5 -66.5v-108q0 -36 8.5 -66.5t26 -53t44.5 -35t65 -12.5zM282 -12q-53 0 -97 19t-75 54.5t-48 85t-17 111.5q0 61 17 111t48 85.5
t75 54.5t97 19t97 -19t75 -54.5t48 -85.5t17 -111q0 -62 -17 -111.5t-48 -85t-75 -54.5t-97 -19z" />
    <glyph glyph-name="uni043F" unicode="&#x43f;" horiz-adv-x="661" 
d="M50 46h74v425h-74v45h561v-45h-74v-425h74v-46h-230v46h74v421h-249v-421h74v-46h-230v46z" />
    <glyph glyph-name="uni0440" unicode="&#x440;" horiz-adv-x="613" 
d="M40 -154h74v605l-74 13v34l156 30v-90h4q17 37 54 63.5t98 26.5q96 0 153.5 -69.5t57.5 -200.5t-57.5 -200.5t-153.5 -69.5q-60 0 -97.5 26t-54.5 63h-4v-231h94v-46h-250v46zM328 45q69 0 107.5 46.5t38.5 124.5v84q0 78 -38.5 124.5t-107.5 46.5q-24 0 -48 -7
t-42.5 -20t-30 -32.5t-11.5 -43.5v-220q0 -24 11.5 -43.5t30 -32.5t42.5 -20t48 -7z" />
    <glyph glyph-name="uni0441" unicode="&#x441;" horiz-adv-x="516" 
d="M280 -12q-56 0 -99.5 19.5t-73.5 55t-46 85t-16 110.5q0 62 17.5 112t49.5 85t76.5 54t98.5 19q81 0 128.5 -34.5t47.5 -87.5q0 -32 -16.5 -50t-45.5 -18q-31 0 -46 18t-15 43q0 22 11 38t31 25v3q-13 8 -33.5 12t-52.5 4q-35 0 -64.5 -13t-50.5 -36.5t-33 -55t-12 -68.5
v-74q0 -41 11 -74.5t31.5 -57.5t49 -37t64.5 -13q61 0 96 25.5t56 66.5l32 -21q-9 -26 -26 -50.5t-41 -43t-56.5 -30t-72.5 -11.5z" />
    <glyph glyph-name="uni0442" unicode="&#x442;" horiz-adv-x="522" 
d="M126 46h94v421h-126v-103h-60v152h454v-152h-60v103h-126v-421h94v-46h-270v46z" />
    <glyph glyph-name="uni0443" unicode="&#x443;" horiz-adv-x="533" 
d="M123 -212q-51 0 -74 21.5t-23 56.5q0 26 14 42t40 16q23 0 35.5 -13.5t12.5 -36.5q0 -17 -8.5 -27.5t-18.5 -13.5v-3q11 -4 26 -4q26 0 51 22.5t45 73.5l21 57l-190 491h-52v46h214v-46h-72l139 -378h4l135 378h-72v46h182v-46h-52l-214 -556q-21 -55 -56.5 -90.5
t-86.5 -35.5z" />
    <glyph glyph-name="uni0444" unicode="&#x444;" horiz-adv-x="774" 
d="M272 -154h74v201h-4q-16 -27 -43 -42.5t-67 -16.5q-39 0 -72.5 17t-58 50.5t-38 84t-13.5 118.5t13.5 118.5t38 84.5t58 50.5t72.5 16.5q40 0 67 -15.5t43 -43.5h4v199l-74 13v35l156 29v-276h4q16 28 43 43.5t67 15.5q39 0 72.5 -16.5t58 -50.5t38 -84.5t13.5 -118.5
t-13.5 -118.5t-38 -84t-58 -50.5t-72.5 -17q-40 1 -67 16.5t-43 42.5h-4v-201h74v-46h-230v46zM253 37q42 1 68 21.5t26 59.5v281q0 39 -26 59.5t-68 20.5q-50 0 -82 -40.5t-32 -121.5v-118q0 -81 32 -121t82 -41zM521 37q50 1 82 41t32 121v118q0 81 -32 121.5t-82 40.5
q-42 0 -68 -20.5t-26 -59.5v-281q0 -39 26 -59.5t68 -21.5z" />
    <glyph glyph-name="uni0445" unicode="&#x445;" horiz-adv-x="561" 
d="M31 46h57l151 206l-153 218h-52v46h210v-46h-59l112 -164h4l106 164h-62v46h181v-46h-57l-143 -203l153 -221h52v-46h-211v46h59l-111 167h-4l-114 -167h62v-46h-181v46z" />
    <glyph glyph-name="uni0446" unicode="&#x446;" horiz-adv-x="665" 
d="M555 0h-505v46h74v425h-74v45h230v-45h-74v-422h241v422h-74v45h230v-45h-74v-422h100v-199h-74v150z" />
    <glyph glyph-name="uni0447" unicode="&#x447;" horiz-adv-x="624" 
d="M324 46h94v208h-3q-24 -29 -60.5 -47t-90.5 -18q-78 0 -117 36t-39 118v128h-74v45h225v-45h-69v-120q0 -57 24.5 -81t85.5 -24q53 0 85.5 19t32.5 57v149h-69v45h225v-45h-74v-425h74v-46h-250v46z" />
    <glyph glyph-name="uni0448" unicode="&#x448;" horiz-adv-x="872" 
d="M50 46h74v425h-74v45h221v-45h-65v-422h189v422h-65v45h212v-45h-65v-422h189v422h-65v45h221v-45h-74v-425h74v-46h-772v46z" />
    <glyph glyph-name="uni0449" unicode="&#x449;" horiz-adv-x="885" 
d="M775 0h-725v46h74v425h-74v45h221v-45h-65v-422h189v422h-65v45h212v-45h-65v-422h189v422h-65v45h221v-45h-74v-422h101v-199h-74v150z" />
    <glyph glyph-name="uni044A" unicode="&#x44a;" horiz-adv-x="629" 
d="M137 46h74v421h-117v-103h-60v152h333v-45h-74v-155h131q80 0 122.5 -40.5t42.5 -116.5q0 -75 -44 -117t-122 -42h-286v46zM412 49q45 0 66 25.5t21 64.5v38q0 40 -21 65t-66 25h-119v-218h119z" />
    <glyph glyph-name="uni044B" unicode="&#x44b;" horiz-adv-x="804" 
d="M50 46h74v425h-74v45h230v-45h-74v-155h124q80 0 122 -40.5t42 -116.5q0 -75 -43.5 -117t-121.5 -42h-279v46zM524 46h74v425h-74v45h230v-45h-74v-425h74v-46h-230v46zM317 49q45 0 66 25.5t21 64.5v38q0 40 -21 65t-66 25h-111v-218h111z" />
    <glyph glyph-name="uni044C" unicode="&#x44c;" horiz-adv-x="542" 
d="M50 46h74v425h-74v45h230v-45h-74v-155h132q80 0 122 -40.5t42 -116.5q0 -75 -43.5 -117t-121.5 -42h-287v46zM325 49q45 0 66 25.5t21 64.5v38q0 40 -21 65t-66 25h-119v-218h119z" />
    <glyph glyph-name="uni044D" unicode="&#x44d;" horiz-adv-x="527" 
d="M237 -12q-44 0 -79 10t-60 26.5t-38.5 39t-13.5 46.5q0 29 16 46t42 17q28 0 42 -17t14 -41q0 -19 -9.5 -33.5t-27.5 -22.5v-2q19 -12 45 -17.5t55 -5.5q77 0 122 49t45 134v22h-203v49h203v16q0 81 -36 130t-107 49q-56 0 -90.5 -25t-34.5 -68v-29h-60v155h60v-47h3
q19 26 51 42.5t81 16.5q52 0 93.5 -18.5t70.5 -53t45 -84.5t16 -113t-17.5 -113t-50 -85t-77.5 -54t-100 -19z" />
    <glyph glyph-name="uni044E" unicode="&#x44e;" horiz-adv-x="817" 
d="M553 -12q-97 0 -155 65.5t-64 183.5h-128v-191h74v-46h-230v46h74v425h-74v45h230v-45h-74v-185h129q7 115 64.5 178.5t152.5 63.5q50 0 91 -18.5t69.5 -53t44 -85t15.5 -113.5q0 -128 -59 -199t-160 -71zM553 37q67 0 96.5 44t29.5 119v116q0 75 -29.5 119t-96.5 44
t-96.5 -44t-29.5 -119v-116q0 -75 29.5 -119t96.5 -44z" />
    <glyph glyph-name="uni044F" unicode="&#x44f;" horiz-adv-x="576" 
d="M24 46h56l85 134q16 26 31.5 38t36.5 15v2q-72 3 -115 39t-43 95q0 30 10 56.5t30.5 47t50.5 32t71 11.5h289v-45h-74v-425h74v-46h-230v46h74v176h-84l-141 -222h-121v46zM370 268v199h-121q-23 0 -39.5 -8t-26.5 -20.5t-14.5 -28t-4.5 -30.5v-25q0 -39 23 -63t62 -24
h121z" />
    <glyph glyph-name="uni0450" unicode="&#x450;" horiz-adv-x="536" 
d="M279 -12q-55 0 -98.5 19.5t-73.5 54.5t-46 85t-16 111q0 60 17.5 109.5t48 85.5t72.5 55.5t92 19.5q51 0 91 -18t67.5 -50.5t42.5 -77.5t15 -98v-23h-355v-26q0 -85 42.5 -134t113.5 -49q62 0 98.5 25.5t57.5 66.5l33 -21q-10 -26 -27.5 -50.5t-42.5 -43t-58 -30
t-74 -11.5zM136 307h269v10q0 35 -7.5 65t-23.5 52t-40.5 34.5t-58.5 12.5t-60 -12t-43.5 -34t-26.5 -51.5t-9 -64.5v-12zM155 738l77 38l76 -177l-27 -14z" />
    <glyph glyph-name="uni0451" unicode="&#x451;" horiz-adv-x="536" 
d="M279 -12q-55 0 -98.5 19.5t-73.5 54.5t-46 85t-16 111q0 60 17.5 109.5t48 85.5t72.5 55.5t92 19.5q51 0 91 -18t67.5 -50.5t42.5 -77.5t15 -98v-23h-355v-26q0 -85 42.5 -134t113.5 -49q62 0 98.5 25.5t57.5 66.5l33 -21q-10 -26 -27.5 -50.5t-42.5 -43t-58 -30
t-74 -11.5zM136 307h269v10q0 35 -7.5 65t-23.5 52t-40.5 34.5t-58.5 12.5t-60 -12t-43.5 -34t-26.5 -51.5t-9 -64.5v-12zM183 619q-23 0 -36.5 14.5t-13.5 34.5v3q0 20 13.5 34.5t36.5 14.5t36.5 -14.5t13.5 -34.5v-3q0 -20 -13.5 -34.5t-36.5 -14.5zM365 619
q-23 0 -36.5 14.5t-13.5 34.5v3q0 20 13.5 34.5t36.5 14.5t36.5 -14.5t13.5 -34.5v-3q0 -20 -13.5 -34.5t-36.5 -14.5z" />
    <glyph glyph-name="uni0452" unicode="&#x452;" horiz-adv-x="615" 
d="M371 -212q-50 0 -74 22t-24 56q0 22 13 37t36 15q22 0 33.5 -13t11.5 -34q0 -14 -6.5 -25.5t-15.5 -14.5v-3q9 -4 25 -4q63 0 63 80v423q0 73 -29 108.5t-92 35.5q-22 0 -43.5 -6t-39 -19t-28 -32t-10.5 -45v-323h74v-46h-230v46h74v573h-89v46h89v79l82 16v-95h193v-46
h-193v-180h4q6 15 18 31t30.5 29t43 21t55.5 8q93 0 133 -48.5t40 -145.5v-386q0 -81 -38.5 -120.5t-105.5 -39.5z" />
    <glyph glyph-name="uni0453" unicode="&#x453;" horiz-adv-x="487" 
d="M50 46h74v425h-74v45h403v-152h-60v103h-187v-421h94v-46h-250v46zM234 599l76 177l77 -38l-126 -153z" />
    <glyph glyph-name="uni0454" unicode="&#x454;" horiz-adv-x="527" 
d="M289 -12q-57 0 -102.5 19t-77 54t-48 84.5t-16.5 111.5t17 112t48 85.5t74 54.5t95 19q47 0 77 -16.5t46 -42.5h3v47h60v-155h-60v29q0 43 -33 68t-83 25q-35 0 -63 -13t-47.5 -37t-30.5 -57t-11 -72v-16h203v-49h-203v-22q0 -81 41.5 -132t119.5 -51q36 0 63 6t43 17v2
q-18 8 -27.5 22.5t-9.5 33.5q0 24 14 41t42 17q26 0 42 -17t16 -46q0 -24 -13.5 -46.5t-38.5 -39t-60.5 -26.5t-79.5 -10z" />
    <glyph glyph-name="uni0455" unicode="&#x455;" horiz-adv-x="488" 
d="M252 -12q-47 0 -82 19.5t-46 43.5h-4v-51h-60v155h60v-21q0 -43 27 -70t89 -27q57 0 88.5 20.5t31.5 65.5q0 70 -85 89l-60 13q-74 16 -111.5 54t-37.5 104q0 68 47 106.5t126 38.5q48 0 78.5 -15t40.5 -39h4v42h60v-155h-60v38q0 80 -112 80q-51 0 -79.5 -19.5
t-28.5 -61.5q0 -35 23 -58.5t63 -32.5l56 -12q77 -16 115.5 -53t38.5 -103q0 -32 -12.5 -59.5t-36 -48t-57 -32t-76.5 -11.5z" />
    <glyph glyph-name="uni0456" unicode="&#x456;" horiz-adv-x="315" 
d="M165 635q-26 0 -39.5 15.5t-13.5 37.5v5q0 22 13.5 37.5t39.5 15.5t40 -15.5t14 -37.5v-5q0 -22 -14 -37.5t-40 -15.5zM50 46h74v405l-74 13v34l156 30v-482h74v-46h-230v46z" />
    <glyph glyph-name="uni0457" unicode="&#x457;" horiz-adv-x="315" 
d="M50 46h74v405l-74 13v34l156 30v-482h74v-46h-230v46zM75 619q-23 0 -36.5 14.5t-13.5 34.5v3q0 20 13.5 34.5t36.5 14.5t36.5 -14.5t13.5 -34.5v-3q0 -20 -13.5 -34.5t-36.5 -14.5zM257 619q-23 0 -36.5 14.5t-13.5 34.5v3q0 20 13.5 34.5t36.5 14.5t36.5 -14.5
t13.5 -34.5v-3q0 -20 -13.5 -34.5t-36.5 -14.5z" />
    <glyph glyph-name="uni0458" unicode="&#x458;" horiz-adv-x="303" 
d="M58 -212q-50 0 -74 22t-24 56q0 22 13 37t36 15q22 0 33.5 -13t11.5 -34q0 -14 -6.5 -25.5t-15.5 -14.5v-3q9 -4 26 -4q62 0 62 80v547l-74 13v34l156 30v-580q0 -81 -38 -120.5t-106 -39.5zM161 635q-26 0 -39.5 15.5t-13.5 37.5v5q0 22 13.5 37.5t39.5 15.5t40 -15.5
t14 -37.5v-5q0 -22 -14 -37.5t-40 -15.5z" />
    <glyph glyph-name="uni0459" unicode="&#x459;" horiz-adv-x="796" 
d="M95 -12q-45 0 -67.5 23.5t-22.5 56.5q0 26 13.5 42t39.5 16q23 0 35.5 -13t12.5 -35q0 -16 -8 -27.5t-18 -15.5v-3q3 -2 7.5 -2h8.5q23 0 39 16q10 10 20 29.5t17.5 59.5t12 106.5t4.5 170.5v59h-74v45h429v-45h-74v-155h123q79 0 121 -40.5t42 -116.5q0 -75 -43 -117
t-121 -42h-278v46h74v421h-139v-50q0 -104 -4.5 -173t-13 -114t-21 -70.5t-29.5 -41.5q-17 -17 -40 -23.5t-46 -6.5zM580 49q45 0 65.5 25.5t20.5 64.5v38q0 40 -20.5 65t-65.5 25h-110v-218h110z" />
    <glyph glyph-name="uni045A" unicode="&#x45a;" horiz-adv-x="853" 
d="M50 46h74v425h-74v45h230v-45h-74v-185h238v185h-74v45h230v-45h-74v-155h123q80 0 122 -40.5t42 -116.5q0 -75 -43.5 -117t-121.5 -42h-278v46h74v191h-238v-191h74v-46h-230v46zM636 49q45 0 66 25.5t21 64.5v38q0 40 -21 65t-66 25h-110v-218h110z" />
    <glyph glyph-name="uni045B" unicode="&#x45b;" horiz-adv-x="625" 
d="M35 46h74v573h-89v46h89v79l82 16v-95h193v-46h-193v-180h4q6 15 18 31t30.5 29t43 21t55.5 8q93 0 133 -48.5t40 -145.5v-288h74v-46h-230v46h74v281q0 73 -29 108.5t-92 35.5q-22 0 -43.5 -6t-39 -19t-28 -32t-10.5 -45v-323h74v-46h-230v46z" />
    <glyph glyph-name="uni045C" unicode="&#x45c;" horiz-adv-x="581" 
d="M50 46h74v425h-74v45h230v-45h-74v-187h83l56 126q29 66 59.5 92t68.5 26q33 0 51 -19t18 -48t-15.5 -46.5t-41.5 -17.5t-40 16t-14 45h-3q-8 -10 -18 -26.5t-20 -38.5l-56 -126q20 -3 34 -13t27 -30l115 -178h56v-46h-123l-154 238h-83v-192h74v-46h-230v46zM294 599
l76 177l77 -38l-126 -153z" />
    <glyph glyph-name="uni045D" unicode="&#x45d;" horiz-adv-x="660" 
d="M50 46h74v425h-74v45h228v-45h-74v-189l-9 -139h3l258 298v30h-74v45h228v-45h-74v-425h74v-46h-228v46h74v187l9 140h-4l-257 -298v-29h74v-46h-228v46zM211 738l77 38l76 -177l-27 -14z" />
    <glyph glyph-name="uni045E" unicode="&#x45e;" horiz-adv-x="533" 
d="M123 -212q-51 0 -74 21.5t-23 56.5q0 26 14 42t40 16q23 0 35.5 -13.5t12.5 -36.5q0 -17 -8.5 -27.5t-18.5 -13.5v-3q11 -4 26 -4q26 0 51 22.5t45 73.5l21 57l-190 491h-52v46h214v-46h-72l139 -378h4l135 378h-72v46h182v-46h-52l-214 -556q-21 -55 -56.5 -90.5
t-86.5 -35.5zM282 597q-42 0 -71.5 9.5t-49 24.5t-28.5 34.5t-9 40.5q0 26 14 39.5t37 13.5t36 -13t13 -37q0 -20 -11 -31.5t-25 -16.5v-2q17 -9 41 -13t53 -4t53 4t41 13v2q-14 5 -25 16.5t-11 31.5q0 24 13 37t36 13t37 -13.5t14 -39.5q0 -21 -9 -40.5t-28.5 -34.5
t-49 -24.5t-71.5 -9.5z" />
    <glyph glyph-name="uni045F" unicode="&#x45f;" horiz-adv-x="653" 
d="M290 0h-240v46h74v425h-74v45h230v-45h-74v-422h241v422h-74v45h230v-45h-74v-425h74v-46h-239v-150h-74v150z" />
    <glyph glyph-name="uni0472" unicode="&#x472;" horiz-adv-x="716" 
d="M358 41q51 0 90.5 18.5t66.5 52t41 79.5t14 101v40h-424v-40q0 -55 14 -101t41 -79.5t66.5 -52t90.5 -18.5zM570 380v26q0 55 -14 101t-41 79.5t-66.5 52t-90.5 18.5t-90.5 -18.5t-66.5 -52t-41 -79.5t-14 -101v-26h424zM358 -12q-69 0 -126 25t-97.5 72t-62.5 113.5
t-22 150.5t22 150.5t62.5 113.5t97.5 72t126 25t126 -25t97.5 -72t62.5 -113.5t22 -150.5t-22 -150.5t-62.5 -113.5t-97.5 -72t-126 -25z" />
    <glyph glyph-name="uni0473" unicode="&#x473;" horiz-adv-x="564" 
d="M282 37q37 0 64.5 12.5t45 35t26 53t8.5 66.5v34h-288v-34q0 -36 8.5 -66.5t26 -53t44.5 -35t65 -12.5zM426 284v28q0 36 -8.5 66.5t-26 53t-45 35t-64.5 12.5q-38 0 -65 -12.5t-44.5 -35t-26 -53t-8.5 -66.5v-28h288zM282 -12q-53 0 -97 19t-75 54.5t-48 85t-17 111.5
q0 61 17 111t48 85.5t75 54.5t97 19t97 -19t75 -54.5t48 -85.5t17 -111q0 -62 -17 -111.5t-48 -85t-75 -54.5t-97 -19z" />
    <glyph glyph-name="uni0490" unicode="&#x490;" horiz-adv-x="560" 
d="M55 46h75v606h-75v46h391v160h79v-209h-309v-603h95v-46h-256v46z" />
    <glyph glyph-name="uni0491" unicode="&#x491;" horiz-adv-x="487" 
d="M50 46h74v425h-74v45h329v149h74v-198h-247v-421h94v-46h-250v46z" />
    <glyph glyph-name="uni0492" unicode="&#x492;" horiz-adv-x="560" 
d="M55 46h75v288h-90v48h90v270h-75v46h470v-168h-72v119h-237v-267h175v-48h-175v-288h95v-46h-256v46z" />
    <glyph glyph-name="uni0493" unicode="&#x493;" horiz-adv-x="487" 
d="M50 46h74v193h-84v45h84v187h-74v45h403v-152h-60v103h-187v-183h134v-45h-134v-193h94v-46h-250v46z" />
    <glyph glyph-name="uni0494" unicode="&#x494;" horiz-adv-x="644" 
d="M362 -115h106q9 9 17.5 19.5t14.5 24.5t9.5 33.5t3.5 45.5v151q0 48 -7.5 81.5t-25 54.5t-46.5 30t-72 9q-46 0 -81 -9.5t-65 -27.5v-251h75v-46h-236v46h75v606h-75v46h470v-168h-72v119h-237v-303h4q35 19 74 28t90 9q60 0 101 -13t66.5 -40t36.5 -68.5t11 -98.5v-160
q0 -45 -13 -77t-34 -52t-47 -29t-52 -9h-91v49z" />
    <glyph glyph-name="uni0495" unicode="&#x495;" horiz-adv-x="552" 
d="M289 -151h94q9 9 16.5 19.5t13.5 24.5t9 32t3 44v158q0 57 -22.5 81t-82.5 24q-53 0 -83.5 -19t-30.5 -57v-110h94v-46h-250v46h74v425h-74v45h403v-152h-60v103h-187v-243h4q25 29 58.5 47t87.5 18q78 0 114.5 -36t36.5 -118v-170q0 -45 -12 -76t-31.5 -51t-44.5 -29
t-50 -9h-80v49z" />
    <glyph glyph-name="uni0496" unicode="&#x496;" horiz-adv-x="996" 
d="M914 0h-85l-203 331h-92v-285h75v-46h-235v46h75v285h-92l-204 -331h-141v46h69l164 267q17 26 30 35.5t28 12.5l-81 184q-14 31 -28 54.5t-27 37.5h-3q0 -28 -16 -45t-42 -17q-28 0 -42.5 19.5t-14.5 45.5q0 28 18 49t54 21q47 0 82.5 -32t70.5 -112l83 -187h92v273h-75
v46h235v-46h-75v-273h92l83 187q35 79 70.5 111.5t82.5 32.5q36 0 54 -21t18 -49q0 -26 -14.5 -45.5t-43.5 -19.5q-26 0 -42 17t-16 45h-3q-12 -14 -26.5 -37.5t-28.5 -54.5l-81 -184q16 -3 29 -12.5t30 -35.5l162 -264h92v-209h-78v160z" />
    <glyph glyph-name="uni0497" unicode="&#x497;" horiz-adv-x="817" 
d="M741 0h-79l-150 238h-73v-192h74v-46h-228v46h74v192h-74l-149 -238h-121v46h56l112 178q12 20 26.5 30t31.5 13l-55 126q-9 21 -19.5 39t-18.5 26h-3q0 -58 -52 -58q-25 0 -40.5 17t-15.5 45t18 47t52 19t63.5 -24.5t58.5 -91.5l56 -128h74v187h-74v45h228v-45h-74v-187
h73l56 128q29 67 59 91.5t64 24.5q33 0 51.5 -19t18.5 -47t-16 -45t-40 -17q-52 0 -52 58h-3q-8 -8 -19 -26t-20 -39l-55 -126q18 -3 32 -13t27 -30l110 -175h90v-199h-74v150z" />
    <glyph glyph-name="uni0498" unicode="&#x498;" horiz-adv-x="604" 
d="M249 -11q-45 4 -80.5 16.5t-60 30.5t-37 40t-12.5 44q0 30 16.5 48.5t43.5 18.5t43 -17.5t16 -44.5q0 -22 -11.5 -38t-23.5 -21v-2q17 -11 49.5 -19t77.5 -8q85 0 129 38t44 101v30q0 59 -32.5 92t-95.5 33h-114v49h107q54 0 88 33.5t34 89.5v36q0 53 -32.5 87.5
t-99.5 34.5q-34 0 -62 -8.5t-48.5 -24t-31.5 -36.5t-11 -45v-62h-72v213h72v-62h4q21 32 61.5 53t106.5 21q49 0 87.5 -13t65 -36.5t40.5 -56t14 -71.5q0 -36 -10.5 -65t-29.5 -50.5t-44 -35.5t-55 -20v-4q29 -5 56.5 -16t48.5 -31t34 -49.5t13 -70.5t-15 -75.5t-42 -60.5
t-66 -42.5t-87 -22.5v-150h-78v149z" />
    <glyph glyph-name="uni0499" unicode="&#x499;" horiz-adv-x="502" 
d="M207 -11q-75 8 -118 42t-43 79q0 29 16 46t42 17q28 0 42 -17t14 -41q0 -19 -9.5 -33.5t-27.5 -22.5v-2q17 -11 41.5 -17t66.5 -6q63 0 94.5 27t31.5 65v25q0 36 -25 62t-78 26h-73v49h68q44 0 69.5 23.5t25.5 61.5v20q0 38 -24.5 64t-72.5 26q-56 0 -90.5 -26t-34.5 -69
v-29h-60v157h60v-49h3q19 26 50.5 43.5t82.5 17.5q83 0 128 -36.5t45 -99.5q0 -48 -29 -78.5t-74 -41.5v-4q53 -11 84 -42t31 -84q0 -31 -12 -56.5t-33.5 -45t-51 -32t-65.5 -17.5v-141h-74v139z" />
    <glyph glyph-name="uni049A" unicode="&#x49a;" horiz-adv-x="699" 
d="M617 0h-86l-215 331h-100v-285h75v-46h-236v46h75v606h-75v46h236v-46h-75v-273h99l99 195q20 40 38 66t35.5 41.5t36.5 22t40 6.5q36 0 55.5 -20.5t19.5 -50.5q0 -27 -15 -46t-44 -19q-26 0 -42 17t-16 46h-3q-13 -17 -28 -41t-26 -47l-95 -188q17 -3 31 -12.5t30 -33.5
l173 -266h91v-209h-78v160z" />
    <glyph glyph-name="uni049B" unicode="&#x49b;" horiz-adv-x="601" 
d="M524 0h-81l-154 238h-83v-192h75v-46h-231v46h74v425h-74v45h231v-45h-75v-187h83l56 126q29 66 59.5 92t68.5 26q33 0 51 -19t18 -48t-15.5 -46.5t-41.5 -17.5t-40 16t-14 45h-3q-8 -10 -18 -26.5t-20 -38.5l-56 -126q20 -3 34 -13t27 -30l113 -175h90v-199h-74v150z
" />
    <glyph glyph-name="uni049C" unicode="&#x49c;" horiz-adv-x="700" 
d="M259 331h-43v-285h75v-46h-236v46h75v606h-75v46h236v-46h-75v-273h43v159h52v-159h33l88 194q34 76 67.5 106.5t77.5 30.5q36 0 55.5 -20.5t19.5 -50.5q0 -27 -15 -46t-44 -19q-26 0 -42 17t-16 46h-3q-22 -29 -48 -88l-85 -188q17 -3 30.5 -13.5t28.5 -34.5l161 -267
h69v-46h-144l-200 331h-33v-159h-52v159z" />
    <glyph glyph-name="uni049D" unicode="&#x49d;" horiz-adv-x="601" 
d="M50 46h74v425h-74v45h230v-45h-74v-187h36v108h47v-108h29l48 126q24 64 55 91t72 27q33 0 51 -19t18 -48t-16 -46.5t-42 -17.5q-53 0 -53 61h-3q-8 -8 -17 -23t-20 -42l-48 -126q18 -3 32.5 -13.5t26.5 -30.5l108 -177h56v-46h-123l-145 238h-29v-107h-47v107h-36v-192
h74v-46h-230v46z" />
    <glyph glyph-name="uni04A0" unicode="&#x4a0;" horiz-adv-x="813" 
d="M181 46h75v603h-149v-119h-72v168h382v-46h-75v-273h99l99 195q20 40 38 66t35.5 41.5t36.5 22t40 6.5q36 0 55.5 -20.5t19.5 -50.5q0 -27 -15 -46t-44 -19q-26 0 -42 17t-16 46h-3q-13 -17 -28 -41t-26 -47l-95 -188q17 -3 31 -12.5t30 -33.5l175 -269h69v-46h-144
l-215 331h-100v-285h75v-46h-236v46z" />
    <glyph glyph-name="uni04A1" unicode="&#x4a1;" horiz-adv-x="668" 
d="M137 46h74v421h-117v-103h-60v152h333v-45h-74v-187h83l56 126q29 66 59.5 92t68.5 26q33 0 51 -19t18 -48t-15.5 -46.5t-41.5 -17.5t-40 16t-14 45h-3q-8 -10 -18 -26.5t-20 -38.5l-56 -126q20 -3 34 -13t27 -30l115 -178h56v-46h-123l-154 238h-83v-192h74v-46h-230v46
z" />
    <glyph glyph-name="uni04A2" unicode="&#x4a2;" horiz-adv-x="800" 
d="M682 0h-186v46h75v285h-355v-285h75v-46h-236v46h75v606h-75v46h236v-46h-75v-271h355v271h-75v46h236v-46h-75v-603h103v-209h-78v160z" />
    <glyph glyph-name="uni04A3" unicode="&#x4a3;" horiz-adv-x="673" 
d="M563 0h-183v46h74v191h-248v-191h74v-46h-230v46h74v425h-74v45h230v-45h-74v-185h248v185h-74v45h229v-45h-73v-422h101v-199h-74v150z" />
    <glyph glyph-name="uni04A4" unicode="&#x4a4;" horiz-adv-x="974" 
d="M55 46h75v606h-75v46h236v-46h-75v-272h328v272h-75v46h470v-168h-72v119h-237v-603h95v-46h-256v46h75v285h-328v-285h75v-46h-236v46z" />
    <glyph glyph-name="uni04A5" unicode="&#x4a5;" horiz-adv-x="797" 
d="M50 46h74v425h-74v45h230v-45h-74v-185h238v185h-74v45h393v-153h-60v104h-177v-421h94v-46h-250v46h74v191h-238v-191h74v-46h-230v46z" />
    <glyph glyph-name="uni04AA" unicode="&#x4aa;" horiz-adv-x="649" 
d="M308 -10q-59 6 -106.5 34t-81.5 74.5t-52 109.5t-18 141q0 87 21 154t58.5 113t90.5 70t117 24q65 0 108.5 -21.5t57.5 -53.5h4v63h72v-204h-72v52q0 50 -44 80.5t-115 30.5q-53 0 -91.5 -19.5t-63 -53t-36 -78t-11.5 -93.5v-121q0 -55 14.5 -99t42 -75.5t67.5 -48.5
t91 -17q71 0 119 37t70 94l39 -19q-8 -26 -24.5 -53.5t-42 -52t-59.5 -42.5t-77 -25v-151h-78v150z" />
    <glyph glyph-name="uni04AB" unicode="&#x4ab;" horiz-adv-x="516" 
d="M241 -9q-94 13 -145 84.5t-51 182.5q0 62 17.5 112t49.5 85t76.5 54t98.5 19q81 0 128.5 -34.5t47.5 -87.5q0 -32 -16.5 -50t-45.5 -18q-31 0 -46 18t-15 43q0 22 11 38t31 25v3q-13 8 -33.5 12t-52.5 4q-35 0 -64.5 -13t-50.5 -36.5t-33 -55t-12 -68.5v-74
q0 -41 11 -74.5t31.5 -57.5t49 -37t64.5 -13q61 0 96 25.5t56 66.5l32 -21q-17 -46 -56 -84.5t-105 -48.5v-140h-74v141z" />
    <glyph glyph-name="uni04AE" unicode="&#x4ae;" horiz-adv-x="635" 
d="M179 46h95v235l-201 371h-53v46h241v-46h-90l161 -310h4l165 310h-90v46h203v-46h-53l-201 -366v-240h95v-46h-276v46z" />
    <glyph glyph-name="uni04AF" unicode="&#x4af;" horiz-adv-x="534" 
d="M153 -154h74v154l-173 471h-52v45h214v-45h-72l139 -390h4l135 390h-72v45h182v-45h-52l-171 -471v-154h74v-46h-230v46z" />
    <glyph glyph-name="uni04B0" unicode="&#x4b0;" horiz-adv-x="634" 
d="M179 46h95v192h-145v48h144l-200 366h-53v46h241v-46h-90l162 -311h4l164 311h-90v46h203v-46h-53l-200 -366h144v-48h-145v-192h95v-46h-276v46z" />
    <glyph glyph-name="uni04B1" unicode="&#x4b1;" horiz-adv-x="534" 
d="M153 -154h74v108h-105v46h105l-173 471h-52v45h214v-45h-72l139 -390h4l135 390h-72v45h182v-45h-52l-171 -471h105v-46h-105v-108h74v-46h-230v46z" />
    <glyph glyph-name="uni04B2" unicode="&#x4b2;" horiz-adv-x="678" 
d="M595 0h-185v46h74l-162 251h-4l-170 -251h66v-46h-196v46h60l211 294l-206 312h-60v46h238v-46h-74l159 -247h4l166 247h-66v46h194v-46h-60l-206 -289l209 -314h87v-209h-79v160z" />
    <glyph glyph-name="uni04B3" unicode="&#x4b3;" horiz-adv-x="569" 
d="M488 0h-168v46h59l-111 167h-4l-114 -167h62v-46h-181v46h57l151 206l-153 218h-52v46h210v-46h-59l112 -164h4l106 164h-62v46h181v-46h-57l-143 -203l151 -218h86v-199h-75v150z" />
    <glyph glyph-name="uni04B6" unicode="&#x4b6;" horiz-adv-x="732" 
d="M613 0h-206v46h95v257h-4q-35 -18 -73 -27.5t-93 -9.5q-62 0 -104 13t-68.5 40t-38 68.5t-11.5 99.5v165h-75v46h236v-46h-75v-162q0 -49 8 -82.5t26 -54t47.5 -29.5t71.5 -9q49 0 88 10.5t65 27.5v299h-75v46h236v-46h-75v-603h104v-209h-79v160z" />
    <glyph glyph-name="uni04B7" unicode="&#x4b7;" horiz-adv-x="638" 
d="M528 0h-203v46h94v208h-3q-24 -29 -60.5 -47t-90.5 -18q-78 0 -117 36t-39 118v128h-75v45h226v-45h-69v-120q0 -57 24.5 -81t85.5 -24q53 0 85.5 19t32.5 57v149h-69v45h225v-45h-74v-422h101v-199h-74v150z" />
    <glyph glyph-name="uni04B8" unicode="&#x4b8;" horiz-adv-x="718" 
d="M326 266q-60 1 -101 14t-66.5 40t-37 68.5t-11.5 98.5v165h-75v46h236v-46h-75v-162q0 -45 7 -77t22.5 -53t40 -31.5t60.5 -12.5v168h52v-168q39 3 70 13t54 24v299h-75v46h236v-46h-75v-606h75v-46h-256v46h95v257h-4q-27 -14 -55.5 -23t-64.5 -12v-150h-52v148z" />
    <glyph glyph-name="uni04B9" unicode="&#x4b9;" horiz-adv-x="624" 
d="M278 189h-14q-78 0 -117 36t-39 118v128h-74v45h225v-45h-69v-120q0 -52 19.5 -76.5t68.5 -28.5v108h47v-107q42 4 67.5 23t25.5 52v149h-69v45h225v-45h-74v-425h74v-46h-250v46h94v208h-3q-17 -20 -39 -34.5t-51 -22.5v-105h-47v97z" />
    <glyph glyph-name="uni04BA" unicode="&#x4ba;" horiz-adv-x="718" 
d="M55 46h75v606h-75v46h237v-46h-76v-257h4q35 18 73 28t93 10q61 0 103.5 -13t68.5 -40t38 -69t12 -100v-165h75v-46h-236v46h75v162q0 49 -8 82.5t-26 54.5t-47.5 30t-72.5 9q-48 0 -87 -11t-65 -28v-299h75v-46h-236v46z" />
    <glyph glyph-name="uni04BB" unicode="&#x4bb;" horiz-adv-x="624" 
d="M35 46h74v637l-74 13v35l156 29v-321h4q6 15 18 31t30.5 29t43 21t55.5 8q93 0 133 -48.5t40 -145.5v-288h74v-46h-230v46h74v281q0 73 -29 108.5t-92 35.5q-22 0 -43.5 -6t-39 -19t-28 -32t-10.5 -45v-323h74v-46h-230v46z" />
    <glyph glyph-name="uni04C0" unicode="&#x4c0;" horiz-adv-x="347" 
d="M55 46h75v606h-75v46h236v-46h-75v-606h75v-46h-236v46z" />
    <glyph glyph-name="uni04C1" unicode="&#x4c1;" horiz-adv-x="983" 
d="M12 46h69l164 267q17 26 30 35.5t28 12.5l-81 184q-14 31 -28 54.5t-27 37.5h-3q0 -28 -16 -45t-42 -17q-28 0 -42.5 19.5t-14.5 45.5q0 28 18 49t54 21q47 0 82.5 -32t70.5 -112l83 -187h92v273h-75v46h235v-46h-75v-273h92l83 187q35 79 70.5 111.5t82.5 32.5
q36 0 54 -21t18 -49q0 -26 -14.5 -45.5t-43.5 -19.5q-26 0 -42 17t-16 45h-3q-12 -14 -26.5 -37.5t-28.5 -54.5l-81 -184q16 -3 29 -12.5t30 -35.5l164 -267h69v-46h-142l-203 331h-92v-285h75v-46h-235v46h75v285h-92l-204 -331h-141v46zM491 770q-42 0 -71.5 9.5t-49 24.5
t-28.5 34.5t-9 40.5q0 26 14 39.5t37 13.5t36 -13t13 -37q0 -20 -11 -31.5t-25 -16.5v-2q17 -9 41 -13t53 -4t53 4t41 13v2q-14 5 -25 16.5t-11 31.5q0 24 13 37t36 13t37 -13.5t14 -39.5q0 -21 -9 -40.5t-28.5 -34.5t-49 -24.5t-71.5 -9.5z" />
    <glyph glyph-name="uni04C2" unicode="&#x4c2;" horiz-adv-x="798" 
d="M15 46h56l112 178q12 20 26.5 30t31.5 13l-55 126q-9 21 -19.5 39t-18.5 26h-3q0 -58 -52 -58q-25 0 -40.5 17t-15.5 45t18 47t52 19t63.5 -24.5t58.5 -91.5l56 -128h74v187h-74v45h228v-45h-74v-187h73l56 128q29 67 59 91.5t64 24.5q33 0 51.5 -19t18.5 -47t-16 -45
t-40 -17q-52 0 -52 58h-3q-8 -8 -19 -26t-20 -39l-55 -126q18 -3 32 -13t27 -30l112 -178h56v-46h-121l-150 238h-73v-192h74v-46h-228v46h74v192h-74l-149 -238h-121v46zM398 597q-42 0 -71.5 9.5t-49 24.5t-28.5 34.5t-9 40.5q0 26 14 39.5t37 13.5t36 -13t13 -37
q0 -20 -11 -31.5t-25 -16.5v-2q17 -9 41 -13t53 -4t53 4t41 13v2q-14 5 -25 16.5t-11 31.5q0 24 13 37t36 13t37 -13.5t14 -39.5q0 -21 -9 -40.5t-28.5 -34.5t-49 -24.5t-71.5 -9.5z" />
    <glyph glyph-name="uni04CF" unicode="&#x4cf;" horiz-adv-x="300" 
d="M35 46h74v656h-74v46h230v-46h-74v-656h74v-46h-230v46z" />
    <glyph glyph-name="uni04D0" unicode="&#x4d0;" horiz-adv-x="686" 
d="M16 46h53l227 652h95l226 -652h53v-46h-236v46h90l-62 181h-272l-62 -181h90v-46h-202v46zM204 275h243l-117 350h-6zM343 770q-42 0 -71.5 9.5t-49 24.5t-28.5 34.5t-9 40.5q0 26 14 39.5t37 13.5t36 -13t13 -37q0 -20 -11 -31.5t-25 -16.5v-2q17 -9 41 -13t53 -4t53 4
t41 13v2q-14 5 -25 16.5t-11 31.5q0 24 13 37t36 13t37 -13.5t14 -39.5q0 -21 -9 -40.5t-28.5 -34.5t-49 -24.5t-71.5 -9.5z" />
    <glyph glyph-name="uni04D1" unicode="&#x4d1;" horiz-adv-x="546" 
d="M203 -12q-72 0 -112.5 37.5t-40.5 102.5q0 37 12 65.5t39.5 47.5t71.5 29t107 10h74v76q0 61 -29.5 93.5t-88.5 32.5q-26 0 -48 -4.5t-36 -12.5v-2q11 -6 21.5 -18t10.5 -34q0 -26 -15 -40.5t-40 -14.5q-24 0 -39.5 14.5t-15.5 43.5q0 22 13 42.5t37 36.5t59.5 25.5
t80.5 9.5q81 0 126.5 -42t45.5 -118v-325h75v-35q-11 -8 -29.5 -14t-41.5 -6q-39 0 -60 22t-21 59v7h-5q-7 -17 -18.5 -33t-29.5 -28t-43.5 -19.5t-59.5 -7.5zM238 43q48 0 82 24.5t34 75.5v97h-65q-43 0 -72 -6.5t-46 -19t-24.5 -30.5t-7.5 -42v-21q0 -38 26 -58t73 -20z
M265 597q-42 0 -71.5 9.5t-49 24.5t-28.5 34.5t-9 40.5q0 26 14 39.5t37 13.5t36 -13t13 -37q0 -20 -11 -31.5t-25 -16.5v-2q17 -9 41 -13t53 -4t53 4t41 13v2q-14 5 -25 16.5t-11 31.5q0 24 13 37t36 13t37 -13.5t14 -39.5q0 -21 -9 -40.5t-28.5 -34.5t-49 -24.5
t-71.5 -9.5z" />
    <glyph glyph-name="uni04D2" unicode="&#x4d2;" horiz-adv-x="686" 
d="M16 46h53l227 652h95l226 -652h53v-46h-236v46h90l-62 181h-272l-62 -181h90v-46h-202v46zM204 275h243l-117 350h-6zM252 791q-23 0 -36.5 14.5t-13.5 34.5v3q0 20 13.5 34.5t36.5 14.5t36.5 -14.5t13.5 -34.5v-3q0 -20 -13.5 -34.5t-36.5 -14.5zM434 791
q-23 0 -36.5 14.5t-13.5 34.5v3q0 20 13.5 34.5t36.5 14.5t36.5 -14.5t13.5 -34.5v-3q0 -20 -13.5 -34.5t-36.5 -14.5z" />
    <glyph glyph-name="uni04D3" unicode="&#x4d3;" horiz-adv-x="546" 
d="M203 -12q-72 0 -112.5 37.5t-40.5 102.5q0 37 12 65.5t39.5 47.5t71.5 29t107 10h74v76q0 61 -29.5 93.5t-88.5 32.5q-26 0 -48 -4.5t-36 -12.5v-2q11 -6 21.5 -18t10.5 -34q0 -26 -15 -40.5t-40 -14.5q-24 0 -39.5 14.5t-15.5 43.5q0 22 13 42.5t37 36.5t59.5 25.5
t80.5 9.5q81 0 126.5 -42t45.5 -118v-325h75v-35q-11 -8 -29.5 -14t-41.5 -6q-39 0 -60 22t-21 59v7h-5q-7 -17 -18.5 -33t-29.5 -28t-43.5 -19.5t-59.5 -7.5zM238 43q48 0 82 24.5t34 75.5v97h-65q-43 0 -72 -6.5t-46 -19t-24.5 -30.5t-7.5 -42v-21q0 -38 26 -58t73 -20z
M174 619q-23 0 -36.5 14.5t-13.5 34.5v3q0 20 13.5 34.5t36.5 14.5t36.5 -14.5t13.5 -34.5v-3q0 -20 -13.5 -34.5t-36.5 -14.5zM356 619q-23 0 -36.5 14.5t-13.5 34.5v3q0 20 13.5 34.5t36.5 14.5t36.5 -14.5t13.5 -34.5v-3q0 -20 -13.5 -34.5t-36.5 -14.5z" />
    <glyph glyph-name="uni04D4" unicode="&#x4d4;" horiz-adv-x="955" 
d="M11 46h53l311 606h-76v46h585v-168h-72v119h-283v-265h198v80h60v-209h-60v80h-198v-286h293v128h72v-177h-526v46h75v181h-226l-92 -181h77v-46h-191v46zM238 275h205v377h-10z" />
    <glyph glyph-name="uni04D5" unicode="&#x4d5;" horiz-adv-x="823" 
d="M203 -12q-72 0 -112.5 40t-40.5 105q0 40 12 70t39.5 49.5t71.5 29t107 9.5h74v65q0 61 -29.5 93.5t-88.5 32.5q-26 0 -48 -4.5t-36 -12.5v-2q11 -6 21.5 -18t10.5 -34q0 -26 -15 -40.5t-40 -14.5q-24 0 -39.5 14.5t-15.5 43.5q0 22 13 42.5t37 36.5t59.5 25.5t80.5 9.5
q32 0 57 -9t43 -24t28.5 -35t13.5 -42h6q14 48 56.5 79t103.5 31q51 0 89.5 -19.5t64.5 -53t39 -79.5t13 -99v-28h-341v-14q0 -85 42.5 -134t113.5 -49q31 0 53 5.5t38 16t27.5 26t22.5 35.5l33 -21q-10 -26 -25 -49t-37.5 -40t-53 -27t-71.5 -10q-37 0 -67.5 10t-53.5 26.5
t-39 38t-23 44.5h-6q-19 -63 -67.5 -91t-120.5 -28zM238 43q48 0 82 24.5t34 75.5v108h-65q-43 0 -72 -6.5t-46 -19.5t-24.5 -31t-7.5 -42v-31q0 -38 26 -58t73 -20zM437 293h256v17q0 35 -6.5 66t-20.5 54.5t-37.5 37t-56.5 13.5q-34 0 -59 -12.5t-42 -34.5t-25.5 -52
t-8.5 -65v-24z" />
    <glyph glyph-name="uni04D6" unicode="&#x4d6;" horiz-adv-x="641" 
d="M55 46h75v606h-75v46h516v-168h-72v119h-283v-265h198v80h60v-209h-60v80h-198v-286h293v128h72v-177h-526v46zM335 770q-42 0 -71.5 9.5t-49 24.5t-28.5 34.5t-9 40.5q0 26 14 39.5t37 13.5t36 -13t13 -37q0 -20 -11 -31.5t-25 -16.5v-2q17 -9 41 -13t53 -4t53 4t41 13
v2q-14 5 -25 16.5t-11 31.5q0 24 13 37t36 13t37 -13.5t14 -39.5q0 -21 -9 -40.5t-28.5 -34.5t-49 -24.5t-71.5 -9.5z" />
    <glyph glyph-name="uni04D7" unicode="&#x4d7;" horiz-adv-x="536" 
d="M279 -12q-55 0 -98.5 19.5t-73.5 54.5t-46 85t-16 111q0 60 17.5 109.5t48 85.5t72.5 55.5t92 19.5q51 0 91 -18t67.5 -50.5t42.5 -77.5t15 -98v-23h-355v-26q0 -85 42.5 -134t113.5 -49q62 0 98.5 25.5t57.5 66.5l33 -21q-10 -26 -27.5 -50.5t-42.5 -43t-58 -30
t-74 -11.5zM136 307h269v10q0 35 -7.5 65t-23.5 52t-40.5 34.5t-58.5 12.5t-60 -12t-43.5 -34t-26.5 -51.5t-9 -64.5v-12zM274 597q-42 0 -71.5 9.5t-49 24.5t-28.5 34.5t-9 40.5q0 26 14 39.5t37 13.5t36 -13t13 -37q0 -20 -11 -31.5t-25 -16.5v-2q17 -9 41 -13t53 -4t53 4
t41 13v2q-14 5 -25 16.5t-11 31.5q0 24 13 37t36 13t37 -13.5t14 -39.5q0 -21 -9 -40.5t-28.5 -34.5t-49 -24.5t-71.5 -9.5z" />
    <glyph glyph-name="uni04D8" unicode="&#x4d8;" horiz-adv-x="700" 
d="M346 -12q-71 0 -126 25t-92.5 66t-57.5 94.5t-20 110.5v47h502v75q0 52 -14 96t-43 76t-73 50t-104 18q-79 0 -133.5 -37t-77.5 -97l-38 19q9 30 30.5 62t55 58t79 42.5t103.5 16.5q74 0 132 -25t97.5 -71.5t60.5 -113.5t21 -151t-21.5 -150.5t-61 -113.5t-95.5 -72
t-124 -25zM346 41q49 0 87 17.5t64.5 49t40.5 75t14 96.5v3h-406v-3q0 -53 13.5 -96.5t39 -75t63 -49t84.5 -17.5z" />
    <glyph glyph-name="uni04D9" unicode="&#x4d9;" horiz-adv-x="536" 
d="M261 -12q-51 0 -91 18t-67.5 50.5t-42.5 77.5t-15 98v23h355v26q0 85 -42.5 134t-113.5 49q-62 0 -98.5 -25.5t-57.5 -66.5l-33 21q10 26 27.5 50.5t42.5 43t58 30t74 11.5q55 0 98.5 -19.5t73.5 -54.5t46 -85t16 -111q0 -60 -17.5 -109.5t-48 -85.5t-73 -55.5
t-91.5 -19.5zM261 35q34 0 60 12t43.5 34t26.5 51.5t9 64.5v12h-269v-10q0 -35 7.5 -65t23.5 -52t40.5 -34.5t58.5 -12.5z" />
    <glyph glyph-name="uni04DC" unicode="&#x4dc;" horiz-adv-x="983" 
d="M12 46h69l164 267q17 26 30 35.5t28 12.5l-81 184q-14 31 -28 54.5t-27 37.5h-3q0 -28 -16 -45t-42 -17q-28 0 -42.5 19.5t-14.5 45.5q0 28 18 49t54 21q47 0 82.5 -32t70.5 -112l83 -187h92v273h-75v46h235v-46h-75v-273h92l83 187q35 79 70.5 111.5t82.5 32.5
q36 0 54 -21t18 -49q0 -26 -14.5 -45.5t-43.5 -19.5q-26 0 -42 17t-16 45h-3q-12 -14 -26.5 -37.5t-28.5 -54.5l-81 -184q16 -3 29 -12.5t30 -35.5l164 -267h69v-46h-142l-203 331h-92v-285h75v-46h-235v46h75v285h-92l-204 -331h-141v46zM400 791q-23 0 -36.5 14.5
t-13.5 34.5v3q0 20 13.5 34.5t36.5 14.5t36.5 -14.5t13.5 -34.5v-3q0 -20 -13.5 -34.5t-36.5 -14.5zM582 791q-23 0 -36.5 14.5t-13.5 34.5v3q0 20 13.5 34.5t36.5 14.5t36.5 -14.5t13.5 -34.5v-3q0 -20 -13.5 -34.5t-36.5 -14.5z" />
    <glyph glyph-name="uni04DD" unicode="&#x4dd;" horiz-adv-x="798" 
d="M15 46h56l112 178q12 20 26.5 30t31.5 13l-55 126q-9 21 -19.5 39t-18.5 26h-3q0 -58 -52 -58q-25 0 -40.5 17t-15.5 45t18 47t52 19t63.5 -24.5t58.5 -91.5l56 -128h74v187h-74v45h228v-45h-74v-187h73l56 128q29 67 59 91.5t64 24.5q33 0 51.5 -19t18.5 -47t-16 -45
t-40 -17q-52 0 -52 58h-3q-8 -8 -19 -26t-20 -39l-55 -126q18 -3 32 -13t27 -30l112 -178h56v-46h-121l-150 238h-73v-192h74v-46h-228v46h74v192h-74l-149 -238h-121v46zM307 619q-23 0 -36.5 14.5t-13.5 34.5v3q0 20 13.5 34.5t36.5 14.5t36.5 -14.5t13.5 -34.5v-3
q0 -20 -13.5 -34.5t-36.5 -14.5zM489 619q-23 0 -36.5 14.5t-13.5 34.5v3q0 20 13.5 34.5t36.5 14.5t36.5 -14.5t13.5 -34.5v-3q0 -20 -13.5 -34.5t-36.5 -14.5z" />
    <glyph glyph-name="uni04DE" unicode="&#x4de;" horiz-adv-x="604" 
d="M282 -12q-53 0 -94.5 11.5t-70 30.5t-43.5 42.5t-15 47.5q0 30 16.5 48.5t43.5 18.5t43 -17.5t16 -44.5q0 -22 -11.5 -38t-23.5 -21v-2q17 -11 49.5 -19t77.5 -8q85 0 129 38t44 101v30q0 59 -32.5 92t-95.5 33h-114v49h107q54 0 88 33.5t34 89.5v36q0 53 -32.5 87.5
t-99.5 34.5q-34 0 -62 -8.5t-48.5 -24t-31.5 -36.5t-11 -45v-62h-72v213h72v-62h4q21 32 61.5 53t106.5 21q49 0 87.5 -13t65 -36.5t40.5 -56t14 -71.5q0 -36 -10.5 -65t-29.5 -50.5t-44 -35.5t-55 -20v-4q29 -5 56.5 -16t48.5 -31t34 -49.5t13 -70.5q0 -45 -18.5 -82.5
t-52 -64.5t-80.5 -41.5t-104 -14.5zM216 791q-23 0 -36.5 14.5t-13.5 34.5v3q0 20 13.5 34.5t36.5 14.5t36.5 -14.5t13.5 -34.5v-3q0 -20 -13.5 -34.5t-36.5 -14.5zM398 791q-23 0 -36.5 14.5t-13.5 34.5v3q0 20 13.5 34.5t36.5 14.5t36.5 -14.5t13.5 -34.5v-3
q0 -20 -13.5 -34.5t-36.5 -14.5z" />
    <glyph glyph-name="uni04DF" unicode="&#x4df;" horiz-adv-x="502" 
d="M239 -12q-45 0 -80.5 10t-60.5 26.5t-38.5 39t-13.5 46.5q0 29 16 46t42 17q28 0 42 -17t14 -41q0 -19 -9.5 -33.5t-27.5 -22.5v-2q17 -11 41.5 -17t66.5 -6q63 0 94.5 27t31.5 65v25q0 36 -25 62t-78 26h-73v49h68q44 0 69.5 23.5t25.5 61.5v20q0 38 -24.5 64t-72.5 26
q-56 0 -90.5 -26t-34.5 -69v-29h-60v157h60v-49h3q19 26 50.5 43.5t82.5 17.5q83 0 128 -36.5t45 -99.5q0 -48 -29 -78.5t-74 -41.5v-4q53 -11 84 -42t31 -84q0 -35 -15.5 -63.5t-43 -48.5t-65 -31t-80.5 -11zM168 619q-23 0 -36.5 14.5t-13.5 34.5v3q0 20 13.5 34.5
t36.5 14.5t36.5 -14.5t13.5 -34.5v-3q0 -20 -13.5 -34.5t-36.5 -14.5zM350 619q-23 0 -36.5 14.5t-13.5 34.5v3q0 20 13.5 34.5t36.5 14.5t36.5 -14.5t13.5 -34.5v-3q0 -20 -13.5 -34.5t-36.5 -14.5z" />
    <glyph glyph-name="uni04E2" unicode="&#x4e2;" horiz-adv-x="787" 
d="M55 46h75v606h-75v46h234v-46h-75v-312l-10 -191h3l366 478v25h-75v46h234v-46h-75v-606h75v-46h-234v46h75v312l10 191h-3l-366 -478v-25h75v-46h-234v46zM255 870h278v-57h-278v57z" />
    <glyph glyph-name="uni04E3" unicode="&#x4e3;" horiz-adv-x="660" 
d="M50 46h74v425h-74v45h228v-45h-74v-189l-9 -139h3l258 298v30h-74v45h228v-45h-74v-425h74v-46h-228v46h74v187l9 140h-4l-257 -298v-29h74v-46h-228v46zM191 699h278v-57h-278v57z" />
    <glyph glyph-name="uni04E4" unicode="&#x4e4;" horiz-adv-x="787" 
d="M55 46h75v606h-75v46h234v-46h-75v-312l-10 -191h3l366 478v25h-75v46h234v-46h-75v-606h75v-46h-234v46h75v312l10 191h-3l-366 -478v-25h75v-46h-234v46zM303 791q-23 0 -36.5 14.5t-13.5 34.5v3q0 20 13.5 34.5t36.5 14.5t36.5 -14.5t13.5 -34.5v-3q0 -20 -13.5 -34.5
t-36.5 -14.5zM485 791q-23 0 -36.5 14.5t-13.5 34.5v3q0 20 13.5 34.5t36.5 14.5t36.5 -14.5t13.5 -34.5v-3q0 -20 -13.5 -34.5t-36.5 -14.5z" />
    <glyph glyph-name="uni04E5" unicode="&#x4e5;" horiz-adv-x="660" 
d="M50 46h74v425h-74v45h228v-45h-74v-189l-9 -139h3l258 298v30h-74v45h228v-45h-74v-425h74v-46h-228v46h74v187l9 140h-4l-257 -298v-29h74v-46h-228v46zM239 619q-23 0 -36.5 14.5t-13.5 34.5v3q0 20 13.5 34.5t36.5 14.5t36.5 -14.5t13.5 -34.5v-3q0 -20 -13.5 -34.5
t-36.5 -14.5zM421 619q-23 0 -36.5 14.5t-13.5 34.5v3q0 20 13.5 34.5t36.5 14.5t36.5 -14.5t13.5 -34.5v-3q0 -20 -13.5 -34.5t-36.5 -14.5z" />
    <glyph glyph-name="uni04E6" unicode="&#x4e6;" horiz-adv-x="716" 
d="M358 41q51 0 90.5 18.5t66.5 52t41 79.5t14 101v114q0 55 -14 101t-41 79.5t-66.5 52t-90.5 18.5t-90.5 -18.5t-66.5 -52t-41 -79.5t-14 -101v-114q0 -55 14 -101t41 -79.5t66.5 -52t90.5 -18.5zM358 -12q-69 0 -126 25t-97.5 72t-62.5 113.5t-22 150.5t22 150.5
t62.5 113.5t97.5 72t126 25t126 -25t97.5 -72t62.5 -113.5t22 -150.5t-22 -150.5t-62.5 -113.5t-97.5 -72t-126 -25zM267 791q-23 0 -36.5 14.5t-13.5 34.5v3q0 20 13.5 34.5t36.5 14.5t36.5 -14.5t13.5 -34.5v-3q0 -20 -13.5 -34.5t-36.5 -14.5zM449 791q-23 0 -36.5 14.5
t-13.5 34.5v3q0 20 13.5 34.5t36.5 14.5t36.5 -14.5t13.5 -34.5v-3q0 -20 -13.5 -34.5t-36.5 -14.5z" />
    <glyph glyph-name="uni04E7" unicode="&#x4e7;" horiz-adv-x="563" 
d="M282 37q37 0 64.5 12.5t45 35t26 53t8.5 66.5v108q0 36 -8.5 66.5t-26 53t-45 35t-64.5 12.5q-38 0 -65 -12.5t-44.5 -35t-26 -53t-8.5 -66.5v-108q0 -36 8.5 -66.5t26 -53t44.5 -35t65 -12.5zM282 -12q-53 0 -97 19t-75 54.5t-48 85t-17 111.5q0 61 17 111t48 85.5
t75 54.5t97 19t97 -19t75 -54.5t48 -85.5t17 -111q0 -62 -17 -111.5t-48 -85t-75 -54.5t-97 -19zM192 619q-23 0 -36.5 14.5t-13.5 34.5v3q0 20 13.5 34.5t36.5 14.5t36.5 -14.5t13.5 -34.5v-3q0 -20 -13.5 -34.5t-36.5 -14.5zM374 619q-23 0 -36.5 14.5t-13.5 34.5v3
q0 20 13.5 34.5t36.5 14.5t36.5 -14.5t13.5 -34.5v-3q0 -20 -13.5 -34.5t-36.5 -14.5z" />
    <glyph glyph-name="uni04E8" unicode="&#x4e8;" horiz-adv-x="716" 
d="M358 41q51 0 90.5 18.5t66.5 52t41 79.5t14 101v40h-424v-40q0 -55 14 -101t41 -79.5t66.5 -52t90.5 -18.5zM570 380v26q0 55 -14 101t-41 79.5t-66.5 52t-90.5 18.5t-90.5 -18.5t-66.5 -52t-41 -79.5t-14 -101v-26h424zM358 -12q-69 0 -126 25t-97.5 72t-62.5 113.5
t-22 150.5t22 150.5t62.5 113.5t97.5 72t126 25t126 -25t97.5 -72t62.5 -113.5t22 -150.5t-22 -150.5t-62.5 -113.5t-97.5 -72t-126 -25z" />
    <glyph glyph-name="uni04E9" unicode="&#x4e9;" horiz-adv-x="564" 
d="M282 37q37 0 64.5 12.5t45 35t26 53t8.5 66.5v34h-288v-34q0 -36 8.5 -66.5t26 -53t44.5 -35t65 -12.5zM426 284v28q0 36 -8.5 66.5t-26 53t-45 35t-64.5 12.5q-38 0 -65 -12.5t-44.5 -35t-26 -53t-8.5 -66.5v-28h288zM282 -12q-53 0 -97 19t-75 54.5t-48 85t-17 111.5
q0 61 17 111t48 85.5t75 54.5t97 19t97 -19t75 -54.5t48 -85.5t17 -111q0 -62 -17 -111.5t-48 -85t-75 -54.5t-97 -19z" />
    <glyph glyph-name="uni04EE" unicode="&#x4ee;" horiz-adv-x="649" 
d="M218 -12q-58 0 -91 27t-33 69q0 28 16 46.5t44 18.5q26 0 40 -16t14 -42q0 -20 -10.5 -32.5t-21.5 -16.5v-3q9 -3 19 -5t21 -2q18 0 32.5 4t27 14.5t24.5 29.5t24 48l15 37l-267 487h-57v46h244v-46h-89l135 -246l73 -137h3l54 136l98 247h-87v46h203v-46h-57l-217 -537
q-29 -72 -66 -99.5t-91 -27.5zM214 870h278v-57h-278v57z" />
    <glyph glyph-name="uni04EF" unicode="&#x4ef;" horiz-adv-x="533" 
d="M123 -212q-51 0 -74 21.5t-23 56.5q0 26 14 42t40 16q23 0 35.5 -13.5t12.5 -36.5q0 -17 -8.5 -27.5t-18.5 -13.5v-3q11 -4 26 -4q26 0 51 22.5t45 73.5l21 57l-190 491h-52v46h214v-46h-72l139 -378h4l135 378h-72v46h182v-46h-52l-214 -556q-21 -55 -56.5 -90.5
t-86.5 -35.5zM143 699h278v-57h-278v57z" />
    <glyph glyph-name="uni04F0" unicode="&#x4f0;" horiz-adv-x="649" 
d="M218 -12q-58 0 -91 27t-33 69q0 28 16 46.5t44 18.5q26 0 40 -16t14 -42q0 -20 -10.5 -32.5t-21.5 -16.5v-3q9 -3 19 -5t21 -2q18 0 32.5 4t27 14.5t24.5 29.5t24 48l15 37l-267 487h-57v46h244v-46h-89l135 -246l73 -137h3l54 136l98 247h-87v46h203v-46h-57l-217 -537
q-29 -72 -66 -99.5t-91 -27.5zM262 791q-23 0 -36.5 14.5t-13.5 34.5v3q0 20 13.5 34.5t36.5 14.5t36.5 -14.5t13.5 -34.5v-3q0 -20 -13.5 -34.5t-36.5 -14.5zM444 791q-23 0 -36.5 14.5t-13.5 34.5v3q0 20 13.5 34.5t36.5 14.5t36.5 -14.5t13.5 -34.5v-3q0 -20 -13.5 -34.5
t-36.5 -14.5z" />
    <glyph glyph-name="uni04F1" unicode="&#x4f1;" horiz-adv-x="533" 
d="M123 -212q-51 0 -74 21.5t-23 56.5q0 26 14 42t40 16q23 0 35.5 -13.5t12.5 -36.5q0 -17 -8.5 -27.5t-18.5 -13.5v-3q11 -4 26 -4q26 0 51 22.5t45 73.5l21 57l-190 491h-52v46h214v-46h-72l139 -378h4l135 378h-72v46h182v-46h-52l-214 -556q-21 -55 -56.5 -90.5
t-86.5 -35.5zM191 619q-23 0 -36.5 14.5t-13.5 34.5v3q0 20 13.5 34.5t36.5 14.5t36.5 -14.5t13.5 -34.5v-3q0 -20 -13.5 -34.5t-36.5 -14.5zM373 619q-23 0 -36.5 14.5t-13.5 34.5v3q0 20 13.5 34.5t36.5 14.5t36.5 -14.5t13.5 -34.5v-3q0 -20 -13.5 -34.5t-36.5 -14.5z
" />
    <glyph glyph-name="uni04F2" unicode="&#x4f2;" horiz-adv-x="649" 
d="M218 -12q-58 0 -91 27t-33 69q0 28 16 46.5t44 18.5q26 0 40 -16t14 -42q0 -20 -10.5 -32.5t-21.5 -16.5v-3q9 -3 19 -5t21 -2q18 0 32.5 4t27 14.5t24.5 29.5t24 48l15 37l-267 487h-57v46h244v-46h-89l135 -246l73 -137h3l54 136l98 247h-87v46h203v-46h-57l-217 -537
q-29 -72 -66 -99.5t-91 -27.5zM241 775l76 177l77 -38l-126 -153zM401 775l76 177l77 -38l-126 -153z" />
    <glyph glyph-name="uni04F3" unicode="&#x4f3;" horiz-adv-x="533" 
d="M123 -212q-51 0 -74 21.5t-23 56.5q0 26 14 42t40 16q23 0 35.5 -13.5t12.5 -36.5q0 -17 -8.5 -27.5t-18.5 -13.5v-3q11 -4 26 -4q26 0 51 22.5t45 73.5l21 57l-190 491h-52v46h214v-46h-72l139 -378h4l135 378h-72v46h182v-46h-52l-214 -556q-21 -55 -56.5 -90.5
t-86.5 -35.5zM170 599l76 177l77 -38l-126 -153zM330 599l76 177l77 -38l-126 -153z" />
    <glyph glyph-name="uni04F4" unicode="&#x4f4;" horiz-adv-x="718" 
d="M407 46h95v257h-4q-35 -18 -73 -27.5t-93 -9.5q-62 0 -104 13t-68.5 40t-38 68.5t-11.5 99.5v165h-75v46h236v-46h-75v-162q0 -49 8 -82.5t26 -54t47.5 -29.5t71.5 -9q49 0 88 10.5t65 27.5v299h-75v46h236v-46h-75v-606h75v-46h-256v46zM258 791q-23 0 -36.5 14.5
t-13.5 34.5v3q0 20 13.5 34.5t36.5 14.5t36.5 -14.5t13.5 -34.5v-3q0 -20 -13.5 -34.5t-36.5 -14.5zM440 791q-23 0 -36.5 14.5t-13.5 34.5v3q0 20 13.5 34.5t36.5 14.5t36.5 -14.5t13.5 -34.5v-3q0 -20 -13.5 -34.5t-36.5 -14.5z" />
    <glyph glyph-name="uni04F5" unicode="&#x4f5;" horiz-adv-x="624" 
d="M324 46h94v208h-3q-24 -29 -60.5 -47t-90.5 -18q-78 0 -117 36t-39 118v128h-74v45h225v-45h-69v-120q0 -57 24.5 -81t85.5 -24q53 0 85.5 19t32.5 57v149h-69v45h225v-45h-74v-425h74v-46h-250v46zM213 619q-23 0 -36.5 14.5t-13.5 34.5v3q0 20 13.5 34.5t36.5 14.5
t36.5 -14.5t13.5 -34.5v-3q0 -20 -13.5 -34.5t-36.5 -14.5zM395 619q-23 0 -36.5 14.5t-13.5 34.5v3q0 20 13.5 34.5t36.5 14.5t36.5 -14.5t13.5 -34.5v-3q0 -20 -13.5 -34.5t-36.5 -14.5z" />
    <glyph glyph-name="uni04F8" unicode="&#x4f8;" horiz-adv-x="911" 
d="M55 46h75v606h-75v46h236v-46h-75v-245h149q97 0 149.5 -51.5t52.5 -151.5q0 -101 -52.5 -152.5t-149.5 -51.5h-310v46zM620 46h75v606h-75v46h236v-46h-75v-606h75v-46h-236v46zM361 49q57 0 85.5 34.5t28.5 89.5v62q0 54 -28.5 88.5t-85.5 34.5h-145v-309h145zM364 791
q-23 0 -36.5 14.5t-13.5 34.5v3q0 20 13.5 34.5t36.5 14.5t36.5 -14.5t13.5 -34.5v-3q0 -20 -13.5 -34.5t-36.5 -14.5zM546 791q-23 0 -36.5 14.5t-13.5 34.5v3q0 20 13.5 34.5t36.5 14.5t36.5 -14.5t13.5 -34.5v-3q0 -20 -13.5 -34.5t-36.5 -14.5z" />
    <glyph glyph-name="uni04F9" unicode="&#x4f9;" horiz-adv-x="804" 
d="M50 46h74v425h-74v45h230v-45h-74v-155h124q80 0 122 -40.5t42 -116.5q0 -75 -43.5 -117t-121.5 -42h-279v46zM524 46h74v425h-74v45h230v-45h-74v-425h74v-46h-230v46zM317 49q45 0 66 25.5t21 64.5v38q0 40 -21 65t-66 25h-111v-218h111zM311 619q-23 0 -36.5 14.5
t-13.5 34.5v3q0 20 13.5 34.5t36.5 14.5t36.5 -14.5t13.5 -34.5v-3q0 -20 -13.5 -34.5t-36.5 -14.5zM493 619q-23 0 -36.5 14.5t-13.5 34.5v3q0 20 13.5 34.5t36.5 14.5t36.5 -14.5t13.5 -34.5v-3q0 -20 -13.5 -34.5t-36.5 -14.5z" />
    <glyph glyph-name="uni0E3F" unicode="&#xe3f;" horiz-adv-x="631" 
d="M306 21h-254v46h75v564h-75v46h254v103h52v-103h24q41 0 74.5 -12.5t57 -33.5t36.5 -50t13 -62q0 -34 -12.5 -60.5t-32 -46t-44 -31.5t-48.5 -17v-3q27 -3 54.5 -14.5t50.5 -31.5t37.5 -49.5t14.5 -66.5q0 -38 -13.5 -70.5t-37.5 -56.5t-56.5 -37.5t-70.5 -13.5h-47v-103
h-52v103zM356 69h18q57 0 88.5 33.5t31.5 84.5v31q0 51 -31.5 84.5t-88.5 33.5h-18v-267zM356 383h9q51 0 80.5 30t29.5 77v31q0 47 -29.5 77.5t-80.5 30.5h-9v-246zM211 69h97v267h-97v-267zM211 383h97v246h-97v-246z" />
    <glyph glyph-name="Wgrave" unicode="&#x1e80;" horiz-adv-x="968" 
d="M76 652h-53v46h234v-46h-90l130 -550h4l153 596h85l157 -596h4l131 550h-90v46h204v-46h-53l-166 -652h-83l-159 584h-4l-155 -584h-83zM378 914l77 38l76 -177l-27 -14z" />
    <glyph glyph-name="wgrave" unicode="&#x1e81;" horiz-adv-x="777" 
d="M60 470h-52v46h207v-46h-72l103 -390h4l125 436h69l115 -436h4l105 390h-72v46h173v-46h-52l-131 -470h-80l-111 405h-4l-121 -405h-80zM290 738l77 38l76 -177l-27 -14z" />
    <glyph glyph-name="Wacute" unicode="&#x1e82;" horiz-adv-x="968" 
d="M76 652h-53v46h234v-46h-90l130 -550h4l153 596h85l157 -596h4l131 550h-90v46h204v-46h-53l-166 -652h-83l-159 584h-4l-155 -584h-83zM463 775l76 177l77 -38l-126 -153z" />
    <glyph glyph-name="wacute" unicode="&#x1e83;" horiz-adv-x="777" 
d="M60 470h-52v46h207v-46h-72l103 -390h4l125 436h69l115 -436h4l105 390h-72v46h173v-46h-52l-131 -470h-80l-111 405h-4l-121 -405h-80zM375 599l76 177l77 -38l-126 -153z" />
    <glyph glyph-name="Wdieresis" unicode="&#x1e84;" horiz-adv-x="968" 
d="M76 652h-53v46h234v-46h-90l130 -550h4l153 596h85l157 -596h4l131 550h-90v46h204v-46h-53l-166 -652h-83l-159 584h-4l-155 -584h-83zM406 791q-23 0 -36.5 14.5t-13.5 34.5v3q0 20 13.5 34.5t36.5 14.5t36.5 -14.5t13.5 -34.5v-3q0 -20 -13.5 -34.5t-36.5 -14.5z
M588 791q-23 0 -36.5 14.5t-13.5 34.5v3q0 20 13.5 34.5t36.5 14.5t36.5 -14.5t13.5 -34.5v-3q0 -20 -13.5 -34.5t-36.5 -14.5z" />
    <glyph glyph-name="wdieresis" unicode="&#x1e85;" horiz-adv-x="777" 
d="M60 470h-52v46h207v-46h-72l103 -390h4l125 436h69l115 -436h4l105 390h-72v46h173v-46h-52l-131 -470h-80l-111 405h-4l-121 -405h-80zM318 619q-23 0 -36.5 14.5t-13.5 34.5v3q0 20 13.5 34.5t36.5 14.5t36.5 -14.5t13.5 -34.5v-3q0 -20 -13.5 -34.5t-36.5 -14.5z
M500 619q-23 0 -36.5 14.5t-13.5 34.5v3q0 20 13.5 34.5t36.5 14.5t36.5 -14.5t13.5 -34.5v-3q0 -20 -13.5 -34.5t-36.5 -14.5z" />
    <glyph glyph-name="uni1E9E" unicode="&#x1e9e;" horiz-adv-x="721" 
d="M447 -12q-75 0 -113.5 29t-38.5 72q0 29 16 47.5t44 18.5q26 0 40 -15.5t14 -40.5q0 -21 -10 -33.5t-22 -17.5v-3q24 -11 70 -11q57 0 95 33t38 102v42q0 79 -35.5 109.5t-112.5 30.5h-61v48l173 250h-328v-649h-161v46h75v606h-75v46h587v-41l-176 -256v-4
q210 0 210 -205q0 -51 -16.5 -89.5t-46.5 -64t-72.5 -38t-93.5 -12.5z" />
    <glyph glyph-name="uni1EA0" unicode="&#x1ea0;" horiz-adv-x="686" 
d="M16 46h53l227 652h95l226 -652h53v-46h-236v46h90l-62 181h-272l-62 -181h90v-46h-202v46zM204 275h243l-117 350h-6zM327 -162q-23 0 -36.5 14.5t-13.5 34.5v3q0 20 13.5 34.5t36.5 14.5t36.5 -14.5t13.5 -34.5v-3q0 -20 -13.5 -34.5t-36.5 -14.5z" />
    <glyph glyph-name="uni1EA1" unicode="&#x1ea1;" horiz-adv-x="546" 
d="M203 -12q-72 0 -112.5 37.5t-40.5 102.5q0 37 12 65.5t39.5 47.5t71.5 29t107 10h74v76q0 61 -29.5 93.5t-88.5 32.5q-26 0 -48 -4.5t-36 -12.5v-2q11 -6 21.5 -18t10.5 -34q0 -26 -15 -40.5t-40 -14.5q-24 0 -39.5 14.5t-15.5 43.5q0 22 13 42.5t37 36.5t59.5 25.5
t80.5 9.5q81 0 126.5 -42t45.5 -118v-325h75v-35q-11 -8 -29.5 -14t-41.5 -6q-39 0 -60 22t-21 59v7h-5q-7 -17 -18.5 -33t-29.5 -28t-43.5 -19.5t-59.5 -7.5zM238 43q48 0 82 24.5t34 75.5v97h-65q-43 0 -72 -6.5t-46 -19t-24.5 -30.5t-7.5 -42v-21q0 -38 26 -58t73 -20z
M244 -162q-23 0 -36.5 14.5t-13.5 34.5v3q0 20 13.5 34.5t36.5 14.5t36.5 -14.5t13.5 -34.5v-3q0 -20 -13.5 -34.5t-36.5 -14.5z" />
    <glyph glyph-name="uni1EA2" unicode="&#x1ea2;" horiz-adv-x="686" 
d="M16 46h53l227 652h95l226 -652h53v-46h-236v46h90l-62 181h-272l-62 -181h90v-46h-202v46zM204 275h243l-117 350h-6zM329 763l54 108h-123v62h106q35 0 50 -15t15 -36q0 -20 -12 -44.5t-35 -54.5l-27 -34z" />
    <glyph glyph-name="uni1EA3" unicode="&#x1ea3;" horiz-adv-x="546" 
d="M203 -12q-72 0 -112.5 37.5t-40.5 102.5q0 37 12 65.5t39.5 47.5t71.5 29t107 10h74v76q0 61 -29.5 93.5t-88.5 32.5q-26 0 -48 -4.5t-36 -12.5v-2q11 -6 21.5 -18t10.5 -34q0 -26 -15 -40.5t-40 -14.5q-24 0 -39.5 14.5t-15.5 43.5q0 22 13 42.5t37 36.5t59.5 25.5
t80.5 9.5q81 0 126.5 -42t45.5 -118v-325h75v-35q-11 -8 -29.5 -14t-41.5 -6q-39 0 -60 22t-21 59v7h-5q-7 -17 -18.5 -33t-29.5 -28t-43.5 -19.5t-59.5 -7.5zM238 43q48 0 82 24.5t34 75.5v97h-65q-43 0 -72 -6.5t-46 -19t-24.5 -30.5t-7.5 -42v-21q0 -38 26 -58t73 -20z
M250 592l54 108h-123v62h106q35 0 50 -15t15 -36q0 -20 -12 -44.5t-35 -54.5l-27 -34z" />
    <glyph glyph-name="uni1EA4" unicode="&#x1ea4;" horiz-adv-x="686" 
d="M16 46h53l227 652h95l226 -652h53v-46h-236v46h90l-62 181h-272l-62 -181h90v-46h-202v46zM204 275h243l-117 350h-6zM192 766l123 149h56l123 -149l-24 -16l-127 100l-127 -100zM446 887l76 173l73 -36l-121 -151z" />
    <glyph glyph-name="uni1EA5" unicode="&#x1ea5;" horiz-adv-x="546" 
d="M203 -12q-72 0 -112.5 37.5t-40.5 102.5q0 37 12 65.5t39.5 47.5t71.5 29t107 10h74v76q0 61 -29.5 93.5t-88.5 32.5q-26 0 -48 -4.5t-36 -12.5v-2q11 -6 21.5 -18t10.5 -34q0 -26 -15 -40.5t-40 -14.5q-24 0 -39.5 14.5t-15.5 43.5q0 22 13 42.5t37 36.5t59.5 25.5
t80.5 9.5q81 0 126.5 -42t45.5 -118v-325h75v-35q-11 -8 -29.5 -14t-41.5 -6q-39 0 -60 22t-21 59v7h-5q-7 -17 -18.5 -33t-29.5 -28t-43.5 -19.5t-59.5 -7.5zM238 43q48 0 82 24.5t34 75.5v97h-65q-43 0 -72 -6.5t-46 -19t-24.5 -30.5t-7.5 -42v-21q0 -38 26 -58t73 -20z
M113 595l123 149h56l123 -149l-24 -16l-127 100l-127 -100zM367 716l76 173l73 -36l-121 -151z" />
    <glyph glyph-name="uni1EA6" unicode="&#x1ea6;" horiz-adv-x="686" 
d="M16 46h53l227 652h95l226 -652h53v-46h-236v46h90l-62 181h-272l-62 -181h90v-46h-202v46zM204 275h243l-117 350h-6zM192 766l123 149h56l123 -149l-24 -16l-127 100l-127 -100zM91 1024l73 36l76 -173l-28 -14z" />
    </font>
</defs>
</svg>
