<?xml version="1.0" standalone="no"?>
<!DOCTYPE svg PUBLIC "-//W3C//DTD SVG 1.1//EN" "http://www.w3.org/Graphics/SVG/1.1/DTD/svg11.dtd" >
<svg xmlns="http://www.w3.org/2000/svg" xmlns:xlink="http://www.w3.org/1999/xlink" version="1.1">
<metadata>
Created by FontForge 20170731 at Thu Jun 17 14:12:05 2021
 By Aleksey,,,
Copyright 2020 IBM Corp. All rights reserved.
</metadata>
<defs>
<font id="IBMPlexSerif-Medium" horiz-adv-x="600" >
  <font-face 
    font-family="IBM Plex Serif Medium"
    font-weight="500"
    font-stretch="normal"
    units-per-em="1000"
    panose-1="2 6 6 3 5 4 6 0 2 3"
    ascent="800"
    descent="-200"
    x-height="520"
    cap-height="698"
    bbox="-270 -263 1249 1133"
    underline-thickness="52"
    underline-position="-144"
    unicode-range="U+000D-FB02"
  />
<missing-glyph horiz-adv-x="464" 
d="M32 0v780h400v-780h-400zM84 52h296v676h-296v-676z" />
    <glyph glyph-name="fi" unicode="fi" horiz-adv-x="641" 
d="M41 54h68v408h-68v58h68v23q0 103 64 160t177 57q90 0 134.5 -27t44.5 -73q0 -28 -17.5 -45.5t-45.5 -17.5t-43.5 16.5t-15.5 39.5q0 20 8.5 31.5t19.5 15.5v4q-11 4 -29.5 7t-45.5 3q-71 0 -105 -43t-34 -120v-31h176l145 12v-478h68v-54h-246v54h66v408h-209v-408h66
v-54h-246v54z" />
    <glyph glyph-name="fl" unicode="fl" horiz-adv-x="648" 
d="M41 54h68v408h-68v58h68v44q0 91 58 143.5t159 52.5q40 0 66.5 -6t45.5 -17l111 23v-706h68v-54h-248v54h68v634q-20 9 -41.5 12.5t-48.5 3.5q-59 0 -92.5 -31t-33.5 -93v-60h102v-58h-102v-408h68v-54h-248v54z" />
    <glyph glyph-name=".notdef" horiz-adv-x="464" 
d="M32 0v780h400v-780h-400zM84 52h296v676h-296v-676z" />
    <glyph glyph-name=".null" horiz-adv-x="0" 
 />
    <glyph glyph-name=".null" horiz-adv-x="0" 
 />
    <glyph glyph-name="uni000D" unicode="&#xd;" horiz-adv-x="232" 
 />
    <glyph glyph-name="space" unicode=" " horiz-adv-x="232" 
 />
    <glyph glyph-name="exclam" unicode="!" horiz-adv-x="292" 
d="M146 -12q-35 0 -54.5 21t-19.5 50v6q0 29 19.5 50t54.5 21t54.5 -21t19.5 -50v-6q0 -29 -19.5 -50t-54.5 -21zM87 519v179h118v-179l-36 -321h-46z" />
    <glyph glyph-name="quotedbl" unicode="&#x22;" horiz-adv-x="444" 
d="M77 646v102h95v-102l-29 -195h-37zM272 646v102h95v-102l-29 -195h-37z" />
    <glyph glyph-name="numbersign" unicode="#" horiz-adv-x="671" 
d="M163 197h-120v64h130l30 176h-119v64h130l34 197h67l-33 -197h158l34 197h67l-33 -197h120v-64h-130l-30 -176h119v-64h-130l-34 -197h-67l33 197h-158l-34 -197h-67zM241 261h159l30 176h-159z" />
    <glyph glyph-name="dollar" unicode="$" horiz-adv-x="593" 
d="M270 -5q-100 5 -152.5 42t-52.5 89q0 34 19 54.5t51 20.5q34 0 51 -20.5t17 -47.5q0 -22 -10.5 -38t-28.5 -25v-4q17 -7 44.5 -11.5t63.5 -6.5v256q-100 25 -152.5 75.5t-52.5 136.5q0 81 54.5 129.5t148.5 56.5v78h58v-78q93 -5 141.5 -41t48.5 -87q0 -34 -19 -54.5
t-51 -20.5q-34 0 -51 20.5t-17 47.5q0 22 10.5 38t28.5 25v4q-17 6 -39.5 10t-53.5 6v-240l16 -4q100 -25 146.5 -74.5t46.5 -130.5q0 -85 -54 -139.5t-153 -64.5v-79h-58v77zM272 648q-57 -6 -86 -35.5t-29 -72.5q0 -45 27 -72t88 -44v224zM326 50q59 8 88.5 39.5
t29.5 81.5q0 48 -27.5 76.5t-90.5 42.5v-240z" />
    <glyph glyph-name="percent" unicode="%" horiz-adv-x="919" 
d="M226 361q36 0 54.5 25.5t18.5 79.5v92q0 54 -18.5 79.5t-54.5 25.5t-54.5 -25.5t-18.5 -79.5v-92q0 -54 18.5 -79.5t54.5 -25.5zM693 35q36 0 54.5 25.5t18.5 79.5v92q0 54 -18.5 79.5t-54.5 25.5t-54.5 -25.5t-18.5 -79.5v-92q0 -54 18.5 -79.5t54.5 -25.5zM226 314
q-78 0 -122.5 50.5t-44.5 147.5t44.5 147.5t122.5 50.5t122.5 -50.5t44.5 -147.5t-44.5 -147.5t-122.5 -50.5zM693 -12q-78 0 -122.5 50.5t-44.5 147.5t44.5 147.5t122.5 50.5t122.5 -50.5t44.5 -147.5t-44.5 -147.5t-122.5 -50.5zM665 698h68l-479 -698h-68z" />
    <glyph glyph-name="ampersand" unicode="&#x26;" horiz-adv-x="726" 
d="M292 -12q-116 0 -182.5 50.5t-66.5 138.5q0 37 11.5 66.5t32.5 53.5t50 43.5t65 36.5l-13 15q-31 34 -51 73.5t-20 86.5q0 36 14.5 65.5t40.5 50t63 31.5t82 11q86 0 137.5 -36.5t51.5 -101.5q0 -31 -14.5 -58t-39.5 -49.5t-57 -42t-66 -35.5l184 -206q16 32 26 70t13 79
h-71v55h205v-55h-74q-6 -54 -21.5 -103t-39.5 -89l35 -40q20 -23 44.5 -33.5t65.5 -10.5v-54h-92q-37 0 -63.5 11.5t-50.5 37.5l-8 9q-38 -34 -85.5 -52t-105.5 -18zM300 422q51 29 76 60.5t25 71.5v15q0 38 -22.5 61.5t-64.5 23.5t-64 -26t-22 -65v-13q0 -33 20.5 -63
t51.5 -65zM318 51q40 0 72 12t58 35l-212 240q-40 -29 -55 -62.5t-15 -76.5v-20q0 -58 42 -93t110 -35z" />
    <glyph glyph-name="quotesingle" unicode="'" horiz-adv-x="249" 
d="M77 646v102h95v-102l-29 -195h-37z" />
    <glyph glyph-name="parenleft" unicode="(" horiz-adv-x="336" 
d="M309 -155q-47 26 -93 70.5t-83 104.5t-60 133.5t-23 158.5t23 158.5t60 133.5t83 104.5t93 70.5l30 -40q-41 -30 -72 -73t-53 -94t-33 -107.5t-11 -114.5v-76q0 -58 11 -114.5t33 -107.5t53 -94t72 -73l-30 -40v0z" />
    <glyph glyph-name="parenright" unicode=")" horiz-adv-x="336" 
d="M-3 -115q40 30 71.5 73t53.5 94t33 107.5t11 114.5v76q0 58 -11 114.5t-33 107.5t-53.5 94t-71.5 73l30 40q46 -26 92.5 -70.5t83.5 -104.5t60 -133.5t23 -158.5t-23 -158.5t-60 -133.5t-83.5 -104.5t-92.5 -70.5z" />
    <glyph glyph-name="asterisk" unicode="*" horiz-adv-x="506" 
d="M89 389l34 46l91 74l27 -21l-41 -109l-34 -46zM90 536l-55 18l30 92l54 -19l97 -63l-10 -34zM206 690v57h94v-57l-30 -113h-34zM306 379l-41 109l27 21l91 -74l34 -46l-77 -56zM290 564l97 63l54 19l30 -92l-55 -18l-116 -6z" />
    <glyph glyph-name="plus" unicode="+" 
d="M264 271h-198v68h198v195h72v-195h198v-68h-198v-195h-72v195z" />
    <glyph glyph-name="comma" unicode="," horiz-adv-x="272" 
d="M37 -140q38 32 62.5 64t33.5 64h-2q-30 0 -49.5 20t-19.5 51v6q0 29 19.5 50t54.5 21t54.5 -21t19.5 -50v-15q0 -25 -8.5 -51.5t-22.5 -51.5t-33.5 -47.5t-41.5 -39.5h-67v0z" />
    <glyph glyph-name="hyphen" unicode="-" horiz-adv-x="396" 
d="M59 348h278v-86h-278v86z" />
    <glyph glyph-name="period" unicode="." horiz-adv-x="272" 
d="M136 -12q-35 0 -54.5 21t-19.5 50v6q0 29 19.5 50t54.5 21t54.5 -21t19.5 -50v-6q0 -29 -19.5 -50t-54.5 -21z" />
    <glyph glyph-name="slash" unicode="/" horiz-adv-x="392" 
d="M280 748h72l-273 -891h-72z" />
    <glyph glyph-name="zero" unicode="0" 
d="M300 47q38 0 63 15.5t39.5 45t20.5 72t6 96.5v146q0 54 -6 96.5t-20.5 72t-39.5 45t-63 15.5t-63 -15.5t-39.5 -45t-20.5 -72t-6 -96.5v-146q0 -54 6 -96.5t20.5 -72t39.5 -45t63 -15.5zM300 -12q-126 0 -191 92.5t-65 268.5t65 268.5t191 92.5t191 -92.5t65 -268.5
t-65 -268.5t-191 -92.5z" />
    <glyph glyph-name="one" unicode="1" 
d="M88 54h166v556l-174 -72l-20 48l215 112h97v-644h160v-54h-444v54z" />
    <glyph glyph-name="two" unicode="2" 
d="M50 84l215 215q48 48 76 96.5t28 107.5v25q0 60 -34 94t-93 34q-27 0 -48 -5t-35 -12v-4q14 -8 25.5 -23t11.5 -36q0 -29 -18 -49.5t-51 -20.5q-32 0 -50.5 20.5t-18.5 54.5q0 26 15 49.5t42 41t64.5 28t83.5 10.5q110 0 171.5 -50.5t61.5 -141.5q0 -44 -14 -79.5
t-37.5 -67t-54.5 -59.5t-65 -56l-184 -153v-4h321v94h60v-193h-472v84z" />
    <glyph glyph-name="three" unicode="3" 
d="M268 -12q-50 0 -89.5 10.5t-67.5 28.5t-42.5 41.5t-14.5 48.5q0 34 18.5 54.5t50.5 20.5q33 0 51 -20.5t18 -49.5q0 -21 -11.5 -36t-25.5 -23v-4q34 -16 93 -16q74 0 113.5 31.5t39.5 97.5v34q0 63 -37.5 96t-114.5 33h-73v60h69q73 0 108.5 32.5t35.5 83.5v32
q0 56 -34.5 84t-91.5 28q-29 0 -52 -4t-37 -12v-4q14 -8 25.5 -23t11.5 -36q0 -29 -18 -49.5t-51 -20.5q-32 0 -50.5 20.5t-18.5 54.5q0 25 14 48t40.5 41t65 29t86.5 11q53 0 97 -11t75 -32.5t48 -54t17 -75.5q0 -34 -14 -62t-37.5 -49t-53.5 -34.5t-61 -19.5v-5
q33 -5 65 -18t57 -34.5t40.5 -52.5t15.5 -71q0 -94 -68.5 -148.5t-191.5 -54.5z" />
    <glyph glyph-name="four" unicode="4" 
d="M345 161h-310v74l307 463h117v-452h100v-85h-100v-161h-114v161zM105 246h240v355h-5z" />
    <glyph glyph-name="five" unicode="5" 
d="M268 -12q-49 0 -88 10.5t-66 28.5t-41.5 41.5t-14.5 48.5q0 34 18.5 54.5t50.5 20.5q33 0 51 -20.5t18 -49.5q0 -21 -11.5 -36t-25.5 -23v-4q15 -7 39 -11.5t53 -4.5q76 0 115 37.5t39 109.5v24q0 69 -34.5 107t-102.5 38q-43 0 -72 -18.5t-44 -43.5l-62 12l26 389h383
v-110h-334l-18 -246l4 -1q9 17 23.5 33.5t34.5 29t46 20.5t58 8q48 0 88 -14.5t69 -42t45.5 -68.5t16.5 -95q0 -51 -19 -92t-53.5 -70.5t-83 -45.5t-108.5 -16z" />
    <glyph glyph-name="six" unicode="6" 
d="M304 -12q-118 0 -182 74.5t-64 204.5q0 99 30.5 177t84 133.5t126 89t156.5 43.5l14 -47q-129 -28 -203.5 -113t-85.5 -206l5 -1q7 18 20.5 35.5t34 32t47 23t59.5 8.5q96 0 149 -58t53 -161q0 -52 -17.5 -95.5t-49.5 -74.5t-77 -48t-100 -17zM303 47q34 0 57 11
t37.5 31.5t20.5 48.5t6 61v20q0 33 -6 61t-20.5 48.5t-37.5 31.5t-57 11t-57 -11t-37.5 -31.5t-20.5 -48.5t-6 -61v-20q0 -33 6 -61t20.5 -48.5t37.5 -31.5t57 -11z" />
    <glyph glyph-name="seven" unicode="7" 
d="M460 588h-335v-111h-60v221h470v-87l-252 -611h-107z" />
    <glyph glyph-name="eight" unicode="8" 
d="M300 -12q-118 0 -184 52.5t-66 145.5q0 40 14.5 71t38 52.5t53.5 34t62 17.5v7q-27 4 -53.5 16.5t-47.5 33.5t-34 49.5t-13 64.5q0 84 62.5 131t167.5 47t167.5 -47t62.5 -131q0 -36 -13 -64.5t-34.5 -49.5t-48 -33.5t-53.5 -16.5v-7q32 -5 62.5 -17.5t54 -34t38 -52.5
t14.5 -71q0 -93 -66 -145.5t-184 -52.5zM300 44q67 0 96.5 38.5t29.5 98.5v21q0 60 -29.5 98.5t-96.5 38.5q-34 0 -58 -10t-39 -28.5t-22 -43.5t-7 -55v-21q0 -30 7 -55t22 -43.5t39 -28.5t58 -10zM300 392q31 0 52 10t33.5 26.5t17.5 39t5 48.5v15q0 25 -5 48t-17.5 39.5
t-33.5 26.5t-52 10t-52 -10t-33.5 -26.5t-17.5 -39.5t-5 -48v-15q0 -26 5 -48.5t17.5 -39t33.5 -26.5t52 -10z" />
    <glyph glyph-name="nine" unicode="9" 
d="M131 35q129 28 203.5 113t85.5 206l-5 1q-7 -18 -20.5 -35.5t-34 -32t-47 -23t-59.5 -8.5q-96 0 -149 58t-53 161q0 52 17.5 95.5t49.5 74.5t77 48t100 17q118 0 182 -74.5t64 -204.5q0 -99 -30.5 -177t-84 -133.5t-126 -89t-156.5 -43.5zM297 327q34 0 57 11t37.5 31.5
t20.5 48.5t6 61v20q0 33 -6 61t-20.5 48.5t-37.5 31.5t-57 11t-57 -11t-37.5 -31.5t-20.5 -48.5t-6 -61v-20q0 -33 6 -61t20.5 -48.5t37.5 -31.5t57 -11z" />
    <glyph glyph-name="colon" unicode=":" horiz-adv-x="292" 
d="M146 -12q-35 0 -54.5 21t-19.5 50v6q0 29 19.5 50t54.5 21t54.5 -21t19.5 -50v-6q0 -29 -19.5 -50t-54.5 -21zM146 384q-35 0 -54.5 21t-19.5 50v6q0 29 19.5 50t54.5 21t54.5 -21t19.5 -50v-6q0 -29 -19.5 -50t-54.5 -21z" />
    <glyph glyph-name="semicolon" unicode=";" horiz-adv-x="293" 
d="M47 -140q38 32 62.5 64t33.5 64h-2q-30 0 -49.5 20t-19.5 51v6q0 29 19.5 50t54.5 21t54.5 -21t19.5 -50v-15q0 -25 -8.5 -51.5t-22.5 -51.5t-33.5 -47.5t-41.5 -39.5h-67v0zM147 384q-35 0 -54.5 21t-19.5 50v6q0 29 19.5 50t54.5 21t54.5 -21t19.5 -50v-6
q0 -29 -19.5 -50t-54.5 -21z" />
    <glyph glyph-name="less" unicode="&#x3c;" 
d="M90 230v73l420 242v-80l-339 -195v-7l339 -195v-80z" />
    <glyph glyph-name="equal" unicode="=" 
d="M66 233h468v-68h-468v68zM66 445h468v-68h-468v68z" />
    <glyph glyph-name="greater" unicode="&#x3e;" 
d="M90 68l339 195v7l-339 195v80l420 -242v-73l-420 -242v80z" />
    <glyph glyph-name="question" unicode="?" horiz-adv-x="501" 
d="M165 379q80 3 126.5 35.5t46.5 99.5v21q0 59 -33 89.5t-86 30.5q-29 0 -49 -4.5t-34 -12.5v-3q14 -8 25.5 -23t11.5 -36q0 -29 -18 -49.5t-51 -20.5q-32 0 -50.5 20.5t-18.5 54.5q0 26 15.5 49.5t42.5 41t64.5 28t82.5 10.5q108 0 166 -50t58 -135q0 -47 -18 -83.5
t-49.5 -62.5t-74.5 -41.5t-92 -20.5v-101h-65v163zM198 -12q-35 0 -54.5 21t-19.5 50v6q0 29 19.5 50t54.5 21t54.5 -21t19.5 -50v-6q0 -29 -19.5 -50t-54.5 -21z" />
    <glyph glyph-name="at" unicode="@" horiz-adv-x="914" 
d="M454 -121q-89 0 -160 29.5t-121 83.5t-77 129.5t-27 168.5t27.5 170t78.5 132.5t122.5 86.5t160.5 31q86 0 157.5 -28t122.5 -78.5t79 -121.5t28 -157q0 -54 -10 -100.5t-31 -81t-53.5 -54.5t-77.5 -20q-54 0 -84.5 24.5t-35.5 65.5h-5q-15 -41 -43.5 -65.5t-75.5 -24.5
q-34 0 -64 13.5t-52 41t-35 68.5t-13 97q0 55 13 96.5t35 69t52 41t64 13.5q45 0 73 -22.5t39 -55.5h5l39 69h44v-315q0 -70 52 -70q43 0 67 46t24 146v43q0 68 -22 125t-63 98t-99 64t-130 23q-74 0 -132.5 -26t-99 -72t-62.5 -109t-22 -136v-50q0 -75 22 -136.5t62.5 -106
t98.5 -68.5t129 -24h225v-34q-48 -8 -108 -13.5t-117 -5.5zM450 127q45 0 68 23t23 61v156q0 38 -23 61t-68 23t-67.5 -29t-22.5 -77v-112q0 -48 22.5 -77t67.5 -29z" />
    <glyph glyph-name="A" unicode="A" horiz-adv-x="692" 
d="M15 54h52l222 644h114l222 -644h52v-54h-261v54h86l-56 167h-253l-56 -167h86v-54h-208v54zM209 278h221l-108 326h-5z" />
    <glyph glyph-name="B" unicode="B" horiz-adv-x="685" 
d="M49 54h73v590h-73v54h346q103 0 155 -46t52 -119q0 -37 -12 -65.5t-31.5 -48.5t-44.5 -33t-52 -18v-5q28 -3 57.5 -14t54 -32t40 -51.5t15.5 -71.5q0 -91 -55 -142.5t-153 -51.5h-372v54zM241 58h146q57 0 88 31.5t31 82.5v45q0 51 -31 82.5t-88 31.5h-146v-273zM241 390
h129q54 0 81.5 28t27.5 75v44q0 47 -27.5 75t-81.5 28h-129v-250z" />
    <glyph glyph-name="C" unicode="C" horiz-adv-x="656" 
d="M351 -12q-70 0 -125.5 26.5t-94.5 74t-59.5 114t-20.5 146.5q0 87 22.5 154.5t61.5 113.5t92.5 69.5t115.5 23.5q65 0 104.5 -22t53.5 -51h5v61h91v-212h-91v49q0 51 -39.5 81.5t-107.5 30.5q-45 0 -78.5 -15.5t-55 -44t-32.5 -68t-11 -86.5v-156q0 -103 51.5 -158
t140.5 -55q68 0 114.5 35.5t68.5 92.5l47 -25q-11 -33 -32.5 -65t-53.5 -57.5t-74 -41t-93 -15.5z" />
    <glyph glyph-name="D" unicode="D" horiz-adv-x="728" 
d="M49 54h73v590h-73v54h307q70 0 129 -22.5t102 -66.5t66.5 -109t23.5 -151t-23.5 -151t-66.5 -109t-102 -66.5t-129 -22.5h-307v54zM241 59h98q103 0 155 55t52 161v148q0 106 -52 161t-155 55h-98v-580z" />
    <glyph glyph-name="E" unicode="E" horiz-adv-x="649" 
d="M49 54h73v590h-73v54h534v-176h-91v117h-251v-248h170v71h66v-201h-66v71h-170v-273h261v130h91v-189h-544v54z" />
    <glyph glyph-name="F" unicode="F" horiz-adv-x="632" 
d="M49 54h73v590h-73v54h534v-176h-91v117h-251v-263h170v71h66v-201h-66v71h-170v-263h93v-54h-285v54z" />
    <glyph glyph-name="G" unicode="G" horiz-adv-x="744" 
d="M350 -12q-66 0 -121 25t-94.5 71.5t-61.5 113.5t-22 151q0 87 23 154.5t64 113.5t98.5 69.5t125.5 23.5q76 0 118.5 -22.5t54.5 -50.5h5v61h91v-212h-91v47q0 54 -40.5 84t-117.5 30q-103 0 -151.5 -57.5t-48.5 -163.5v-154q0 -102 49 -159t133 -57q74 0 117.5 37
t43.5 102v94h-114v54h290v-54h-58v-289h-43l-53 98h-5q-7 -18 -22.5 -37.5t-40 -35.5t-57 -26.5t-72.5 -10.5z" />
    <glyph glyph-name="H" unicode="H" horiz-adv-x="799" 
d="M49 54h73v590h-73v54h265v-54h-73v-257h317v257h-73v54h265v-54h-73v-590h73v-54h-265v54h73v274h-317v-274h73v-54h-265v54z" />
    <glyph glyph-name="I" unicode="I" horiz-adv-x="363" 
d="M49 54h73v590h-73v54h265v-54h-73v-590h73v-54h-265v54z" />
    <glyph glyph-name="J" unicode="J" horiz-adv-x="481" 
d="M162 -12q-75 0 -111.5 29t-36.5 75q0 29 18 49.5t50 20.5q28 0 45 -17.5t17 -44.5q0 -20 -9 -33t-20 -18v-4q20 -5 46 -5q43 0 65 26t22 85v493h-93v54h285v-54h-73v-465q0 -91 -50.5 -141t-154.5 -50z" />
    <glyph glyph-name="K" unicode="K" horiz-adv-x="735" 
d="M49 54h73v590h-73v54h265v-54h-73v-312h5l102 113l183 199h-76v54h227v-54h-69l-201 -214l238 -376h65v-54h-271v54h69l-182 294l-90 -95v-199h73v-54h-265v54z" />
    <glyph glyph-name="L" unicode="L" horiz-adv-x="606" 
d="M49 54h73v590h-73v54h265v-54h-73v-585h228v130h91v-189h-511v54z" />
    <glyph glyph-name="M" unicode="M" horiz-adv-x="882" 
d="M49 54h73v590h-73v54h208l184 -391h3l185 391h204v-54h-73v-590h73v-54h-264v54h73v534h-5l-50 -118l-173 -357l-172 357l-50 118h-5v-534h73v-54h-211v54z" />
    <glyph glyph-name="N" unicode="N" horiz-adv-x="784" 
d="M49 54h73v590h-73v54h212l337 -533h5v479h-73v54h211v-54h-73v-644h-101l-375 593h-5v-539h73v-54h-211v54z" />
    <glyph glyph-name="O" unicode="O" horiz-adv-x="736" 
d="M368 50q86 0 136 57.5t50 160.5v162q0 103 -50 160.5t-136 57.5t-136 -57.5t-50 -160.5v-162q0 -103 50 -160.5t136 -57.5zM368 -12q-70 0 -128 24.5t-100 71t-65.5 113.5t-23.5 152t23.5 152t65.5 113.5t100 71t128 24.5t128 -24.5t100 -71t65.5 -113.5t23.5 -152
t-23.5 -152t-65.5 -113.5t-100 -71t-128 -24.5z" />
    <glyph glyph-name="P" unicode="P" horiz-adv-x="650" 
d="M49 54h73v590h-73v54h352q101 0 153.5 -48t52.5 -141q0 -94 -55 -145t-156 -51h-155v-259h95v-54h-287v54zM241 372h133q53 0 81.5 30t28.5 80v47q0 50 -28.5 80t-81.5 30h-133v-267z" />
    <glyph glyph-name="Q" unicode="Q" horiz-adv-x="736" 
d="M518 -178q-57 0 -90 19t-63 63l-60 89q-57 10 -104 38.5t-80 74t-51.5 107t-18.5 136.5q0 85 23.5 152t65.5 113.5t100 71t128 24.5t128 -24.5t100 -71t65.5 -113.5t23.5 -152q0 -76 -18.5 -137.5t-52.5 -106.5t-81.5 -73.5t-104.5 -38.5l53 -70q20 -27 40 -37.5
t52 -10.5h25v-53h-80zM368 50q86 0 136 57.5t50 160.5v162q0 103 -50 160.5t-136 57.5t-136 -57.5t-50 -160.5v-162q0 -103 50 -160.5t136 -57.5z" />
    <glyph glyph-name="R" unicode="R" horiz-adv-x="699" 
d="M49 54h73v590h-73v54h355q46 0 83.5 -11t64 -33.5t41 -57t14.5 -80.5q0 -72 -41.5 -118.5t-112.5 -60.5l122 -217q20 -35 43.5 -50.5t58.5 -15.5h7v-54h-77q-32 0 -54.5 5.5t-39.5 17t-30 29t-25 41.5l-117 223h-100v-262h73v-54h-265v54zM241 372h133q53 0 81.5 30
t28.5 80v47q0 50 -28.5 80t-81.5 30h-133v-267z" />
    <glyph glyph-name="S" unicode="S" horiz-adv-x="605" 
d="M305 -12q-62 0 -100.5 21t-52.5 50h-5v-59h-91v205h91v-45q0 -52 34.5 -81t110.5 -29q80 0 116 33t36 88q0 49 -27 75.5t-91 42.5l-51 12q-49 11 -88 29t-66 44t-41.5 61t-14.5 82q0 43 16 78.5t45.5 61t71.5 39.5t95 14q60 0 96 -20t50 -47h5v55h91v-199h-91v45
q0 51 -34.5 77.5t-108.5 26.5q-69 0 -102.5 -30.5t-33.5 -77.5q0 -50 30.5 -77t100.5 -44l47 -10q97 -23 150 -72.5t53 -135.5q0 -46 -16.5 -85t-47 -67.5t-75.5 -44.5t-102 -16z" />
    <glyph glyph-name="T" unicode="T" horiz-adv-x="677" 
d="M186 54h93v585h-156v-117h-91v176h613v-176h-91v117h-156v-585h93v-54h-305v54z" />
    <glyph glyph-name="U" unicode="U" horiz-adv-x="750" 
d="M390 -12q-74 0 -126 15.5t-85 49.5t-48 87t-15 128v376h-73v54h265v-54h-73v-386q0 -52 8.5 -90t27.5 -63.5t50.5 -38t78.5 -12.5q94 0 132.5 49.5t38.5 153.5v387h-73v54h211v-54h-73v-370q0 -72 -13.5 -125.5t-42.5 -89.5t-76 -53.5t-114 -17.5z" />
    <glyph glyph-name="V" unicode="V" horiz-adv-x="677" 
d="M71 644h-52v54h260v-54h-86l98 -305l71 -238h5l71 238l98 305h-86v54h208v-54h-52l-213 -644h-109z" />
    <glyph glyph-name="W" unicode="W" horiz-adv-x="993" 
d="M72 644h-52v54h259v-54h-85l121 -525h5l148 579h108l148 -579h5l121 525h-85v54h208v-54h-52l-160 -644h-115l-147 550h-5l-147 -550h-115z" />
    <glyph glyph-name="X" unicode="X" horiz-adv-x="694" 
d="M21 54h62l207 283l-202 307h-58v54h266v-54h-70l142 -221h5l150 221h-65v54h206v-54h-62l-197 -272l210 -318h58v-54h-266v54h70l-150 232h-5l-160 -232h65v-54h-206v54z" />
    <glyph glyph-name="Y" unicode="Y" horiz-adv-x="655" 
d="M180 54h88v226l-195 364h-52v54h263v-54h-81l151 -290h5l151 290h-81v54h205v-54h-52l-195 -352v-238h88v-54h-295v54z" />
    <glyph glyph-name="Z" unicode="Z" horiz-adv-x="644" 
d="M54 58l388 581h-285v-117h-91v176h511v-58l-388 -581h307v130h91v-189h-533v58z" />
    <glyph glyph-name="bracketleft" unicode="[" horiz-adv-x="309" 
d="M61 760h222v-54h-118v-790h118v-54h-222v898z" />
    <glyph glyph-name="backslash" unicode="\" horiz-adv-x="392" 
d="M40 748h72l273 -891h-72z" />
    <glyph glyph-name="bracketright" unicode="]" horiz-adv-x="309" 
d="M26 -84h118v790h-118v54h222v-898h-222v54z" />
    <glyph glyph-name="asciicircum" unicode="^" 
d="M52 342l206 356h84l206 -356l-59 -30l-187 307h-4l-187 -307z" />
    <glyph glyph-name="underscore" unicode="_" horiz-adv-x="563" 
d="M26 -94h511v-70h-511v70z" />
    <glyph glyph-name="grave" unicode="`" 
d="M166 744l100 48l74 -191l-36 -17z" />
    <glyph glyph-name="a" unicode="a" horiz-adv-x="553" 
d="M197 -12q-78 0 -117.5 38.5t-39.5 105.5q0 76 54 115t176 39h72v68q0 61 -27 93t-85 32q-49 0 -74 -14v-4q11 -5 20.5 -17.5t9.5 -34.5q0 -28 -16.5 -45t-47.5 -17q-26 0 -43.5 17.5t-17.5 47.5q0 23 13.5 44.5t39.5 38.5t63.5 27t86.5 10q94 0 142 -44t48 -123v-312h68
v-45q-14 -8 -36 -14t-47 -6q-46 0 -67.5 23.5t-21.5 60.5v5h-5q-7 -17 -18 -32.5t-28.5 -28.5t-42.5 -20.5t-59 -7.5zM241 58q44 0 72.5 21t28.5 69v89h-60q-71 0 -99 -23t-28 -66v-19q0 -36 23 -53.5t63 -17.5z" />
    <glyph glyph-name="b" unicode="b" horiz-adv-x="609" 
d="M353 -12q-62 0 -99.5 27t-53.5 63h-5l-56 -78h-49v668l-68 13v44l180 35v-318h5q16 36 52 63t94 27q48 0 87 -18.5t66 -53.5t42 -85.5t15 -114.5t-15 -114.5t-42 -85.5t-66 -53.5t-87 -18.5zM318 60q57 0 91 39t34 108v106q0 69 -34 108t-91 39q-23 0 -43.5 -6.5
t-37 -19.5t-26 -31t-9.5 -41v-204q0 -23 9.5 -41t26 -31t37 -19.5t43.5 -6.5z" />
    <glyph glyph-name="c" unicode="c" horiz-adv-x="524" 
d="M286 -12q-59 0 -104.5 20t-76.5 56t-47 86t-16 110q0 64 19 114.5t53 85.5t80.5 53.5t101.5 18.5q86 0 134.5 -36t48.5 -92q0 -35 -19 -54.5t-51 -19.5q-33 0 -50 18.5t-17 46.5q0 23 12 40t31 25v5q-12 5 -30 9.5t-45 4.5q-33 0 -60 -12t-46 -33.5t-29.5 -51.5
t-10.5 -67v-87q0 -75 37 -118.5t101 -43.5q60 0 93.5 26t51.5 64l43 -26q-9 -26 -26 -51t-42 -45.5t-59 -33t-77 -12.5z" />
    <glyph glyph-name="d" unicode="d" horiz-adv-x="619" 
d="M257 -12q-48 0 -87 18.5t-66 53.5t-42 85.5t-15 114.5t15 114.5t42 85.5t66 53.5t87 18.5q59 0 94.5 -27t51.5 -63h5v226l-68 13v44l180 35v-680l68 -13v-44l-180 -35v90h-5q-16 -36 -52 -63t-94 -27zM292 60q22 0 43 6.5t37.5 19.5t26 31t9.5 41v204q0 23 -9.5 41
t-26 31t-37.5 19.5t-43 6.5q-57 0 -91 -39t-34 -108v-106q0 -69 34 -108t91 -39z" />
    <glyph glyph-name="e" unicode="e" horiz-adv-x="547" 
d="M285 -12q-58 0 -103 19.5t-76 55.5t-47.5 86t-16.5 111q0 62 17.5 112t49 85.5t75 55t95.5 19.5q53 0 95 -17.5t71.5 -49.5t45.5 -77t16 -100v-27h-344v-32q0 -78 39 -120.5t105 -42.5q58 0 93.5 25.5t52.5 63.5l43 -26q-9 -26 -26.5 -51t-43.5 -45t-61 -32.5t-80 -12.5z
M163 314h228v11q0 72 -27.5 111.5t-84.5 39.5q-56 0 -86 -38.5t-30 -110.5v-13z" />
    <glyph glyph-name="f" unicode="f" horiz-adv-x="360" 
d="M41 54h68v408h-68v58h68v63q0 40 13 73t37.5 56t59 35.5t77.5 12.5q60 0 92.5 -25t32.5 -64q0 -29 -16.5 -46t-42.5 -17q-27 0 -42 15.5t-15 38.5q0 18 8 29.5t19 16.5v3q-12 3 -31 3q-80 0 -80 -113v-81h108v-58h-108v-408h88v-54h-268v54z" />
    <glyph glyph-name="g" unicode="g" horiz-adv-x="560" 
d="M269 -212q-66 0 -111 8.5t-72 24t-39 38t-12 49.5q0 20 9 36.5t24 29t35 21.5t41 14v4q-33 9 -51 32t-18 58q0 43 27.5 67t65.5 34v4q-48 20 -76 58.5t-28 94.5q0 40 15.5 72t43 54t65.5 33.5t84 11.5q45 0 76 -9t57 -26q2 57 25 80.5t59 23.5q25 0 41.5 -14.5
t16.5 -40.5q0 -24 -15.5 -39.5t-42.5 -15.5q-30 0 -49 22h-4v-41q18 -18 32 -44.5t14 -66.5t-15.5 -72t-43.5 -54t-66.5 -34t-84.5 -12q-17 0 -32.5 2t-30.5 5q-21 -7 -36 -21t-15 -34q0 -23 17.5 -33t58.5 -10h117q97 0 141 -38t44 -104q0 -78 -66.5 -123t-200.5 -45z
M273 243q48 0 72 26t24 75v33q0 49 -24 75t-72 26t-72 -26t-24 -75v-33q0 -49 24 -75t72 -26zM129 -83q0 -37 31 -55t88 -18h54q68 0 104.5 21.5t36.5 60.5q0 36 -24.5 52t-79.5 16h-162q-48 -25 -48 -77z" />
    <glyph glyph-name="h" unicode="h" horiz-adv-x="635" 
d="M31 54h68v614l-68 13v44l180 35v-321h5q6 17 18.5 34t30.5 30t42 21t54 8q95 0 135 -48.5t40 -145.5v-284h68v-54h-246v54h66v278q0 65 -25 95t-79 30q-20 0 -39.5 -5.5t-35 -17t-25 -28.5t-9.5 -41v-311h66v-54h-246v54z" />
    <glyph glyph-name="i" unicode="i" horiz-adv-x="323" 
d="M168 617q-32 0 -50 18.5t-18 47.5v6q0 29 18 47.5t50 18.5t50 -18.5t18 -47.5v-6q0 -29 -18 -47.5t-50 -18.5zM44 54h68v386l-68 13v44l180 35v-478h68v-54h-248v54z" />
    <glyph glyph-name="j" unicode="j" horiz-adv-x="311" 
d="M44 -212q-54 0 -80.5 22.5t-26.5 60.5q0 25 15.5 42t41.5 17t39.5 -15t13.5 -38q0 -15 -6 -27t-15 -17v-3q5 -2 10.5 -2h11.5q29 0 44.5 22t15.5 67v523l-68 13v44l180 35v-561q0 -94 -45.5 -138.5t-130.5 -44.5zM164 617q-32 0 -50 18.5t-18 47.5v6q0 29 18 47.5
t50 18.5t50 -18.5t18 -47.5v-6q0 -29 -18 -47.5t-50 -18.5z" />
    <glyph glyph-name="k" unicode="k" horiz-adv-x="597" 
d="M31 54h68v614l-68 13v44l180 35v-512h5l74 84l123 134h-65v54h221v-54h-74l-132 -136l177 -276h51v-54h-233v54h56l-126 205l-77 -81v-124h66v-54h-246v54z" />
    <glyph glyph-name="l" unicode="l" horiz-adv-x="310" 
d="M31 54h68v614l-68 13v44l180 35v-706h68v-54h-248v54z" />
    <glyph glyph-name="m" unicode="m" horiz-adv-x="958" 
d="M44 54h68v386l-68 13v44l177 35v-93h5q6 17 18 34t30 30t42 21t55 8q67 0 105.5 -24.5t53.5 -75.5h3q8 18 21.5 36t32.5 32.5t44 23t58 8.5q93 0 132 -48.5t39 -145.5v-284h68v-54h-244v54h64v278q0 65 -24.5 95t-75.5 30q-20 0 -39 -5.5t-34 -17t-24 -29t-9 -41.5v-310
h64v-54h-240v54h64v278q0 65 -24.5 95t-75.5 30q-20 0 -39 -5.5t-34 -17t-24 -29t-9 -41.5v-310h64v-54h-244v54z" />
    <glyph glyph-name="n" unicode="n" horiz-adv-x="648" 
d="M44 54h68v386l-68 13v44l177 35v-93h5q6 17 18.5 34t31 30t43 21t55.5 8q95 0 135 -48.5t40 -145.5v-284h68v-54h-246v54h66v278q0 65 -25 95t-79 30q-20 0 -39.5 -5.5t-35 -17t-25 -28.5t-9.5 -41v-311h66v-54h-246v54z" />
    <glyph glyph-name="o" unicode="o" horiz-adv-x="572" 
d="M286 47q63 0 92.5 39t29.5 104v140q0 65 -29.5 104t-92.5 39t-92.5 -39t-29.5 -104v-140q0 -65 29.5 -104t92.5 -39zM286 -12q-55 0 -100 19t-77 54t-49.5 85.5t-17.5 113.5t17.5 113.5t49.5 85.5t77 54t100 19t100 -19t77 -54t49.5 -85.5t17.5 -113.5t-17.5 -113.5
t-49.5 -85.5t-77 -54t-100 -19z" />
    <glyph glyph-name="p" unicode="p" horiz-adv-x="622" 
d="M34 -146h68v586l-68 13v44l180 35v-90h5q16 36 52 63t94 27q48 0 87 -18.5t66 -53.5t42 -85.5t15 -114.5t-15 -114.5t-42 -85.5t-66 -53.5t-87 -18.5q-59 0 -94.5 27t-51.5 63h-5v-224h88v-54h-268v54zM330 60q57 0 91 39t34 108v106q0 69 -34 108t-91 39
q-23 0 -43.5 -6.5t-37 -19.5t-26 -31t-9.5 -41v-204q0 -23 9.5 -41t26 -31t37 -19.5t43.5 -6.5z" />
    <glyph glyph-name="q" unicode="q" horiz-adv-x="610" 
d="M320 -146h88v224h-5q-16 -36 -52 -63t-94 -27q-48 0 -87 18.5t-66 53.5t-42 85.5t-15 114.5t15 114.5t42 85.5t66 53.5t87 18.5q62 0 99.5 -27t53.5 -63h5l56 78h48v-666h68v-54h-267v54zM292 60q22 0 43 6.5t37.5 19.5t26 31t9.5 41v204q0 23 -9.5 41t-26 31t-37.5 19.5
t-43 6.5q-57 0 -91 -39t-34 -108v-106q0 -69 34 -108t91 -39z" />
    <glyph glyph-name="r" unicode="r" horiz-adv-x="464" 
d="M44 54h68v386l-68 13v44l177 35v-93h5q7 18 17.5 34.5t26 29.5t36 21t46.5 8q46 0 73.5 -23t27.5 -66q0 -34 -17.5 -53.5t-47.5 -19.5q-31 0 -48.5 16.5t-17.5 41.5q0 17 7 28.5t17 13.5v3q-3 1 -7 1.5t-12 0.5q-19 0 -37.5 -10t-33 -25.5t-23.5 -35t-9 -38.5v-312h88
v-54h-268v54z" />
    <glyph glyph-name="s" unicode="s" horiz-adv-x="497" 
d="M257 -12q-51 0 -83 20t-42 44h-4v-52h-76v155h76v-18q0 -42 26 -66t84 -24q108 0 108 76q0 59 -78 78l-54 13q-80 19 -119 58t-39 107q0 73 49 113t130 40q50 0 80 -17t39 -41h4v46h76v-155h-76v29q0 79 -107 79q-46 0 -70.5 -17.5t-24.5 -52.5q0 -62 80 -82l51 -12
q81 -18 121 -54.5t40 -107.5q0 -72 -51.5 -115.5t-139.5 -43.5z" />
    <glyph glyph-name="t" unicode="t" horiz-adv-x="361" 
d="M204 -8q-57 0 -80 24t-23 76v370h-68v58h17q37 0 51 13t23 38l31 88h58v-139h125v-58h-125v-405h125v-44q-17 -8 -54.5 -14.5t-79.5 -6.5z" />
    <glyph glyph-name="u" unicode="u" horiz-adv-x="631" 
d="M270 -12q-95 0 -135 48.5t-40 145.5v258l-68 13v44l180 35v-344q0 -65 25 -95t79 -30q20 0 39.5 5.5t35 17t25 28.5t9.5 41v285l-68 13v44l180 35v-452l68 -13v-44l-177 -35v93h-5q-6 -17 -18.5 -34t-31 -30t-43 -21t-55.5 -8z" />
    <glyph glyph-name="v" unicode="v" horiz-adv-x="549" 
d="M55 466h-50v54h237v-54h-66l123 -357h5l123 357h-66v54h183v-54h-50l-176 -466h-87z" />
    <glyph glyph-name="w" unicode="w" horiz-adv-x="817" 
d="M64 466h-50v54h230v-54h-67l91 -356h5l115 410h92l115 -410h5l91 356h-67v54h179v-54h-50l-132 -466h-94l-116 389h-5l-116 -389h-94z" />
    <glyph glyph-name="x" unicode="x" horiz-adv-x="574" 
d="M25 54h56l146 197l-150 215h-49v54h242v-54h-60l102 -151h4l102 151h-60v54h189v-54h-56l-142 -196l152 -216h49v-54h-243v54h60l-104 152h-5l-104 -152h60v-54h-189v54z" />
    <glyph glyph-name="y" unicode="y" horiz-adv-x="550" 
d="M123 -212q-54 0 -81.5 25t-27.5 62q0 31 16.5 48.5t46.5 17.5q28 0 43.5 -17t15.5 -43q0 -15 -6.5 -26.5t-14.5 -16.5v-4q5 -2 9.5 -2h11.5q54 0 93 101l16 44l-190 489h-50v54h237v-54h-67l124 -347h5l123 347h-66v54h183v-54h-50l-209 -538q-11 -27 -25.5 -52.5
t-34 -45t-44.5 -31t-58 -11.5z" />
    <glyph glyph-name="z" unicode="z" horiz-adv-x="511" 
d="M42 48l283 414h-199v-97h-76v155h411v-48l-283 -414h215v98h76v-156h-427v48z" />
    <glyph glyph-name="braceleft" unicode="{" horiz-adv-x="349" 
d="M215 -138q-50 0 -74 25t-24 70v235q0 44 -28.5 66.5t-72.5 22.5v60q44 0 72.5 22.5t28.5 66.5v235q0 45 24 70t74 25h105v-54h-99v-258q0 -25 -9 -47t-24.5 -39t-36 -28.5t-42.5 -15.5v-14q22 -4 42.5 -15.5t36 -28.5t24.5 -39t9 -47v-258h99v-54h-105v0z" />
    <glyph glyph-name="bar" unicode="|" horiz-adv-x="332" 
d="M131 760h70v-898h-70v898z" />
    <glyph glyph-name="braceright" unicode="}" horiz-adv-x="349" 
d="M29 -84h99v258q0 25 9 47t24.5 39t35.5 28.5t43 15.5v14q-23 4 -43 15.5t-35.5 28.5t-24.5 39t-9 47v258h-99v54h105q50 0 74 -25t24 -70v-235q0 -44 28.5 -66.5t72.5 -22.5v-60q-44 0 -72.5 -22.5t-28.5 -66.5v-235q0 -45 -24 -70t-74 -25h-105v54z" />
    <glyph glyph-name="asciitilde" unicode="~" 
d="M416 237q-36 0 -64.5 9.5t-62.5 26.5q-29 14 -56 24t-58 10q-24 0 -43 -7t-41 -23l-29 45q20 26 48 41.5t74 15.5q36 0 64.5 -9.5t62.5 -26.5q29 -14 56 -24t58 -10q24 0 43 7t41 23l29 -45q-20 -26 -48 -41.5t-74 -15.5z" />
    <glyph glyph-name="uni00A0" unicode="&#xa0;" horiz-adv-x="232" 
 />
    <glyph glyph-name="exclamdown" unicode="&#xa1;" horiz-adv-x="292" 
d="M146 384q-35 0 -54.5 21t-19.5 50v6q0 29 19.5 50t54.5 21t54.5 -21t19.5 -50v-6q0 -29 -19.5 -50t-54.5 -21zM87 1l36 321h46l36 -321v-179h-118v179z" />
    <glyph glyph-name="cent" unicode="&#xa2;" horiz-adv-x="532" 
d="M260 -11q-53 5 -93.5 27t-68 57.5t-42 83t-14.5 103.5q0 58 16 104.5t44.5 81t69 55.5t88.5 27v101h58v-99q78 -4 121 -38.5t43 -86.5q0 -33 -18 -51.5t-49 -18.5t-47.5 18.5t-16.5 45.5q0 21 12 37t32 23v3q-16 7 -35 11.5t-44 4.5v-415q55 2 86 28.5t50 64.5l41 -26
q-8 -24 -22.5 -47t-36.5 -42.5t-50.5 -33t-65.5 -17.5v-104h-58v103zM262 469q-47 -15 -73.5 -56t-26.5 -99v-88q0 -61 26 -101.5t74 -54.5v399z" />
    <glyph glyph-name="sterling" unicode="&#xa3;" horiz-adv-x="590" 
d="M56 91q43 20 69.5 63t26.5 95q0 16 -2.5 31t-6.5 29h-93v57h73q-14 35 -25.5 71.5t-11.5 78.5q0 43 16.5 79t45.5 61.5t70 39.5t91 14q49 0 88.5 -10t67 -28t42 -42t14.5 -52q0 -35 -20 -56t-52 -21q-33 0 -50.5 21t-17.5 49q0 21 11 37t29 26v4q-14 7 -35.5 11.5
t-47.5 4.5q-71 0 -103.5 -35.5t-32.5 -93.5q0 -48 10.5 -85.5t21.5 -73.5h172v-57h-159q2 -11 3 -22t1 -22q0 -30 -10 -56t-26 -47t-36.5 -36.5t-41.5 -24.5v-5h331v97h60v-193h-472v91z" />
    <glyph glyph-name="currency" unicode="&#xa4;" horiz-adv-x="640" 
d="M320 114q-75 0 -131 39l-96 -97l-58 58l98 98q-35 56 -35 137t35 137l-98 98l58 58l96 -97q56 39 131 39t131 -39l96 97l58 -58l-98 -98q35 -56 35 -137t-35 -137l98 -98l-58 -58l-96 97q-56 -39 -131 -39zM320 173q58 0 86 35t28 92v98q0 57 -28 92t-86 35t-86 -35
t-28 -92v-98q0 -57 28 -92t86 -35z" />
    <glyph glyph-name="yen" unicode="&#xa5;" horiz-adv-x="651" 
d="M178 54h88v94h-166v55h166v94h-166v55h135l-164 292h-52v54h263v-54h-81l151 -277h5l151 277h-81v54h205v-54h-52l-169 -292h140v-55h-166v-94h166v-55h-166v-94h88v-54h-295v54z" />
    <glyph glyph-name="brokenbar" unicode="&#xa6;" horiz-adv-x="332" 
d="M131 221h70v-359h-70v359zM131 760h70v-359h-70v359z" />
    <glyph glyph-name="section" unicode="&#xa7;" horiz-adv-x="582" 
d="M267 -157q-81 0 -123 29.5t-42 77.5q0 31 18 49.5t47 18.5t45.5 -17.5t16.5 -40.5q0 -21 -10 -32.5t-25 -19.5v-3q31 -9 66 -9q56 0 85 22.5t29 65.5q0 36 -22.5 58.5t-67.5 35.5l-59 17q-78 21 -119 57.5t-41 100.5q0 55 36.5 93t91.5 55v6q-82 46 -82 141
q0 77 53.5 119.5t150.5 42.5q81 0 123 -29.5t42 -77.5q0 -31 -18 -49.5t-47 -18.5t-45.5 17.5t-16.5 40.5q0 21 10 32.5t25 19.5v3q-32 9 -66 9q-56 0 -85 -22.5t-29 -65.5q0 -36 22.5 -58.5t67.5 -35.5l59 -17q78 -21 119 -57.5t41 -100.5q0 -55 -36.5 -93t-91.5 -55v-6
q82 -46 82 -141q0 -77 -53.5 -119.5t-150.5 -42.5zM348 165q31 9 52.5 33t21.5 67q0 38 -23.5 60t-74.5 36l-61 17q-8 2 -15.5 5t-13.5 5q-31 -9 -52.5 -33t-21.5 -67q0 -38 23.5 -60t74.5 -36l61 -17q8 -2 15.5 -5t13.5 -5z" />
    <glyph glyph-name="dieresis" unicode="&#xa8;" 
d="M201 610q-29 0 -45 17t-16 42v4q0 25 16 42t45 17t45 -17t16 -42v-4q0 -25 -16 -42t-45 -17zM399 610q-29 0 -45 17t-16 42v4q0 25 16 42t45 17t45 -17t16 -42v-4q0 -25 -16 -42t-45 -17z" />
    <glyph glyph-name="copyright" unicode="&#xa9;" horiz-adv-x="786" 
d="M402 147q-45 0 -79.5 15t-58.5 41.5t-36 63.5t-12 81q0 48 14.5 85.5t40 63.5t61 40t77.5 14q66 0 102 -28t36 -70q0 -25 -14 -39t-39 -14q-23 0 -35 14t-12 35q0 17 8.5 28.5t22.5 18.5v2q-10 4 -23.5 7t-35.5 3q-50 0 -80 -32t-30 -85v-66q0 -55 29.5 -86t79.5 -31
q43 0 67 18.5t38 46.5l33 -20q-7 -19 -20 -38t-31.5 -34t-44 -24.5t-58.5 -9.5zM393 40q61 0 112.5 21t89 58t58 88t20.5 110v64q0 59 -20.5 110t-58 88t-89 58t-112.5 21q-62 0 -113 -21t-88.5 -58t-58 -88t-20.5 -110v-64q0 -59 20.5 -110t58 -88t88.5 -58t113 -21z
M393 -12q-73 0 -135 25t-107.5 72t-71 114t-25.5 150t25.5 150t71 114t107.5 72t135 25t135 -25t107.5 -72t71 -114t25.5 -150t-25.5 -150t-71 -114t-107.5 -72t-135 -25z" />
    <glyph glyph-name="ordfeminine" unicode="&#xaa;" horiz-adv-x="422" 
d="M153 336q-55 0 -82.5 26.5t-27.5 71.5q0 51 37.5 78t121.5 27h50v44q0 41 -18 62t-57 21q-33 0 -49 -8v-4q7 -3 13.5 -12t6.5 -23q0 -18 -12 -29.5t-32 -11.5t-32.5 12.5t-12.5 32.5q0 32 37 56.5t103 24.5t99.5 -29.5t33.5 -83.5v-210h47v-30q-10 -6 -25.5 -10t-32.5 -4
q-32 0 -47.5 15t-15.5 40v4h-3q-11 -23 -33.5 -41.5t-68.5 -18.5zM183 384q29 0 49 14t20 45v61h-43q-47 0 -66 -15.5t-19 -44.5v-11q0 -25 16 -37t43 -12z" />
    <glyph glyph-name="guillemotleft" unicode="&#xab;" horiz-adv-x="528" 
d="M36 253v54l194 183l26 -33l-113 -177l113 -177l-26 -33zM253 253v54l194 183l26 -33l-113 -177l113 -177l-26 -33z" />
    <glyph glyph-name="logicalnot" unicode="&#xac;" 
d="M446 271h-379v68h450v-258h-71v190z" />
    <glyph glyph-name="uni00AD" unicode="&#xad;" horiz-adv-x="396" 
d="M59 348h278v-86h-278v86z" />
    <glyph glyph-name="registered" unicode="&#xae;" horiz-adv-x="474" 
d="M142 419h19v170h-19v21h109q31 0 49 -13.5t18 -42.5q0 -22 -12 -36.5t-32 -19.5l36 -63q9 -16 25 -16h2v-21h-18q-20 0 -33 6t-23 23l-33 63h-22v-71h16v-21h-82v21zM237 333q34 0 62.5 12t49.5 33.5t33 50.5t12 62v26q0 33 -12 62t-33 50.5t-49.5 33.5t-62.5 12
t-62.5 -12t-49.5 -33.5t-33 -50.5t-12 -62v-26q0 -33 12 -62t33 -50.5t49.5 -33.5t62.5 -12zM237 298q-41 0 -77.5 15.5t-63.5 43t-43 65.5t-16 82t16 82t43 65.5t63.5 43t77.5 15.5t77.5 -15.5t63.5 -43t43 -65.5t16 -82t-16 -82t-43 -65.5t-63.5 -43t-77.5 -15.5zM208 512
h34q28 0 28 29v15q0 29 -28 29h-34v-73z" />
    <glyph glyph-name="macron" unicode="&#xaf;" 
d="M152 708h296v-71h-296v71z" />
    <glyph glyph-name="degree" unicode="&#xb0;" horiz-adv-x="468" 
d="M234 354q-37 0 -69 13.5t-55 37.5t-36.5 56.5t-13.5 70.5t13.5 70.5t36.5 56.5t55 37.5t69 13.5t69 -13.5t55 -37.5t36.5 -56.5t13.5 -70.5t-13.5 -70.5t-36.5 -56.5t-55 -37.5t-69 -13.5zM234 415q24 0 43.5 9t34 25t22 37.5t7.5 45.5t-7.5 45.5t-22 37.5t-34 25
t-43.5 9t-43.5 -9t-34 -25t-22 -37.5t-7.5 -45.5t7.5 -45.5t22 -37.5t34 -25t43.5 -9z" />
    <glyph glyph-name="plusminus" unicode="&#xb1;" 
d="M264 360h-198v68h198v187h72v-187h198v-68h-198v-187h-72v187zM66 68h467v-68h-467v68z" />
    <glyph glyph-name="twosuperior" unicode="&#xb2;" horiz-adv-x="349" 
d="M36 395l117 103q26 23 43 46t17 50v11q0 29 -17.5 45t-46.5 16q-14 0 -23.5 -2t-17.5 -5v-3q18 -10 18 -32q0 -19 -10.5 -31t-32.5 -12q-20 0 -32 12t-12 34q0 32 34.5 54.5t89.5 22.5q65 0 101.5 -25.5t36.5 -76.5q0 -24 -8.5 -43.5t-22.5 -36t-32.5 -30.5t-37.5 -26
l-102 -66v-5h168v42h49v-107h-279v65z" />
    <glyph glyph-name="threesuperior" unicode="&#xb3;" horiz-adv-x="344" 
d="M152 324q-61 0 -93 23t-32 54q0 22 12 34t32 12q22 0 32.5 -12t10.5 -31q0 -22 -18 -32v-3q7 -4 18 -5.5t24 -1.5q77 0 77 63v13q0 29 -18 46t-56 17h-30v41h27q36 0 53 17t17 42v11q0 28 -17 41t-46 13q-12 0 -22.5 -1.5t-17.5 -5.5v-3q18 -10 18 -32q0 -19 -10.5 -31
t-32.5 -12q-20 0 -32 12t-12 34q0 31 34 54t87 23q67 0 103.5 -22.5t36.5 -69.5q0 -35 -25.5 -57.5t-60.5 -27.5v-5q38 -6 65 -28.5t27 -60.5q0 -52 -41 -80.5t-110 -28.5z" />
    <glyph glyph-name="acute" unicode="&#xb4;" 
d="M260 601l74 191l100 -48l-138 -160z" />
    <glyph glyph-name="mu" unicode="&#xb5;" horiz-adv-x="631" 
d="M95 440l-68 13v44l180 35v-344q0 -65 25 -95t79 -30q20 0 39.5 5.5t35 17t25 28.5t9.5 41v285l-68 13v44l180 35v-452l68 -13v-44l-177 -35v93h-5q-6 -17 -18.5 -34t-30.5 -30t-42 -21t-54 -8q-36 0 -62.5 13.5t-40.5 35.5h-4l41 -178v-59h-112v640z" />
    <glyph glyph-name="paragraph" unicode="&#xb6;" horiz-adv-x="637" 
d="M286 -157q-84 0 -133.5 34t-49.5 87q0 30 18 51t50 21q29 0 45.5 -17.5t16.5 -43.5q0 -24 -11.5 -38.5t-31.5 -20.5v-5q20 -10 42.5 -15t51.5 -5h13v405q-51 0 -95.5 13t-77.5 38.5t-52 62.5t-19 87q0 49 19 87t52 63t77.5 38t95.5 13h274v-54h-73v-559q0 -118 -56 -180
t-156 -62zM354 -94q42 19 64.5 63t22.5 114v561h-87v-738z" />
    <glyph glyph-name="periodcentered" unicode="&#xb7;" horiz-adv-x="334" 
d="M167 230q-35 0 -54.5 21t-19.5 50v6q0 29 19.5 50t54.5 21t54.5 -21t19.5 -50v-6q0 -29 -19.5 -50t-54.5 -21z" />
    <glyph glyph-name="cedilla" unicode="&#xb8;" 
d="M311 -209q-41 0 -64 13.5t-34 27.5l26 30q10 -11 24 -18.5t34 -7.5q23 0 37 10t14 30q0 14 -11.5 27.5t-49.5 17.5l-25 2l20 100h46l-17 -83l3 -3q10 2 20.5 4t19.5 2q32 0 53.5 -16.5t21.5 -50.5q0 -23 -9.5 -39t-26 -26t-38 -15t-44.5 -5z" />
    <glyph glyph-name="onesuperior" unicode="&#xb9;" horiz-adv-x="356" 
d="M53 371h101v264l-102 -38l-16 35l140 66h59v-327h88v-41h-270v41z" />
    <glyph glyph-name="ordmasculine" unicode="&#xba;" horiz-adv-x="418" 
d="M209 376q42 0 62 26.5t20 68.5v98q0 42 -20 68.5t-62 26.5t-62 -26.5t-20 -68.5v-98q0 -42 20 -68.5t62 -26.5zM209 336q-77 0 -122.5 49.5t-45.5 134.5t45.5 134.5t122.5 49.5t122.5 -49.5t45.5 -134.5t-45.5 -134.5t-122.5 -49.5z" />
    <glyph glyph-name="guillemotright" unicode="&#xbb;" horiz-adv-x="528" 
d="M55 103l113 177l-113 177l26 33l194 -183v-54l-194 -183zM272 103l113 177l-113 177l26 33l194 -183v-54l-194 -183z" />
    <glyph glyph-name="onequarter" unicode="&#xbc;" horiz-adv-x="866" 
d="M53 371h101v264l-102 -38l-16 35l140 66h59v-327h88v-41h-270v41zM684 698h70l-500 -698h-70zM698 73h-176v59l166 236h87v-236h52v-59h-52v-73h-77v73zM567 132h131v179h-5z" />
    <glyph glyph-name="onehalf" unicode="&#xbd;" horiz-adv-x="892" 
d="M53 371h101v264l-102 -38l-16 35l140 66h59v-327h88v-41h-270v41zM684 698h70l-500 -698h-70zM579 65l117 103q26 23 43 46t17 50v11q0 29 -17.5 45t-46.5 16q-14 0 -23.5 -2t-17.5 -5v-3q18 -10 18 -32q0 -19 -10.5 -31t-32.5 -12q-20 0 -32 12t-12 34q0 32 34.5 54.5
t89.5 22.5q65 0 101.5 -25.5t36.5 -76.5q0 -24 -8.5 -43.5t-22.5 -36t-32.5 -30.5t-37.5 -26l-102 -66v-5h168v42h49v-107h-279v65z" />
    <glyph glyph-name="threequarters" unicode="&#xbe;" horiz-adv-x="812" 
d="M152 324q-61 0 -93 23t-32 54q0 22 12 34t32 12q22 0 32.5 -12t10.5 -31q0 -22 -18 -32v-3q7 -4 18 -5.5t24 -1.5q77 0 77 63v13q0 29 -18 46t-56 17h-30v41h27q36 0 53 17t17 42v11q0 28 -17 41t-46 13q-12 0 -22.5 -1.5t-17.5 -5.5v-3q18 -10 18 -32q0 -19 -10.5 -31
t-32.5 -12q-20 0 -32 12t-12 34q0 31 34 54t87 23q67 0 103.5 -22.5t36.5 -69.5q0 -35 -25.5 -57.5t-60.5 -27.5v-5q38 -6 65 -28.5t27 -60.5q0 -52 -41 -80.5t-110 -28.5zM630 698h70l-500 -698h-70zM644 73h-176v59l166 236h87v-236h52v-59h-52v-73h-77v73zM513 132h131
v179h-5z" />
    <glyph glyph-name="questiondown" unicode="&#xbf;" horiz-adv-x="501" 
d="M261 -190q-108 0 -166 50t-58 135q0 47 18 83.5t49.5 62.5t74 41.5t92.5 20.5v101h65v-163q-80 -3 -126.5 -35.5t-46.5 -99.5v-21q0 -59 33 -89.5t86 -30.5q29 0 49 4.5t34 12.5v3q-14 8 -25.5 23t-11.5 36q0 29 18 49.5t51 20.5q32 0 50.5 -20.5t18.5 -54.5
q0 -26 -15.5 -49.5t-42.5 -41t-64.5 -28t-82.5 -10.5zM303 384q-35 0 -54.5 21t-19.5 50v6q0 29 19.5 50t54.5 21t54.5 -21t19.5 -50v-6q0 -29 -19.5 -50t-54.5 -21z" />
    <glyph glyph-name="Agrave" unicode="&#xc0;" horiz-adv-x="692" 
d="M15 54h52l222 644h114l222 -644h52v-54h-261v54h86l-56 167h-253l-56 -167h86v-54h-208v54zM209 278h221l-108 326h-5zM212 914l100 48l74 -191l-36 -17z" />
    <glyph glyph-name="Aacute" unicode="&#xc1;" horiz-adv-x="692" 
d="M15 54h52l222 644h114l222 -644h52v-54h-261v54h86l-56 167h-253l-56 -167h86v-54h-208v54zM209 278h221l-108 326h-5zM306 771l74 191l100 -48l-138 -160z" />
    <glyph glyph-name="Acircumflex" unicode="&#xc2;" horiz-adv-x="692" 
d="M15 54h52l222 644h114l222 -644h52v-54h-261v54h86l-56 167h-253l-56 -167h86v-54h-208v54zM209 278h221l-108 326h-5zM182 782l128 161h72l128 -161l-32 -24l-132 99l-132 -99z" />
    <glyph glyph-name="Atilde" unicode="&#xc3;" horiz-adv-x="692" 
d="M15 54h52l222 644h114l222 -644h52v-54h-261v54h86l-56 167h-253l-56 -167h86v-54h-208v54zM209 278h221l-108 326h-5zM413 774q-21 0 -40.5 9t-39.5 19l-40 20t-36 10t-26.5 -7t-29.5 -29l-27 27q25 37 47.5 59.5t57.5 22.5q21 0 40.5 -9t39.5 -19l40 -20t36 -10
q8 0 14 1.5t12 5.5t13 11t17 18l27 -27q-25 -37 -47.5 -59.5t-57.5 -22.5z" />
    <glyph glyph-name="Adieresis" unicode="&#xc4;" horiz-adv-x="692" 
d="M15 54h52l222 644h114l222 -644h52v-54h-261v54h86l-56 167h-253l-56 -167h86v-54h-208v54zM209 278h221l-108 326h-5zM247 778q-29 0 -45 17t-16 42v4q0 25 16 42t45 17t45 -17t16 -42v-4q0 -25 -16 -42t-45 -17zM445 778q-29 0 -45 17t-16 42v4q0 25 16 42t45 17
t45 -17t16 -42v-4q0 -25 -16 -42t-45 -17z" />
    <glyph glyph-name="Aring" unicode="&#xc5;" horiz-adv-x="692" 
d="M15 54h52l222 644h114l222 -644h52v-54h-261v54h86l-56 167h-253l-56 -167h86v-54h-208v54zM209 278h221l-108 326h-5zM346 779q26 0 41.5 15.5t15.5 44.5v44q0 29 -15.5 44.5t-41.5 15.5t-41.5 -15.5t-15.5 -44.5v-44q0 -29 15.5 -44.5t41.5 -15.5zM346 737q-27 0 -51 9
t-41 25.5t-27 39.5t-10 50t10 49.5t27 39t41 26t51 9.5t51 -9.5t41 -26t27 -39t10 -49.5t-10 -50t-27 -39.5t-41 -25.5t-51 -9z" />
    <glyph glyph-name="AE" unicode="&#xc6;" horiz-adv-x="982" 
d="M15 54h52l307 590h-73v54h615v-176h-91v117h-251v-248h170v71h66v-201h-66v71h-170v-273h261v130h91v-189h-544v54h73v167h-230l-86 -167h74v-54h-198v54zM253 278h202v366h-10z" />
    <glyph glyph-name="Ccedilla" unicode="&#xc7;" horiz-adv-x="656" 
d="M361 -209q-41 0 -64 13.5t-34 27.5l26 30q10 -11 24 -18.5t34 -7.5q23 0 37 10t14 30q0 14 -11.5 27.5t-49.5 17.5l-25 2l13 66q-64 5 -114.5 33t-86 75.5t-54.5 111t-19 140.5q0 87 22.5 154.5t61.5 113.5t92.5 69.5t115.5 23.5q65 0 104.5 -22t53.5 -51h5v61h91v-212
h-91v49q0 51 -39.5 81.5t-107.5 30.5q-45 0 -78.5 -15.5t-55 -44t-32.5 -68t-11 -86.5v-156q0 -103 51.5 -158t140.5 -55q68 0 114.5 35.5t68.5 92.5l47 -25q-11 -32 -31 -62.5t-49 -55t-67.5 -41t-85.5 -19.5l-10 -49l3 -3q10 2 20.5 4t19.5 2q32 0 53.5 -16.5t21.5 -50.5
q0 -23 -9.5 -39t-26 -26t-38 -15t-44.5 -5z" />
    <glyph glyph-name="Egrave" unicode="&#xc8;" horiz-adv-x="649" 
d="M49 54h73v590h-73v54h534v-176h-91v117h-251v-248h170v71h66v-201h-66v71h-170v-273h261v130h91v-189h-544v54zM204 914l100 48l74 -191l-36 -17z" />
    <glyph glyph-name="Eacute" unicode="&#xc9;" horiz-adv-x="649" 
d="M49 54h73v590h-73v54h534v-176h-91v117h-251v-248h170v71h66v-201h-66v71h-170v-273h261v130h91v-189h-544v54zM298 771l74 191l100 -48l-138 -160z" />
    <glyph glyph-name="Ecircumflex" unicode="&#xca;" horiz-adv-x="649" 
d="M49 54h73v590h-73v54h534v-176h-91v117h-251v-248h170v71h66v-201h-66v71h-170v-273h261v130h91v-189h-544v54zM174 782l128 161h72l128 -161l-32 -24l-132 99l-132 -99z" />
    <glyph glyph-name="Edieresis" unicode="&#xcb;" horiz-adv-x="649" 
d="M49 54h73v590h-73v54h534v-176h-91v117h-251v-248h170v71h66v-201h-66v71h-170v-273h261v130h91v-189h-544v54zM239 778q-29 0 -45 17t-16 42v4q0 25 16 42t45 17t45 -17t16 -42v-4q0 -25 -16 -42t-45 -17zM437 778q-29 0 -45 17t-16 42v4q0 25 16 42t45 17t45 -17
t16 -42v-4q0 -25 -16 -42t-45 -17z" />
    <glyph glyph-name="Igrave" unicode="&#xcc;" horiz-adv-x="363" 
d="M49 54h73v590h-73v54h265v-54h-73v-590h73v-54h-265v54zM49 914l100 48l74 -191l-36 -17z" />
    <glyph glyph-name="Iacute" unicode="&#xcd;" horiz-adv-x="363" 
d="M49 54h73v590h-73v54h265v-54h-73v-590h73v-54h-265v54zM143 771l74 191l100 -48l-138 -160z" />
    <glyph glyph-name="Icircumflex" unicode="&#xce;" horiz-adv-x="363" 
d="M49 54h73v590h-73v54h265v-54h-73v-590h73v-54h-265v54zM19 782l128 161h72l128 -161l-32 -24l-132 99l-132 -99z" />
    <glyph glyph-name="Idieresis" unicode="&#xcf;" horiz-adv-x="363" 
d="M49 54h73v590h-73v54h265v-54h-73v-590h73v-54h-265v54zM84 778q-29 0 -45 17t-16 42v4q0 25 16 42t45 17t45 -17t16 -42v-4q0 -25 -16 -42t-45 -17zM282 778q-29 0 -45 17t-16 42v4q0 25 16 42t45 17t45 -17t16 -42v-4q0 -25 -16 -42t-45 -17z" />
    <glyph glyph-name="Eth" unicode="&#xd0;" horiz-adv-x="728" 
d="M49 54h73v266h-85v58h85v266h-73v54h307q70 0 129 -22.5t102 -66.5t66.5 -109t23.5 -151t-23.5 -151t-66.5 -109t-102 -66.5t-129 -22.5h-307v54zM241 59h98q103 0 155 55t52 161v148q0 106 -52 161t-155 55h-98v-261h126v-58h-126v-261z" />
    <glyph glyph-name="Ntilde" unicode="&#xd1;" horiz-adv-x="784" 
d="M49 54h73v590h-73v54h212l337 -533h5v479h-73v54h211v-54h-73v-644h-101l-375 593h-5v-539h73v-54h-211v54zM474 774q-21 0 -40.5 9t-39.5 19l-40 20t-36 10t-26.5 -7t-29.5 -29l-27 27q25 37 47.5 59.5t57.5 22.5q21 0 40.5 -9t39.5 -19l40 -20t36 -10q8 0 14 1.5
t12 5.5t13 11t17 18l27 -27q-25 -37 -47.5 -59.5t-57.5 -22.5z" />
    <glyph glyph-name="Ograve" unicode="&#xd2;" horiz-adv-x="736" 
d="M368 50q86 0 136 57.5t50 160.5v162q0 103 -50 160.5t-136 57.5t-136 -57.5t-50 -160.5v-162q0 -103 50 -160.5t136 -57.5zM368 -12q-70 0 -128 24.5t-100 71t-65.5 113.5t-23.5 152t23.5 152t65.5 113.5t100 71t128 24.5t128 -24.5t100 -71t65.5 -113.5t23.5 -152
t-23.5 -152t-65.5 -113.5t-100 -71t-128 -24.5zM233 914l100 48l74 -191l-36 -17z" />
    <glyph glyph-name="Oacute" unicode="&#xd3;" horiz-adv-x="736" 
d="M368 50q86 0 136 57.5t50 160.5v162q0 103 -50 160.5t-136 57.5t-136 -57.5t-50 -160.5v-162q0 -103 50 -160.5t136 -57.5zM368 -12q-70 0 -128 24.5t-100 71t-65.5 113.5t-23.5 152t23.5 152t65.5 113.5t100 71t128 24.5t128 -24.5t100 -71t65.5 -113.5t23.5 -152
t-23.5 -152t-65.5 -113.5t-100 -71t-128 -24.5zM327 771l74 191l100 -48l-138 -160z" />
    <glyph glyph-name="Ocircumflex" unicode="&#xd4;" horiz-adv-x="736" 
d="M368 50q86 0 136 57.5t50 160.5v162q0 103 -50 160.5t-136 57.5t-136 -57.5t-50 -160.5v-162q0 -103 50 -160.5t136 -57.5zM368 -12q-70 0 -128 24.5t-100 71t-65.5 113.5t-23.5 152t23.5 152t65.5 113.5t100 71t128 24.5t128 -24.5t100 -71t65.5 -113.5t23.5 -152
t-23.5 -152t-65.5 -113.5t-100 -71t-128 -24.5zM203 782l128 161h72l128 -161l-32 -24l-132 99l-132 -99z" />
    <glyph glyph-name="Otilde" unicode="&#xd5;" horiz-adv-x="736" 
d="M368 50q86 0 136 57.5t50 160.5v162q0 103 -50 160.5t-136 57.5t-136 -57.5t-50 -160.5v-162q0 -103 50 -160.5t136 -57.5zM368 -12q-70 0 -128 24.5t-100 71t-65.5 113.5t-23.5 152t23.5 152t65.5 113.5t100 71t128 24.5t128 -24.5t100 -71t65.5 -113.5t23.5 -152
t-23.5 -152t-65.5 -113.5t-100 -71t-128 -24.5zM434 774q-21 0 -40.5 9t-39.5 19l-40 20t-36 10t-26.5 -7t-29.5 -29l-27 27q25 37 47.5 59.5t57.5 22.5q21 0 40.5 -9t39.5 -19l40 -20t36 -10q8 0 14 1.5t12 5.5t13 11t17 18l27 -27q-25 -37 -47.5 -59.5t-57.5 -22.5z" />
    <glyph glyph-name="Odieresis" unicode="&#xd6;" horiz-adv-x="736" 
d="M368 50q86 0 136 57.5t50 160.5v162q0 103 -50 160.5t-136 57.5t-136 -57.5t-50 -160.5v-162q0 -103 50 -160.5t136 -57.5zM368 -12q-70 0 -128 24.5t-100 71t-65.5 113.5t-23.5 152t23.5 152t65.5 113.5t100 71t128 24.5t128 -24.5t100 -71t65.5 -113.5t23.5 -152
t-23.5 -152t-65.5 -113.5t-100 -71t-128 -24.5zM268 778q-29 0 -45 17t-16 42v4q0 25 16 42t45 17t45 -17t16 -42v-4q0 -25 -16 -42t-45 -17zM466 778q-29 0 -45 17t-16 42v4q0 25 16 42t45 17t45 -17t16 -42v-4q0 -25 -16 -42t-45 -17z" />
    <glyph glyph-name="multiply" unicode="&#xd7;" 
d="M91 142l161 161l-161 161l48 48l161 -161l161 161l48 -48l-161 -161l161 -161l-48 -48l-161 161l-161 -161z" />
    <glyph glyph-name="Oslash" unicode="&#xd8;" horiz-adv-x="736" 
d="M90 -11l58 86q-46 46 -71.5 115t-25.5 159q0 85 23.5 152t65.5 113.5t100 71t128 24.5q99 0 174 -49l55 81l49 -33l-58 -86q46 -46 71.5 -115t25.5 -159q0 -85 -23.5 -152t-65.5 -113.5t-100 -71t-128 -24.5q-99 0 -174 49l-55 -81zM500 596q-49 52 -132 52
q-88 0 -138.5 -57.5t-50.5 -160.5v-162q0 -66 23 -117zM368 50q88 0 138.5 57.5t50.5 160.5v162q0 66 -23 117l-298 -445q49 -52 132 -52z" />
    <glyph glyph-name="Ugrave" unicode="&#xd9;" horiz-adv-x="750" 
d="M390 -12q-74 0 -126 15.5t-85 49.5t-48 87t-15 128v376h-73v54h265v-54h-73v-386q0 -52 8.5 -90t27.5 -63.5t50.5 -38t78.5 -12.5q94 0 132.5 49.5t38.5 153.5v387h-73v54h211v-54h-73v-370q0 -72 -13.5 -125.5t-42.5 -89.5t-76 -53.5t-114 -17.5zM269 914l100 48
l74 -191l-36 -17z" />
    <glyph glyph-name="Uacute" unicode="&#xda;" horiz-adv-x="750" 
d="M390 -12q-74 0 -126 15.5t-85 49.5t-48 87t-15 128v376h-73v54h265v-54h-73v-386q0 -52 8.5 -90t27.5 -63.5t50.5 -38t78.5 -12.5q94 0 132.5 49.5t38.5 153.5v387h-73v54h211v-54h-73v-370q0 -72 -13.5 -125.5t-42.5 -89.5t-76 -53.5t-114 -17.5zM363 771l74 191
l100 -48l-138 -160z" />
    <glyph glyph-name="Ucircumflex" unicode="&#xdb;" horiz-adv-x="750" 
d="M390 -12q-74 0 -126 15.5t-85 49.5t-48 87t-15 128v376h-73v54h265v-54h-73v-386q0 -52 8.5 -90t27.5 -63.5t50.5 -38t78.5 -12.5q94 0 132.5 49.5t38.5 153.5v387h-73v54h211v-54h-73v-370q0 -72 -13.5 -125.5t-42.5 -89.5t-76 -53.5t-114 -17.5zM239 782l128 161h72
l128 -161l-32 -24l-132 99l-132 -99z" />
    <glyph glyph-name="Udieresis" unicode="&#xdc;" horiz-adv-x="750" 
d="M390 -12q-74 0 -126 15.5t-85 49.5t-48 87t-15 128v376h-73v54h265v-54h-73v-386q0 -52 8.5 -90t27.5 -63.5t50.5 -38t78.5 -12.5q94 0 132.5 49.5t38.5 153.5v387h-73v54h211v-54h-73v-370q0 -72 -13.5 -125.5t-42.5 -89.5t-76 -53.5t-114 -17.5zM304 778q-29 0 -45 17
t-16 42v4q0 25 16 42t45 17t45 -17t16 -42v-4q0 -25 -16 -42t-45 -17zM502 778q-29 0 -45 17t-16 42v4q0 25 16 42t45 17t45 -17t16 -42v-4q0 -25 -16 -42t-45 -17z" />
    <glyph glyph-name="Yacute" unicode="&#xdd;" horiz-adv-x="655" 
d="M180 54h88v226l-195 364h-52v54h263v-54h-81l151 -290h5l151 290h-81v54h205v-54h-52l-195 -352v-238h88v-54h-295v54zM317 771l74 191l100 -48l-138 -160z" />
    <glyph glyph-name="Thorn" unicode="&#xde;" horiz-adv-x="653" 
d="M49 54h73v590h-73v54h265v-54h-73v-99h160q101 0 153.5 -48t52.5 -141q0 -94 -55 -145t-156 -51h-155v-106h73v-54h-265v54zM241 219h133q53 0 81.5 30t28.5 80v47q0 50 -28.5 80t-81.5 30h-133v-267z" />
    <glyph glyph-name="germandbls" unicode="&#xdf;" horiz-adv-x="674" 
d="M447 -12q-83 0 -125.5 31.5t-42.5 73.5q0 28 16 46t42 18t40 -16.5t14 -39.5q0 -19 -7.5 -30.5t-17.5 -16.5v-5q26 -11 71 -11q52 0 79.5 21.5t27.5 63.5q0 37 -20 56t-69 35l-26 8q-66 21 -97 55.5t-31 95.5q0 34 12.5 61.5t35 46.5t52.5 30t66 13v35q0 71 -31.5 106.5
t-91.5 35.5q-123 0 -123 -145v-556h-180v54h68v408h-68v58h68v18q0 103 61 162.5t174 59.5q57 0 99.5 -17.5t71.5 -47.5t43.5 -70t14.5 -85v-59h-42q-66 0 -97.5 -22.5t-31.5 -58.5q0 -18 4 -30.5t13.5 -22.5t25.5 -18t40 -16l26 -8q66 -20 100.5 -55.5t34.5 -95.5
q0 -36 -12.5 -66t-37.5 -52.5t-62.5 -35t-86.5 -12.5z" />
    <glyph glyph-name="agrave" unicode="&#xe0;" horiz-adv-x="553" 
d="M197 -12q-78 0 -117.5 38.5t-39.5 105.5q0 76 54 115t176 39h72v68q0 61 -27 93t-85 32q-49 0 -74 -14v-4q11 -5 20.5 -17.5t9.5 -34.5q0 -28 -16.5 -45t-47.5 -17q-26 0 -43.5 17.5t-17.5 47.5q0 23 13.5 44.5t39.5 38.5t63.5 27t86.5 10q94 0 142 -44t48 -123v-312h68
v-45q-14 -8 -36 -14t-47 -6q-46 0 -67.5 23.5t-21.5 60.5v5h-5q-7 -17 -18 -32.5t-28.5 -28.5t-42.5 -20.5t-59 -7.5zM241 58q44 0 72.5 21t28.5 69v89h-60q-71 0 -99 -23t-28 -66v-19q0 -36 23 -53.5t63 -17.5zM131 744l100 48l74 -191l-36 -17z" />
    <glyph glyph-name="aacute" unicode="&#xe1;" horiz-adv-x="553" 
d="M197 -12q-78 0 -117.5 38.5t-39.5 105.5q0 76 54 115t176 39h72v68q0 61 -27 93t-85 32q-49 0 -74 -14v-4q11 -5 20.5 -17.5t9.5 -34.5q0 -28 -16.5 -45t-47.5 -17q-26 0 -43.5 17.5t-17.5 47.5q0 23 13.5 44.5t39.5 38.5t63.5 27t86.5 10q94 0 142 -44t48 -123v-312h68
v-45q-14 -8 -36 -14t-47 -6q-46 0 -67.5 23.5t-21.5 60.5v5h-5q-7 -17 -18 -32.5t-28.5 -28.5t-42.5 -20.5t-59 -7.5zM241 58q44 0 72.5 21t28.5 69v89h-60q-71 0 -99 -23t-28 -66v-19q0 -36 23 -53.5t63 -17.5zM225 601l74 191l100 -48l-138 -160z" />
    <glyph glyph-name="acircumflex" unicode="&#xe2;" horiz-adv-x="553" 
d="M197 -12q-78 0 -117.5 38.5t-39.5 105.5q0 76 54 115t176 39h72v68q0 61 -27 93t-85 32q-49 0 -74 -14v-4q11 -5 20.5 -17.5t9.5 -34.5q0 -28 -16.5 -45t-47.5 -17q-26 0 -43.5 17.5t-17.5 47.5q0 23 13.5 44.5t39.5 38.5t63.5 27t86.5 10q94 0 142 -44t48 -123v-312h68
v-45q-14 -8 -36 -14t-47 -6q-46 0 -67.5 23.5t-21.5 60.5v5h-5q-7 -17 -18 -32.5t-28.5 -28.5t-42.5 -20.5t-59 -7.5zM241 58q44 0 72.5 21t28.5 69v89h-60q-71 0 -99 -23t-28 -66v-19q0 -36 23 -53.5t63 -17.5zM101 615l128 161h72l128 -161l-32 -24l-132 99l-132 -99z" />
    <glyph glyph-name="atilde" unicode="&#xe3;" horiz-adv-x="553" 
d="M197 -12q-78 0 -117.5 38.5t-39.5 105.5q0 76 54 115t176 39h72v68q0 61 -27 93t-85 32q-49 0 -74 -14v-4q11 -5 20.5 -17.5t9.5 -34.5q0 -28 -16.5 -45t-47.5 -17q-26 0 -43.5 17.5t-17.5 47.5q0 23 13.5 44.5t39.5 38.5t63.5 27t86.5 10q94 0 142 -44t48 -123v-312h68
v-45q-14 -8 -36 -14t-47 -6q-46 0 -67.5 23.5t-21.5 60.5v5h-5q-7 -17 -18 -32.5t-28.5 -28.5t-42.5 -20.5t-59 -7.5zM241 58q44 0 72.5 21t28.5 69v89h-60q-71 0 -99 -23t-28 -66v-19q0 -36 23 -53.5t63 -17.5zM332 609q-21 0 -40.5 9t-39.5 19l-40 20t-36 10t-26.5 -7
t-29.5 -29l-27 27q25 37 47.5 59.5t57.5 22.5q21 0 40.5 -9t39.5 -19l40 -20t36 -10q8 0 14 1.5t12 5.5t13 11t17 18l27 -27q-25 -37 -47.5 -59.5t-57.5 -22.5z" />
    <glyph glyph-name="adieresis" unicode="&#xe4;" horiz-adv-x="553" 
d="M197 -12q-78 0 -117.5 38.5t-39.5 105.5q0 76 54 115t176 39h72v68q0 61 -27 93t-85 32q-49 0 -74 -14v-4q11 -5 20.5 -17.5t9.5 -34.5q0 -28 -16.5 -45t-47.5 -17q-26 0 -43.5 17.5t-17.5 47.5q0 23 13.5 44.5t39.5 38.5t63.5 27t86.5 10q94 0 142 -44t48 -123v-312h68
v-45q-14 -8 -36 -14t-47 -6q-46 0 -67.5 23.5t-21.5 60.5v5h-5q-7 -17 -18 -32.5t-28.5 -28.5t-42.5 -20.5t-59 -7.5zM241 58q44 0 72.5 21t28.5 69v89h-60q-71 0 -99 -23t-28 -66v-19q0 -36 23 -53.5t63 -17.5zM166 610q-29 0 -45 17t-16 42v4q0 25 16 42t45 17t45 -17
t16 -42v-4q0 -25 -16 -42t-45 -17zM364 610q-29 0 -45 17t-16 42v4q0 25 16 42t45 17t45 -17t16 -42v-4q0 -25 -16 -42t-45 -17z" />
    <glyph glyph-name="aring" unicode="&#xe5;" horiz-adv-x="553" 
d="M197 -12q-78 0 -117.5 38.5t-39.5 105.5q0 76 54 115t176 39h72v68q0 61 -27 93t-85 32q-49 0 -74 -14v-4q11 -5 20.5 -17.5t9.5 -34.5q0 -28 -16.5 -45t-47.5 -17q-26 0 -43.5 17.5t-17.5 47.5q0 23 13.5 44.5t39.5 38.5t63.5 27t86.5 10q94 0 142 -44t48 -123v-312h68
v-45q-14 -8 -36 -14t-47 -6q-46 0 -67.5 23.5t-21.5 60.5v5h-5q-7 -17 -18 -32.5t-28.5 -28.5t-42.5 -20.5t-59 -7.5zM241 58q44 0 72.5 21t28.5 69v89h-60q-71 0 -99 -23t-28 -66v-19q0 -36 23 -53.5t63 -17.5zM265 613q26 0 41.5 15.5t15.5 44.5v44q0 29 -15.5 44.5
t-41.5 15.5t-41.5 -15.5t-15.5 -44.5v-44q0 -29 15.5 -44.5t41.5 -15.5zM265 571q-27 0 -51 9t-41 25.5t-27 39.5t-10 50t10 49.5t27 39t41 26t51 9.5t51 -9.5t41 -26t27 -39t10 -49.5t-10 -50t-27 -39.5t-41 -25.5t-51 -9z" />
    <glyph glyph-name="ae" unicode="&#xe6;" horiz-adv-x="831" 
d="M199 -12q-79 0 -119 40t-40 107q0 80 54 118.5t176 38.5h72v62q0 61 -27 93t-85 32q-49 0 -74 -14v-4q11 -5 20.5 -17.5t9.5 -34.5q0 -28 -16.5 -45t-47.5 -17q-26 0 -43.5 17.5t-17.5 47.5q0 23 13.5 44.5t39.5 38.5t63.5 27t86.5 10q62 0 98 -27t45 -64h6q7 19 22 35.5
t35.5 29t46 19.5t53.5 7q53 0 94 -18t69.5 -51t43 -78.5t14.5 -99.5v-32h-337v-24q0 -78 39.5 -120.5t106.5 -42.5q58 0 89 22.5t49 60.5l42 -26q-9 -25 -25 -49.5t-40.5 -43.5t-58 -30.5t-78.5 -11.5q-35 0 -65 8.5t-54 23t-41 34t-26 41.5h-6q-17 -50 -64 -78.5
t-123 -28.5zM241 58q44 0 72.5 21t28.5 69v95h-60q-71 0 -99 -23t-28 -66v-25q0 -36 23 -53.5t63 -17.5zM454 306h222v16q0 72 -25.5 113t-80.5 41q-57 0 -86.5 -39t-29.5 -111v-20z" />
    <glyph glyph-name="ccedilla" unicode="&#xe7;" horiz-adv-x="524" 
d="M294 -209q-41 0 -64 13.5t-34 27.5l26 30q10 -11 24 -18.5t34 -7.5q23 0 37 10t14 30q0 14 -11.5 27.5t-49.5 17.5l-25 2l13 66q-52 5 -92.5 27t-68 57.5t-41.5 83t-14 103.5q0 64 19 114.5t53 85.5t80.5 53.5t101.5 18.5q86 0 134.5 -36t48.5 -92q0 -35 -19 -54.5
t-51 -19.5q-33 0 -50 18.5t-17 46.5q0 23 12 40t31 25v5q-12 5 -30 9.5t-45 4.5q-33 0 -60 -12t-46 -33.5t-29.5 -51.5t-10.5 -67v-87q0 -75 37 -118.5t101 -43.5q60 0 93.5 26t51.5 64l43 -26q-9 -24 -24.5 -48t-38 -44t-53.5 -33t-70 -16l-10 -49l3 -3q10 2 20.5 4t19.5 2
q32 0 53.5 -16.5t21.5 -50.5q0 -23 -9.5 -39t-26 -26t-38 -15t-44.5 -5z" />
    <glyph glyph-name="egrave" unicode="&#xe8;" horiz-adv-x="547" 
d="M285 -12q-58 0 -103 19.5t-76 55.5t-47.5 86t-16.5 111q0 62 17.5 112t49 85.5t75 55t95.5 19.5q53 0 95 -17.5t71.5 -49.5t45.5 -77t16 -100v-27h-344v-32q0 -78 39 -120.5t105 -42.5q58 0 93.5 25.5t52.5 63.5l43 -26q-9 -26 -26.5 -51t-43.5 -45t-61 -32.5t-80 -12.5z
M163 314h228v11q0 72 -27.5 111.5t-84.5 39.5q-56 0 -86 -38.5t-30 -110.5v-13zM145 744l100 48l74 -191l-36 -17z" />
    <glyph glyph-name="eacute" unicode="&#xe9;" horiz-adv-x="547" 
d="M285 -12q-58 0 -103 19.5t-76 55.5t-47.5 86t-16.5 111q0 62 17.5 112t49 85.5t75 55t95.5 19.5q53 0 95 -17.5t71.5 -49.5t45.5 -77t16 -100v-27h-344v-32q0 -78 39 -120.5t105 -42.5q58 0 93.5 25.5t52.5 63.5l43 -26q-9 -26 -26.5 -51t-43.5 -45t-61 -32.5t-80 -12.5z
M163 314h228v11q0 72 -27.5 111.5t-84.5 39.5q-56 0 -86 -38.5t-30 -110.5v-13zM239 601l74 191l100 -48l-138 -160z" />
    <glyph glyph-name="ecircumflex" unicode="&#xea;" horiz-adv-x="547" 
d="M285 -12q-58 0 -103 19.5t-76 55.5t-47.5 86t-16.5 111q0 62 17.5 112t49 85.5t75 55t95.5 19.5q53 0 95 -17.5t71.5 -49.5t45.5 -77t16 -100v-27h-344v-32q0 -78 39 -120.5t105 -42.5q58 0 93.5 25.5t52.5 63.5l43 -26q-9 -26 -26.5 -51t-43.5 -45t-61 -32.5t-80 -12.5z
M163 314h228v11q0 72 -27.5 111.5t-84.5 39.5q-56 0 -86 -38.5t-30 -110.5v-13zM115 615l128 161h72l128 -161l-32 -24l-132 99l-132 -99z" />
    <glyph glyph-name="edieresis" unicode="&#xeb;" horiz-adv-x="547" 
d="M285 -12q-58 0 -103 19.5t-76 55.5t-47.5 86t-16.5 111q0 62 17.5 112t49 85.5t75 55t95.5 19.5q53 0 95 -17.5t71.5 -49.5t45.5 -77t16 -100v-27h-344v-32q0 -78 39 -120.5t105 -42.5q58 0 93.5 25.5t52.5 63.5l43 -26q-9 -26 -26.5 -51t-43.5 -45t-61 -32.5t-80 -12.5z
M163 314h228v11q0 72 -27.5 111.5t-84.5 39.5q-56 0 -86 -38.5t-30 -110.5v-13zM180 610q-29 0 -45 17t-16 42v4q0 25 16 42t45 17t45 -17t16 -42v-4q0 -25 -16 -42t-45 -17zM378 610q-29 0 -45 17t-16 42v4q0 25 16 42t45 17t45 -17t16 -42v-4q0 -25 -16 -42t-45 -17z" />
    <glyph glyph-name="igrave" unicode="&#xec;" horiz-adv-x="323" 
d="M44 54h68v386l-68 13v44l180 35v-478h68v-54h-248v54zM35 744l100 48l74 -191l-36 -17z" />
    <glyph glyph-name="iacute" unicode="&#xed;" horiz-adv-x="323" 
d="M44 54h68v386l-68 13v44l180 35v-478h68v-54h-248v54zM129 601l74 191l100 -48l-138 -160z" />
    <glyph glyph-name="icircumflex" unicode="&#xee;" horiz-adv-x="323" 
d="M44 54h68v386l-68 13v44l180 35v-478h68v-54h-248v54zM5 615l128 161h72l128 -161l-32 -24l-132 99l-132 -99z" />
    <glyph glyph-name="idieresis" unicode="&#xef;" horiz-adv-x="323" 
d="M44 54h68v386l-68 13v44l180 35v-478h68v-54h-248v54zM70 610q-29 0 -45 17t-16 42v4q0 25 16 42t45 17t45 -17t16 -42v-4q0 -25 -16 -42t-45 -17zM268 610q-29 0 -45 17t-16 42v4q0 25 16 42t45 17t45 -17t16 -42v-4q0 -25 -16 -42t-45 -17z" />
    <glyph glyph-name="eth" unicode="&#xf0;" horiz-adv-x="574" 
d="M283 -12q-56 0 -101 18.5t-76 52.5t-47.5 82.5t-16.5 108.5q0 57 15 104t42 80.5t65.5 51.5t86.5 18q46 0 80 -19t58 -54l4 3q-15 48 -40.5 95.5t-60.5 87.5l-90 -61l-34 44l87 59q-25 24 -56 48t-62 41h91q19 -9 41 -23t42 -28l93 63l34 -44l-81 -55q33 -30 63 -68
t53.5 -85.5t37 -106t13.5 -130.5t-17 -125.5t-48.5 -88.5t-76 -52t-99.5 -17zM283 46q57 0 89.5 36t32.5 108v104q0 72 -32.5 108t-89.5 36t-89.5 -36t-32.5 -108v-104q0 -72 32.5 -108t89.5 -36z" />
    <glyph glyph-name="ntilde" unicode="&#xf1;" horiz-adv-x="648" 
d="M44 54h68v386l-68 13v44l177 35v-93h5q6 17 18.5 34t31 30t43 21t55.5 8q95 0 135 -48.5t40 -145.5v-284h68v-54h-246v54h66v278q0 65 -25 95t-79 30q-20 0 -39.5 -5.5t-35 -17t-25 -28.5t-9.5 -41v-311h66v-54h-246v54zM404 609q-21 0 -40.5 9t-39.5 19l-40 20t-36 10
t-26.5 -7t-29.5 -29l-27 27q25 37 47.5 59.5t57.5 22.5q21 0 40.5 -9t39.5 -19l40 -20t36 -10q8 0 14 1.5t12 5.5t13 11t17 18l27 -27q-25 -37 -47.5 -59.5t-57.5 -22.5z" />
    <glyph glyph-name="ograve" unicode="&#xf2;" horiz-adv-x="572" 
d="M286 47q63 0 92.5 39t29.5 104v140q0 65 -29.5 104t-92.5 39t-92.5 -39t-29.5 -104v-140q0 -65 29.5 -104t92.5 -39zM286 -12q-55 0 -100 19t-77 54t-49.5 85.5t-17.5 113.5t17.5 113.5t49.5 85.5t77 54t100 19t100 -19t77 -54t49.5 -85.5t17.5 -113.5t-17.5 -113.5
t-49.5 -85.5t-77 -54t-100 -19zM153 744l100 48l74 -191l-36 -17z" />
    <glyph glyph-name="oacute" unicode="&#xf3;" horiz-adv-x="572" 
d="M286 47q63 0 92.5 39t29.5 104v140q0 65 -29.5 104t-92.5 39t-92.5 -39t-29.5 -104v-140q0 -65 29.5 -104t92.5 -39zM286 -12q-55 0 -100 19t-77 54t-49.5 85.5t-17.5 113.5t17.5 113.5t49.5 85.5t77 54t100 19t100 -19t77 -54t49.5 -85.5t17.5 -113.5t-17.5 -113.5
t-49.5 -85.5t-77 -54t-100 -19zM247 601l74 191l100 -48l-138 -160z" />
    <glyph glyph-name="ocircumflex" unicode="&#xf4;" horiz-adv-x="572" 
d="M286 47q63 0 92.5 39t29.5 104v140q0 65 -29.5 104t-92.5 39t-92.5 -39t-29.5 -104v-140q0 -65 29.5 -104t92.5 -39zM286 -12q-55 0 -100 19t-77 54t-49.5 85.5t-17.5 113.5t17.5 113.5t49.5 85.5t77 54t100 19t100 -19t77 -54t49.5 -85.5t17.5 -113.5t-17.5 -113.5
t-49.5 -85.5t-77 -54t-100 -19zM123 615l128 161h72l128 -161l-32 -24l-132 99l-132 -99z" />
    <glyph glyph-name="otilde" unicode="&#xf5;" horiz-adv-x="572" 
d="M286 47q63 0 92.5 39t29.5 104v140q0 65 -29.5 104t-92.5 39t-92.5 -39t-29.5 -104v-140q0 -65 29.5 -104t92.5 -39zM286 -12q-55 0 -100 19t-77 54t-49.5 85.5t-17.5 113.5t17.5 113.5t49.5 85.5t77 54t100 19t100 -19t77 -54t49.5 -85.5t17.5 -113.5t-17.5 -113.5
t-49.5 -85.5t-77 -54t-100 -19zM354 609q-21 0 -40.5 9t-39.5 19l-40 20t-36 10t-26.5 -7t-29.5 -29l-27 27q25 37 47.5 59.5t57.5 22.5q21 0 40.5 -9t39.5 -19l40 -20t36 -10q8 0 14 1.5t12 5.5t13 11t17 18l27 -27q-25 -37 -47.5 -59.5t-57.5 -22.5z" />
    <glyph glyph-name="odieresis" unicode="&#xf6;" horiz-adv-x="572" 
d="M286 47q63 0 92.5 39t29.5 104v140q0 65 -29.5 104t-92.5 39t-92.5 -39t-29.5 -104v-140q0 -65 29.5 -104t92.5 -39zM286 -12q-55 0 -100 19t-77 54t-49.5 85.5t-17.5 113.5t17.5 113.5t49.5 85.5t77 54t100 19t100 -19t77 -54t49.5 -85.5t17.5 -113.5t-17.5 -113.5
t-49.5 -85.5t-77 -54t-100 -19zM188 610q-29 0 -45 17t-16 42v4q0 25 16 42t45 17t45 -17t16 -42v-4q0 -25 -16 -42t-45 -17zM386 610q-29 0 -45 17t-16 42v4q0 25 16 42t45 17t45 -17t16 -42v-4q0 -25 -16 -42t-45 -17z" />
    <glyph glyph-name="divide" unicode="&#xf7;" 
d="M300 52q-33 0 -51 19.5t-18 46.5v5q0 27 18 46.5t51 19.5t51 -19.5t18 -46.5v-5q0 -27 -18 -46.5t-51 -19.5zM300 421q-33 0 -51 19.5t-18 46.5v5q0 27 18 46.5t51 19.5t51 -19.5t18 -46.5v-5q0 -27 -18 -46.5t-51 -19.5zM66 339h468v-68h-468v68z" />
    <glyph glyph-name="oslash" unicode="&#xf8;" horiz-adv-x="572" 
d="M46 -5l57 74q-29 35 -45 83t-16 108q0 63 17.5 113.5t49.5 85.5t77 54t100 19q42 0 77.5 -11t64.5 -31l54 69l44 -34l-57 -74q29 -35 45 -83t16 -108q0 -63 -17.5 -113.5t-49.5 -85.5t-77 -54t-100 -19q-42 0 -77.5 11t-64.5 31l-54 -69zM384 430q-15 20 -39.5 31.5
t-58.5 11.5q-65 0 -95.5 -39t-30.5 -104v-140q0 -26 4 -45zM286 47q65 0 95.5 39t30.5 104v140q0 26 -4 45l-220 -285q15 -20 39.5 -31.5t58.5 -11.5z" />
    <glyph glyph-name="ugrave" unicode="&#xf9;" horiz-adv-x="631" 
d="M270 -12q-95 0 -135 48.5t-40 145.5v258l-68 13v44l180 35v-344q0 -65 25 -95t79 -30q20 0 39.5 5.5t35 17t25 28.5t9.5 41v285l-68 13v44l180 35v-452l68 -13v-44l-177 -35v93h-5q-6 -17 -18.5 -34t-31 -30t-43 -21t-55.5 -8zM175 744l100 48l74 -191l-36 -17z" />
    <glyph glyph-name="uacute" unicode="&#xfa;" horiz-adv-x="631" 
d="M270 -12q-95 0 -135 48.5t-40 145.5v258l-68 13v44l180 35v-344q0 -65 25 -95t79 -30q20 0 39.5 5.5t35 17t25 28.5t9.5 41v285l-68 13v44l180 35v-452l68 -13v-44l-177 -35v93h-5q-6 -17 -18.5 -34t-31 -30t-43 -21t-55.5 -8zM269 601l74 191l100 -48l-138 -160z" />
    <glyph glyph-name="ucircumflex" unicode="&#xfb;" horiz-adv-x="631" 
d="M270 -12q-95 0 -135 48.5t-40 145.5v258l-68 13v44l180 35v-344q0 -65 25 -95t79 -30q20 0 39.5 5.5t35 17t25 28.5t9.5 41v285l-68 13v44l180 35v-452l68 -13v-44l-177 -35v93h-5q-6 -17 -18.5 -34t-31 -30t-43 -21t-55.5 -8zM145 615l128 161h72l128 -161l-32 -24
l-132 99l-132 -99z" />
    <glyph glyph-name="udieresis" unicode="&#xfc;" horiz-adv-x="631" 
d="M270 -12q-95 0 -135 48.5t-40 145.5v258l-68 13v44l180 35v-344q0 -65 25 -95t79 -30q20 0 39.5 5.5t35 17t25 28.5t9.5 41v285l-68 13v44l180 35v-452l68 -13v-44l-177 -35v93h-5q-6 -17 -18.5 -34t-31 -30t-43 -21t-55.5 -8zM210 610q-29 0 -45 17t-16 42v4q0 25 16 42
t45 17t45 -17t16 -42v-4q0 -25 -16 -42t-45 -17zM408 610q-29 0 -45 17t-16 42v4q0 25 16 42t45 17t45 -17t16 -42v-4q0 -25 -16 -42t-45 -17z" />
    <glyph glyph-name="yacute" unicode="&#xfd;" horiz-adv-x="550" 
d="M123 -212q-54 0 -81.5 25t-27.5 62q0 31 16.5 48.5t46.5 17.5q28 0 43.5 -17t15.5 -43q0 -15 -6.5 -26.5t-14.5 -16.5v-4q5 -2 9.5 -2h11.5q54 0 93 101l16 44l-190 489h-50v54h237v-54h-67l124 -347h5l123 347h-66v54h183v-54h-50l-209 -538q-11 -27 -25.5 -52.5
t-34 -45t-44.5 -31t-58 -11.5zM260 601l74 191l100 -48l-138 -160z" />
    <glyph glyph-name="thorn" unicode="&#xfe;" horiz-adv-x="610" 
d="M22 -146h68v814l-68 13v44l180 35v-318h5q16 36 52 63t94 27q48 0 87 -18.5t66 -53.5t42 -85.5t15 -114.5t-15 -114.5t-42 -85.5t-66 -53.5t-87 -18.5q-59 0 -94.5 27t-51.5 63h-5v-224h88v-54h-268v54zM318 60q57 0 91 39t34 108v106q0 69 -34 108t-91 39
q-23 0 -43.5 -6.5t-37 -19.5t-26 -31t-9.5 -41v-204q0 -23 9.5 -41t26 -31t37 -19.5t43.5 -6.5z" />
    <glyph glyph-name="ydieresis" unicode="&#xff;" horiz-adv-x="550" 
d="M123 -212q-54 0 -81.5 25t-27.5 62q0 31 16.5 48.5t46.5 17.5q28 0 43.5 -17t15.5 -43q0 -15 -6.5 -26.5t-14.5 -16.5v-4q5 -2 9.5 -2h11.5q54 0 93 101l16 44l-190 489h-50v54h237v-54h-67l124 -347h5l123 347h-66v54h183v-54h-50l-209 -538q-11 -27 -25.5 -52.5
t-34 -45t-44.5 -31t-58 -11.5zM201 610q-29 0 -45 17t-16 42v4q0 25 16 42t45 17t45 -17t16 -42v-4q0 -25 -16 -42t-45 -17zM399 610q-29 0 -45 17t-16 42v4q0 25 16 42t45 17t45 -17t16 -42v-4q0 -25 -16 -42t-45 -17z" />
    <glyph glyph-name="Amacron" unicode="&#x100;" horiz-adv-x="692" 
d="M15 54h52l222 644h114l222 -644h52v-54h-261v54h86l-56 167h-253l-56 -167h86v-54h-208v54zM209 278h221l-108 326h-5zM198 875h296v-71h-296v71z" />
    <glyph glyph-name="amacron" unicode="&#x101;" horiz-adv-x="553" 
d="M197 -12q-78 0 -117.5 38.5t-39.5 105.5q0 76 54 115t176 39h72v68q0 61 -27 93t-85 32q-49 0 -74 -14v-4q11 -5 20.5 -17.5t9.5 -34.5q0 -28 -16.5 -45t-47.5 -17q-26 0 -43.5 17.5t-17.5 47.5q0 23 13.5 44.5t39.5 38.5t63.5 27t86.5 10q94 0 142 -44t48 -123v-312h68
v-45q-14 -8 -36 -14t-47 -6q-46 0 -67.5 23.5t-21.5 60.5v5h-5q-7 -17 -18 -32.5t-28.5 -28.5t-42.5 -20.5t-59 -7.5zM241 58q44 0 72.5 21t28.5 69v89h-60q-71 0 -99 -23t-28 -66v-19q0 -36 23 -53.5t63 -17.5zM117 708h296v-71h-296v71z" />
    <glyph glyph-name="Abreve" unicode="&#x102;" horiz-adv-x="692" 
d="M15 54h52l222 644h114l222 -644h52v-54h-261v54h86l-56 167h-253l-56 -167h86v-54h-208v54zM209 278h221l-108 326h-5zM346 758q-39 0 -65 14t-44 36t-29.5 50t-20.5 55l36 19l21 -36q16 -28 37.5 -41t64.5 -13t64.5 13t37.5 41l21 36l36 -19q-9 -27 -20.5 -55t-29.5 -50
t-44 -36t-65 -14z" />
    <glyph glyph-name="abreve" unicode="&#x103;" horiz-adv-x="553" 
d="M197 -12q-78 0 -117.5 38.5t-39.5 105.5q0 76 54 115t176 39h72v68q0 61 -27 93t-85 32q-49 0 -74 -14v-4q11 -5 20.5 -17.5t9.5 -34.5q0 -28 -16.5 -45t-47.5 -17q-26 0 -43.5 17.5t-17.5 47.5q0 23 13.5 44.5t39.5 38.5t63.5 27t86.5 10q94 0 142 -44t48 -123v-312h68
v-45q-14 -8 -36 -14t-47 -6q-46 0 -67.5 23.5t-21.5 60.5v5h-5q-7 -17 -18 -32.5t-28.5 -28.5t-42.5 -20.5t-59 -7.5zM241 58q44 0 72.5 21t28.5 69v89h-60q-71 0 -99 -23t-28 -66v-19q0 -36 23 -53.5t63 -17.5zM265 591q-39 0 -65 14t-44 36t-29.5 50t-20.5 55l36 19
l21 -36q16 -28 37.5 -41t64.5 -13t64.5 13t37.5 41l21 36l36 -19q-9 -27 -20.5 -55t-29.5 -50t-44 -36t-65 -14z" />
    <glyph glyph-name="Aogonek" unicode="&#x104;" horiz-adv-x="692" 
d="M598 -209q-41 0 -69.5 19t-28.5 61q0 38 33.5 68.5t91.5 56.5l-1 4h-208v54h86l-56 167h-253l-56 -167h86v-54h-208v54h52l222 644h114l222 -644h52v-54q-32 -20 -51 -37t-29 -31.5t-13 -26.5t-3 -21q0 -20 10.5 -32t30.5 -12q26 0 44 21l27 -28q-12 -18 -35.5 -30
t-59.5 -12zM209 278h221l-108 326h-5z" />
    <glyph glyph-name="aogonek" unicode="&#x105;" horiz-adv-x="552" 
d="M441 -209q-42 0 -72 19t-30 61q0 35 28 62t78 53l-1 3h-5q-46 0 -67.5 23.5t-21.5 59.5v5h-5q-7 -17 -18 -32.5t-28.5 -28.5t-42.5 -20.5t-59 -7.5q-78 0 -117.5 38.5t-39.5 105.5q0 76 54 115t176 39h72v68q0 61 -27 93t-85 32q-49 0 -74 -14v-4q11 -5 20.5 -17.5
t9.5 -34.5q0 -28 -16.5 -45t-47.5 -17q-26 0 -43.5 17.5t-17.5 47.5q0 23 13.5 44.5t39.5 38.5t63.5 27t86.5 10q94 0 142 -44t48 -123v-312h68v-45l-15 -8q-27 -14 -43.5 -30t-26.5 -31.5t-13.5 -30t-3.5 -24.5q0 -20 12 -32t33 -12q26 0 44 21l27 -28q-12 -18 -35.5 -30
t-59.5 -12zM241 58q44 0 72.5 21t28.5 69v89h-60q-71 0 -99 -23t-28 -66v-19q0 -36 23 -53.5t63 -17.5z" />
    <glyph glyph-name="Cacute" unicode="&#x106;" horiz-adv-x="656" 
d="M351 -12q-70 0 -125.5 26.5t-94.5 74t-59.5 114t-20.5 146.5q0 87 22.5 154.5t61.5 113.5t92.5 69.5t115.5 23.5q65 0 104.5 -22t53.5 -51h5v61h91v-212h-91v49q0 51 -39.5 81.5t-107.5 30.5q-45 0 -78.5 -15.5t-55 -44t-32.5 -68t-11 -86.5v-156q0 -103 51.5 -158
t140.5 -55q68 0 114.5 35.5t68.5 92.5l47 -25q-11 -33 -32.5 -65t-53.5 -57.5t-74 -41t-93 -15.5zM308 771l74 191l100 -48l-138 -160z" />
    <glyph glyph-name="cacute" unicode="&#x107;" horiz-adv-x="524" 
d="M286 -12q-59 0 -104.5 20t-76.5 56t-47 86t-16 110q0 64 19 114.5t53 85.5t80.5 53.5t101.5 18.5q86 0 134.5 -36t48.5 -92q0 -35 -19 -54.5t-51 -19.5q-33 0 -50 18.5t-17 46.5q0 23 12 40t31 25v5q-12 5 -30 9.5t-45 4.5q-33 0 -60 -12t-46 -33.5t-29.5 -51.5
t-10.5 -67v-87q0 -75 37 -118.5t101 -43.5q60 0 93.5 26t51.5 64l43 -26q-9 -26 -26 -51t-42 -45.5t-59 -33t-77 -12.5zM248 601l74 191l100 -48l-138 -160z" />
    <glyph glyph-name="Ccircumflex" unicode="&#x108;" horiz-adv-x="656" 
d="M351 -12q-70 0 -125.5 26.5t-94.5 74t-59.5 114t-20.5 146.5q0 87 22.5 154.5t61.5 113.5t92.5 69.5t115.5 23.5q65 0 104.5 -22t53.5 -51h5v61h91v-212h-91v49q0 51 -39.5 81.5t-107.5 30.5q-45 0 -78.5 -15.5t-55 -44t-32.5 -68t-11 -86.5v-156q0 -103 51.5 -158
t140.5 -55q68 0 114.5 35.5t68.5 92.5l47 -25q-11 -33 -32.5 -65t-53.5 -57.5t-74 -41t-93 -15.5zM184 782l128 161h72l128 -161l-32 -24l-132 99l-132 -99z" />
    <glyph glyph-name="ccircumflex" unicode="&#x109;" horiz-adv-x="524" 
d="M286 -12q-59 0 -104.5 20t-76.5 56t-47 86t-16 110q0 64 19 114.5t53 85.5t80.5 53.5t101.5 18.5q86 0 134.5 -36t48.5 -92q0 -35 -19 -54.5t-51 -19.5q-33 0 -50 18.5t-17 46.5q0 23 12 40t31 25v5q-12 5 -30 9.5t-45 4.5q-33 0 -60 -12t-46 -33.5t-29.5 -51.5
t-10.5 -67v-87q0 -75 37 -118.5t101 -43.5q60 0 93.5 26t51.5 64l43 -26q-9 -26 -26 -51t-42 -45.5t-59 -33t-77 -12.5zM124 615l128 161h72l128 -161l-32 -24l-132 99l-132 -99z" />
    <glyph glyph-name="Cdotaccent" unicode="&#x10a;" horiz-adv-x="656" 
d="M351 -12q-70 0 -125.5 26.5t-94.5 74t-59.5 114t-20.5 146.5q0 87 22.5 154.5t61.5 113.5t92.5 69.5t115.5 23.5q65 0 104.5 -22t53.5 -51h5v61h91v-212h-91v49q0 51 -39.5 81.5t-107.5 30.5q-45 0 -78.5 -15.5t-55 -44t-32.5 -68t-11 -86.5v-156q0 -103 51.5 -158
t140.5 -55q68 0 114.5 35.5t68.5 92.5l47 -25q-11 -33 -32.5 -65t-53.5 -57.5t-74 -41t-93 -15.5zM348 774q-30 0 -48 18t-18 46v3q0 28 18 46t48 18t48 -18t18 -46v-3q0 -28 -18 -46t-48 -18z" />
    <glyph glyph-name="cdotaccent" unicode="&#x10b;" horiz-adv-x="524" 
d="M286 -12q-59 0 -104.5 20t-76.5 56t-47 86t-16 110q0 64 19 114.5t53 85.5t80.5 53.5t101.5 18.5q86 0 134.5 -36t48.5 -92q0 -35 -19 -54.5t-51 -19.5q-33 0 -50 18.5t-17 46.5q0 23 12 40t31 25v5q-12 5 -30 9.5t-45 4.5q-33 0 -60 -12t-46 -33.5t-29.5 -51.5
t-10.5 -67v-87q0 -75 37 -118.5t101 -43.5q60 0 93.5 26t51.5 64l43 -26q-9 -26 -26 -51t-42 -45.5t-59 -33t-77 -12.5zM288 606q-30 0 -48 18t-18 46v3q0 28 18 46t48 18t48 -18t18 -46v-3q0 -28 -18 -46t-48 -18z" />
    <glyph glyph-name="Ccaron" unicode="&#x10c;" horiz-adv-x="656" 
d="M351 -12q-70 0 -125.5 26.5t-94.5 74t-59.5 114t-20.5 146.5q0 87 22.5 154.5t61.5 113.5t92.5 69.5t115.5 23.5q65 0 104.5 -22t53.5 -51h5v61h91v-212h-91v49q0 51 -39.5 81.5t-107.5 30.5q-45 0 -78.5 -15.5t-55 -44t-32.5 -68t-11 -86.5v-156q0 -103 51.5 -158
t140.5 -55q68 0 114.5 35.5t68.5 92.5l47 -25q-11 -33 -32.5 -65t-53.5 -57.5t-74 -41t-93 -15.5zM184 923l32 24l132 -99l132 99l32 -24l-128 -161h-72z" />
    <glyph glyph-name="ccaron" unicode="&#x10d;" horiz-adv-x="524" 
d="M286 -12q-59 0 -104.5 20t-76.5 56t-47 86t-16 110q0 64 19 114.5t53 85.5t80.5 53.5t101.5 18.5q86 0 134.5 -36t48.5 -92q0 -35 -19 -54.5t-51 -19.5q-33 0 -50 18.5t-17 46.5q0 23 12 40t31 25v5q-12 5 -30 9.5t-45 4.5q-33 0 -60 -12t-46 -33.5t-29.5 -51.5
t-10.5 -67v-87q0 -75 37 -118.5t101 -43.5q60 0 93.5 26t51.5 64l43 -26q-9 -26 -26 -51t-42 -45.5t-59 -33t-77 -12.5zM124 756l32 24l132 -99l132 99l32 -24l-128 -161h-72z" />
    <glyph glyph-name="Dcaron" unicode="&#x10e;" horiz-adv-x="728" 
d="M49 54h73v590h-73v54h307q70 0 129 -22.5t102 -66.5t66.5 -109t23.5 -151t-23.5 -151t-66.5 -109t-102 -66.5t-129 -22.5h-307v54zM241 59h98q103 0 155 55t52 161v148q0 106 -52 161t-155 55h-98v-580zM160 923l32 24l132 -99l132 99l32 -24l-128 -161h-72z" />
    <glyph glyph-name="dcaron" unicode="&#x10f;" horiz-adv-x="619" 
d="M257 -12q-48 0 -87 18.5t-66 53.5t-42 85.5t-15 114.5t15 114.5t42 85.5t66 53.5t87 18.5q59 0 94.5 -27t51.5 -63h5v226l-68 13v44l180 35v-680l68 -13v-44l-180 -35v90h-5q-16 -36 -52 -63t-94 -27zM292 60q22 0 43 6.5t37.5 19.5t26 31t9.5 41v204q0 23 -9.5 41
t-26 31t-37.5 19.5t-43 6.5q-57 0 -91 -39t-34 -108v-106q0 -69 34 -108t91 -39zM583 748h103l-74 -197h-38z" />
    <glyph glyph-name="Dcroat" unicode="&#x110;" horiz-adv-x="728" 
d="M49 54h73v266h-85v58h85v266h-73v54h307q70 0 129 -22.5t102 -66.5t66.5 -109t23.5 -151t-23.5 -151t-66.5 -109t-102 -66.5t-129 -22.5h-307v54zM241 59h98q103 0 155 55t52 161v148q0 106 -52 161t-155 55h-98v-261h126v-58h-126v-261z" />
    <glyph glyph-name="dcroat" unicode="&#x111;" horiz-adv-x="619" 
d="M257 -12q-48 0 -87 18.5t-66 53.5t-42 85.5t-15 114.5t15 114.5t42 85.5t66 53.5t87 18.5q59 0 94.5 -27t51.5 -63h5v167h-174v56h174v73l112 22v-95h82v-56h-82v-529l68 -13v-44l-180 -35v90h-5q-16 -36 -52 -63t-94 -27zM292 60q22 0 43 6.5t37.5 19.5t26 31t9.5 41
v204q0 23 -9.5 41t-26 31t-37.5 19.5t-43 6.5q-57 0 -91 -39t-34 -108v-106q0 -69 34 -108t91 -39z" />
    <glyph glyph-name="Emacron" unicode="&#x112;" horiz-adv-x="649" 
d="M49 54h73v590h-73v54h534v-176h-91v117h-251v-248h170v71h66v-201h-66v71h-170v-273h261v130h91v-189h-544v54zM190 875h296v-71h-296v71z" />
    <glyph glyph-name="emacron" unicode="&#x113;" horiz-adv-x="547" 
d="M285 -12q-58 0 -103 19.5t-76 55.5t-47.5 86t-16.5 111q0 62 17.5 112t49 85.5t75 55t95.5 19.5q53 0 95 -17.5t71.5 -49.5t45.5 -77t16 -100v-27h-344v-32q0 -78 39 -120.5t105 -42.5q58 0 93.5 25.5t52.5 63.5l43 -26q-9 -26 -26.5 -51t-43.5 -45t-61 -32.5t-80 -12.5z
M163 314h228v11q0 72 -27.5 111.5t-84.5 39.5q-56 0 -86 -38.5t-30 -110.5v-13zM131 708h296v-71h-296v71z" />
    <glyph glyph-name="Ebreve" unicode="&#x114;" horiz-adv-x="649" 
d="M49 54h73v590h-73v54h534v-176h-91v117h-251v-248h170v71h66v-201h-66v71h-170v-273h261v130h91v-189h-544v54zM338 758q-39 0 -65 14t-44 36t-29.5 50t-20.5 55l36 19l21 -36q16 -28 37.5 -41t64.5 -13t64.5 13t37.5 41l21 36l36 -19q-9 -27 -20.5 -55t-29.5 -50
t-44 -36t-65 -14z" />
    <glyph glyph-name="ebreve" unicode="&#x115;" horiz-adv-x="547" 
d="M285 -12q-58 0 -103 19.5t-76 55.5t-47.5 86t-16.5 111q0 62 17.5 112t49 85.5t75 55t95.5 19.5q53 0 95 -17.5t71.5 -49.5t45.5 -77t16 -100v-27h-344v-32q0 -78 39 -120.5t105 -42.5q58 0 93.5 25.5t52.5 63.5l43 -26q-9 -26 -26.5 -51t-43.5 -45t-61 -32.5t-80 -12.5z
M163 314h228v11q0 72 -27.5 111.5t-84.5 39.5q-56 0 -86 -38.5t-30 -110.5v-13zM279 591q-39 0 -65 14t-44 36t-29.5 50t-20.5 55l36 19l21 -36q16 -28 37.5 -41t64.5 -13t64.5 13t37.5 41l21 36l36 -19q-9 -27 -20.5 -55t-29.5 -50t-44 -36t-65 -14z" />
    <glyph glyph-name="Edotaccent" unicode="&#x116;" horiz-adv-x="649" 
d="M49 54h73v590h-73v54h534v-176h-91v117h-251v-248h170v71h66v-201h-66v71h-170v-273h261v130h91v-189h-544v54zM338 774q-30 0 -48 18t-18 46v3q0 28 18 46t48 18t48 -18t18 -46v-3q0 -28 -18 -46t-48 -18z" />
    <glyph glyph-name="edotaccent" unicode="&#x117;" horiz-adv-x="547" 
d="M285 -12q-58 0 -103 19.5t-76 55.5t-47.5 86t-16.5 111q0 62 17.5 112t49 85.5t75 55t95.5 19.5q53 0 95 -17.5t71.5 -49.5t45.5 -77t16 -100v-27h-344v-32q0 -78 39 -120.5t105 -42.5q58 0 93.5 25.5t52.5 63.5l43 -26q-9 -26 -26.5 -51t-43.5 -45t-61 -32.5t-80 -12.5z
M163 314h228v11q0 72 -27.5 111.5t-84.5 39.5q-56 0 -86 -38.5t-30 -110.5v-13zM279 606q-30 0 -48 18t-18 46v3q0 28 18 46t48 18t48 -18t18 -46v-3q0 -28 -18 -46t-48 -18z" />
    <glyph glyph-name="Eogonek" unicode="&#x118;" horiz-adv-x="649" 
d="M526 -209q-42 0 -72 19t-30 61q0 38 31 68t88 57l-1 4h-493v54h73v590h-73v54h534v-176h-91v117h-251v-248h170v71h66v-201h-66v71h-170v-273h261v130h91v-189q-30 -20 -47.5 -37.5t-26.5 -31.5t-11.5 -26t-2.5 -21q0 -20 12 -32t33 -12q26 0 44 21l27 -28
q-12 -18 -35.5 -30t-59.5 -12z" />
    <glyph glyph-name="eogonek" unicode="&#x119;" horiz-adv-x="547" 
d="M342 -209q-42 0 -72 19t-30 61q0 38 26.5 66t75.5 56l-1 4q-14 -6 -29 -7.5t-27 -1.5q-58 0 -103 19.5t-76 55.5t-47.5 86t-16.5 111q0 62 17.5 112t49 85.5t75 55t95.5 19.5q53 0 95 -17.5t71.5 -49.5t45.5 -77t16 -100v-27h-344v-32q0 -78 39 -120.5t105 -42.5
q58 0 93.5 25.5t52.5 63.5l43 -26q-10 -26 -28 -51.5t-46 -46.5q-30 -23 -50 -44.5t-31 -40t-15.5 -34.5t-4.5 -28q0 -20 12 -32t33 -12q26 0 44 21l27 -28q-12 -18 -35.5 -30t-59.5 -12zM163 314h228v11q0 72 -27.5 111.5t-84.5 39.5q-56 0 -86 -38.5t-30 -110.5v-13z" />
    <glyph glyph-name="Ecaron" unicode="&#x11a;" horiz-adv-x="649" 
d="M49 54h73v590h-73v54h534v-176h-91v117h-251v-248h170v71h66v-201h-66v71h-170v-273h261v130h91v-189h-544v54zM174 923l32 24l132 -99l132 99l32 -24l-128 -161h-72z" />
    <glyph glyph-name="ecaron" unicode="&#x11b;" horiz-adv-x="547" 
d="M285 -12q-58 0 -103 19.5t-76 55.5t-47.5 86t-16.5 111q0 62 17.5 112t49 85.5t75 55t95.5 19.5q53 0 95 -17.5t71.5 -49.5t45.5 -77t16 -100v-27h-344v-32q0 -78 39 -120.5t105 -42.5q58 0 93.5 25.5t52.5 63.5l43 -26q-9 -26 -26.5 -51t-43.5 -45t-61 -32.5t-80 -12.5z
M163 314h228v11q0 72 -27.5 111.5t-84.5 39.5q-56 0 -86 -38.5t-30 -110.5v-13zM115 756l32 24l132 -99l132 99l32 -24l-128 -161h-72z" />
    <glyph glyph-name="Gcircumflex" unicode="&#x11c;" horiz-adv-x="744" 
d="M350 -12q-66 0 -121 25t-94.5 71.5t-61.5 113.5t-22 151q0 87 23 154.5t64 113.5t98.5 69.5t125.5 23.5q76 0 118.5 -22.5t54.5 -50.5h5v61h91v-212h-91v47q0 54 -40.5 84t-117.5 30q-103 0 -151.5 -57.5t-48.5 -163.5v-154q0 -102 49 -159t133 -57q74 0 117.5 37
t43.5 102v94h-114v54h290v-54h-58v-289h-43l-53 98h-5q-7 -18 -22.5 -37.5t-40 -35.5t-57 -26.5t-72.5 -10.5zM197 782l128 161h72l128 -161l-32 -24l-132 99l-132 -99z" />
    <glyph glyph-name="gcircumflex" unicode="&#x11d;" horiz-adv-x="562" 
d="M269 -212q-66 0 -111 8.5t-72 24t-39 38t-12 49.5q0 20 9 36.5t24 29t35 21.5t41 14v4q-33 9 -51 32t-18 58q0 43 27.5 67t65.5 34v4q-48 20 -76 58.5t-28 94.5q0 40 15.5 72t43 54t65.5 33.5t84 11.5q22 0 43.5 -2.5t41.5 -9.5h177v-54h-62l-36 2v-2q20 -18 33 -45
t13 -60q0 -40 -15.5 -72t-43.5 -54t-66.5 -34t-84.5 -12q-17 0 -32.5 2t-30.5 5q-21 -7 -36 -21t-15 -34q0 -23 17.5 -33t58.5 -10h117q97 0 141 -38t44 -104q0 -78 -66.5 -123t-200.5 -45zM273 243q48 0 72 26t24 75v33q0 49 -24 75t-72 26t-72 -26t-24 -75v-33
q0 -49 24 -75t72 -26zM129 -83q0 -37 31 -55t88 -18h54q68 0 104.5 21.5t36.5 60.5q0 36 -24.5 52t-79.5 16h-162q-48 -25 -48 -77zM107 615l128 161h72l128 -161l-32 -24l-132 99l-132 -99z" />
    <glyph glyph-name="Gbreve" unicode="&#x11e;" horiz-adv-x="744" 
d="M350 -12q-66 0 -121 25t-94.5 71.5t-61.5 113.5t-22 151q0 87 23 154.5t64 113.5t98.5 69.5t125.5 23.5q76 0 118.5 -22.5t54.5 -50.5h5v61h91v-212h-91v47q0 54 -40.5 84t-117.5 30q-103 0 -151.5 -57.5t-48.5 -163.5v-154q0 -102 49 -159t133 -57q74 0 117.5 37
t43.5 102v94h-114v54h290v-54h-58v-289h-43l-53 98h-5q-7 -18 -22.5 -37.5t-40 -35.5t-57 -26.5t-72.5 -10.5zM361 758q-39 0 -65 14t-44 36t-29.5 50t-20.5 55l36 19l21 -36q16 -28 37.5 -41t64.5 -13t64.5 13t37.5 41l21 36l36 -19q-9 -27 -20.5 -55t-29.5 -50t-44 -36
t-65 -14z" />
    <glyph glyph-name="gbreve" unicode="&#x11f;" horiz-adv-x="562" 
d="M269 -212q-66 0 -111 8.5t-72 24t-39 38t-12 49.5q0 20 9 36.5t24 29t35 21.5t41 14v4q-33 9 -51 32t-18 58q0 43 27.5 67t65.5 34v4q-48 20 -76 58.5t-28 94.5q0 40 15.5 72t43 54t65.5 33.5t84 11.5q22 0 43.5 -2.5t41.5 -9.5h177v-54h-62l-36 2v-2q20 -18 33 -45
t13 -60q0 -40 -15.5 -72t-43.5 -54t-66.5 -34t-84.5 -12q-17 0 -32.5 2t-30.5 5q-21 -7 -36 -21t-15 -34q0 -23 17.5 -33t58.5 -10h117q97 0 141 -38t44 -104q0 -78 -66.5 -123t-200.5 -45zM273 243q48 0 72 26t24 75v33q0 49 -24 75t-72 26t-72 -26t-24 -75v-33
q0 -49 24 -75t72 -26zM129 -83q0 -37 31 -55t88 -18h54q68 0 104.5 21.5t36.5 60.5q0 36 -24.5 52t-79.5 16h-162q-48 -25 -48 -77zM271 591q-39 0 -65 14t-44 36t-29.5 50t-20.5 55l36 19l21 -36q16 -28 37.5 -41t64.5 -13t64.5 13t37.5 41l21 36l36 -19q-9 -27 -20.5 -55
t-29.5 -50t-44 -36t-65 -14z" />
    <glyph glyph-name="Gdotaccent" unicode="&#x120;" horiz-adv-x="744" 
d="M350 -12q-66 0 -121 25t-94.5 71.5t-61.5 113.5t-22 151q0 87 23 154.5t64 113.5t98.5 69.5t125.5 23.5q76 0 118.5 -22.5t54.5 -50.5h5v61h91v-212h-91v47q0 54 -40.5 84t-117.5 30q-103 0 -151.5 -57.5t-48.5 -163.5v-154q0 -102 49 -159t133 -57q74 0 117.5 37
t43.5 102v94h-114v54h290v-54h-58v-289h-43l-53 98h-5q-7 -18 -22.5 -37.5t-40 -35.5t-57 -26.5t-72.5 -10.5zM361 774q-30 0 -48 18t-18 46v3q0 28 18 46t48 18t48 -18t18 -46v-3q0 -28 -18 -46t-48 -18z" />
    <glyph glyph-name="gdotaccent" unicode="&#x121;" horiz-adv-x="562" 
d="M269 -212q-66 0 -111 8.5t-72 24t-39 38t-12 49.5q0 20 9 36.5t24 29t35 21.5t41 14v4q-33 9 -51 32t-18 58q0 43 27.5 67t65.5 34v4q-48 20 -76 58.5t-28 94.5q0 40 15.5 72t43 54t65.5 33.5t84 11.5q22 0 43.5 -2.5t41.5 -9.5h177v-54h-62l-36 2v-2q20 -18 33 -45
t13 -60q0 -40 -15.5 -72t-43.5 -54t-66.5 -34t-84.5 -12q-17 0 -32.5 2t-30.5 5q-21 -7 -36 -21t-15 -34q0 -23 17.5 -33t58.5 -10h117q97 0 141 -38t44 -104q0 -78 -66.5 -123t-200.5 -45zM273 243q48 0 72 26t24 75v33q0 49 -24 75t-72 26t-72 -26t-24 -75v-33
q0 -49 24 -75t72 -26zM129 -83q0 -37 31 -55t88 -18h54q68 0 104.5 21.5t36.5 60.5q0 36 -24.5 52t-79.5 16h-162q-48 -25 -48 -77zM271 606q-30 0 -48 18t-18 46v3q0 28 18 46t48 18t48 -18t18 -46v-3q0 -28 -18 -46t-48 -18z" />
    <glyph glyph-name="Gcommaaccent" unicode="&#x122;" horiz-adv-x="744" 
d="M350 -12q-66 0 -121 25t-94.5 71.5t-61.5 113.5t-22 151q0 87 23 154.5t64 113.5t98.5 69.5t125.5 23.5q76 0 118.5 -22.5t54.5 -50.5h5v61h91v-212h-91v47q0 54 -40.5 84t-117.5 30q-103 0 -151.5 -57.5t-48.5 -163.5v-154q0 -102 49 -159t133 -57q74 0 117.5 37
t43.5 102v94h-114v54h290v-54h-58v-289h-43l-53 98h-5q-7 -18 -22.5 -37.5t-40 -35.5t-57 -26.5t-72.5 -10.5zM301 -263q19 20 34 47t21 47q-30 0 -46 17t-16 42v3q0 26 16 43t47 17t47 -18t16 -43v-7q0 -38 -19.5 -78.5t-49.5 -69.5h-50v0z" />
    <glyph glyph-name="gcommaaccent" unicode="&#x123;" horiz-adv-x="562" 
d="M269 -212q-66 0 -111 8.5t-72 24t-39 38t-12 49.5q0 20 9 36.5t24 29t35 21.5t41 14v4q-33 9 -51 32t-18 58q0 43 27.5 67t65.5 34v4q-48 20 -76 58.5t-28 94.5q0 40 15.5 72t43 54t65.5 33.5t84 11.5q22 0 43.5 -2.5t41.5 -9.5h177v-54h-62l-36 2v-2q20 -18 33 -45
t13 -60q0 -40 -15.5 -72t-43.5 -54t-66.5 -34t-84.5 -12q-17 0 -32.5 2t-30.5 5q-21 -7 -36 -21t-15 -34q0 -23 17.5 -33t58.5 -10h117q97 0 141 -38t44 -104q0 -78 -66.5 -123t-200.5 -45zM273 243q48 0 72 26t24 75v33q0 49 -24 75t-72 26t-72 -26t-24 -75v-33
q0 -49 24 -75t72 -26zM129 -83q0 -37 31 -55t88 -18h54q68 0 104.5 21.5t36.5 60.5q0 36 -24.5 52t-79.5 16h-162q-48 -25 -48 -77zM271 578q-31 0 -47 18t-16 43v7q0 38 19.5 78.5t49.5 69.5h50q-19 -20 -34 -47t-21 -47q30 0 46 -17t16 -42v-3q0 -26 -16 -43t-47 -17z" />
    <glyph glyph-name="Hcircumflex" unicode="&#x124;" horiz-adv-x="799" 
d="M49 54h73v590h-73v54h265v-54h-73v-257h317v257h-73v54h265v-54h-73v-590h73v-54h-265v54h73v274h-317v-274h73v-54h-265v54zM235 782l128 161h72l128 -161l-32 -24l-132 99l-132 -99z" />
    <glyph glyph-name="hcircumflex" unicode="&#x125;" horiz-adv-x="635" 
d="M31 54h68v614l-68 13v44l180 35v-321h5q6 17 18.5 34t30.5 30t42 21t54 8q95 0 135 -48.5t40 -145.5v-284h68v-54h-246v54h66v278q0 65 -25 95t-79 30q-20 0 -39.5 -5.5t-35 -17t-25 -28.5t-9.5 -41v-311h66v-54h-246v54zM-8 793l128 161h72l128 -161l-32 -24l-132 99
l-132 -99z" />
    <glyph glyph-name="Hbar" unicode="&#x126;" horiz-adv-x="799" 
d="M49 54h73v438h-86v56h86v96h-73v54h265v-54h-73v-96h317v96h-73v54h265v-54h-73v-96h86v-56h-86v-438h73v-54h-265v54h73v274h-317v-274h73v-54h-265v54zM241 387h317v105h-317v-105z" />
    <glyph glyph-name="hbar" unicode="&#x127;" horiz-adv-x="635" 
d="M31 54h68v555h-82v56h82v73l112 22v-95h174v-56h-174v-170h5q6 17 18.5 34t30.5 30t42 21t54 8q95 0 135 -48.5t40 -145.5v-284h68v-54h-246v54h66v278q0 65 -25 95t-79 30q-20 0 -39.5 -5.5t-35 -17t-25 -28.5t-9.5 -41v-311h66v-54h-246v54z" />
    <glyph glyph-name="Itilde" unicode="&#x128;" horiz-adv-x="363" 
d="M49 54h73v590h-73v54h265v-54h-73v-590h73v-54h-265v54zM250 774q-21 0 -40.5 9t-39.5 19l-40 20t-36 10t-26.5 -7t-29.5 -29l-27 27q25 37 47.5 59.5t57.5 22.5q21 0 40.5 -9t39.5 -19l40 -20t36 -10q8 0 14 1.5t12 5.5t13 11t17 18l27 -27q-25 -37 -47.5 -59.5
t-57.5 -22.5z" />
    <glyph glyph-name="itilde" unicode="&#x129;" horiz-adv-x="323" 
d="M44 54h68v386l-68 13v44l180 35v-478h68v-54h-248v54zM236 609q-21 0 -40.5 9t-39.5 19l-40 20t-36 10t-26.5 -7t-29.5 -29l-27 27q25 37 47.5 59.5t57.5 22.5q21 0 40.5 -9t39.5 -19l40 -20t36 -10q8 0 14 1.5t12 5.5t13 11t17 18l27 -27q-25 -37 -47.5 -59.5
t-57.5 -22.5z" />
    <glyph glyph-name="Imacron" unicode="&#x12a;" horiz-adv-x="363" 
d="M49 54h73v590h-73v54h265v-54h-73v-590h73v-54h-265v54zM35 875h296v-71h-296v71z" />
    <glyph glyph-name="imacron" unicode="&#x12b;" horiz-adv-x="323" 
d="M44 54h68v386l-68 13v44l180 35v-478h68v-54h-248v54zM21 708h296v-71h-296v71z" />
    <glyph glyph-name="Ibreve" unicode="&#x12c;" horiz-adv-x="363" 
d="M49 54h73v590h-73v54h265v-54h-73v-590h73v-54h-265v54zM183 758q-39 0 -65 14t-44 36t-29.5 50t-20.5 55l36 19l21 -36q16 -28 37.5 -41t64.5 -13t64.5 13t37.5 41l21 36l36 -19q-9 -27 -20.5 -55t-29.5 -50t-44 -36t-65 -14z" />
    <glyph glyph-name="ibreve" unicode="&#x12d;" horiz-adv-x="323" 
d="M44 54h68v386l-68 13v44l180 35v-478h68v-54h-248v54zM169 591q-39 0 -65 14t-44 36t-29.5 50t-20.5 55l36 19l21 -36q16 -28 37.5 -41t64.5 -13t64.5 13t37.5 41l21 36l36 -19q-9 -27 -20.5 -55t-29.5 -50t-44 -36t-65 -14z" />
    <glyph glyph-name="Iogonek" unicode="&#x12e;" horiz-adv-x="363" 
d="M246 -209q-42 0 -72 19t-30 61q0 38 33.5 69.5t85.5 55.5l-1 4h-213v54h73v590h-73v54h265v-54h-73v-590h73v-54q-29 -19 -46.5 -36t-27 -31.5t-12.5 -27t-3 -21.5q0 -20 12 -32t33 -12q26 0 44 21l27 -28q-12 -18 -35.5 -30t-59.5 -12z" />
    <glyph glyph-name="iogonek" unicode="&#x12f;" horiz-adv-x="323" 
d="M227 -209q-42 0 -72 19t-30 61q0 38 30 67t84 58l-1 4h-194v54h68v386l-68 13v44l180 35v-478h68v-54q-29 -21 -46 -38.5t-26 -31.5t-11.5 -25.5t-2.5 -20.5q0 -20 12 -32t33 -12q26 0 44 21l27 -28q-12 -18 -35.5 -30t-59.5 -12zM168 617q-32 0 -50 18.5t-18 47.5v6
q0 29 18 47.5t50 18.5t50 -18.5t18 -47.5v-6q0 -29 -18 -47.5t-50 -18.5z" />
    <glyph glyph-name="Idotaccent" unicode="&#x130;" horiz-adv-x="363" 
d="M49 54h73v590h-73v54h265v-54h-73v-590h73v-54h-265v54zM183 774q-30 0 -48 18t-18 46v3q0 28 18 46t48 18t48 -18t18 -46v-3q0 -28 -18 -46t-48 -18z" />
    <glyph glyph-name="dotlessi" unicode="&#x131;" horiz-adv-x="323" 
d="M44 54h68v386l-68 13v44l180 35v-478h68v-54h-248v54z" />
    <glyph glyph-name="IJ" unicode="&#x132;" horiz-adv-x="844" 
d="M49 54h73v590h-73v54h265v-54h-73v-590h73v-54h-265v54zM525 -12q-75 0 -111.5 29t-36.5 75q0 29 18 49.5t50 20.5q28 0 45 -17.5t17 -44.5q0 -20 -9 -33t-20 -18v-4q20 -5 46 -5q43 0 65 26t22 85v493h-93v54h285v-54h-73v-465q0 -91 -50.5 -141t-154.5 -50z" />
    <glyph glyph-name="ij" unicode="&#x133;" horiz-adv-x="634" 
d="M168 617q-32 0 -50 18.5t-18 47.5v6q0 29 18 47.5t50 18.5t50 -18.5t18 -47.5v-6q0 -29 -18 -47.5t-50 -18.5zM44 54h68v386l-68 13v44l180 35v-478h68v-54h-248v54zM367 -212q-54 0 -80.5 22.5t-26.5 60.5q0 25 15.5 42t41.5 17t39.5 -15t13.5 -38q0 -15 -6 -27t-15 -17
v-3q5 -2 10.5 -2h11.5q29 0 44.5 22t15.5 67v523l-68 13v44l180 35v-561q0 -94 -45.5 -138.5t-130.5 -44.5zM487 617q-32 0 -50 18.5t-18 47.5v6q0 29 18 47.5t50 18.5t50 -18.5t18 -47.5v-6q0 -29 -18 -47.5t-50 -18.5z" />
    <glyph glyph-name="Jcircumflex" unicode="&#x134;" horiz-adv-x="481" 
d="M162 -12q-75 0 -111.5 29t-36.5 75q0 29 18 49.5t50 20.5q28 0 45 -17.5t17 -44.5q0 -20 -9 -33t-20 -18v-4q20 -5 46 -5q43 0 65 26t22 85v493h-93v54h285v-54h-73v-465q0 -91 -50.5 -141t-154.5 -50zM137 782l128 161h72l128 -161l-32 -24l-132 99l-132 -99z" />
    <glyph glyph-name="jcircumflex" unicode="&#x135;" horiz-adv-x="311" 
d="M44 -212q-54 0 -80.5 22.5t-26.5 60.5q0 25 15.5 42t41.5 17t39.5 -15t13.5 -38q0 -15 -6 -27t-15 -17v-3q5 -2 10.5 -2h11.5q29 0 44.5 22t15.5 67v523l-68 13v44l180 35v-561q0 -94 -45.5 -138.5t-130.5 -44.5zM0 615l128 161h72l128 -161l-32 -24l-132 99l-132 -99z
" />
    <glyph glyph-name="Kcommaaccent" unicode="&#x136;" horiz-adv-x="735" 
d="M49 54h73v590h-73v54h265v-54h-73v-312h5l102 113l183 199h-76v54h227v-54h-69l-201 -214l238 -376h65v-54h-271v54h69l-182 294l-90 -95v-199h73v-54h-265v54zM317 -263q19 20 34 47t21 47q-30 0 -46 17t-16 42v3q0 26 16 43t47 17t47 -18t16 -43v-7q0 -38 -19.5 -78.5
t-49.5 -69.5h-50v0z" />
    <glyph glyph-name="kcommaaccent" unicode="&#x137;" horiz-adv-x="597" 
d="M31 54h68v614l-68 13v44l180 35v-512h5l74 84l123 134h-65v54h221v-54h-74l-132 -136l177 -276h51v-54h-233v54h56l-126 205l-77 -81v-124h66v-54h-246v54zM260 -263q19 20 34 47t21 47q-30 0 -46 17t-16 42v3q0 26 16 43t47 17t47 -18t16 -43v-7q0 -38 -19.5 -78.5
t-49.5 -69.5h-50v0z" />
    <glyph glyph-name="kgreenlandic" unicode="&#x138;" horiz-adv-x="610" 
d="M44 54h68v386l-68 13v44l180 35v-284h5l74 84l123 134h-65v54h221v-54h-74l-132 -136l177 -276h51v-54h-233v54h56l-126 205l-77 -81v-124h66v-54h-246v54z" />
    <glyph glyph-name="Lacute" unicode="&#x139;" horiz-adv-x="606" 
d="M49 54h73v590h-73v54h265v-54h-73v-585h228v130h91v-189h-511v54zM143 771l74 191l100 -48l-138 -160z" />
    <glyph glyph-name="lacute" unicode="&#x13a;" horiz-adv-x="310" 
d="M31 54h68v614l-68 13v44l180 35v-706h68v-54h-248v54zM116 802l74 191l100 -48l-138 -160z" />
    <glyph glyph-name="Lcommaaccent" unicode="&#x13b;" horiz-adv-x="606" 
d="M49 54h73v590h-73v54h265v-54h-73v-585h228v130h91v-189h-511v54zM258 -263q19 20 34 47t21 47q-30 0 -46 17t-16 42v3q0 26 16 43t47 17t47 -18t16 -43v-7q0 -38 -19.5 -78.5t-49.5 -69.5h-50v0z" />
    <glyph glyph-name="lcommaaccent" unicode="&#x13c;" horiz-adv-x="310" 
d="M31 54h68v614l-68 13v44l180 35v-706h68v-54h-248v54zM99 -263q19 20 34 47t21 47q-30 0 -46 17t-16 42v3q0 26 16 43t47 17t47 -18t16 -43v-7q0 -38 -19.5 -78.5t-49.5 -69.5h-50v0z" />
    <glyph glyph-name="Lcaron" unicode="&#x13d;" horiz-adv-x="606" 
d="M49 54h73v590h-73v54h265v-54h-73v-585h228v130h91v-189h-511v54zM395 731h103l-74 -197h-38z" />
    <glyph glyph-name="lcaron" unicode="&#x13e;" horiz-adv-x="310" 
d="M31 54h68v614l-68 13v44l180 35v-706h68v-54h-248v54zM275 748h103l-74 -197h-38z" />
    <glyph glyph-name="Ldot" unicode="&#x13f;" horiz-adv-x="606" 
d="M49 54h73v590h-73v54h265v-54h-73v-585h228v130h91v-189h-511v54zM400 277q-30 0 -48 18t-18 46v3q0 28 18 46t48 18t48 -18t18 -46v-3q0 -28 -18 -46t-48 -18z" />
    <glyph glyph-name="ldot" unicode="&#x140;" horiz-adv-x="391" 
d="M18 54h68v614l-68 13v44l180 35v-706h68v-54h-248v54zM341 252q-30 0 -48 18t-18 46v3q0 28 18 46t48 18t48 -18t18 -46v-3q0 -28 -18 -46t-48 -18z" />
    <glyph glyph-name="Lslash" unicode="&#x141;" horiz-adv-x="606" 
d="M49 54h73v219l-87 -30v59l87 30v312h-73v54h267v-54h-75v-271l144 50v-59l-144 -50v-255h228v130h91v-189h-511v54z" />
    <glyph glyph-name="lslash" unicode="&#x142;" horiz-adv-x="318" 
d="M35 54h68v277l-86 -28v55l86 28v282l-68 13v44l180 35v-339l87 28v-55l-87 -28v-312h68v-54h-248v54z" />
    <glyph glyph-name="Nacute" unicode="&#x143;" horiz-adv-x="784" 
d="M49 54h73v590h-73v54h212l337 -533h5v479h-73v54h211v-54h-73v-644h-101l-375 593h-5v-539h73v-54h-211v54zM367 771l74 191l100 -48l-138 -160z" />
    <glyph glyph-name="nacute" unicode="&#x144;" horiz-adv-x="648" 
d="M44 54h68v386l-68 13v44l177 35v-93h5q6 17 18.5 34t31 30t43 21t55.5 8q95 0 135 -48.5t40 -145.5v-284h68v-54h-246v54h66v278q0 65 -25 95t-79 30q-20 0 -39.5 -5.5t-35 -17t-25 -28.5t-9.5 -41v-311h66v-54h-246v54zM297 601l74 191l100 -48l-138 -160z" />
    <glyph glyph-name="Ncommaaccent" unicode="&#x145;" horiz-adv-x="784" 
d="M49 54h73v590h-73v54h212l337 -533h5v479h-73v54h211v-54h-73v-644h-101l-375 593h-5v-539h73v-54h-211v54zM335 -263q19 20 34 47t21 47q-30 0 -46 17t-16 42v3q0 26 16 43t47 17t47 -18t16 -43v-7q0 -38 -19.5 -78.5t-49.5 -69.5h-50v0z" />
    <glyph glyph-name="ncommaaccent" unicode="&#x146;" horiz-adv-x="648" 
d="M44 54h68v386l-68 13v44l177 35v-93h5q6 17 18.5 34t31 30t43 21t55.5 8q95 0 135 -48.5t40 -145.5v-284h68v-54h-246v54h66v278q0 65 -25 95t-79 30q-20 0 -39.5 -5.5t-35 -17t-25 -28.5t-9.5 -41v-311h66v-54h-246v54zM275 -263q19 20 34 47t21 47q-30 0 -46 17t-16 42
v3q0 26 16 43t47 17t47 -18t16 -43v-7q0 -38 -19.5 -78.5t-49.5 -69.5h-50v0z" />
    <glyph glyph-name="Ncaron" unicode="&#x147;" horiz-adv-x="784" 
d="M49 54h73v590h-73v54h212l337 -533h5v479h-73v54h211v-54h-73v-644h-101l-375 593h-5v-539h73v-54h-211v54zM243 923l32 24l132 -99l132 99l32 -24l-128 -161h-72z" />
    <glyph glyph-name="ncaron" unicode="&#x148;" horiz-adv-x="648" 
d="M44 54h68v386l-68 13v44l177 35v-93h5q6 17 18.5 34t31 30t43 21t55.5 8q95 0 135 -48.5t40 -145.5v-284h68v-54h-246v54h66v278q0 65 -25 95t-79 30q-20 0 -39.5 -5.5t-35 -17t-25 -28.5t-9.5 -41v-311h66v-54h-246v54zM173 756l32 24l132 -99l132 99l32 -24l-128 -161
h-72z" />
    <glyph glyph-name="napostrophe" unicode="&#x149;" horiz-adv-x="920" 
d="M43 479q72 61 90 124h-2q-31 0 -49.5 19.5t-18.5 48.5v6q0 29 20 50t55 21t54 -21.5t19 -51.5v-13q0 -24 -8 -49.5t-22 -49.5t-32 -46t-39 -38h-67v0zM316 54h68v386l-68 13v44l177 35v-93h5q6 17 18.5 34t31 30t43 21t55.5 8q95 0 135 -48.5t40 -145.5v-284h68v-54h-246
v54h66v278q0 65 -25 95t-79 30q-20 0 -39.5 -5.5t-35 -17t-25 -28.5t-9.5 -41v-311h66v-54h-246v54z" />
    <glyph glyph-name="Eng" unicode="&#x14a;" horiz-adv-x="784" 
d="M536 -212q-54 0 -80 22.5t-26 60.5q0 25 15.5 42t41.5 17t39.5 -14.5t13.5 -37.5q0 -15 -6 -26t-15 -15v-3q9 -3 21 -3q30 0 46.5 24.5t16.5 78.5v66h-36l-375 593h-5v-539h72v-54h-210v54h73v590h-73v54h212l337 -533h5v479h-73v54h210v-54h-72v-703q0 -77 -36 -115
t-96 -38z" />
    <glyph glyph-name="eng" unicode="&#x14b;" horiz-adv-x="643" 
d="M373 -212q-54 0 -80.5 22.5t-26.5 60.5q0 25 15.5 42t41.5 17t39.5 -15t13.5 -38q0 -15 -6 -27t-15 -17v-3q5 -2 10.5 -2h11.5q29 0 44.5 22t15.5 67v415q0 65 -25 95t-79 30q-20 0 -39.5 -5.5t-35 -17t-25 -28.5t-9.5 -41v-311h66v-54h-246v54h68v386l-68 13v44l177 35
v-93h5q6 17 18.5 34t31 30t43 21t55.5 8q95 0 135 -48.5t40 -145.5v-367q0 -94 -45.5 -138.5t-130.5 -44.5z" />
    <glyph glyph-name="Omacron" unicode="&#x14c;" horiz-adv-x="736" 
d="M368 50q86 0 136 57.5t50 160.5v162q0 103 -50 160.5t-136 57.5t-136 -57.5t-50 -160.5v-162q0 -103 50 -160.5t136 -57.5zM368 -12q-70 0 -128 24.5t-100 71t-65.5 113.5t-23.5 152t23.5 152t65.5 113.5t100 71t128 24.5t128 -24.5t100 -71t65.5 -113.5t23.5 -152
t-23.5 -152t-65.5 -113.5t-100 -71t-128 -24.5zM219 875h296v-71h-296v71z" />
    <glyph glyph-name="omacron" unicode="&#x14d;" horiz-adv-x="572" 
d="M286 47q63 0 92.5 39t29.5 104v140q0 65 -29.5 104t-92.5 39t-92.5 -39t-29.5 -104v-140q0 -65 29.5 -104t92.5 -39zM286 -12q-55 0 -100 19t-77 54t-49.5 85.5t-17.5 113.5t17.5 113.5t49.5 85.5t77 54t100 19t100 -19t77 -54t49.5 -85.5t17.5 -113.5t-17.5 -113.5
t-49.5 -85.5t-77 -54t-100 -19zM139 708h296v-71h-296v71z" />
    <glyph glyph-name="Obreve" unicode="&#x14e;" horiz-adv-x="736" 
d="M368 50q86 0 136 57.5t50 160.5v162q0 103 -50 160.5t-136 57.5t-136 -57.5t-50 -160.5v-162q0 -103 50 -160.5t136 -57.5zM368 -12q-70 0 -128 24.5t-100 71t-65.5 113.5t-23.5 152t23.5 152t65.5 113.5t100 71t128 24.5t128 -24.5t100 -71t65.5 -113.5t23.5 -152
t-23.5 -152t-65.5 -113.5t-100 -71t-128 -24.5zM367 758q-39 0 -65 14t-44 36t-29.5 50t-20.5 55l36 19l21 -36q16 -28 37.5 -41t64.5 -13t64.5 13t37.5 41l21 36l36 -19q-9 -27 -20.5 -55t-29.5 -50t-44 -36t-65 -14z" />
    <glyph glyph-name="obreve" unicode="&#x14f;" horiz-adv-x="572" 
d="M286 47q63 0 92.5 39t29.5 104v140q0 65 -29.5 104t-92.5 39t-92.5 -39t-29.5 -104v-140q0 -65 29.5 -104t92.5 -39zM286 -12q-55 0 -100 19t-77 54t-49.5 85.5t-17.5 113.5t17.5 113.5t49.5 85.5t77 54t100 19t100 -19t77 -54t49.5 -85.5t17.5 -113.5t-17.5 -113.5
t-49.5 -85.5t-77 -54t-100 -19zM287 591q-39 0 -65 14t-44 36t-29.5 50t-20.5 55l36 19l21 -36q16 -28 37.5 -41t64.5 -13t64.5 13t37.5 41l21 36l36 -19q-9 -27 -20.5 -55t-29.5 -50t-44 -36t-65 -14z" />
    <glyph glyph-name="Ohungarumlaut" unicode="&#x150;" horiz-adv-x="736" 
d="M368 50q86 0 136 57.5t50 160.5v162q0 103 -50 160.5t-136 57.5t-136 -57.5t-50 -160.5v-162q0 -103 50 -160.5t136 -57.5zM368 -12q-70 0 -128 24.5t-100 71t-65.5 113.5t-23.5 152t23.5 152t65.5 113.5t100 71t128 24.5t128 -24.5t100 -71t65.5 -113.5t23.5 -152
t-23.5 -152t-65.5 -113.5t-100 -71t-128 -24.5zM241 771l77 191l92 -47l-134 -161zM416 771l77 191l92 -47l-134 -161z" />
    <glyph glyph-name="ohungarumlaut" unicode="&#x151;" horiz-adv-x="572" 
d="M286 47q63 0 92.5 39t29.5 104v140q0 65 -29.5 104t-92.5 39t-92.5 -39t-29.5 -104v-140q0 -65 29.5 -104t92.5 -39zM286 -12q-55 0 -100 19t-77 54t-49.5 85.5t-17.5 113.5t17.5 113.5t49.5 85.5t77 54t100 19t100 -19t77 -54t49.5 -85.5t17.5 -113.5t-17.5 -113.5
t-49.5 -85.5t-77 -54t-100 -19zM161 601l77 191l92 -47l-134 -161zM336 601l77 191l92 -47l-134 -161z" />
    <glyph glyph-name="OE" unicode="&#x152;" horiz-adv-x="1027" 
d="M373 -12q-73 0 -132.5 24.5t-101.5 71t-65 113.5t-23 152t23 152t65 113.5t101.5 71t132.5 24.5q51 0 95 -12h493v-176h-91v117h-251v-248h170v71h66v-201h-66v71h-170v-273h261v130h91v-189h-503q-44 -12 -95 -12zM373 50q39 0 72 10t55 30v518q-22 21 -55 30.5t-72 9.5
q-88 0 -139.5 -57.5t-51.5 -160.5v-162q0 -103 51.5 -160.5t139.5 -57.5z" />
    <glyph glyph-name="oe" unicode="&#x153;" horiz-adv-x="915" 
d="M286 -12q-55 0 -100 19t-77 54t-49.5 85.5t-17.5 113.5t17.5 113.5t49.5 85.5t77 54t100 19q60 0 108.5 -24t69.5 -72h6q25 48 74 72t103 24q53 0 95 -17.5t71.5 -49.5t45.5 -77t16 -100v-27h-344v-32q0 -78 39 -120.5t105 -42.5q58 0 93.5 25.5t52.5 63.5l43 -26
q-9 -26 -26.5 -51t-43.5 -45t-61 -32.5t-80 -12.5q-60 0 -106.5 24t-76.5 72h-6q-30 -48 -75.5 -72t-102.5 -24zM286 47q63 0 92.5 39t29.5 104v140q0 65 -29.5 104t-92.5 39t-92.5 -39t-29.5 -104v-140q0 -65 29.5 -104t92.5 -39zM531 314h228v11q0 72 -27.5 111.5
t-84.5 39.5q-56 0 -86 -38.5t-30 -110.5v-13z" />
    <glyph glyph-name="Racute" unicode="&#x154;" horiz-adv-x="699" 
d="M49 54h73v590h-73v54h355q46 0 83.5 -11t64 -33.5t41 -57t14.5 -80.5q0 -72 -41.5 -118.5t-112.5 -60.5l122 -217q20 -35 43.5 -50.5t58.5 -15.5h7v-54h-77q-32 0 -54.5 5.5t-39.5 17t-30 29t-25 41.5l-117 223h-100v-262h73v-54h-265v54zM241 372h133q53 0 81.5 30
t28.5 80v47q0 50 -28.5 80t-81.5 30h-133v-267zM282 771l74 191l100 -48l-138 -160z" />
    <glyph glyph-name="racute" unicode="&#x155;" horiz-adv-x="464" 
d="M44 54h68v386l-68 13v44l177 35v-93h5q7 18 17.5 34.5t26 29.5t36 21t46.5 8q46 0 73.5 -23t27.5 -66q0 -34 -17.5 -53.5t-47.5 -19.5q-31 0 -48.5 16.5t-17.5 41.5q0 17 7 28.5t17 13.5v3q-3 1 -7 1.5t-12 0.5q-19 0 -37.5 -10t-33 -25.5t-23.5 -35t-9 -38.5v-312h88
v-54h-268v54zM233 601l74 191l100 -48l-138 -160z" />
    <glyph glyph-name="Rcommaaccent" unicode="&#x156;" horiz-adv-x="699" 
d="M49 54h73v590h-73v54h355q46 0 83.5 -11t64 -33.5t41 -57t14.5 -80.5q0 -72 -41.5 -118.5t-112.5 -60.5l122 -217q20 -35 43.5 -50.5t58.5 -15.5h7v-54h-77q-32 0 -54.5 5.5t-39.5 17t-30 29t-25 41.5l-117 223h-100v-262h73v-54h-265v54zM241 372h133q53 0 81.5 30
t28.5 80v47q0 50 -28.5 80t-81.5 30h-133v-267zM339 -263q19 20 34 47t21 47q-30 0 -46 17t-16 42v3q0 26 16 43t47 17t47 -18t16 -43v-7q0 -38 -19.5 -78.5t-49.5 -69.5h-50v0z" />
    <glyph glyph-name="rcommaaccent" unicode="&#x157;" horiz-adv-x="464" 
d="M44 54h68v386l-68 13v44l177 35v-93h5q7 18 17.5 34.5t26 29.5t36 21t46.5 8q46 0 73.5 -23t27.5 -66q0 -34 -17.5 -53.5t-47.5 -19.5q-31 0 -48.5 16.5t-17.5 41.5q0 17 7 28.5t17 13.5v3q-3 1 -7 1.5t-12 0.5q-19 0 -37.5 -10t-33 -25.5t-23.5 -35t-9 -38.5v-312h88
v-54h-268v54zM112 -263q19 20 34 47t21 47q-30 0 -46 17t-16 42v3q0 26 16 43t47 17t47 -18t16 -43v-7q0 -38 -19.5 -78.5t-49.5 -69.5h-50v0z" />
    <glyph glyph-name="Rcaron" unicode="&#x158;" horiz-adv-x="699" 
d="M49 54h73v590h-73v54h355q46 0 83.5 -11t64 -33.5t41 -57t14.5 -80.5q0 -72 -41.5 -118.5t-112.5 -60.5l122 -217q20 -35 43.5 -50.5t58.5 -15.5h7v-54h-77q-32 0 -54.5 5.5t-39.5 17t-30 29t-25 41.5l-117 223h-100v-262h73v-54h-265v54zM241 372h133q53 0 81.5 30
t28.5 80v47q0 50 -28.5 80t-81.5 30h-133v-267zM158 923l32 24l132 -99l132 99l32 -24l-128 -161h-72z" />
    <glyph glyph-name="rcaron" unicode="&#x159;" horiz-adv-x="464" 
d="M44 54h68v386l-68 13v44l177 35v-93h5q7 18 17.5 34.5t26 29.5t36 21t46.5 8q46 0 73.5 -23t27.5 -66q0 -34 -17.5 -53.5t-47.5 -19.5q-31 0 -48.5 16.5t-17.5 41.5q0 17 7 28.5t17 13.5v3q-3 1 -7 1.5t-12 0.5q-19 0 -37.5 -10t-33 -25.5t-23.5 -35t-9 -38.5v-312h88
v-54h-268v54zM109 756l32 24l132 -99l132 99l32 -24l-128 -161h-72z" />
    <glyph glyph-name="Sacute" unicode="&#x15a;" horiz-adv-x="605" 
d="M305 -12q-62 0 -100.5 21t-52.5 50h-5v-59h-91v205h91v-45q0 -52 34.5 -81t110.5 -29q80 0 116 33t36 88q0 49 -27 75.5t-91 42.5l-51 12q-49 11 -88 29t-66 44t-41.5 61t-14.5 82q0 43 16 78.5t45.5 61t71.5 39.5t95 14q60 0 96 -20t50 -47h5v55h91v-199h-91v45
q0 51 -34.5 77.5t-108.5 26.5q-69 0 -102.5 -30.5t-33.5 -77.5q0 -50 30.5 -77t100.5 -44l47 -10q97 -23 150 -72.5t53 -135.5q0 -46 -16.5 -85t-47 -67.5t-75.5 -44.5t-102 -16zM254 771l74 191l100 -48l-138 -160z" />
    <glyph glyph-name="sacute" unicode="&#x15b;" horiz-adv-x="497" 
d="M257 -12q-51 0 -83 20t-42 44h-4v-52h-76v155h76v-18q0 -42 26 -66t84 -24q108 0 108 76q0 59 -78 78l-54 13q-80 19 -119 58t-39 107q0 73 49 113t130 40q50 0 80 -17t39 -41h4v46h76v-155h-76v29q0 79 -107 79q-46 0 -70.5 -17.5t-24.5 -52.5q0 -62 80 -82l51 -12
q81 -18 121 -54.5t40 -107.5q0 -72 -51.5 -115.5t-139.5 -43.5zM197 601l74 191l100 -48l-138 -160z" />
    <glyph glyph-name="Scircumflex" unicode="&#x15c;" horiz-adv-x="605" 
d="M305 -12q-62 0 -100.5 21t-52.5 50h-5v-59h-91v205h91v-45q0 -52 34.5 -81t110.5 -29q80 0 116 33t36 88q0 49 -27 75.5t-91 42.5l-51 12q-49 11 -88 29t-66 44t-41.5 61t-14.5 82q0 43 16 78.5t45.5 61t71.5 39.5t95 14q60 0 96 -20t50 -47h5v55h91v-199h-91v45
q0 51 -34.5 77.5t-108.5 26.5q-69 0 -102.5 -30.5t-33.5 -77.5q0 -50 30.5 -77t100.5 -44l47 -10q97 -23 150 -72.5t53 -135.5q0 -46 -16.5 -85t-47 -67.5t-75.5 -44.5t-102 -16zM130 782l128 161h72l128 -161l-32 -24l-132 99l-132 -99z" />
    <glyph glyph-name="scircumflex" unicode="&#x15d;" horiz-adv-x="497" 
d="M257 -12q-51 0 -83 20t-42 44h-4v-52h-76v155h76v-18q0 -42 26 -66t84 -24q108 0 108 76q0 59 -78 78l-54 13q-80 19 -119 58t-39 107q0 73 49 113t130 40q50 0 80 -17t39 -41h4v46h76v-155h-76v29q0 79 -107 79q-46 0 -70.5 -17.5t-24.5 -52.5q0 -62 80 -82l51 -12
q81 -18 121 -54.5t40 -107.5q0 -72 -51.5 -115.5t-139.5 -43.5zM73 615l128 161h72l128 -161l-32 -24l-132 99l-132 -99z" />
    <glyph glyph-name="Scedilla" unicode="&#x15e;" horiz-adv-x="605" 
d="M310 -209q-41 0 -64 13.5t-34 27.5l26 30q10 -11 24 -18.5t34 -7.5q23 0 37 10t14 30q0 14 -11.5 27.5t-49.5 17.5l-25 2l13 67q-48 5 -78.5 24.5t-43.5 44.5h-5v-59h-91v205h91v-45q0 -52 34.5 -81t110.5 -29q80 0 116 33t36 88q0 49 -27 75.5t-91 42.5l-51 12
q-49 11 -88 29t-66 44t-41.5 61t-14.5 82q0 43 16 78.5t45.5 61t71.5 39.5t95 14q60 0 96 -20t50 -47h5v55h91v-199h-91v45q0 51 -34.5 77.5t-108.5 26.5q-69 0 -102.5 -30.5t-33.5 -77.5q0 -50 30.5 -77t100.5 -44l47 -10q97 -23 150 -72.5t53 -135.5q0 -45 -15 -83
t-44 -66t-71 -45t-96 -19l-10 -48l3 -3q10 2 20.5 4t19.5 2q32 0 53.5 -16.5t21.5 -50.5q0 -23 -9.5 -39t-26 -26t-38 -15t-44.5 -5z" />
    <glyph glyph-name="scedilla" unicode="&#x15f;" horiz-adv-x="497" 
d="M263 -209q-41 0 -64 13.5t-34 27.5l26 30q10 -11 24 -18.5t34 -7.5q23 0 37 10t14 30q0 14 -11.5 27.5t-49.5 17.5l-25 2l13 67q-38 6 -62.5 24t-32.5 38h-4v-52h-76v155h76v-18q0 -42 26 -66t84 -24q108 0 108 76q0 59 -78 78l-54 13q-80 19 -119 58t-39 107
q0 73 49 113t130 40q50 0 80 -17t39 -41h4v46h76v-155h-76v29q0 79 -107 79q-46 0 -70.5 -17.5t-24.5 -52.5q0 -62 80 -82l51 -12q81 -18 121 -54.5t40 -107.5q0 -69 -47 -111.5t-128 -47.5l-10 -48l3 -3q10 2 20.5 4t19.5 2q32 0 53.5 -16.5t21.5 -50.5q0 -23 -9.5 -39
t-26 -26t-38 -15t-44.5 -5z" />
    <glyph glyph-name="Scaron" unicode="&#x160;" horiz-adv-x="605" 
d="M305 -12q-62 0 -100.5 21t-52.5 50h-5v-59h-91v205h91v-45q0 -52 34.5 -81t110.5 -29q80 0 116 33t36 88q0 49 -27 75.5t-91 42.5l-51 12q-49 11 -88 29t-66 44t-41.5 61t-14.5 82q0 43 16 78.5t45.5 61t71.5 39.5t95 14q60 0 96 -20t50 -47h5v55h91v-199h-91v45
q0 51 -34.5 77.5t-108.5 26.5q-69 0 -102.5 -30.5t-33.5 -77.5q0 -50 30.5 -77t100.5 -44l47 -10q97 -23 150 -72.5t53 -135.5q0 -46 -16.5 -85t-47 -67.5t-75.5 -44.5t-102 -16zM130 923l32 24l132 -99l132 99l32 -24l-128 -161h-72z" />
    <glyph glyph-name="scaron" unicode="&#x161;" horiz-adv-x="497" 
d="M257 -12q-51 0 -83 20t-42 44h-4v-52h-76v155h76v-18q0 -42 26 -66t84 -24q108 0 108 76q0 59 -78 78l-54 13q-80 19 -119 58t-39 107q0 73 49 113t130 40q50 0 80 -17t39 -41h4v46h76v-155h-76v29q0 79 -107 79q-46 0 -70.5 -17.5t-24.5 -52.5q0 -62 80 -82l51 -12
q81 -18 121 -54.5t40 -107.5q0 -72 -51.5 -115.5t-139.5 -43.5zM73 756l32 24l132 -99l132 99l32 -24l-128 -161h-72z" />
    <glyph glyph-name="uni0162" unicode="&#x162;" horiz-adv-x="677" 
d="M186 54h93v585h-156v-117h-91v176h613v-176h-91v117h-156v-585h93v-54h-305v54zM282 -263q19 20 34 47t21 47q-30 0 -46 17t-16 42v3q0 26 16 43t47 17t47 -18t16 -43v-7q0 -38 -19.5 -78.5t-49.5 -69.5h-50v0z" />
    <glyph glyph-name="uni0163" unicode="&#x163;" horiz-adv-x="361" 
d="M204 -8q-57 0 -80 24t-23 76v370h-68v58h17q37 0 51 13t23 38l31 88h58v-139h125v-58h-125v-405h125v-44q-17 -8 -54.5 -14.5t-79.5 -6.5zM156 -263q19 20 34 47t21 47q-30 0 -46 17t-16 42v3q0 26 16 43t47 17t47 -18t16 -43v-7q0 -38 -19.5 -78.5t-49.5 -69.5h-50v0z
" />
    <glyph glyph-name="Tcaron" unicode="&#x164;" horiz-adv-x="677" 
d="M186 54h93v585h-156v-117h-91v176h613v-176h-91v117h-156v-585h93v-54h-305v54zM174 923l32 24l132 -99l132 99l32 -24l-128 -161h-72z" />
    <glyph glyph-name="tcaron" unicode="&#x165;" horiz-adv-x="361" 
d="M204 -8q-57 0 -80 24t-23 76v370h-68v58h17q37 0 51 13t23 38l31 88h58v-139h125v-58h-125v-405h125v-44q-17 -8 -54.5 -14.5t-79.5 -6.5zM280 766h103l-74 -197h-38z" />
    <glyph glyph-name="Tbar" unicode="&#x166;" horiz-adv-x="677" 
d="M186 54h93v271h-137v58h137v256h-156v-117h-91v176h613v-176h-91v117h-156v-256h137v-58h-137v-271h93v-54h-305v54z" />
    <glyph glyph-name="tbar" unicode="&#x167;" horiz-adv-x="369" 
d="M208 -8q-56 0 -79 24t-23 76v164h-55v54h55v152h-68v58h17q37 0 51 13t23 38l31 88h58v-139h125v-58h-125v-152h112v-54h-112v-199h125v-44q-17 -8 -54.5 -14.5t-80.5 -6.5z" />
    <glyph glyph-name="Utilde" unicode="&#x168;" horiz-adv-x="750" 
d="M390 -12q-74 0 -126 15.5t-85 49.5t-48 87t-15 128v376h-73v54h265v-54h-73v-386q0 -52 8.5 -90t27.5 -63.5t50.5 -38t78.5 -12.5q94 0 132.5 49.5t38.5 153.5v387h-73v54h211v-54h-73v-370q0 -72 -13.5 -125.5t-42.5 -89.5t-76 -53.5t-114 -17.5zM470 774q-21 0 -40.5 9
t-39.5 19l-40 20t-36 10t-26.5 -7t-29.5 -29l-27 27q25 37 47.5 59.5t57.5 22.5q21 0 40.5 -9t39.5 -19l40 -20t36 -10q8 0 14 1.5t12 5.5t13 11t17 18l27 -27q-25 -37 -47.5 -59.5t-57.5 -22.5z" />
    <glyph glyph-name="utilde" unicode="&#x169;" horiz-adv-x="631" 
d="M270 -12q-95 0 -135 48.5t-40 145.5v258l-68 13v44l180 35v-344q0 -65 25 -95t79 -30q20 0 39.5 5.5t35 17t25 28.5t9.5 41v285l-68 13v44l180 35v-452l68 -13v-44l-177 -35v93h-5q-6 -17 -18.5 -34t-31 -30t-43 -21t-55.5 -8zM376 609q-21 0 -40.5 9t-39.5 19l-40 20
t-36 10t-26.5 -7t-29.5 -29l-27 27q25 37 47.5 59.5t57.5 22.5q21 0 40.5 -9t39.5 -19l40 -20t36 -10q8 0 14 1.5t12 5.5t13 11t17 18l27 -27q-25 -37 -47.5 -59.5t-57.5 -22.5z" />
    <glyph glyph-name="Umacron" unicode="&#x16a;" horiz-adv-x="750" 
d="M390 -12q-74 0 -126 15.5t-85 49.5t-48 87t-15 128v376h-73v54h265v-54h-73v-386q0 -52 8.5 -90t27.5 -63.5t50.5 -38t78.5 -12.5q94 0 132.5 49.5t38.5 153.5v387h-73v54h211v-54h-73v-370q0 -72 -13.5 -125.5t-42.5 -89.5t-76 -53.5t-114 -17.5zM255 875h296v-71h-296
v71z" />
    <glyph glyph-name="umacron" unicode="&#x16b;" horiz-adv-x="631" 
d="M270 -12q-95 0 -135 48.5t-40 145.5v258l-68 13v44l180 35v-344q0 -65 25 -95t79 -30q20 0 39.5 5.5t35 17t25 28.5t9.5 41v285l-68 13v44l180 35v-452l68 -13v-44l-177 -35v93h-5q-6 -17 -18.5 -34t-31 -30t-43 -21t-55.5 -8zM161 708h296v-71h-296v71z" />
    <glyph glyph-name="Ubreve" unicode="&#x16c;" horiz-adv-x="750" 
d="M390 -12q-74 0 -126 15.5t-85 49.5t-48 87t-15 128v376h-73v54h265v-54h-73v-386q0 -52 8.5 -90t27.5 -63.5t50.5 -38t78.5 -12.5q94 0 132.5 49.5t38.5 153.5v387h-73v54h211v-54h-73v-370q0 -72 -13.5 -125.5t-42.5 -89.5t-76 -53.5t-114 -17.5zM403 758q-39 0 -65 14
t-44 36t-29.5 50t-20.5 55l36 19l21 -36q16 -28 37.5 -41t64.5 -13t64.5 13t37.5 41l21 36l36 -19q-9 -27 -20.5 -55t-29.5 -50t-44 -36t-65 -14z" />
    <glyph glyph-name="ubreve" unicode="&#x16d;" horiz-adv-x="631" 
d="M270 -12q-95 0 -135 48.5t-40 145.5v258l-68 13v44l180 35v-344q0 -65 25 -95t79 -30q20 0 39.5 5.5t35 17t25 28.5t9.5 41v285l-68 13v44l180 35v-452l68 -13v-44l-177 -35v93h-5q-6 -17 -18.5 -34t-31 -30t-43 -21t-55.5 -8zM309 591q-39 0 -65 14t-44 36t-29.5 50
t-20.5 55l36 19l21 -36q16 -28 37.5 -41t64.5 -13t64.5 13t37.5 41l21 36l36 -19q-9 -27 -20.5 -55t-29.5 -50t-44 -36t-65 -14z" />
    <glyph glyph-name="Uring" unicode="&#x16e;" horiz-adv-x="750" 
d="M390 -12q-74 0 -126 15.5t-85 49.5t-48 87t-15 128v376h-73v54h265v-54h-73v-386q0 -52 8.5 -90t27.5 -63.5t50.5 -38t78.5 -12.5q94 0 132.5 49.5t38.5 153.5v387h-73v54h211v-54h-73v-370q0 -72 -13.5 -125.5t-42.5 -89.5t-76 -53.5t-114 -17.5zM403 779
q26 0 41.5 15.5t15.5 44.5v44q0 29 -15.5 44.5t-41.5 15.5t-41.5 -15.5t-15.5 -44.5v-44q0 -29 15.5 -44.5t41.5 -15.5zM403 737q-27 0 -51 9t-41 25.5t-27 39.5t-10 50t10 49.5t27 39t41 26t51 9.5t51 -9.5t41 -26t27 -39t10 -49.5t-10 -50t-27 -39.5t-41 -25.5t-51 -9z
" />
    <glyph glyph-name="uring" unicode="&#x16f;" horiz-adv-x="631" 
d="M270 -12q-95 0 -135 48.5t-40 145.5v258l-68 13v44l180 35v-344q0 -65 25 -95t79 -30q20 0 39.5 5.5t35 17t25 28.5t9.5 41v285l-68 13v44l180 35v-452l68 -13v-44l-177 -35v93h-5q-6 -17 -18.5 -34t-31 -30t-43 -21t-55.5 -8zM309 613q26 0 41.5 15.5t15.5 44.5v44
q0 29 -15.5 44.5t-41.5 15.5t-41.5 -15.5t-15.5 -44.5v-44q0 -29 15.5 -44.5t41.5 -15.5zM309 571q-27 0 -51 9t-41 25.5t-27 39.5t-10 50t10 49.5t27 39t41 26t51 9.5t51 -9.5t41 -26t27 -39t10 -49.5t-10 -50t-27 -39.5t-41 -25.5t-51 -9z" />
    <glyph glyph-name="Uhungarumlaut" unicode="&#x170;" horiz-adv-x="750" 
d="M390 -12q-74 0 -126 15.5t-85 49.5t-48 87t-15 128v376h-73v54h265v-54h-73v-386q0 -52 8.5 -90t27.5 -63.5t50.5 -38t78.5 -12.5q94 0 132.5 49.5t38.5 153.5v387h-73v54h211v-54h-73v-370q0 -72 -13.5 -125.5t-42.5 -89.5t-76 -53.5t-114 -17.5zM277 771l77 191l92 -47
l-134 -161zM452 771l77 191l92 -47l-134 -161z" />
    <glyph glyph-name="uhungarumlaut" unicode="&#x171;" horiz-adv-x="631" 
d="M270 -12q-95 0 -135 48.5t-40 145.5v258l-68 13v44l180 35v-344q0 -65 25 -95t79 -30q20 0 39.5 5.5t35 17t25 28.5t9.5 41v285l-68 13v44l180 35v-452l68 -13v-44l-177 -35v93h-5q-6 -17 -18.5 -34t-31 -30t-43 -21t-55.5 -8zM183 601l77 191l92 -47l-134 -161zM358 601
l77 191l92 -47l-134 -161z" />
    <glyph glyph-name="Uogonek" unicode="&#x172;" horiz-adv-x="750" 
d="M473 -209q-42 0 -72 19t-30 61q0 37 26.5 65t71.5 55l-2 4q-17 -4 -36.5 -5.5t-40.5 -1.5q-74 0 -126 15.5t-85 49.5t-48 87t-15 128v376h-73v54h265v-54h-73v-386q0 -52 8.5 -90t27.5 -63.5t50.5 -38t78.5 -12.5q94 0 132.5 49.5t38.5 153.5v387h-73v54h211v-54h-73
v-370q0 -91 -21 -152t-71 -96q-29 -20 -46.5 -40.5t-28 -39t-14 -34.5t-3.5 -28q0 -20 12 -32t33 -12q26 0 44 21l27 -28q-12 -18 -35.5 -30t-59.5 -12z" />
    <glyph glyph-name="uogonek" unicode="&#x173;" horiz-adv-x="631" 
d="M527 -209q-42 0 -72 19t-30 61t32.5 74t83.5 63l-1 4l-117 -24v93h-5q-6 -17 -18.5 -34t-31 -30t-43 -21t-55.5 -8q-95 0 -135 48.5t-40 145.5v258l-68 13v44l180 35v-344q0 -65 25 -95t79 -30q20 0 39.5 5.5t35 17t25 28.5t9.5 41v285l-68 13v44l180 35v-452l68 -13v-44
q-33 -25 -52 -45.5t-28 -37.5t-11.5 -31t-2.5 -25q0 -20 12 -32t33 -12q26 0 44 21l27 -28q-12 -18 -35.5 -30t-59.5 -12z" />
    <glyph glyph-name="Wcircumflex" unicode="&#x174;" horiz-adv-x="993" 
d="M72 644h-52v54h259v-54h-85l121 -525h5l148 579h108l148 -579h5l121 525h-85v54h208v-54h-52l-160 -644h-115l-147 550h-5l-147 -550h-115zM358 782l128 161h72l128 -161l-32 -24l-132 99l-132 -99z" />
    <glyph glyph-name="wcircumflex" unicode="&#x175;" horiz-adv-x="817" 
d="M64 466h-50v54h230v-54h-67l91 -356h5l115 410h92l115 -410h5l91 356h-67v54h179v-54h-50l-132 -466h-94l-116 389h-5l-116 -389h-94zM270 615l128 161h72l128 -161l-32 -24l-132 99l-132 -99z" />
    <glyph glyph-name="Ycircumflex" unicode="&#x176;" horiz-adv-x="655" 
d="M180 54h88v226l-195 364h-52v54h263v-54h-81l151 -290h5l151 290h-81v54h205v-54h-52l-195 -352v-238h88v-54h-295v54zM193 782l128 161h72l128 -161l-32 -24l-132 99l-132 -99z" />
    <glyph glyph-name="ycircumflex" unicode="&#x177;" horiz-adv-x="550" 
d="M123 -212q-54 0 -81.5 25t-27.5 62q0 31 16.5 48.5t46.5 17.5q28 0 43.5 -17t15.5 -43q0 -15 -6.5 -26.5t-14.5 -16.5v-4q5 -2 9.5 -2h11.5q54 0 93 101l16 44l-190 489h-50v54h237v-54h-67l124 -347h5l123 347h-66v54h183v-54h-50l-209 -538q-11 -27 -25.5 -52.5
t-34 -45t-44.5 -31t-58 -11.5zM136 615l128 161h72l128 -161l-32 -24l-132 99l-132 -99z" />
    <glyph glyph-name="Ydieresis" unicode="&#x178;" horiz-adv-x="655" 
d="M180 54h88v226l-195 364h-52v54h263v-54h-81l151 -290h5l151 290h-81v54h205v-54h-52l-195 -352v-238h88v-54h-295v54zM258 778q-29 0 -45 17t-16 42v4q0 25 16 42t45 17t45 -17t16 -42v-4q0 -25 -16 -42t-45 -17zM456 778q-29 0 -45 17t-16 42v4q0 25 16 42t45 17
t45 -17t16 -42v-4q0 -25 -16 -42t-45 -17z" />
    <glyph glyph-name="Zacute" unicode="&#x179;" horiz-adv-x="644" 
d="M54 58l388 581h-285v-117h-91v176h511v-58l-388 -581h307v130h91v-189h-533v58zM273 771l74 191l100 -48l-138 -160z" />
    <glyph glyph-name="zacute" unicode="&#x17a;" horiz-adv-x="511" 
d="M42 48l283 414h-199v-97h-76v155h411v-48l-283 -414h215v98h76v-156h-427v48zM217 601l74 191l100 -48l-138 -160z" />
    <glyph glyph-name="Zdotaccent" unicode="&#x17b;" horiz-adv-x="644" 
d="M54 58l388 581h-285v-117h-91v176h511v-58l-388 -581h307v130h91v-189h-533v58zM313 774q-30 0 -48 18t-18 46v3q0 28 18 46t48 18t48 -18t18 -46v-3q0 -28 -18 -46t-48 -18z" />
    <glyph glyph-name="zdotaccent" unicode="&#x17c;" horiz-adv-x="511" 
d="M42 48l283 414h-199v-97h-76v155h411v-48l-283 -414h215v98h76v-156h-427v48zM257 606q-30 0 -48 18t-18 46v3q0 28 18 46t48 18t48 -18t18 -46v-3q0 -28 -18 -46t-48 -18z" />
    <glyph glyph-name="Zcaron" unicode="&#x17d;" horiz-adv-x="644" 
d="M54 58l388 581h-285v-117h-91v176h511v-58l-388 -581h307v130h91v-189h-533v58zM149 923l32 24l132 -99l132 99l32 -24l-128 -161h-72z" />
    <glyph glyph-name="zcaron" unicode="&#x17e;" horiz-adv-x="511" 
d="M42 48l283 414h-199v-97h-76v155h411v-48l-283 -414h215v98h76v-156h-427v48zM93 756l32 24l132 -99l132 99l32 -24l-128 -161h-72z" />
    <glyph glyph-name="uni018F" unicode="&#x18f;" horiz-adv-x="711" 
d="M351 -12q-71 0 -127 24t-94.5 66t-58.5 99.5t-20 124.5v36h478v83q0 102 -53.5 159.5t-153.5 57.5q-76 0 -128.5 -37t-75.5 -97l-46 25q10 34 33 66.5t57.5 58t80 41t101.5 15.5q75 0 134 -26t99.5 -73.5t61.5 -114t21 -147.5q0 -85 -22.5 -152t-63.5 -113.5t-98 -71
t-125 -24.5zM351 50q81 0 129.5 55.5t48.5 155.5v18h-356v-18q0 -100 48.5 -155.5t129.5 -55.5z" />
    <glyph glyph-name="florin" unicode="&#x192;" horiz-adv-x="542" 
d="M87 -146q-60 0 -92 24.5t-32 63.5q0 29 18 50t50 21q26 0 40.5 -15t14.5 -38q0 -20 -11.5 -34t-26.5 -20v-3q5 -2 14.5 -2.5t18.5 -0.5q39 0 63.5 28t32.5 100l27 261h-154l7 57h153l17 173q10 94 62.5 142.5t141.5 48.5q60 0 92 -24.5t32 -63.5q0 -29 -18 -50t-50 -21
q-26 0 -40.5 15t-14.5 38q0 20 11.5 34t26.5 20v3q-5 2 -14.5 2.5t-18.5 0.5q-39 0 -63.5 -28t-32.5 -100l-19 -190h180l-7 -57h-179l-25 -244q-10 -94 -62.5 -142.5t-141.5 -48.5z" />
    <glyph glyph-name="Ohorn" unicode="&#x1a0;" horiz-adv-x="736" 
d="M368 -12q-70 0 -128 24.5t-100 71t-65.5 113.5t-23.5 152t23.5 152t65.5 113.5t100 71t128 24.5q48 0 92 -12h116v110h95v-79q0 -34 -18.5 -53t-57.5 -19h-47q64 -45 100.5 -122.5t36.5 -185.5q0 -85 -23.5 -152t-65.5 -113.5t-100 -71t-128 -24.5zM368 50q86 0 136 57.5
t50 160.5v162q0 103 -50 160.5t-136 57.5t-136 -57.5t-50 -160.5v-162q0 -103 50 -160.5t136 -57.5z" />
    <glyph glyph-name="ohorn" unicode="&#x1a1;" horiz-adv-x="572" 
d="M286 -12q-55 0 -100 19t-77 54t-49.5 85.5t-17.5 113.5t17.5 113.5t49.5 85.5t77 54t100 19q43 0 81 -12h78v108h95v-77q0 -34 -18.5 -53t-57.5 -19h-22q42 -35 65 -90.5t23 -128.5q0 -63 -17.5 -113.5t-49.5 -85.5t-77 -54t-100 -19zM286 47q63 0 92.5 39t29.5 104v140
q0 65 -29.5 104t-92.5 39t-92.5 -39t-29.5 -104v-140q0 -65 29.5 -104t92.5 -39z" />
    <glyph glyph-name="Uhorn" unicode="&#x1af;" horiz-adv-x="756" 
d="M390 -12q-74 0 -126 15.5t-85 49.5t-48 87t-15 128v376h-73v54h265v-54h-73v-386q0 -52 8.5 -90t27.5 -63.5t50.5 -38t78.5 -12.5q94 0 132.5 49.5t38.5 153.5v387h-73v54h154v110h95v-83q0 -34 -18.5 -53t-57.5 -19h-35v-379q0 -72 -13.5 -125.5t-42.5 -89.5t-76 -53.5
t-114 -17.5z" />
    <glyph glyph-name="uhorn" unicode="&#x1b0;" horiz-adv-x="631" 
d="M270 -12q-95 0 -135 48.5t-40 145.5v258l-68 13v44l180 35v-344q0 -65 25 -95t79 -30q20 0 39.5 5.5t35 17t25 28.5t9.5 41v285l-68 13v44l173 34v97h95v-77q0 -32 -18.5 -50t-57.5 -18h-12v-403l68 -13v-44l-177 -35v93h-5q-6 -17 -18.5 -34t-31 -30t-43 -21t-55.5 -8z
" />
    <glyph glyph-name="Aringacute" unicode="&#x1fa;" horiz-adv-x="692" 
d="M15 54h52l222 644h114l222 -644h52v-54h-261v54h86l-56 167h-253l-56 -167h86v-54h-208v54zM209 278h221l-108 326h-5zM346 773q27 0 42 15t15 45v29q0 30 -15 45t-42 15t-42 -15t-15 -45v-29q0 -30 15 -45t42 -15zM346 733q-55 0 -92 31.5t-37 83.5t37 83.5t92 31.5
t92 -31.5t37 -83.5t-37 -83.5t-92 -31.5zM314 1009l87 124l62 -53l-122 -95z" />
    <glyph glyph-name="aringacute" unicode="&#x1fb;" horiz-adv-x="553" 
d="M197 -12q-78 0 -117.5 38.5t-39.5 105.5q0 76 54 115t176 39h72v68q0 61 -27 93t-85 32q-49 0 -74 -14v-4q11 -5 20.5 -17.5t9.5 -34.5q0 -28 -16.5 -45t-47.5 -17q-26 0 -43.5 17.5t-17.5 47.5q0 23 13.5 44.5t39.5 38.5t63.5 27t86.5 10q94 0 142 -44t48 -123v-312h68
v-45q-14 -8 -36 -14t-47 -6q-46 0 -67.5 23.5t-21.5 60.5v5h-5q-7 -17 -18 -32.5t-28.5 -28.5t-42.5 -20.5t-59 -7.5zM241 58q44 0 72.5 21t28.5 69v89h-60q-71 0 -99 -23t-28 -66v-19q0 -36 23 -53.5t63 -17.5zM265 607q27 0 42 15.5t15 45.5v28q0 30 -15 45.5t-42 15.5
t-42 -15.5t-15 -45.5v-28q0 -30 15 -45.5t42 -15.5zM265 567q-55 0 -92 31.5t-37 83.5t37 83.5t92 31.5t92 -31.5t37 -83.5t-37 -83.5t-92 -31.5zM233 843l87 124l62 -53l-122 -95z" />
    <glyph glyph-name="AEacute" unicode="&#x1fc;" horiz-adv-x="982" 
d="M15 54h52l307 590h-73v54h615v-176h-91v117h-251v-248h170v71h66v-201h-66v71h-170v-273h261v130h91v-189h-544v54h73v167h-230l-86 -167h74v-54h-198v54zM253 278h202v366h-10zM576 771l74 191l100 -48l-138 -160z" />
    <glyph glyph-name="aeacute" unicode="&#x1fd;" horiz-adv-x="831" 
d="M199 -12q-79 0 -119 40t-40 107q0 80 54 118.5t176 38.5h72v62q0 61 -27 93t-85 32q-49 0 -74 -14v-4q11 -5 20.5 -17.5t9.5 -34.5q0 -28 -16.5 -45t-47.5 -17q-26 0 -43.5 17.5t-17.5 47.5q0 23 13.5 44.5t39.5 38.5t63.5 27t86.5 10q62 0 98 -27t45 -64h6q7 19 22 35.5
t35.5 29t46 19.5t53.5 7q53 0 94 -18t69.5 -51t43 -78.5t14.5 -99.5v-32h-337v-24q0 -78 39.5 -120.5t106.5 -42.5q58 0 89 22.5t49 60.5l42 -26q-9 -25 -25 -49.5t-40.5 -43.5t-58 -30.5t-78.5 -11.5q-35 0 -65 8.5t-54 23t-41 34t-26 41.5h-6q-17 -50 -64 -78.5
t-123 -28.5zM241 58q44 0 72.5 21t28.5 69v95h-60q-71 0 -99 -23t-28 -66v-25q0 -36 23 -53.5t63 -17.5zM454 306h222v16q0 72 -25.5 113t-80.5 41q-57 0 -86.5 -39t-29.5 -111v-20zM371 601l74 191l100 -48l-138 -160z" />
    <glyph glyph-name="Oslashacute" unicode="&#x1fe;" horiz-adv-x="736" 
d="M90 -11l58 86q-46 46 -71.5 115t-25.5 159q0 85 23.5 152t65.5 113.5t100 71t128 24.5q99 0 174 -49l55 81l49 -33l-58 -86q46 -46 71.5 -115t25.5 -159q0 -85 -23.5 -152t-65.5 -113.5t-100 -71t-128 -24.5q-99 0 -174 49l-55 -81zM500 596q-49 52 -132 52
q-88 0 -138.5 -57.5t-50.5 -160.5v-162q0 -66 23 -117zM368 50q88 0 138.5 57.5t50.5 160.5v162q0 66 -23 117l-298 -445q49 -52 132 -52zM327 771l74 191l100 -48l-138 -160z" />
    <glyph glyph-name="oslashacute" unicode="&#x1ff;" horiz-adv-x="572" 
d="M46 -5l57 74q-29 35 -45 83t-16 108q0 63 17.5 113.5t49.5 85.5t77 54t100 19q42 0 77.5 -11t64.5 -31l54 69l44 -34l-57 -74q29 -35 45 -83t16 -108q0 -63 -17.5 -113.5t-49.5 -85.5t-77 -54t-100 -19q-42 0 -77.5 11t-64.5 31l-54 -69zM384 430q-15 20 -39.5 31.5
t-58.5 11.5q-65 0 -95.5 -39t-30.5 -104v-140q0 -26 4 -45zM286 47q65 0 95.5 39t30.5 104v140q0 26 -4 45l-220 -285q15 -20 39.5 -31.5t58.5 -11.5zM247 601l74 191l100 -48l-138 -160z" />
    <glyph glyph-name="Scommaaccent" unicode="&#x218;" horiz-adv-x="605" 
d="M305 -12q-62 0 -100.5 21t-52.5 50h-5v-59h-91v205h91v-45q0 -52 34.5 -81t110.5 -29q80 0 116 33t36 88q0 49 -27 75.5t-91 42.5l-51 12q-49 11 -88 29t-66 44t-41.5 61t-14.5 82q0 43 16 78.5t45.5 61t71.5 39.5t95 14q60 0 96 -20t50 -47h5v55h91v-199h-91v45
q0 51 -34.5 77.5t-108.5 26.5q-69 0 -102.5 -30.5t-33.5 -77.5q0 -50 30.5 -77t100.5 -44l47 -10q97 -23 150 -72.5t53 -135.5q0 -46 -16.5 -85t-47 -67.5t-75.5 -44.5t-102 -16zM248 -263q19 20 34 47t21 47q-30 0 -46 17t-16 42v3q0 26 16 43t47 17t47 -18t16 -43v-7
q0 -38 -19.5 -78.5t-49.5 -69.5h-50v0z" />
    <glyph glyph-name="scommaaccent" unicode="&#x219;" horiz-adv-x="497" 
d="M257 -12q-51 0 -83 20t-42 44h-4v-52h-76v155h76v-18q0 -42 26 -66t84 -24q108 0 108 76q0 59 -78 78l-54 13q-80 19 -119 58t-39 107q0 73 49 113t130 40q50 0 80 -17t39 -41h4v46h76v-155h-76v29q0 79 -107 79q-46 0 -70.5 -17.5t-24.5 -52.5q0 -62 80 -82l51 -12
q81 -18 121 -54.5t40 -107.5q0 -72 -51.5 -115.5t-139.5 -43.5zM197 -263q19 20 34 47t21 47q-30 0 -46 17t-16 42v3q0 26 16 43t47 17t47 -18t16 -43v-7q0 -38 -19.5 -78.5t-49.5 -69.5h-50v0z" />
    <glyph glyph-name="uni021A" unicode="&#x21a;" horiz-adv-x="677" 
d="M186 54h93v585h-156v-117h-91v176h613v-176h-91v117h-156v-585h93v-54h-305v54zM282 -263q19 20 34 47t21 47q-30 0 -46 17t-16 42v3q0 26 16 43t47 17t47 -18t16 -43v-7q0 -38 -19.5 -78.5t-49.5 -69.5h-50v0z" />
    <glyph glyph-name="uni021B" unicode="&#x21b;" horiz-adv-x="361" 
d="M204 -8q-57 0 -80 24t-23 76v370h-68v58h17q37 0 51 13t23 38l31 88h58v-139h125v-58h-125v-405h125v-44q-17 -8 -54.5 -14.5t-79.5 -6.5zM156 -263q19 20 34 47t21 47q-30 0 -46 17t-16 42v3q0 26 16 43t47 17t47 -18t16 -43v-7q0 -38 -19.5 -78.5t-49.5 -69.5h-50v0z
" />
    <glyph glyph-name="uni0237" unicode="&#x237;" horiz-adv-x="311" 
d="M44 -212q-54 0 -80.5 22.5t-26.5 60.5q0 25 15.5 42t41.5 17t39.5 -15t13.5 -38q0 -15 -6 -27t-15 -17v-3q5 -2 10.5 -2h11.5q29 0 44.5 22t15.5 67v523l-68 13v44l180 35v-561q0 -94 -45.5 -138.5t-130.5 -44.5z" />
    <glyph glyph-name="uni0259" unicode="&#x259;" horiz-adv-x="547" 
d="M268 -12q-53 0 -95 17.5t-71.5 49.5t-45.5 77t-16 100v27h344v32q0 78 -39 120.5t-105 42.5q-58 0 -93.5 -25.5t-52.5 -63.5l-43 26q9 25 26.5 50.5t43.5 45.5t61 32.5t80 12.5q58 0 103 -19.5t76 -55.5t47.5 -86t16.5 -111q0 -62 -17.5 -112t-49 -85.5t-75 -55
t-95.5 -19.5zM268 44q56 0 86 38.5t30 110.5v13h-228v-11q0 -72 27.5 -111.5t84.5 -39.5z" />
    <glyph glyph-name="uni02BB" unicode="&#x2bb;" 
d="M300 578q-31 0 -47 18t-16 43v7q0 38 19.5 78.5t49.5 69.5h50q-19 -20 -34 -47t-21 -47q30 0 46 -17t16 -42v-3q0 -26 -16 -43t-47 -17z" />
    <glyph glyph-name="uni02BC" unicode="&#x2bc;" 
d="M322 748h103l-74 -197h-38z" />
    <glyph glyph-name="circumflex" unicode="&#x2c6;" 
d="M136 615l128 161h72l128 -161l-32 -24l-132 99l-132 -99z" />
    <glyph glyph-name="caron" unicode="&#x2c7;" 
d="M136 756l32 24l132 -99l132 99l32 -24l-128 -161h-72z" />
    <glyph glyph-name="breve" unicode="&#x2d8;" 
d="M300 591q-39 0 -65 14t-44 36t-29.5 50t-20.5 55l36 19l21 -36q16 -28 37.5 -41t64.5 -13t64.5 13t37.5 41l21 36l36 -19q-9 -27 -20.5 -55t-29.5 -50t-44 -36t-65 -14z" />
    <glyph glyph-name="dotaccent" unicode="&#x2d9;" 
d="M300 606q-30 0 -48 18t-18 46v3q0 28 18 46t48 18t48 -18t18 -46v-3q0 -28 -18 -46t-48 -18z" />
    <glyph glyph-name="ring" unicode="&#x2da;" 
d="M300 613q26 0 41.5 15.5t15.5 44.5v44q0 29 -15.5 44.5t-41.5 15.5t-41.5 -15.5t-15.5 -44.5v-44q0 -29 15.5 -44.5t41.5 -15.5zM300 571q-27 0 -51 9t-41 25.5t-27 39.5t-10 50t10 49.5t27 39t41 26t51 9.5t51 -9.5t41 -26t27 -39t10 -49.5t-10 -50t-27 -39.5t-41 -25.5
t-51 -9z" />
    <glyph glyph-name="ogonek" unicode="&#x2db;" 
d="M240 -209q-42 0 -72 19t-30 61q0 40 31.5 69t88.5 61l-6 20h39l9 -21q-28 -21 -44 -38.5t-24.5 -31.5t-10.5 -25.5t-2 -20.5q0 -20 12 -32t33 -12q26 0 44 21l27 -28q-12 -18 -35.5 -30t-59.5 -12z" />
    <glyph glyph-name="tilde" unicode="&#x2dc;" 
d="M367 609q-21 0 -40.5 9t-39.5 19l-40 20t-36 10t-26.5 -7t-29.5 -29l-27 27q25 37 47.5 59.5t57.5 22.5q21 0 40.5 -9t39.5 -19l40 -20t36 -10q8 0 14 1.5t12 5.5t13 11t17 18l27 -27q-25 -37 -47.5 -59.5t-57.5 -22.5z" />
    <glyph glyph-name="hungarumlaut" unicode="&#x2dd;" 
d="M174 601l77 191l92 -47l-134 -161zM349 601l77 191l92 -47l-134 -161z" />
    <glyph glyph-name="uni0300" unicode="&#x300;" horiz-adv-x="0" 
d="M-133 744l100 48l74 -191l-36 -17z" />
    <glyph glyph-name="uni0301" unicode="&#x301;" horiz-adv-x="0" 
d="M-39 601l74 191l100 -48l-138 -160z" />
    <glyph glyph-name="uni0302" unicode="&#x302;" horiz-adv-x="0" 
d="M-163 615l128 161h72l128 -161l-32 -24l-132 99l-132 -99z" />
    <glyph glyph-name="uni0303" unicode="&#x303;" horiz-adv-x="0" 
d="M68 609q-21 0 -40.5 9t-39.5 19l-40 20t-36 10t-26.5 -7t-29.5 -29l-27 27q25 37 47.5 59.5t57.5 22.5q21 0 40.5 -9t39.5 -19l40 -20t36 -10q8 0 14 1.5t12 5.5t13 11t17 18l27 -27q-25 -37 -47.5 -59.5t-57.5 -22.5z" />
    <glyph glyph-name="uni0304" unicode="&#x304;" horiz-adv-x="0" 
d="M-147 708h296v-71h-296v71z" />
    <glyph glyph-name="uni0306" unicode="&#x306;" horiz-adv-x="0" 
d="M1 591q-39 0 -65 14t-44 36t-29.5 50t-20.5 55l36 19l21 -36q16 -28 37.5 -41t64.5 -13t64.5 13t37.5 41l21 36l36 -19q-9 -27 -20.5 -55t-29.5 -50t-44 -36t-65 -14z" />
    <glyph glyph-name="uni0307" unicode="&#x307;" horiz-adv-x="0" 
d="M1 606q-30 0 -48 18t-18 46v3q0 28 18 46t48 18t48 -18t18 -46v-3q0 -28 -18 -46t-48 -18z" />
    <glyph glyph-name="uni0308" unicode="&#x308;" horiz-adv-x="0" 
d="M-98 610q-29 0 -45 17t-16 42v4q0 25 16 42t45 17t45 -17t16 -42v-4q0 -25 -16 -42t-45 -17zM100 610q-29 0 -45 17t-16 42v4q0 25 16 42t45 17t45 -17t16 -42v-4q0 -25 -16 -42t-45 -17z" />
    <glyph glyph-name="uni0309" unicode="&#x309;" horiz-adv-x="0" 
d="M-14 592l49 108h-132v78h120q44 0 61 -18t17 -42t-13.5 -51.5t-37.5 -57.5l-27 -34z" />
    <glyph glyph-name="uni030A" unicode="&#x30a;" horiz-adv-x="0" 
d="M1 613q26 0 41.5 15.5t15.5 44.5v44q0 29 -15.5 44.5t-41.5 15.5t-41.5 -15.5t-15.5 -44.5v-44q0 -29 15.5 -44.5t41.5 -15.5zM1 571q-27 0 -51 9t-41 25.5t-27 39.5t-10 50t10 49.5t27 39t41 26t51 9.5t51 -9.5t41 -26t27 -39t10 -49.5t-10 -50t-27 -39.5t-41 -25.5
t-51 -9z" />
    <glyph glyph-name="uni030B" unicode="&#x30b;" horiz-adv-x="0" 
d="M-125 601l77 191l92 -47l-134 -161zM50 601l77 191l92 -47l-134 -161z" />
    <glyph glyph-name="uni030C" unicode="&#x30c;" horiz-adv-x="0" 
d="M-163 756l32 24l132 -99l132 99l32 -24l-128 -161h-72z" />
    <glyph glyph-name="uni0312" unicode="&#x312;" horiz-adv-x="0" 
d="M1 578q-31 0 -47 18t-16 43v7q0 38 19.5 78.5t49.5 69.5h50q-19 -20 -34 -47t-21 -47q30 0 46 -17t16 -42v-3q0 -26 -16 -43t-47 -17z" />
    <glyph glyph-name="uni0315" unicode="&#x315;" horiz-adv-x="0" 
d="M23 748h103l-74 -197h-38z" />
    <glyph glyph-name="uni031B" unicode="&#x31b;" horiz-adv-x="0" 
d="M-96 520h96v108h95v-77q0 -34 -18.5 -53t-57.5 -19h-115v41z" />
    <glyph glyph-name="uni0323" unicode="&#x323;" horiz-adv-x="0" 
d="M0 -179q-27 0 -44 16.5t-17 42.5v3q0 26 17 42.5t44 16.5t44 -16.5t17 -42.5v-3q0 -26 -17 -42.5t-44 -16.5z" />
    <glyph glyph-name="uni0326" unicode="&#x326;" horiz-adv-x="0" 
d="M-56 -263q19 20 34 47t21 47q-30 0 -46 17t-16 42v3q0 26 16 43t47 17t47 -18t16 -43v-7q0 -38 -19.5 -78.5t-49.5 -69.5h-50v0z" />
    <glyph glyph-name="uni0327" unicode="&#x327;" horiz-adv-x="0" 
d="M12 -209q-41 0 -64 13.5t-34 27.5l26 30q10 -11 24 -18.5t34 -7.5q23 0 37 10t14 30q0 14 -11.5 27.5t-49.5 17.5l-25 2l20 100h46l-17 -83l3 -3q10 2 20.5 4t19.5 2q32 0 53.5 -16.5t21.5 -50.5q0 -23 -9.5 -39t-26 -26t-38 -15t-44.5 -5z" />
    <glyph glyph-name="uni0328" unicode="&#x328;" horiz-adv-x="0" 
d="M-59 -209q-42 0 -72 19t-30 61q0 40 31.5 69t88.5 61l-6 20h39l9 -21q-28 -21 -44 -38.5t-24.5 -31.5t-10.5 -25.5t-2 -20.5q0 -20 12 -32t33 -12q26 0 44 21l27 -28q-12 -18 -35.5 -30t-59.5 -12z" />
    <glyph glyph-name="pi" unicode="&#x3c0;" horiz-adv-x="632" 
d="M505 -10q-57 0 -80 23t-23 75v374h-180v-462h-112v462h-90v58h583v-58h-89v-408h89v-44q-14 -8 -39.5 -14t-58.5 -6z" />
    <glyph glyph-name="uni0400" unicode="&#x400;" horiz-adv-x="649" 
d="M49 54h73v590h-73v54h534v-176h-91v117h-251v-248h170v71h66v-201h-66v71h-170v-273h261v130h91v-189h-544v54zM204 914l100 48l74 -191l-36 -17z" />
    <glyph glyph-name="uni0401" unicode="&#x401;" horiz-adv-x="649" 
d="M49 54h73v590h-73v54h534v-176h-91v117h-251v-248h170v71h66v-201h-66v71h-170v-273h261v130h91v-189h-544v54zM239 778q-29 0 -45 17t-16 42v4q0 25 16 42t45 17t45 -17t16 -42v-4q0 -25 -16 -42t-45 -17zM437 778q-29 0 -45 17t-16 42v4q0 25 16 42t45 17t45 -17
t16 -42v-4q0 -25 -16 -42t-45 -17z" />
    <glyph glyph-name="uni0402" unicode="&#x402;" horiz-adv-x="831" 
d="M514 -105h101q9 8 17 18t14 24t9.5 33t3.5 46v184q0 45 -6.5 76.5t-21.5 50.5t-40.5 27.5t-62.5 8.5q-42 0 -73 -9t-57 -26v-274h73v-54h-265v54h73v585h-156v-117h-91v176h613v-176h-91v117h-156v-255h5q34 19 72 27.5t88 8.5q59 0 100 -13t66.5 -39.5t37 -67
t11.5 -96.5v-193q0 -48 -14.5 -81t-39 -54t-55.5 -30.5t-64 -9.5h-91v59z" />
    <glyph glyph-name="uni0403" unicode="&#x403;" horiz-adv-x="579" 
d="M49 54h73v590h-73v54h498v-176h-91v117h-215v-585h93v-54h-285v54zM279 771l74 191l100 -48l-138 -160z" />
    <glyph glyph-name="uni0404" unicode="&#x404;" horiz-adv-x="663" 
d="M368 -12q-72 0 -130.5 24t-100 70t-64 113.5t-22.5 153.5q0 87 22 154.5t60.5 113.5t91 69.5t114.5 23.5q60 0 99 -20t60 -52h5v60h91v-210h-91v55q0 49 -39 78.5t-104 29.5q-85 0 -131 -58.5t-46 -161.5v-44h264v-59h-264v-58q0 -102 51 -164t150 -62q44 0 75.5 7.5
t48.5 17.5v4q-14 8 -25.5 23t-11.5 36q0 29 18 49.5t51 20.5q32 0 50.5 -20.5t18.5 -54.5q0 -26 -15.5 -51t-46 -44.5t-75.5 -31.5t-104 -12z" />
    <glyph glyph-name="uni0405" unicode="&#x405;" horiz-adv-x="605" 
d="M305 -12q-62 0 -100.5 21t-52.5 50h-5v-59h-91v205h91v-45q0 -52 34.5 -81t110.5 -29q80 0 116 33t36 88q0 49 -27 75.5t-91 42.5l-51 12q-49 11 -88 29t-66 44t-41.5 61t-14.5 82q0 43 16 78.5t45.5 61t71.5 39.5t95 14q60 0 96 -20t50 -47h5v55h91v-199h-91v45
q0 51 -34.5 77.5t-108.5 26.5q-69 0 -102.5 -30.5t-33.5 -77.5q0 -50 30.5 -77t100.5 -44l47 -10q97 -23 150 -72.5t53 -135.5q0 -46 -16.5 -85t-47 -67.5t-75.5 -44.5t-102 -16z" />
    <glyph glyph-name="uni0406" unicode="&#x406;" horiz-adv-x="363" 
d="M49 54h73v590h-73v54h265v-54h-73v-590h73v-54h-265v54z" />
    <glyph glyph-name="uni0407" unicode="&#x407;" horiz-adv-x="363" 
d="M49 54h73v590h-73v54h265v-54h-73v-590h73v-54h-265v54zM84 778q-29 0 -45 17t-16 42v4q0 25 16 42t45 17t45 -17t16 -42v-4q0 -25 -16 -42t-45 -17zM282 778q-29 0 -45 17t-16 42v4q0 25 16 42t45 17t45 -17t16 -42v-4q0 -25 -16 -42t-45 -17z" />
    <glyph glyph-name="uni0408" unicode="&#x408;" horiz-adv-x="481" 
d="M162 -12q-75 0 -111.5 29t-36.5 75q0 29 18 49.5t50 20.5q28 0 45 -17.5t17 -44.5q0 -20 -9 -33t-20 -18v-4q20 -5 46 -5q43 0 65 26t22 85v493h-93v54h285v-54h-73v-465q0 -91 -50.5 -141t-154.5 -50z" />
    <glyph glyph-name="uni0409" unicode="&#x409;" horiz-adv-x="968" 
d="M118 -12q-28 0 -48.5 8t-34.5 21.5t-21 31.5t-7 37q0 36 18.5 57.5t50.5 21.5q30 0 47.5 -18t17.5 -46q0 -19 -9.5 -32.5t-20.5 -18.5v-5q6 -3 15 -3q22 0 45 21q15 14 27 42t20.5 81t13 137.5t4.5 210.5v110h-80v54h504v-54h-73v-228h130q105 0 160.5 -52t55.5 -156
t-55.5 -156t-160.5 -52h-322v54h73v585h-163v-102q0 -126 -4.5 -213t-14.5 -145t-26 -93.5t-38 -57.5t-48.5 -31t-55.5 -9zM696 59q54 0 84.5 30.5t30.5 87.5v62q0 57 -30.5 87.5t-84.5 30.5h-109v-298h109z" />
    <glyph glyph-name="uni040A" unicode="&#x40a;" horiz-adv-x="1029" 
d="M49 54h73v590h-73v54h265v-54h-73v-257h288v257h-73v54h265v-54h-73v-228h130q105 0 160.5 -52t55.5 -156t-55.5 -156t-160.5 -52h-322v54h73v274h-288v-274h73v-54h-265v54zM757 59q54 0 84.5 30.5t30.5 87.5v62q0 57 -30.5 87.5t-84.5 30.5h-109v-298h109z" />
    <glyph glyph-name="uni040B" unicode="&#x40b;" horiz-adv-x="890" 
d="M206 54h73v585h-156v-117h-91v176h613v-176h-91v117h-156v-255h5q35 19 74 27.5t90 8.5q60 0 101.5 -13t67.5 -39.5t37.5 -67t11.5 -96.5v-150h72v-54h-264v54h73v146q0 45 -6.5 76.5t-22 50.5t-41.5 27.5t-64 8.5q-43 0 -75.5 -9t-58.5 -26v-274h73v-54h-265v54z" />
    <glyph glyph-name="uni040C" unicode="&#x40c;" horiz-adv-x="713" 
d="M49 54h73v590h-73v54h265v-54h-73v-259h95l85 176q21 43 39.5 71.5t37.5 45.5t39.5 24.5t43.5 7.5q39 0 60 -23t21 -54q0 -33 -18 -54t-50 -21q-29 0 -46 17t-19 43h-3q-11 -15 -24.5 -38t-24.5 -48l-81 -165q32 -4 53.5 -19.5t41.5 -52.5l143 -241h66v-54h-171l-192 328
h-96v-274h73v-54h-265v54zM357 771l74 191l100 -48l-138 -160z" />
    <glyph glyph-name="uni040D" unicode="&#x40d;" horiz-adv-x="799" 
d="M49 54h73v590h-73v54h261v-54h-73v-289l-10 -184h4l331 449v24h-73v54h261v-54h-73v-590h73v-54h-261v54h73v289l10 184h-4l-331 -449v-24h73v-54h-261v54zM266 914l100 48l74 -191l-36 -17z" />
    <glyph glyph-name="uni040E" unicode="&#x40e;" horiz-adv-x="667" 
d="M229 -12q-63 0 -97.5 30t-34.5 72q0 31 17.5 51.5t49.5 20.5q29 0 45.5 -17.5t16.5 -44.5q0 -20 -9 -33t-20 -18v-4q18 -5 34 -5t30 4t26 14.5t23.5 28.5t22.5 47l11 27l-275 483h-54v54h271v-54h-84l128 -232l63 -121h4l49 121l94 232h-84v54h209v-54h-54l-218 -526
q-15 -37 -32.5 -62t-37.5 -40t-43.5 -21.5t-50.5 -6.5zM372 760q-44 0 -76.5 9.5t-54 26t-32 38t-10.5 44.5q0 30 16.5 46.5t44.5 16.5t43.5 -16.5t15.5 -42.5q0 -22 -11.5 -36.5t-28.5 -20.5v-3q15 -7 39.5 -10.5t53.5 -3.5t53.5 3.5t39.5 10.5v3q-17 6 -28.5 20.5
t-11.5 36.5q0 26 15.5 42.5t43.5 16.5t44.5 -16.5t16.5 -46.5q0 -23 -10.5 -44.5t-32 -38t-54 -26t-76.5 -9.5z" />
    <glyph glyph-name="uni040F" unicode="&#x40f;" horiz-adv-x="776" 
d="M339 0h-290v54h73v590h-73v54h263v-54h-71v-585h294v585h-71v54h263v-54h-73v-590h73v-54h-290v-160h-98v160z" />
    <glyph glyph-name="uni0410" unicode="&#x410;" horiz-adv-x="692" 
d="M15 54h52l222 644h114l222 -644h52v-54h-261v54h86l-56 167h-253l-56 -167h86v-54h-208v54zM209 278h221l-108 326h-5z" />
    <glyph glyph-name="uni0411" unicode="&#x411;" horiz-adv-x="637" 
d="M49 54h73v590h-73v54h491v-176h-91v117h-208v-233h134q109 0 163 -52t54 -148q0 -101 -56 -153.5t-161 -52.5h-326v54zM355 59q54 0 84 30.5t30 87.5v52q0 57 -30 87.5t-84 30.5h-114v-288h114z" />
    <glyph glyph-name="uni0412" unicode="&#x412;" horiz-adv-x="685" 
d="M49 54h73v590h-73v54h346q103 0 155 -46t52 -119q0 -37 -12 -65.5t-31.5 -48.5t-44.5 -33t-52 -18v-5q28 -3 57.5 -14t54 -32t40 -51.5t15.5 -71.5q0 -91 -55 -142.5t-153 -51.5h-372v54zM241 58h146q57 0 88 31.5t31 82.5v45q0 51 -31 82.5t-88 31.5h-146v-273zM241 390
h129q54 0 81.5 28t27.5 75v44q0 47 -27.5 75t-81.5 28h-129v-250z" />
    <glyph glyph-name="uni0413" unicode="&#x413;" horiz-adv-x="579" 
d="M49 54h73v590h-73v54h498v-176h-91v117h-215v-585h93v-54h-285v54z" />
    <glyph glyph-name="uni0414" unicode="&#x414;" horiz-adv-x="717" 
d="M7 59h78q62 82 98 212.5t36 311.5v61h-80v54h514v-54h-73v-585h105v-219h-98v160h-482v-160h-98v219zM461 59v580h-173v-59q0 -165 -32 -300.5t-92 -220.5h297z" />
    <glyph glyph-name="uni0415" unicode="&#x415;" horiz-adv-x="649" 
d="M49 54h73v590h-73v54h534v-176h-91v117h-251v-248h170v71h66v-201h-66v71h-170v-273h261v130h91v-189h-544v54z" />
    <glyph glyph-name="uni0416" unicode="&#x416;" horiz-adv-x="1024" 
d="M13 54h66l134 239q20 39 41 54.5t50 19.5l-67 158q-26 64 -49 93h-4q-2 -26 -19 -43t-46 -17q-32 0 -50 21t-18 54q0 31 21 54t60 23q51 0 88.5 -36t72.5 -122l71 -167h90v259h-73v54h262v-54h-73v-259h90l71 167q35 86 72.5 122t88.5 36q39 0 60 -23t21 -54
q0 -33 -18 -54t-50 -21q-29 0 -46 17t-19 43h-4q-23 -29 -49 -93l-67 -158q29 -4 50 -19.5t41 -54.5l134 -239h66v-54h-169l-182 328h-90v-274h73v-54h-262v54h73v274h-90l-182 -328h-169v54z" />
    <glyph glyph-name="uni0417" unicode="&#x417;" horiz-adv-x="624" 
d="M297 -12q-60 0 -105 12t-75 32t-45.5 44.5t-15.5 50.5q0 34 18.5 54.5t50.5 20.5q33 0 51 -20.5t18 -49.5q0 -21 -11.5 -36t-25.5 -23v-4q18 -9 48 -16.5t70 -7.5q84 0 126.5 36t42.5 94v34q0 56 -34 87.5t-97 31.5h-103v59h97q52 0 86 30.5t34 82.5v36q0 53 -31.5 83.5
t-94.5 30.5t-101 -29t-38 -78v-55h-91v210h91v-60h5q23 33 63.5 52.5t106.5 19.5q50 0 89.5 -13.5t67.5 -37.5t42.5 -56.5t14.5 -70.5q0 -34 -11 -62t-30 -49t-45.5 -35t-56.5 -20v-5q33 -5 62 -17.5t51 -33t34.5 -50t12.5 -68.5q0 -46 -19.5 -83.5t-54.5 -64.5t-85.5 -41.5
t-111.5 -14.5z" />
    <glyph glyph-name="uni0418" unicode="&#x418;" horiz-adv-x="799" 
d="M49 54h73v590h-73v54h261v-54h-73v-289l-10 -184h4l331 449v24h-73v54h261v-54h-73v-590h73v-54h-261v54h73v289l10 184h-4l-331 -449v-24h73v-54h-261v54z" />
    <glyph glyph-name="uni0419" unicode="&#x419;" horiz-adv-x="799" 
d="M49 54h73v590h-73v54h261v-54h-73v-289l-10 -184h4l331 449v24h-73v54h261v-54h-73v-590h73v-54h-261v54h73v289l10 184h-4l-331 -449v-24h73v-54h-261v54zM400 760q-44 0 -76.5 9.5t-54 26t-32 38t-10.5 44.5q0 30 16.5 46.5t44.5 16.5t43.5 -16.5t15.5 -42.5
q0 -22 -11.5 -36.5t-28.5 -20.5v-3q15 -7 39.5 -10.5t53.5 -3.5t53.5 3.5t39.5 10.5v3q-17 6 -28.5 20.5t-11.5 36.5q0 26 15.5 42.5t43.5 16.5t44.5 -16.5t16.5 -46.5q0 -23 -10.5 -44.5t-32 -38t-54 -26t-76.5 -9.5z" />
    <glyph glyph-name="uni041A" unicode="&#x41a;" horiz-adv-x="713" 
d="M49 54h73v590h-73v54h265v-54h-73v-259h95l85 176q21 43 39.5 71.5t37.5 45.5t39.5 24.5t43.5 7.5q39 0 60 -23t21 -54q0 -33 -18 -54t-50 -21q-29 0 -46 17t-19 43h-3q-11 -15 -24.5 -38t-24.5 -48l-81 -165q32 -4 53.5 -19.5t41.5 -52.5l143 -241h66v-54h-171l-192 328
h-96v-274h73v-54h-265v54z" />
    <glyph glyph-name="uni041B" unicode="&#x41b;" horiz-adv-x="719" 
d="M118 -12q-28 0 -48.5 8t-34.5 21.5t-21 31.5t-7 37q0 36 18.5 57.5t50.5 21.5q30 0 47.5 -18t17.5 -46q0 -19 -9.5 -32.5t-20.5 -18.5v-5q6 -3 15 -3q22 0 45 21q15 14 27 42t20.5 81t13 137.5t4.5 210.5v110h-80v54h514v-54h-73v-590h73v-54h-265v54h73v585h-173v-102
q0 -126 -4.5 -213t-14.5 -145t-26 -93.5t-38 -57.5t-48.5 -31t-55.5 -9z" />
    <glyph glyph-name="uni041C" unicode="&#x41c;" horiz-adv-x="882" 
d="M49 54h73v590h-73v54h208l184 -391h3l185 391h204v-54h-73v-590h73v-54h-264v54h73v534h-5l-50 -118l-173 -357l-172 357l-50 118h-5v-534h73v-54h-211v54z" />
    <glyph glyph-name="uni041D" unicode="&#x41d;" horiz-adv-x="799" 
d="M49 54h73v590h-73v54h265v-54h-73v-257h317v257h-73v54h265v-54h-73v-590h73v-54h-265v54h73v274h-317v-274h73v-54h-265v54z" />
    <glyph glyph-name="uni041E" unicode="&#x41e;" horiz-adv-x="736" 
d="M368 50q86 0 136 57.5t50 160.5v162q0 103 -50 160.5t-136 57.5t-136 -57.5t-50 -160.5v-162q0 -103 50 -160.5t136 -57.5zM368 -12q-70 0 -128 24.5t-100 71t-65.5 113.5t-23.5 152t23.5 152t65.5 113.5t100 71t128 24.5t128 -24.5t100 -71t65.5 -113.5t23.5 -152
t-23.5 -152t-65.5 -113.5t-100 -71t-128 -24.5z" />
    <glyph glyph-name="uni041F" unicode="&#x41f;" horiz-adv-x="797" 
d="M49 54h73v590h-73v54h699v-54h-73v-590h73v-54h-265v54h73v585h-315v-585h73v-54h-265v54z" />
    <glyph glyph-name="uni0420" unicode="&#x420;" horiz-adv-x="650" 
d="M49 54h73v590h-73v54h352q101 0 153.5 -48t52.5 -141q0 -94 -55 -145t-156 -51h-155v-259h95v-54h-287v54zM241 372h133q53 0 81.5 30t28.5 80v47q0 50 -28.5 80t-81.5 30h-133v-267z" />
    <glyph glyph-name="uni0421" unicode="&#x421;" horiz-adv-x="656" 
d="M351 -12q-70 0 -125.5 26.5t-94.5 74t-59.5 114t-20.5 146.5q0 87 22.5 154.5t61.5 113.5t92.5 69.5t115.5 23.5q65 0 104.5 -22t53.5 -51h5v61h91v-212h-91v49q0 51 -39.5 81.5t-107.5 30.5q-45 0 -78.5 -15.5t-55 -44t-32.5 -68t-11 -86.5v-156q0 -103 51.5 -158
t140.5 -55q68 0 114.5 35.5t68.5 92.5l47 -25q-11 -33 -32.5 -65t-53.5 -57.5t-74 -41t-93 -15.5z" />
    <glyph glyph-name="uni0422" unicode="&#x422;" horiz-adv-x="677" 
d="M186 54h93v585h-156v-117h-91v176h613v-176h-91v117h-156v-585h93v-54h-305v54z" />
    <glyph glyph-name="uni0423" unicode="&#x423;" horiz-adv-x="667" 
d="M229 -12q-63 0 -97.5 30t-34.5 72q0 31 17.5 51.5t49.5 20.5q29 0 45.5 -17.5t16.5 -44.5q0 -20 -9 -33t-20 -18v-4q18 -5 34 -5t30 4t26 14.5t23.5 28.5t22.5 47l11 27l-275 483h-54v54h271v-54h-84l128 -232l63 -121h4l49 121l94 232h-84v54h209v-54h-54l-218 -526
q-15 -37 -32.5 -62t-37.5 -40t-43.5 -21.5t-50.5 -6.5z" />
    <glyph glyph-name="uni0424" unicode="&#x424;" horiz-adv-x="876" 
d="M307 42h73v79h-52q-133 0 -207 60t-74 174t74 174t207 60h52v67h-73v54h262v-54h-73v-67h52q133 0 207 -60t74 -174t-74 -174t-207 -60h-52v-79h73v-54h-262v54zM380 179v352h-47q-75 0 -119.5 -36t-44.5 -108v-64q0 -72 44.5 -108t119.5 -36h47zM543 179q75 0 119.5 36
t44.5 108v64q0 72 -44.5 108t-119.5 36h-47v-352h47z" />
    <glyph glyph-name="uni0425" unicode="&#x425;" horiz-adv-x="694" 
d="M21 54h62l207 283l-202 307h-58v54h266v-54h-70l142 -221h5l150 221h-65v54h206v-54h-62l-197 -272l210 -318h58v-54h-266v54h70l-150 232h-5l-160 -232h65v-54h-206v54z" />
    <glyph glyph-name="uni0426" unicode="&#x426;" horiz-adv-x="791" 
d="M661 0h-612v54h73v590h-73v54h262v-54h-71v-585h296v585h-71v54h262v-54h-73v-584h105v-220h-98v160z" />
    <glyph glyph-name="uni0427" unicode="&#x427;" horiz-adv-x="735" 
d="M401 54h93v245h-5q-34 -18 -70.5 -27t-89.5 -9q-119 0 -171 51.5t-52 164.5v165h-73v54h262v-54h-70v-161q0 -46 7 -77t23.5 -50t42 -27.5t63.5 -8.5q44 0 77 9.5t56 26.5v288h-70v54h262v-54h-73v-590h73v-54h-285v54z" />
    <glyph glyph-name="uni0428" unicode="&#x428;" horiz-adv-x="1021" 
d="M49 54h73v590h-73v54h260v-54h-68v-585h210v585h-68v54h255v-54h-68v-585h210v585h-68v54h260v-54h-73v-590h73v-54h-923v54z" />
    <glyph glyph-name="uni0429" unicode="&#x429;" horiz-adv-x="1037" 
d="M906 0h-857v54h73v590h-73v54h260v-54h-68v-585h210v585h-68v54h255v-54h-68v-585h210v585h-68v54h260v-54h-73v-585h106v-219h-99v160z" />
    <glyph glyph-name="uni042A" unicode="&#x42a;" horiz-adv-x="767" 
d="M179 54h73v585h-129v-117h-91v176h412v-54h-73v-228h145q105 0 160.5 -52t55.5 -156t-55.5 -156t-160.5 -52h-337v54zM495 59q54 0 84.5 30.5t30.5 87.5v62q0 57 -30.5 87.5t-84.5 30.5h-124v-298h124z" />
    <glyph glyph-name="uni042B" unicode="&#x42b;" horiz-adv-x="939" 
d="M49 54h73v590h-73v54h264v-54h-73v-228h130q105 0 160.5 -52t55.5 -156t-55.5 -156t-160.5 -52h-321v54zM625 54h73v590h-73v54h265v-54h-73v-590h73v-54h-265v54zM349 59q54 0 84.5 30.5t30.5 87.5v62q0 57 -30.5 87.5t-84.5 30.5h-109v-298h109z" />
    <glyph glyph-name="uni042C" unicode="&#x42c;" horiz-adv-x="637" 
d="M49 54h73v590h-73v54h264v-54h-73v-228h146q105 0 160.5 -52t55.5 -156t-55.5 -156t-160.5 -52h-337v54zM365 59q54 0 84.5 30.5t30.5 87.5v62q0 57 -30.5 87.5t-84.5 30.5h-125v-298h125z" />
    <glyph glyph-name="uni042D" unicode="&#x42d;" horiz-adv-x="663" 
d="M297 -12q-59 0 -104.5 12t-76 31.5t-46.5 44.5t-16 51q0 34 18.5 54.5t50.5 20.5q33 0 51 -20.5t18 -49.5q0 -21 -11.5 -36t-25.5 -23v-4q18 -10 49 -17.5t74 -7.5q50 0 88 16t63.5 46t38 71.5t12.5 92.5v58h-264v59h264v44q0 103 -45 161.5t-133 58.5
q-65 0 -103.5 -29.5t-38.5 -78.5v-55h-91v210h91v-60h5q22 32 61.5 52t103.5 20q61 0 113 -23.5t89.5 -69.5t58.5 -113.5t21 -154.5q0 -86 -22.5 -153.5t-64 -113.5t-99.5 -70t-129 -24z" />
    <glyph glyph-name="uni042E" unicode="&#x42e;" horiz-adv-x="1009" 
d="M660 -12q-66 0 -119.5 23t-92 67t-60.5 107.5t-25 143.5h-122v-275h73v-54h-265v54h73v590h-73v54h265v-54h-73v-258h123q4 76 27 136t61.5 102t91 64t116.5 22q68 0 123 -24.5t94 -71t60 -113.5t21 -152t-21 -152t-60 -113.5t-94 -71t-123 -24.5zM660 50q81 0 124 57
t43 160v164q0 103 -43 160t-124 57t-124 -57t-43 -160v-164q0 -103 43 -160t124 -57z" />
    <glyph glyph-name="uni042F" unicode="&#x42f;" horiz-adv-x="697" 
d="M17 54h66l111 192q20 37 41 54t49 21v5q-103 8 -148.5 53.5t-45.5 123.5q0 89 55 142t157 53h346v-54h-73v-590h73v-54h-265v54h73v262h-89l-181 -316h-169v54zM456 639h-133q-53 0 -81.5 -30t-28.5 -80v-47q0 -50 28.5 -80t81.5 -30h133v267z" />
    <glyph glyph-name="uni0430" unicode="&#x430;" horiz-adv-x="553" 
d="M197 -12q-78 0 -117.5 38.5t-39.5 105.5q0 76 54 115t176 39h72v68q0 61 -27 93t-85 32q-49 0 -74 -14v-4q11 -5 20.5 -17.5t9.5 -34.5q0 -28 -16.5 -45t-47.5 -17q-26 0 -43.5 17.5t-17.5 47.5q0 23 13.5 44.5t39.5 38.5t63.5 27t86.5 10q94 0 142 -44t48 -123v-312h68
v-45q-14 -8 -36 -14t-47 -6q-46 0 -67.5 23.5t-21.5 60.5v5h-5q-7 -17 -18 -32.5t-28.5 -28.5t-42.5 -20.5t-59 -7.5zM241 58q44 0 72.5 21t28.5 69v89h-60q-71 0 -99 -23t-28 -66v-19q0 -36 23 -53.5t63 -17.5z" />
    <glyph glyph-name="uni0431" unicode="&#x431;" horiz-adv-x="563" 
d="M285 -12q-54 0 -97.5 19.5t-75 57.5t-48.5 95.5t-17 133.5q0 70 5.5 124.5t16.5 95.5t27.5 71.5t38.5 53.5q15 15 32.5 26t40.5 18.5t53 12.5t70 10t66 8t42 6l5 40h49q5 -18 5 -47q0 -27 -6 -45.5t-21 -33.5q-9 -9 -20.5 -16t-29 -12t-43 -9t-61.5 -7t-60.5 -5.5
t-42 -6.5t-29 -10t-20.5 -16q-21 -23 -34.5 -63.5t-19.5 -112.5h5q24 61 68.5 92.5t114.5 31.5q50 0 91 -16.5t70 -48.5t45 -78t16 -105t-16.5 -108t-47.5 -83.5t-74.5 -53.5t-97.5 -19zM284 47q58 0 86.5 38.5t28.5 101.5v114q0 63 -28.5 101.5t-86.5 38.5t-86.5 -38.5
t-28.5 -101.5v-114q0 -63 28.5 -101.5t86.5 -38.5z" />
    <glyph glyph-name="uni0432" unicode="&#x432;" horiz-adv-x="576" 
d="M44 54h68v412h-68v54h302q80 0 122 -33.5t42 -92.5q0 -54 -29.5 -81.5t-77.5 -37.5v-5q52 -6 88.5 -37.5t36.5 -88.5q0 -71 -46.5 -107.5t-134.5 -36.5h-303v54zM323 58q43 0 65.5 20.5t22.5 56.5v25q0 36 -21.5 56.5t-62.5 20.5h-103v-179h99zM319 293q36 0 55.5 19
t19.5 53v25q0 34 -20.5 53t-58.5 19h-91v-169h95z" />
    <glyph glyph-name="uni0433" unicode="&#x433;" horiz-adv-x="498" 
d="M44 54h68v412h-68v54h423v-153h-77v95h-166v-408h88v-54h-268v54z" />
    <glyph glyph-name="uni0434" unicode="&#x434;" horiz-adv-x="627" 
d="M13 58h73q46 60 73 147.5t27 212.5v48h-76v54h457v-54h-68v-408h101v-208h-92v150h-401v-150h-94v208zM387 58v404h-136v-46q0 -118 -24 -209.5t-65 -148.5h225z" />
    <glyph glyph-name="uni0435" unicode="&#x435;" horiz-adv-x="547" 
d="M285 -12q-58 0 -103 19.5t-76 55.5t-47.5 86t-16.5 111q0 62 17.5 112t49 85.5t75 55t95.5 19.5q53 0 95 -17.5t71.5 -49.5t45.5 -77t16 -100v-27h-344v-32q0 -78 39 -120.5t105 -42.5q58 0 93.5 25.5t52.5 63.5l43 -26q-9 -26 -26.5 -51t-43.5 -45t-61 -32.5t-80 -12.5z
M163 314h228v11q0 72 -27.5 111.5t-84.5 39.5q-56 0 -86 -38.5t-30 -110.5v-13z" />
    <glyph glyph-name="uni0436" unicode="&#x436;" horiz-adv-x="825" 
d="M15 54h50l92 160q15 29 36 42.5t51 16.5l-46 104q-9 21 -19.5 39t-18.5 29h-4q-8 -55 -60 -55q-28 0 -46.5 19t-18.5 51q0 30 20.5 51t56.5 21q19 0 36 -6t33.5 -20.5t32.5 -39.5t33 -62l49 -112h66v174h-66v54h241v-54h-66v-174h66l49 112q16 37 32.5 62t33 39.5
t33.5 20.5t36 6q36 0 56.5 -21t20.5 -51q0 -32 -18.5 -51t-46.5 -19q-52 0 -60 55h-4q-8 -11 -18.5 -29t-19.5 -39l-46 -104q30 -3 51 -16.5t36 -42.5l92 -160h50v-54h-143l-134 238h-66v-184h66v-54h-241v54h66v184h-66l-134 -238h-143v54z" />
    <glyph glyph-name="uni0437" unicode="&#x437;" horiz-adv-x="515" 
d="M245 -12q-50 0 -87.5 10.5t-63.5 27.5t-39 40t-13 47q0 33 18 51.5t47 18.5q31 0 47 -18t16 -44q0 -20 -10 -35t-26 -23v-3q14 -9 36 -14t60 -5q63 0 92 25t29 65v20q0 38 -25.5 62.5t-78.5 24.5h-68v58h63q45 0 70.5 22.5t25.5 59.5v17q0 38 -23.5 62t-68.5 24
q-52 0 -82 -24t-30 -66v-27h-76v156h76v-47h4q18 26 49.5 42.5t88.5 16.5q88 0 133.5 -36.5t45.5 -99.5q0 -47 -29.5 -78.5t-79.5 -41.5v-4q59 -11 90.5 -43t31.5 -84q0 -36 -16.5 -65t-45.5 -49.5t-70.5 -31.5t-90.5 -11z" />
    <glyph glyph-name="uni0438" unicode="&#x438;" horiz-adv-x="669" 
d="M44 54h68v412h-68v54h243v-54h-66v-170l-8 -130h4l231 273v27h-66v54h243v-54h-68v-412h68v-54h-243v54h66v170l8 130h-4l-231 -273v-27h66v-54h-243v54z" />
    <glyph glyph-name="uni0439" unicode="&#x439;" horiz-adv-x="669" 
d="M44 54h68v412h-68v54h243v-54h-66v-170l-8 -130h4l231 273v27h-66v54h243v-54h-68v-412h68v-54h-243v54h66v170l8 130h-4l-231 -273v-27h66v-54h-243v54zM335 591q-44 0 -76.5 9.5t-54 26t-32 38t-10.5 44.5q0 30 16.5 46.5t44.5 16.5t43.5 -16.5t15.5 -42.5
q0 -22 -11.5 -36.5t-28.5 -20.5v-3q15 -7 39.5 -10.5t53.5 -3.5t53.5 3.5t39.5 10.5v3q-17 6 -28.5 20.5t-11.5 36.5q0 26 15.5 42.5t43.5 16.5t44.5 -16.5t16.5 -46.5q0 -23 -10.5 -44.5t-32 -38t-54 -26t-76.5 -9.5z" />
    <glyph glyph-name="uni043A" unicode="&#x43a;" horiz-adv-x="595" 
d="M44 54h68v412h-68v54h246v-54h-66v-174h73l50 111q32 71 65 100t75 29q35 0 56 -20.5t21 -52.5t-18.5 -52t-46.5 -20q-27 0 -43 15.5t-20 42.5h-4q-9 -12 -19 -29t-20 -39l-46 -104q32 -3 53.5 -17.5t37.5 -44.5l92 -157h50v-54h-147l-136 238h-73v-184h66v-54h-246v54z
" />
    <glyph glyph-name="uni043B" unicode="&#x43b;" horiz-adv-x="625" 
d="M97 -12q-48 0 -73 25.5t-25 61.5q0 31 17 49.5t47 18.5q27 0 42.5 -15.5t15.5 -40.5q0 -17 -7.5 -29t-18.5 -17v-4q3 -1 6.5 -1h6.5q20 0 35 15q11 11 20.5 30t17 56.5t11.5 98t4 155.5v75h-76v54h461v-54h-68v-412h68v-54h-248v54h68v408h-140v-67q0 -96 -4.5 -160
t-13 -106t-21.5 -66.5t-30 -41.5t-41.5 -25t-53.5 -8z" />
    <glyph glyph-name="uni043C" unicode="&#x43c;" horiz-adv-x="745" 
d="M44 54h68v412h-68v54h199l128 -258h4l128 258h198v-54h-68v-412h68v-54h-248v54h68v367h-4l-34 -77l-134 -269l-134 269l-34 77h-4v-367h66v-54h-199v54z" />
    <glyph glyph-name="uni043D" unicode="&#x43d;" horiz-adv-x="667" 
d="M44 54h68v412h-68v54h246v-54h-66v-172h219v172h-66v54h246v-54h-68v-412h68v-54h-246v54h66v182h-219v-182h66v-54h-246v54z" />
    <glyph glyph-name="uni043E" unicode="&#x43e;" horiz-adv-x="572" 
d="M286 47q63 0 92.5 39t29.5 104v140q0 65 -29.5 104t-92.5 39t-92.5 -39t-29.5 -104v-140q0 -65 29.5 -104t92.5 -39zM286 -12q-55 0 -100 19t-77 54t-49.5 85.5t-17.5 113.5t17.5 113.5t49.5 85.5t77 54t100 19t100 -19t77 -54t49.5 -85.5t17.5 -113.5t-17.5 -113.5
t-49.5 -85.5t-77 -54t-100 -19z" />
    <glyph glyph-name="uni043F" unicode="&#x43f;" horiz-adv-x="667" 
d="M44 54h68v412h-68v54h579v-54h-68v-412h68v-54h-246v54h66v408h-219v-408h66v-54h-246v54z" />
    <glyph glyph-name="uni0440" unicode="&#x440;" horiz-adv-x="622" 
d="M34 -146h68v586l-68 13v44l180 35v-90h5q16 36 52 63t94 27q48 0 87 -18.5t66 -53.5t42 -85.5t15 -114.5t-15 -114.5t-42 -85.5t-66 -53.5t-87 -18.5q-59 0 -94.5 27t-51.5 63h-5v-224h88v-54h-268v54zM330 60q57 0 91 39t34 108v106q0 69 -34 108t-91 39
q-23 0 -43.5 -6.5t-37 -19.5t-26 -31t-9.5 -41v-204q0 -23 9.5 -41t26 -31t37 -19.5t43.5 -6.5z" />
    <glyph glyph-name="uni0441" unicode="&#x441;" horiz-adv-x="524" 
d="M286 -12q-59 0 -104.5 20t-76.5 56t-47 86t-16 110q0 64 19 114.5t53 85.5t80.5 53.5t101.5 18.5q86 0 134.5 -36t48.5 -92q0 -35 -19 -54.5t-51 -19.5q-33 0 -50 18.5t-17 46.5q0 23 12 40t31 25v5q-12 5 -30 9.5t-45 4.5q-33 0 -60 -12t-46 -33.5t-29.5 -51.5
t-10.5 -67v-87q0 -75 37 -118.5t101 -43.5q60 0 93.5 26t51.5 64l43 -26q-9 -26 -26 -51t-42 -45.5t-59 -33t-77 -12.5z" />
    <glyph glyph-name="uni0442" unicode="&#x442;" horiz-adv-x="554" 
d="M141 54h80v408h-114v-95h-76v153h492v-153h-76v95h-114v-408h80v-54h-272v54z" />
    <glyph glyph-name="uni0443" unicode="&#x443;" horiz-adv-x="550" 
d="M123 -212q-54 0 -81.5 25t-27.5 62q0 31 16.5 48.5t46.5 17.5q28 0 43.5 -17t15.5 -43q0 -15 -6.5 -26.5t-14.5 -16.5v-4q5 -2 9.5 -2h11.5q54 0 93 101l16 44l-190 489h-50v54h237v-54h-67l124 -347h5l123 347h-66v54h183v-54h-50l-209 -538q-11 -27 -25.5 -52.5
t-34 -45t-44.5 -31t-58 -11.5z" />
    <glyph glyph-name="uni0444" unicode="&#x444;" horiz-adv-x="794" 
d="M273 -146h68v195h-5q-34 -61 -108 -61q-80 0 -129.5 68.5t-49.5 203.5t49.5 203.5t129.5 68.5q74 0 108 -60h5v181l-68 13v44l180 35v-273h5q34 60 108 60q40 0 73 -17t56.5 -51.5t36.5 -85.5t13 -118q0 -68 -13 -118.5t-36.5 -85t-56.5 -51.5t-73 -17q-74 0 -108 61h-5
v-195h68v-54h-248v54zM260 49q37 0 60 20.5t23 62.5v257q0 42 -23 62.5t-60 20.5q-44 0 -70 -35.5t-26 -107.5v-137q0 -72 26 -107.5t70 -35.5zM534 49q44 0 70 35.5t26 107.5v137q0 72 -26 107.5t-70 35.5q-37 0 -60 -20.5t-23 -62.5v-257q0 -42 23 -62.5t60 -20.5z" />
    <glyph glyph-name="uni0445" unicode="&#x445;" horiz-adv-x="574" 
d="M25 54h56l146 197l-150 215h-49v54h242v-54h-60l102 -151h4l102 151h-60v54h189v-54h-56l-142 -196l152 -216h49v-54h-243v54h60l-104 152h-5l-104 -152h60v-54h-189v54z" />
    <glyph glyph-name="uni0446" unicode="&#x446;" horiz-adv-x="676" 
d="M555 0h-511v54h68v412h-68v54h244v-54h-64v-408h212v408h-64v54h244v-54h-68v-408h101v-208h-94v150z" />
    <glyph glyph-name="uni0447" unicode="&#x447;" horiz-adv-x="635" 
d="M323 54h88v194h-4q-25 -34 -61 -52.5t-90 -18.5q-81 0 -120 39.5t-39 124.5v125h-68v54h242v-54h-62v-118q0 -54 21.5 -76.5t72.5 -22.5q48 0 78 20t30 55v142h-62v54h242v-54h-68v-412h68v-54h-268v54z" />
    <glyph glyph-name="uni0448" unicode="&#x448;" horiz-adv-x="888" 
d="M44 54h68v412h-68v54h235v-54h-55v-408h164v408h-55v54h222v-54h-55v-408h164v408h-55v54h235v-54h-68v-412h68v-54h-800v54z" />
    <glyph glyph-name="uni0449" unicode="&#x449;" horiz-adv-x="904" 
d="M784 0h-740v54h68v412h-68v54h235v-54h-55v-408h164v408h-55v54h222v-54h-55v-408h164v408h-55v54h235v-54h-68v-408h101v-208h-93v150z" />
    <glyph glyph-name="uni044A" unicode="&#x44a;" horiz-adv-x="659" 
d="M145 54h68v408h-106v-95h-76v153h362v-54h-68v-138h124q84 0 130.5 -42.5t46.5 -121.5t-46.5 -121.5t-130.5 -42.5h-304v54zM417 58q46 0 68.5 22.5t22.5 64.5v38q0 42 -22.5 64.5t-68.5 22.5h-92v-212h92z" />
    <glyph glyph-name="uni044B" unicode="&#x44b;" horiz-adv-x="826" 
d="M44 54h68v408h-68v58h248v-54h-68v-138h109q84 0 130.5 -42.5t46.5 -121.5t-46.5 -121.5t-130.5 -42.5h-289v54zM534 54h68v412h-68v54h248v-54h-68v-412h68v-54h-248v54zM301 58q46 0 68.5 22.5t22.5 64.5v38q0 42 -22.5 64.5t-68.5 22.5h-77v-212h77z" />
    <glyph glyph-name="uni044C" unicode="&#x44c;" horiz-adv-x="557" 
d="M44 54h68v408h-68v58h248v-54h-68v-138h123q84 0 130.5 -42.5t46.5 -121.5t-46.5 -121.5t-130.5 -42.5h-303v54zM315 58q46 0 68.5 22.5t22.5 64.5v38q0 42 -22.5 64.5t-68.5 22.5h-91v-212h91z" />
    <glyph glyph-name="uni044D" unicode="&#x44d;" horiz-adv-x="537" 
d="M239 -12q-47 0 -83.5 10.5t-61.5 27.5t-38.5 40t-13.5 47q0 33 18 51.5t47 18.5q31 0 47 -18t16 -44q0 -20 -10 -35t-26 -23v-3q16 -10 38.5 -14.5t48.5 -4.5q72 0 112.5 44.5t40.5 127.5v25h-188v58h188v16q0 83 -32 126t-95 43q-53 0 -83 -24t-30 -66v-27h-76v156h76
v-47h4q18 26 49 42.5t82 16.5q52 0 94 -18.5t71 -52.5t45 -83.5t16 -110.5q0 -67 -19 -119t-52.5 -87.5t-80.5 -54t-104 -18.5z" />
    <glyph glyph-name="uni044E" unicode="&#x44e;" horiz-adv-x="842" 
d="M569 -12q-49 0 -90 17t-71 49t-48 78t-21 104h-115v-182h66v-54h-246v54h68v412h-68v54h246v-54h-66v-172h115q4 55 22.5 99.5t48.5 75t70.5 47t88.5 16.5q52 0 94.5 -19t73 -54t47 -85.5t16.5 -113.5t-16.5 -113.5t-47 -85.5t-73 -54t-94.5 -19zM569 47q56 0 82.5 38.5
t26.5 102.5v144q0 64 -26.5 102.5t-82.5 38.5t-82.5 -38.5t-26.5 -102.5v-144q0 -64 26.5 -102.5t82.5 -38.5z" />
    <glyph glyph-name="uni044F" unicode="&#x44f;" horiz-adv-x="592" 
d="M19 54h50l66 112q18 31 37.5 46t48.5 18v4q-72 6 -113 40.5t-41 91.5q0 32 11 60t33 49t54.5 33t76.5 12h306v-54h-68v-412h68v-54h-246v54h66v165h-77l-125 -219h-147v54zM368 271v191h-96q-47 0 -67.5 -23t-20.5 -60v-25q0 -83 88 -83h96z" />
    <glyph glyph-name="uni0450" unicode="&#x450;" horiz-adv-x="547" 
d="M285 -12q-58 0 -103 19.5t-76 55.5t-47.5 86t-16.5 111q0 62 17.5 112t49 85.5t75 55t95.5 19.5q53 0 95 -17.5t71.5 -49.5t45.5 -77t16 -100v-27h-344v-32q0 -78 39 -120.5t105 -42.5q58 0 93.5 25.5t52.5 63.5l43 -26q-9 -26 -26.5 -51t-43.5 -45t-61 -32.5t-80 -12.5z
M163 314h228v11q0 72 -27.5 111.5t-84.5 39.5q-56 0 -86 -38.5t-30 -110.5v-13zM145 744l100 48l74 -191l-36 -17z" />
    <glyph glyph-name="uni0451" unicode="&#x451;" horiz-adv-x="547" 
d="M285 -12q-58 0 -103 19.5t-76 55.5t-47.5 86t-16.5 111q0 62 17.5 112t49 85.5t75 55t95.5 19.5q53 0 95 -17.5t71.5 -49.5t45.5 -77t16 -100v-27h-344v-32q0 -78 39 -120.5t105 -42.5q58 0 93.5 25.5t52.5 63.5l43 -26q-9 -26 -26.5 -51t-43.5 -45t-61 -32.5t-80 -12.5z
M163 314h228v11q0 72 -27.5 111.5t-84.5 39.5q-56 0 -86 -38.5t-30 -110.5v-13zM180 610q-29 0 -45 17t-16 42v4q0 25 16 42t45 17t45 -17t16 -42v-4q0 -25 -16 -42t-45 -17zM378 610q-29 0 -45 17t-16 42v4q0 25 16 42t45 17t45 -17t16 -42v-4q0 -25 -16 -42t-45 -17z" />
    <glyph glyph-name="uni0452" unicode="&#x452;" horiz-adv-x="630" 
d="M360 -212q-54 0 -80.5 22.5t-26.5 60.5q0 25 15.5 42t41.5 17t39.5 -15t13.5 -38q0 -15 -6 -27t-15 -17v-3q5 -2 10.5 -2h11.5q29 0 44.5 22t15.5 67v415q0 65 -25 95t-79 30q-20 0 -39.5 -5.5t-35 -17t-25 -28.5t-9.5 -41v-311h66v-54h-246v54h68v555h-82v56h82v73
l112 22v-95h174v-56h-174v-170h5q6 17 18.5 34t30.5 30t42 21t54 8q95 0 135 -48.5t40 -145.5v-367q0 -94 -45.5 -138.5t-130.5 -44.5z" />
    <glyph glyph-name="uni0453" unicode="&#x453;" horiz-adv-x="498" 
d="M44 54h68v412h-68v54h423v-153h-77v95h-166v-408h88v-54h-268v54zM233 601l74 191l100 -48l-138 -160z" />
    <glyph glyph-name="uni0454" unicode="&#x454;" horiz-adv-x="537" 
d="M294 -12q-59 0 -105.5 18.5t-79 53.5t-50 85.5t-17.5 114.5q0 63 17.5 113.5t49 86t74.5 54t94 18.5q48 0 78 -16.5t44 -42.5h4v47h76v-156h-76v27q0 42 -29 66t-79 24q-61 0 -96.5 -43.5t-35.5 -126.5v-15h188v-58h-188v-26q0 -80 38.5 -125.5t111.5 -45.5
q31 0 53.5 5.5t36.5 13.5v3q-16 8 -26 23t-10 35q0 26 16 44t47 18q29 0 47 -18.5t18 -51.5q0 -24 -13.5 -47t-39 -40t-63 -27.5t-85.5 -10.5z" />
    <glyph glyph-name="uni0455" unicode="&#x455;" horiz-adv-x="497" 
d="M257 -12q-51 0 -83 20t-42 44h-4v-52h-76v155h76v-18q0 -42 26 -66t84 -24q108 0 108 76q0 59 -78 78l-54 13q-80 19 -119 58t-39 107q0 73 49 113t130 40q50 0 80 -17t39 -41h4v46h76v-155h-76v29q0 79 -107 79q-46 0 -70.5 -17.5t-24.5 -52.5q0 -62 80 -82l51 -12
q81 -18 121 -54.5t40 -107.5q0 -72 -51.5 -115.5t-139.5 -43.5z" />
    <glyph glyph-name="uni0456" unicode="&#x456;" horiz-adv-x="323" 
d="M168 617q-32 0 -50 18.5t-18 47.5v6q0 29 18 47.5t50 18.5t50 -18.5t18 -47.5v-6q0 -29 -18 -47.5t-50 -18.5zM44 54h68v386l-68 13v44l180 35v-478h68v-54h-248v54z" />
    <glyph glyph-name="uni0457" unicode="&#x457;" horiz-adv-x="323" 
d="M44 54h68v386l-68 13v44l180 35v-478h68v-54h-248v54zM70 610q-29 0 -45 17t-16 42v4q0 25 16 42t45 17t45 -17t16 -42v-4q0 -25 -16 -42t-45 -17zM268 610q-29 0 -45 17t-16 42v4q0 25 16 42t45 17t45 -17t16 -42v-4q0 -25 -16 -42t-45 -17z" />
    <glyph glyph-name="uni0458" unicode="&#x458;" horiz-adv-x="311" 
d="M44 -212q-54 0 -80.5 22.5t-26.5 60.5q0 25 15.5 42t41.5 17t39.5 -15t13.5 -38q0 -15 -6 -27t-15 -17v-3q5 -2 10.5 -2h11.5q29 0 44.5 22t15.5 67v523l-68 13v44l180 35v-561q0 -94 -45.5 -138.5t-130.5 -44.5zM164 617q-32 0 -50 18.5t-18 47.5v6q0 29 18 47.5
t50 18.5t50 -18.5t18 -47.5v-6q0 -29 -18 -47.5t-50 -18.5z" />
    <glyph glyph-name="uni0459" unicode="&#x459;" horiz-adv-x="835" 
d="M97 -12q-48 0 -73 25.5t-25 61.5q0 31 17 49.5t47 18.5q27 0 42.5 -15.5t15.5 -40.5q0 -17 -7.5 -29t-18.5 -17v-4q3 -1 6.5 -1h6.5q20 0 35 15q11 11 20.5 30t17 56.5t11.5 98t4 155.5v75h-76v54h450v-54h-68v-138h123q84 0 130.5 -42.5t46.5 -121.5t-46.5 -121.5
t-130.5 -42.5h-301v54h66v408h-129v-67q0 -96 -4.5 -160t-13 -106t-21.5 -66.5t-30 -41.5t-41.5 -25t-53.5 -8zM593 58q46 0 68.5 22.5t22.5 64.5v38q0 42 -22.5 64.5t-68.5 22.5h-91v-212h91z" />
    <glyph glyph-name="uni045A" unicode="&#x45a;" horiz-adv-x="863" 
d="M44 54h68v412h-68v54h244v-54h-64v-172h209v172h-64v54h244v-54h-68v-138h108q84 0 130.5 -42.5t46.5 -121.5t-46.5 -121.5t-130.5 -42.5h-284v54h64v182h-209v-182h64v-54h-244v54zM621 58q46 0 68.5 22.5t22.5 64.5v38q0 42 -22.5 64.5t-68.5 22.5h-76v-212h76z" />
    <glyph glyph-name="uni045B" unicode="&#x45b;" horiz-adv-x="635" 
d="M31 54h68v555h-82v56h82v73l112 22v-95h174v-56h-174v-170h5q6 17 18.5 34t30.5 30t42 21t54 8q95 0 135 -48.5t40 -145.5v-284h68v-54h-246v54h66v278q0 65 -25 95t-79 30q-20 0 -39.5 -5.5t-35 -17t-25 -28.5t-9.5 -41v-311h66v-54h-246v54z" />
    <glyph glyph-name="uni045C" unicode="&#x45c;" horiz-adv-x="595" 
d="M44 54h68v412h-68v54h246v-54h-66v-174h73l50 111q32 71 65 100t75 29q35 0 56 -20.5t21 -52.5t-18.5 -52t-46.5 -20q-27 0 -43 15.5t-20 42.5h-4q-9 -12 -19 -29t-20 -39l-46 -104q32 -3 53.5 -17.5t37.5 -44.5l92 -157h50v-54h-147l-136 238h-73v-184h66v-54h-246v54z
M301 601l74 191l100 -48l-138 -160z" />
    <glyph glyph-name="uni045D" unicode="&#x45d;" horiz-adv-x="669" 
d="M44 54h68v412h-68v54h243v-54h-66v-170l-8 -130h4l231 273v27h-66v54h243v-54h-68v-412h68v-54h-243v54h66v170l8 130h-4l-231 -273v-27h66v-54h-243v54zM201 744l100 48l74 -191l-36 -17z" />
    <glyph glyph-name="uni045E" unicode="&#x45e;" horiz-adv-x="550" 
d="M123 -212q-54 0 -81.5 25t-27.5 62q0 31 16.5 48.5t46.5 17.5q28 0 43.5 -17t15.5 -43q0 -15 -6.5 -26.5t-14.5 -16.5v-4q5 -2 9.5 -2h11.5q54 0 93 101l16 44l-190 489h-50v54h237v-54h-67l124 -347h5l123 347h-66v54h183v-54h-50l-209 -538q-11 -27 -25.5 -52.5
t-34 -45t-44.5 -31t-58 -11.5zM300 591q-44 0 -76.5 9.5t-54 26t-32 38t-10.5 44.5q0 30 16.5 46.5t44.5 16.5t43.5 -16.5t15.5 -42.5q0 -22 -11.5 -36.5t-28.5 -20.5v-3q15 -7 39.5 -10.5t53.5 -3.5t53.5 3.5t39.5 10.5v3q-17 6 -28.5 20.5t-11.5 36.5q0 26 15.5 42.5
t43.5 16.5t44.5 -16.5t16.5 -46.5q0 -23 -10.5 -44.5t-32 -38t-54 -26t-76.5 -9.5z" />
    <glyph glyph-name="uni045F" unicode="&#x45f;" horiz-adv-x="660" 
d="M284 0h-240v54h68v412h-68v54h244v-54h-64v-408h212v408h-64v54h244v-54h-68v-412h68v-54h-239v-150h-93v150z" />
    <glyph glyph-name="uni0472" unicode="&#x472;" horiz-adv-x="736" 
d="M368 50q86 0 136 57.5t50 160.5v59h-372v-59q0 -103 50 -160.5t136 -57.5zM554 385v45q0 103 -50 160.5t-136 57.5t-136 -57.5t-50 -160.5v-45h372zM368 -12q-70 0 -128 24.5t-100 71t-65.5 113.5t-23.5 152t23.5 152t65.5 113.5t100 71t128 24.5t128 -24.5t100 -71
t65.5 -113.5t23.5 -152t-23.5 -152t-65.5 -113.5t-100 -71t-128 -24.5z" />
    <glyph glyph-name="uni0473" unicode="&#x473;" horiz-adv-x="572" 
d="M286 47q65 0 96 39t31 104v44h-254v-44q0 -65 31 -104t96 -39zM413 290v40q0 65 -31 104t-96 39t-96 -39t-31 -104v-40h254zM286 -12q-55 0 -100 19t-77 54t-49.5 85.5t-17.5 113.5t17.5 113.5t49.5 85.5t77 54t100 19t100 -19t77 -54t49.5 -85.5t17.5 -113.5
t-17.5 -113.5t-49.5 -85.5t-77 -54t-100 -19z" />
    <glyph glyph-name="uni0490" unicode="&#x490;" horiz-adv-x="579" 
d="M49 54h73v590h-73v54h399v160h99v-219h-306v-585h95v-54h-287v54z" />
    <glyph glyph-name="uni0491" unicode="&#x491;" horiz-adv-x="498" 
d="M44 54h68v412h-68v54h330v149h93v-207h-243v-408h88v-54h-268v54z" />
    <glyph glyph-name="uni0492" unicode="&#x492;" horiz-adv-x="579" 
d="M49 54h73v272h-86v57h86v261h-73v54h498v-176h-91v117h-215v-256h167v-57h-167v-272h93v-54h-285v54z" />
    <glyph glyph-name="uni0493" unicode="&#x493;" horiz-adv-x="498" 
d="M44 54h68v179h-78v54h78v179h-68v54h423v-153h-77v95h-166v-175h128v-54h-128v-179h88v-54h-268v54z" />
    <glyph glyph-name="uni0494" unicode="&#x494;" horiz-adv-x="674" 
d="M357 -105h101q9 8 17 18t14 24t9.5 33t3.5 46v156q0 45 -6.5 76.5t-21.5 50.5t-40.5 27.5t-62.5 8.5q-42 0 -73 -9t-57 -26v-246h73v-54h-265v54h73v590h-73v54h498v-176h-91v117h-215v-283h5q34 19 72 27.5t88 8.5q59 0 100 -13t66.5 -39.5t37 -67t11.5 -96.5v-165
q0 -48 -14.5 -81t-39 -54t-55.5 -30.5t-64 -9.5h-91v59z" />
    <glyph glyph-name="uni0495" unicode="&#x495;" horiz-adv-x="573" 
d="M286 -142h93q9 9 17 19t13.5 24.5t9 34t3.5 47.5v140q0 54 -20.5 76.5t-71.5 22.5q-48 0 -77 -19.5t-29 -55.5v-93h79v-54h-259v54h68v412h-68v54h423v-153h-77v95h-166v-239h4q25 34 60 52.5t89 18.5q82 0 119.5 -39.5t37.5 -124.5v-153q0 -48 -14 -81.5t-37 -54.5
t-52.5 -31t-61.5 -10h-83v58z" />
    <glyph glyph-name="uni0496" unicode="&#x496;" horiz-adv-x="1035" 
d="M932 0h-90l-182 328h-90v-274h73v-54h-262v54h73v274h-90l-182 -328h-169v54h66l134 239q20 39 41 54.5t50 19.5l-67 158q-26 64 -49 93h-4q-2 -26 -19 -43t-46 -17q-32 0 -50 21t-18 54q0 31 21 54t60 23q51 0 88.5 -36t72.5 -122l71 -167h90v259h-73v54h262v-54h-73
v-259h90l71 167q35 86 72.5 122t88.5 36q39 0 60 -23t21 -54q0 -33 -18 -54t-50 -21q-29 0 -46 17t-19 43h-4q-23 -29 -49 -93l-67 -158q29 -4 50 -19.5t41 -54.5l131 -234h89v-219h-99v160z" />
    <glyph glyph-name="uni0497" unicode="&#x497;" horiz-adv-x="850" 
d="M753 0h-86l-134 238h-66v-184h66v-54h-241v54h66v184h-66l-134 -238h-143v54h50l92 160q15 29 36 42.5t51 16.5l-46 104q-9 21 -19.5 39t-18.5 29h-4q-8 -55 -60 -55q-28 0 -46.5 19t-18.5 51q0 30 20.5 51t56.5 21q19 0 36 -6t33.5 -20.5t32.5 -39.5t33 -62l49 -112h66
v174h-66v54h241v-54h-66v-174h66l49 112q16 37 32.5 62t33 39.5t33.5 20.5t36 6q36 0 56.5 -21t20.5 -51q0 -32 -18.5 -51t-46.5 -19q-52 0 -60 55h-4q-8 -11 -18.5 -29t-19.5 -39l-46 -104q30 -3 51 -16.5t36 -42.5l90 -156h88v-208h-93v150z" />
    <glyph glyph-name="uni0498" unicode="&#x498;" horiz-adv-x="624" 
d="M258 -10q-50 4 -87.5 17t-63 32t-38.5 42t-13 46q0 34 18.5 54.5t50.5 20.5q33 0 51 -20.5t18 -49.5q0 -21 -11.5 -36t-25.5 -23v-4q18 -9 48 -16.5t70 -7.5q84 0 126.5 36t42.5 94v34q0 56 -34 87.5t-97 31.5h-103v59h97q52 0 86 30.5t34 82.5v36q0 53 -31.5 83.5
t-94.5 30.5t-101 -29t-38 -78v-55h-91v210h91v-60h5q23 33 63.5 52.5t106.5 19.5q50 0 89.5 -13.5t67.5 -37.5t42.5 -56.5t14.5 -70.5q0 -34 -11 -62t-30 -49t-45.5 -35t-56.5 -20v-5q33 -5 62 -17.5t51 -33t34.5 -50t12.5 -68.5q0 -81 -57 -134t-155 -66v-152h-98v150z" />
    <glyph glyph-name="uni0499" unicode="&#x499;" horiz-adv-x="515" 
d="M213 -11q-83 7 -127 43t-44 81q0 33 18 51.5t47 18.5q31 0 47 -18t16 -44q0 -20 -10 -35t-26 -23v-3q14 -9 36 -14t60 -5q63 0 92 25t29 65v20q0 38 -25.5 62.5t-78.5 24.5h-68v58h63q45 0 70.5 22.5t25.5 59.5v17q0 38 -23.5 62t-68.5 24q-52 0 -82 -24t-30 -66v-27h-76
v156h76v-47h4q18 26 49.5 42.5t88.5 16.5q88 0 133.5 -36.5t45.5 -99.5q0 -47 -29.5 -78.5t-79.5 -41.5v-4q59 -11 90.5 -43t31.5 -84q0 -60 -44 -100t-118 -52v-143h-93v139z" />
    <glyph glyph-name="uni049A" unicode="&#x49a;" horiz-adv-x="724" 
d="M621 0h-92l-192 328h-96v-274h73v-54h-265v54h73v590h-73v54h265v-54h-73v-259h95l85 176q21 43 39.5 71.5t37.5 45.5t39.5 24.5t43.5 7.5q39 0 60 -23t21 -54q0 -33 -18 -54t-50 -21q-29 0 -46 17t-19 43h-3q-11 -15 -24.5 -38t-24.5 -48l-81 -165q32 -4 53.5 -19.5
t41.5 -52.5l140 -236h89v-219h-99v160z" />
    <glyph glyph-name="uni049B" unicode="&#x49b;" horiz-adv-x="620" 
d="M523 0h-90l-136 238h-73v-184h66v-54h-246v54h68v412h-68v54h246v-54h-66v-174h73l50 111q32 71 65 100t75 29q35 0 56 -20.5t21 -52.5t-18.5 -52t-46.5 -20q-27 0 -43 15.5t-20 42.5h-4q-9 -12 -19 -29t-20 -39l-46 -104q32 -3 53.5 -17.5t37.5 -44.5l90 -153h88v-208
h-93v150z" />
    <glyph glyph-name="uni049C" unicode="&#x49c;" horiz-adv-x="732" 
d="M280 328h-39v-274h73v-54h-265v54h73v590h-73v54h265v-54h-73v-259h39v153h61v-153h28l75 176q18 43 36.5 71.5t38 46t40 24.5t43.5 7q39 0 60 -23t21 -54q0 -33 -18 -54t-50 -21q-29 0 -46 17t-19 43h-3q-11 -15 -23.5 -37.5t-23.5 -48.5l-70 -165q30 -4 49 -20t39 -52
l135 -241h66v-54h-171l-183 328h-24v-151h-61v151z" />
    <glyph glyph-name="uni049D" unicode="&#x49d;" horiz-adv-x="628" 
d="M44 54h68v412h-68v54h246v-54h-66v-174h34v106h56v-106h25l44 111q29 73 62 101t75 28q35 0 56 -20.5t21 -52.5t-18.5 -52t-46.5 -20q-27 0 -43 15.5t-20 42.5h-4q-9 -12 -18.5 -28.5t-17.5 -39.5l-40 -104q32 -3 51.5 -18t36.5 -44l86 -157h50v-54h-147l-127 238h-25
v-103h-56v103h-34v-184h66v-54h-246v54z" />
    <glyph glyph-name="uni04A0" unicode="&#x4a0;" horiz-adv-x="843" 
d="M179 54h73v585h-129v-117h-91v176h412v-54h-73v-259h95l85 176q21 43 39.5 71.5t37.5 45.5t39.5 24.5t43.5 7.5q39 0 60 -23t21 -54q0 -33 -18 -54t-50 -21q-29 0 -46 17t-19 43h-3q-11 -15 -24.5 -38t-24.5 -48l-81 -165q32 -4 53.5 -19.5t41.5 -52.5l143 -241h66v-54
h-171l-192 328h-96v-274h73v-54h-265v54z" />
    <glyph glyph-name="uni04A1" unicode="&#x4a1;" horiz-adv-x="696" 
d="M145 54h68v408h-106v-95h-76v153h360v-54h-66v-174h73l50 111q32 71 65 100t75 29q35 0 56 -20.5t21 -52.5t-18.5 -52t-46.5 -20q-27 0 -43 15.5t-20 42.5h-4q-9 -12 -19 -29t-20 -39l-46 -104q32 -3 53.5 -17.5t37.5 -44.5l92 -157h50v-54h-147l-136 238h-73v-184h64
v-54h-244v54z" />
    <glyph glyph-name="uni04A2" unicode="&#x4a2;" horiz-adv-x="814" 
d="M684 0h-199v54h73v274h-317v-274h73v-54h-265v54h73v590h-73v54h265v-54h-73v-257h317v257h-73v54h265v-54h-73v-585h105v-219h-98v160z" />
    <glyph glyph-name="uni04A3" unicode="&#x4a3;" horiz-adv-x="683" 
d="M563 0h-186v54h66v182h-219v-182h66v-54h-246v54h68v412h-68v54h246v-54h-66v-172h219v172h-66v54h246v-54h-68v-408h101v-208h-93v150z" />
    <glyph glyph-name="uni04A4" unicode="&#x4a4;" horiz-adv-x="986" 
d="M49 54h73v590h-73v54h265v-54h-73v-257h293v257h-73v54h493v-176h-91v117h-210v-585h73v-54h-265v54h73v274h-293v-274h73v-54h-265v54z" />
    <glyph glyph-name="uni04A5" unicode="&#x4a5;" horiz-adv-x="812" 
d="M44 54h68v412h-68v54h244v-54h-64v-172h209v172h-64v54h412v-153h-77v95h-159v-408h68v-54h-244v54h64v182h-209v-182h64v-54h-244v54z" />
    <glyph glyph-name="uni04AA" unicode="&#x4aa;" horiz-adv-x="656" 
d="M311 -10q-61 7 -109 36.5t-81.5 76.5t-51.5 109.5t-18 136.5q0 87 22.5 154.5t61.5 113.5t92.5 69.5t115.5 23.5q65 0 104.5 -22t53.5 -51h5v61h91v-212h-91v49q0 51 -39.5 81.5t-107.5 30.5q-45 0 -78.5 -15.5t-55 -44t-32.5 -68t-11 -86.5v-156q0 -103 51.5 -158
t140.5 -55q68 0 114.5 35.5t68.5 92.5l47 -25q-9 -28 -26 -55.5t-41.5 -51t-56.5 -41t-71 -25.5v-154h-98v150z" />
    <glyph glyph-name="uni04AB" unicode="&#x4ab;" horiz-adv-x="524" 
d="M237 -8q-95 16 -145 88.5t-50 179.5q0 64 19 114.5t53 85.5t80.5 53.5t101.5 18.5q86 0 134.5 -36t48.5 -92q0 -35 -19 -54.5t-51 -19.5q-33 0 -50 18.5t-17 46.5q0 23 12 40t31 25v5q-12 5 -30 9.5t-45 4.5q-33 0 -60 -12t-46 -33.5t-29.5 -51.5t-10.5 -67v-87
q0 -75 37 -118.5t101 -43.5q60 0 93.5 26t51.5 64l43 -26q-8 -22 -22 -44t-33.5 -41t-45.5 -33t-59 -20v-142h-93v142z" />
    <glyph glyph-name="uni04AE" unicode="&#x4ae;" horiz-adv-x="655" 
d="M180 54h88v226l-195 364h-52v54h263v-54h-81l151 -290h5l151 290h-81v54h205v-54h-52l-195 -352v-238h88v-54h-295v54z" />
    <glyph glyph-name="uni04AF" unicode="&#x4af;" horiz-adv-x="549" 
d="M151 -146h68v146l-164 466h-50v54h237v-54h-66l124 -383h5l122 383h-66v54h183v-54h-50l-163 -466v-146h68v-54h-248v54z" />
    <glyph glyph-name="uni04B0" unicode="&#x4b0;" horiz-adv-x="655" 
d="M180 54h88v176h-141v59h137l-191 355h-52v54h263v-54h-81l152 -292h3l152 292h-81v54h205v-54h-52l-196 -355h142v-59h-141v-176h88v-54h-295v54z" />
    <glyph glyph-name="uni04B1" unicode="&#x4b1;" horiz-adv-x="549" 
d="M151 -146h68v92h-114v54h114l-164 466h-50v54h237v-54h-66l124 -383h5l122 383h-66v54h183v-54h-50l-163 -466h114v-54h-114v-92h68v-54h-248v54z" />
    <glyph glyph-name="uni04B2" unicode="&#x4b2;" horiz-adv-x="701" 
d="M598 0h-191v54h70l-150 232h-5l-160 -232h65v-54h-206v54h62l207 283l-202 307h-58v54h266v-54h-70l142 -221h5l150 221h-65v54h206v-54h-62l-197 -272l207 -313h85v-219h-99v160z" />
    <glyph glyph-name="uni04B3" unicode="&#x4b3;" horiz-adv-x="587" 
d="M488 0h-181v54h60l-104 152h-5l-104 -152h60v-54h-189v54h56l146 197l-150 215h-49v54h242v-54h-60l102 -151h4l102 151h-60v54h189v-54h-56l-142 -196l149 -212h83v-208h-93v150z" />
    <glyph glyph-name="uni04B6" unicode="&#x4b6;" horiz-adv-x="751" 
d="M620 0h-219v54h93v245h-5q-34 -18 -70.5 -27t-89.5 -9q-119 0 -171 51.5t-52 164.5v165h-73v54h262v-54h-70v-161q0 -46 7 -77t23.5 -50t42 -27.5t63.5 -8.5q44 0 77 9.5t56 26.5v288h-70v54h262v-54h-73v-585h106v-219h-99v160z" />
    <glyph glyph-name="uni04B7" unicode="&#x4b7;" horiz-adv-x="652" 
d="M533 0h-210v54h88v194h-4q-25 -34 -61 -52.5t-90 -18.5q-81 0 -120 39.5t-39 124.5v125h-68v54h242v-54h-62v-118q0 -54 21.5 -76.5t72.5 -22.5q48 0 78 20t30 55v142h-62v54h242v-54h-68v-408h102v-208h-92v150z" />
    <glyph glyph-name="uni04B8" unicode="&#x4b8;" horiz-adv-x="735" 
d="M331 263q-120 0 -172.5 51.5t-52.5 164.5v165h-73v54h262v-54h-70v-161q0 -82 24 -118.5t82 -43.5v165h61v-165q64 6 102 35v288h-70v54h262v-54h-73v-590h73v-54h-285v54h93v245h-5q-23 -12 -46 -20t-51 -12v-141h-61v137z" />
    <glyph glyph-name="uni04B9" unicode="&#x4b9;" horiz-adv-x="643" 
d="M284 178q-6 -1 -12 -1h-12q-84 0 -123.5 39.5t-39.5 124.5v125h-68v54h242v-54h-62v-118q0 -48 17 -70.5t58 -27.5v108h56v-106q36 5 57.5 24t21.5 48v142h-62v54h242v-54h-68v-412h68v-54h-268v54h88v194h-4q-14 -20 -32.5 -34.5t-42.5 -23.5v-95h-56v83z" />
    <glyph glyph-name="uni04BA" unicode="&#x4ba;" horiz-adv-x="733" 
d="M49 54h73v590h-73v54h265v-54h-73v-252h5q35 19 74 27.5t90 8.5q60 0 101.5 -13t67.5 -39.5t37.5 -67t11.5 -96.5v-158h72v-54h-264v54h73v154q0 45 -6.5 76.5t-22 50.5t-41.5 27.5t-64 8.5q-43 0 -75.5 -9t-58.5 -26v-282h73v-54h-265v54z" />
    <glyph glyph-name="uni04BB" unicode="&#x4bb;" horiz-adv-x="635" 
d="M31 54h68v614l-68 13v44l180 35v-321h5q6 17 18.5 34t30.5 30t42 21t54 8q95 0 135 -48.5t40 -145.5v-284h68v-54h-246v54h66v278q0 65 -25 95t-79 30q-20 0 -39.5 -5.5t-35 -17t-25 -28.5t-9.5 -41v-311h66v-54h-246v54z" />
    <glyph glyph-name="uni04C0" unicode="&#x4c0;" horiz-adv-x="363" 
d="M49 54h73v590h-73v54h265v-54h-73v-590h73v-54h-265v54z" />
    <glyph glyph-name="uni04C1" unicode="&#x4c1;" horiz-adv-x="1024" 
d="M13 54h66l134 239q20 39 41 54.5t50 19.5l-67 158q-26 64 -49 93h-4q-2 -26 -19 -43t-46 -17q-32 0 -50 21t-18 54q0 31 21 54t60 23q51 0 88.5 -36t72.5 -122l71 -167h90v259h-73v54h262v-54h-73v-259h90l71 167q35 86 72.5 122t88.5 36q39 0 60 -23t21 -54
q0 -33 -18 -54t-50 -21q-29 0 -46 17t-19 43h-4q-23 -29 -49 -93l-67 -158q29 -4 50 -19.5t41 -54.5l134 -239h66v-54h-169l-182 328h-90v-274h73v-54h-262v54h73v274h-90l-182 -328h-169v54zM512 760q-44 0 -76.5 9.5t-54 26t-32 38t-10.5 44.5q0 30 16.5 46.5t44.5 16.5
t43.5 -16.5t15.5 -42.5q0 -22 -11.5 -36.5t-28.5 -20.5v-3q15 -7 39.5 -10.5t53.5 -3.5t53.5 3.5t39.5 10.5v3q-17 6 -28.5 20.5t-11.5 36.5q0 26 15.5 42.5t43.5 16.5t44.5 -16.5t16.5 -46.5q0 -23 -10.5 -44.5t-32 -38t-54 -26t-76.5 -9.5z" />
    <glyph glyph-name="uni04C2" unicode="&#x4c2;" horiz-adv-x="825" 
d="M15 54h50l92 160q15 29 36 42.5t51 16.5l-46 104q-9 21 -19.5 39t-18.5 29h-4q-8 -55 -60 -55q-28 0 -46.5 19t-18.5 51q0 30 20.5 51t56.5 21q19 0 36 -6t33.5 -20.5t32.5 -39.5t33 -62l49 -112h66v174h-66v54h241v-54h-66v-174h66l49 112q16 37 32.5 62t33 39.5
t33.5 20.5t36 6q36 0 56.5 -21t20.5 -51q0 -32 -18.5 -51t-46.5 -19q-52 0 -60 55h-4q-8 -11 -18.5 -29t-19.5 -39l-46 -104q30 -3 51 -16.5t36 -42.5l92 -160h50v-54h-143l-134 238h-66v-184h66v-54h-241v54h66v184h-66l-134 -238h-143v54zM412 591q-44 0 -76.5 9.5t-54 26
t-32 38t-10.5 44.5q0 30 16.5 46.5t44.5 16.5t43.5 -16.5t15.5 -42.5q0 -22 -11.5 -36.5t-28.5 -20.5v-3q15 -7 39.5 -10.5t53.5 -3.5t53.5 3.5t39.5 10.5v3q-17 6 -28.5 20.5t-11.5 36.5q0 26 15.5 42.5t43.5 16.5t44.5 -16.5t16.5 -46.5q0 -23 -10.5 -44.5t-32 -38
t-54 -26t-76.5 -9.5z" />
    <glyph glyph-name="uni04CF" unicode="&#x4cf;" horiz-adv-x="310" 
d="M31 54h68v640h-68v54h248v-54h-68v-640h68v-54h-248v54z" />
    <glyph glyph-name="uni04D0" unicode="&#x4d0;" horiz-adv-x="692" 
d="M15 54h52l222 644h114l222 -644h52v-54h-261v54h86l-56 167h-253l-56 -167h86v-54h-208v54zM209 278h221l-108 326h-5zM346 760q-44 0 -76.5 9.5t-54 26t-32 38t-10.5 44.5q0 30 16.5 46.5t44.5 16.5t43.5 -16.5t15.5 -42.5q0 -22 -11.5 -36.5t-28.5 -20.5v-3
q15 -7 39.5 -10.5t53.5 -3.5t53.5 3.5t39.5 10.5v3q-17 6 -28.5 20.5t-11.5 36.5q0 26 15.5 42.5t43.5 16.5t44.5 -16.5t16.5 -46.5q0 -23 -10.5 -44.5t-32 -38t-54 -26t-76.5 -9.5z" />
    <glyph glyph-name="uni04D1" unicode="&#x4d1;" horiz-adv-x="553" 
d="M197 -12q-78 0 -117.5 38.5t-39.5 105.5q0 76 54 115t176 39h72v68q0 61 -27 93t-85 32q-49 0 -74 -14v-4q11 -5 20.5 -17.5t9.5 -34.5q0 -28 -16.5 -45t-47.5 -17q-26 0 -43.5 17.5t-17.5 47.5q0 23 13.5 44.5t39.5 38.5t63.5 27t86.5 10q94 0 142 -44t48 -123v-312h68
v-45q-14 -8 -36 -14t-47 -6q-46 0 -67.5 23.5t-21.5 60.5v5h-5q-7 -17 -18 -32.5t-28.5 -28.5t-42.5 -20.5t-59 -7.5zM241 58q44 0 72.5 21t28.5 69v89h-60q-71 0 -99 -23t-28 -66v-19q0 -36 23 -53.5t63 -17.5zM265 591q-44 0 -76.5 9.5t-54 26t-32 38t-10.5 44.5
q0 30 16.5 46.5t44.5 16.5t43.5 -16.5t15.5 -42.5q0 -22 -11.5 -36.5t-28.5 -20.5v-3q15 -7 39.5 -10.5t53.5 -3.5t53.5 3.5t39.5 10.5v3q-17 6 -28.5 20.5t-11.5 36.5q0 26 15.5 42.5t43.5 16.5t44.5 -16.5t16.5 -46.5q0 -23 -10.5 -44.5t-32 -38t-54 -26t-76.5 -9.5z" />
    <glyph glyph-name="uni04D2" unicode="&#x4d2;" horiz-adv-x="692" 
d="M15 54h52l222 644h114l222 -644h52v-54h-261v54h86l-56 167h-253l-56 -167h86v-54h-208v54zM209 278h221l-108 326h-5zM247 778q-29 0 -45 17t-16 42v4q0 25 16 42t45 17t45 -17t16 -42v-4q0 -25 -16 -42t-45 -17zM445 778q-29 0 -45 17t-16 42v4q0 25 16 42t45 17
t45 -17t16 -42v-4q0 -25 -16 -42t-45 -17z" />
    <glyph glyph-name="uni04D3" unicode="&#x4d3;" horiz-adv-x="553" 
d="M197 -12q-78 0 -117.5 38.5t-39.5 105.5q0 76 54 115t176 39h72v68q0 61 -27 93t-85 32q-49 0 -74 -14v-4q11 -5 20.5 -17.5t9.5 -34.5q0 -28 -16.5 -45t-47.5 -17q-26 0 -43.5 17.5t-17.5 47.5q0 23 13.5 44.5t39.5 38.5t63.5 27t86.5 10q94 0 142 -44t48 -123v-312h68
v-45q-14 -8 -36 -14t-47 -6q-46 0 -67.5 23.5t-21.5 60.5v5h-5q-7 -17 -18 -32.5t-28.5 -28.5t-42.5 -20.5t-59 -7.5zM241 58q44 0 72.5 21t28.5 69v89h-60q-71 0 -99 -23t-28 -66v-19q0 -36 23 -53.5t63 -17.5zM166 610q-29 0 -45 17t-16 42v4q0 25 16 42t45 17t45 -17
t16 -42v-4q0 -25 -16 -42t-45 -17zM364 610q-29 0 -45 17t-16 42v4q0 25 16 42t45 17t45 -17t16 -42v-4q0 -25 -16 -42t-45 -17z" />
    <glyph glyph-name="uni04D4" unicode="&#x4d4;" horiz-adv-x="982" 
d="M15 54h52l307 590h-73v54h615v-176h-91v117h-251v-248h170v71h66v-201h-66v71h-170v-273h261v130h91v-189h-544v54h73v167h-230l-86 -167h74v-54h-198v54zM253 278h202v366h-10z" />
    <glyph glyph-name="uni04D5" unicode="&#x4d5;" horiz-adv-x="831" 
d="M199 -12q-79 0 -119 40t-40 107q0 80 54 118.5t176 38.5h72v62q0 61 -27 93t-85 32q-49 0 -74 -14v-4q11 -5 20.5 -17.5t9.5 -34.5q0 -28 -16.5 -45t-47.5 -17q-26 0 -43.5 17.5t-17.5 47.5q0 23 13.5 44.5t39.5 38.5t63.5 27t86.5 10q62 0 98 -27t45 -64h6q7 19 22 35.5
t35.5 29t46 19.5t53.5 7q53 0 94 -18t69.5 -51t43 -78.5t14.5 -99.5v-32h-337v-24q0 -78 39.5 -120.5t106.5 -42.5q58 0 89 22.5t49 60.5l42 -26q-9 -25 -25 -49.5t-40.5 -43.5t-58 -30.5t-78.5 -11.5q-35 0 -65 8.5t-54 23t-41 34t-26 41.5h-6q-17 -50 -64 -78.5
t-123 -28.5zM241 58q44 0 72.5 21t28.5 69v95h-60q-71 0 -99 -23t-28 -66v-25q0 -36 23 -53.5t63 -17.5zM454 306h222v16q0 72 -25.5 113t-80.5 41q-57 0 -86.5 -39t-29.5 -111v-20z" />
    <glyph glyph-name="uni04D6" unicode="&#x4d6;" horiz-adv-x="649" 
d="M49 54h73v590h-73v54h534v-176h-91v117h-251v-248h170v71h66v-201h-66v71h-170v-273h261v130h91v-189h-544v54zM338 760q-44 0 -76.5 9.5t-54 26t-32 38t-10.5 44.5q0 30 16.5 46.5t44.5 16.5t43.5 -16.5t15.5 -42.5q0 -22 -11.5 -36.5t-28.5 -20.5v-3q15 -7 39.5 -10.5
t53.5 -3.5t53.5 3.5t39.5 10.5v3q-17 6 -28.5 20.5t-11.5 36.5q0 26 15.5 42.5t43.5 16.5t44.5 -16.5t16.5 -46.5q0 -23 -10.5 -44.5t-32 -38t-54 -26t-76.5 -9.5z" />
    <glyph glyph-name="uni04D7" unicode="&#x4d7;" horiz-adv-x="547" 
d="M285 -12q-58 0 -103 19.5t-76 55.5t-47.5 86t-16.5 111q0 62 17.5 112t49 85.5t75 55t95.5 19.5q53 0 95 -17.5t71.5 -49.5t45.5 -77t16 -100v-27h-344v-32q0 -78 39 -120.5t105 -42.5q58 0 93.5 25.5t52.5 63.5l43 -26q-9 -26 -26.5 -51t-43.5 -45t-61 -32.5t-80 -12.5z
M163 314h228v11q0 72 -27.5 111.5t-84.5 39.5q-56 0 -86 -38.5t-30 -110.5v-13zM279 591q-44 0 -76.5 9.5t-54 26t-32 38t-10.5 44.5q0 30 16.5 46.5t44.5 16.5t43.5 -16.5t15.5 -42.5q0 -22 -11.5 -36.5t-28.5 -20.5v-3q15 -7 39.5 -10.5t53.5 -3.5t53.5 3.5t39.5 10.5v3
q-17 6 -28.5 20.5t-11.5 36.5q0 26 15.5 42.5t43.5 16.5t44.5 -16.5t16.5 -46.5q0 -23 -10.5 -44.5t-32 -38t-54 -26t-76.5 -9.5z" />
    <glyph glyph-name="uni04D8" unicode="&#x4d8;" horiz-adv-x="711" 
d="M351 -12q-71 0 -127 24t-94.5 66t-58.5 99.5t-20 124.5v36h478v83q0 102 -53.5 159.5t-153.5 57.5q-76 0 -128.5 -37t-75.5 -97l-46 25q10 34 33 66.5t57.5 58t80 41t101.5 15.5q75 0 134 -26t99.5 -73.5t61.5 -114t21 -147.5q0 -85 -22.5 -152t-63.5 -113.5t-98 -71
t-125 -24.5zM351 50q81 0 129.5 55.5t48.5 155.5v18h-356v-18q0 -100 48.5 -155.5t129.5 -55.5z" />
    <glyph glyph-name="uni04D9" unicode="&#x4d9;" horiz-adv-x="547" 
d="M268 -12q-53 0 -95 17.5t-71.5 49.5t-45.5 77t-16 100v27h344v32q0 78 -39 120.5t-105 42.5q-58 0 -93.5 -25.5t-52.5 -63.5l-43 26q9 25 26.5 50.5t43.5 45.5t61 32.5t80 12.5q58 0 103 -19.5t76 -55.5t47.5 -86t16.5 -111q0 -62 -17.5 -112t-49 -85.5t-75 -55
t-95.5 -19.5zM268 44q56 0 86 38.5t30 110.5v13h-228v-11q0 -72 27.5 -111.5t84.5 -39.5z" />
    <glyph glyph-name="uni04DC" unicode="&#x4dc;" horiz-adv-x="1024" 
d="M13 54h66l134 239q20 39 41 54.5t50 19.5l-67 158q-26 64 -49 93h-4q-2 -26 -19 -43t-46 -17q-32 0 -50 21t-18 54q0 31 21 54t60 23q51 0 88.5 -36t72.5 -122l71 -167h90v259h-73v54h262v-54h-73v-259h90l71 167q35 86 72.5 122t88.5 36q39 0 60 -23t21 -54
q0 -33 -18 -54t-50 -21q-29 0 -46 17t-19 43h-4q-23 -29 -49 -93l-67 -158q29 -4 50 -19.5t41 -54.5l134 -239h66v-54h-169l-182 328h-90v-274h73v-54h-262v54h73v274h-90l-182 -328h-169v54zM413 778q-29 0 -45 17t-16 42v4q0 25 16 42t45 17t45 -17t16 -42v-4
q0 -25 -16 -42t-45 -17zM611 778q-29 0 -45 17t-16 42v4q0 25 16 42t45 17t45 -17t16 -42v-4q0 -25 -16 -42t-45 -17z" />
    <glyph glyph-name="uni04DD" unicode="&#x4dd;" horiz-adv-x="825" 
d="M15 54h50l92 160q15 29 36 42.5t51 16.5l-46 104q-9 21 -19.5 39t-18.5 29h-4q-8 -55 -60 -55q-28 0 -46.5 19t-18.5 51q0 30 20.5 51t56.5 21q19 0 36 -6t33.5 -20.5t32.5 -39.5t33 -62l49 -112h66v174h-66v54h241v-54h-66v-174h66l49 112q16 37 32.5 62t33 39.5
t33.5 20.5t36 6q36 0 56.5 -21t20.5 -51q0 -32 -18.5 -51t-46.5 -19q-52 0 -60 55h-4q-8 -11 -18.5 -29t-19.5 -39l-46 -104q30 -3 51 -16.5t36 -42.5l92 -160h50v-54h-143l-134 238h-66v-184h66v-54h-241v54h66v184h-66l-134 -238h-143v54zM313 610q-29 0 -45 17t-16 42v4
q0 25 16 42t45 17t45 -17t16 -42v-4q0 -25 -16 -42t-45 -17zM511 610q-29 0 -45 17t-16 42v4q0 25 16 42t45 17t45 -17t16 -42v-4q0 -25 -16 -42t-45 -17z" />
    <glyph glyph-name="uni04DE" unicode="&#x4de;" horiz-adv-x="624" 
d="M297 -12q-60 0 -105 12t-75 32t-45.5 44.5t-15.5 50.5q0 34 18.5 54.5t50.5 20.5q33 0 51 -20.5t18 -49.5q0 -21 -11.5 -36t-25.5 -23v-4q18 -9 48 -16.5t70 -7.5q84 0 126.5 36t42.5 94v34q0 56 -34 87.5t-97 31.5h-103v59h97q52 0 86 30.5t34 82.5v36q0 53 -31.5 83.5
t-94.5 30.5t-101 -29t-38 -78v-55h-91v210h91v-60h5q23 33 63.5 52.5t106.5 19.5q50 0 89.5 -13.5t67.5 -37.5t42.5 -56.5t14.5 -70.5q0 -34 -11 -62t-30 -49t-45.5 -35t-56.5 -20v-5q33 -5 62 -17.5t51 -33t34.5 -50t12.5 -68.5q0 -46 -19.5 -83.5t-54.5 -64.5t-85.5 -41.5
t-111.5 -14.5zM222 778q-29 0 -45 17t-16 42v4q0 25 16 42t45 17t45 -17t16 -42v-4q0 -25 -16 -42t-45 -17zM420 778q-29 0 -45 17t-16 42v4q0 25 16 42t45 17t45 -17t16 -42v-4q0 -25 -16 -42t-45 -17z" />
    <glyph glyph-name="uni04DF" unicode="&#x4df;" horiz-adv-x="515" 
d="M245 -12q-50 0 -87.5 10.5t-63.5 27.5t-39 40t-13 47q0 33 18 51.5t47 18.5q31 0 47 -18t16 -44q0 -20 -10 -35t-26 -23v-3q14 -9 36 -14t60 -5q63 0 92 25t29 65v20q0 38 -25.5 62.5t-78.5 24.5h-68v58h63q45 0 70.5 22.5t25.5 59.5v17q0 38 -23.5 62t-68.5 24
q-52 0 -82 -24t-30 -66v-27h-76v156h76v-47h4q18 26 49.5 42.5t88.5 16.5q88 0 133.5 -36.5t45.5 -99.5q0 -47 -29.5 -78.5t-79.5 -41.5v-4q59 -11 90.5 -43t31.5 -84q0 -36 -16.5 -65t-45.5 -49.5t-70.5 -31.5t-90.5 -11zM177 610q-29 0 -45 17t-16 42v4q0 25 16 42t45 17
t45 -17t16 -42v-4q0 -25 -16 -42t-45 -17zM375 610q-29 0 -45 17t-16 42v4q0 25 16 42t45 17t45 -17t16 -42v-4q0 -25 -16 -42t-45 -17z" />
    <glyph glyph-name="uni04E2" unicode="&#x4e2;" horiz-adv-x="799" 
d="M49 54h73v590h-73v54h261v-54h-73v-289l-10 -184h4l331 449v24h-73v54h261v-54h-73v-590h73v-54h-261v54h73v289l10 184h-4l-331 -449v-24h73v-54h-261v54zM252 875h296v-71h-296v71z" />
    <glyph glyph-name="uni04E3" unicode="&#x4e3;" horiz-adv-x="669" 
d="M44 54h68v412h-68v54h243v-54h-66v-170l-8 -130h4l231 273v27h-66v54h243v-54h-68v-412h68v-54h-243v54h66v170l8 130h-4l-231 -273v-27h66v-54h-243v54zM187 708h296v-71h-296v71z" />
    <glyph glyph-name="uni04E4" unicode="&#x4e4;" horiz-adv-x="799" 
d="M49 54h73v590h-73v54h261v-54h-73v-289l-10 -184h4l331 449v24h-73v54h261v-54h-73v-590h73v-54h-261v54h73v289l10 184h-4l-331 -449v-24h73v-54h-261v54zM301 778q-29 0 -45 17t-16 42v4q0 25 16 42t45 17t45 -17t16 -42v-4q0 -25 -16 -42t-45 -17zM499 778
q-29 0 -45 17t-16 42v4q0 25 16 42t45 17t45 -17t16 -42v-4q0 -25 -16 -42t-45 -17z" />
    <glyph glyph-name="uni04E5" unicode="&#x4e5;" horiz-adv-x="669" 
d="M44 54h68v412h-68v54h243v-54h-66v-170l-8 -130h4l231 273v27h-66v54h243v-54h-68v-412h68v-54h-243v54h66v170l8 130h-4l-231 -273v-27h66v-54h-243v54zM236 610q-29 0 -45 17t-16 42v4q0 25 16 42t45 17t45 -17t16 -42v-4q0 -25 -16 -42t-45 -17zM434 610q-29 0 -45 17
t-16 42v4q0 25 16 42t45 17t45 -17t16 -42v-4q0 -25 -16 -42t-45 -17z" />
    <glyph glyph-name="uni04E6" unicode="&#x4e6;" horiz-adv-x="736" 
d="M368 50q86 0 136 57.5t50 160.5v162q0 103 -50 160.5t-136 57.5t-136 -57.5t-50 -160.5v-162q0 -103 50 -160.5t136 -57.5zM368 -12q-70 0 -128 24.5t-100 71t-65.5 113.5t-23.5 152t23.5 152t65.5 113.5t100 71t128 24.5t128 -24.5t100 -71t65.5 -113.5t23.5 -152
t-23.5 -152t-65.5 -113.5t-100 -71t-128 -24.5zM268 778q-29 0 -45 17t-16 42v4q0 25 16 42t45 17t45 -17t16 -42v-4q0 -25 -16 -42t-45 -17zM466 778q-29 0 -45 17t-16 42v4q0 25 16 42t45 17t45 -17t16 -42v-4q0 -25 -16 -42t-45 -17z" />
    <glyph glyph-name="uni04E7" unicode="&#x4e7;" horiz-adv-x="572" 
d="M286 47q63 0 92.5 39t29.5 104v140q0 65 -29.5 104t-92.5 39t-92.5 -39t-29.5 -104v-140q0 -65 29.5 -104t92.5 -39zM286 -12q-55 0 -100 19t-77 54t-49.5 85.5t-17.5 113.5t17.5 113.5t49.5 85.5t77 54t100 19t100 -19t77 -54t49.5 -85.5t17.5 -113.5t-17.5 -113.5
t-49.5 -85.5t-77 -54t-100 -19zM188 610q-29 0 -45 17t-16 42v4q0 25 16 42t45 17t45 -17t16 -42v-4q0 -25 -16 -42t-45 -17zM386 610q-29 0 -45 17t-16 42v4q0 25 16 42t45 17t45 -17t16 -42v-4q0 -25 -16 -42t-45 -17z" />
    <glyph glyph-name="uni04E8" unicode="&#x4e8;" horiz-adv-x="736" 
d="M368 50q86 0 136 57.5t50 160.5v59h-372v-59q0 -103 50 -160.5t136 -57.5zM554 385v45q0 103 -50 160.5t-136 57.5t-136 -57.5t-50 -160.5v-45h372zM368 -12q-70 0 -128 24.5t-100 71t-65.5 113.5t-23.5 152t23.5 152t65.5 113.5t100 71t128 24.5t128 -24.5t100 -71
t65.5 -113.5t23.5 -152t-23.5 -152t-65.5 -113.5t-100 -71t-128 -24.5z" />
    <glyph glyph-name="uni04E9" unicode="&#x4e9;" horiz-adv-x="572" 
d="M286 47q65 0 96 39t31 104v44h-254v-44q0 -65 31 -104t96 -39zM413 290v40q0 65 -31 104t-96 39t-96 -39t-31 -104v-40h254zM286 -12q-55 0 -100 19t-77 54t-49.5 85.5t-17.5 113.5t17.5 113.5t49.5 85.5t77 54t100 19t100 -19t77 -54t49.5 -85.5t17.5 -113.5
t-17.5 -113.5t-49.5 -85.5t-77 -54t-100 -19z" />
    <glyph glyph-name="uni04EE" unicode="&#x4ee;" horiz-adv-x="667" 
d="M229 -12q-63 0 -97.5 30t-34.5 72q0 31 17.5 51.5t49.5 20.5q29 0 45.5 -17.5t16.5 -44.5q0 -20 -9 -33t-20 -18v-4q18 -5 34 -5t30 4t26 14.5t23.5 28.5t22.5 47l11 27l-275 483h-54v54h271v-54h-84l128 -232l63 -121h4l49 121l94 232h-84v54h209v-54h-54l-218 -526
q-15 -37 -32.5 -62t-37.5 -40t-43.5 -21.5t-50.5 -6.5zM224 875h296v-71h-296v71z" />
    <glyph glyph-name="uni04EF" unicode="&#x4ef;" horiz-adv-x="550" 
d="M123 -212q-54 0 -81.5 25t-27.5 62q0 31 16.5 48.5t46.5 17.5q28 0 43.5 -17t15.5 -43q0 -15 -6.5 -26.5t-14.5 -16.5v-4q5 -2 9.5 -2h11.5q54 0 93 101l16 44l-190 489h-50v54h237v-54h-67l124 -347h5l123 347h-66v54h183v-54h-50l-209 -538q-11 -27 -25.5 -52.5
t-34 -45t-44.5 -31t-58 -11.5zM152 708h296v-71h-296v71z" />
    <glyph glyph-name="uni04F0" unicode="&#x4f0;" horiz-adv-x="667" 
d="M229 -12q-63 0 -97.5 30t-34.5 72q0 31 17.5 51.5t49.5 20.5q29 0 45.5 -17.5t16.5 -44.5q0 -20 -9 -33t-20 -18v-4q18 -5 34 -5t30 4t26 14.5t23.5 28.5t22.5 47l11 27l-275 483h-54v54h271v-54h-84l128 -232l63 -121h4l49 121l94 232h-84v54h209v-54h-54l-218 -526
q-15 -37 -32.5 -62t-37.5 -40t-43.5 -21.5t-50.5 -6.5zM273 778q-29 0 -45 17t-16 42v4q0 25 16 42t45 17t45 -17t16 -42v-4q0 -25 -16 -42t-45 -17zM471 778q-29 0 -45 17t-16 42v4q0 25 16 42t45 17t45 -17t16 -42v-4q0 -25 -16 -42t-45 -17z" />
    <glyph glyph-name="uni04F1" unicode="&#x4f1;" horiz-adv-x="550" 
d="M123 -212q-54 0 -81.5 25t-27.5 62q0 31 16.5 48.5t46.5 17.5q28 0 43.5 -17t15.5 -43q0 -15 -6.5 -26.5t-14.5 -16.5v-4q5 -2 9.5 -2h11.5q54 0 93 101l16 44l-190 489h-50v54h237v-54h-67l124 -347h5l123 347h-66v54h183v-54h-50l-209 -538q-11 -27 -25.5 -52.5
t-34 -45t-44.5 -31t-58 -11.5zM201 610q-29 0 -45 17t-16 42v4q0 25 16 42t45 17t45 -17t16 -42v-4q0 -25 -16 -42t-45 -17zM399 610q-29 0 -45 17t-16 42v4q0 25 16 42t45 17t45 -17t16 -42v-4q0 -25 -16 -42t-45 -17z" />
    <glyph glyph-name="uni04F2" unicode="&#x4f2;" horiz-adv-x="667" 
d="M229 -12q-63 0 -97.5 30t-34.5 72q0 31 17.5 51.5t49.5 20.5q29 0 45.5 -17.5t16.5 -44.5q0 -20 -9 -33t-20 -18v-4q18 -5 34 -5t30 4t26 14.5t23.5 28.5t22.5 47l11 27l-275 483h-54v54h271v-54h-84l128 -232l63 -121h4l49 121l94 232h-84v54h209v-54h-54l-218 -526
q-15 -37 -32.5 -62t-37.5 -40t-43.5 -21.5t-50.5 -6.5zM246 771l77 191l92 -47l-134 -161zM421 771l77 191l92 -47l-134 -161z" />
    <glyph glyph-name="uni04F3" unicode="&#x4f3;" horiz-adv-x="550" 
d="M123 -212q-54 0 -81.5 25t-27.5 62q0 31 16.5 48.5t46.5 17.5q28 0 43.5 -17t15.5 -43q0 -15 -6.5 -26.5t-14.5 -16.5v-4q5 -2 9.5 -2h11.5q54 0 93 101l16 44l-190 489h-50v54h237v-54h-67l124 -347h5l123 347h-66v54h183v-54h-50l-209 -538q-11 -27 -25.5 -52.5
t-34 -45t-44.5 -31t-58 -11.5zM174 601l77 191l92 -47l-134 -161zM349 601l77 191l92 -47l-134 -161z" />
    <glyph glyph-name="uni04F4" unicode="&#x4f4;" horiz-adv-x="735" 
d="M401 54h93v245h-5q-34 -18 -70.5 -27t-89.5 -9q-119 0 -171 51.5t-52 164.5v165h-73v54h262v-54h-70v-161q0 -46 7 -77t23.5 -50t42 -27.5t63.5 -8.5q44 0 77 9.5t56 26.5v288h-70v54h262v-54h-73v-590h73v-54h-285v54zM261 778q-29 0 -45 17t-16 42v4q0 25 16 42t45 17
t45 -17t16 -42v-4q0 -25 -16 -42t-45 -17zM459 778q-29 0 -45 17t-16 42v4q0 25 16 42t45 17t45 -17t16 -42v-4q0 -25 -16 -42t-45 -17z" />
    <glyph glyph-name="uni04F5" unicode="&#x4f5;" horiz-adv-x="635" 
d="M323 54h88v194h-4q-25 -34 -61 -52.5t-90 -18.5q-81 0 -120 39.5t-39 124.5v125h-68v54h242v-54h-62v-118q0 -54 21.5 -76.5t72.5 -22.5q48 0 78 20t30 55v142h-62v54h242v-54h-68v-412h68v-54h-268v54zM211 610q-29 0 -45 17t-16 42v4q0 25 16 42t45 17t45 -17t16 -42
v-4q0 -25 -16 -42t-45 -17zM409 610q-29 0 -45 17t-16 42v4q0 25 16 42t45 17t45 -17t16 -42v-4q0 -25 -16 -42t-45 -17z" />
    <glyph glyph-name="uni04F8" unicode="&#x4f8;" horiz-adv-x="939" 
d="M49 54h73v590h-73v54h264v-54h-73v-228h130q105 0 160.5 -52t55.5 -156t-55.5 -156t-160.5 -52h-321v54zM625 54h73v590h-73v54h265v-54h-73v-590h73v-54h-265v54zM349 59q54 0 84.5 30.5t30.5 87.5v62q0 57 -30.5 87.5t-84.5 30.5h-109v-298h109zM370 778q-29 0 -45 17
t-16 42v4q0 25 16 42t45 17t45 -17t16 -42v-4q0 -25 -16 -42t-45 -17zM568 778q-29 0 -45 17t-16 42v4q0 25 16 42t45 17t45 -17t16 -42v-4q0 -25 -16 -42t-45 -17z" />
    <glyph glyph-name="uni04F9" unicode="&#x4f9;" horiz-adv-x="826" 
d="M44 54h68v408h-68v58h248v-54h-68v-138h109q84 0 130.5 -42.5t46.5 -121.5t-46.5 -121.5t-130.5 -42.5h-289v54zM534 54h68v412h-68v54h248v-54h-68v-412h68v-54h-248v54zM301 58q46 0 68.5 22.5t22.5 64.5v38q0 42 -22.5 64.5t-68.5 22.5h-77v-212h77zM314 610
q-29 0 -45 17t-16 42v4q0 25 16 42t45 17t45 -17t16 -42v-4q0 -25 -16 -42t-45 -17zM512 610q-29 0 -45 17t-16 42v4q0 25 16 42t45 17t45 -17t16 -42v-4q0 -25 -16 -42t-45 -17z" />
    <glyph glyph-name="uni0E3F" unicode="&#xe3f;" horiz-adv-x="647" 
d="M311 21h-264v54h72v548h-72v54h264v103h58v-103h18q97 0 147 -43.5t50 -113.5q0 -34 -13 -61t-34 -46.5t-48 -31.5t-54 -17v-4q31 -3 61 -14t53.5 -31.5t38 -49.5t14.5 -66q0 -40 -14 -72.5t-40 -56t-62.5 -36.5t-82.5 -13h-34v-103h-58v103zM367 76q60 0 88.5 31
t28.5 79v37q0 48 -28.5 79t-88.5 31v-257zM367 385q50 0 75 28t25 73v35q0 45 -25 73t-75 28v-237zM233 76h80v257h-80v-257zM233 385h80v237h-80v-237z" />
    <glyph glyph-name="Wgrave" unicode="&#x1e80;" horiz-adv-x="993" 
d="M72 644h-52v54h259v-54h-85l121 -525h5l148 579h108l148 -579h5l121 525h-85v54h208v-54h-52l-160 -644h-115l-147 550h-5l-147 -550h-115zM388 914l100 48l74 -191l-36 -17z" />
    <glyph glyph-name="wgrave" unicode="&#x1e81;" horiz-adv-x="817" 
d="M64 466h-50v54h230v-54h-67l91 -356h5l115 410h92l115 -410h5l91 356h-67v54h179v-54h-50l-132 -466h-94l-116 389h-5l-116 -389h-94zM300 744l100 48l74 -191l-36 -17z" />
    <glyph glyph-name="Wacute" unicode="&#x1e82;" horiz-adv-x="993" 
d="M72 644h-52v54h259v-54h-85l121 -525h5l148 579h108l148 -579h5l121 525h-85v54h208v-54h-52l-160 -644h-115l-147 550h-5l-147 -550h-115zM482 771l74 191l100 -48l-138 -160z" />
    <glyph glyph-name="wacute" unicode="&#x1e83;" horiz-adv-x="817" 
d="M64 466h-50v54h230v-54h-67l91 -356h5l115 410h92l115 -410h5l91 356h-67v54h179v-54h-50l-132 -466h-94l-116 389h-5l-116 -389h-94zM394 601l74 191l100 -48l-138 -160z" />
    <glyph glyph-name="Wdieresis" unicode="&#x1e84;" horiz-adv-x="993" 
d="M72 644h-52v54h259v-54h-85l121 -525h5l148 579h108l148 -579h5l121 525h-85v54h208v-54h-52l-160 -644h-115l-147 550h-5l-147 -550h-115zM423 778q-29 0 -45 17t-16 42v4q0 25 16 42t45 17t45 -17t16 -42v-4q0 -25 -16 -42t-45 -17zM621 778q-29 0 -45 17t-16 42v4
q0 25 16 42t45 17t45 -17t16 -42v-4q0 -25 -16 -42t-45 -17z" />
    <glyph glyph-name="wdieresis" unicode="&#x1e85;" horiz-adv-x="817" 
d="M64 466h-50v54h230v-54h-67l91 -356h5l115 410h92l115 -410h5l91 356h-67v54h179v-54h-50l-132 -466h-94l-116 389h-5l-116 -389h-94zM335 610q-29 0 -45 17t-16 42v4q0 25 16 42t45 17t45 -17t16 -42v-4q0 -25 -16 -42t-45 -17zM533 610q-29 0 -45 17t-16 42v4
q0 25 16 42t45 17t45 -17t16 -42v-4q0 -25 -16 -42t-45 -17z" />
    <glyph glyph-name="uni1E9E" unicode="&#x1e9e;" horiz-adv-x="748" 
d="M466 -12q-80 0 -119.5 32t-39.5 78q0 33 19 53.5t49 20.5q32 0 48.5 -18.5t16.5 -46.5q0 -21 -10.5 -36t-24.5 -22v-4q24 -8 60 -8q24 0 46 8t38 24.5t25.5 41.5t9.5 58v42q0 40 -9.5 66.5t-28.5 42.5t-46.5 23t-64.5 7h-62v56l166 233h-298v-639h-192v54h73v590h-73v54
h621v-52l-173 -241v-4q94 0 150.5 -50.5t56.5 -153.5q0 -54 -17 -93.5t-48.5 -65t-75.5 -38t-97 -12.5z" />
    <glyph glyph-name="uni1EA0" unicode="&#x1ea0;" horiz-adv-x="692" 
d="M15 54h52l222 644h114l222 -644h52v-54h-261v54h86l-56 167h-253l-56 -167h86v-54h-208v54zM209 278h221l-108 326h-5zM320 -179q-27 0 -44 16.5t-17 42.5v3q0 26 17 42.5t44 16.5t44 -16.5t17 -42.5v-3q0 -26 -17 -42.5t-44 -16.5z" />
    <glyph glyph-name="uni1EA1" unicode="&#x1ea1;" horiz-adv-x="553" 
d="M197 -12q-78 0 -117.5 38.5t-39.5 105.5q0 76 54 115t176 39h72v68q0 61 -27 93t-85 32q-49 0 -74 -14v-4q11 -5 20.5 -17.5t9.5 -34.5q0 -28 -16.5 -45t-47.5 -17q-26 0 -43.5 17.5t-17.5 47.5q0 23 13.5 44.5t39.5 38.5t63.5 27t86.5 10q94 0 142 -44t48 -123v-312h68
v-45q-14 -8 -36 -14t-47 -6q-46 0 -67.5 23.5t-21.5 60.5v5h-5q-7 -17 -18 -32.5t-28.5 -28.5t-42.5 -20.5t-59 -7.5zM241 58q44 0 72.5 21t28.5 69v89h-60q-71 0 -99 -23t-28 -66v-19q0 -36 23 -53.5t63 -17.5zM245 -179q-27 0 -44 16.5t-17 42.5v3q0 26 17 42.5t44 16.5
t44 -16.5t17 -42.5v-3q0 -26 -17 -42.5t-44 -16.5z" />
    <glyph glyph-name="uni1EA2" unicode="&#x1ea2;" horiz-adv-x="692" 
d="M15 54h52l222 644h114l222 -644h52v-54h-261v54h86l-56 167h-253l-56 -167h86v-54h-208v54zM209 278h221l-108 326h-5zM332 759l49 108h-132v78h120q44 0 61 -18t17 -42t-13.5 -51.5t-37.5 -57.5l-27 -34z" />
    <glyph glyph-name="uni1EA3" unicode="&#x1ea3;" horiz-adv-x="553" 
d="M197 -12q-78 0 -117.5 38.5t-39.5 105.5q0 76 54 115t176 39h72v68q0 61 -27 93t-85 32q-49 0 -74 -14v-4q11 -5 20.5 -17.5t9.5 -34.5q0 -28 -16.5 -45t-47.5 -17q-26 0 -43.5 17.5t-17.5 47.5q0 23 13.5 44.5t39.5 38.5t63.5 27t86.5 10q94 0 142 -44t48 -123v-312h68
v-45q-14 -8 -36 -14t-47 -6q-46 0 -67.5 23.5t-21.5 60.5v5h-5q-7 -17 -18 -32.5t-28.5 -28.5t-42.5 -20.5t-59 -7.5zM241 58q44 0 72.5 21t28.5 69v89h-60q-71 0 -99 -23t-28 -66v-19q0 -36 23 -53.5t63 -17.5zM250 592l49 108h-132v78h120q44 0 61 -18t17 -42t-13.5 -51.5
t-37.5 -57.5l-27 -34z" />
    <glyph glyph-name="uni1EA4" unicode="&#x1ea4;" horiz-adv-x="692" 
d="M15 54h52l222 644h114l222 -644h52v-54h-261v54h86l-56 167h-253l-56 -167h86v-54h-208v54zM209 278h221l-108 326h-5zM184 767l127 159h70l127 -159l-31 -24l-131 104l-131 -104zM452 902l77 186l87 -45l-129 -159z" />
    <glyph glyph-name="uni1EA5" unicode="&#x1ea5;" horiz-adv-x="553" 
d="M197 -12q-78 0 -117.5 38.5t-39.5 105.5q0 76 54 115t176 39h72v68q0 61 -27 93t-85 32q-49 0 -74 -14v-4q11 -5 20.5 -17.5t9.5 -34.5q0 -28 -16.5 -45t-47.5 -17q-26 0 -43.5 17.5t-17.5 47.5q0 23 13.5 44.5t39.5 38.5t63.5 27t86.5 10q94 0 142 -44t48 -123v-312h68
v-45q-14 -8 -36 -14t-47 -6q-46 0 -67.5 23.5t-21.5 60.5v5h-5q-7 -17 -18 -32.5t-28.5 -28.5t-42.5 -20.5t-59 -7.5zM241 58q44 0 72.5 21t28.5 69v89h-60q-71 0 -99 -23t-28 -66v-19q0 -36 23 -53.5t63 -17.5zM102 599l127 159h70l127 -159l-31 -24l-131 104l-131 -104z
M370 734l77 186l87 -45l-129 -159z" />
    <glyph glyph-name="uni1EA6" unicode="&#x1ea6;" horiz-adv-x="692" 
d="M15 54h52l222 644h114l222 -644h52v-54h-261v54h86l-56 167h-253l-56 -167h86v-54h-208v54zM209 278h221l-108 326h-5zM184 767l127 159h70l127 -159l-31 -24l-131 104l-131 -104zM76 1043l87 45l77 -186l-35 -18z" />
    <glyph glyph-name="uni1EA7" unicode="&#x1ea7;" horiz-adv-x="553" 
d="M197 -12q-78 0 -117.5 38.5t-39.5 105.5q0 76 54 115t176 39h72v68q0 61 -27 93t-85 32q-49 0 -74 -14v-4q11 -5 20.5 -17.5t9.5 -34.5q0 -28 -16.5 -45t-47.5 -17q-26 0 -43.5 17.5t-17.5 47.5q0 23 13.5 44.5t39.5 38.5t63.5 27t86.5 10q94 0 142 -44t48 -123v-312h68
v-45q-14 -8 -36 -14t-47 -6q-46 0 -67.5 23.5t-21.5 60.5v5h-5q-7 -17 -18 -32.5t-28.5 -28.5t-42.5 -20.5t-59 -7.5zM241 58q44 0 72.5 21t28.5 69v89h-60q-71 0 -99 -23t-28 -66v-19q0 -36 23 -53.5t63 -17.5zM102 599l127 159h70l127 -159l-31 -24l-131 104l-131 -104z
M-6 875l87 45l77 -186l-35 -18z" />
    <glyph glyph-name="uni1EA8" unicode="&#x1ea8;" horiz-adv-x="692" 
d="M15 54h52l222 644h114l222 -644h52v-54h-261v54h86l-56 167h-253l-56 -167h86v-54h-208v54zM209 278h221l-108 326h-5zM469 889l50 109h-127v77h113q44 0 61 -18t17 -42t-13.5 -51.5t-37.5 -57.5l-27 -34zM184 767l127 159h70l127 -159l-31 -24l-131 104l-131 -104z" />
    <glyph glyph-name="uni1EA9" unicode="&#x1ea9;" horiz-adv-x="553" 
d="M197 -12q-78 0 -117.5 38.5t-39.5 105.5q0 76 54 115t176 39h72v68q0 61 -27 93t-85 32q-49 0 -74 -14v-4q11 -5 20.5 -17.5t9.5 -34.5q0 -28 -16.5 -45t-47.5 -17q-26 0 -43.5 17.5t-17.5 47.5q0 23 13.5 44.5t39.5 38.5t63.5 27t86.5 10q94 0 142 -44t48 -123v-312h68
v-45q-14 -8 -36 -14t-47 -6q-46 0 -67.5 23.5t-21.5 60.5v5h-5q-7 -17 -18 -32.5t-28.5 -28.5t-42.5 -20.5t-59 -7.5zM241 58q44 0 72.5 21t28.5 69v89h-60q-71 0 -99 -23t-28 -66v-19q0 -36 23 -53.5t63 -17.5zM387 721l50 109h-127v77h113q44 0 61 -18t17 -42t-13.5 -51.5
t-37.5 -57.5l-27 -34zM102 599l127 159h70l127 -159l-31 -24l-131 104l-131 -104z" />
    <glyph glyph-name="uni1EAA" unicode="&#x1eaa;" horiz-adv-x="692" 
d="M15 54h52l222 644h114l222 -644h52v-54h-261v54h86l-56 167h-253l-56 -167h86v-54h-208v54zM209 278h221l-108 326h-5zM412 947q-20 0 -39 9t-39 18t-39.5 19t-35.5 10q-15 0 -26 -7.5t-31 -30.5l-27 27q25 36 47.5 57t57.5 21q20 0 39 -9t39 -18t39.5 -19t35.5 -10
q15 0 26 7.5t31 30.5l27 -27q-25 -36 -47.5 -57t-57.5 -21zM184 767l127 153h70l127 -153l-31 -24l-131 98l-131 -98z" />
    <glyph glyph-name="uni1EAB" unicode="&#x1eab;" horiz-adv-x="553" 
d="M197 -12q-78 0 -117.5 38.5t-39.5 105.5q0 76 54 115t176 39h72v68q0 61 -27 93t-85 32q-49 0 -74 -14v-4q11 -5 20.5 -17.5t9.5 -34.5q0 -28 -16.5 -45t-47.5 -17q-26 0 -43.5 17.5t-17.5 47.5q0 23 13.5 44.5t39.5 38.5t63.5 27t86.5 10q94 0 142 -44t48 -123v-312h68
v-45q-14 -8 -36 -14t-47 -6q-46 0 -67.5 23.5t-21.5 60.5v5h-5q-7 -17 -18 -32.5t-28.5 -28.5t-42.5 -20.5t-59 -7.5zM241 58q44 0 72.5 21t28.5 69v89h-60q-71 0 -99 -23t-28 -66v-19q0 -36 23 -53.5t63 -17.5zM330 779q-20 0 -39 9t-39 18t-39.5 19t-35.5 10
q-15 0 -26 -7.5t-31 -30.5l-27 27q25 36 47.5 57t57.5 21q20 0 39 -9t39 -18t39.5 -19t35.5 -10q15 0 26 7.5t31 30.5l27 -27q-25 -36 -47.5 -57t-57.5 -21zM102 599l127 153h70l127 -153l-31 -24l-131 98l-131 -98z" />
    <glyph glyph-name="uni1EAC" unicode="&#x1eac;" horiz-adv-x="692" 
d="M15 54h52l222 644h114l222 -644h52v-54h-261v54h86l-56 167h-253l-56 -167h86v-54h-208v54zM209 278h221l-108 326h-5zM182 782l128 161h72l128 -161l-32 -24l-132 99l-132 -99zM320 -179q-27 0 -44 16.5t-17 42.5v3q0 26 17 42.5t44 16.5t44 -16.5t17 -42.5v-3
q0 -26 -17 -42.5t-44 -16.5z" />
    <glyph glyph-name="uni1EAD" unicode="&#x1ead;" horiz-adv-x="553" 
d="M197 -12q-78 0 -117.5 38.5t-39.5 105.5q0 76 54 115t176 39h72v68q0 61 -27 93t-85 32q-49 0 -74 -14v-4q11 -5 20.5 -17.5t9.5 -34.5q0 -28 -16.5 -45t-47.5 -17q-26 0 -43.5 17.5t-17.5 47.5q0 23 13.5 44.5t39.5 38.5t63.5 27t86.5 10q94 0 142 -44t48 -123v-312h68
v-45q-14 -8 -36 -14t-47 -6q-46 0 -67.5 23.5t-21.5 60.5v5h-5q-7 -17 -18 -32.5t-28.5 -28.5t-42.5 -20.5t-59 -7.5zM241 58q44 0 72.5 21t28.5 69v89h-60q-71 0 -99 -23t-28 -66v-19q0 -36 23 -53.5t63 -17.5zM101 615l128 161h72l128 -161l-32 -24l-132 99l-132 -99z
M245 -179q-27 0 -44 16.5t-17 42.5v3q0 26 17 42.5t44 16.5t44 -16.5t17 -42.5v-3q0 -26 -17 -42.5t-44 -16.5z" />
    <glyph glyph-name="uni1EAE" unicode="&#x1eae;" horiz-adv-x="692" 
d="M15 54h52l222 644h114l222 -644h52v-54h-261v54h86l-56 167h-253l-56 -167h86v-54h-208v54zM209 278h221l-108 326h-5zM346 748q-39 0 -65.5 13.5t-44 34.5t-29 47t-20.5 52l36 20l21 -37q15 -27 37 -38.5t65 -11.5t65 11.5t37 38.5l21 37l36 -20q-9 -26 -20.5 -52
t-29 -47t-44 -34.5t-65.5 -13.5zM312 902l78 185l82 -43l-126 -160z" />
    <glyph glyph-name="uni1EAF" unicode="&#x1eaf;" horiz-adv-x="553" 
d="M197 -12q-78 0 -117.5 38.5t-39.5 105.5q0 76 54 115t176 39h72v68q0 61 -27 93t-85 32q-49 0 -74 -14v-4q11 -5 20.5 -17.5t9.5 -34.5q0 -28 -16.5 -45t-47.5 -17q-26 0 -43.5 17.5t-17.5 47.5q0 23 13.5 44.5t39.5 38.5t63.5 27t86.5 10q94 0 142 -44t48 -123v-312h68
v-45q-14 -8 -36 -14t-47 -6q-46 0 -67.5 23.5t-21.5 60.5v5h-5q-7 -17 -18 -32.5t-28.5 -28.5t-42.5 -20.5t-59 -7.5zM241 58q44 0 72.5 21t28.5 69v89h-60q-71 0 -99 -23t-28 -66v-19q0 -36 23 -53.5t63 -17.5zM264 580q-39 0 -65.5 13.5t-44 34.5t-29 47t-20.5 52l36 20
l21 -37q15 -27 37 -38.5t65 -11.5t65 11.5t37 38.5l21 37l36 -20q-9 -26 -20.5 -52t-29 -47t-44 -34.5t-65.5 -13.5zM230 734l78 185l82 -43l-126 -160z" />
    <glyph glyph-name="uni1EB0" unicode="&#x1eb0;" horiz-adv-x="692" 
d="M15 54h52l222 644h114l222 -644h52v-54h-261v54h86l-56 167h-253l-56 -167h86v-54h-208v54zM209 278h221l-108 326h-5zM346 748q-39 0 -65.5 13.5t-44 34.5t-29 47t-20.5 52l36 20l21 -37q15 -27 37 -38.5t65 -11.5t65 11.5t37 38.5l21 37l36 -20q-9 -26 -20.5 -52
t-29 -47t-44 -34.5t-65.5 -13.5zM220 1044l82 43l78 -185l-34 -18z" />
    <glyph glyph-name="uni1EB1" unicode="&#x1eb1;" horiz-adv-x="553" 
d="M197 -12q-78 0 -117.5 38.5t-39.5 105.5q0 76 54 115t176 39h72v68q0 61 -27 93t-85 32q-49 0 -74 -14v-4q11 -5 20.5 -17.5t9.5 -34.5q0 -28 -16.5 -45t-47.5 -17q-26 0 -43.5 17.5t-17.5 47.5q0 23 13.5 44.5t39.5 38.5t63.5 27t86.5 10q94 0 142 -44t48 -123v-312h68
v-45q-14 -8 -36 -14t-47 -6q-46 0 -67.5 23.5t-21.5 60.5v5h-5q-7 -17 -18 -32.5t-28.5 -28.5t-42.5 -20.5t-59 -7.5zM241 58q44 0 72.5 21t28.5 69v89h-60q-71 0 -99 -23t-28 -66v-19q0 -36 23 -53.5t63 -17.5zM264 580q-39 0 -65.5 13.5t-44 34.5t-29 47t-20.5 52l36 20
l21 -37q15 -27 37 -38.5t65 -11.5t65 11.5t37 38.5l21 37l36 -20q-9 -26 -20.5 -52t-29 -47t-44 -34.5t-65.5 -13.5zM138 876l82 43l78 -185l-34 -18z" />
    <glyph glyph-name="uni1EB2" unicode="&#x1eb2;" horiz-adv-x="692" 
d="M15 54h52l222 644h114l222 -644h52v-54h-261v54h86l-56 167h-253l-56 -167h86v-54h-208v54zM209 278h221l-108 326h-5zM346 748q-39 0 -65.5 13.5t-44 34.5t-29 47t-20.5 52l36 20l21 -37q15 -27 37 -38.5t65 -11.5t65 11.5t37 38.5l21 37l36 -20q-9 -26 -20.5 -52
t-29 -47t-44 -34.5t-65.5 -13.5zM322 889l50 109h-134v77h120q44 0 61 -18t17 -42t-13.5 -51.5t-37.5 -57.5l-27 -34z" />
    <glyph glyph-name="uni1EB3" unicode="&#x1eb3;" horiz-adv-x="553" 
d="M197 -12q-78 0 -117.5 38.5t-39.5 105.5q0 76 54 115t176 39h72v68q0 61 -27 93t-85 32q-49 0 -74 -14v-4q11 -5 20.5 -17.5t9.5 -34.5q0 -28 -16.5 -45t-47.5 -17q-26 0 -43.5 17.5t-17.5 47.5q0 23 13.5 44.5t39.5 38.5t63.5 27t86.5 10q94 0 142 -44t48 -123v-312h68
v-45q-14 -8 -36 -14t-47 -6q-46 0 -67.5 23.5t-21.5 60.5v5h-5q-7 -17 -18 -32.5t-28.5 -28.5t-42.5 -20.5t-59 -7.5zM241 58q44 0 72.5 21t28.5 69v89h-60q-71 0 -99 -23t-28 -66v-19q0 -36 23 -53.5t63 -17.5zM264 580q-39 0 -65.5 13.5t-44 34.5t-29 47t-20.5 52l36 20
l21 -37q15 -27 37 -38.5t65 -11.5t65 11.5t37 38.5l21 37l36 -20q-9 -26 -20.5 -52t-29 -47t-44 -34.5t-65.5 -13.5zM240 721l50 109h-134v77h120q44 0 61 -18t17 -42t-13.5 -51.5t-37.5 -57.5l-27 -34z" />
    <glyph glyph-name="uni1EB4" unicode="&#x1eb4;" horiz-adv-x="692" 
d="M15 54h52l222 644h114l222 -644h52v-54h-261v54h86l-56 167h-253l-56 -167h86v-54h-208v54zM209 278h221l-108 326h-5zM413 943q-21 0 -40.5 8.5t-39.5 18.5t-40 19t-36 9t-26.5 -7t-29.5 -29l-27 28q25 36 47.5 57.5t57.5 21.5q21 0 40.5 -8.5t39.5 -18.5t40 -19t36 -9
q8 0 14 1.5t12 5.5t13 11t17 18l27 -28q-25 -36 -47.5 -57.5t-57.5 -21.5zM346 748q-39 0 -65.5 13.5t-44 34.5t-29 47t-20.5 52l36 20l21 -37q15 -27 37 -38.5t65 -11.5t65 11.5t37 38.5l21 37l36 -20q-9 -26 -20.5 -52t-29 -47t-44 -34.5t-65.5 -13.5z" />
    </font>
</defs>
</svg>
