<?xml version="1.0" standalone="no"?>
<!DOCTYPE svg PUBLIC "-//W3C//DTD SVG 1.1//EN" "http://www.w3.org/Graphics/SVG/1.1/DTD/svg11.dtd" >
<svg xmlns="http://www.w3.org/2000/svg" xmlns:xlink="http://www.w3.org/1999/xlink" version="1.1">
<metadata>
Created by FontForge 20170731 at Fri Jul 30 19:17:25 2021
 By Aleksey,,,
Copyright 2019 The Lexend Project Authors (https://github.com/googlefonts/lexend)
</metadata>
<defs>
<font id="LexendDeca-Regular" horiz-adv-x="0" >
  <font-face 
    font-family="Lexend Deca"
    font-weight="400"
    font-stretch="normal"
    units-per-em="1000"
    panose-1="0 0 0 0 0 0 0 0 0 0"
    ascent="800"
    descent="-200"
    x-height="525"
    cap-height="700"
    bbox="-209 -244.133 1385 1080"
    underline-thickness="50"
    underline-position="-175"
    unicode-range="U+000D-FB02"
  />
<missing-glyph horiz-adv-x="584" 
d="M75 0q-35 0 -35 35v630q0 35 35 35h434q35 0 35 -35v-630q0 -35 -35 -35h-434zM75 30h413q3 0 4 2t-1 4l-415 599q-2 3 -4 2.5t-2 -4.5v-598q0 -5 5 -5zM508 65q2 -3 4 -2.5t2 4.5v598q0 5 -5 5h-414q-3 0 -4 -2t1 -4z" />
    <glyph glyph-name="fi" unicode="fi" horiz-adv-x="671" 
d="M129 0v584q0 45 20 80t55 55t81 20q32 0 60 -12t45 -32l-35 -79q-13 12 -28.5 19.5t-29.5 7.5q-21 0 -35.5 -6.5t-21.5 -20t-7 -32.5v-584h-52h-26h-26zM45 421v95h312v-95h-312zM482 0v525h103v-525h-103zM532 641q-33 0 -51 17t-18 48q0 29 18.5 47t50.5 18
q33 0 51 -17t18 -48q0 -29 -18.5 -47t-50.5 -18z" />
    <glyph glyph-name="fl" unicode="fl" horiz-adv-x="644" 
d="M129 0v584q0 45 20 80t55 55t81 20q32 0 60 -12t45 -32l-35 -79q-13 12 -28.5 19.5t-29.5 7.5q-21 0 -35.5 -6.5t-21.5 -20t-7 -32.5v-584h-52h-26h-26zM45 421v95h312v-95h-312zM467 0v740h103v-740h-103z" />
    <glyph glyph-name="f_f" unicode="ff" horiz-adv-x="786" 
d="M129 0v584q0 45 20 80t55 55t81 20q32 0 60 -12t45 -32l-35 -79q-13 12 -28.5 19.5t-29.5 7.5q-21 0 -35.5 -6.5t-21.5 -20t-7 -32.5v-584h-52h-26h-26zM45 421v95h312v-95h-312zM522 0v584q0 45 20 80t55 55t81 20q32 0 60 -12t45 -32l-35 -79q-13 12 -28.5 19.5
t-29.5 7.5q-21 0 -35.5 -6.5t-21.5 -20t-7 -32.5v-584h-52h-26h-26zM438 421v95h312v-95h-312z" />
    <glyph glyph-name="f_f_i" unicode="ffi" horiz-adv-x="1064" 
d="M129 0v584q0 45 20 80t55 55t81 20q32 0 60 -12t45 -32l-35 -79q-13 12 -28.5 19.5t-29.5 7.5q-21 0 -35.5 -6.5t-21.5 -20t-7 -32.5v-584h-52h-26h-26zM45 421v95h312v-95h-312zM522 0v584q0 45 20 80t55 55t81 20q32 0 60 -12t45 -32l-35 -79q-13 12 -28.5 19.5
t-29.5 7.5q-21 0 -35.5 -6.5t-21.5 -20t-7 -32.5v-584h-52h-26h-26zM438 421v95h312v-95h-312zM875 0v525h103v-525h-103zM925 641q-33 0 -51 17t-18 48q0 29 18.5 47t50.5 18q33 0 51 -17t18 -48q0 -29 -18.5 -47t-50.5 -18z" />
    <glyph glyph-name="f_f_l" unicode="ffl" horiz-adv-x="1037" 
d="M129 0v584q0 45 20 80t55 55t81 20q32 0 60 -12t45 -32l-35 -79q-13 12 -28.5 19.5t-29.5 7.5q-21 0 -35.5 -6.5t-21.5 -20t-7 -32.5v-584h-52h-26h-26zM45 421v95h312v-95h-312zM522 0v584q0 45 20 80t55 55t81 20q32 0 60 -12t45 -32l-35 -79q-13 12 -28.5 19.5
t-29.5 7.5q-21 0 -35.5 -6.5t-21.5 -20t-7 -32.5v-584h-52h-26h-26zM438 421v95h312v-95h-312zM860 0v740h103v-740h-103z" />
    <glyph glyph-name=".notdef" horiz-adv-x="584" 
d="M75 0q-35 0 -35 35v630q0 35 35 35h434q35 0 35 -35v-630q0 -35 -35 -35h-434zM75 30h413q3 0 4 2t-1 4l-415 599q-2 3 -4 2.5t-2 -4.5v-598q0 -5 5 -5zM508 65q2 -3 4 -2.5t2 4.5v598q0 5 -5 5h-414q-3 0 -4 -2t1 -4z" />
    <glyph glyph-name=".null" 
 />
    <glyph glyph-name="nonmarkingreturn" horiz-adv-x="333" 
 />
    <glyph glyph-name="CR" unicode="&#xd;" horiz-adv-x="277" 
 />
    <glyph glyph-name="space" unicode=" " horiz-adv-x="280" 
 />
    <glyph glyph-name="exclam" unicode="!" horiz-adv-x="236" 
d="M87 241q-7 63 -12.5 130.5t-8.5 133.5t-3 125v70h108v-70q0 -62 -3 -130t-8.5 -134.5t-12.5 -124.5h-60zM114 -11q-33 0 -51 19.5t-18 55.5q0 33 19 54t50 21q33 0 51 -19.5t18 -55.5q0 -33 -19 -54t-50 -21z" />
    <glyph glyph-name="quotedbl" unicode="&#x22;" horiz-adv-x="412" 
d="M245 442l24 258h116l-80 -258h-60zM37 442l23 258h118l-81 -258h-60z" />
    <glyph glyph-name="numbersign" unicode="#" horiz-adv-x="678" 
d="M367 0l120 700h90l-120 -700h-90zM31 173v83h579v-83h-579zM101 0l120 700h90l-120 -700h-90zM69 453v83h578v-83h-578z" />
    <glyph glyph-name="dollar" unicode="$" horiz-adv-x="624" 
d="M314 -10q-86 0 -151.5 34t-112.5 102l74 85q49 -70 94 -97t107 -27q38 0 69 12t49 33t18 48q0 18 -6 34t-18.5 29t-32 24t-45.5 19.5t-60 14.5q-72 14 -119.5 42t-71 71t-23.5 100q0 42 18.5 78t51 62.5t76.5 41t95 14.5q81 0 141.5 -31.5t95.5 -91.5l-76 -75
q-30 49 -71.5 75t-92.5 26q-39 0 -68 -12t-45.5 -33.5t-16.5 -50.5q0 -21 8 -38.5t24.5 -31t44.5 -24t67 -18.5q55 -12 98 -30.5t73 -43.5t45.5 -56t15.5 -67q0 -67 -31 -116t-88 -75.5t-136 -26.5zM254 -91v454l97 -33v-421h-97zM391 330l-97 33v419h97v-452z" />
    <glyph glyph-name="percent" unicode="%" horiz-adv-x="839" 
d="M129 0l463 700h103l-468 -700h-98zM193 329q-45 0 -79.5 24.5t-54 67t-19.5 97.5t19.5 98.5t54.5 68t80 24.5t79.5 -24.5t54 -68t19.5 -98.5q0 -53 -20 -96t-55 -68t-79 -25zM194 404q21 0 36.5 14t24 39.5t8.5 60.5t-8.5 61t-24 40t-37.5 14q-21 0 -37 -14.5t-24.5 -40
t-8.5 -60.5t8.5 -60.5t24.5 -39.5t38 -14zM636 -9q-45 0 -79.5 25t-54.5 67.5t-20 96.5q0 55 19.5 98.5t54.5 68t80 24.5t79.5 -24.5t54 -68t19.5 -98.5q0 -53 -20 -96t-54.5 -68t-78.5 -25zM636 65q21 0 37 14.5t24.5 40t8.5 60.5t-8.5 60.5t-24.5 40t-37 14.5
q-22 0 -38 -14t-24.5 -40t-8.5 -61t8.5 -60.5t24.5 -40t38 -14.5z" />
    <glyph glyph-name="ampersand" unicode="&#x26;" horiz-adv-x="739" 
d="M575 0l-91 97l-16 18l-173 193q-25 28 -48 57.5t-40.5 58.5t-28 56.5t-10.5 51.5q0 51 26.5 91.5t73 63.5t107.5 23q45 0 84 -16.5t67.5 -46t41.5 -68.5l-78 -50q-19 46 -46.5 67t-68.5 21q-31 0 -52 -9.5t-32 -27.5t-11 -45q0 -22 12.5 -48.5t31.5 -53.5t39 -50t35 -40
l139 -155l29 -32l143 -156h-134zM306 -10q-71 0 -129 30.5t-92.5 81t-34.5 110.5q0 79 43.5 137t127.5 89l64 -77q-64 -14 -95 -46.5t-31 -87.5q0 -42 20 -74t57.5 -50t89.5 -18q45 0 82.5 17.5t67.5 49.5t49.5 77t28.5 100h92q-8 -61 -28.5 -113t-51 -94t-70 -71.5
t-87.5 -45t-103 -15.5z" />
    <glyph glyph-name="quotesingle" unicode="'" horiz-adv-x="205" 
d="M37 442l23 258h118l-81 -258h-60z" />
    <glyph glyph-name="parenleft" unicode="(" horiz-adv-x="366" 
d="M290 -186q-122 76 -186 190t-64 254q0 139 64.5 253.5t186.5 190.5l55 -62q-102 -71 -155.5 -169.5t-53.5 -212.5t53.5 -212.5t155.5 -169.5z" />
    <glyph glyph-name="parenright" unicode=")" horiz-adv-x="366" 
d="M75 -186l-55 62q102 71 155.5 169.5t53.5 212.5t-53.5 212.5t-155.5 169.5l56 62q122 -76 186 -190t64 -254q0 -139 -64.5 -253.5t-186.5 -190.5z" />
    <glyph glyph-name="asterisk" unicode="*" horiz-adv-x="387" 
d="M159 376l8 115h5l-103 -70l-37 65l112 54l-2 -5l-112 54l38 64l104 -70l-5 2l-8 115h75l-9 -127l-8 8l103 70l37 -65l-113 -55v11l112 -55l-37 -64l-104 70l11 -2l8 -115h-75z" />
    <glyph glyph-name="plus" unicode="+" horiz-adv-x="591" 
d="M45 235v90h501v-90h-501zM242 42v483h105v-483h-105z" />
    <glyph glyph-name="comma" unicode="," horiz-adv-x="267" 
d="M88 -179l-38 46q35 20 57 46t22 45q0 10 -5 19.5t-21 26.5q-20 19 -26 32t-6 28q0 24 17 38.5t44 14.5q25 0 45.5 -14.5t32 -40t11.5 -58.5q0 -30 -10 -58t-28 -52t-42 -43t-53 -30z" />
    <glyph glyph-name="hyphen" unicode="-" horiz-adv-x="394" 
d="M53 235v102h288v-102h-288z" />
    <glyph glyph-name="period" unicode="." horiz-adv-x="228" 
d="M114 -11q-33 0 -51 19.5t-18 55.5q0 33 19 54t50 21q33 0 51 -19.5t18 -55.5q0 -33 -19 -54t-50 -21z" />
    <glyph glyph-name="slash" unicode="/" horiz-adv-x="557" 
d="M18 -132l412 832h99l-411 -832h-100z" />
    <glyph glyph-name="zero" unicode="0" horiz-adv-x="607" 
d="M303 -10q-80 0 -137.5 44t-88.5 124.5t-31 191.5t31 191.5t88.5 124.5t137.5 44t138 -44t89 -124.5t31 -191.5t-31 -191.5t-89 -124.5t-138 -44zM303 88q73 0 113 68.5t40 193.5t-40 193.5t-113 68.5t-113 -68.5t-40 -193.5t40 -193.5t113 -68.5z" />
    <glyph glyph-name="one" unicode="1" horiz-adv-x="500" 
d="M217 49v568l37 -28l-138 -73l-29 94l187 100h52v-661h-109zM106 0v104h334v-104h-334z" />
    <glyph glyph-name="two" unicode="2" horiz-adv-x="548" 
d="M93 0l-33 82l214 241q17 18 35.5 41.5t35.5 48.5t27.5 49.5t10.5 46.5q0 32 -12.5 54.5t-36 34.5t-56.5 12q-29 0 -57 -17t-51 -48t-36 -72l-83 52q17 58 51.5 99.5t83 63.5t105.5 22q59 0 105 -24.5t72 -68t26 -100.5q0 -23 -5 -47t-16 -49.5t-28 -53t-40.5 -57.5
t-53.5 -63l-159 -173l-20 30h344v-104h-423z" />
    <glyph glyph-name="three" unicode="3" horiz-adv-x="529" 
d="M251 -10q-74 0 -128.5 34t-102.5 114l84 53q25 -37 49.5 -60.5t50.5 -34.5t55 -11q35 0 65 17.5t48 48.5t18 70t-14 66.5t-41 42t-64 14.5q-17 0 -35.5 -3.5t-39.5 -10t-46 -16.5l-30 79l216 238l21 -31h-298v100h401l20 -40l-229 -254l-25 26q8 4 26.5 7.5t30.5 3.5
q44 0 82.5 -16.5t67 -46t45 -69t16.5 -84.5q0 -68 -32.5 -121.5t-87.5 -84.5t-123 -31z" />
    <glyph glyph-name="four" unicode="4" horiz-adv-x="620" 
d="M352 0v564l25 -6l-230 -281l-4 12h435v-99h-502l-46 90l343 420h83v-700h-104z" />
    <glyph glyph-name="five" unicode="5" horiz-adv-x="568" 
d="M257 -7q-69 0 -125 31.5t-93 90.5l60 67q47 -52 82 -71t76 -19t74 18t52.5 49t19.5 69q0 40 -18.5 71.5t-49.5 50t-70 18.5q-19 0 -36 -2.5t-41 -11.5t-63 -28l-57 77l41 297h378v-100h-310l21 19l-33 -222l-25 29q10 10 34 19.5t53.5 16t56.5 6.5q64 0 114.5 -29.5
t80 -81.5t29.5 -119q0 -69 -33 -124.5t-90 -88t-128 -32.5z" />
    <glyph glyph-name="six" unicode="6" horiz-adv-x="557" 
d="M283 0q-52 0 -96.5 18.5t-77 51.5t-51 78t-18.5 99q0 27 7.5 60.5t23 73.5t37.5 84.5t51 92.5l91 154h105l4 -10l-110 -185q-30 -51 -53.5 -97t-39.5 -86.5t-24 -73.5l-24 103q19 31 41 54.5t47.5 39.5t53.5 24t58 8q58 0 106.5 -31.5t78 -83.5t29.5 -114
q0 -75 -30.5 -133.5t-84.5 -92.5t-124 -34zM283 100q39 0 69.5 18.5t48 52t17.5 76.5q0 37 -18 69.5t-48 52.5t-67 20q-41 0 -73 -19t-50 -51t-18 -71q0 -42 18 -75.5t49 -53t72 -19.5z" />
    <glyph glyph-name="seven" unicode="7" horiz-adv-x="542" 
d="M112 0l290 632l12 -32h-354v100h433l14 -69l-279 -631h-116z" />
    <glyph glyph-name="eight" unicode="8" horiz-adv-x="579" 
d="M289 -3q-65 0 -118.5 27.5t-85.5 73.5t-32 102q0 31 8.5 58.5t26 50.5t42.5 42t58 34l-6 -21q-26 10 -46.5 24.5t-35.5 33.5t-22.5 41t-7.5 46q0 53 29.5 96t79 69t110.5 26t110.5 -26t79 -69t29.5 -96q0 -24 -7.5 -46t-21.5 -40t-35.5 -33t-48.5 -26l-3 17
q30 -12 54.5 -31t42.5 -43t27.5 -51t9.5 -56q0 -57 -32 -103t-85.5 -73t-119.5 -27zM289 97q37 0 66.5 14t46.5 38t17 55q0 33 -17 58.5t-46.5 40.5t-66.5 15t-66 -15t-46 -40.5t-17 -58.5q0 -30 17 -54t46 -38.5t66 -14.5zM289 414q32 0 57.5 12t40 32.5t14.5 47.5
t-14.5 48t-40 33.5t-57.5 12.5t-57.5 -12.5t-40 -33.5t-14.5 -48t14.5 -47.5t40 -32.5t57.5 -12z" />
    <glyph glyph-name="nine" unicode="9" horiz-adv-x="551" 
d="M228 0l-4 10l208 442l3 -83q-18 -30 -39.5 -53t-47 -39.5t-52.5 -25t-55 -8.5q-57 0 -105 30t-77 80t-29 109q0 71 32 127.5t87.5 89.5t124.5 33q50 0 94 -18t77 -50.5t52 -75t19 -90.5q0 -25 -5 -53.5t-16.5 -64t-30.5 -81t-47 -105.5l-83 -174h-106zM264 343
q39 0 70 17.5t48.5 47t17.5 66.5q0 39 -17 70.5t-47.5 49.5t-69.5 18q-36 0 -64 -17.5t-44.5 -48t-16.5 -71.5q0 -35 16.5 -65t44.5 -48.5t62 -18.5z" />
    <glyph glyph-name="colon" unicode=":" horiz-adv-x="228" 
d="M114 -10q-33 0 -51 19.5t-18 55.5q0 33 19 54t50 21q33 0 51 -19.5t18 -55.5q0 -33 -19 -54t-50 -21zM114 385q-33 0 -51 19.5t-18 55.5q0 33 19 54t50 21q33 0 51 -19.5t18 -55.5q0 -33 -19 -54t-50 -21z" />
    <glyph glyph-name="semicolon" unicode=";" horiz-adv-x="262" 
d="M83 -179l-38 46q35 20 57 46t22 45q0 10 -5 19.5t-21 26.5q-20 19 -26 32t-6 28q0 24 17 38.5t44 14.5q25 0 45.5 -14.5t32 -40t11.5 -58.5q0 -30 -10 -58t-28 -52t-42 -43t-53 -30zM132 385q-33 0 -51 19.5t-18 55.5q0 33 19 54t50 21q33 0 51 -19.5t18 -55.5
q0 -33 -19 -54t-50 -21z" />
    <glyph glyph-name="less" unicode="&#x3c;" horiz-adv-x="524" 
d="M411 4l-361 207v81l361 207l48 -75l-359 -206v67l359 -206z" />
    <glyph glyph-name="equal" unicode="=" horiz-adv-x="566" 
d="M50 331v90h466v-90h-466zM50 142v89h466v-89h-466z" />
    <glyph glyph-name="greater" unicode="&#x3e;" horiz-adv-x="524" 
d="M113 4l-48 75l359 206v-67l-359 206l48 75l361 -207v-81z" />
    <glyph glyph-name="question" unicode="?" horiz-adv-x="511" 
d="M193 211l-26 141q39 10 70 22.5t53.5 27t37.5 31.5t22.5 36.5t7.5 41.5q0 29 -15.5 52t-42.5 36t-61 13q-40 0 -77.5 -27.5t-64.5 -77.5l-75 63q43 66 102.5 102.5t124.5 36.5q63 0 113 -26t79.5 -71t29.5 -101q0 -33 -13.5 -64.5t-38.5 -59.5t-58.5 -50t-73.5 -36
l-17 -90h-77zM158 64q0 33 19 54t50 21q33 0 51 -19.5t18 -55.5q0 -33 -19 -54t-50 -21q-33 0 -51 19.5t-18 55.5z" />
    <glyph glyph-name="at" unicode="@" horiz-adv-x="965" 
d="M414 -162q-87 0 -156.5 26.5t-118 75t-74 116.5t-25.5 150q0 117 41.5 210.5t115 159t171 100t208.5 34.5q80 0 144 -22.5t110 -64.5t70.5 -99.5t24.5 -127.5q0 -68 -19.5 -129.5t-54.5 -109t-81.5 -75t-100.5 -27.5q-35 0 -61.5 12.5t-41.5 34.5t-15 53q0 15 3.5 32
t5.5 35l14 -20q-15 -47 -40.5 -80t-59.5 -50t-74 -17q-43 0 -76.5 23t-52.5 64t-19 95q0 47 17 95t49 88t76 65t97 25q31 0 55.5 -15t40 -42t18.5 -63l-24 -59l26 170h101l-51 -308q-3 -19 2.5 -31.5t16.5 -18.5t24 -6q30 0 56 20t45 55.5t30 81.5t11 97q0 75 -32 128.5
t-92.5 82t-145.5 28.5q-102 0 -185 -28.5t-141.5 -83t-90 -132.5t-31.5 -177q0 -69 19.5 -122.5t56.5 -91.5t92 -57.5t125 -19.5q47 0 81 6.5t65 20t69 33.5l37 -67q-59 -30 -101 -45.5t-78 -21.5t-76 -6zM423 140q34 0 65.5 21.5t54 55t27.5 69.5q3 18 5 31t2 25
q0 26 -10 44.5t-28.5 28.5t-43.5 10q-39 0 -71 -28.5t-51 -73t-19 -91.5q0 -43 18.5 -67.5t50.5 -24.5z" />
    <glyph glyph-name="A" unicode="A" horiz-adv-x="700" 
d="M25 0l271 700h110l269 -700h-115l-160 422q-3 7 -11.5 34t-19.5 60t-20 60.5t-12 35.5l23 1q-6 -17 -14.5 -43t-18 -55t-18.5 -54.5l-15 -42.5l-159 -418h-110zM145 174l40 104h318l46 -104h-404z" />
    <glyph glyph-name="B" unicode="B" horiz-adv-x="681" 
d="M98 0v700h292q67 0 113 -20t69.5 -59.5t23.5 -96.5t-31.5 -97t-87.5 -55v20q47 -10 82 -35.5t54.5 -63.5t19.5 -87q0 -50 -15.5 -88.5t-46 -64.5t-73.5 -39.5t-98 -13.5h-302zM206 104h188q41 0 69.5 12t44 35.5t15.5 56.5q0 31 -16.5 53t-46.5 33.5t-71 11.5h-183v-202z
M206 410h178q30 0 53.5 12t37 33t13.5 48q0 45 -30 69t-86 24h-166v-186z" />
    <glyph glyph-name="C" unicode="C" horiz-adv-x="679" 
d="M382 -10q-73 0 -134 26t-106 74.5t-69.5 114.5t-24.5 145q0 75 26.5 139.5t73.5 113.5t109 76t134 27q51 0 99.5 -15.5t88 -43t64.5 -62.5l-72 -75q-29 29 -58.5 48.5t-60 29.5t-61.5 10q-49 0 -91.5 -18.5t-74 -51.5t-49.5 -78.5t-18 -99.5q0 -57 17.5 -103.5
t49.5 -79.5t76.5 -50.5t98.5 -17.5q33 0 65 9t60 26t51 40l54 -88q-23 -27 -62.5 -49t-88 -34.5t-97.5 -12.5z" />
    <glyph glyph-name="D" unicode="D" horiz-adv-x="748" 
d="M98 0v700h274q75 0 135.5 -25t103.5 -72t66 -111t23 -142t-23 -142.5t-65.5 -111t-103.5 -71.5t-136 -25h-274zM206 93l-3 11h164q53 0 94.5 17t70 48.5t43.5 77.5t15 103t-15 102.5t-44 77.5t-70 49t-94 17h-167l6 9v-512z" />
    <glyph glyph-name="E" unicode="E" horiz-adv-x="614" 
d="M98 0v700h441v-104h-333v-492h333v-104h-441zM147 307v104h337v-104h-337z" />
    <glyph glyph-name="F" unicode="F" horiz-adv-x="602" 
d="M98 0v700h108v-700h-108zM146 298v104h361v-104h-361zM146 596v104h406v-104h-406z" />
    <glyph glyph-name="G" unicode="G" horiz-adv-x="766" 
d="M411 -10q-76 0 -142 27.5t-116 76.5t-77.5 114.5t-27.5 141.5q0 75 27.5 140t77 113.5t115.5 75.5t142 27q53 0 103.5 -15t91.5 -42t67 -62l-70 -73q-30 29 -61.5 48t-64.5 29t-66 10q-54 0 -99.5 -19t-80 -53t-53.5 -79.5t-19 -99.5q0 -52 20 -98.5t55.5 -81.5t82 -55
t98.5 -20q39 0 74 11.5t62 32.5t42 48.5t15 58.5v20l15 -14h-214v107h310q2 -11 3 -21.5t1.5 -20t0.5 -18.5q0 -69 -24 -125.5t-66.5 -97.5t-99 -63.5t-122.5 -22.5z" />
    <glyph glyph-name="H" unicode="H" horiz-adv-x="761" 
d="M555 0v700h108v-700h-108zM98 0v700h108v-700h-108zM145 297v104h458v-104h-458z" />
    <glyph glyph-name="I" unicode="I" horiz-adv-x="478" 
d="M72 0v100h113v500h-113v100h334v-100h-113v-500h113v-100h-334z" />
    <glyph glyph-name="J" unicode="J" horiz-adv-x="642" 
d="M256 -10q-34 0 -65 9t-57.5 26t-47.5 40.5t-36 51.5l68 71q21 -30 38.5 -48t33.5 -28t32 -13.5t34 -3.5q36 0 63 16.5t42 45.5t15 66v377h-128v100h344v-100h-108v-387q0 -48 -16.5 -88.5t-47 -70.5t-72 -47t-92.5 -17z" />
    <glyph glyph-name="K" unicode="K" horiz-adv-x="732" 
d="M188 212l-6 121l367 367h142zM98 0v700h108v-700h-108zM562 0l-268 358l80 69l323 -427h-135z" />
    <glyph glyph-name="L" unicode="L" horiz-adv-x="599" 
d="M98 0v700h108v-596h328v-104h-436z" />
    <glyph glyph-name="M" unicode="M" horiz-adv-x="864" 
d="M98 0v700h106l255 -415l-51 1l258 414h100v-700h-108v287q0 90 4.5 162t15.5 143l14 -37l-229 -354h-66l-222 350l11 41q11 -67 15.5 -137.5t4.5 -167.5v-287h-108z" />
    <glyph glyph-name="N" unicode="N" horiz-adv-x="793" 
d="M98 0v700h97l428 -573l-16 -9q-4 25 -7 54.5t-5.5 63t-4 71t-2.5 78.5t-1 85v230h108v-700h-99l-421 552l11 14q5 -61 8.5 -103.5t6 -72t3.5 -48t1.5 -30.5t0.5 -21v-291h-108z" />
    <glyph glyph-name="O" unicode="O" horiz-adv-x="782" 
d="M391 -10q-74 0 -136.5 27t-109 75.5t-72 114t-25.5 143.5t25.5 143.5t72 114t109 75.5t136.5 27t136.5 -27t109 -76t72 -114.5t25.5 -142.5t-25.5 -142.5t-72 -114.5t-109 -76t-136.5 -27zM391 95q51 0 93.5 19t73.5 53.5t48.5 81t17.5 101.5t-17.5 101.5t-48.5 81
t-73.5 53.5t-93.5 19t-93.5 -19t-74 -53t-48.5 -80.5t-17 -102.5q0 -55 17 -102t48.5 -81t74 -53t93.5 -19z" />
    <glyph glyph-name="P" unicode="P" horiz-adv-x="634" 
d="M98 0v700h285q57 0 103.5 -28.5t74.5 -77.5t28 -109t-28 -109t-74.5 -78.5t-103.5 -29.5h-177v-268h-108zM206 372h175q27 0 49 15.5t35.5 41t13.5 56.5t-13.5 56t-35.5 40t-49 15h-175v-224z" />
    <glyph glyph-name="Q" unicode="Q" horiz-adv-x="782" 
d="M613 -110l-265 347l89 59l262 -344zM391 -10q-74 0 -136.5 27t-109 75.5t-72 114t-25.5 143.5t25.5 143.5t72 114t109 75.5t136.5 27t136.5 -27t109 -76t72 -114.5t25.5 -142.5t-25.5 -142.5t-72 -114.5t-109 -76t-136.5 -27zM391 95q51 0 93.5 19t73.5 53.5t48.5 81
t17.5 101.5t-17.5 101.5t-48.5 81t-73.5 53.5t-93.5 19t-93.5 -19t-74 -53t-48.5 -80.5t-17 -102.5q0 -55 17 -102t48.5 -81t74 -53t93.5 -19z" />
    <glyph glyph-name="R" unicode="R" horiz-adv-x="695" 
d="M98 0v700h298q60 0 110.5 -29.5t80.5 -80t30 -113.5q0 -57 -30 -106t-80 -78.5t-111 -29.5h-190v-263h-108zM514 0l-178 316l111 25l198 -342zM206 367h200q29 0 52 14.5t36 40t13 56.5q0 35 -16.5 61.5t-46 41.5t-66.5 15h-172v-229z" />
    <glyph glyph-name="S" unicode="S" horiz-adv-x="624" 
d="M314 -10q-57 0 -105.5 15t-88 45.5t-70.5 75.5l74 85q49 -70 94 -97t107 -27q38 0 69 12t49 33t18 48q0 18 -6 34t-18.5 29t-32 24t-45.5 19.5t-60 14.5q-54 11 -94 29t-67 45t-40 61.5t-13 77.5q0 42 18.5 78t51 62.5t76.5 41t95 14.5q54 0 99 -14t80 -41.5t58 -67.5
l-76 -75q-20 33 -45 55.5t-55 34t-64 11.5q-39 0 -68 -12t-45.5 -33.5t-16.5 -50.5q0 -21 8 -38.5t24.5 -31t44.5 -24t67 -18.5q55 -12 98 -30.5t73 -43.5t45.5 -56t15.5 -67q0 -67 -31 -116t-88 -75.5t-136 -26.5z" />
    <glyph glyph-name="T" unicode="T" horiz-adv-x="576" 
d="M231 0v596h-196v104h506v-104h-202v-596h-108z" />
    <glyph glyph-name="U" unicode="U" horiz-adv-x="740" 
d="M370 -6q-81 0 -145 35.5t-100.5 98t-36.5 141.5v432h108v-423q0 -51 24 -91.5t63.5 -64.5t86.5 -24q50 0 90.5 24t64.5 64.5t24 91.5v423h103v-432q0 -79 -36.5 -141.5t-100.5 -98t-145 -35.5z" />
    <glyph glyph-name="V" unicode="V" horiz-adv-x="715" 
d="M304 0l-280 700h123l167 -425q12 -31 21.5 -56t16.5 -45.5t13 -38.5l12 -36l-26 -1q7 24 15 50t18.5 57t25.5 70l155 425h126l-282 -700h-105z" />
    <glyph glyph-name="W" unicode="W" horiz-adv-x="996" 
d="M247 0l-223 700h115l135 -438q6 -16 11 -37.5t9 -43.5t7.5 -41t6.5 -31l-29 1q15 53 23.5 82t13.5 44.5t9 26.5l126 316h97l122 -316q10 -24 17.5 -47.5t13.5 -47t13 -49.5l-26 -7q5 27 7.5 42.5t4.5 25.5t4 19.5t6.5 24.5t12.5 41l133 435h116l-223 -700h-75l-185 438
l9 -4l-178 -434h-73z" />
    <glyph glyph-name="X" unicode="X" horiz-adv-x="685" 
d="M524 0l-217 314l-278 386h137l212 -310l283 -390h-137zM24 0l267 381l67 -79l-207 -302h-127zM394 325l-66 76l196 299h127z" />
    <glyph glyph-name="Y" unicode="Y" horiz-adv-x="660" 
d="M286 0v349l7 -49l-283 400h130l216 -310l-25 3l195 307h124l-271 -411l15 68v-357h-108z" />
    <glyph glyph-name="Z" unicode="Z" horiz-adv-x="659" 
d="M60 0v79l399 534l15 -17h-388v104h507v-78l-397 -535l-16 17h424v-104h-544z" />
    <glyph glyph-name="bracketleft" unicode="[" horiz-adv-x="403" 
d="M80 -190v890h257v-79h-170l6 8v-752l-10 12h174v-79h-257z" />
    <glyph glyph-name="backslash" unicode="\" horiz-adv-x="557" 
d="M446 -107l-398 807h99l400 -807h-101z" />
    <glyph glyph-name="bracketright" unicode="]" horiz-adv-x="403" 
d="M66 -190v79h170l-6 -8v752l10 -12h-174v79h257v-890h-257z" />
    <glyph glyph-name="asciicircum" unicode="^" horiz-adv-x="579" 
d="M29 368l211 359h100l211 -359h-115l-155 265l20 3l-159 -268h-113z" />
    <glyph glyph-name="underscore" unicode="_" horiz-adv-x="690" 
d="M53 -160v78h584v-78h-584z" />
    <glyph glyph-name="grave" unicode="`" horiz-adv-x="500" 
d="M320 606l-174 94l65 82l143 -125z" />
    <glyph glyph-name="a" unicode="a" horiz-adv-x="633" 
d="M274 -10q-65 0 -118.5 36t-85.5 98t-32 140q0 79 32.5 140.5t88 96.5t124.5 35q41 0 75 -12t59.5 -33.5t42 -49.5t20.5 -60l-23 8v136h104v-525h-104v125l24 7q-6 -27 -24.5 -52.5t-47 -45.5t-63 -32t-72.5 -12zM301 85q47 0 83 23t56.5 63.5t20.5 92.5q0 51 -20.5 91
t-56.5 63t-83 23q-46 0 -81.5 -23t-56 -63t-20.5 -91q0 -52 20.5 -92.5t56 -63.5t81.5 -23z" />
    <glyph glyph-name="b" unicode="b" horiz-adv-x="630" 
d="M348 -10q-34 0 -67.5 11t-61 29.5t-46 41t-24.5 45.5l26 14v-128h-103v737h103v-335l-16 9q5 23 22 44.5t43.5 39t57.5 28t63 10.5q71 0 126 -35t87 -96.5t32 -140.5t-31.5 -141t-86.5 -97.5t-124 -35.5zM331 84q46 0 82 23.5t57 64t21 92.5q0 51 -20.5 91.5t-56.5 63.5
t-83 23t-83 -23t-57 -63.5t-21 -91.5q0 -52 21 -92.5t57 -64t83 -23.5z" />
    <glyph glyph-name="c" unicode="c" horiz-adv-x="535" 
d="M295 -10q-73 0 -130.5 36t-91 98t-33.5 139t33.5 139t91 98t130.5 36q70 0 127.5 -28.5t87.5 -77.5l-57 -70q-16 23 -41 42t-53 30t-54 11q-48 0 -85.5 -23.5t-59.5 -64.5t-22 -92t23 -91.5t61 -64.5t84 -24q27 0 52.5 9t49.5 27t45 44l57 -70q-32 -45 -91.5 -74
t-123.5 -29z" />
    <glyph glyph-name="d" unicode="d" horiz-adv-x="634" 
d="M291 -10q-72 0 -128.5 35.5t-89.5 97t-33 140.5t32.5 140.5t88.5 97t127 35.5q39 0 75.5 -12.5t65.5 -34t45.5 -47t16.5 -51.5l-30 -2v351h103v-740h-103v125h20q0 -24 -16 -47.5t-42.5 -43.5t-61 -32t-70.5 -12zM305 79q47 0 83 24t56.5 65.5t20.5 94.5t-20.5 94.5
t-56.5 65.5t-83 24t-83 -24t-56.5 -65.5t-20.5 -94.5t20.5 -94.5t56.5 -65.5t83 -24z" />
    <glyph glyph-name="e" unicode="e" horiz-adv-x="586" 
d="M317 -10q-81 0 -143.5 34.5t-98 94.5t-35.5 138q0 62 20 113t55.5 88.5t85 58t107.5 20.5q51 0 95 -19.5t76.5 -53.5t50 -80.5t16.5 -101.5l-1 -44h-429l-23 82h363l-15 -17v24q-3 33 -22 59t-48 41t-63 15q-54 0 -91 -20.5t-56 -60t-19 -97.5q0 -55 23 -95.5t65 -62.5
t97 -22q39 0 72.5 13t72.5 47l52 -73q-24 -24 -58.5 -42t-73 -28.5t-75.5 -10.5z" />
    <glyph glyph-name="f" unicode="f" horiz-adv-x="393" 
d="M129 0v584q0 45 20 80t55 55t81 20q32 0 60 -12t45 -32l-35 -79q-13 12 -28.5 19.5t-29.5 7.5q-21 0 -35.5 -6.5t-21.5 -20t-7 -32.5v-584h-52h-26h-26zM45 421v95h312v-95h-312z" />
    <glyph glyph-name="g" unicode="g" horiz-adv-x="649" 
d="M307 -230q-56 0 -111.5 17.5t-89.5 45.5l38 80q20 -15 47 -26.5t57 -18t59 -6.5q55 0 92 18t56 53t19 87v101l11 -7q-5 -31 -32.5 -59.5t-68.5 -46.5t-84 -18q-75 0 -133.5 35.5t-92.5 97t-34 140.5t33.5 140.5t92 97t131.5 35.5q30 0 58 -7.5t52 -21t43 -29.5t31 -34
t15 -34l-22 -8v123h103v-493q0 -63 -18.5 -111.5t-53.5 -82t-85 -51t-113 -17.5zM311 85q49 0 87 23t59 63t21 92t-21.5 92.5t-59 63.5t-86.5 23q-48 0 -85.5 -23.5t-59 -64t-21.5 -91.5t21.5 -91.5t59 -63.5t85.5 -23z" />
    <glyph glyph-name="h" unicode="h" horiz-adv-x="595" 
d="M72 0v740h103v-323l-18 -12q10 35 39 64.5t69 48t82 18.5q60 0 100 -23.5t60 -71.5t20 -121v-320h-103v313q0 45 -12 74.5t-37 43t-62 11.5q-30 0 -55 -9.5t-43.5 -26.5t-29 -39.5t-10.5 -48.5v-318h-51h-26h-26z" />
    <glyph glyph-name="i" unicode="i" horiz-adv-x="278" 
d="M89 0v525h103v-525h-103zM139 641q-33 0 -51 17t-18 48q0 29 18.5 47t50.5 18q33 0 51 -17t18 -48q0 -29 -18.5 -47t-50.5 -18z" />
    <glyph glyph-name="j" unicode="j" horiz-adv-x="265" 
d="M9 -197l-39 79q39 0 64.5 13.5t38.5 40t13 65.5v524h103v-549q0 -51 -22.5 -90t-63 -61t-94.5 -22zM140 641q-33 0 -51 17t-18 48q0 29 18.5 47t50.5 18q33 0 51 -17t18 -48q0 -29 -18.5 -47t-50.5 -18z" />
    <glyph glyph-name="k" unicode="k" horiz-adv-x="568" 
d="M166 164l-5 112l251 249h139zM72 0v740h103v-740h-103zM426 0l-198 231l73 67l257 -298h-132z" />
    <glyph glyph-name="l" unicode="l" horiz-adv-x="251" 
d="M74 0v740h103v-740h-103z" />
    <glyph glyph-name="m" unicode="m" horiz-adv-x="921" 
d="M70 0v525h104v-112l-19 -12q8 26 25.5 50t43 42.5t55 29.5t60.5 11q45 0 79 -15t56 -45t32 -75l-16 4l7 17q11 23 30.5 43.5t44.5 36.5t53 25t55 9q59 0 97.5 -24t58 -73t19.5 -122v-315h-104v309q0 45 -11.5 73.5t-34.5 42.5t-59 14q-28 0 -52.5 -9.5t-42.5 -26.5
t-28 -39.5t-10 -49.5v-314h-104v311q0 41 -12 69.5t-35 43.5t-56 15q-28 0 -52 -9.5t-42 -26t-28 -39t-10 -48.5v-316h-104z" />
    <glyph glyph-name="n" unicode="n" horiz-adv-x="595" 
d="M72 0v525h103v-108l-18 -12q10 35 39 64.5t69 48t82 18.5q60 0 100 -23.5t60 -71.5t20 -121v-320h-103v313q0 45 -12 74.5t-37 43t-62 11.5q-30 0 -55 -9.5t-43.5 -26.5t-29 -39.5t-10.5 -48.5v-318h-51h-26h-26z" />
    <glyph glyph-name="o" unicode="o" horiz-adv-x="615" 
d="M308 -10q-77 0 -137.5 35.5t-95.5 97t-35 140.5t35 140.5t95.5 97t137.5 35.5q76 0 136.5 -35.5t95.5 -97t35 -140.5t-35 -140.5t-95.5 -97t-136.5 -35.5zM308 84q47 0 84 23.5t58 64t20 91.5q1 52 -20 92.5t-58 63.5t-84 23t-84.5 -23.5t-58.5 -64t-20 -91.5
q-1 -51 20 -91.5t58.5 -64t84.5 -23.5z" />
    <glyph glyph-name="p" unicode="p" horiz-adv-x="631" 
d="M72 -220v745h104v-120l-16 9q6 30 34 57.5t68.5 45t83.5 17.5q71 0 126 -35t87 -96t32 -140q0 -78 -31.5 -139.5t-86.5 -97t-124 -35.5q-46 0 -89 18.5t-73 47.5t-37 60l26 14v-351h-104zM332 86q46 0 82 23t57 63t21 91t-20.5 90.5t-56.5 62.5t-83 23t-83 -22.5
t-57 -62.5t-21 -91t21 -91t57 -63t83 -23z" />
    <glyph glyph-name="q" unicode="q" horiz-adv-x="630" 
d="M455 -220v345h20q0 -24 -16 -47.5t-43 -43.5t-60 -32t-68 -12q-71 0 -127 35.5t-88.5 97t-32.5 140.5t32 140.5t87.5 97t125.5 35.5q39 0 74.5 -13t64 -34t45 -46.5t16.5 -51.5l-30 -2v137h103v-746h-103zM299 85q47 0 83 23t56.5 63t20.5 92t-20.5 92.5t-56.5 63.5
t-83 23t-83 -23.5t-56.5 -64t-20.5 -91.5t20.5 -91.5t56.5 -63.5t83 -23z" />
    <glyph glyph-name="r" unicode="r" horiz-adv-x="403" 
d="M72 0v525h104v-165l-10 40q11 38 37.5 69t61 49t71.5 18q17 0 32.5 -3t24.5 -7l-27 -112q-12 5 -26.5 8.5t-28.5 3.5q-27 0 -51.5 -10.5t-43 -29t-29.5 -43t-11 -53.5v-290h-104z" />
    <glyph glyph-name="s" unicode="s" horiz-adv-x="479" 
d="M247 -10q-66 0 -119 23t-88 68l70 60q30 -35 65.5 -50.5t80.5 -15.5q18 0 33.5 4.5t27 13.5t17.5 21.5t6 27.5q0 26 -19 42q-10 7 -31.5 15.5t-55.5 17.5q-58 15 -95 34t-57 43q-15 19 -22 41.5t-7 49.5q0 33 14.5 60.5t40 48t60 31.5t73.5 11q37 0 73.5 -10t67.5 -29
t52 -45l-59 -65q-19 19 -41.5 33.5t-45.5 22.5t-42 8q-21 0 -38 -4t-28.5 -12t-17.5 -20t-6 -27q1 -13 6.5 -24.5t15.5 -19.5q11 -8 33 -17t56 -17q50 -13 82.5 -28.5t51.5 -35.5q20 -19 28 -44t8 -56q0 -45 -25.5 -80.5t-68.5 -55.5t-96 -20z" />
    <glyph glyph-name="t" unicode="t" horiz-adv-x="384" 
d="M137 0v659h103v-659h-103zM28 425v100h334v-100h-334z" />
    <glyph glyph-name="u" unicode="u" horiz-adv-x="605" 
d="M256 -10q-56 0 -97.5 26t-64 73t-22.5 112v324h103v-296q0 -46 14.5 -79.5t42 -51.5t66.5 -18q29 0 53 9.5t41.5 26.5t27.5 41t10 52v316h103v-525h-103v110l18 12q-12 -37 -40.5 -67t-67.5 -47.5t-84 -17.5z" />
    <glyph glyph-name="v" unicode="v" horiz-adv-x="573" 
d="M244 0l-222 525h111l160 -393l-19 -9l171 402h106l-233 -525h-74z" />
    <glyph glyph-name="w" unicode="w" horiz-adv-x="800" 
d="M201 0l-179 525l104 1l128 -393l-23 2l139 307h62l140 -308l-27 -2l129 393h104l-177 -525h-71l-146 334l23 -3l-136 -331h-70z" />
    <glyph glyph-name="x" unicode="x" horiz-adv-x="562" 
d="M421 0l-170 221l-15 19l-221 285h130l167 -218l17 -22l218 -285h-126zM16 0l207 270l61 -73l-146 -197h-122zM335 254l-57 72l129 199h122z" />
    <glyph glyph-name="y" unicode="y" horiz-adv-x="581" 
d="M160 -230l106 245l1 -82l-262 592h120l164 -386q5 -10 12 -30.5t12 -40.5l-26 -6q8 21 15.5 42t14.5 42l137 379h122l-216 -525l-89 -230h-111z" />
    <glyph glyph-name="z" unicode="z" horiz-adv-x="484" 
d="M50 0v86l271 362v-12h-271v89h383v-84l-267 -357l-4 5h277v-89h-389z" />
    <glyph glyph-name="braceleft" unicode="{" horiz-adv-x="411" 
d="M369 -200q-49 10 -84 25.5t-57.5 38.5t-33 55t-10.5 74l1 95q0 58 -25.5 90.5t-72.5 33.5h-43v76h45q47 1 71.5 33t24.5 91l-1 95q0 82 43 127t142 66l18 -69q-43 -14 -67.5 -30t-34.5 -41.5t-10 -66.5l2 -95q0 -58 -26.5 -96t-76.5 -53l-1 3q51 -17 77.5 -55t26.5 -95
l-2 -95q0 -41 10 -66t34.5 -41t67.5 -31z" />
    <glyph glyph-name="bar" unicode="|" horiz-adv-x="231" 
d="M67 -193v933h97v-933h-97z" />
    <glyph glyph-name="braceright" unicode="}" horiz-adv-x="411" 
d="M42 -200l-18 69q43 14 67 30t34.5 41.5t10.5 66.5l-2 95q0 58 26.5 96t76.5 53l1 -3q-51 17 -77.5 55t-26.5 95l2 95q0 41 -10 66t-34 41.5t-68 30.5l18 69q49 -10 84 -25.5t57.5 -38.5t33 -55t10.5 -74l-1 -95q0 -58 25.5 -90.5t72.5 -33.5h43v-76h-45q-47 -1 -71.5 -33
t-24.5 -91l1 -95q0 -82 -43 -127t-142 -66z" />
    <glyph glyph-name="asciitilde" unicode="~" horiz-adv-x="510" 
d="M356 225q-15 0 -37 6t-43.5 14t-36.5 13q-14 6 -31.5 12t-33 10.5t-23.5 4.5q-18 0 -27.5 -15t-9.5 -43h-74q0 68 31.5 105t90.5 37q12 0 27.5 -3.5t31 -9t30.5 -11t26 -10.5q14 -5 30.5 -11t31 -10.5t22.5 -4.5q17 0 27 13.5t8 34.5l74 -3q0 -42 -13 -70.5t-38.5 -43.5
t-62.5 -15z" />
    <glyph glyph-name="uni00A0" unicode="&#xa0;" horiz-adv-x="280" 
 />
    <glyph glyph-name="exclamdown" unicode="&#xa1;" horiz-adv-x="236" 
d="M141 289q7 -63 12.5 -130.5t8.5 -133.5t3 -125v-70h-108v70q0 62 3 130t8.5 134.5t12.5 124.5h60zM114 541q33 0 51 -19.5t18 -55.5q0 -33 -19 -54t-50 -21q-33 0 -51 19.5t-18 55.5q0 33 19 54t50 21z" />
    <glyph glyph-name="cent" unicode="&#xa2;" horiz-adv-x="535" 
d="M295 78q-73 0 -130.5 36t-91 98t-33.5 139t33.5 139t91 98t130.5 36q70 0 127.5 -28.5t87.5 -77.5l-57 -70q-16 23 -41 42t-53 30t-54 11q-48 0 -85.5 -23.5t-59.5 -64.5t-22 -92t23 -91.5t61 -64.5t84 -24q27 0 52.5 9t49.5 27t45 44l57 -70q-32 -45 -91.5 -74
t-123.5 -29zM239 0v108l7 37v418l-7 43v94h97v-95l-7 -33v-431l7 -34v-107h-97z" />
    <glyph glyph-name="sterling" unicode="&#xa3;" horiz-adv-x="610" 
d="M197 53l-75 21q15 8 27 27t19 45t7 55q0 14 -1.5 28t-4.5 31.5t-9.5 39.5t-16.5 52q-12 37 -18 61t-8.5 41t-2.5 33q0 67 28 117.5t78.5 78t119.5 27.5q67 0 116.5 -22.5t72.5 -62.5l-74 -56q-15 16 -33 26.5t-38.5 16t-43.5 5.5q-37 0 -65.5 -17t-44.5 -46.5t-16 -67.5
q0 -31 10.5 -67.5t20.5 -65.5q10 -30 20 -64.5t10 -64.5t-8.5 -58.5t-25.5 -56t-44 -56.5zM425 -21q-23 0 -56.5 9t-55.5 16q-13 4 -31 9t-36 9t-32 4q-32 0 -69.5 -8.5t-74.5 -23.5l-40 71q39 24 87 36.5t97 12.5q29 0 53 -5t67 -20q21 -7 45 -14.5t46 -7.5q28 0 56 8.5
t57 26.5l52 -65q-31 -28 -74.5 -43t-90.5 -15zM44 323v85h408v-85h-408z" />
    <glyph glyph-name="currency" unicode="&#xa4;" horiz-adv-x="550" 
d="M279 122q-49 0 -89.5 24t-64.5 65t-24 91t24 91t64.5 65t89.5 24t89.5 -24.5t64.5 -65.5t24 -90q0 -50 -24 -91t-64.5 -65t-89.5 -24zM129 82l-71 70l92 98l71 -71zM148 359l-98 92l70 70l98 -92zM279 210q25 0 43.5 12t29 32.5t10.5 47.5t-10.5 48t-29 33t-43.5 12
q-24 0 -42.5 -12t-29 -33t-10.5 -48t10.5 -47.5t29 -32.5t42.5 -12zM428 90l-98 92l70 70l98 -92zM407 362l-70 70l92 98l71 -70z" />
    <glyph glyph-name="yen" unicode="&#xa5;" horiz-adv-x="660" 
d="M286 0v349l7 -49l-283 400h130l216 -310l-25 3l195 307h124l-271 -411l15 68v-357h-108zM146 90v86l412 -2v-86zM146 230v86l412 -2v-86z" />
    <glyph glyph-name="brokenbar" unicode="&#xa6;" horiz-adv-x="239" 
d="M71 -202v400h97v-400h-97zM71 341v399h97v-399h-97z" />
    <glyph glyph-name="section" unicode="&#xa7;" horiz-adv-x="549" 
d="M323 128l-12 62q36 4 59 15t34 27t11 34q0 23 -15.5 38t-50.5 25l-129 38q-9 3 -29.5 13t-42.5 29.5t-38 50.5t-16 76q0 38 13 70t38.5 55.5t63 36.5t86.5 13q37 0 70 -9t60.5 -27.5t50.5 -46.5l-57 -66q-17 18 -37.5 30.5t-43.5 18.5t-48 6q-42 0 -70 -21t-28 -55
q0 -17 8.5 -32t26.5 -27t46 -20l93 -27q77 -22 113.5 -61t33.5 -96q-3 -49 -27 -82t-65.5 -49.5t-97.5 -18.5zM274 -134q-38 0 -78.5 11.5t-77 32t-63.5 46.5l50 79q36 -35 81.5 -56.5t86.5 -21.5q50 0 78.5 18.5t28.5 53.5q0 17 -10 30t-27 23t-40 17l-118 36
q-70 21 -104 59.5t-34 95.5q0 43 20.5 77.5t59.5 55.5t94 21l10 -70q-23 -3 -40.5 -13.5t-27 -25.5t-9.5 -35q0 -24 19 -42.5t62 -30.5l95 -27q37 -10 71 -30t55.5 -51.5t21.5 -77.5q0 -51 -23 -90.5t-68 -62t-113 -22.5z" />
    <glyph glyph-name="dieresis" unicode="&#xa8;" horiz-adv-x="500" 
d="M350 642q-33 0 -51 17t-18 48q0 29 18.5 47t50.5 18q33 0 51 -17t18 -48q0 -29 -18.5 -47t-50.5 -18zM150 642q-33 0 -51 17t-18 48q0 29 18.5 47t50.5 18q33 0 51 -17t18 -48q0 -29 -18.5 -47t-50.5 -18z" />
    <glyph glyph-name="copyright" unicode="&#xa9;" horiz-adv-x="786" 
d="M393 -7q-75 0 -139.5 27.5t-113.5 76.5t-76.5 113.5t-27.5 139.5t27.5 139.5t76.5 113.5t113.5 76.5t139.5 27.5q74 0 138.5 -27.5t114 -76.5t77 -113.5t27.5 -139.5t-27.5 -139.5t-77 -113.5t-114 -76.5t-138.5 -27.5zM411 142q-60 0 -108.5 27t-77 74t-28.5 107
q0 57 28.5 104t77 75t108.5 28q34 0 67 -11.5t62 -33.5l-37 -75q-19 14 -35 22.5t-30 12.5t-27 4q-37 0 -66 -17t-45.5 -45.5t-16.5 -63.5q0 -37 16.5 -66t45.5 -45t66 -16q23 0 47 9.5t49 28.5l37 -76q-30 -21 -64 -32t-69 -11zM393 67q59 0 110.5 22t90 60.5t60.5 90
t22 110.5q0 60 -22 111t-60.5 90t-90 60.5t-110.5 21.5t-110.5 -21.5t-90 -60.5t-60.5 -90t-22 -111q0 -59 22 -110.5t60.5 -90t90 -60.5t110.5 -22z" />
    <glyph glyph-name="ordfeminine" unicode="&#xaa;" horiz-adv-x="365" 
d="M143 391q-39 0 -68 21.5t-44.5 60t-15.5 89.5q0 46 18 82t49.5 56.5t72.5 20.5q49 0 75.5 -33.5t26.5 -95.5l-15 56v67h93v-314h-93v73l15 38q0 -30 -15.5 -58t-41.5 -45.5t-57 -17.5zM172 458q22 0 38.5 12t26 34t9.5 51q0 46 -20 72.5t-55 26.5q-17 0 -31.5 -12.5
t-23 -33.5t-8.5 -46q0 -32 7.5 -55.5t22 -36t34.5 -12.5z" />
    <glyph glyph-name="guillemotleft" unicode="&#xab;" horiz-adv-x="486" 
d="M383 50l-159 207v2l158 212l63 -45l-119 -171l1 11l119 -171zM170 50l-159 207v2l158 212l63 -45l-119 -171l1 11l119 -171z" />
    <glyph glyph-name="logicalnot" unicode="&#xac;" horiz-adv-x="670" 
d="M515 117v202l19 -12h-484v97h570v-287h-105z" />
    <glyph glyph-name="uni00AD" unicode="&#xad;" horiz-adv-x="394" 
d="M53 235v102h288v-102h-288z" />
    <glyph glyph-name="registered" unicode="&#xae;" horiz-adv-x="507" 
d="M259 259q-64 0 -116 30t-83 81t-31 114q0 47 18 88t49.5 71.5t73 48t89.5 17.5q47 0 88.5 -17.5t73 -48.5t49.5 -71.5t18 -87.5t-18 -88t-49 -71.5t-72.5 -48t-89.5 -17.5zM259 322q46 0 83.5 21.5t60 58.5t22.5 82t-22.5 82t-60 59t-83.5 22q-47 0 -85 -22t-60.5 -59
t-22.5 -82t22.5 -82t60.5 -58.5t85 -21.5zM292 367l-37 100l53 14l44 -114h-60zM172 367v239h110q33 0 53.5 -20t20.5 -52t-21.5 -52.5t-52.5 -20.5h-71l18 9v-103h-57zM229 495l-16 7h49q17 0 28 7.5t11 19.5q0 13 -9.5 20t-27.5 7h-54l19 8v-69z" />
    <glyph glyph-name="macron" unicode="&#xaf;" horiz-adv-x="424" 
d="M108 642v75h284v-75h-284z" />
    <glyph glyph-name="degree" unicode="&#xb0;" horiz-adv-x="532" 
d="M266 399q-44 0 -79.5 20.5t-56 55.5t-20.5 78q0 44 20.5 79.5t55.5 56t80 20.5t80 -20.5t55.5 -56t20.5 -78.5t-20.5 -78.5t-56 -56t-79.5 -20.5zM266 466q23 0 41 12t29 32t11 44t-11 44t-29 31.5t-41 11.5t-41.5 -11.5t-29 -31.5t-10.5 -45q0 -24 11 -44t29 -31.5
t41 -11.5z" />
    <glyph glyph-name="plusminus" unicode="&#xb1;" horiz-adv-x="582" 
d="M50 285v90h482v-90h-482zM50 -1v92h482v-92h-482zM240 143v391h104v-391h-104z" />
    <glyph glyph-name="uni00B2" unicode="&#xb2;" horiz-adv-x="346" 
d="M65 418l-9 71l99 99q9 8 22 21t23 29.5t10 33.5q0 16 -9 25.5t-26 9.5t-37.5 -12.5t-41.5 -41.5l-54 40q15 26 37 45.5t48 30t55 10.5q33 0 57.5 -13t38.5 -35.5t14 -51.5q0 -28 -15 -53.5t-35 -47t-37 -37.5l-67 -65l4 9h154v-67h-231z" />
    <glyph glyph-name="uni00B3" unicode="&#xb3;" horiz-adv-x="342" 
d="M165 412q-19 0 -38.5 4.5t-37.5 12t-32 17.5l33 55q19 -12 35.5 -17.5t33.5 -5.5q28 0 45.5 14.5t17.5 39.5q0 20 -15.5 32.5t-41.5 12.5q-13 0 -28.5 -3.5t-27.5 -8.5l-21 57l102 88l19 -6h-130v68h186l7 -66l-99 -82l-13 7q5 3 13 5t13 2q52 0 81.5 -28.5t29.5 -76.5
q0 -35 -17.5 -62.5t-47.5 -43t-67 -15.5z" />
    <glyph glyph-name="acute" unicode="&#xb4;" horiz-adv-x="500" 
d="M180 606l-34 51l143 125l65 -82z" />
    <glyph glyph-name="uni00B5" unicode="&#xb5;" horiz-adv-x="586" 
d="M80 -157v682h97v-303q0 -47 12 -78.5t36 -47.5t59 -16q29 0 53.5 11t42.5 30.5t28.5 45t10.5 55.5v303h97v-525h-97v114l7 -14q-12 -36 -36 -60.5t-55.5 -37t-65.5 -12.5q-21 0 -41.5 7.5t-36 21t-21.5 30.5l7 13v-219h-97z" />
    <glyph glyph-name="paragraph" unicode="&#xb6;" horiz-adv-x="712" 
d="M246 0v314l24 -35h-34q-54 0 -96.5 27t-67 73.5t-24.5 106.5q0 65 28 113t78.5 74.5t118.5 26.5h341v-700h-108v660l16 -64h-212l44 56v-652h-108z" />
    <glyph glyph-name="periodcentered" unicode="&#xb7;" horiz-adv-x="228" 
d="M114 253q-33 0 -51 19.5t-18 55.5q0 33 19 54t50 21q33 0 51 -19.5t18 -55.5q0 -33 -19 -54t-50 -21z" />
    <glyph glyph-name="cedilla" unicode="&#xb8;" horiz-adv-x="500" 
d="M159 -244l-7 53q24 0 50 8t44 20.5t18 24.5q0 14 -17 22t-38 12t-35 4l-13 10l72 114h59l-43 -70q50 -10 75 -34t25 -59q0 -26 -17.5 -46t-45.5 -33.5t-61.5 -20t-65.5 -5.5z" />
    <glyph glyph-name="uni00B9" unicode="&#xb9;" horiz-adv-x="281" 
d="M126 429v274l6 -18l-50 -32l-35 66l98 58h56v-348h-37h-19h-19z" />
    <glyph glyph-name="ordmasculine" unicode="&#xba;" horiz-adv-x="354" 
d="M176 392q-45 0 -80 20.5t-55.5 56t-20.5 80.5q0 46 20.5 82.5t55.5 57.5t80 21t80.5 -21.5t56.5 -58t21 -81.5t-20.5 -80.5t-56.5 -56t-81 -20.5zM176 463q21 0 36.5 11t24 30.5t8.5 44.5q0 27 -8.5 47t-24 31.5t-36.5 11.5t-36 -11.5t-23.5 -31.5t-8.5 -47
q0 -25 8.5 -44.5t24 -30.5t35.5 -11z" />
    <glyph glyph-name="guillemotright" unicode="&#xbb;" horiz-adv-x="491" 
d="M320 50l-63 45l119 171l-1 -11l-119 171l63 45l159 -207v-2zM104 50l-63 45l119 171l-1 -11l-119 171l63 45l159 -207v-2z" />
    <glyph glyph-name="onequarter" unicode="&#xbc;" horiz-adv-x="793" 
d="M133 359v274l6 -18l-50 -32l-35 66l98 58h56v-348h-37h-19h-19zM111 0l467 700h99l-468 -700h-98zM674 149h77v-68h-77v68zM508 115l-16 34h141l-18 -19v154l29 -11zM690 -2h-75v102l13 -19h-155l-17 69l168 206h66v-358z" />
    <glyph glyph-name="onehalf" unicode="&#xbd;" horiz-adv-x="785" 
d="M133 359v274l6 -18l-50 -32l-35 66l98 58h56v-348h-37h-19h-19zM113 0l467 700h99l-468 -700h-98zM522 0l-9 71l99 99q9 8 22 21t23 29.5t10 33.5q0 16 -9 25.5t-26 9.5t-37.5 -12.5t-41.5 -41.5l-54 40q15 26 37 45.5t48 30t55 10.5q33 0 57.5 -13t38.5 -35.5t14 -51.5
q0 -28 -15 -53.5t-35 -47t-37 -37.5l-67 -65l4 9h154v-67h-231z" />
    <glyph glyph-name="threequarters" unicode="&#xbe;" horiz-adv-x="791" 
d="M128 342q-19 0 -38.5 4.5t-37.5 12t-32 17.5l33 55q19 -12 35.5 -17.5t33.5 -5.5q28 0 45.5 14.5t17.5 39.5q0 20 -15.5 32.5t-41.5 12.5q-13 0 -28.5 -3.5t-27.5 -8.5l-21 57l102 88l19 -6h-130v68h186l7 -66l-99 -82l-13 7q5 3 13 5t13 2q52 0 81.5 -28.5t29.5 -76.5
q0 -35 -17.5 -62.5t-47.5 -43t-67 -15.5zM121 0l467 700h99l-468 -700h-98zM672 149h77v-68h-77v68zM506 115l-16 34h141l-18 -19v154l29 -11zM688 -2h-75v102l13 -19h-155l-17 69l168 206h66v-358z" />
    <glyph glyph-name="questiondown" unicode="&#xbf;" horiz-adv-x="511" 
d="M300 323l26 -141q-39 -10 -70 -22.5t-53.5 -27t-37.5 -31.5t-22.5 -36.5t-7.5 -41.5q0 -29 15.5 -52t42.5 -36t61 -13q40 0 77.5 27.5t64.5 77.5l75 -63q-43 -66 -102.5 -102.5t-124.5 -36.5q-63 0 -113 26t-79.5 71t-29.5 101q0 33 13.5 64.5t38.5 59.5t58.5 50t73.5 36
l17 90h77zM335 470q0 -33 -19 -54t-50 -21q-33 0 -51 19.5t-18 55.5q0 33 19 54t50 21q33 0 51 -19.5t18 -55.5z" />
    <glyph glyph-name="Agrave" unicode="&#xc0;" horiz-adv-x="700" 
d="M25 0l271 700h110l269 -700h-115l-160 422q-3 7 -11.5 34t-19.5 60t-20 60.5t-12 35.5l23 1q-6 -17 -14.5 -43t-18 -55t-18.5 -54.5l-15 -42.5l-159 -418h-110zM145 174l40 104h318l46 -104h-404zM426 755l-202 75l49 90l183 -113z" />
    <glyph glyph-name="Aacute" unicode="&#xc1;" horiz-adv-x="700" 
d="M25 0l271 700h110l269 -700h-115l-160 422q-3 7 -11.5 34t-19.5 60t-20 60.5t-12 35.5l23 1q-6 -17 -14.5 -43t-18 -55t-18.5 -54.5l-15 -42.5l-159 -418h-110zM145 174l40 104h318l46 -104h-404zM282 755l-28 52l183 113l47 -90z" />
    <glyph glyph-name="Acircumflex" unicode="&#xc2;" horiz-adv-x="700" 
d="M25 0l271 700h110l269 -700h-115l-160 422q-3 7 -11.5 34t-19.5 60t-20 60.5t-12 35.5l23 1q-6 -17 -14.5 -43t-18 -55t-18.5 -54.5l-15 -42.5l-159 -418h-110zM145 174l40 104h318l46 -104h-404zM226 755l-37 35l124 101h73l124 -101l-37 -35l-138 65h29z" />
    <glyph glyph-name="Atilde" unicode="&#xc3;" horiz-adv-x="700" 
d="M25 0l271 700h110l269 -700h-115l-160 422q-3 7 -11.5 34t-19.5 60t-20 60.5t-12 35.5l23 1q-6 -17 -14.5 -43t-18 -55t-18.5 -54.5l-15 -42.5l-159 -418h-110zM145 174l40 104h318l46 -104h-404zM424 768q-23 0 -46.5 7.5t-44.5 15.5q-17 7 -29 11t-22 4
q-13 0 -21.5 -9.5t-8.5 -28.5h-77q0 54 35 83.5t79 29.5q21 0 41 -7t39 -15q14 -6 27.5 -10t22.5 -4q14 0 22 10t7 26h76q0 -29 -12 -55t-34.5 -42t-53.5 -16z" />
    <glyph glyph-name="Adieresis" unicode="&#xc4;" horiz-adv-x="700" 
d="M25 0l271 700h110l269 -700h-115l-160 422q-3 7 -11.5 34t-19.5 60t-20 60.5t-12 35.5l23 1q-6 -17 -14.5 -43t-18 -55t-18.5 -54.5l-15 -42.5l-159 -418h-110zM145 174l40 104h318l46 -104h-404zM453 759q-35 0 -52 18t-17 47q0 25 17 45t52 20t52 -18t17 -47
q0 -25 -17 -45t-52 -20zM247 759q-35 0 -52 18t-17 47q0 25 17 45t52 20t52 -18t17 -47q0 -25 -17 -45t-52 -20z" />
    <glyph glyph-name="Aring" unicode="&#xc5;" horiz-adv-x="700" 
d="M25 0l271 700h110l269 -700h-115l-160 422q-3 7 -11.5 34t-19.5 60t-20 60.5t-12 35.5l23 1q-6 -17 -14.5 -43t-18 -55t-18.5 -54.5l-15 -42.5l-159 -418h-110zM145 174l40 104h318l46 -104h-404zM349 679q-28 0 -53 14.5t-40.5 38.5t-15.5 52q0 30 15.5 54t40.5 38
t53 14q29 0 54 -14t40.5 -38t15.5 -54q0 -28 -15.5 -52t-40.5 -38.5t-54 -14.5zM349 738q21 0 35.5 13.5t14.5 32.5q0 23 -15 35t-35 12t-34.5 -13t-14.5 -34q0 -19 14.5 -32.5t34.5 -13.5z" />
    <glyph glyph-name="AE" unicode="&#xc6;" horiz-adv-x="969" 
d="M5 0l488 700h401v-93h-328v-205h283v-94h-283v-215h328v-93h-429v153h-262l63 92h199v313l25 -8l-376 -550h-109z" />
    <glyph glyph-name="Ccedilla" unicode="&#xc7;" horiz-adv-x="679" 
d="M382 -10q-73 0 -134 26t-106 74.5t-69.5 114.5t-24.5 145q0 75 26.5 139.5t73.5 113.5t109 76t134 27q51 0 99.5 -15.5t88 -43t64.5 -62.5l-72 -75q-29 29 -58.5 48.5t-60 29.5t-61.5 10q-49 0 -91.5 -18.5t-74 -51.5t-49.5 -78.5t-18 -99.5q0 -57 17.5 -103.5
t49.5 -79.5t76.5 -50.5t98.5 -17.5q33 0 65 9t60 26t51 40l54 -88q-23 -27 -62.5 -49t-88 -34.5t-97.5 -12.5zM284 -244l-7 53q24 0 50 8t44 20.5t18 24.5q0 14 -17 22t-38 12t-35 4l-13 10l72 114h59l-42 -70q49 -10 74 -34t25 -59q0 -26 -17 -46t-45 -33.5t-61.5 -20
t-66.5 -5.5z" />
    <glyph glyph-name="Egrave" unicode="&#xc8;" horiz-adv-x="614" 
d="M98 0v700h441v-104h-333v-492h333v-104h-441zM147 307v104h337v-104h-337zM403 755l-202 75l49 90l183 -113z" />
    <glyph glyph-name="Eacute" unicode="&#xc9;" horiz-adv-x="614" 
d="M98 0v700h441v-104h-333v-492h333v-104h-441zM147 307v104h337v-104h-337zM259 755l-28 52l183 113l47 -90z" />
    <glyph glyph-name="Ecircumflex" unicode="&#xca;" horiz-adv-x="614" 
d="M98 0v700h441v-104h-333v-492h333v-104h-441zM147 307v104h337v-104h-337zM203 755l-37 35l124 101h73l124 -101l-37 -35l-138 65h29z" />
    <glyph glyph-name="Edieresis" unicode="&#xcb;" horiz-adv-x="614" 
d="M98 0v700h441v-104h-333v-492h333v-104h-441zM147 307v104h337v-104h-337zM430 759q-35 0 -52 18t-17 47q0 25 17 45t52 20t52 -18t17 -47q0 -25 -17 -45t-52 -20zM224 759q-35 0 -52 18t-17 47q0 25 17 45t52 20t52 -18t17 -47q0 -25 -17 -45t-52 -20z" />
    <glyph glyph-name="Igrave" unicode="&#xcc;" horiz-adv-x="478" 
d="M72 0v100h113v500h-113v100h334v-100h-113v-500h113v-100h-334zM315 755l-202 75l49 90l183 -113z" />
    <glyph glyph-name="Iacute" unicode="&#xcd;" horiz-adv-x="478" 
d="M72 0v100h113v500h-113v100h334v-100h-113v-500h113v-100h-334zM171 755l-28 52l183 113l47 -90z" />
    <glyph glyph-name="Icircumflex" unicode="&#xce;" horiz-adv-x="478" 
d="M72 0v100h113v500h-113v100h334v-100h-113v-500h113v-100h-334zM115 755l-37 35l124 101h73l124 -101l-37 -35l-138 65h29z" />
    <glyph glyph-name="Idieresis" unicode="&#xcf;" horiz-adv-x="478" 
d="M72 0v100h113v500h-113v100h334v-100h-113v-500h113v-100h-334zM342 759q-35 0 -52 18t-17 47q0 25 17 45t52 20t52 -18t17 -47q0 -25 -17 -45t-52 -20zM136 759q-35 0 -52 18t-17 47q0 25 17 45t52 20t52 -18t17 -47q0 -25 -17 -45t-52 -20z" />
    <glyph glyph-name="Eth" unicode="&#xd0;" horiz-adv-x="748" 
d="M49 305v90h268v-90h-268zM98 0v700h274q75 0 135.5 -25t103.5 -72t66 -111t23 -142t-23 -142.5t-65.5 -111t-103.5 -71.5t-136 -25h-274zM206 93l-3 11h164q53 0 94.5 17t70 48.5t43.5 77.5t15 103t-15 102.5t-44 77.5t-70 49t-94 17h-167l6 9v-512z" />
    <glyph glyph-name="Ntilde" unicode="&#xd1;" horiz-adv-x="793" 
d="M98 0v700h97l428 -573l-16 -9q-4 25 -7 54.5t-5.5 63t-4 71t-2.5 78.5t-1 85v230h108v-700h-99l-421 552l11 14q5 -61 8.5 -103.5t6 -72t3.5 -48t1.5 -30.5t0.5 -21v-291h-108zM471 768q-23 0 -46.5 7.5t-44.5 15.5q-17 7 -29 11t-22 4q-13 0 -21.5 -9.5t-8.5 -28.5h-77
q0 54 35 83.5t79 29.5q21 0 41 -7t39 -15q14 -6 27.5 -10t22.5 -4q14 0 22 10t7 26h76q0 -29 -12 -55t-34.5 -42t-53.5 -16z" />
    <glyph glyph-name="Ograve" unicode="&#xd2;" horiz-adv-x="782" 
d="M391 -10q-74 0 -136.5 27t-109 75.5t-72 114t-25.5 143.5t25.5 143.5t72 114t109 75.5t136.5 27t136.5 -27t109 -76t72 -114.5t25.5 -142.5t-25.5 -142.5t-72 -114.5t-109 -76t-136.5 -27zM391 95q51 0 93.5 19t73.5 53.5t48.5 81t17.5 101.5t-17.5 101.5t-48.5 81
t-73.5 53.5t-93.5 19t-93.5 -19t-74 -53t-48.5 -80.5t-17 -102.5q0 -55 17 -102t48.5 -81t74 -53t93.5 -19zM467 755l-202 75l49 90l183 -113z" />
    <glyph glyph-name="Oacute" unicode="&#xd3;" horiz-adv-x="782" 
d="M391 -10q-74 0 -136.5 27t-109 75.5t-72 114t-25.5 143.5t25.5 143.5t72 114t109 75.5t136.5 27t136.5 -27t109 -76t72 -114.5t25.5 -142.5t-25.5 -142.5t-72 -114.5t-109 -76t-136.5 -27zM391 95q51 0 93.5 19t73.5 53.5t48.5 81t17.5 101.5t-17.5 101.5t-48.5 81
t-73.5 53.5t-93.5 19t-93.5 -19t-74 -53t-48.5 -80.5t-17 -102.5q0 -55 17 -102t48.5 -81t74 -53t93.5 -19zM323 755l-28 52l183 113l47 -90z" />
    <glyph glyph-name="Ocircumflex" unicode="&#xd4;" horiz-adv-x="782" 
d="M391 -10q-74 0 -136.5 27t-109 75.5t-72 114t-25.5 143.5t25.5 143.5t72 114t109 75.5t136.5 27t136.5 -27t109 -76t72 -114.5t25.5 -142.5t-25.5 -142.5t-72 -114.5t-109 -76t-136.5 -27zM391 95q51 0 93.5 19t73.5 53.5t48.5 81t17.5 101.5t-17.5 101.5t-48.5 81
t-73.5 53.5t-93.5 19t-93.5 -19t-74 -53t-48.5 -80.5t-17 -102.5q0 -55 17 -102t48.5 -81t74 -53t93.5 -19zM267 755l-37 35l124 101h73l124 -101l-37 -35l-138 65h29z" />
    <glyph glyph-name="Otilde" unicode="&#xd5;" horiz-adv-x="782" 
d="M391 -10q-74 0 -136.5 27t-109 75.5t-72 114t-25.5 143.5t25.5 143.5t72 114t109 75.5t136.5 27t136.5 -27t109 -76t72 -114.5t25.5 -142.5t-25.5 -142.5t-72 -114.5t-109 -76t-136.5 -27zM391 95q51 0 93.5 19t73.5 53.5t48.5 81t17.5 101.5t-17.5 101.5t-48.5 81
t-73.5 53.5t-93.5 19t-93.5 -19t-74 -53t-48.5 -80.5t-17 -102.5q0 -55 17 -102t48.5 -81t74 -53t93.5 -19zM465 768q-23 0 -46.5 7.5t-44.5 15.5q-17 7 -29 11t-22 4q-13 0 -21.5 -9.5t-8.5 -28.5h-77q0 54 35 83.5t79 29.5q21 0 41 -7t39 -15q14 -6 27.5 -10t22.5 -4
q14 0 22 10t7 26h76q0 -29 -12 -55t-34.5 -42t-53.5 -16z" />
    <glyph glyph-name="Odieresis" unicode="&#xd6;" horiz-adv-x="782" 
d="M391 -10q-74 0 -136.5 27t-109 75.5t-72 114t-25.5 143.5t25.5 143.5t72 114t109 75.5t136.5 27t136.5 -27t109 -76t72 -114.5t25.5 -142.5t-25.5 -142.5t-72 -114.5t-109 -76t-136.5 -27zM391 95q51 0 93.5 19t73.5 53.5t48.5 81t17.5 101.5t-17.5 101.5t-48.5 81
t-73.5 53.5t-93.5 19t-93.5 -19t-74 -53t-48.5 -80.5t-17 -102.5q0 -55 17 -102t48.5 -81t74 -53t93.5 -19zM494 759q-35 0 -52 18t-17 47q0 25 17 45t52 20t52 -18t17 -47q0 -25 -17 -45t-52 -20zM288 759q-35 0 -52 18t-17 47q0 25 17 45t52 20t52 -18t17 -47
q0 -25 -17 -45t-52 -20z" />
    <glyph glyph-name="multiply" unicode="&#xd7;" horiz-adv-x="484" 
d="M385 78l-350 348l64 60l350 -349zM98 71l-59 65l348 350l60 -64z" />
    <glyph glyph-name="Oslash" unicode="&#xd8;" horiz-adv-x="770" 
d="M123 -33l-63 53l589 721l68 -47zM390 -10q-74 0 -136.5 27t-109 75.5t-72 114t-25.5 143.5t25.5 143.5t72 114t109 75.5t136.5 27t136.5 -27t109 -76t72 -114.5t25.5 -142.5t-25.5 -142.5t-72 -114.5t-109 -76t-136.5 -27zM390 95q51 0 93.5 19t73.5 53.5t48.5 81
t17.5 101.5t-17.5 101.5t-48.5 81t-73.5 53.5t-93.5 19t-93.5 -19t-74 -53t-48.5 -80.5t-17 -102.5q0 -55 17 -102t48.5 -81t74 -53t93.5 -19z" />
    <glyph glyph-name="Ugrave" unicode="&#xd9;" horiz-adv-x="740" 
d="M370 -6q-81 0 -145 35.5t-100.5 98t-36.5 141.5v432h108v-423q0 -51 24 -91.5t63.5 -64.5t86.5 -24q50 0 90.5 24t64.5 64.5t24 91.5v423h103v-432q0 -79 -36.5 -141.5t-100.5 -98t-145 -35.5zM446 755l-202 75l49 90l183 -113z" />
    <glyph glyph-name="Uacute" unicode="&#xda;" horiz-adv-x="740" 
d="M370 -6q-81 0 -145 35.5t-100.5 98t-36.5 141.5v432h108v-423q0 -51 24 -91.5t63.5 -64.5t86.5 -24q50 0 90.5 24t64.5 64.5t24 91.5v423h103v-432q0 -79 -36.5 -141.5t-100.5 -98t-145 -35.5zM302 755l-28 52l183 113l47 -90z" />
    <glyph glyph-name="Ucircumflex" unicode="&#xdb;" horiz-adv-x="740" 
d="M370 -6q-81 0 -145 35.5t-100.5 98t-36.5 141.5v432h108v-423q0 -51 24 -91.5t63.5 -64.5t86.5 -24q50 0 90.5 24t64.5 64.5t24 91.5v423h103v-432q0 -79 -36.5 -141.5t-100.5 -98t-145 -35.5zM246 755l-37 35l124 101h73l124 -101l-37 -35l-138 65h29z" />
    <glyph glyph-name="Udieresis" unicode="&#xdc;" horiz-adv-x="740" 
d="M370 -6q-81 0 -145 35.5t-100.5 98t-36.5 141.5v432h108v-423q0 -51 24 -91.5t63.5 -64.5t86.5 -24q50 0 90.5 24t64.5 64.5t24 91.5v423h103v-432q0 -79 -36.5 -141.5t-100.5 -98t-145 -35.5zM473 759q-35 0 -52 18t-17 47q0 25 17 45t52 20t52 -18t17 -47
q0 -25 -17 -45t-52 -20zM267 759q-35 0 -52 18t-17 47q0 25 17 45t52 20t52 -18t17 -47q0 -25 -17 -45t-52 -20z" />
    <glyph glyph-name="Yacute" unicode="&#xdd;" horiz-adv-x="660" 
d="M286 0v349l7 -49l-283 400h130l216 -310l-25 3l195 307h124l-271 -411l15 68v-357h-108zM262 755l-28 52l183 113l47 -90z" />
    <glyph glyph-name="Thorn" unicode="&#xde;" horiz-adv-x="634" 
d="M98 0v700h108v-127h177q57 0 103.5 -28.5t74.5 -77.5t28 -109t-28 -109.5t-74.5 -78.5t-103.5 -29h-177v-141h-108zM206 245h175q27 0 49 15.5t35.5 41t13.5 56.5t-13.5 56t-35.5 40t-49 15h-175v-224z" />
    <glyph glyph-name="germandbls" unicode="&#xdf;" horiz-adv-x="664" 
d="M422 -10q-48 0 -84 16.5t-63 50.5l52 55q27 -24 50 -34t47 -10q46 0 73.5 34t27.5 87q0 39 -10.5 70t-33 55.5t-56.5 41.5t-81 29v65q29 12 50 25.5t35 28t21 30t7 31.5q0 37 -28.5 58t-78.5 21q-57 0 -90.5 -39t-33.5 -103v-502h-97v499q0 70 27.5 123t78 82.5
t119.5 29.5q61 0 105.5 -20.5t69 -56.5t24.5 -83q0 -27 -13 -53t-36.5 -47t-54.5 -35l-2 4q39 -12 71 -35t55.5 -54.5t36 -69.5t12.5 -81q0 -61 -26 -109t-71 -76t-103 -28zM45 404v93h135v-93h-135z" />
    <glyph glyph-name="agrave" unicode="&#xe0;" horiz-adv-x="633" 
d="M274 -10q-65 0 -118.5 36t-85.5 98t-32 140q0 79 32.5 140.5t88 96.5t124.5 35q41 0 75 -12t59.5 -33.5t42 -49.5t20.5 -60l-23 8v136h104v-525h-104v125l24 7q-6 -27 -24.5 -52.5t-47 -45.5t-63 -32t-72.5 -12zM301 85q47 0 83 23t56.5 63.5t20.5 92.5q0 51 -20.5 91
t-56.5 63t-83 23q-46 0 -81.5 -23t-56 -63t-20.5 -91q0 -52 20.5 -92.5t56 -63.5t81.5 -23zM367 606l-174 94l65 82l143 -125z" />
    <glyph glyph-name="aacute" unicode="&#xe1;" horiz-adv-x="633" 
d="M274 -10q-65 0 -118.5 36t-85.5 98t-32 140q0 79 32.5 140.5t88 96.5t124.5 35q41 0 75 -12t59.5 -33.5t42 -49.5t20.5 -60l-23 8v136h104v-525h-104v125l24 7q-6 -27 -24.5 -52.5t-47 -45.5t-63 -32t-72.5 -12zM301 85q47 0 83 23t56.5 63.5t20.5 92.5q0 51 -20.5 91
t-56.5 63t-83 23q-46 0 -81.5 -23t-56 -63t-20.5 -91q0 -52 20.5 -92.5t56 -63.5t81.5 -23zM247 606l-34 51l143 125l65 -82z" />
    <glyph glyph-name="acircumflex" unicode="&#xe2;" horiz-adv-x="633" 
d="M274 -10q-65 0 -118.5 36t-85.5 98t-32 140q0 79 32.5 140.5t88 96.5t124.5 35q41 0 75 -12t59.5 -33.5t42 -49.5t20.5 -60l-23 8v136h104v-525h-104v125l24 7q-6 -27 -24.5 -52.5t-47 -45.5t-63 -32t-72.5 -12zM301 85q47 0 83 23t56.5 63.5t20.5 92.5q0 51 -20.5 91
t-56.5 63t-83 23q-46 0 -81.5 -23t-56 -63t-20.5 -91q0 -52 20.5 -92.5t56 -63.5t81.5 -23zM197 607l-38 33l115 113h86l115 -113l-38 -33l-135 73h30z" />
    <glyph glyph-name="atilde" unicode="&#xe3;" horiz-adv-x="633" 
d="M274 -10q-65 0 -118.5 36t-85.5 98t-32 140q0 79 32.5 140.5t88 96.5t124.5 35q41 0 75 -12t59.5 -33.5t42 -49.5t20.5 -60l-23 8v136h104v-525h-104v125l24 7q-6 -27 -24.5 -52.5t-47 -45.5t-63 -32t-72.5 -12zM301 85q47 0 83 23t56.5 63.5t20.5 92.5q0 51 -20.5 91
t-56.5 63t-83 23q-46 0 -81.5 -23t-56 -63t-20.5 -91q0 -52 20.5 -92.5t56 -63.5t81.5 -23zM368 615q-20 0 -33.5 8t-28.5 20q-19 17 -28.5 23.5t-17.5 6.5q-13 0 -23 -14.5t-14 -43.5l-68 10q2 49 31.5 85t78.5 36q20 0 33.5 -8t28.5 -20q20 -16 29 -23t17 -7q14 0 23.5 15
t13.5 43l68 -10q-1 -32 -15 -60t-38 -44.5t-57 -16.5z" />
    <glyph glyph-name="adieresis" unicode="&#xe4;" horiz-adv-x="633" 
d="M274 -10q-65 0 -118.5 36t-85.5 98t-32 140q0 79 32.5 140.5t88 96.5t124.5 35q41 0 75 -12t59.5 -33.5t42 -49.5t20.5 -60l-23 8v136h104v-525h-104v125l24 7q-6 -27 -24.5 -52.5t-47 -45.5t-63 -32t-72.5 -12zM301 85q47 0 83 23t56.5 63.5t20.5 92.5q0 51 -20.5 91
t-56.5 63t-83 23q-46 0 -81.5 -23t-56 -63t-20.5 -91q0 -52 20.5 -92.5t56 -63.5t81.5 -23zM417 642q-33 0 -51 17t-18 48q0 29 18.5 47t50.5 18q33 0 51 -17t18 -48q0 -29 -18.5 -47t-50.5 -18zM217 642q-33 0 -51 17t-18 48q0 29 18.5 47t50.5 18q33 0 51 -17t18 -48
q0 -29 -18.5 -47t-50.5 -18z" />
    <glyph glyph-name="aring" unicode="&#xe5;" horiz-adv-x="633" 
d="M274 -10q-65 0 -118.5 36t-85.5 98t-32 140q0 79 32.5 140.5t88 96.5t124.5 35q41 0 75 -12t59.5 -33.5t42 -49.5t20.5 -60l-23 8v136h104v-525h-104v125l24 7q-6 -27 -24.5 -52.5t-47 -45.5t-63 -32t-72.5 -12zM301 85q47 0 83 23t56.5 63.5t20.5 92.5q0 51 -20.5 91
t-56.5 63t-83 23q-46 0 -81.5 -23t-56 -63t-20.5 -91q0 -52 20.5 -92.5t56 -63.5t81.5 -23zM316 604q-28 0 -53 14.5t-40.5 38.5t-15.5 52q0 29 15 53t40 38.5t54 14.5q30 0 55 -14.5t40 -38.5t15 -53q0 -28 -15 -52t-40 -38.5t-55 -14.5zM316 663q21 0 35.5 13.5t14.5 32.5
q0 21 -14.5 34t-35.5 13t-35 -13.5t-14 -33.5q0 -19 14.5 -32.5t34.5 -13.5z" />
    <glyph glyph-name="ae" unicode="&#xe6;" horiz-adv-x="899" 
d="M216 -10q-51 0 -91 20t-63.5 55.5t-23.5 83.5q0 42 15 74t45 53.5t74 32t102 10.5h495l-15 -17v24q-3 33 -22 59t-48 41t-63 15q-50 0 -84.5 -20t-52.5 -59.5t-18 -97.5q0 -53 25 -93.5t67.5 -63.5t95.5 -23q39 0 72.5 13t72.5 47l50 -75q-24 -23 -58 -41t-72 -28
t-75 -10q-81 0 -142 33.5t-95 94t-34 139.5q0 61 19 112t52.5 88.5t79 58t97.5 20.5q68 -1 122 -34t85 -90.5t31 -130.5l-1 -44h-597q-30 0 -53.5 -5.5t-40 -17t-24.5 -27t-8 -36.5q0 -22 11 -38.5t30 -25.5t44 -9q36 0 68.5 12.5t58 34.5t39.5 49l44 -67q-23 -35 -57 -61
t-74 -41t-83 -15zM373 257v99q0 18 -9 34t-24.5 27t-35.5 17.5t-42 6.5q-44 0 -79.5 -18t-64.5 -55l-67 67q29 33 62.5 55.5t71.5 34t79 11.5q47 0 84 -10t63.5 -28.5t40.5 -46t14 -63.5v-125z" />
    <glyph glyph-name="ccedilla" unicode="&#xe7;" horiz-adv-x="535" 
d="M295 -10q-73 0 -130.5 36t-91 98t-33.5 139t33.5 139t91 98t130.5 36q70 0 127.5 -28.5t87.5 -77.5l-57 -70q-16 23 -41 42t-53 30t-54 11q-48 0 -85.5 -23.5t-59.5 -64.5t-22 -92t23 -91.5t61 -64.5t84 -24q27 0 52.5 9t49.5 27t45 44l57 -70q-32 -45 -91.5 -74
t-123.5 -29zM204 -244l-7 53q24 0 50 8t44 20.5t18 24.5q0 14 -17 22t-38 12t-35 4l-13 10l72 114h59l-43 -70q50 -10 75 -34t25 -59q0 -26 -17.5 -46t-45.5 -33.5t-61.5 -20t-65.5 -5.5z" />
    <glyph glyph-name="egrave" unicode="&#xe8;" horiz-adv-x="586" 
d="M317 -10q-81 0 -143.5 34.5t-98 94.5t-35.5 138q0 62 20 113t55.5 88.5t85 58t107.5 20.5q51 0 95 -19.5t76.5 -53.5t50 -80.5t16.5 -101.5l-1 -44h-429l-23 82h363l-15 -17v24q-3 33 -22 59t-48 41t-63 15q-54 0 -91 -20.5t-56 -60t-19 -97.5q0 -55 23 -95.5t65 -62.5
t97 -22q39 0 72.5 13t72.5 47l52 -73q-24 -24 -58.5 -42t-73 -28.5t-75.5 -10.5zM358 606l-174 94l65 82l143 -125z" />
    <glyph glyph-name="eacute" unicode="&#xe9;" horiz-adv-x="586" 
d="M317 -10q-81 0 -143.5 34.5t-98 94.5t-35.5 138q0 62 20 113t55.5 88.5t85 58t107.5 20.5q51 0 95 -19.5t76.5 -53.5t50 -80.5t16.5 -101.5l-1 -44h-429l-23 82h363l-15 -17v24q-3 33 -22 59t-48 41t-63 15q-54 0 -91 -20.5t-56 -60t-19 -97.5q0 -55 23 -95.5t65 -62.5
t97 -22q39 0 72.5 13t72.5 47l52 -73q-24 -24 -58.5 -42t-73 -28.5t-75.5 -10.5zM238 606l-34 51l143 125l65 -82z" />
    <glyph glyph-name="ecircumflex" unicode="&#xea;" horiz-adv-x="586" 
d="M317 -10q-81 0 -143.5 34.5t-98 94.5t-35.5 138q0 62 20 113t55.5 88.5t85 58t107.5 20.5q51 0 95 -19.5t76.5 -53.5t50 -80.5t16.5 -101.5l-1 -44h-429l-23 82h363l-15 -17v24q-3 33 -22 59t-48 41t-63 15q-54 0 -91 -20.5t-56 -60t-19 -97.5q0 -55 23 -95.5t65 -62.5
t97 -22q39 0 72.5 13t72.5 47l52 -73q-24 -24 -58.5 -42t-73 -28.5t-75.5 -10.5zM188 607l-38 33l115 113h86l115 -113l-38 -33l-135 73h30z" />
    <glyph glyph-name="edieresis" unicode="&#xeb;" horiz-adv-x="586" 
d="M317 -10q-81 0 -143.5 34.5t-98 94.5t-35.5 138q0 62 20 113t55.5 88.5t85 58t107.5 20.5q51 0 95 -19.5t76.5 -53.5t50 -80.5t16.5 -101.5l-1 -44h-429l-23 82h363l-15 -17v24q-3 33 -22 59t-48 41t-63 15q-54 0 -91 -20.5t-56 -60t-19 -97.5q0 -55 23 -95.5t65 -62.5
t97 -22q39 0 72.5 13t72.5 47l52 -73q-24 -24 -58.5 -42t-73 -28.5t-75.5 -10.5zM408 642q-33 0 -51 17t-18 48q0 29 18.5 47t50.5 18q33 0 51 -17t18 -48q0 -29 -18.5 -47t-50.5 -18zM208 642q-33 0 -51 17t-18 48q0 29 18.5 47t50.5 18q33 0 51 -17t18 -48
q0 -29 -18.5 -47t-50.5 -18z" />
    <glyph glyph-name="igrave" unicode="&#xec;" horiz-adv-x="243" 
d="M70 0v525h103v-525h-103zM170 606l-174 94l65 82l143 -125z" />
    <glyph glyph-name="iacute" unicode="&#xed;" horiz-adv-x="243" 
d="M70 0v525h103v-525h-103zM50 606l-34 51l143 125l65 -82z" />
    <glyph glyph-name="icircumflex" unicode="&#xee;" horiz-adv-x="243" 
d="M70 0v525h103v-525h-103zM0 607l-38 33l115 113h86l115 -113l-38 -33l-135 73h30z" />
    <glyph glyph-name="idieresis" unicode="&#xef;" horiz-adv-x="243" 
d="M70 0v525h103v-525h-103zM220 642q-33 0 -51 17t-18 48q0 29 18.5 47t50.5 18q33 0 51 -17t18 -48q0 -29 -18.5 -47t-50.5 -18zM20 642q-33 0 -51 17t-18 48q0 29 18.5 47t50.5 18q33 0 51 -17t18 -48q0 -29 -18.5 -47t-50.5 -18z" />
    <glyph glyph-name="eth" unicode="&#xf0;" horiz-adv-x="574" 
d="M287 -7q-69 0 -125 36t-89 97t-33 136q0 54 19 102t52 85t75.5 58t88.5 21q50 0 89.5 -22t66 -62.5t37.5 -95.5l-50 31q-2 46 -12.5 83.5t-29.5 68t-47.5 54t-68 42.5t-91.5 35l42 78q59 -14 109 -42.5t89.5 -69.5t67.5 -94t42.5 -116.5t14.5 -136.5q0 -85 -31.5 -150
t-87.5 -101.5t-128 -36.5zM287 89q42 0 76 23t54 62t20 88q0 47 -20 85.5t-54 61.5t-76 23t-76 -22.5t-54 -61t-20 -86.5q0 -49 20 -88t54 -62t76 -23zM156 528l-13 65l145 37l55 20l146 33l18 -66l-113 -26l-41 -17z" />
    <glyph glyph-name="ntilde" unicode="&#xf1;" horiz-adv-x="595" 
d="M72 0v525h103v-108l-18 -12q10 35 39 64.5t69 48t82 18.5q60 0 100 -23.5t60 -71.5t20 -121v-320h-103v313q0 45 -12 74.5t-37 43t-62 11.5q-30 0 -55 -9.5t-43.5 -26.5t-29 -39.5t-10.5 -48.5v-318h-51h-26h-26zM379 615q-20 0 -33.5 8t-28.5 20q-19 17 -28.5 23.5
t-17.5 6.5q-13 0 -23 -14.5t-14 -43.5l-68 10q2 49 31.5 85t78.5 36q20 0 33.5 -8t28.5 -20q20 -16 29 -23t17 -7q14 0 23.5 15t13.5 43l68 -10q-1 -32 -15 -60t-38 -44.5t-57 -16.5z" />
    <glyph glyph-name="ograve" unicode="&#xf2;" horiz-adv-x="615" 
d="M308 -10q-77 0 -137.5 35.5t-95.5 97t-35 140.5t35 140.5t95.5 97t137.5 35.5q76 0 136.5 -35.5t95.5 -97t35 -140.5t-35 -140.5t-95.5 -97t-136.5 -35.5zM308 84q47 0 84 23.5t58 64t20 91.5q1 52 -20 92.5t-58 63.5t-84 23t-84.5 -23.5t-58.5 -64t-20 -91.5
q-1 -51 20 -91.5t58.5 -64t84.5 -23.5zM358 606l-174 94l65 82l143 -125z" />
    <glyph glyph-name="oacute" unicode="&#xf3;" horiz-adv-x="615" 
d="M308 -10q-77 0 -137.5 35.5t-95.5 97t-35 140.5t35 140.5t95.5 97t137.5 35.5q76 0 136.5 -35.5t95.5 -97t35 -140.5t-35 -140.5t-95.5 -97t-136.5 -35.5zM308 84q47 0 84 23.5t58 64t20 91.5q1 52 -20 92.5t-58 63.5t-84 23t-84.5 -23.5t-58.5 -64t-20 -91.5
q-1 -51 20 -91.5t58.5 -64t84.5 -23.5zM238 606l-34 51l143 125l65 -82z" />
    <glyph glyph-name="ocircumflex" unicode="&#xf4;" horiz-adv-x="615" 
d="M308 -10q-77 0 -137.5 35.5t-95.5 97t-35 140.5t35 140.5t95.5 97t137.5 35.5q76 0 136.5 -35.5t95.5 -97t35 -140.5t-35 -140.5t-95.5 -97t-136.5 -35.5zM308 84q47 0 84 23.5t58 64t20 91.5q1 52 -20 92.5t-58 63.5t-84 23t-84.5 -23.5t-58.5 -64t-20 -91.5
q-1 -51 20 -91.5t58.5 -64t84.5 -23.5zM188 607l-38 33l115 113h86l115 -113l-38 -33l-135 73h30z" />
    <glyph glyph-name="otilde" unicode="&#xf5;" horiz-adv-x="615" 
d="M308 -10q-77 0 -137.5 35.5t-95.5 97t-35 140.5t35 140.5t95.5 97t137.5 35.5q76 0 136.5 -35.5t95.5 -97t35 -140.5t-35 -140.5t-95.5 -97t-136.5 -35.5zM308 84q47 0 84 23.5t58 64t20 91.5q1 52 -20 92.5t-58 63.5t-84 23t-84.5 -23.5t-58.5 -64t-20 -91.5
q-1 -51 20 -91.5t58.5 -64t84.5 -23.5zM359 615q-20 0 -33.5 8t-28.5 20q-19 17 -28.5 23.5t-17.5 6.5q-13 0 -23 -14.5t-14 -43.5l-68 10q2 49 31.5 85t78.5 36q20 0 33.5 -8t28.5 -20q20 -16 29 -23t17 -7q14 0 23.5 15t13.5 43l68 -10q-1 -32 -15 -60t-38 -44.5
t-57 -16.5z" />
    <glyph glyph-name="odieresis" unicode="&#xf6;" horiz-adv-x="615" 
d="M308 -10q-77 0 -137.5 35.5t-95.5 97t-35 140.5t35 140.5t95.5 97t137.5 35.5q76 0 136.5 -35.5t95.5 -97t35 -140.5t-35 -140.5t-95.5 -97t-136.5 -35.5zM308 84q47 0 84 23.5t58 64t20 91.5q1 52 -20 92.5t-58 63.5t-84 23t-84.5 -23.5t-58.5 -64t-20 -91.5
q-1 -51 20 -91.5t58.5 -64t84.5 -23.5zM408 642q-33 0 -51 17t-18 48q0 29 18.5 47t50.5 18q33 0 51 -17t18 -48q0 -29 -18.5 -47t-50.5 -18zM208 642q-33 0 -51 17t-18 48q0 29 18.5 47t50.5 18q33 0 51 -17t18 -48q0 -29 -18.5 -47t-50.5 -18z" />
    <glyph glyph-name="divide" unicode="&#xf7;" horiz-adv-x="597" 
d="M50 215v90h497v-90h-497zM293 15q-18 0 -33 9t-24 23.5t-9 32.5t9 33t24 23.5t33 8.5t33 -8.5t23.5 -23.5t8.5 -33t-8.5 -32.5t-23.5 -23.5t-33 -9zM293 372q-18 0 -33 9t-24 23.5t-9 31.5q0 18 9 33t24 24t33 9t33 -9t23.5 -24t8.5 -33q0 -17 -9 -31.5t-24 -23.5t-32 -9
z" />
    <glyph glyph-name="oslash" unicode="&#xf8;" horiz-adv-x="615" 
d="M107 -35l-66 48l453 532l67 -49zM308 -10q-77 0 -137.5 35.5t-95.5 97t-35 140.5t35 140.5t95.5 97t137.5 35.5q76 0 136.5 -35.5t95.5 -97t35 -140.5t-35 -140.5t-95.5 -97t-136.5 -35.5zM308 84q47 0 84 23.5t58 64t20 91.5q1 52 -20 92.5t-58 63.5t-84 23t-84.5 -23.5
t-58.5 -64t-20 -91.5q-1 -51 20 -91.5t58.5 -64t84.5 -23.5z" />
    <glyph glyph-name="ugrave" unicode="&#xf9;" horiz-adv-x="605" 
d="M256 -10q-56 0 -97.5 26t-64 73t-22.5 112v324h103v-296q0 -46 14.5 -79.5t42 -51.5t66.5 -18q29 0 53 9.5t41.5 26.5t27.5 41t10 52v316h103v-525h-103v110l18 12q-12 -37 -40.5 -67t-67.5 -47.5t-84 -17.5zM353 606l-174 94l65 82l143 -125z" />
    <glyph glyph-name="uacute" unicode="&#xfa;" horiz-adv-x="605" 
d="M256 -10q-56 0 -97.5 26t-64 73t-22.5 112v324h103v-296q0 -46 14.5 -79.5t42 -51.5t66.5 -18q29 0 53 9.5t41.5 26.5t27.5 41t10 52v316h103v-525h-103v110l18 12q-12 -37 -40.5 -67t-67.5 -47.5t-84 -17.5zM233 606l-34 51l143 125l65 -82z" />
    <glyph glyph-name="ucircumflex" unicode="&#xfb;" horiz-adv-x="605" 
d="M256 -10q-56 0 -97.5 26t-64 73t-22.5 112v324h103v-296q0 -46 14.5 -79.5t42 -51.5t66.5 -18q29 0 53 9.5t41.5 26.5t27.5 41t10 52v316h103v-525h-103v110l18 12q-12 -37 -40.5 -67t-67.5 -47.5t-84 -17.5zM183 607l-38 33l115 113h86l115 -113l-38 -33l-135 73h30z
" />
    <glyph glyph-name="udieresis" unicode="&#xfc;" horiz-adv-x="605" 
d="M256 -10q-56 0 -97.5 26t-64 73t-22.5 112v324h103v-296q0 -46 14.5 -79.5t42 -51.5t66.5 -18q29 0 53 9.5t41.5 26.5t27.5 41t10 52v316h103v-525h-103v110l18 12q-12 -37 -40.5 -67t-67.5 -47.5t-84 -17.5zM403 642q-33 0 -51 17t-18 48q0 29 18.5 47t50.5 18
q33 0 51 -17t18 -48q0 -29 -18.5 -47t-50.5 -18zM203 642q-33 0 -51 17t-18 48q0 29 18.5 47t50.5 18q33 0 51 -17t18 -48q0 -29 -18.5 -47t-50.5 -18z" />
    <glyph glyph-name="yacute" unicode="&#xfd;" horiz-adv-x="581" 
d="M160 -230l106 245l1 -82l-262 592h120l164 -386q5 -10 12 -30.5t12 -40.5l-26 -6q8 21 15.5 42t14.5 42l137 379h122l-216 -525l-89 -230h-111zM221 606l-34 51l143 125l65 -82z" />
    <glyph glyph-name="thorn" unicode="&#xfe;" horiz-adv-x="631" 
d="M72 -220v960h104v-335l-16 9q6 30 34 57.5t68.5 45t83.5 17.5q53 0 97.5 -20t78 -56.5t51.5 -86t18 -108.5q0 -78 -31.5 -139.5t-86.5 -97t-124 -35.5q-46 0 -89 18.5t-73 47.5t-37 60l26 14v-351h-104zM332 86q46 0 82 23t57 63t21 91t-20.5 90.5t-56.5 62.5t-83 23
t-83 -22.5t-57 -62.5t-21 -91t21 -91t57 -63t83 -23z" />
    <glyph glyph-name="ydieresis" unicode="&#xff;" horiz-adv-x="581" 
d="M160 -230l106 245l1 -82l-262 592h120l164 -386q5 -10 12 -30.5t12 -40.5l-26 -6q8 21 15.5 42t14.5 42l137 379h122l-216 -525l-89 -230h-111zM391 642q-33 0 -51 17t-18 48q0 29 18.5 47t50.5 18q33 0 51 -17t18 -48q0 -29 -18.5 -47t-50.5 -18zM191 642q-33 0 -51 17
t-18 48q0 29 18.5 47t50.5 18q33 0 51 -17t18 -48q0 -29 -18.5 -47t-50.5 -18z" />
    <glyph glyph-name="Amacron" unicode="&#x100;" horiz-adv-x="700" 
d="M25 0l271 700h110l269 -700h-115l-160 422q-3 7 -11.5 34t-19.5 60t-20 60.5t-12 35.5l23 1q-6 -17 -14.5 -43t-18 -55t-18.5 -54.5l-15 -42.5l-159 -418h-110zM145 174l40 104h318l46 -104h-404zM184 787v75h331v-75h-331z" />
    <glyph glyph-name="amacron" unicode="&#x101;" horiz-adv-x="633" 
d="M274 -10q-65 0 -118.5 36t-85.5 98t-32 140q0 79 32.5 140.5t88 96.5t124.5 35q41 0 75 -12t59.5 -33.5t42 -49.5t20.5 -60l-23 8v136h104v-525h-104v125l24 7q-6 -27 -24.5 -52.5t-47 -45.5t-63 -32t-72.5 -12zM301 85q47 0 83 23t56.5 63.5t20.5 92.5q0 51 -20.5 91
t-56.5 63t-83 23q-46 0 -81.5 -23t-56 -63t-20.5 -91q0 -52 20.5 -92.5t56 -63.5t81.5 -23zM175 642v75h284v-75h-284z" />
    <glyph glyph-name="Abreve" unicode="&#x102;" horiz-adv-x="700" 
d="M25 0l271 700h110l269 -700h-115l-160 422q-3 7 -11.5 34t-19.5 60t-20 60.5t-12 35.5l23 1q-6 -17 -14.5 -43t-18 -55t-18.5 -54.5l-15 -42.5l-159 -418h-110zM145 174l40 104h318l46 -104h-404zM350 751q-41 0 -74.5 18.5t-56 49t-31.5 66.5l74 12q11 -25 34 -45
t54 -20t54 20t34 45l74 -12q-8 -36 -31 -66.5t-56 -49t-75 -18.5z" />
    <glyph glyph-name="abreve" unicode="&#x103;" horiz-adv-x="633" 
d="M274 -10q-65 0 -118.5 36t-85.5 98t-32 140q0 79 32.5 140.5t88 96.5t124.5 35q41 0 75 -12t59.5 -33.5t42 -49.5t20.5 -60l-23 8v136h104v-525h-104v125l24 7q-6 -27 -24.5 -52.5t-47 -45.5t-63 -32t-72.5 -12zM301 85q47 0 83 23t56.5 63.5t20.5 92.5q0 51 -20.5 91
t-56.5 63t-83 23q-46 0 -81.5 -23t-56 -63t-20.5 -91q0 -52 20.5 -92.5t56 -63.5t81.5 -23zM317 589q-64 0 -106 41.5t-56 112.5l74 12q13 -39 35.5 -62t52.5 -23t52.5 23t35.5 62l74 -12q-14 -71 -56 -112.5t-106 -41.5z" />
    <glyph glyph-name="Aogonek" unicode="&#x104;" horiz-adv-x="700" 
d="M25 0l271 700h110l269 -700h-115l-160 422q-3 7 -11.5 34t-19.5 60t-20 60.5t-12 35.5l23 1q-6 -17 -14.5 -43t-18 -55t-18.5 -54.5l-15 -42.5l-159 -418h-110zM145 174l40 104h318l46 -104h-404zM585 -200q-29 0 -54 14t-40 37.5t-15 51.5q0 25 10.5 47.5t31 41.5t49 34
t64.5 25l44 -51q-29 -6 -54 -20t-39.5 -31.5t-14.5 -35.5q0 -16 9.5 -26t24.5 -10q11 0 20 6.5t17 18.5l56 -40q-10 -25 -41.5 -43.5t-67.5 -18.5z" />
    <glyph glyph-name="aogonek" unicode="&#x105;" horiz-adv-x="633" 
d="M274 -10q-65 0 -118.5 36t-85.5 98t-32 140q0 79 32.5 140.5t88 96.5t124.5 35q41 0 75 -12t59.5 -33.5t42 -49.5t20.5 -60l-23 8v136h104v-525h-104v125l24 7q-6 -27 -24.5 -52.5t-47 -45.5t-63 -32t-72.5 -12zM301 85q47 0 83 23t56.5 63.5t20.5 92.5q0 51 -20.5 91
t-56.5 63t-83 23q-46 0 -81.5 -23t-56 -63t-20.5 -91q0 -52 20.5 -92.5t56 -63.5t81.5 -23zM471 -200q-29 0 -54 14t-40 37.5t-15 51.5q0 25 11 45.5t32 37.5t52 30.5t71 24.5l33 -41q-29 -6 -54 -20t-39.5 -31.5t-14.5 -35.5q0 -16 9.5 -26t24.5 -10q11 0 20 6.5t17 18.5
l56 -40q-7 -16 -22 -30.5t-36.5 -23t-50.5 -8.5z" />
    <glyph glyph-name="Cacute" unicode="&#x106;" horiz-adv-x="679" 
d="M382 -10q-73 0 -134 26t-106 74.5t-69.5 114.5t-24.5 145q0 75 26.5 139.5t73.5 113.5t109 76t134 27q51 0 99.5 -15.5t88 -43t64.5 -62.5l-72 -75q-29 29 -58.5 48.5t-60 29.5t-61.5 10q-49 0 -91.5 -18.5t-74 -51.5t-49.5 -78.5t-18 -99.5q0 -57 17.5 -103.5
t49.5 -79.5t76.5 -50.5t98.5 -17.5q33 0 65 9t60 26t51 40l54 -88q-23 -27 -62.5 -49t-88 -34.5t-97.5 -12.5zM322 755l-28 52l183 113l47 -90z" />
    <glyph glyph-name="cacute" unicode="&#x107;" horiz-adv-x="535" 
d="M295 -10q-73 0 -130.5 36t-91 98t-33.5 139t33.5 139t91 98t130.5 36q70 0 127.5 -28.5t87.5 -77.5l-57 -70q-16 23 -41 42t-53 30t-54 11q-48 0 -85.5 -23.5t-59.5 -64.5t-22 -92t23 -91.5t61 -64.5t84 -24q27 0 52.5 9t49.5 27t45 44l57 -70q-32 -45 -91.5 -74
t-123.5 -29zM225 606l-34 51l143 125l65 -82z" />
    <glyph glyph-name="Ccircumflex" unicode="&#x108;" horiz-adv-x="679" 
d="M382 -10q-73 0 -134 26t-106 74.5t-69.5 114.5t-24.5 145q0 75 26.5 139.5t73.5 113.5t109 76t134 27q51 0 99.5 -15.5t88 -43t64.5 -62.5l-72 -75q-29 29 -58.5 48.5t-60 29.5t-61.5 10q-49 0 -91.5 -18.5t-74 -51.5t-49.5 -78.5t-18 -99.5q0 -57 17.5 -103.5
t49.5 -79.5t76.5 -50.5t98.5 -17.5q33 0 65 9t60 26t51 40l54 -88q-23 -27 -62.5 -49t-88 -34.5t-97.5 -12.5zM266 755l-37 35l124 101h73l124 -101l-37 -35l-138 65h29z" />
    <glyph glyph-name="ccircumflex" unicode="&#x109;" horiz-adv-x="535" 
d="M295 -10q-73 0 -130.5 36t-91 98t-33.5 139t33.5 139t91 98t130.5 36q70 0 127.5 -28.5t87.5 -77.5l-57 -70q-16 23 -41 42t-53 30t-54 11q-48 0 -85.5 -23.5t-59.5 -64.5t-22 -92t23 -91.5t61 -64.5t84 -24q27 0 52.5 9t49.5 27t45 44l57 -70q-32 -45 -91.5 -74
t-123.5 -29zM175 607l-38 33l115 113h86l115 -113l-38 -33l-135 73h30z" />
    <glyph glyph-name="Cdotaccent" unicode="&#x10a;" horiz-adv-x="679" 
d="M382 -10q-73 0 -134 26t-106 74.5t-69.5 114.5t-24.5 145q0 75 26.5 139.5t73.5 113.5t109 76t134 27q51 0 99.5 -15.5t88 -43t64.5 -62.5l-72 -75q-29 29 -58.5 48.5t-60 29.5t-61.5 10q-49 0 -91.5 -18.5t-74 -51.5t-49.5 -78.5t-18 -99.5q0 -57 17.5 -103.5
t49.5 -79.5t76.5 -50.5t98.5 -17.5q33 0 65 9t60 26t51 40l54 -88q-23 -27 -62.5 -49t-88 -34.5t-97.5 -12.5zM390 759q-35 0 -52 18t-17 47q0 25 17 45t52 20t52 -18t17 -47q0 -25 -17 -45t-52 -20z" />
    <glyph glyph-name="cdotaccent" unicode="&#x10b;" horiz-adv-x="535" 
d="M295 -10q-73 0 -130.5 36t-91 98t-33.5 139t33.5 139t91 98t130.5 36q70 0 127.5 -28.5t87.5 -77.5l-57 -70q-16 23 -41 42t-53 30t-54 11q-48 0 -85.5 -23.5t-59.5 -64.5t-22 -92t23 -91.5t61 -64.5t84 -24q27 0 52.5 9t49.5 27t45 44l57 -70q-32 -45 -91.5 -74
t-123.5 -29zM295 641q-33 0 -51 17t-18 48q0 29 18.5 47t50.5 18q33 0 51 -17t18 -48q0 -29 -18.5 -47t-50.5 -18z" />
    <glyph glyph-name="Ccaron" unicode="&#x10c;" horiz-adv-x="679" 
d="M382 -10q-73 0 -134 26t-106 74.5t-69.5 114.5t-24.5 145q0 75 26.5 139.5t73.5 113.5t109 76t134 27q51 0 99.5 -15.5t88 -43t64.5 -62.5l-72 -75q-29 29 -58.5 48.5t-60 29.5t-61.5 10q-49 0 -91.5 -18.5t-74 -51.5t-49.5 -78.5t-18 -99.5q0 -57 17.5 -103.5
t49.5 -79.5t76.5 -50.5t98.5 -17.5q33 0 65 9t60 26t51 40l54 -88q-23 -27 -62.5 -49t-88 -34.5t-97.5 -12.5zM347 757l-120 103l38 33l140 -63h-30l140 63l38 -33l-120 -103h-86z" />
    <glyph glyph-name="ccaron" unicode="&#x10d;" horiz-adv-x="535" 
d="M295 -10q-73 0 -130.5 36t-91 98t-33.5 139t33.5 139t91 98t130.5 36q70 0 127.5 -28.5t87.5 -77.5l-57 -70q-16 23 -41 42t-53 30t-54 11q-48 0 -85.5 -23.5t-59.5 -64.5t-22 -92t23 -91.5t61 -64.5t84 -24q27 0 52.5 9t49.5 27t45 44l57 -70q-32 -45 -91.5 -74
t-123.5 -29zM252 607l-105 113l38 33l125 -73h-30l125 73l38 -33l-105 -113h-86z" />
    <glyph glyph-name="Dcaron" unicode="&#x10e;" horiz-adv-x="748" 
d="M98 0v700h274q75 0 135.5 -25t103.5 -72t66 -111t23 -142t-23 -142.5t-65.5 -111t-103.5 -71.5t-136 -25h-274zM206 93l-3 11h164q53 0 94.5 17t70 48.5t43.5 77.5t15 103t-15 102.5t-44 77.5t-70 49t-94 17h-167l6 9v-512zM331 757l-120 103l38 33l140 -63h-30l140 63
l38 -33l-120 -103h-86z" />
    <glyph glyph-name="dcaron" unicode="&#x10f;" horiz-adv-x="653" 
d="M291 -10q-72 0 -128.5 35.5t-89.5 97t-33 140.5t32.5 140.5t88.5 97t127 35.5q39 0 75.5 -12.5t65.5 -34t45.5 -47t16.5 -51.5l-30 -2v351h103v-740h-103v125h20q0 -24 -16 -47.5t-42.5 -43.5t-61 -32t-70.5 -12zM305 79q47 0 83 24t56.5 65.5t20.5 94.5t-20.5 94.5
t-56.5 65.5t-83 24t-83 -24t-56.5 -65.5t-20.5 -94.5t20.5 -94.5t56.5 -65.5t83 -24zM638 542l-24 42q14 4 26.5 12.5t20 19t7.5 20.5q0 6 -3.5 10t-15.5 7q-18 5 -24 14t-6 24q0 22 18 35.5t47 13.5q33 0 55.5 -21t22.5 -56q0 -19 -9 -37t-25 -33.5t-39 -28.5t-51 -22z" />
    <glyph glyph-name="Dcroat" unicode="&#x110;" horiz-adv-x="748" 
d="M49 305v90h268v-90h-268zM98 0v700h274q75 0 135.5 -25t103.5 -72t66 -111t23 -142t-23 -142.5t-65.5 -111t-103.5 -71.5t-136 -25h-274zM206 93l-3 11h164q53 0 94.5 17t70 48.5t43.5 77.5t15 103t-15 102.5t-44 77.5t-70 49t-94 17h-167l6 9v-512z" />
    <glyph glyph-name="dcroat" unicode="&#x111;" horiz-adv-x="634" 
d="M366 589v90h268v-90h-268zM291 -10q-72 0 -128.5 35.5t-89.5 97t-33 140.5t32.5 140.5t88.5 97t127 35.5q39 0 75.5 -12.5t65.5 -34t45.5 -47t16.5 -51.5l-30 -2v351h103v-740h-103v125h20q0 -24 -16 -47.5t-42.5 -43.5t-61 -32t-70.5 -12zM305 79q47 0 83 24t56.5 65.5
t20.5 94.5t-20.5 94.5t-56.5 65.5t-83 24t-83 -24t-56.5 -65.5t-20.5 -94.5t20.5 -94.5t56.5 -65.5t83 -24z" />
    <glyph glyph-name="Emacron" unicode="&#x112;" horiz-adv-x="614" 
d="M98 0v700h441v-104h-333v-492h333v-104h-441zM147 307v104h337v-104h-337zM161 787v75h331v-75h-331z" />
    <glyph glyph-name="emacron" unicode="&#x113;" horiz-adv-x="586" 
d="M317 -10q-81 0 -143.5 34.5t-98 94.5t-35.5 138q0 62 20 113t55.5 88.5t85 58t107.5 20.5q51 0 95 -19.5t76.5 -53.5t50 -80.5t16.5 -101.5l-1 -44h-429l-23 82h363l-15 -17v24q-3 33 -22 59t-48 41t-63 15q-54 0 -91 -20.5t-56 -60t-19 -97.5q0 -55 23 -95.5t65 -62.5
t97 -22q39 0 72.5 13t72.5 47l52 -73q-24 -24 -58.5 -42t-73 -28.5t-75.5 -10.5zM166 642v75h284v-75h-284z" />
    <glyph glyph-name="Ebreve" unicode="&#x114;" horiz-adv-x="614" 
d="M98 0v700h441v-104h-333v-492h333v-104h-441zM147 307v104h337v-104h-337zM327 751q-41 0 -74.5 18.5t-56 49t-31.5 66.5l74 12q11 -25 34 -45t54 -20t54 20t34 45l74 -12q-8 -36 -31 -66.5t-56 -49t-75 -18.5z" />
    <glyph glyph-name="ebreve" unicode="&#x115;" horiz-adv-x="586" 
d="M317 -10q-81 0 -143.5 34.5t-98 94.5t-35.5 138q0 62 20 113t55.5 88.5t85 58t107.5 20.5q51 0 95 -19.5t76.5 -53.5t50 -80.5t16.5 -101.5l-1 -44h-429l-23 82h363l-15 -17v24q-3 33 -22 59t-48 41t-63 15q-54 0 -91 -20.5t-56 -60t-19 -97.5q0 -55 23 -95.5t65 -62.5
t97 -22q39 0 72.5 13t72.5 47l52 -73q-24 -24 -58.5 -42t-73 -28.5t-75.5 -10.5zM308 589q-64 0 -106 41.5t-56 112.5l74 12q13 -39 35.5 -62t52.5 -23t52.5 23t35.5 62l74 -12q-14 -71 -56 -112.5t-106 -41.5z" />
    <glyph glyph-name="Edotaccent" unicode="&#x116;" horiz-adv-x="614" 
d="M98 0v700h441v-104h-333v-492h333v-104h-441zM147 307v104h337v-104h-337zM327 759q-35 0 -52 18t-17 47q0 25 17 45t52 20t52 -18t17 -47q0 -25 -17 -45t-52 -20z" />
    <glyph glyph-name="edotaccent" unicode="&#x117;" horiz-adv-x="586" 
d="M317 -10q-81 0 -143.5 34.5t-98 94.5t-35.5 138q0 62 20 113t55.5 88.5t85 58t107.5 20.5q51 0 95 -19.5t76.5 -53.5t50 -80.5t16.5 -101.5l-1 -44h-429l-23 82h363l-15 -17v24q-3 33 -22 59t-48 41t-63 15q-54 0 -91 -20.5t-56 -60t-19 -97.5q0 -55 23 -95.5t65 -62.5
t97 -22q39 0 72.5 13t72.5 47l52 -73q-24 -24 -58.5 -42t-73 -28.5t-75.5 -10.5zM308 641q-33 0 -51 17t-18 48q0 29 18.5 47t50.5 18q33 0 51 -17t18 -48q0 -29 -18.5 -47t-50.5 -18z" />
    <glyph glyph-name="Eogonek" unicode="&#x118;" horiz-adv-x="614" 
d="M98 0v700h441v-104h-333v-492h333v-104h-441zM147 307v104h337v-104h-337zM419 -200q-29 0 -54 14t-40 37.5t-15 51.5q0 25 10.5 47.5t31 41.5t49 34t64.5 25l44 -51q-29 -6 -54 -20t-39.5 -31.5t-14.5 -35.5q0 -16 9.5 -26t24.5 -10q11 0 20 6.5t17 18.5l56 -40
q-10 -25 -41.5 -43.5t-67.5 -18.5z" />
    <glyph glyph-name="eogonek" unicode="&#x119;" horiz-adv-x="586" 
d="M392 -200q-54 0 -83.5 29.5t-29.5 69.5q0 45 26 77t69 57t95 47l22 -35q-61 -34 -91 -64t-30 -62q0 -19 11 -30.5t28 -11.5q14 0 22.5 6.5t17.5 18.5l56 -40q-9 -16 -25.5 -30.5t-39 -23t-48.5 -8.5zM317 -10q-81 0 -143.5 34.5t-98 94.5t-35.5 138q0 62 20 113
t55.5 88.5t85 58t107.5 20.5q51 0 95 -19.5t76.5 -53.5t50 -80.5t16.5 -101.5l-1 -44h-429l-23 82h363l-15 -17v24q-3 33 -22 59t-48 41t-63 15q-54 0 -91 -20.5t-56 -60t-19 -97.5q0 -55 23 -95.5t65 -62.5t97 -22q39 0 72.5 13t72.5 47l52 -73q-24 -24 -58.5 -42
t-73 -28.5t-75.5 -10.5z" />
    <glyph glyph-name="Ecaron" unicode="&#x11a;" horiz-adv-x="614" 
d="M98 0v700h441v-104h-333v-492h333v-104h-441zM147 307v104h337v-104h-337zM284 757l-120 103l38 33l140 -63h-30l140 63l38 -33l-120 -103h-86z" />
    <glyph glyph-name="ecaron" unicode="&#x11b;" horiz-adv-x="586" 
d="M317 -10q-81 0 -143.5 34.5t-98 94.5t-35.5 138q0 62 20 113t55.5 88.5t85 58t107.5 20.5q51 0 95 -19.5t76.5 -53.5t50 -80.5t16.5 -101.5l-1 -44h-429l-23 82h363l-15 -17v24q-3 33 -22 59t-48 41t-63 15q-54 0 -91 -20.5t-56 -60t-19 -97.5q0 -55 23 -95.5t65 -62.5
t97 -22q39 0 72.5 13t72.5 47l52 -73q-24 -24 -58.5 -42t-73 -28.5t-75.5 -10.5zM265 607l-105 113l38 33l125 -73h-30l125 73l38 -33l-105 -113h-86z" />
    <glyph glyph-name="Gcircumflex" unicode="&#x11c;" horiz-adv-x="766" 
d="M411 -10q-76 0 -142 27.5t-116 76.5t-77.5 114.5t-27.5 141.5q0 75 27.5 140t77 113.5t115.5 75.5t142 27q53 0 103.5 -15t91.5 -42t67 -62l-70 -73q-30 29 -61.5 48t-64.5 29t-66 10q-54 0 -99.5 -19t-80 -53t-53.5 -79.5t-19 -99.5q0 -52 20 -98.5t55.5 -81.5t82 -55
t98.5 -20q39 0 74 11.5t62 32.5t42 48.5t15 58.5v20l15 -14h-214v107h310q2 -11 3 -21.5t1.5 -20t0.5 -18.5q0 -69 -24 -125.5t-66.5 -97.5t-99 -63.5t-122.5 -22.5zM279 755l-37 35l124 101h73l124 -101l-37 -35l-138 65h29z" />
    <glyph glyph-name="gcircumflex" unicode="&#x11d;" horiz-adv-x="649" 
d="M307 -230q-56 0 -111.5 17.5t-89.5 45.5l38 80q20 -15 47 -26.5t57 -18t59 -6.5q55 0 92 18t56 53t19 87v101l11 -7q-5 -31 -32.5 -59.5t-68.5 -46.5t-84 -18q-75 0 -133.5 35.5t-92.5 97t-34 140.5t33.5 140.5t92 97t131.5 35.5q30 0 58 -7.5t52 -21t43 -29.5t31 -34
t15 -34l-22 -8v123h103v-493q0 -63 -18.5 -111.5t-53.5 -82t-85 -51t-113 -17.5zM311 85q49 0 87 23t59 63t21 92t-21.5 92.5t-59 63.5t-86.5 23q-48 0 -85.5 -23.5t-59 -64t-21.5 -91.5t21.5 -91.5t59 -63.5t85.5 -23zM205 607l-38 33l115 113h86l115 -113l-38 -33l-135 73
h30z" />
    <glyph glyph-name="Gbreve" unicode="&#x11e;" horiz-adv-x="766" 
d="M411 -10q-76 0 -142 27.5t-116 76.5t-77.5 114.5t-27.5 141.5q0 75 27.5 140t77 113.5t115.5 75.5t142 27q53 0 103.5 -15t91.5 -42t67 -62l-70 -73q-30 29 -61.5 48t-64.5 29t-66 10q-54 0 -99.5 -19t-80 -53t-53.5 -79.5t-19 -99.5q0 -52 20 -98.5t55.5 -81.5t82 -55
t98.5 -20q39 0 74 11.5t62 32.5t42 48.5t15 58.5v20l15 -14h-214v107h310q2 -11 3 -21.5t1.5 -20t0.5 -18.5q0 -69 -24 -125.5t-66.5 -97.5t-99 -63.5t-122.5 -22.5zM403 751q-41 0 -74.5 18.5t-56 49t-31.5 66.5l74 12q11 -25 34 -45t54 -20t54 20t34 45l74 -12
q-8 -36 -31 -66.5t-56 -49t-75 -18.5z" />
    <glyph glyph-name="gbreve" unicode="&#x11f;" horiz-adv-x="649" 
d="M307 -230q-56 0 -111.5 17.5t-89.5 45.5l38 80q20 -15 47 -26.5t57 -18t59 -6.5q55 0 92 18t56 53t19 87v101l11 -7q-5 -31 -32.5 -59.5t-68.5 -46.5t-84 -18q-75 0 -133.5 35.5t-92.5 97t-34 140.5t33.5 140.5t92 97t131.5 35.5q30 0 58 -7.5t52 -21t43 -29.5t31 -34
t15 -34l-22 -8v123h103v-493q0 -63 -18.5 -111.5t-53.5 -82t-85 -51t-113 -17.5zM311 85q49 0 87 23t59 63t21 92t-21.5 92.5t-59 63.5t-86.5 23q-48 0 -85.5 -23.5t-59 -64t-21.5 -91.5t21.5 -91.5t59 -63.5t85.5 -23zM325 589q-64 0 -106 41.5t-56 112.5l74 12
q13 -39 35.5 -62t52.5 -23t52.5 23t35.5 62l74 -12q-14 -71 -56 -112.5t-106 -41.5z" />
    <glyph glyph-name="Gdotaccent" unicode="&#x120;" horiz-adv-x="766" 
d="M411 -10q-76 0 -142 27.5t-116 76.5t-77.5 114.5t-27.5 141.5q0 75 27.5 140t77 113.5t115.5 75.5t142 27q53 0 103.5 -15t91.5 -42t67 -62l-70 -73q-30 29 -61.5 48t-64.5 29t-66 10q-54 0 -99.5 -19t-80 -53t-53.5 -79.5t-19 -99.5q0 -52 20 -98.5t55.5 -81.5t82 -55
t98.5 -20q39 0 74 11.5t62 32.5t42 48.5t15 58.5v20l15 -14h-214v107h310q2 -11 3 -21.5t1.5 -20t0.5 -18.5q0 -69 -24 -125.5t-66.5 -97.5t-99 -63.5t-122.5 -22.5zM403 759q-35 0 -52 18t-17 47q0 25 17 45t52 20t52 -18t17 -47q0 -25 -17 -45t-52 -20z" />
    <glyph glyph-name="gdotaccent" unicode="&#x121;" horiz-adv-x="649" 
d="M307 -230q-56 0 -111.5 17.5t-89.5 45.5l38 80q20 -15 47 -26.5t57 -18t59 -6.5q55 0 92 18t56 53t19 87v101l11 -7q-5 -31 -32.5 -59.5t-68.5 -46.5t-84 -18q-75 0 -133.5 35.5t-92.5 97t-34 140.5t33.5 140.5t92 97t131.5 35.5q30 0 58 -7.5t52 -21t43 -29.5t31 -34
t15 -34l-22 -8v123h103v-493q0 -63 -18.5 -111.5t-53.5 -82t-85 -51t-113 -17.5zM311 85q49 0 87 23t59 63t21 92t-21.5 92.5t-59 63.5t-86.5 23q-48 0 -85.5 -23.5t-59 -64t-21.5 -91.5t21.5 -91.5t59 -63.5t85.5 -23zM325 641q-33 0 -51 17t-18 48q0 29 18.5 47t50.5 18
q33 0 51 -17t18 -48q0 -29 -18.5 -47t-50.5 -18z" />
    <glyph glyph-name="uni0122" unicode="&#x122;" horiz-adv-x="766" 
d="M411 -10q-76 0 -142 27.5t-116 76.5t-77.5 114.5t-27.5 141.5q0 75 27.5 140t77 113.5t115.5 75.5t142 27q53 0 103.5 -15t91.5 -42t67 -62l-70 -73q-30 29 -61.5 48t-64.5 29t-66 10q-54 0 -99.5 -19t-80 -53t-53.5 -79.5t-19 -99.5q0 -52 20 -98.5t55.5 -81.5t82 -55
t98.5 -20q39 0 74 11.5t62 32.5t42 48.5t15 58.5v20l15 -14h-214v107h310q2 -11 3 -21.5t1.5 -20t0.5 -18.5q0 -69 -24 -125.5t-66.5 -97.5t-99 -63.5t-122.5 -22.5zM333 -243l-24 42q14 4 26.5 12.5t20 19t7.5 20.5q0 6 -3.5 10t-15.5 7q-18 5 -24 14t-6 24q0 22 18 35.5
t47 13.5q33 0 55.5 -21t22.5 -56q0 -19 -9 -37t-25 -33.5t-39 -28.5t-51 -22z" />
    <glyph glyph-name="uni0123" unicode="&#x123;" horiz-adv-x="649" 
d="M307 -230q-56 0 -111.5 17.5t-89.5 45.5l38 80q20 -15 47 -26.5t57 -18t59 -6.5q55 0 92 18t56 53t19 87v101l11 -7q-5 -31 -32.5 -59.5t-68.5 -46.5t-84 -18q-75 0 -133.5 35.5t-92.5 97t-34 140.5t33.5 140.5t92 97t131.5 35.5q30 0 58 -7.5t52 -21t43 -29.5t31 -34
t15 -34l-22 -8v123h103v-493q0 -63 -18.5 -111.5t-53.5 -82t-85 -51t-113 -17.5zM311 85q49 0 87 23t59 63t21 92t-21.5 92.5t-59 63.5t-86.5 23q-48 0 -85.5 -23.5t-59 -64t-21.5 -91.5t21.5 -91.5t59 -63.5t85.5 -23zM329 606q-27 0 -52.5 18.5t-25.5 58.5q0 26 14 46.5
t34.5 35.5t41.5 25t34 14l24 -42q-13 -2 -25.5 -10.5t-20.5 -19.5t-8 -22q0 -10 6.5 -13t14.5 -5q10 -3 19 -9.5t9 -27.5q0 -24 -19 -36.5t-46 -12.5z" />
    <glyph glyph-name="Hcircumflex" unicode="&#x124;" horiz-adv-x="761" 
d="M555 0v700h108v-700h-108zM98 0v700h108v-700h-108zM145 297v104h458v-104h-458zM257 755l-37 35l124 101h73l124 -101l-37 -35l-138 65h29z" />
    <glyph glyph-name="hcircumflex" unicode="&#x125;" horiz-adv-x="595" 
d="M72 0v740h103v-323l-18 -12q10 35 39 64.5t69 48t82 18.5q60 0 100 -23.5t60 -71.5t20 -121v-320h-103v313q0 45 -12 74.5t-37 43t-62 11.5q-30 0 -55 -9.5t-43.5 -26.5t-29 -39.5t-10.5 -48.5v-318h-51h-26h-26zM174 795l-37 35l124 101h73l124 -101l-37 -35l-138 65h29
z" />
    <glyph glyph-name="Hbar" unicode="&#x126;" horiz-adv-x="857" 
d="M57 468v104h116l46 -10h394l36 10h151v-104h-144l-31 10h-416l-46 -10h-106zM603 0v700h108v-700h-108zM146 0v700h108v-700h-108zM193 297v104h458v-104h-458z" />
    <glyph glyph-name="hbar" unicode="&#x127;" horiz-adv-x="595" 
d="M12 593v90h268v-90h-268zM72 0v740h103v-323l-18 -12q10 35 39 64.5t69 48t82 18.5q60 0 100 -23.5t60 -71.5t20 -121v-320h-103v313q0 45 -12 74.5t-37 43t-62 11.5q-30 0 -55 -9.5t-43.5 -26.5t-29 -39.5t-10.5 -48.5v-318h-51h-26h-26z" />
    <glyph glyph-name="Itilde" unicode="&#x128;" horiz-adv-x="478" 
d="M72 0v100h113v500h-113v100h334v-100h-113v-500h113v-100h-334zM313 768q-23 0 -46.5 7.5t-44.5 15.5q-17 7 -29 11t-22 4q-13 0 -21.5 -9.5t-8.5 -28.5h-77q0 54 35 83.5t79 29.5q21 0 41 -7t39 -15q14 -6 27.5 -10t22.5 -4q14 0 22 10t7 26h76q0 -29 -12 -55t-34.5 -42
t-53.5 -16z" />
    <glyph glyph-name="itilde" unicode="&#x129;" horiz-adv-x="243" 
d="M70 0v525h103v-525h-103zM171 615q-20 0 -33.5 8t-28.5 20q-19 17 -28.5 23.5t-17.5 6.5q-13 0 -23 -14.5t-14 -43.5l-68 10q2 49 31.5 85t78.5 36q20 0 33.5 -8t28.5 -20q20 -16 29 -23t17 -7q14 0 23.5 15t13.5 43l68 -10q-1 -32 -15 -60t-38 -44.5t-57 -16.5z" />
    <glyph glyph-name="Imacron" unicode="&#x12a;" horiz-adv-x="478" 
d="M72 0v100h113v500h-113v100h334v-100h-113v-500h113v-100h-334zM73 787v75h331v-75h-331z" />
    <glyph glyph-name="imacron" unicode="&#x12b;" horiz-adv-x="243" 
d="M70 0v525h103v-525h-103zM-22 642v75h284v-75h-284z" />
    <glyph glyph-name="Ibreve" unicode="&#x12c;" horiz-adv-x="478" 
d="M72 0v100h113v500h-113v100h334v-100h-113v-500h113v-100h-334zM239 751q-41 0 -74.5 18.5t-56 49t-31.5 66.5l74 12q11 -25 34 -45t54 -20t54 20t34 45l74 -12q-8 -36 -31 -66.5t-56 -49t-75 -18.5z" />
    <glyph glyph-name="ibreve" unicode="&#x12d;" horiz-adv-x="243" 
d="M70 0v525h103v-525h-103zM120 589q-64 0 -106 41.5t-56 112.5l74 12q13 -39 35.5 -62t52.5 -23t52.5 23t35.5 62l74 -12q-14 -71 -56 -112.5t-106 -41.5z" />
    <glyph glyph-name="Iogonek" unicode="&#x12e;" horiz-adv-x="478" 
d="M72 0v100h113v500h-113v100h334v-100h-113v-500h113v-100h-334zM253 -200q-29 0 -54 14t-40 37.5t-15 51.5q0 25 10.5 47.5t31 41.5t49 34t64.5 25l44 -51q-29 -6 -54 -20t-39.5 -31.5t-14.5 -35.5q0 -16 9.5 -26t24.5 -10q11 0 20 6.5t17 18.5l56 -40
q-10 -25 -41.5 -43.5t-67.5 -18.5z" />
    <glyph glyph-name="iogonek" unicode="&#x12f;" horiz-adv-x="243" 
d="M70 0v525h103v-525h-103zM120 641q-33 0 -51 17t-18 48q0 29 18.5 47t50.5 18q33 0 51 -17t18 -48q0 -29 -18.5 -47t-50.5 -18zM83 -200q-29 0 -54 14t-40 37.5t-15 51.5q0 25 11 45.5t32 37.5t52 30.5t71 24.5l33 -41q-29 -6 -54 -20t-39.5 -31.5t-14.5 -35.5
q0 -16 9.5 -26t24.5 -10q11 0 20 6.5t17 18.5l56 -40q-7 -16 -22 -30.5t-36.5 -23t-50.5 -8.5z" />
    <glyph glyph-name="Idotaccent" unicode="&#x130;" horiz-adv-x="478" 
d="M72 0v100h113v500h-113v100h334v-100h-113v-500h113v-100h-334zM239 759q-35 0 -52 18t-17 47q0 25 17 45t52 20t52 -18t17 -47q0 -25 -17 -45t-52 -20z" />
    <glyph glyph-name="dotlessi" unicode="&#x131;" horiz-adv-x="243" 
d="M70 0v525h103v-525h-103z" />
    <glyph glyph-name="IJ" unicode="&#x132;" horiz-adv-x="1120" 
d="M72 0v100h113v500h-113v100h334v-100h-113v-500h113v-100h-334zM734 -10q-34 0 -65 9t-57.5 26t-47.5 40.5t-36 51.5l68 71q21 -30 38.5 -48t33.5 -28t32 -13.5t34 -3.5q36 0 63 16.5t42 45.5t15 66v377h-128v100h344v-100h-108v-387q0 -48 -16.5 -88.5t-47 -70.5
t-72 -47t-92.5 -17z" />
    <glyph glyph-name="ij" unicode="&#x133;" horiz-adv-x="543" 
d="M89 0v525h103v-525h-103zM139 641q-33 0 -51 17t-18 48q0 29 18.5 47t50.5 18q33 0 51 -17t18 -48q0 -29 -18.5 -47t-50.5 -18zM287 -197l-39 79q39 0 64.5 13.5t38.5 40t13 65.5v524h103v-549q0 -51 -22.5 -90t-63 -61t-94.5 -22zM418 641q-33 0 -51 17t-18 48
q0 29 18.5 47t50.5 18q33 0 51 -17t18 -48q0 -29 -18.5 -47t-50.5 -18z" />
    <glyph glyph-name="Jcircumflex" unicode="&#x134;" horiz-adv-x="642" 
d="M256 -10q-34 0 -65 9t-57.5 26t-47.5 40.5t-36 51.5l68 71q21 -30 38.5 -48t33.5 -28t32 -13.5t34 -3.5q36 0 63 16.5t42 45.5t15 66v377h-128v100h344v-100h-108v-387q0 -48 -16.5 -88.5t-47 -70.5t-72 -47t-92.5 -17zM302 755l-37 35l124 101h73l124 -101l-37 -35
l-138 65h29z" />
    <glyph glyph-name="jcircumflex" unicode="&#x135;" horiz-adv-x="263" 
d="M8 -197l-39 79q39 0 64.5 13.5t38.5 40t13 65.5v524h103v-549q0 -51 -23 -90t-63.5 -61t-93.5 -22zM18 607l-38 33l115 113h86l115 -113l-38 -33l-135 73h30z" />
    <glyph glyph-name="uni0136" unicode="&#x136;" horiz-adv-x="732" 
d="M188 212l-6 121l367 367h142zM98 0v700h108v-700h-108zM562 0l-268 358l80 69l323 -427h-135zM316 -243l-24 42q14 4 26.5 12.5t20 19t7.5 20.5q0 6 -3.5 10t-15.5 7q-18 5 -24 14t-6 24q0 22 18 35.5t47 13.5q33 0 55.5 -21t22.5 -56q0 -19 -9 -37t-25 -33.5t-39 -28.5
t-51 -22z" />
    <glyph glyph-name="uni0137" unicode="&#x137;" horiz-adv-x="568" 
d="M166 164l-5 112l251 249h139zM72 0v740h103v-740h-103zM426 0l-198 231l73 67l257 -298h-132zM233 -242l-24 42q14 4 26.5 12.5t20 19t7.5 20.5q0 6 -3.5 10t-15.5 7q-18 5 -24 14t-6 24q0 22 18 35.5t47 13.5q33 0 55.5 -21t22.5 -56q0 -19 -9 -37t-25 -33.5t-39 -28.5
t-51 -22z" />
    <glyph glyph-name="kgreenlandic" unicode="&#x138;" horiz-adv-x="554" 
d="M160 154l-5 102l251 269h121zM72 0v525h97v-525h-97zM409 0l-193 272l69 47l247 -320z" />
    <glyph glyph-name="Lacute" unicode="&#x139;" horiz-adv-x="599" 
d="M98 0v700h108v-596h328v-104h-436zM85 755l-28 52l183 113l47 -90z" />
    <glyph glyph-name="lacute" unicode="&#x13a;" horiz-adv-x="251" 
d="M74 0v740h103v-740h-103zM58 795l-28 52l183 113l47 -90z" />
    <glyph glyph-name="uni013B" unicode="&#x13b;" horiz-adv-x="599" 
d="M98 0v700h108v-596h328v-104h-436zM250 -243l-24 42q14 4 26.5 12.5t20 19t7.5 20.5q0 6 -3.5 10t-15.5 7q-18 5 -24 14t-6 24q0 22 18 35.5t47 13.5q33 0 55.5 -21t22.5 -56q0 -19 -9 -37t-25 -33.5t-39 -28.5t-51 -22z" />
    <glyph glyph-name="uni013C" unicode="&#x13c;" horiz-adv-x="251" 
d="M74 0v740h103v-740h-103zM76 -242l-24 42q14 4 26.5 12.5t20 19t7.5 20.5q0 6 -3.5 10t-15.5 7q-18 5 -24 14t-6 24q0 22 18 35.5t47 13.5q33 0 55.5 -21t22.5 -56q0 -19 -9 -37t-25 -33.5t-39 -28.5t-51 -22z" />
    <glyph glyph-name="Lcaron" unicode="&#x13d;" horiz-adv-x="599" 
d="M98 0v700h108v-596h328v-104h-436zM337 502l-24 42q14 4 26.5 12.5t20 19t7.5 20.5q0 6 -3.5 10t-15.5 7q-18 5 -24 14t-6 24q0 22 18 35.5t47 13.5q33 0 55.5 -21t22.5 -56q0 -19 -9 -37t-25 -33.5t-39 -28.5t-51 -22z" />
    <glyph glyph-name="lcaron" unicode="&#x13e;" horiz-adv-x="271" 
d="M74 0v740h103v-740h-103zM256 542l-24 42q14 4 26.5 12.5t20 19t7.5 20.5q0 6 -3.5 10t-15.5 7q-18 5 -24 14t-6 24q0 22 18 35.5t47 13.5q33 0 55.5 -21t22.5 -56q0 -19 -9 -37t-25 -33.5t-39 -28.5t-51 -22z" />
    <glyph glyph-name="Ldot" unicode="&#x13f;" horiz-adv-x="599" 
d="M98 0v700h108v-596h328v-104h-436zM450 299q-33 0 -51 19.5t-18 55.5q0 33 19 54t50 21q33 0 51 -19.5t18 -55.5q0 -33 -19 -54t-50 -21z" />
    <glyph glyph-name="ldot" unicode="&#x140;" horiz-adv-x="351" 
d="M74 0v740h103v-740h-103zM304 299q-33 0 -51 19.5t-18 55.5q0 33 19 54t50 21q33 0 51 -19.5t18 -55.5q0 -33 -19 -54t-50 -21z" />
    <glyph glyph-name="Lslash" unicode="&#x141;" horiz-adv-x="638" 
d="M69 256l-29 72l291 131l32 -77zM137 0v700h108v-596h328v-104h-436z" />
    <glyph glyph-name="lslash" unicode="&#x142;" horiz-adv-x="253" 
d="M31 292l-34 77l223 99l36 -74zM72 0v740h103v-740h-103z" />
    <glyph glyph-name="Nacute" unicode="&#x143;" horiz-adv-x="793" 
d="M98 0v700h97l428 -573l-16 -9q-4 25 -7 54.5t-5.5 63t-4 71t-2.5 78.5t-1 85v230h108v-700h-99l-421 552l11 14q5 -61 8.5 -103.5t6 -72t3.5 -48t1.5 -30.5t0.5 -21v-291h-108zM329 755l-28 52l183 113l47 -90z" />
    <glyph glyph-name="nacute" unicode="&#x144;" horiz-adv-x="595" 
d="M72 0v525h103v-108l-18 -12q10 35 39 64.5t69 48t82 18.5q60 0 100 -23.5t60 -71.5t20 -121v-320h-103v313q0 45 -12 74.5t-37 43t-62 11.5q-30 0 -55 -9.5t-43.5 -26.5t-29 -39.5t-10.5 -48.5v-318h-51h-26h-26zM258 606l-34 51l143 125l65 -82z" />
    <glyph glyph-name="uni0145" unicode="&#x145;" horiz-adv-x="793" 
d="M98 0v700h97l428 -573l-16 -9q-4 25 -7 54.5t-5.5 63t-4 71t-2.5 78.5t-1 85v230h108v-700h-99l-421 552l11 14q5 -61 8.5 -103.5t6 -72t3.5 -48t1.5 -30.5t0.5 -21v-291h-108zM347 -243l-24 42q14 4 26.5 12.5t20 19t7.5 20.5q0 6 -3.5 10t-15.5 7q-18 5 -24 14t-6 24
q0 22 18 35.5t47 13.5q33 0 55.5 -21t22.5 -56q0 -19 -9 -37t-25 -33.5t-39 -28.5t-51 -22z" />
    <glyph glyph-name="uni0146" unicode="&#x146;" horiz-adv-x="595" 
d="M72 0v525h103v-108l-18 -12q10 35 39 64.5t69 48t82 18.5q60 0 100 -23.5t60 -71.5t20 -121v-320h-103v313q0 45 -12 74.5t-37 43t-62 11.5q-30 0 -55 -9.5t-43.5 -26.5t-29 -39.5t-10.5 -48.5v-318h-51h-26h-26zM248 -242l-24 42q14 4 26.5 12.5t20 19t7.5 20.5
q0 6 -3.5 10t-15.5 7q-18 5 -24 14t-6 24q0 22 18 35.5t47 13.5q33 0 55.5 -21t22.5 -56q0 -19 -9 -37t-25 -33.5t-39 -28.5t-51 -22z" />
    <glyph glyph-name="Ncaron" unicode="&#x147;" horiz-adv-x="793" 
d="M98 0v700h97l428 -573l-16 -9q-4 25 -7 54.5t-5.5 63t-4 71t-2.5 78.5t-1 85v230h108v-700h-99l-421 552l11 14q5 -61 8.5 -103.5t6 -72t3.5 -48t1.5 -30.5t0.5 -21v-291h-108zM354 757l-120 103l38 33l140 -63h-30l140 63l38 -33l-120 -103h-86z" />
    <glyph glyph-name="ncaron" unicode="&#x148;" horiz-adv-x="595" 
d="M72 0v525h103v-108l-18 -12q10 35 39 64.5t69 48t82 18.5q60 0 100 -23.5t60 -71.5t20 -121v-320h-103v313q0 45 -12 74.5t-37 43t-62 11.5q-30 0 -55 -9.5t-43.5 -26.5t-29 -39.5t-10.5 -48.5v-318h-51h-26h-26zM285 607l-105 113l38 33l125 -73h-30l125 73l38 -33
l-105 -113h-86z" />
    <glyph glyph-name="napostrophe" unicode="&#x149;" horiz-adv-x="636" 
d="M-56 442l23 258h118l-81 -258h-60zM113 0v525h103v-108l-18 -12q10 35 39 64.5t69 48t82 18.5q60 0 100 -23.5t60 -71.5t20 -121v-320h-103v313q0 45 -12 74.5t-37 43t-62 11.5q-30 0 -55 -9.5t-43.5 -26.5t-29 -39.5t-10.5 -48.5v-318h-51h-26h-26z" />
    <glyph glyph-name="Eng" unicode="&#x14a;" horiz-adv-x="793" 
d="M510 -197l-39 79q29 0 50.5 7.5t36 22.5t22 37t7.5 52v75l9 -76l-421 552l11 14l6 -66t5.5 -64t4.5 -58.5t3 -49.5t1 -37v-291h-108v700h97l428 -573l-16 -9q-5 31 -8.5 69t-6 83t-4 95t-1.5 105v230h108v-724q0 -52 -23 -91t-65 -60.5t-97 -21.5z" />
    <glyph glyph-name="eng" unicode="&#x14b;" horiz-adv-x="595" 
d="M347 -197l-39 79q57 0 86 30t30 88v313q0 45 -12 74.5t-37 43t-62 11.5q-30 0 -55 -9.5t-43.5 -26.5t-29 -39.5t-10.5 -48.5v-318h-103v525h103v-82q17 26 44.5 47t60.5 33.5t67 12.5q60 0 100 -23.5t60 -71.5t20 -121v-344q0 -51 -23 -90t-63.5 -61t-93.5 -22z" />
    <glyph glyph-name="Omacron" unicode="&#x14c;" horiz-adv-x="782" 
d="M391 -10q-74 0 -136.5 27t-109 75.5t-72 114t-25.5 143.5t25.5 143.5t72 114t109 75.5t136.5 27t136.5 -27t109 -76t72 -114.5t25.5 -142.5t-25.5 -142.5t-72 -114.5t-109 -76t-136.5 -27zM391 95q51 0 93.5 19t73.5 53.5t48.5 81t17.5 101.5t-17.5 101.5t-48.5 81
t-73.5 53.5t-93.5 19t-93.5 -19t-74 -53t-48.5 -80.5t-17 -102.5q0 -55 17 -102t48.5 -81t74 -53t93.5 -19zM225 787v75h331v-75h-331z" />
    <glyph glyph-name="omacron" unicode="&#x14d;" horiz-adv-x="615" 
d="M308 -10q-77 0 -137.5 35.5t-95.5 97t-35 140.5t35 140.5t95.5 97t137.5 35.5q76 0 136.5 -35.5t95.5 -97t35 -140.5t-35 -140.5t-95.5 -97t-136.5 -35.5zM308 84q47 0 84 23.5t58 64t20 91.5q1 52 -20 92.5t-58 63.5t-84 23t-84.5 -23.5t-58.5 -64t-20 -91.5
q-1 -51 20 -91.5t58.5 -64t84.5 -23.5zM166 642v75h284v-75h-284z" />
    <glyph glyph-name="Obreve" unicode="&#x14e;" horiz-adv-x="782" 
d="M391 -10q-74 0 -136.5 27t-109 75.5t-72 114t-25.5 143.5t25.5 143.5t72 114t109 75.5t136.5 27t136.5 -27t109 -76t72 -114.5t25.5 -142.5t-25.5 -142.5t-72 -114.5t-109 -76t-136.5 -27zM391 95q51 0 93.5 19t73.5 53.5t48.5 81t17.5 101.5t-17.5 101.5t-48.5 81
t-73.5 53.5t-93.5 19t-93.5 -19t-74 -53t-48.5 -80.5t-17 -102.5q0 -55 17 -102t48.5 -81t74 -53t93.5 -19zM391 751q-41 0 -74.5 18.5t-56 49t-31.5 66.5l74 12q11 -25 34 -45t54 -20t54 20t34 45l74 -12q-8 -36 -31 -66.5t-56 -49t-75 -18.5z" />
    <glyph glyph-name="obreve" unicode="&#x14f;" horiz-adv-x="615" 
d="M308 -10q-77 0 -137.5 35.5t-95.5 97t-35 140.5t35 140.5t95.5 97t137.5 35.5q76 0 136.5 -35.5t95.5 -97t35 -140.5t-35 -140.5t-95.5 -97t-136.5 -35.5zM308 84q47 0 84 23.5t58 64t20 91.5q1 52 -20 92.5t-58 63.5t-84 23t-84.5 -23.5t-58.5 -64t-20 -91.5
q-1 -51 20 -91.5t58.5 -64t84.5 -23.5zM308 589q-64 0 -106 41.5t-56 112.5l74 12q13 -39 35.5 -62t52.5 -23t52.5 23t35.5 62l74 -12q-14 -71 -56 -112.5t-106 -41.5z" />
    <glyph glyph-name="Ohungarumlaut" unicode="&#x150;" horiz-adv-x="782" 
d="M391 -10q-74 0 -136.5 27t-109 75.5t-72 114t-25.5 143.5t25.5 143.5t72 114t109 75.5t136.5 27t136.5 -27t109 -76t72 -114.5t25.5 -142.5t-25.5 -142.5t-72 -114.5t-109 -76t-136.5 -27zM391 95q51 0 93.5 19t73.5 53.5t48.5 81t17.5 101.5t-17.5 101.5t-48.5 81
t-73.5 53.5t-93.5 19t-93.5 -19t-74 -53t-48.5 -80.5t-17 -102.5q0 -55 17 -102t48.5 -81t74 -53t93.5 -19zM282 750l-38 48l131 137l72 -76zM481 750l-38 48l131 137l72 -76z" />
    <glyph glyph-name="ohungarumlaut" unicode="&#x151;" horiz-adv-x="615" 
d="M308 -10q-77 0 -137.5 35.5t-95.5 97t-35 140.5t35 140.5t95.5 97t137.5 35.5q76 0 136.5 -35.5t95.5 -97t35 -140.5t-35 -140.5t-95.5 -97t-136.5 -35.5zM308 84q47 0 84 23.5t58 64t20 91.5q1 52 -20 92.5t-58 63.5t-84 23t-84.5 -23.5t-58.5 -64t-20 -91.5
q-1 -51 20 -91.5t58.5 -64t84.5 -23.5zM337 606l-34 51l143 125l65 -82zM138 606l-34 51l143 125l65 -82z" />
    <glyph glyph-name="OE" unicode="&#x152;" horiz-adv-x="1027" 
d="M375 0q-75 0 -135.5 25t-103 71.5t-65.5 111t-23 142.5t24.5 142t70 111t109.5 72t143 25h557v-104h-333v-185h278v-104h-278v-203h333v-104h-577zM158 350q0 -57 14.5 -103t43 -77.5t69.5 -48.5t93 -17h133v492h-113q-57 0 -101.5 -17t-75.5 -49t-47 -77.5t-16 -102.5z
" />
    <glyph glyph-name="oe" unicode="&#x153;" horiz-adv-x="1017" 
d="M308 -10q-77 0 -137.5 35.5t-95.5 97t-35 140.5t35 140.5t95.5 97t137.5 35.5q51 0 94.5 -16t78.5 -45.5t58 -69.5h-32q26 41 60 70t76 45t90 16q53 0 98 -19t78 -53t51 -80.5t17 -101.5l-1 -44h-418l4 82h355l-45 -45v43q0 37 -19.5 65t-52 43.5t-71.5 15.5
q-36 0 -64.5 -12t-49 -35t-31 -55.5t-10.5 -73.5q0 -51 20.5 -92.5t61.5 -65.5t102 -24q39 0 72.5 13t72.5 47l52 -73q-24 -23 -58.5 -41.5t-73 -29t-75.5 -10.5q-54 0 -100.5 15.5t-82.5 44.5t-59 69l32 1q-23 -40 -58 -69t-78.5 -45t-93.5 -16zM308 84q47 0 84 23.5t58 64
t20 91.5q1 52 -20 92.5t-58 63.5t-84 23t-84.5 -23.5t-58.5 -64t-20 -91.5q-1 -51 20 -91.5t58.5 -64t84.5 -23.5z" />
    <glyph glyph-name="Racute" unicode="&#x154;" horiz-adv-x="695" 
d="M98 0v700h298q60 0 110.5 -29.5t80.5 -80t30 -113.5q0 -57 -30 -106t-80 -78.5t-111 -29.5h-190v-263h-108zM514 0l-178 316l111 25l198 -342zM206 367h200q29 0 52 14.5t36 40t13 56.5q0 35 -16.5 61.5t-46 41.5t-66.5 15h-172v-229zM250 755l-28 52l183 113l47 -90z
" />
    <glyph glyph-name="racute" unicode="&#x155;" horiz-adv-x="403" 
d="M72 0v525h104v-165l-10 40q11 38 37.5 69t61 49t71.5 18q17 0 32.5 -3t24.5 -7l-27 -112q-12 5 -26.5 8.5t-28.5 3.5q-27 0 -51.5 -10.5t-43 -29t-29.5 -43t-11 -53.5v-290h-104zM172 606l-34 51l143 125l65 -82z" />
    <glyph glyph-name="uni0156" unicode="&#x156;" horiz-adv-x="695" 
d="M98 0v700h298q60 0 110.5 -29.5t80.5 -80t30 -113.5q0 -57 -30 -106t-80 -78.5t-111 -29.5h-190v-263h-108zM514 0l-178 316l111 25l198 -342zM206 367h200q29 0 52 14.5t36 40t13 56.5q0 35 -16.5 61.5t-46 41.5t-66.5 15h-172v-229zM298 -243l-24 42q14 4 26.5 12.5
t20 19t7.5 20.5q0 6 -3.5 10t-15.5 7q-18 5 -24 14t-6 24q0 22 18 35.5t47 13.5q33 0 55.5 -21t22.5 -56q0 -19 -9 -37t-25 -33.5t-39 -28.5t-51 -22z" />
    <glyph glyph-name="uni0157" unicode="&#x157;" horiz-adv-x="403" 
d="M72 0v525h104v-165l-10 40q11 38 37.5 69t61 49t71.5 18q17 0 32.5 -3t24.5 -7l-27 -112q-12 5 -26.5 8.5t-28.5 3.5q-27 0 -51.5 -10.5t-43 -29t-29.5 -43t-11 -53.5v-290h-104zM74 -242l-24 42q14 4 26.5 12.5t20 19t7.5 20.5q0 6 -3.5 10t-15.5 7q-18 5 -24 14t-6 24
q0 22 18 35.5t47 13.5q33 0 55.5 -21t22.5 -56q0 -19 -9 -37t-25 -33.5t-39 -28.5t-51 -22z" />
    <glyph glyph-name="Rcaron" unicode="&#x158;" horiz-adv-x="695" 
d="M98 0v700h298q60 0 110.5 -29.5t80.5 -80t30 -113.5q0 -57 -30 -106t-80 -78.5t-111 -29.5h-190v-263h-108zM514 0l-178 316l111 25l198 -342zM206 367h200q29 0 52 14.5t36 40t13 56.5q0 35 -16.5 61.5t-46 41.5t-66.5 15h-172v-229zM275 757l-120 103l38 33l140 -63
h-30l140 63l38 -33l-120 -103h-86z" />
    <glyph glyph-name="rcaron" unicode="&#x159;" horiz-adv-x="403" 
d="M72 0v525h104v-165l-10 40q11 38 37.5 69t61 49t71.5 18q17 0 32.5 -3t24.5 -7l-27 -112q-12 5 -26.5 8.5t-28.5 3.5q-27 0 -51.5 -10.5t-43 -29t-29.5 -43t-11 -53.5v-290h-104zM199 607l-105 113l38 33l125 -73h-30l125 73l38 -33l-105 -113h-86z" />
    <glyph glyph-name="Sacute" unicode="&#x15a;" horiz-adv-x="624" 
d="M314 -10q-57 0 -105.5 15t-88 45.5t-70.5 75.5l74 85q49 -70 94 -97t107 -27q38 0 69 12t49 33t18 48q0 18 -6 34t-18.5 29t-32 24t-45.5 19.5t-60 14.5q-54 11 -94 29t-67 45t-40 61.5t-13 77.5q0 42 18.5 78t51 62.5t76.5 41t95 14.5q54 0 99 -14t80 -41.5t58 -67.5
l-76 -75q-20 33 -45 55.5t-55 34t-64 11.5q-39 0 -68 -12t-45.5 -33.5t-16.5 -50.5q0 -21 8 -38.5t24.5 -31t44.5 -24t67 -18.5q55 -12 98 -30.5t73 -43.5t45.5 -56t15.5 -67q0 -67 -31 -116t-88 -75.5t-136 -26.5zM264 755l-28 52l183 113l47 -90z" />
    <glyph glyph-name="sacute" unicode="&#x15b;" horiz-adv-x="479" 
d="M247 -10q-66 0 -119 23t-88 68l70 60q30 -35 65.5 -50.5t80.5 -15.5q18 0 33.5 4.5t27 13.5t17.5 21.5t6 27.5q0 26 -19 42q-10 7 -31.5 15.5t-55.5 17.5q-58 15 -95 34t-57 43q-15 19 -22 41.5t-7 49.5q0 33 14.5 60.5t40 48t60 31.5t73.5 11q37 0 73.5 -10t67.5 -29
t52 -45l-59 -65q-19 19 -41.5 33.5t-45.5 22.5t-42 8q-21 0 -38 -4t-28.5 -12t-17.5 -20t-6 -27q1 -13 6.5 -24.5t15.5 -19.5q11 -8 33 -17t56 -17q50 -13 82.5 -28.5t51.5 -35.5q20 -19 28 -44t8 -56q0 -45 -25.5 -80.5t-68.5 -55.5t-96 -20zM170 606l-34 51l143 125
l65 -82z" />
    <glyph glyph-name="Scircumflex" unicode="&#x15c;" horiz-adv-x="624" 
d="M314 -10q-57 0 -105.5 15t-88 45.5t-70.5 75.5l74 85q49 -70 94 -97t107 -27q38 0 69 12t49 33t18 48q0 18 -6 34t-18.5 29t-32 24t-45.5 19.5t-60 14.5q-54 11 -94 29t-67 45t-40 61.5t-13 77.5q0 42 18.5 78t51 62.5t76.5 41t95 14.5q54 0 99 -14t80 -41.5t58 -67.5
l-76 -75q-20 33 -45 55.5t-55 34t-64 11.5q-39 0 -68 -12t-45.5 -33.5t-16.5 -50.5q0 -21 8 -38.5t24.5 -31t44.5 -24t67 -18.5q55 -12 98 -30.5t73 -43.5t45.5 -56t15.5 -67q0 -67 -31 -116t-88 -75.5t-136 -26.5zM208 755l-37 35l124 101h73l124 -101l-37 -35l-138 65h29z
" />
    <glyph glyph-name="scircumflex" unicode="&#x15d;" horiz-adv-x="479" 
d="M247 -10q-66 0 -119 23t-88 68l70 60q30 -35 65.5 -50.5t80.5 -15.5q18 0 33.5 4.5t27 13.5t17.5 21.5t6 27.5q0 26 -19 42q-10 7 -31.5 15.5t-55.5 17.5q-58 15 -95 34t-57 43q-15 19 -22 41.5t-7 49.5q0 33 14.5 60.5t40 48t60 31.5t73.5 11q37 0 73.5 -10t67.5 -29
t52 -45l-59 -65q-19 19 -41.5 33.5t-45.5 22.5t-42 8q-21 0 -38 -4t-28.5 -12t-17.5 -20t-6 -27q1 -13 6.5 -24.5t15.5 -19.5q11 -8 33 -17t56 -17q50 -13 82.5 -28.5t51.5 -35.5q20 -19 28 -44t8 -56q0 -45 -25.5 -80.5t-68.5 -55.5t-96 -20zM120 607l-38 33l115 113h86
l115 -113l-38 -33l-135 73h30z" />
    <glyph glyph-name="Scedilla" unicode="&#x15e;" horiz-adv-x="624" 
d="M314 -10q-57 0 -105.5 15t-88 45.5t-70.5 75.5l74 85q49 -70 94 -97t107 -27q38 0 69 12t49 33t18 48q0 18 -6 34t-18.5 29t-32 24t-45.5 19.5t-60 14.5q-54 11 -94 29t-67 45t-40 61.5t-13 77.5q0 42 18.5 78t51 62.5t76.5 41t95 14.5q54 0 99 -14t80 -41.5t58 -67.5
l-76 -75q-20 33 -45 55.5t-55 34t-64 11.5q-39 0 -68 -12t-45.5 -33.5t-16.5 -50.5q0 -21 8 -38.5t24.5 -31t44.5 -24t67 -18.5q55 -12 98 -30.5t73 -43.5t45.5 -56t15.5 -67q0 -67 -31 -116t-88 -75.5t-136 -26.5zM240 -244l-7 53q24 0 50 8t44 20.5t18 24.5q0 14 -17 22
t-38 12t-35 4l-13 10l72 114h59l-42 -70q49 -10 74 -34t25 -59q0 -26 -17 -46t-45 -33.5t-61.5 -20t-66.5 -5.5z" />
    <glyph glyph-name="scedilla" unicode="&#x15f;" horiz-adv-x="479" 
d="M247 -10q-66 0 -119 23t-88 68l70 60q30 -35 65.5 -50.5t80.5 -15.5q18 0 33.5 4.5t27 13.5t17.5 21.5t6 27.5q0 26 -19 42q-10 7 -31.5 15.5t-55.5 17.5q-58 15 -95 34t-57 43q-15 19 -22 41.5t-7 49.5q0 33 14.5 60.5t40 48t60 31.5t73.5 11q37 0 73.5 -10t67.5 -29
t52 -45l-59 -65q-19 19 -41.5 33.5t-45.5 22.5t-42 8q-21 0 -38 -4t-28.5 -12t-17.5 -20t-6 -27q1 -13 6.5 -24.5t15.5 -19.5q11 -8 33 -17t56 -17q50 -13 82.5 -28.5t51.5 -35.5q20 -19 28 -44t8 -56q0 -45 -25.5 -80.5t-68.5 -55.5t-96 -20zM157 -244l-7 53q24 0 50 8
t44 20.5t18 24.5q0 14 -17 22t-38 12t-35 4l-13 10l72 114h59l-43 -70q50 -10 75 -34t25 -59q0 -26 -17.5 -46t-45.5 -33.5t-61.5 -20t-65.5 -5.5z" />
    <glyph glyph-name="Scaron" unicode="&#x160;" horiz-adv-x="624" 
d="M314 -10q-57 0 -105.5 15t-88 45.5t-70.5 75.5l74 85q49 -70 94 -97t107 -27q38 0 69 12t49 33t18 48q0 18 -6 34t-18.5 29t-32 24t-45.5 19.5t-60 14.5q-54 11 -94 29t-67 45t-40 61.5t-13 77.5q0 42 18.5 78t51 62.5t76.5 41t95 14.5q54 0 99 -14t80 -41.5t58 -67.5
l-76 -75q-20 33 -45 55.5t-55 34t-64 11.5q-39 0 -68 -12t-45.5 -33.5t-16.5 -50.5q0 -21 8 -38.5t24.5 -31t44.5 -24t67 -18.5q55 -12 98 -30.5t73 -43.5t45.5 -56t15.5 -67q0 -67 -31 -116t-88 -75.5t-136 -26.5zM289 757l-120 103l38 33l140 -63h-30l140 63l38 -33
l-120 -103h-86z" />
    <glyph glyph-name="scaron" unicode="&#x161;" horiz-adv-x="479" 
d="M247 -10q-66 0 -119 23t-88 68l70 60q30 -35 65.5 -50.5t80.5 -15.5q18 0 33.5 4.5t27 13.5t17.5 21.5t6 27.5q0 26 -19 42q-10 7 -31.5 15.5t-55.5 17.5q-58 15 -95 34t-57 43q-15 19 -22 41.5t-7 49.5q0 33 14.5 60.5t40 48t60 31.5t73.5 11q37 0 73.5 -10t67.5 -29
t52 -45l-59 -65q-19 19 -41.5 33.5t-45.5 22.5t-42 8q-21 0 -38 -4t-28.5 -12t-17.5 -20t-6 -27q1 -13 6.5 -24.5t15.5 -19.5q11 -8 33 -17t56 -17q50 -13 82.5 -28.5t51.5 -35.5q20 -19 28 -44t8 -56q0 -45 -25.5 -80.5t-68.5 -55.5t-96 -20zM197 607l-105 113l38 33
l125 -73h-30l125 73l38 -33l-105 -113h-86z" />
    <glyph glyph-name="uni0162" unicode="&#x162;" horiz-adv-x="576" 
d="M231 0v596h-196v104h506v-104h-202v-596h-108zM196 -244l-7 53q24 0 50 8t44 20.5t18 24.5q0 14 -17 22t-38 12t-35 4l-13 10l72 114h59l-42 -70q49 -10 74 -34t25 -59q0 -26 -17 -46t-45 -33.5t-61.5 -20t-66.5 -5.5z" />
    <glyph glyph-name="uni0163" unicode="&#x163;" horiz-adv-x="384" 
d="M137 0v659h103v-659h-103zM28 425v100h334v-100h-334zM100 -244l-7 53q24 0 50 8t44 20.5t18 24.5q0 14 -17 22t-38 12t-35 4l-13 10l72 114h59l-43 -70q50 -10 75 -34t25 -59q0 -26 -17.5 -46t-45.5 -33.5t-61.5 -20t-65.5 -5.5z" />
    <glyph glyph-name="Tcaron" unicode="&#x164;" horiz-adv-x="576" 
d="M231 0v596h-196v104h506v-104h-202v-596h-108zM245 757l-120 103l38 33l140 -63h-30l140 63l38 -33l-120 -103h-86z" />
    <glyph glyph-name="tcaron" unicode="&#x165;" horiz-adv-x="384" 
d="M137 0v659h103v-659h-103zM28 425v100h334v-100h-334zM313 589l-24 42q14 4 26.5 12.5t20 19t7.5 20.5q0 6 -3.5 10t-15.5 7q-18 5 -24 14t-6 24q0 22 18 35.5t47 13.5q33 0 55.5 -21t22.5 -56q0 -19 -9 -37t-25 -33.5t-39 -28.5t-51 -22z" />
    <glyph glyph-name="Tbar" unicode="&#x166;" horiz-adv-x="576" 
d="M154 307v90h268v-90h-268zM231 0v596h-196v104h506v-104h-202v-596h-108z" />
    <glyph glyph-name="tbar" unicode="&#x167;" horiz-adv-x="384" 
d="M58 218v90h268v-90h-268zM137 0v659h103v-659h-103zM28 425v100h334v-100h-334z" />
    <glyph glyph-name="Utilde" unicode="&#x168;" horiz-adv-x="740" 
d="M370 -6q-81 0 -145 35.5t-100.5 98t-36.5 141.5v432h108v-423q0 -51 24 -91.5t63.5 -64.5t86.5 -24q50 0 90.5 24t64.5 64.5t24 91.5v423h103v-432q0 -79 -36.5 -141.5t-100.5 -98t-145 -35.5zM444 768q-23 0 -46.5 7.5t-44.5 15.5q-17 7 -29 11t-22 4q-13 0 -21.5 -9.5
t-8.5 -28.5h-77q0 54 35 83.5t79 29.5q21 0 41 -7t39 -15q14 -6 27.5 -10t22.5 -4q14 0 22 10t7 26h76q0 -29 -12 -55t-34.5 -42t-53.5 -16z" />
    <glyph glyph-name="utilde" unicode="&#x169;" horiz-adv-x="605" 
d="M256 -10q-56 0 -97.5 26t-64 73t-22.5 112v324h103v-296q0 -46 14.5 -79.5t42 -51.5t66.5 -18q29 0 53 9.5t41.5 26.5t27.5 41t10 52v316h103v-525h-103v110l18 12q-12 -37 -40.5 -67t-67.5 -47.5t-84 -17.5zM354 615q-20 0 -33.5 8t-28.5 20q-19 17 -28.5 23.5
t-17.5 6.5q-13 0 -23 -14.5t-14 -43.5l-68 10q2 49 31.5 85t78.5 36q20 0 33.5 -8t28.5 -20q20 -16 29 -23t17 -7q14 0 23.5 15t13.5 43l68 -10q-1 -32 -15 -60t-38 -44.5t-57 -16.5z" />
    <glyph glyph-name="Umacron" unicode="&#x16a;" horiz-adv-x="740" 
d="M370 -6q-81 0 -145 35.5t-100.5 98t-36.5 141.5v432h108v-423q0 -51 24 -91.5t63.5 -64.5t86.5 -24q50 0 90.5 24t64.5 64.5t24 91.5v423h103v-432q0 -79 -36.5 -141.5t-100.5 -98t-145 -35.5zM204 787v75h331v-75h-331z" />
    <glyph glyph-name="umacron" unicode="&#x16b;" horiz-adv-x="605" 
d="M256 -10q-56 0 -97.5 26t-64 73t-22.5 112v324h103v-296q0 -46 14.5 -79.5t42 -51.5t66.5 -18q29 0 53 9.5t41.5 26.5t27.5 41t10 52v316h103v-525h-103v110l18 12q-12 -37 -40.5 -67t-67.5 -47.5t-84 -17.5zM161 642v75h284v-75h-284z" />
    <glyph glyph-name="Ubreve" unicode="&#x16c;" horiz-adv-x="740" 
d="M370 -6q-81 0 -145 35.5t-100.5 98t-36.5 141.5v432h108v-423q0 -51 24 -91.5t63.5 -64.5t86.5 -24q50 0 90.5 24t64.5 64.5t24 91.5v423h103v-432q0 -79 -36.5 -141.5t-100.5 -98t-145 -35.5zM370 751q-41 0 -74.5 18.5t-56 49t-31.5 66.5l74 12q11 -25 34 -45t54 -20
t54 20t34 45l74 -12q-8 -36 -31 -66.5t-56 -49t-75 -18.5z" />
    <glyph glyph-name="ubreve" unicode="&#x16d;" horiz-adv-x="605" 
d="M256 -10q-56 0 -97.5 26t-64 73t-22.5 112v324h103v-296q0 -46 14.5 -79.5t42 -51.5t66.5 -18q29 0 53 9.5t41.5 26.5t27.5 41t10 52v316h103v-525h-103v110l18 12q-12 -37 -40.5 -67t-67.5 -47.5t-84 -17.5zM303 589q-64 0 -106 41.5t-56 112.5l74 12q13 -39 35.5 -62
t52.5 -23t52.5 23t35.5 62l74 -12q-14 -71 -56 -112.5t-106 -41.5z" />
    <glyph glyph-name="Uring" unicode="&#x16e;" horiz-adv-x="740" 
d="M370 -6q-81 0 -145 35.5t-100.5 98t-36.5 141.5v432h108v-423q0 -51 24 -91.5t63.5 -64.5t86.5 -24q50 0 90.5 24t64.5 64.5t24 91.5v423h103v-432q0 -79 -36.5 -141.5t-100.5 -98t-145 -35.5zM369 679q-28 0 -53 14.5t-40.5 38.5t-15.5 52q0 30 15.5 54t40.5 38t53 14
q29 0 54 -14t40.5 -38t15.5 -54q0 -28 -15.5 -52t-40.5 -38.5t-54 -14.5zM369 738q21 0 35.5 13.5t14.5 32.5q0 23 -15 35t-35 12t-34.5 -13t-14.5 -34q0 -19 14.5 -32.5t34.5 -13.5z" />
    <glyph glyph-name="uring" unicode="&#x16f;" horiz-adv-x="605" 
d="M256 -10q-56 0 -97.5 26t-64 73t-22.5 112v324h103v-296q0 -46 14.5 -79.5t42 -51.5t66.5 -18q29 0 53 9.5t41.5 26.5t27.5 41t10 52v316h103v-525h-103v110l18 12q-12 -37 -40.5 -67t-67.5 -47.5t-84 -17.5zM302 604q-28 0 -53 14.5t-40.5 38.5t-15.5 52q0 29 15 53
t40 38.5t54 14.5q30 0 55 -14.5t40 -38.5t15 -53q0 -28 -15 -52t-40 -38.5t-55 -14.5zM302 663q21 0 35.5 13.5t14.5 32.5q0 21 -14.5 34t-35.5 13t-35 -13.5t-14 -33.5q0 -19 14.5 -32.5t34.5 -13.5z" />
    <glyph glyph-name="Uhungarumlaut" unicode="&#x170;" horiz-adv-x="740" 
d="M370 -6q-81 0 -145 35.5t-100.5 98t-36.5 141.5v432h108v-423q0 -51 24 -91.5t63.5 -64.5t86.5 -24q50 0 90.5 24t64.5 64.5t24 91.5v423h103v-432q0 -79 -36.5 -141.5t-100.5 -98t-145 -35.5zM261 750l-38 48l131 137l72 -76zM460 750l-38 48l131 137l72 -76z" />
    <glyph glyph-name="uhungarumlaut" unicode="&#x171;" horiz-adv-x="605" 
d="M256 -10q-56 0 -97.5 26t-64 73t-22.5 112v324h103v-296q0 -46 14.5 -79.5t42 -51.5t66.5 -18q29 0 53 9.5t41.5 26.5t27.5 41t10 52v316h103v-525h-103v110l18 12q-12 -37 -40.5 -67t-67.5 -47.5t-84 -17.5zM332 606l-34 51l143 125l65 -82zM133 606l-34 51l143 125
l65 -82z" />
    <glyph glyph-name="Uogonek" unicode="&#x172;" horiz-adv-x="740" 
d="M434 -200q-43 0 -76 26.5t-33 76.5q0 30 13.5 56t37 48t54 41t64.5 37l38 -45q-29 -16 -50.5 -32t-36 -31.5t-22 -30.5t-7.5 -30q0 -18 9 -28.5t25 -10.5q11 0 20 6.5t17 18.5l56 -40q-10 -25 -41.5 -43.5t-67.5 -18.5zM370 -6q-81 0 -145 35.5t-100.5 98t-36.5 141.5
v432h108v-423q0 -51 24 -91.5t63.5 -64.5t86.5 -24q50 0 90.5 24t64.5 64.5t24 91.5v423h103v-432q0 -79 -36.5 -141.5t-100.5 -98t-145 -35.5z" />
    <glyph glyph-name="uogonek" unicode="&#x173;" horiz-adv-x="605" 
d="M256 -10q-56 0 -97.5 26t-64 73t-22.5 112v324h103v-296q0 -46 14.5 -79.5t42 -51.5t66.5 -18q29 0 53 9.5t41.5 26.5t27.5 41t10 52v316h103v-525h-103v110l18 12q-12 -37 -40.5 -67t-67.5 -47.5t-84 -17.5zM443 -200q-29 0 -54 14t-40 37.5t-15 51.5q0 25 11 45.5
t32 37.5t52 30.5t71 24.5l33 -41q-29 -6 -54 -20t-39.5 -31.5t-14.5 -35.5q0 -16 9.5 -26t24.5 -10q11 0 20 6.5t17 18.5l56 -40q-7 -16 -22 -30.5t-36.5 -23t-50.5 -8.5z" />
    <glyph glyph-name="Wcircumflex" unicode="&#x174;" horiz-adv-x="996" 
d="M247 0l-223 700h115l135 -438q6 -16 11 -37.5t9 -43.5t7.5 -41t6.5 -31l-29 1q15 53 23.5 82t13.5 44.5t9 26.5l126 316h97l122 -316q10 -24 17.5 -47.5t13.5 -47t13 -49.5l-26 -7q5 27 7.5 42.5t4.5 25.5t4 19.5t6.5 24.5t12.5 41l133 435h116l-223 -700h-75l-185 438
l9 -4l-178 -434h-73zM374 755l-37 35l124 101h73l124 -101l-37 -35l-138 65h29z" />
    <glyph glyph-name="wcircumflex" unicode="&#x175;" horiz-adv-x="800" 
d="M201 0l-179 525l104 1l128 -393l-23 2l139 307h62l140 -308l-27 -2l129 393h104l-177 -525h-71l-146 334l23 -3l-136 -331h-70zM280 607l-38 33l115 113h86l115 -113l-38 -33l-135 73h30z" />
    <glyph glyph-name="Ycircumflex" unicode="&#x176;" horiz-adv-x="660" 
d="M286 0v349l7 -49l-283 400h130l216 -310l-25 3l195 307h124l-271 -411l15 68v-357h-108zM206 755l-37 35l124 101h73l124 -101l-37 -35l-138 65h29z" />
    <glyph glyph-name="ycircumflex" unicode="&#x177;" horiz-adv-x="581" 
d="M160 -230l106 245l1 -82l-262 592h120l164 -386q5 -10 12 -30.5t12 -40.5l-26 -6q8 21 15.5 42t14.5 42l137 379h122l-216 -525l-89 -230h-111zM171 607l-38 33l115 113h86l115 -113l-38 -33l-135 73h30z" />
    <glyph glyph-name="Ydieresis" unicode="&#x178;" horiz-adv-x="660" 
d="M286 0v349l7 -49l-283 400h130l216 -310l-25 3l195 307h124l-271 -411l15 68v-357h-108zM433 759q-35 0 -52 18t-17 47q0 25 17 45t52 20t52 -18t17 -47q0 -25 -17 -45t-52 -20zM227 759q-35 0 -52 18t-17 47q0 25 17 45t52 20t52 -18t17 -47q0 -25 -17 -45t-52 -20z" />
    <glyph glyph-name="Zacute" unicode="&#x179;" horiz-adv-x="659" 
d="M60 0v79l399 534l15 -17h-388v104h507v-78l-397 -535l-16 17h424v-104h-544zM262 755l-28 52l183 113l47 -90z" />
    <glyph glyph-name="zacute" unicode="&#x17a;" horiz-adv-x="484" 
d="M50 0v86l271 362v-12h-271v89h383v-84l-267 -357l-4 5h277v-89h-389zM172 606l-34 51l143 125l65 -82z" />
    <glyph glyph-name="Zdotaccent" unicode="&#x17b;" horiz-adv-x="659" 
d="M60 0v79l399 534l15 -17h-388v104h507v-78l-397 -535l-16 17h424v-104h-544zM330 759q-35 0 -52 18t-17 47q0 25 17 45t52 20t52 -18t17 -47q0 -25 -17 -45t-52 -20z" />
    <glyph glyph-name="zdotaccent" unicode="&#x17c;" horiz-adv-x="484" 
d="M50 0v86l271 362v-12h-271v89h383v-84l-267 -357l-4 5h277v-89h-389zM242 641q-33 0 -51 17t-18 48q0 29 18.5 47t50.5 18q33 0 51 -17t18 -48q0 -29 -18.5 -47t-50.5 -18z" />
    <glyph glyph-name="Zcaron" unicode="&#x17d;" horiz-adv-x="659" 
d="M60 0v79l399 534l15 -17h-388v104h507v-78l-397 -535l-16 17h424v-104h-544zM287 757l-120 103l38 33l140 -63h-30l140 63l38 -33l-120 -103h-86z" />
    <glyph glyph-name="zcaron" unicode="&#x17e;" horiz-adv-x="484" 
d="M50 0v86l271 362v-12h-271v89h383v-84l-267 -357l-4 5h277v-89h-389zM199 607l-105 113l38 33l125 -73h-30l125 73l38 -33l-105 -113h-86z" />
    <glyph glyph-name="uni018F" unicode="&#x18f;" horiz-adv-x="780" 
d="M390 -10q-68 0 -128.5 24t-107 68t-75 103t-31.5 128v80h638l9 -97h-543q8 -45 29.5 -83t53.5 -66.5t72 -44t83 -15.5q52 0 95.5 19t76 54t50 83.5t17.5 107.5q0 60 -17.5 108.5t-49.5 83t-76.5 52.5t-98.5 18q-42 0 -77.5 -8.5t-66.5 -25.5t-59 -43l-68 70
q37 36 77.5 59t88 34t105.5 11q71 0 133.5 -28t110 -77.5t74.5 -114.5t27 -140t-26.5 -140t-74 -114.5t-109 -77.5t-132.5 -28z" />
    <glyph glyph-name="florin" unicode="&#x192;" horiz-adv-x="519" 
d="M96 -31q-26 0 -51 9t-41 23l28 68q15 -8 28 -11.5t30 -3.5t30 8.5t21.5 25.5t13.5 41l72 409q14 78 56 116t115 38q34 0 63 -8.5t55 -26.5l-30 -64q-22 8 -38.5 11.5t-30.5 3.5q-40 0 -62.5 -20.5t-30.5 -64.5l-71 -404q-14 -76 -53 -113t-104 -37zM71 362v83l369 -1v-83
z" />
    <glyph glyph-name="uni019D" unicode="&#x19d;" horiz-adv-x="777" 
d="M5 -197l-39 79q58 0 87 30t29 89v699h97l428 -573l-16 -9q-5 31 -8.5 69t-6 83t-4 95t-1.5 105v230h108v-700h-99l-421 552l11 14l6 -66t5.5 -64t4.5 -58.5t3 -49.5t1 -37v-315q0 -52 -23 -91t-65 -60.5t-97 -21.5z" />
    <glyph glyph-name="Ohorn" unicode="&#x1a0;" horiz-adv-x="782" 
d="M391 -10q-74 0 -136.5 27t-109 75.5t-72 114t-25.5 143.5t25.5 143.5t72 114t109 75.5t136.5 27q25 0 44.5 -2.5t35.5 -6.5q13 -3 24.5 -4.5t23.5 -1.5q30 0 50 13.5t29.5 40t9.5 65.5h92q0 -38 -7.5 -69.5t-22.5 -55.5t-39 -39t-57 -20l7 24q47 -31 81.5 -77.5
t53 -103.5t18.5 -123q0 -77 -25.5 -142.5t-72 -114.5t-109 -76t-136.5 -27zM391 95q51 0 93.5 19t73.5 53.5t48.5 81t17.5 101.5t-17.5 101.5t-48.5 81t-73.5 53.5t-93.5 19t-93.5 -19t-74 -53t-48.5 -80.5t-17 -102.5q0 -55 17 -102t48.5 -81t74 -53t93.5 -19z" />
    <glyph glyph-name="ohorn" unicode="&#x1a1;" horiz-adv-x="615" 
d="M308 -10q-77 0 -137.5 35.5t-95.5 97t-35 140.5t35 140.5t95.5 97t137.5 35.5q22 0 40.5 -3t32.5 -6q9 -2 16.5 -3.5t13.5 -1.5q40 0 59 29.5t19 87.5h82q0 -45 -11.5 -82t-37 -61.5t-66.5 -33.5l7 26q52 -36 82 -94t30 -131q0 -79 -35 -140.5t-95.5 -97t-136.5 -35.5z
M308 84q47 0 84 23.5t58 64t20 91.5q1 52 -20 92.5t-58 63.5t-84 23t-84.5 -23.5t-58.5 -64t-20 -91.5q-1 -51 20 -91.5t58.5 -64t84.5 -23.5z" />
    <glyph glyph-name="Uhorn" unicode="&#x1af;" horiz-adv-x="740" 
d="M370 -6q-81 0 -145 35.5t-100.5 98t-36.5 141.5v432h108v-423q0 -51 24 -91.5t63.5 -64.5t86.5 -24q50 0 90.5 24t64.5 64.5t24 91.5v423h38q47 0 66.5 30.5t19.5 82.5h92q0 -53 -16.5 -94t-48.5 -66t-78 -33l30 52v-404q0 -79 -36.5 -141.5t-100.5 -98t-145 -35.5z" />
    <glyph glyph-name="uhorn" unicode="&#x1b0;" horiz-adv-x="605" 
d="M256 -10q-56 0 -97.5 26t-64 73t-22.5 112v324h103v-296q0 -46 14.5 -79.5t42 -51.5t66.5 -18q29 0 53 9.5t41.5 26.5t27.5 41t10 52v316q25 0 43.5 7t30.5 21.5t18 36t6 49.5h82q0 -40 -10.5 -74t-34 -58.5t-62.5 -36.5l30 57v-527h-103v129l13 -20q-14 -34 -42.5 -61
t-65.5 -42.5t-79 -15.5z" />
    <glyph glyph-name="uni01C4" unicode="&#x1c4;" horiz-adv-x="1362" 
d="M98 0v700h274q75 0 135.5 -25t103.5 -72t66 -111t23 -142t-23 -142.5t-65.5 -111t-103.5 -71.5t-136 -25h-274zM206 93l-3 11h164q53 0 94.5 17t70 48.5t43.5 77.5t15 103t-15 102.5t-44 77.5t-70 49t-94 17h-167l6 9v-512zM763 0v79l399 534l15 -17h-388v104h507v-78
l-397 -535l-16 17h424v-104h-544zM990 757l-120 103l38 33l140 -63h-30l140 63l38 -33l-120 -103h-86z" />
    <glyph glyph-name="uni01C5" unicode="&#x1c5;" horiz-adv-x="1231" 
d="M98 0v700h274q75 0 135.5 -25t103.5 -72t66 -111t23 -142t-23 -142.5t-65.5 -111t-103.5 -71.5t-136 -25h-274zM206 93l-3 11h164q53 0 94.5 17t70 48.5t43.5 77.5t15 103t-15 102.5t-44 77.5t-70 49t-94 17h-167l6 9v-512zM797 0v86l271 362v-12h-271v89h383v-84
l-267 -357l-4 5h277v-89h-389zM946 607l-105 113l38 33l125 -73h-30l125 73l38 -33l-105 -113h-86z" />
    <glyph glyph-name="uni01C6" unicode="&#x1c6;" horiz-adv-x="1118" 
d="M291 -10q-72 0 -128.5 35.5t-89.5 97t-33 140.5t32.5 140.5t88.5 97t127 35.5q39 0 75.5 -12.5t65.5 -34t45.5 -47t16.5 -51.5l-30 -2v351h103v-740h-103v125h20q0 -24 -16 -47.5t-42.5 -43.5t-61 -32t-70.5 -12zM305 79q47 0 83 24t56.5 65.5t20.5 94.5t-20.5 94.5
t-56.5 65.5t-83 24t-83 -24t-56.5 -65.5t-20.5 -94.5t20.5 -94.5t56.5 -65.5t83 -24zM684 0v86l271 362v-12h-271v89h383v-84l-267 -357l-4 5h277v-89h-389zM833 607l-105 113l38 33l125 -73h-30l125 73l38 -33l-105 -113h-86z" />
    <glyph glyph-name="uni01C7" unicode="&#x1c7;" horiz-adv-x="1241" 
d="M98 0v700h108v-596h328v-104h-436zM855 -10q-34 0 -65 9t-57.5 26t-47.5 40.5t-36 51.5l68 71q21 -30 38.5 -48t33.5 -28t32 -13.5t34 -3.5q36 0 63 16.5t42 45.5t15 66v377h-128v100h344v-100h-108v-387q0 -48 -16.5 -88.5t-47 -70.5t-72 -47t-92.5 -17z" />
    <glyph glyph-name="uni01C8" unicode="&#x1c8;" horiz-adv-x="864" 
d="M98 0v700h108v-596h328v-104h-436zM608 -197l-39 79q39 0 64.5 13.5t38.5 40t13 65.5v524h103v-549q0 -51 -22.5 -90t-63 -61t-94.5 -22zM739 641q-33 0 -51 17t-18 48q0 29 18.5 47t50.5 18q33 0 51 -17t18 -48q0 -29 -18.5 -47t-50.5 -18z" />
    <glyph glyph-name="uni01C9" unicode="&#x1c9;" horiz-adv-x="502" 
d="M74 0v740h103v-740h-103zM246 -197l-39 79q39 0 64.5 13.5t38.5 40t13 65.5v524h103v-549q0 -51 -22.5 -90t-63 -61t-94.5 -22zM377 641q-33 0 -51 17t-18 48q0 29 18.5 47t50.5 18q33 0 51 -17t18 -48q0 -29 -18.5 -47t-50.5 -18z" />
    <glyph glyph-name="uni01CA" unicode="&#x1ca;" horiz-adv-x="1435" 
d="M98 0v700h97l428 -573l-16 -9q-4 25 -7 54.5t-5.5 63t-4 71t-2.5 78.5t-1 85v230h108v-700h-99l-421 552l11 14q5 -61 8.5 -103.5t6 -72t3.5 -48t1.5 -30.5t0.5 -21v-291h-108zM1049 -10q-34 0 -65 9t-57.5 26t-47.5 40.5t-36 51.5l68 71q21 -30 38.5 -48t33.5 -28
t32 -13.5t34 -3.5q36 0 63 16.5t42 45.5t15 66v377h-128v100h344v-100h-108v-387q0 -48 -16.5 -88.5t-47 -70.5t-72 -47t-92.5 -17z" />
    <glyph glyph-name="uni01CB" unicode="&#x1cb;" horiz-adv-x="1058" 
d="M98 0v700h97l428 -573l-16 -9q-4 25 -7 54.5t-5.5 63t-4 71t-2.5 78.5t-1 85v230h108v-700h-99l-421 552l11 14q5 -61 8.5 -103.5t6 -72t3.5 -48t1.5 -30.5t0.5 -21v-291h-108zM802 -197l-39 79q39 0 64.5 13.5t38.5 40t13 65.5v524h103v-549q0 -51 -22.5 -90t-63 -61
t-94.5 -22zM933 641q-33 0 -51 17t-18 48q0 29 18.5 47t50.5 18q33 0 51 -17t18 -48q0 -29 -18.5 -47t-50.5 -18z" />
    <glyph glyph-name="uni01CC" unicode="&#x1cc;" horiz-adv-x="860" 
d="M72 0v525h103v-108l-18 -12q10 35 39 64.5t69 48t82 18.5q60 0 100 -23.5t60 -71.5t20 -121v-320h-103v313q0 45 -12 74.5t-37 43t-62 11.5q-30 0 -55 -9.5t-43.5 -26.5t-29 -39.5t-10.5 -48.5v-318h-51h-26h-26zM604 -197l-39 79q39 0 64.5 13.5t38.5 40t13 65.5v524
h103v-549q0 -51 -22.5 -90t-63 -61t-94.5 -22zM735 641q-33 0 -51 17t-18 48q0 29 18.5 47t50.5 18q33 0 51 -17t18 -48q0 -29 -18.5 -47t-50.5 -18z" />
    <glyph glyph-name="uni01CD" unicode="&#x1cd;" horiz-adv-x="700" 
d="M25 0l271 700h110l269 -700h-115l-160 422q-3 7 -11.5 34t-19.5 60t-20 60.5t-12 35.5l23 1q-6 -17 -14.5 -43t-18 -55t-18.5 -54.5l-15 -42.5l-159 -418h-110zM145 174l40 104h318l46 -104h-404zM307 757l-120 103l38 33l140 -63h-30l140 63l38 -33l-120 -103h-86z" />
    <glyph glyph-name="uni01CE" unicode="&#x1ce;" horiz-adv-x="633" 
d="M274 -10q-65 0 -118.5 36t-85.5 98t-32 140q0 79 32.5 140.5t88 96.5t124.5 35q41 0 75 -12t59.5 -33.5t42 -49.5t20.5 -60l-23 8v136h104v-525h-104v125l24 7q-6 -27 -24.5 -52.5t-47 -45.5t-63 -32t-72.5 -12zM301 85q47 0 83 23t56.5 63.5t20.5 92.5q0 51 -20.5 91
t-56.5 63t-83 23q-46 0 -81.5 -23t-56 -63t-20.5 -91q0 -52 20.5 -92.5t56 -63.5t81.5 -23zM274 607l-105 113l38 33l125 -73h-30l125 73l38 -33l-105 -113h-86z" />
    <glyph glyph-name="uni01CF" unicode="&#x1cf;" horiz-adv-x="478" 
d="M72 0v100h113v500h-113v100h334v-100h-113v-500h113v-100h-334zM196 757l-120 103l38 33l140 -63h-30l140 63l38 -33l-120 -103h-86z" />
    <glyph glyph-name="uni01D0" unicode="&#x1d0;" horiz-adv-x="243" 
d="M70 0v525h103v-525h-103zM77 607l-105 113l38 33l125 -73h-30l125 73l38 -33l-105 -113h-86z" />
    <glyph glyph-name="uni01D1" unicode="&#x1d1;" horiz-adv-x="782" 
d="M391 -10q-74 0 -136.5 27t-109 75.5t-72 114t-25.5 143.5t25.5 143.5t72 114t109 75.5t136.5 27t136.5 -27t109 -76t72 -114.5t25.5 -142.5t-25.5 -142.5t-72 -114.5t-109 -76t-136.5 -27zM391 95q51 0 93.5 19t73.5 53.5t48.5 81t17.5 101.5t-17.5 101.5t-48.5 81
t-73.5 53.5t-93.5 19t-93.5 -19t-74 -53t-48.5 -80.5t-17 -102.5q0 -55 17 -102t48.5 -81t74 -53t93.5 -19zM348 757l-120 103l38 33l140 -63h-30l140 63l38 -33l-120 -103h-86z" />
    <glyph glyph-name="uni01D2" unicode="&#x1d2;" horiz-adv-x="615" 
d="M308 -10q-77 0 -137.5 35.5t-95.5 97t-35 140.5t35 140.5t95.5 97t137.5 35.5q76 0 136.5 -35.5t95.5 -97t35 -140.5t-35 -140.5t-95.5 -97t-136.5 -35.5zM308 84q47 0 84 23.5t58 64t20 91.5q1 52 -20 92.5t-58 63.5t-84 23t-84.5 -23.5t-58.5 -64t-20 -91.5
q-1 -51 20 -91.5t58.5 -64t84.5 -23.5zM265 607l-105 113l38 33l125 -73h-30l125 73l38 -33l-105 -113h-86z" />
    <glyph glyph-name="uni01D3" unicode="&#x1d3;" horiz-adv-x="740" 
d="M370 -6q-81 0 -145 35.5t-100.5 98t-36.5 141.5v432h108v-423q0 -51 24 -91.5t63.5 -64.5t86.5 -24q50 0 90.5 24t64.5 64.5t24 91.5v423h103v-432q0 -79 -36.5 -141.5t-100.5 -98t-145 -35.5zM327 757l-120 103l38 33l140 -63h-30l140 63l38 -33l-120 -103h-86z" />
    <glyph glyph-name="uni01D4" unicode="&#x1d4;" horiz-adv-x="605" 
d="M256 -10q-56 0 -97.5 26t-64 73t-22.5 112v324h103v-296q0 -46 14.5 -79.5t42 -51.5t66.5 -18q29 0 53 9.5t41.5 26.5t27.5 41t10 52v316h103v-525h-103v110l18 12q-12 -37 -40.5 -67t-67.5 -47.5t-84 -17.5zM260 607l-105 113l38 33l125 -73h-30l125 73l38 -33
l-105 -113h-86z" />
    <glyph glyph-name="Gcaron" unicode="&#x1e6;" horiz-adv-x="766" 
d="M411 -10q-76 0 -142 27.5t-116 76.5t-77.5 114.5t-27.5 141.5q0 75 27.5 140t77 113.5t115.5 75.5t142 27q53 0 103.5 -15t91.5 -42t67 -62l-70 -73q-30 29 -61.5 48t-64.5 29t-66 10q-54 0 -99.5 -19t-80 -53t-53.5 -79.5t-19 -99.5q0 -52 20 -98.5t55.5 -81.5t82 -55
t98.5 -20q39 0 74 11.5t62 32.5t42 48.5t15 58.5v20l15 -14h-214v107h310q2 -11 3 -21.5t1.5 -20t0.5 -18.5q0 -69 -24 -125.5t-66.5 -97.5t-99 -63.5t-122.5 -22.5zM360 757l-120 103l38 33l140 -63h-30l140 63l38 -33l-120 -103h-86z" />
    <glyph glyph-name="gcaron" unicode="&#x1e7;" horiz-adv-x="649" 
d="M307 -230q-56 0 -111.5 17.5t-89.5 45.5l38 80q20 -15 47 -26.5t57 -18t59 -6.5q55 0 92 18t56 53t19 87v101l11 -7q-5 -31 -32.5 -59.5t-68.5 -46.5t-84 -18q-75 0 -133.5 35.5t-92.5 97t-34 140.5t33.5 140.5t92 97t131.5 35.5q30 0 58 -7.5t52 -21t43 -29.5t31 -34
t15 -34l-22 -8v123h103v-493q0 -63 -18.5 -111.5t-53.5 -82t-85 -51t-113 -17.5zM311 85q49 0 87 23t59 63t21 92t-21.5 92.5t-59 63.5t-86.5 23q-48 0 -85.5 -23.5t-59 -64t-21.5 -91.5t21.5 -91.5t59 -63.5t85.5 -23zM282 607l-105 113l38 33l125 -73h-30l125 73l38 -33
l-105 -113h-86z" />
    <glyph glyph-name="uni01EA" unicode="&#x1ea;" horiz-adv-x="782" 
d="M472 -200q-43 0 -76 26.5t-33 76.5q0 30 13.5 56t37 48t54 41t64.5 37l38 -45q-29 -16 -50.5 -32t-36 -31.5t-22 -30.5t-7.5 -30q0 -18 9 -28.5t25 -10.5q11 0 20 6.5t17 18.5l56 -40q-10 -25 -41.5 -43.5t-67.5 -18.5zM391 -10q-74 0 -136.5 27t-109 75.5t-72 114
t-25.5 143.5t25.5 143.5t72 114t109 75.5t136.5 27t136.5 -27t109 -76t72 -114.5t25.5 -142.5t-25.5 -142.5t-72 -114.5t-109 -76t-136.5 -27zM391 95q51 0 93.5 19t73.5 53.5t48.5 81t17.5 101.5t-17.5 101.5t-48.5 81t-73.5 53.5t-93.5 19t-93.5 -19t-74 -53t-48.5 -80.5
t-17 -102.5q0 -55 17 -102t48.5 -81t74 -53t93.5 -19z" />
    <glyph glyph-name="uni01EB" unicode="&#x1eb;" horiz-adv-x="615" 
d="M378 -200q-50 0 -78 30t-28 71q0 45 25 76.5t66.5 56t91.5 46.5l9 -40q-46 -31 -73.5 -58t-27.5 -63q0 -17 8.5 -29.5t25.5 -12.5q11 0 20.5 6.5t17.5 18.5l56 -40q-9 -16 -25.5 -30.5t-39 -23t-48.5 -8.5zM308 -10q-77 0 -137.5 35.5t-95.5 97t-35 140.5t35 140.5
t95.5 97t137.5 35.5q76 0 136.5 -35.5t95.5 -97t35 -140.5t-35 -140.5t-95.5 -97t-136.5 -35.5zM308 84q47 0 84 23.5t58 64t20 91.5q1 52 -20 92.5t-58 63.5t-84 23t-84.5 -23.5t-58.5 -64t-20 -91.5q-1 -51 20 -91.5t58.5 -64t84.5 -23.5z" />
    <glyph glyph-name="uni01F1" unicode="&#x1f1;" horiz-adv-x="1362" 
d="M98 0v700h274q75 0 135.5 -25t103.5 -72t66 -111t23 -142t-23 -142.5t-65.5 -111t-103.5 -71.5t-136 -25h-274zM206 93l-3 11h164q53 0 94.5 17t70 48.5t43.5 77.5t15 103t-15 102.5t-44 77.5t-70 49t-94 17h-167l6 9v-512zM763 0v79l399 534l15 -17h-388v104h507v-78
l-397 -535l-16 17h424v-104h-544z" />
    <glyph glyph-name="uni01F2" unicode="&#x1f2;" horiz-adv-x="1231" 
d="M98 0v700h274q75 0 135.5 -25t103.5 -72t66 -111t23 -142t-23 -142.5t-65.5 -111t-103.5 -71.5t-136 -25h-274zM206 93l-3 11h164q53 0 94.5 17t70 48.5t43.5 77.5t15 103t-15 102.5t-44 77.5t-70 49t-94 17h-167l6 9v-512zM797 0v86l271 362v-12h-271v89h383v-84
l-267 -357l-4 5h277v-89h-389z" />
    <glyph glyph-name="Aringacute" unicode="&#x1fa;" horiz-adv-x="700" 
d="M25 0l271 700h110l269 -700h-115l-160 422q-3 7 -11.5 34t-19.5 60t-20 60.5t-12 35.5l23 1q-6 -17 -14.5 -43t-18 -55t-18.5 -54.5l-15 -42.5l-159 -418h-110zM145 174l40 104h318l46 -104h-404zM349 679q-28 0 -53 14.5t-40.5 38.5t-15.5 52q0 30 15.5 54t40.5 38
t53 14q29 0 54 -14t40.5 -38t15.5 -54q0 -28 -15.5 -52t-40.5 -38.5t-54 -14.5zM349 738q21 0 35.5 13.5t14.5 32.5q0 23 -15 35t-35 12t-34.5 -13t-14.5 -34q0 -19 14.5 -32.5t34.5 -13.5zM282 915l-28 52l183 113l47 -90z" />
    <glyph glyph-name="aringacute" unicode="&#x1fb;" horiz-adv-x="633" 
d="M274 -10q-65 0 -118.5 36t-85.5 98t-32 140q0 79 32.5 140.5t88 96.5t124.5 35q41 0 75 -12t59.5 -33.5t42 -49.5t20.5 -60l-23 8v136h104v-525h-104v125l24 7q-6 -27 -24.5 -52.5t-47 -45.5t-63 -32t-72.5 -12zM301 85q47 0 83 23t56.5 63.5t20.5 92.5q0 51 -20.5 91
t-56.5 63t-83 23q-46 0 -81.5 -23t-56 -63t-20.5 -91q0 -52 20.5 -92.5t56 -63.5t81.5 -23zM316 604q-28 0 -53 14.5t-40.5 38.5t-15.5 52q0 29 15 53t40 38.5t54 14.5q30 0 55 -14.5t40 -38.5t15 -53q0 -28 -15 -52t-40 -38.5t-55 -14.5zM316 663q21 0 35.5 13.5t14.5 32.5
q0 21 -14.5 34t-35.5 13t-35 -13.5t-14 -33.5q0 -19 14.5 -32.5t34.5 -13.5zM247 839l-34 51l143 125l65 -82z" />
    <glyph glyph-name="AEacute" unicode="&#x1fc;" horiz-adv-x="969" 
d="M5 0l488 700h401v-93h-328v-205h283v-94h-283v-215h328v-93h-429v153h-262l63 92h199v313l25 -8l-376 -550h-109zM577 755l-28 52l183 113l47 -90z" />
    <glyph glyph-name="aeacute" unicode="&#x1fd;" horiz-adv-x="899" 
d="M216 -10q-51 0 -91 20t-63.5 55.5t-23.5 83.5q0 42 15 74t45 53.5t74 32t102 10.5h495l-15 -17v24q-3 33 -22 59t-48 41t-63 15q-50 0 -84.5 -20t-52.5 -59.5t-18 -97.5q0 -53 25 -93.5t67.5 -63.5t95.5 -23q39 0 72.5 13t72.5 47l50 -75q-24 -23 -58 -41t-72 -28
t-75 -10q-81 0 -142 33.5t-95 94t-34 139.5q0 61 19 112t52.5 88.5t79 58t97.5 20.5q68 -1 122 -34t85 -90.5t31 -130.5l-1 -44h-597q-30 0 -53.5 -5.5t-40 -17t-24.5 -27t-8 -36.5q0 -22 11 -38.5t30 -25.5t44 -9q36 0 68.5 12.5t58 34.5t39.5 49l44 -67q-23 -35 -57 -61
t-74 -41t-83 -15zM373 257v99q0 18 -9 34t-24.5 27t-35.5 17.5t-42 6.5q-44 0 -79.5 -18t-64.5 -55l-67 67q29 33 62.5 55.5t71.5 34t79 11.5q47 0 84 -10t63.5 -28.5t40.5 -46t14 -63.5v-125zM380 606l-34 51l143 125l65 -82z" />
    <glyph glyph-name="Oslashacute" unicode="&#x1fe;" horiz-adv-x="770" 
d="M123 -33l-63 53l589 721l68 -47zM390 -10q-74 0 -136.5 27t-109 75.5t-72 114t-25.5 143.5t25.5 143.5t72 114t109 75.5t136.5 27t136.5 -27t109 -76t72 -114.5t25.5 -142.5t-25.5 -142.5t-72 -114.5t-109 -76t-136.5 -27zM390 95q51 0 93.5 19t73.5 53.5t48.5 81
t17.5 101.5t-17.5 101.5t-48.5 81t-73.5 53.5t-93.5 19t-93.5 -19t-74 -53t-48.5 -80.5t-17 -102.5q0 -55 17 -102t48.5 -81t74 -53t93.5 -19zM317 755l-28 52l183 113l47 -90z" />
    <glyph glyph-name="oslashacute" unicode="&#x1ff;" horiz-adv-x="615" 
d="M107 -35l-66 48l453 532l67 -49zM308 -10q-77 0 -137.5 35.5t-95.5 97t-35 140.5t35 140.5t95.5 97t137.5 35.5q76 0 136.5 -35.5t95.5 -97t35 -140.5t-35 -140.5t-95.5 -97t-136.5 -35.5zM308 84q47 0 84 23.5t58 64t20 91.5q1 52 -20 92.5t-58 63.5t-84 23t-84.5 -23.5
t-58.5 -64t-20 -91.5q-1 -51 20 -91.5t58.5 -64t84.5 -23.5zM238 606l-34 51l143 125l65 -82z" />
    <glyph glyph-name="uni0200" unicode="&#x200;" horiz-adv-x="700" 
d="M25 0l271 700h110l269 -700h-115l-160 422q-3 7 -11.5 34t-19.5 60t-20 60.5t-12 35.5l23 1q-6 -17 -14.5 -43t-18 -55t-18.5 -54.5l-15 -42.5l-159 -418h-110zM145 174l40 104h318l46 -104h-404zM461 750l-165 109l72 76l131 -137zM262 750l-165 109l72 76l131 -137z
" />
    <glyph glyph-name="uni0201" unicode="&#x201;" horiz-adv-x="633" 
d="M274 -10q-65 0 -118.5 36t-85.5 98t-32 140q0 79 32.5 140.5t88 96.5t124.5 35q41 0 75 -12t59.5 -33.5t42 -49.5t20.5 -60l-23 8v136h104v-525h-104v125l24 7q-6 -27 -24.5 -52.5t-47 -45.5t-63 -32t-72.5 -12zM301 85q47 0 83 23t56.5 63.5t20.5 92.5q0 51 -20.5 91
t-56.5 63t-83 23q-46 0 -81.5 -23t-56 -63t-20.5 -91q0 -52 20.5 -92.5t56 -63.5t81.5 -23zM420 606l-174 94l65 82l143 -125zM221 606l-174 94l65 82l143 -125z" />
    <glyph glyph-name="uni0202" unicode="&#x202;" horiz-adv-x="700" 
d="M25 0l271 700h110l269 -700h-115l-160 422q-3 7 -11.5 34t-19.5 60t-20 60.5t-12 35.5l23 1q-6 -17 -14.5 -43t-18 -55t-18.5 -54.5l-15 -42.5l-159 -418h-110zM145 174l40 104h318l46 -104h-404zM262 751l-74 12q9 36 31.5 66.5t56 49t74.5 18.5q42 0 75 -18.5t56 -49
t31 -66.5l-74 -12q-11 25 -34 45t-54 20t-54 -20t-34 -45z" />
    <glyph glyph-name="uni0203" unicode="&#x203;" horiz-adv-x="633" 
d="M274 -10q-65 0 -118.5 36t-85.5 98t-32 140q0 79 32.5 140.5t88 96.5t124.5 35q41 0 75 -12t59.5 -33.5t42 -49.5t20.5 -60l-23 8v136h104v-525h-104v125l24 7q-6 -27 -24.5 -52.5t-47 -45.5t-63 -32t-72.5 -12zM301 85q47 0 83 23t56.5 63.5t20.5 92.5q0 51 -20.5 91
t-56.5 63t-83 23q-46 0 -81.5 -23t-56 -63t-20.5 -91q0 -52 20.5 -92.5t56 -63.5t81.5 -23zM229 599l-74 12q14 71 56 112.5t106 41.5t106 -41.5t56 -112.5l-74 -12q-13 39 -35.5 62t-52.5 23t-52.5 -23t-35.5 -62z" />
    <glyph glyph-name="uni0204" unicode="&#x204;" horiz-adv-x="614" 
d="M98 0v700h441v-104h-333v-492h333v-104h-441zM147 307v104h337v-104h-337zM438 750l-165 109l72 76l131 -137zM239 750l-165 109l72 76l131 -137z" />
    <glyph glyph-name="uni0205" unicode="&#x205;" horiz-adv-x="586" 
d="M317 -10q-81 0 -143.5 34.5t-98 94.5t-35.5 138q0 62 20 113t55.5 88.5t85 58t107.5 20.5q51 0 95 -19.5t76.5 -53.5t50 -80.5t16.5 -101.5l-1 -44h-429l-23 82h363l-15 -17v24q-3 33 -22 59t-48 41t-63 15q-54 0 -91 -20.5t-56 -60t-19 -97.5q0 -55 23 -95.5t65 -62.5
t97 -22q39 0 72.5 13t72.5 47l52 -73q-24 -24 -58.5 -42t-73 -28.5t-75.5 -10.5zM411 606l-174 94l65 82l143 -125zM212 606l-174 94l65 82l143 -125z" />
    <glyph glyph-name="uni0206" unicode="&#x206;" horiz-adv-x="614" 
d="M98 0v700h441v-104h-333v-492h333v-104h-441zM147 307v104h337v-104h-337zM239 751l-74 12q9 36 31.5 66.5t56 49t74.5 18.5q42 0 75 -18.5t56 -49t31 -66.5l-74 -12q-11 25 -34 45t-54 20t-54 -20t-34 -45z" />
    <glyph glyph-name="uni0207" unicode="&#x207;" horiz-adv-x="586" 
d="M317 -10q-81 0 -143.5 34.5t-98 94.5t-35.5 138q0 62 20 113t55.5 88.5t85 58t107.5 20.5q51 0 95 -19.5t76.5 -53.5t50 -80.5t16.5 -101.5l-1 -44h-429l-23 82h363l-15 -17v24q-3 33 -22 59t-48 41t-63 15q-54 0 -91 -20.5t-56 -60t-19 -97.5q0 -55 23 -95.5t65 -62.5
t97 -22q39 0 72.5 13t72.5 47l52 -73q-24 -24 -58.5 -42t-73 -28.5t-75.5 -10.5zM220 599l-74 12q14 71 56 112.5t106 41.5t106 -41.5t56 -112.5l-74 -12q-13 39 -35.5 62t-52.5 23t-52.5 -23t-35.5 -62z" />
    <glyph glyph-name="uni0208" unicode="&#x208;" horiz-adv-x="478" 
d="M72 0v100h113v500h-113v100h334v-100h-113v-500h113v-100h-334zM350 750l-165 109l72 76l131 -137zM151 750l-165 109l72 76l131 -137z" />
    <glyph glyph-name="uni0209" unicode="&#x209;" horiz-adv-x="243" 
d="M70 0v525h103v-525h-103zM223 606l-174 94l65 82l143 -125zM24 606l-174 94l65 82l143 -125z" />
    <glyph glyph-name="uni020A" unicode="&#x20a;" horiz-adv-x="478" 
d="M72 0v100h113v500h-113v100h334v-100h-113v-500h113v-100h-334zM151 751l-74 12q9 36 31.5 66.5t56 49t74.5 18.5q42 0 75 -18.5t56 -49t31 -66.5l-74 -12q-11 25 -34 45t-54 20t-54 -20t-34 -45z" />
    <glyph glyph-name="uni020B" unicode="&#x20b;" horiz-adv-x="243" 
d="M70 0v525h103v-525h-103zM32 599l-74 12q14 71 56 112.5t106 41.5t106 -41.5t56 -112.5l-74 -12q-13 39 -35.5 62t-52.5 23t-52.5 -23t-35.5 -62z" />
    <glyph glyph-name="uni020C" unicode="&#x20c;" horiz-adv-x="782" 
d="M391 -10q-74 0 -136.5 27t-109 75.5t-72 114t-25.5 143.5t25.5 143.5t72 114t109 75.5t136.5 27t136.5 -27t109 -76t72 -114.5t25.5 -142.5t-25.5 -142.5t-72 -114.5t-109 -76t-136.5 -27zM391 95q51 0 93.5 19t73.5 53.5t48.5 81t17.5 101.5t-17.5 101.5t-48.5 81
t-73.5 53.5t-93.5 19t-93.5 -19t-74 -53t-48.5 -80.5t-17 -102.5q0 -55 17 -102t48.5 -81t74 -53t93.5 -19zM502 750l-165 109l72 76l131 -137zM303 750l-165 109l72 76l131 -137z" />
    <glyph glyph-name="uni020D" unicode="&#x20d;" horiz-adv-x="615" 
d="M308 -10q-77 0 -137.5 35.5t-95.5 97t-35 140.5t35 140.5t95.5 97t137.5 35.5q76 0 136.5 -35.5t95.5 -97t35 -140.5t-35 -140.5t-95.5 -97t-136.5 -35.5zM308 84q47 0 84 23.5t58 64t20 91.5q1 52 -20 92.5t-58 63.5t-84 23t-84.5 -23.5t-58.5 -64t-20 -91.5
q-1 -51 20 -91.5t58.5 -64t84.5 -23.5zM411 606l-174 94l65 82l143 -125zM212 606l-174 94l65 82l143 -125z" />
    <glyph glyph-name="uni020E" unicode="&#x20e;" horiz-adv-x="782" 
d="M391 -10q-74 0 -136.5 27t-109 75.5t-72 114t-25.5 143.5t25.5 143.5t72 114t109 75.5t136.5 27t136.5 -27t109 -76t72 -114.5t25.5 -142.5t-25.5 -142.5t-72 -114.5t-109 -76t-136.5 -27zM391 95q51 0 93.5 19t73.5 53.5t48.5 81t17.5 101.5t-17.5 101.5t-48.5 81
t-73.5 53.5t-93.5 19t-93.5 -19t-74 -53t-48.5 -80.5t-17 -102.5q0 -55 17 -102t48.5 -81t74 -53t93.5 -19zM303 751l-74 12q9 36 31.5 66.5t56 49t74.5 18.5q42 0 75 -18.5t56 -49t31 -66.5l-74 -12q-11 25 -34 45t-54 20t-54 -20t-34 -45z" />
    <glyph glyph-name="uni020F" unicode="&#x20f;" horiz-adv-x="615" 
d="M308 -10q-77 0 -137.5 35.5t-95.5 97t-35 140.5t35 140.5t95.5 97t137.5 35.5q76 0 136.5 -35.5t95.5 -97t35 -140.5t-35 -140.5t-95.5 -97t-136.5 -35.5zM308 84q47 0 84 23.5t58 64t20 91.5q1 52 -20 92.5t-58 63.5t-84 23t-84.5 -23.5t-58.5 -64t-20 -91.5
q-1 -51 20 -91.5t58.5 -64t84.5 -23.5zM220 599l-74 12q14 71 56 112.5t106 41.5t106 -41.5t56 -112.5l-74 -12q-13 39 -35.5 62t-52.5 23t-52.5 -23t-35.5 -62z" />
    <glyph glyph-name="uni0210" unicode="&#x210;" horiz-adv-x="695" 
d="M98 0v700h298q60 0 110.5 -29.5t80.5 -80t30 -113.5q0 -57 -30 -106t-80 -78.5t-111 -29.5h-190v-263h-108zM514 0l-178 316l111 25l198 -342zM206 367h200q29 0 52 14.5t36 40t13 56.5q0 35 -16.5 61.5t-46 41.5t-66.5 15h-172v-229zM429 750l-165 109l72 76l131 -137z
M230 750l-165 109l72 76l131 -137z" />
    <glyph glyph-name="uni0211" unicode="&#x211;" horiz-adv-x="403" 
d="M72 0v525h104v-165l-10 40q11 38 37.5 69t61 49t71.5 18q17 0 32.5 -3t24.5 -7l-27 -112q-12 5 -26.5 8.5t-28.5 3.5q-27 0 -51.5 -10.5t-43 -29t-29.5 -43t-11 -53.5v-290h-104zM345 606l-174 94l65 82l143 -125zM146 606l-174 94l65 82l143 -125z" />
    <glyph glyph-name="uni0212" unicode="&#x212;" horiz-adv-x="695" 
d="M98 0v700h298q60 0 110.5 -29.5t80.5 -80t30 -113.5q0 -57 -30 -106t-80 -78.5t-111 -29.5h-190v-263h-108zM514 0l-178 316l111 25l198 -342zM206 367h200q29 0 52 14.5t36 40t13 56.5q0 35 -16.5 61.5t-46 41.5t-66.5 15h-172v-229zM230 751l-74 12q9 36 31.5 66.5
t56 49t74.5 18.5q42 0 75 -18.5t56 -49t31 -66.5l-74 -12q-11 25 -34 45t-54 20t-54 -20t-34 -45z" />
    <glyph glyph-name="uni0213" unicode="&#x213;" horiz-adv-x="403" 
d="M72 0v525h104v-165l-10 40q11 38 37.5 69t61 49t71.5 18q17 0 32.5 -3t24.5 -7l-27 -112q-12 5 -26.5 8.5t-28.5 3.5q-27 0 -51.5 -10.5t-43 -29t-29.5 -43t-11 -53.5v-290h-104zM154 599l-74 12q14 71 56 112.5t106 41.5t106 -41.5t56 -112.5l-74 -12q-13 39 -35.5 62
t-52.5 23t-52.5 -23t-35.5 -62z" />
    <glyph glyph-name="uni0214" unicode="&#x214;" horiz-adv-x="740" 
d="M370 -6q-81 0 -145 35.5t-100.5 98t-36.5 141.5v432h108v-423q0 -51 24 -91.5t63.5 -64.5t86.5 -24q50 0 90.5 24t64.5 64.5t24 91.5v423h103v-432q0 -79 -36.5 -141.5t-100.5 -98t-145 -35.5zM481 750l-165 109l72 76l131 -137zM282 750l-165 109l72 76l131 -137z" />
    <glyph glyph-name="uni0215" unicode="&#x215;" horiz-adv-x="605" 
d="M256 -10q-56 0 -97.5 26t-64 73t-22.5 112v324h103v-296q0 -46 14.5 -79.5t42 -51.5t66.5 -18q29 0 53 9.5t41.5 26.5t27.5 41t10 52v316h103v-525h-103v110l18 12q-12 -37 -40.5 -67t-67.5 -47.5t-84 -17.5zM406 606l-174 94l65 82l143 -125zM207 606l-174 94l65 82
l143 -125z" />
    <glyph glyph-name="uni0216" unicode="&#x216;" horiz-adv-x="740" 
d="M370 -6q-81 0 -145 35.5t-100.5 98t-36.5 141.5v432h108v-423q0 -51 24 -91.5t63.5 -64.5t86.5 -24q50 0 90.5 24t64.5 64.5t24 91.5v423h103v-432q0 -79 -36.5 -141.5t-100.5 -98t-145 -35.5zM282 751l-74 12q9 36 31.5 66.5t56 49t74.5 18.5q42 0 75 -18.5t56 -49
t31 -66.5l-74 -12q-11 25 -34 45t-54 20t-54 -20t-34 -45z" />
    <glyph glyph-name="uni0217" unicode="&#x217;" horiz-adv-x="605" 
d="M256 -10q-56 0 -97.5 26t-64 73t-22.5 112v324h103v-296q0 -46 14.5 -79.5t42 -51.5t66.5 -18q29 0 53 9.5t41.5 26.5t27.5 41t10 52v316h103v-525h-103v110l18 12q-12 -37 -40.5 -67t-67.5 -47.5t-84 -17.5zM215 599l-74 12q14 71 56 112.5t106 41.5t106 -41.5
t56 -112.5l-74 -12q-13 39 -35.5 62t-52.5 23t-52.5 -23t-35.5 -62z" />
    <glyph glyph-name="uni0218" unicode="&#x218;" horiz-adv-x="624" 
d="M314 -10q-57 0 -105.5 15t-88 45.5t-70.5 75.5l74 85q49 -70 94 -97t107 -27q38 0 69 12t49 33t18 48q0 18 -6 34t-18.5 29t-32 24t-45.5 19.5t-60 14.5q-54 11 -94 29t-67 45t-40 61.5t-13 77.5q0 42 18.5 78t51 62.5t76.5 41t95 14.5q54 0 99 -14t80 -41.5t58 -67.5
l-76 -75q-20 33 -45 55.5t-55 34t-64 11.5q-39 0 -68 -12t-45.5 -33.5t-16.5 -50.5q0 -21 8 -38.5t24.5 -31t44.5 -24t67 -18.5q55 -12 98 -30.5t73 -43.5t45.5 -56t15.5 -67q0 -67 -31 -116t-88 -75.5t-136 -26.5zM282 -243l-24 42q14 4 26.5 12.5t20 19t7.5 20.5
q0 6 -3.5 10t-15.5 7q-18 5 -24 14t-6 24q0 22 18 35.5t47 13.5q33 0 55.5 -21t22.5 -56q0 -19 -9 -37t-25 -33.5t-39 -28.5t-51 -22z" />
    <glyph glyph-name="uni0219" unicode="&#x219;" horiz-adv-x="479" 
d="M247 -10q-66 0 -119 23t-88 68l70 60q30 -35 65.5 -50.5t80.5 -15.5q18 0 33.5 4.5t27 13.5t17.5 21.5t6 27.5q0 26 -19 42q-10 7 -31.5 15.5t-55.5 17.5q-58 15 -95 34t-57 43q-15 19 -22 41.5t-7 49.5q0 33 14.5 60.5t40 48t60 31.5t73.5 11q37 0 73.5 -10t67.5 -29
t52 -45l-59 -65q-19 19 -41.5 33.5t-45.5 22.5t-42 8q-21 0 -38 -4t-28.5 -12t-17.5 -20t-6 -27q1 -13 6.5 -24.5t15.5 -19.5q11 -8 33 -17t56 -17q50 -13 82.5 -28.5t51.5 -35.5q20 -19 28 -44t8 -56q0 -45 -25.5 -80.5t-68.5 -55.5t-96 -20zM199 -242l-24 42
q14 4 26.5 12.5t20 19t7.5 20.5q0 6 -3.5 10t-15.5 7q-18 5 -24 14t-6 24q0 22 18 35.5t47 13.5q33 0 55.5 -21t22.5 -56q0 -19 -9 -37t-25 -33.5t-39 -28.5t-51 -22z" />
    <glyph glyph-name="uni021A" unicode="&#x21a;" horiz-adv-x="576" 
d="M231 0v596h-196v104h506v-104h-202v-596h-108zM238 -243l-24 42q14 4 26.5 12.5t20 19t7.5 20.5q0 6 -3.5 10t-15.5 7q-18 5 -24 14t-6 24q0 22 18 35.5t47 13.5q33 0 55.5 -21t22.5 -56q0 -19 -9 -37t-25 -33.5t-39 -28.5t-51 -22z" />
    <glyph glyph-name="uni021B" unicode="&#x21b;" horiz-adv-x="384" 
d="M137 0v659h103v-659h-103zM28 425v100h334v-100h-334zM142 -242l-24 42q14 4 26.5 12.5t20 19t7.5 20.5q0 6 -3.5 10t-15.5 7q-18 5 -24 14t-6 24q0 22 18 35.5t47 13.5q33 0 55.5 -21t22.5 -56q0 -19 -9 -37t-25 -33.5t-39 -28.5t-51 -22z" />
    <glyph glyph-name="uni022A" unicode="&#x22a;" horiz-adv-x="782" 
d="M391 -10q-74 0 -136.5 27t-109 75.5t-72 114t-25.5 143.5t25.5 143.5t72 114t109 75.5t136.5 27t136.5 -27t109 -76t72 -114.5t25.5 -142.5t-25.5 -142.5t-72 -114.5t-109 -76t-136.5 -27zM391 95q51 0 93.5 19t73.5 53.5t48.5 81t17.5 101.5t-17.5 101.5t-48.5 81
t-73.5 53.5t-93.5 19t-93.5 -19t-74 -53t-48.5 -80.5t-17 -102.5q0 -55 17 -102t48.5 -81t74 -53t93.5 -19zM494 759q-35 0 -52 18t-17 47q0 25 17 45t52 20t52 -18t17 -47q0 -25 -17 -45t-52 -20zM288 759q-35 0 -52 18t-17 47q0 25 17 45t52 20t52 -18t17 -47
q0 -25 -17 -45t-52 -20zM225 937v75h331v-75h-331z" />
    <glyph glyph-name="uni022B" unicode="&#x22b;" horiz-adv-x="615" 
d="M308 -10q-77 0 -137.5 35.5t-95.5 97t-35 140.5t35 140.5t95.5 97t137.5 35.5q76 0 136.5 -35.5t95.5 -97t35 -140.5t-35 -140.5t-95.5 -97t-136.5 -35.5zM308 84q47 0 84 23.5t58 64t20 91.5q1 52 -20 92.5t-58 63.5t-84 23t-84.5 -23.5t-58.5 -64t-20 -91.5
q-1 -51 20 -91.5t58.5 -64t84.5 -23.5zM408 642q-33 0 -51 17t-18 48q0 29 18.5 47t50.5 18q33 0 51 -17t18 -48q0 -29 -18.5 -47t-50.5 -18zM208 642q-33 0 -51 17t-18 48q0 29 18.5 47t50.5 18q33 0 51 -17t18 -48q0 -29 -18.5 -47t-50.5 -18zM166 827v75h284v-75h-284z
" />
    <glyph glyph-name="uni022C" unicode="&#x22c;" horiz-adv-x="782" 
d="M391 -10q-74 0 -136.5 27t-109 75.5t-72 114t-25.5 143.5t25.5 143.5t72 114t109 75.5t136.5 27t136.5 -27t109 -76t72 -114.5t25.5 -142.5t-25.5 -142.5t-72 -114.5t-109 -76t-136.5 -27zM391 95q51 0 93.5 19t73.5 53.5t48.5 81t17.5 101.5t-17.5 101.5t-48.5 81
t-73.5 53.5t-93.5 19t-93.5 -19t-74 -53t-48.5 -80.5t-17 -102.5q0 -55 17 -102t48.5 -81t74 -53t93.5 -19zM465 768q-23 0 -46.5 7.5t-44.5 15.5q-17 7 -29 11t-22 4q-13 0 -21.5 -9.5t-8.5 -28.5h-77q0 54 35 83.5t79 29.5q21 0 41 -7t39 -15q14 -6 27.5 -10t22.5 -4
q14 0 22 10t7 26h76q0 -29 -12 -55t-34.5 -42t-53.5 -16zM225 937v75h331v-75h-331z" />
    <glyph glyph-name="uni022D" unicode="&#x22d;" horiz-adv-x="615" 
d="M308 -10q-77 0 -137.5 35.5t-95.5 97t-35 140.5t35 140.5t95.5 97t137.5 35.5q76 0 136.5 -35.5t95.5 -97t35 -140.5t-35 -140.5t-95.5 -97t-136.5 -35.5zM308 84q47 0 84 23.5t58 64t20 91.5q1 52 -20 92.5t-58 63.5t-84 23t-84.5 -23.5t-58.5 -64t-20 -91.5
q-1 -51 20 -91.5t58.5 -64t84.5 -23.5zM359 615q-20 0 -33.5 8t-28.5 20q-19 17 -28.5 23.5t-17.5 6.5q-13 0 -23 -14.5t-14 -43.5l-68 10q2 49 31.5 85t78.5 36q20 0 33.5 -8t28.5 -20q20 -16 29 -23t17 -7q14 0 23.5 15t13.5 43l68 -10q-1 -32 -15 -60t-38 -44.5
t-57 -16.5zM166 827v75h284v-75h-284z" />
    <glyph glyph-name="uni0230" unicode="&#x230;" horiz-adv-x="782" 
d="M391 -10q-74 0 -136.5 27t-109 75.5t-72 114t-25.5 143.5t25.5 143.5t72 114t109 75.5t136.5 27t136.5 -27t109 -76t72 -114.5t25.5 -142.5t-25.5 -142.5t-72 -114.5t-109 -76t-136.5 -27zM391 95q51 0 93.5 19t73.5 53.5t48.5 81t17.5 101.5t-17.5 101.5t-48.5 81
t-73.5 53.5t-93.5 19t-93.5 -19t-74 -53t-48.5 -80.5t-17 -102.5q0 -55 17 -102t48.5 -81t74 -53t93.5 -19zM391 759q-35 0 -52 18t-17 47q0 25 17 45t52 20t52 -18t17 -47q0 -25 -17 -45t-52 -20zM225 937v75h331v-75h-331z" />
    <glyph glyph-name="uni0231" unicode="&#x231;" horiz-adv-x="615" 
d="M308 -10q-77 0 -137.5 35.5t-95.5 97t-35 140.5t35 140.5t95.5 97t137.5 35.5q76 0 136.5 -35.5t95.5 -97t35 -140.5t-35 -140.5t-95.5 -97t-136.5 -35.5zM308 84q47 0 84 23.5t58 64t20 91.5q1 52 -20 92.5t-58 63.5t-84 23t-84.5 -23.5t-58.5 -64t-20 -91.5
q-1 -51 20 -91.5t58.5 -64t84.5 -23.5zM308 641q-33 0 -51 17t-18 48q0 29 18.5 47t50.5 18q33 0 51 -17t18 -48q0 -29 -18.5 -47t-50.5 -18zM166 827v75h284v-75h-284z" />
    <glyph glyph-name="uni0232" unicode="&#x232;" horiz-adv-x="660" 
d="M286 0v349l7 -49l-283 400h130l216 -310l-25 3l195 307h124l-271 -411l15 68v-357h-108zM164 787v75h331v-75h-331z" />
    <glyph glyph-name="uni0233" unicode="&#x233;" horiz-adv-x="581" 
d="M160 -230l106 245l1 -82l-262 592h120l164 -386q5 -10 12 -30.5t12 -40.5l-26 -6q8 21 15.5 42t14.5 42l137 379h122l-216 -525l-89 -230h-111zM149 642v75h284v-75h-284z" />
    <glyph glyph-name="uni0237" unicode="&#x237;" horiz-adv-x="263" 
d="M8 -197l-39 79q39 0 64.5 13.5t38.5 40t13 65.5v524h103v-549q0 -51 -23 -90t-63.5 -61t-93.5 -22z" />
    <glyph glyph-name="uni0259" unicode="&#x259;" horiz-adv-x="586" 
d="M278 -12q-68 1 -122 34t-85 90.5t-31 130.5l1 44h429l23 -82h-363l15 17v-24q4 -32 22.5 -58.5t47.5 -41.5t63 -15q54 0 91 20.5t56 60t19 97.5q0 55 -23 95t-64.5 62.5t-97.5 22.5q-39 0 -72.5 -13t-72.5 -47l-52 73q25 24 59 42t72.5 28.5t75.5 10.5q82 0 144 -34
t97.5 -94.5t35.5 -138.5q0 -62 -20 -113t-55.5 -88.5t-84.5 -58t-108 -20.5z" />
    <glyph glyph-name="uni0272" unicode="&#x272;" horiz-adv-x="609" 
d="M9 -197l-39 79q29 0 50.5 7.5t36 22.5t22 37t7.5 52v524h103v-127l-13 21q14 32 42.5 58.5t66 42.5t76.5 16q60 0 100 -24t60 -71.5t20 -120.5v-320h-103v313q0 46 -12 75t-36.5 42.5t-62.5 11.5q-30 0 -55 -9.5t-43.5 -26.5t-29 -39.5t-10.5 -48.5v-342q0 -51 -22.5 -90
t-63 -61t-94.5 -22z" />
    <glyph glyph-name="uni02BB" unicode="&#x2bb;" horiz-adv-x="241" 
d="M139 480q-28 0 -50.5 14.5t-35.5 40t-13 58.5q0 26 11 51t30.5 47t45.5 39t56 26l38 -46q-39 -18 -64 -41t-25 -40q0 -13 11 -23t20 -18q22 -18 29.5 -30t7.5 -25q0 -24 -17 -38.5t-44 -14.5z" />
    <glyph glyph-name="uni02BC" unicode="&#x2bc;" horiz-adv-x="205" 
d="M37 442l23 258h118l-81 -258h-60z" />
    <glyph glyph-name="uni02BE" unicode="&#x2be;" horiz-adv-x="221" 
d="M62 530v61q20 0 33.5 12.5t13.5 31.5q0 20 -13 32t-34 12l1 62q29 -1 53.5 -15.5t39.5 -38t15 -52.5q0 -28 -15.5 -52t-40 -38.5t-53.5 -14.5z" />
    <glyph glyph-name="uni02BF" unicode="&#x2bf;" horiz-adv-x="221" 
d="M142 530q-27 0 -52.5 14.5t-41.5 38t-16 52.5t15 52.5t39.5 38t53.5 15.5l2 -62q-21 0 -34.5 -11.5t-13.5 -32.5q0 -19 13.5 -31.5t34.5 -12.5v-61z" />
    <glyph glyph-name="circumflex" unicode="&#x2c6;" horiz-adv-x="500" 
d="M130 607l-38 33l115 113h86l115 -113l-38 -33l-135 73h30z" />
    <glyph glyph-name="caron" unicode="&#x2c7;" horiz-adv-x="500" 
d="M207 607l-105 113l38 33l125 -73h-30l125 73l38 -33l-105 -113h-86z" />
    <glyph glyph-name="uni02C8" unicode="&#x2c8;" horiz-adv-x="231" 
d="M67 368v344h97v-344h-97z" />
    <glyph glyph-name="uni02CC" unicode="&#x2cc;" horiz-adv-x="231" 
d="M67 -147v344h97v-344h-97z" />
    <glyph glyph-name="breve" unicode="&#x2d8;" horiz-adv-x="402" 
d="M250 589q-64 0 -106 41.5t-56 112.5l74 12q13 -39 35.5 -62t52.5 -23t52.5 23t35.5 62l74 -12q-14 -71 -56 -112.5t-106 -41.5z" />
    <glyph glyph-name="dotaccent" unicode="&#x2d9;" horiz-adv-x="500" 
d="M250 641q-33 0 -51 17t-18 48q0 29 18.5 47t50.5 18q33 0 51 -17t18 -48q0 -29 -18.5 -47t-50.5 -18z" />
    <glyph glyph-name="ring" unicode="&#x2da;" horiz-adv-x="500" 
d="M250 604q-28 0 -53 14.5t-40.5 38.5t-15.5 52q0 29 15 53t40 38.5t54 14.5q30 0 55 -14.5t40 -38.5t15 -53q0 -28 -15 -52t-40 -38.5t-55 -14.5zM250 663q21 0 35.5 13.5t14.5 32.5q0 21 -14.5 34t-35.5 13t-35 -13.5t-14 -33.5q0 -19 14.5 -32.5t34.5 -13.5z" />
    <glyph glyph-name="ogonek" unicode="&#x2db;" horiz-adv-x="500" 
d="M250 -200q-29 0 -54 14t-40 37.5t-15 51.5q0 25 11 45.5t32 37.5t52 30.5t71 24.5l33 -41q-29 -6 -54 -20t-39.5 -31.5t-14.5 -35.5q0 -16 9.5 -26t24.5 -10q11 0 20 6.5t17 18.5l56 -40q-7 -16 -22 -30.5t-36.5 -23t-50.5 -8.5z" />
    <glyph glyph-name="tilde" unicode="&#x2dc;" horiz-adv-x="500" 
d="M302 615q-20 0 -33.5 8t-28.5 20q-19 17 -28.5 23.5t-17.5 6.5q-13 0 -23 -14.5t-14 -43.5l-68 10q2 49 31.5 85t78.5 36q20 0 33.5 -8t28.5 -20q20 -16 29 -23t17 -7q14 0 23.5 15t13.5 43l68 -10q-1 -32 -15 -60t-38 -44.5t-57 -16.5z" />
    <glyph glyph-name="hungarumlaut" unicode="&#x2dd;" horiz-adv-x="500" 
d="M280 606l-34 51l143 125l65 -82zM81 606l-34 51l143 125l65 -82z" />
    <glyph glyph-name="gravecomb" unicode="&#x300;" 
d="M320 606l-174 94l65 82l143 -125z" />
    <glyph glyph-name="acutecomb" unicode="&#x301;" 
d="M180 606l-34 51l143 125l65 -82z" />
    <glyph glyph-name="uni0302" unicode="&#x302;" 
d="M130 607l-38 33l115 113h86l115 -113l-38 -33l-135 73h30z" />
    <glyph glyph-name="tildecomb" unicode="&#x303;" 
d="M302 615q-20 0 -33.5 8t-28.5 20q-19 17 -28.5 23.5t-17.5 6.5q-13 0 -23 -14.5t-14 -43.5l-68 10q2 49 31.5 85t78.5 36q20 0 33.5 -8t28.5 -20q20 -16 29 -23t17 -7q14 0 23.5 15t13.5 43l68 -10q-1 -32 -15 -60t-38 -44.5t-57 -16.5z" />
    <glyph glyph-name="uni0304" unicode="&#x304;" 
d="M108 642v75h284v-75h-284z" />
    <glyph glyph-name="uni0306" unicode="&#x306;" 
d="M250 589q-64 0 -106 41.5t-56 112.5l74 12q13 -39 35.5 -62t52.5 -23t52.5 23t35.5 62l74 -12q-14 -71 -56 -112.5t-106 -41.5z" />
    <glyph glyph-name="uni0307" unicode="&#x307;" 
d="M250 641q-33 0 -51 17t-18 48q0 29 18.5 47t50.5 18q33 0 51 -17t18 -48q0 -29 -18.5 -47t-50.5 -18z" />
    <glyph glyph-name="uni0308" unicode="&#x308;" 
d="M350 642q-33 0 -51 17t-18 48q0 29 18.5 47t50.5 18q33 0 51 -17t18 -48q0 -29 -18.5 -47t-50.5 -18zM150 642q-33 0 -51 17t-18 48q0 29 18.5 47t50.5 18q33 0 51 -17t18 -48q0 -29 -18.5 -47t-50.5 -18z" />
    <glyph glyph-name="hookabovecomb" unicode="&#x309;" 
d="M228 593q-7 10 -11 19.5t-4 18.5t5.5 20t21.5 22q17 11 23.5 17t6.5 13q0 9 -8.5 13t-21.5 4q-16 0 -35 -5t-36 -13l-16 63q21 12 45 18t44 6q53 0 79.5 -22.5t26.5 -54.5q0 -25 -11.5 -39.5t-25.5 -21.5q-18 -9 -26.5 -15.5t-8.5 -16.5q0 -4 1 -7l2 -6z" />
    <glyph glyph-name="uni030A" unicode="&#x30a;" 
d="M250 604q-28 0 -53 14.5t-40.5 38.5t-15.5 52q0 29 15 53t40 38.5t54 14.5q30 0 55 -14.5t40 -38.5t15 -53q0 -28 -15 -52t-40 -38.5t-55 -14.5zM250 663q21 0 35.5 13.5t14.5 32.5q0 21 -14.5 34t-35.5 13t-35 -13.5t-14 -33.5q0 -19 14.5 -32.5t34.5 -13.5z" />
    <glyph glyph-name="uni030B" unicode="&#x30b;" 
d="M280 606l-34 51l143 125l65 -82zM81 606l-34 51l143 125l65 -82z" />
    <glyph glyph-name="uni030C" unicode="&#x30c;" 
d="M207 607l-105 113l38 33l125 -73h-30l125 73l38 -33l-105 -113h-86z" />
    <glyph glyph-name="uni030F" unicode="&#x30f;" 
d="M420 606l-174 94l65 82l143 -125zM221 606l-174 94l65 82l143 -125z" />
    <glyph glyph-name="uni0311" unicode="&#x311;" 
d="M162 599l-74 12q14 71 56 112.5t106 41.5t106 -41.5t56 -112.5l-74 -12q-13 39 -35.5 62t-52.5 23t-52.5 -23t-35.5 -62z" />
    <glyph glyph-name="uni0312" unicode="&#x312;" 
d="M254 606q-27 0 -52.5 18.5t-25.5 58.5q0 26 14 46.5t34.5 35.5t41.5 25t34 14l24 -42q-13 -2 -25.5 -10.5t-20.5 -19.5t-8 -22q0 -10 6.5 -13t14.5 -5q10 -3 19 -9.5t9 -27.5q0 -24 -19 -36.5t-46 -12.5z" />
    <glyph glyph-name="uni031B" unicode="&#x31b;" 
d="M160 437v65q50 0 74 28.5t24 85.5h82q0 -51 -17.5 -91.5t-57 -64t-105.5 -23.5z" />
    <glyph glyph-name="dotbelowcomb" unicode="&#x323;" 
d="M250 -206q-33 0 -51 17t-18 48q0 29 18.5 47t50.5 18q33 0 51 -17t18 -48q0 -29 -18.5 -47t-50.5 -18z" />
    <glyph glyph-name="uni0324" unicode="&#x324;" 
d="M350 -206q-33 0 -51 17t-18 48q0 29 18.5 47t50.5 18q33 0 51 -17t18 -48q0 -29 -18.5 -47t-50.5 -18zM150 -206q-33 0 -51 17t-18 48q0 29 18.5 47t50.5 18q33 0 51 -17t18 -48q0 -29 -18.5 -47t-50.5 -18z" />
    <glyph glyph-name="uni0326" unicode="&#x326;" 
d="M200 -242l-24 42q14 4 26.5 12.5t20 19t7.5 20.5q0 6 -3.5 10t-15.5 7q-18 5 -24 14t-6 24q0 22 18 35.5t47 13.5q33 0 55.5 -21t22.5 -56q0 -19 -9 -37t-25 -33.5t-39 -28.5t-51 -22z" />
    <glyph glyph-name="uni0327" unicode="&#x327;" 
d="M159 -244l-7 53q24 0 50 8t44 20.5t18 24.5q0 14 -17 22t-38 12t-35 4l-13 10l72 114h59l-43 -70q50 -10 75 -34t25 -59q0 -26 -17.5 -46t-45.5 -33.5t-61.5 -20t-65.5 -5.5z" />
    <glyph glyph-name="uni0328" unicode="&#x328;" 
d="M250 -200q-29 0 -54 14t-40 37.5t-15 51.5q0 25 11 45.5t32 37.5t52 30.5t71 24.5l33 -41q-29 -6 -54 -20t-39.5 -31.5t-14.5 -35.5q0 -16 9.5 -26t24.5 -10q11 0 20 6.5t17 18.5l56 -40q-7 -16 -22 -30.5t-36.5 -23t-50.5 -8.5z" />
    <glyph glyph-name="uni032E" unicode="&#x32e;" 
d="M250 -234q-61 0 -104.5 41.5t-57.5 112.5l74 12q13 -39 37 -62t51 -23t51 23t37 62l74 -12q-14 -71 -57.5 -112.5t-104.5 -41.5z" />
    <glyph glyph-name="uni0331" unicode="&#x331;" 
d="M110 -178v74h281v-74h-281z" />
    <glyph glyph-name="uni0335" unicode="&#x335;" 
d="M116 251v90h268v-90h-268z" />
    <glyph glyph-name="uni0394" unicode="&#x394;" horiz-adv-x="711" 
d="M14 0l341 717l346 -717h-687zM139 64l-17 19h476l-25 -22l-226 469h16z" />
    <glyph glyph-name="uni03A9" unicode="&#x3a9;" horiz-adv-x="675" 
d="M39 0v97h171l-25 -32q-49 50 -85 107t-55.5 116t-19.5 116q0 66 23.5 122t66 97t99.5 64t124 23t124 -23t99 -64.5t65.5 -97.5t23.5 -122q0 -56 -19.5 -115t-55 -116t-84.5 -106l-19 31h164v-97h-250v56q26 32 45 56t31 39.5t17 22.5q24 34 40.5 68t25 73.5t8.5 87.5
q0 45 -16 83.5t-45.5 66.5t-68.5 44t-85 16t-85.5 -15.5t-68.5 -44t-45 -67t-16 -83.5q0 -61 14 -108.5t39 -88t58 -81.5q11 -14 19.5 -24.5t15 -19t11 -15t7.5 -10.5v-56h-248z" />
    <glyph glyph-name="uni03BC" unicode="&#x3bc;" horiz-adv-x="586" 
d="M80 -157v682h97v-303q0 -47 12 -78.5t36 -47.5t59 -16q29 0 53.5 11t42.5 30.5t28.5 45t10.5 55.5v303h97v-525h-97v114l7 -14q-12 -36 -36 -60.5t-55.5 -37t-65.5 -12.5q-21 0 -41.5 7.5t-36 21t-21.5 30.5l7 13v-219h-97z" />
    <glyph glyph-name="pi" unicode="&#x3c0;" horiz-adv-x="614" 
d="M114 0v476l17 -51h-91v101h534v-101h-83l9 13v-438h-91v460l10 -35h-227l13 13v-438h-91z" />
    <glyph glyph-name="uni1E08" unicode="&#x1e08;" horiz-adv-x="679" 
d="M382 -10q-73 0 -134 26t-106 74.5t-69.5 114.5t-24.5 145q0 75 26.5 139.5t73.5 113.5t109 76t134 27q51 0 99.5 -15.5t88 -43t64.5 -62.5l-72 -75q-29 29 -58.5 48.5t-60 29.5t-61.5 10q-49 0 -91.5 -18.5t-74 -51.5t-49.5 -78.5t-18 -99.5q0 -57 17.5 -103.5
t49.5 -79.5t76.5 -50.5t98.5 -17.5q33 0 65 9t60 26t51 40l54 -88q-23 -27 -62.5 -49t-88 -34.5t-97.5 -12.5zM284 -244l-7 53q24 0 50 8t44 20.5t18 24.5q0 14 -17 22t-38 12t-35 4l-13 10l72 114h59l-42 -70q49 -10 74 -34t25 -59q0 -26 -17 -46t-45 -33.5t-61.5 -20
t-66.5 -5.5zM322 755l-28 52l183 113l47 -90z" />
    <glyph glyph-name="uni1E09" unicode="&#x1e09;" horiz-adv-x="535" 
d="M295 -10q-73 0 -130.5 36t-91 98t-33.5 139t33.5 139t91 98t130.5 36q70 0 127.5 -28.5t87.5 -77.5l-57 -70q-16 23 -41 42t-53 30t-54 11q-48 0 -85.5 -23.5t-59.5 -64.5t-22 -92t23 -91.5t61 -64.5t84 -24q27 0 52.5 9t49.5 27t45 44l57 -70q-32 -45 -91.5 -74
t-123.5 -29zM204 -244l-7 53q24 0 50 8t44 20.5t18 24.5q0 14 -17 22t-38 12t-35 4l-13 10l72 114h59l-43 -70q50 -10 75 -34t25 -59q0 -26 -17.5 -46t-45.5 -33.5t-61.5 -20t-65.5 -5.5zM225 606l-34 51l143 125l65 -82z" />
    <glyph glyph-name="uni1E0C" unicode="&#x1e0c;" horiz-adv-x="748" 
d="M98 0v700h274q75 0 135.5 -25t103.5 -72t66 -111t23 -142t-23 -142.5t-65.5 -111t-103.5 -71.5t-136 -25h-274zM206 93l-3 11h164q53 0 94.5 17t70 48.5t43.5 77.5t15 103t-15 102.5t-44 77.5t-70 49t-94 17h-167l6 9v-512zM374 -206q-33 0 -51 17t-18 48q0 29 18.5 47
t50.5 18q33 0 51 -17t18 -48q0 -29 -18.5 -47t-50.5 -18z" />
    <glyph glyph-name="uni1E0D" unicode="&#x1e0d;" horiz-adv-x="634" 
d="M291 -10q-72 0 -128.5 35.5t-89.5 97t-33 140.5t32.5 140.5t88.5 97t127 35.5q39 0 75.5 -12.5t65.5 -34t45.5 -47t16.5 -51.5l-30 -2v351h103v-740h-103v125h20q0 -24 -16 -47.5t-42.5 -43.5t-61 -32t-70.5 -12zM305 79q47 0 83 24t56.5 65.5t20.5 94.5t-20.5 94.5
t-56.5 65.5t-83 24t-83 -24t-56.5 -65.5t-20.5 -94.5t20.5 -94.5t56.5 -65.5t83 -24zM317 -206q-33 0 -51 17t-18 48q0 29 18.5 47t50.5 18q33 0 51 -17t18 -48q0 -29 -18.5 -47t-50.5 -18z" />
    <glyph glyph-name="uni1E0E" unicode="&#x1e0e;" horiz-adv-x="748" 
d="M98 0v700h274q75 0 135.5 -25t103.5 -72t66 -111t23 -142t-23 -142.5t-65.5 -111t-103.5 -71.5t-136 -25h-274zM206 93l-3 11h164q53 0 94.5 17t70 48.5t43.5 77.5t15 103t-15 102.5t-44 77.5t-70 49t-94 17h-167l6 9v-512zM233 -178v74h281v-74h-281z" />
    <glyph glyph-name="uni1E0F" unicode="&#x1e0f;" horiz-adv-x="634" 
d="M291 -10q-72 0 -128.5 35.5t-89.5 97t-33 140.5t32.5 140.5t88.5 97t127 35.5q39 0 75.5 -12.5t65.5 -34t45.5 -47t16.5 -51.5l-30 -2v351h103v-740h-103v125h20q0 -24 -16 -47.5t-42.5 -43.5t-61 -32t-70.5 -12zM305 79q47 0 83 24t56.5 65.5t20.5 94.5t-20.5 94.5
t-56.5 65.5t-83 24t-83 -24t-56.5 -65.5t-20.5 -94.5t20.5 -94.5t56.5 -65.5t83 -24zM176 -178v74h281v-74h-281z" />
    <glyph glyph-name="uni1E14" unicode="&#x1e14;" horiz-adv-x="614" 
d="M98 0v700h441v-104h-333v-492h333v-104h-441zM147 307v104h337v-104h-337zM161 787v75h331v-75h-331zM403 905l-202 75l49 90l183 -113z" />
    <glyph glyph-name="uni1E15" unicode="&#x1e15;" horiz-adv-x="586" 
d="M317 -10q-81 0 -143.5 34.5t-98 94.5t-35.5 138q0 62 20 113t55.5 88.5t85 58t107.5 20.5q51 0 95 -19.5t76.5 -53.5t50 -80.5t16.5 -101.5l-1 -44h-429l-23 82h363l-15 -17v24q-3 33 -22 59t-48 41t-63 15q-54 0 -91 -20.5t-56 -60t-19 -97.5q0 -55 23 -95.5t65 -62.5
t97 -22q39 0 72.5 13t72.5 47l52 -73q-24 -24 -58.5 -42t-73 -28.5t-75.5 -10.5zM323 747l-117 120l77 57l92 -141zM166 632v75h284v-75h-284z" />
    <glyph glyph-name="uni1E16" unicode="&#x1e16;" horiz-adv-x="614" 
d="M98 0v700h441v-104h-333v-492h333v-104h-441zM147 307v104h337v-104h-337zM161 787v75h331v-75h-331zM259 905l-28 52l183 113l47 -90z" />
    <glyph glyph-name="uni1E17" unicode="&#x1e17;" horiz-adv-x="586" 
d="M317 -10q-81 0 -143.5 34.5t-98 94.5t-35.5 138q0 62 20 113t55.5 88.5t85 58t107.5 20.5q51 0 95 -19.5t76.5 -53.5t50 -80.5t16.5 -101.5l-1 -44h-429l-23 82h363l-15 -17v24q-3 33 -22 59t-48 41t-63 15q-54 0 -91 -20.5t-56 -60t-19 -97.5q0 -55 23 -95.5t65 -62.5
t97 -22q39 0 72.5 13t72.5 47l52 -73q-24 -24 -58.5 -42t-73 -28.5t-75.5 -10.5zM166 632v75h284v-75h-284zM308 747l-52 36l92 141l77 -57z" />
    <glyph glyph-name="uni1E1C" unicode="&#x1e1c;" horiz-adv-x="614" 
d="M98 0v700h441v-104h-333v-492h333v-104h-441zM147 307v104h337v-104h-337zM215 -244l-7 53q24 0 50 8t44 20.5t18 24.5q0 14 -17 22t-38 12t-35 4l-13 10l72 114h59l-42 -70q49 -10 74 -34t25 -59q0 -26 -17 -46t-45 -33.5t-61.5 -20t-66.5 -5.5zM327 751
q-41 0 -74.5 18.5t-56 49t-31.5 66.5l74 12q11 -25 34 -45t54 -20t54 20t34 45l74 -12q-8 -36 -31 -66.5t-56 -49t-75 -18.5z" />
    <glyph glyph-name="uni1E1D" unicode="&#x1e1d;" horiz-adv-x="586" 
d="M317 -10q-81 0 -143.5 34.5t-98 94.5t-35.5 138q0 62 20 113t55.5 88.5t85 58t107.5 20.5q51 0 95 -19.5t76.5 -53.5t50 -80.5t16.5 -101.5l-1 -44h-429l-23 82h363l-15 -17v24q-3 33 -22 59t-48 41t-63 15q-54 0 -91 -20.5t-56 -60t-19 -97.5q0 -55 23 -95.5t65 -62.5
t97 -22q39 0 72.5 13t72.5 47l52 -73q-24 -24 -58.5 -42t-73 -28.5t-75.5 -10.5zM225 -244l-7 53q24 0 50 8t44 20.5t18 24.5q0 14 -17 22t-38 12t-35 4l-13 10l72 114h59l-43 -70q50 -10 75 -34t25 -59q0 -26 -17.5 -46t-45.5 -33.5t-61.5 -20t-65.5 -5.5zM308 589
q-64 0 -106 41.5t-56 112.5l74 12q13 -39 35.5 -62t52.5 -23t52.5 23t35.5 62l74 -12q-14 -71 -56 -112.5t-106 -41.5z" />
    <glyph glyph-name="uni1E20" unicode="&#x1e20;" horiz-adv-x="766" 
d="M411 -10q-76 0 -142 27.5t-116 76.5t-77.5 114.5t-27.5 141.5q0 75 27.5 140t77 113.5t115.5 75.5t142 27q53 0 103.5 -15t91.5 -42t67 -62l-70 -73q-30 29 -61.5 48t-64.5 29t-66 10q-54 0 -99.5 -19t-80 -53t-53.5 -79.5t-19 -99.5q0 -52 20 -98.5t55.5 -81.5t82 -55
t98.5 -20q39 0 74 11.5t62 32.5t42 48.5t15 58.5v20l15 -14h-214v107h310q2 -11 3 -21.5t1.5 -20t0.5 -18.5q0 -69 -24 -125.5t-66.5 -97.5t-99 -63.5t-122.5 -22.5zM237 787v75h331v-75h-331z" />
    <glyph glyph-name="uni1E21" unicode="&#x1e21;" horiz-adv-x="649" 
d="M307 -230q-56 0 -111.5 17.5t-89.5 45.5l38 80q20 -15 47 -26.5t57 -18t59 -6.5q55 0 92 18t56 53t19 87v101l11 -7q-5 -31 -32.5 -59.5t-68.5 -46.5t-84 -18q-75 0 -133.5 35.5t-92.5 97t-34 140.5t33.5 140.5t92 97t131.5 35.5q30 0 58 -7.5t52 -21t43 -29.5t31 -34
t15 -34l-22 -8v123h103v-493q0 -63 -18.5 -111.5t-53.5 -82t-85 -51t-113 -17.5zM311 85q49 0 87 23t59 63t21 92t-21.5 92.5t-59 63.5t-86.5 23q-48 0 -85.5 -23.5t-59 -64t-21.5 -91.5t21.5 -91.5t59 -63.5t85.5 -23zM183 642v75h284v-75h-284z" />
    <glyph glyph-name="uni1E24" unicode="&#x1e24;" horiz-adv-x="761" 
d="M555 0v700h108v-700h-108zM98 0v700h108v-700h-108zM145 297v104h458v-104h-458zM381 -206q-33 0 -51 17t-18 48q0 29 18.5 47t50.5 18q33 0 51 -17t18 -48q0 -29 -18.5 -47t-50.5 -18z" />
    <glyph glyph-name="uni1E25" unicode="&#x1e25;" horiz-adv-x="595" 
d="M72 0v740h103v-323l-18 -12q10 35 39 64.5t69 48t82 18.5q60 0 100 -23.5t60 -71.5t20 -121v-320h-103v313q0 45 -12 74.5t-37 43t-62 11.5q-30 0 -55 -9.5t-43.5 -26.5t-29 -39.5t-10.5 -48.5v-318h-51h-26h-26zM298 -206q-33 0 -51 17t-18 48q0 29 18.5 47t50.5 18
q33 0 51 -17t18 -48q0 -29 -18.5 -47t-50.5 -18z" />
    <glyph glyph-name="uni1E2A" unicode="&#x1e2a;" horiz-adv-x="761" 
d="M555 0v700h108v-700h-108zM98 0v700h108v-700h-108zM145 297v104h458v-104h-458zM381 -234q-61 0 -104.5 41.5t-57.5 112.5l74 12q13 -39 37 -62t51 -23t51 23t37 62l74 -12q-14 -71 -57.5 -112.5t-104.5 -41.5z" />
    <glyph glyph-name="uni1E2B" unicode="&#x1e2b;" horiz-adv-x="595" 
d="M72 0v740h103v-323l-18 -12q10 35 39 64.5t69 48t82 18.5q60 0 100 -23.5t60 -71.5t20 -121v-320h-103v313q0 45 -12 74.5t-37 43t-62 11.5q-30 0 -55 -9.5t-43.5 -26.5t-29 -39.5t-10.5 -48.5v-318h-51h-26h-26zM298 -234q-61 0 -104.5 41.5t-57.5 112.5l74 12
q13 -39 37 -62t51 -23t51 23t37 62l74 -12q-14 -71 -57.5 -112.5t-104.5 -41.5z" />
    <glyph glyph-name="uni1E2E" unicode="&#x1e2e;" horiz-adv-x="478" 
d="M72 0v100h113v500h-113v100h334v-100h-113v-500h113v-100h-334zM171 915l-28 52l183 113l47 -90zM136 759q-35 0 -52 18t-17 47q0 25 17 45t52 20t52 -18t17 -47q0 -25 -17 -45t-52 -20zM342 759q-35 0 -52 18t-17 47q0 25 17 45t52 20t52 -18t17 -47q0 -25 -17 -45
t-52 -20z" />
    <glyph glyph-name="uni1E2F" unicode="&#x1e2f;" horiz-adv-x="243" 
d="M70 0v525h103v-525h-103zM21 635q-33 0 -51 17t-18 48q0 29 18.5 47t50.5 18q33 0 51 -17t18 -48q0 -29 -18.5 -47t-50.5 -18zM221 635q-33 0 -51 17t-18 48q0 29 18.5 47t50.5 18q33 0 51 -17t18 -48q0 -29 -18.5 -47t-50.5 -18zM129 781l-52 36l82 146l87 -62z" />
    <glyph glyph-name="uni1E36" unicode="&#x1e36;" horiz-adv-x="599" 
d="M98 0v700h108v-596h328v-104h-436zM300 -206q-33 0 -51 17t-18 48q0 29 18.5 47t50.5 18q33 0 51 -17t18 -48q0 -29 -18.5 -47t-50.5 -18z" />
    <glyph glyph-name="uni1E37" unicode="&#x1e37;" horiz-adv-x="251" 
d="M74 0v740h103v-740h-103zM126 -206q-33 0 -51 17t-18 48q0 29 18.5 47t50.5 18q33 0 51 -17t18 -48q0 -29 -18.5 -47t-50.5 -18z" />
    <glyph glyph-name="uni1E3A" unicode="&#x1e3a;" horiz-adv-x="599" 
d="M98 0v700h108v-596h328v-104h-436zM159 -178v74h281v-74h-281z" />
    <glyph glyph-name="uni1E3B" unicode="&#x1e3b;" horiz-adv-x="251" 
d="M74 0v740h103v-740h-103zM-15 -178v74h281v-74h-281z" />
    <glyph glyph-name="uni1E42" unicode="&#x1e42;" horiz-adv-x="864" 
d="M98 0v700h106l255 -415l-51 1l258 414h100v-700h-108v287q0 90 4.5 162t15.5 143l14 -37l-229 -354h-66l-222 350l11 41q11 -67 15.5 -137.5t4.5 -167.5v-287h-108zM432 -206q-33 0 -51 17t-18 48q0 29 18.5 47t50.5 18q33 0 51 -17t18 -48q0 -29 -18.5 -47t-50.5 -18z
" />
    <glyph glyph-name="uni1E43" unicode="&#x1e43;" horiz-adv-x="921" 
d="M70 0v525h104v-112l-19 -12q8 26 25.5 50t43 42.5t55 29.5t60.5 11q45 0 79 -15t56 -45t32 -75l-16 4l7 17q11 23 30.5 43.5t44.5 36.5t53 25t55 9q59 0 97.5 -24t58 -73t19.5 -122v-315h-104v309q0 45 -11.5 73.5t-34.5 42.5t-59 14q-28 0 -52.5 -9.5t-42.5 -26.5
t-28 -39.5t-10 -49.5v-314h-104v311q0 41 -12 69.5t-35 43.5t-56 15q-28 0 -52 -9.5t-42 -26t-28 -39t-10 -48.5v-316h-104zM461 -206q-33 0 -51 17t-18 48q0 29 18.5 47t50.5 18q33 0 51 -17t18 -48q0 -29 -18.5 -47t-50.5 -18z" />
    <glyph glyph-name="uni1E44" unicode="&#x1e44;" horiz-adv-x="793" 
d="M98 0v700h97l428 -573l-16 -9q-4 25 -7 54.5t-5.5 63t-4 71t-2.5 78.5t-1 85v230h108v-700h-99l-421 552l11 14q5 -61 8.5 -103.5t6 -72t3.5 -48t1.5 -30.5t0.5 -21v-291h-108zM397 759q-35 0 -52 18t-17 47q0 25 17 45t52 20t52 -18t17 -47q0 -25 -17 -45t-52 -20z" />
    <glyph glyph-name="uni1E45" unicode="&#x1e45;" horiz-adv-x="595" 
d="M72 0v525h103v-108l-18 -12q10 35 39 64.5t69 48t82 18.5q60 0 100 -23.5t60 -71.5t20 -121v-320h-103v313q0 45 -12 74.5t-37 43t-62 11.5q-30 0 -55 -9.5t-43.5 -26.5t-29 -39.5t-10.5 -48.5v-318h-51h-26h-26zM328 641q-33 0 -51 17t-18 48q0 29 18.5 47t50.5 18
q33 0 51 -17t18 -48q0 -29 -18.5 -47t-50.5 -18z" />
    <glyph glyph-name="uni1E46" unicode="&#x1e46;" horiz-adv-x="793" 
d="M98 0v700h97l428 -573l-16 -9q-4 25 -7 54.5t-5.5 63t-4 71t-2.5 78.5t-1 85v230h108v-700h-99l-421 552l11 14q5 -61 8.5 -103.5t6 -72t3.5 -48t1.5 -30.5t0.5 -21v-291h-108zM397 -206q-33 0 -51 17t-18 48q0 29 18.5 47t50.5 18q33 0 51 -17t18 -48q0 -29 -18.5 -47
t-50.5 -18z" />
    <glyph glyph-name="uni1E47" unicode="&#x1e47;" horiz-adv-x="595" 
d="M72 0v525h103v-108l-18 -12q10 35 39 64.5t69 48t82 18.5q60 0 100 -23.5t60 -71.5t20 -121v-320h-103v313q0 45 -12 74.5t-37 43t-62 11.5q-30 0 -55 -9.5t-43.5 -26.5t-29 -39.5t-10.5 -48.5v-318h-51h-26h-26zM298 -206q-33 0 -51 17t-18 48q0 29 18.5 47t50.5 18
q33 0 51 -17t18 -48q0 -29 -18.5 -47t-50.5 -18z" />
    <glyph glyph-name="uni1E48" unicode="&#x1e48;" horiz-adv-x="793" 
d="M98 0v700h97l428 -573l-16 -9q-4 25 -7 54.5t-5.5 63t-4 71t-2.5 78.5t-1 85v230h108v-700h-99l-421 552l11 14q5 -61 8.5 -103.5t6 -72t3.5 -48t1.5 -30.5t0.5 -21v-291h-108zM256 -178v74h281v-74h-281z" />
    <glyph glyph-name="uni1E49" unicode="&#x1e49;" horiz-adv-x="595" 
d="M72 0v525h103v-108l-18 -12q10 35 39 64.5t69 48t82 18.5q60 0 100 -23.5t60 -71.5t20 -121v-320h-103v313q0 45 -12 74.5t-37 43t-62 11.5q-30 0 -55 -9.5t-43.5 -26.5t-29 -39.5t-10.5 -48.5v-318h-51h-26h-26zM157 -178v74h281v-74h-281z" />
    <glyph glyph-name="uni1E4C" unicode="&#x1e4c;" horiz-adv-x="782" 
d="M391 -10q-74 0 -136.5 27t-109 75.5t-72 114t-25.5 143.5t25.5 143.5t72 114t109 75.5t136.5 27t136.5 -27t109 -76t72 -114.5t25.5 -142.5t-25.5 -142.5t-72 -114.5t-109 -76t-136.5 -27zM391 95q51 0 93.5 19t73.5 53.5t48.5 81t17.5 101.5t-17.5 101.5t-48.5 81
t-73.5 53.5t-93.5 19t-93.5 -19t-74 -53t-48.5 -80.5t-17 -102.5q0 -55 17 -102t48.5 -81t74 -53t93.5 -19zM465 768q-23 0 -46.5 7.5t-44.5 15.5q-17 7 -29 11t-22 4q-13 0 -21.5 -9.5t-8.5 -28.5h-77q0 54 35 83.5t79 29.5q21 0 41 -7t39 -15q14 -6 27.5 -10t22.5 -4
q14 0 22 10t7 26h76q0 -29 -12 -55t-34.5 -42t-53.5 -16zM323 905l-28 52l183 113l47 -90z" />
    <glyph glyph-name="uni1E4D" unicode="&#x1e4d;" horiz-adv-x="615" 
d="M308 -10q-77 0 -137.5 35.5t-95.5 97t-35 140.5t35 140.5t95.5 97t137.5 35.5q76 0 136.5 -35.5t95.5 -97t35 -140.5t-35 -140.5t-95.5 -97t-136.5 -35.5zM308 84q47 0 84 23.5t58 64t20 91.5q1 52 -20 92.5t-58 63.5t-84 23t-84.5 -23.5t-58.5 -64t-20 -91.5
q-1 -51 20 -91.5t58.5 -64t84.5 -23.5zM359 615q-20 0 -33.5 8t-28.5 20q-19 17 -28.5 23.5t-17.5 6.5q-13 0 -23 -14.5t-14 -43.5l-68 10q2 49 31.5 85t78.5 36q20 0 33.5 -8t28.5 -20q20 -16 29 -23t17 -7q14 0 23.5 15t13.5 43l68 -10q-1 -32 -15 -60t-38 -44.5
t-57 -16.5zM319 767l-52 36l92 141l77 -57z" />
    <glyph glyph-name="uni1E4E" unicode="&#x1e4e;" horiz-adv-x="782" 
d="M391 -10q-74 0 -136.5 27t-109 75.5t-72 114t-25.5 143.5t25.5 143.5t72 114t109 75.5t136.5 27t136.5 -27t109 -76t72 -114.5t25.5 -142.5t-25.5 -142.5t-72 -114.5t-109 -76t-136.5 -27zM391 95q51 0 93.5 19t73.5 53.5t48.5 81t17.5 101.5t-17.5 101.5t-48.5 81
t-73.5 53.5t-93.5 19t-93.5 -19t-74 -53t-48.5 -80.5t-17 -102.5q0 -55 17 -102t48.5 -81t74 -53t93.5 -19zM465 768q-23 0 -46.5 7.5t-44.5 15.5q-17 7 -29 11t-22 4q-13 0 -21.5 -9.5t-8.5 -28.5h-77q0 54 35 83.5t79 29.5q21 0 41 -7t39 -15q14 -6 27.5 -10t22.5 -4
q14 0 22 10t7 26h76q0 -29 -12 -55t-34.5 -42t-53.5 -16zM494 909q-35 0 -52 18t-17 47q0 25 17 45t52 20t52 -18t17 -47q0 -25 -17 -45t-52 -20zM288 909q-35 0 -52 18t-17 47q0 25 17 45t52 20t52 -18t17 -47q0 -25 -17 -45t-52 -20z" />
    <glyph glyph-name="uni1E4F" unicode="&#x1e4f;" horiz-adv-x="615" 
d="M308 -10q-77 0 -137.5 35.5t-95.5 97t-35 140.5t35 140.5t95.5 97t137.5 35.5q76 0 136.5 -35.5t95.5 -97t35 -140.5t-35 -140.5t-95.5 -97t-136.5 -35.5zM308 84q47 0 84 23.5t58 64t20 91.5q1 52 -20 92.5t-58 63.5t-84 23t-84.5 -23.5t-58.5 -64t-20 -91.5
q-1 -51 20 -91.5t58.5 -64t84.5 -23.5zM407 797q-33 0 -51 17t-18 48q0 29 18.5 47t50.5 18q33 0 51 -17t18 -48q0 -29 -18.5 -47t-50.5 -18zM207 797q-33 0 -51 17t-18 48q0 29 18.5 47t50.5 18q33 0 51 -17t18 -48q0 -29 -18.5 -47t-50.5 -18zM358 615q-20 0 -33.5 8
t-28.5 20q-19 17 -28.5 23.5t-17.5 6.5q-13 0 -23 -14.5t-14 -43.5l-68 10q2 49 31.5 85t78.5 36q20 0 33.5 -8t28.5 -20q20 -16 29 -23t17 -7q14 0 23.5 15t13.5 43l68 -10q-1 -32 -15 -60t-38 -44.5t-57 -16.5z" />
    <glyph glyph-name="uni1E50" unicode="&#x1e50;" horiz-adv-x="782" 
d="M391 -10q-74 0 -136.5 27t-109 75.5t-72 114t-25.5 143.5t25.5 143.5t72 114t109 75.5t136.5 27t136.5 -27t109 -76t72 -114.5t25.5 -142.5t-25.5 -142.5t-72 -114.5t-109 -76t-136.5 -27zM391 95q51 0 93.5 19t73.5 53.5t48.5 81t17.5 101.5t-17.5 101.5t-48.5 81
t-73.5 53.5t-93.5 19t-93.5 -19t-74 -53t-48.5 -80.5t-17 -102.5q0 -55 17 -102t48.5 -81t74 -53t93.5 -19zM225 787v75h331v-75h-331zM467 905l-202 75l49 90l183 -113z" />
    <glyph glyph-name="uni1E51" unicode="&#x1e51;" horiz-adv-x="615" 
d="M308 -10q-77 0 -137.5 35.5t-95.5 97t-35 140.5t35 140.5t95.5 97t137.5 35.5q76 0 136.5 -35.5t95.5 -97t35 -140.5t-35 -140.5t-95.5 -97t-136.5 -35.5zM308 84q47 0 84 23.5t58 64t20 91.5q1 52 -20 92.5t-58 63.5t-84 23t-84.5 -23.5t-58.5 -64t-20 -91.5
q-1 -51 20 -91.5t58.5 -64t84.5 -23.5zM323 747l-117 120l77 57l92 -141zM166 632v75h284v-75h-284z" />
    <glyph glyph-name="uni1E52" unicode="&#x1e52;" horiz-adv-x="782" 
d="M391 -10q-74 0 -136.5 27t-109 75.5t-72 114t-25.5 143.5t25.5 143.5t72 114t109 75.5t136.5 27t136.5 -27t109 -76t72 -114.5t25.5 -142.5t-25.5 -142.5t-72 -114.5t-109 -76t-136.5 -27zM391 95q51 0 93.5 19t73.5 53.5t48.5 81t17.5 101.5t-17.5 101.5t-48.5 81
t-73.5 53.5t-93.5 19t-93.5 -19t-74 -53t-48.5 -80.5t-17 -102.5q0 -55 17 -102t48.5 -81t74 -53t93.5 -19zM225 787v75h331v-75h-331zM323 905l-28 52l183 113l47 -90z" />
    <glyph glyph-name="uni1E53" unicode="&#x1e53;" horiz-adv-x="615" 
d="M308 -10q-77 0 -137.5 35.5t-95.5 97t-35 140.5t35 140.5t95.5 97t137.5 35.5q76 0 136.5 -35.5t95.5 -97t35 -140.5t-35 -140.5t-95.5 -97t-136.5 -35.5zM308 84q47 0 84 23.5t58 64t20 91.5q1 52 -20 92.5t-58 63.5t-84 23t-84.5 -23.5t-58.5 -64t-20 -91.5
q-1 -51 20 -91.5t58.5 -64t84.5 -23.5zM166 632v75h284v-75h-284zM308 747l-52 36l92 141l77 -57z" />
    <glyph glyph-name="uni1E5A" unicode="&#x1e5a;" horiz-adv-x="695" 
d="M98 0v700h298q60 0 110.5 -29.5t80.5 -80t30 -113.5q0 -57 -30 -106t-80 -78.5t-111 -29.5h-190v-263h-108zM514 0l-178 316l111 25l198 -342zM206 367h200q29 0 52 14.5t36 40t13 56.5q0 35 -16.5 61.5t-46 41.5t-66.5 15h-172v-229zM348 -206q-33 0 -51 17t-18 48
q0 29 18.5 47t50.5 18q33 0 51 -17t18 -48q0 -29 -18.5 -47t-50.5 -18z" />
    <glyph glyph-name="uni1E5B" unicode="&#x1e5b;" horiz-adv-x="403" 
d="M72 0v525h104v-165l-10 40q11 38 37.5 69t61 49t71.5 18q17 0 32.5 -3t24.5 -7l-27 -112q-12 5 -26.5 8.5t-28.5 3.5q-27 0 -51.5 -10.5t-43 -29t-29.5 -43t-11 -53.5v-290h-104zM124 -206q-33 0 -51 17t-18 48q0 29 18.5 47t50.5 18q33 0 51 -17t18 -48q0 -29 -18.5 -47
t-50.5 -18z" />
    <glyph glyph-name="uni1E5E" unicode="&#x1e5e;" horiz-adv-x="695" 
d="M98 0v700h298q60 0 110.5 -29.5t80.5 -80t30 -113.5q0 -57 -30 -106t-80 -78.5t-111 -29.5h-190v-263h-108zM514 0l-178 316l111 25l198 -342zM206 367h200q29 0 52 14.5t36 40t13 56.5q0 35 -16.5 61.5t-46 41.5t-66.5 15h-172v-229zM207 -178v74h281v-74h-281z" />
    <glyph glyph-name="uni1E5F" unicode="&#x1e5f;" horiz-adv-x="403" 
d="M72 0v525h104v-165l-10 40q11 38 37.5 69t61 49t71.5 18q17 0 32.5 -3t24.5 -7l-27 -112q-12 5 -26.5 8.5t-28.5 3.5q-27 0 -51.5 -10.5t-43 -29t-29.5 -43t-11 -53.5v-290h-104zM-17 -178v74h281v-74h-281z" />
    <glyph glyph-name="uni1E60" unicode="&#x1e60;" horiz-adv-x="624" 
d="M314 -10q-57 0 -105.5 15t-88 45.5t-70.5 75.5l74 85q49 -70 94 -97t107 -27q38 0 69 12t49 33t18 48q0 18 -6 34t-18.5 29t-32 24t-45.5 19.5t-60 14.5q-54 11 -94 29t-67 45t-40 61.5t-13 77.5q0 42 18.5 78t51 62.5t76.5 41t95 14.5q54 0 99 -14t80 -41.5t58 -67.5
l-76 -75q-20 33 -45 55.5t-55 34t-64 11.5q-39 0 -68 -12t-45.5 -33.5t-16.5 -50.5q0 -21 8 -38.5t24.5 -31t44.5 -24t67 -18.5q55 -12 98 -30.5t73 -43.5t45.5 -56t15.5 -67q0 -67 -31 -116t-88 -75.5t-136 -26.5zM332 759q-35 0 -52 18t-17 47q0 25 17 45t52 20t52 -18
t17 -47q0 -25 -17 -45t-52 -20z" />
    <glyph glyph-name="uni1E61" unicode="&#x1e61;" horiz-adv-x="479" 
d="M247 -10q-66 0 -119 23t-88 68l70 60q30 -35 65.5 -50.5t80.5 -15.5q18 0 33.5 4.5t27 13.5t17.5 21.5t6 27.5q0 26 -19 42q-10 7 -31.5 15.5t-55.5 17.5q-58 15 -95 34t-57 43q-15 19 -22 41.5t-7 49.5q0 33 14.5 60.5t40 48t60 31.5t73.5 11q37 0 73.5 -10t67.5 -29
t52 -45l-59 -65q-19 19 -41.5 33.5t-45.5 22.5t-42 8q-21 0 -38 -4t-28.5 -12t-17.5 -20t-6 -27q1 -13 6.5 -24.5t15.5 -19.5q11 -8 33 -17t56 -17q50 -13 82.5 -28.5t51.5 -35.5q20 -19 28 -44t8 -56q0 -45 -25.5 -80.5t-68.5 -55.5t-96 -20zM240 641q-33 0 -51 17t-18 48
q0 29 18.5 47t50.5 18q33 0 51 -17t18 -48q0 -29 -18.5 -47t-50.5 -18z" />
    <glyph glyph-name="uni1E62" unicode="&#x1e62;" horiz-adv-x="624" 
d="M314 -10q-57 0 -105.5 15t-88 45.5t-70.5 75.5l74 85q49 -70 94 -97t107 -27q38 0 69 12t49 33t18 48q0 18 -6 34t-18.5 29t-32 24t-45.5 19.5t-60 14.5q-54 11 -94 29t-67 45t-40 61.5t-13 77.5q0 42 18.5 78t51 62.5t76.5 41t95 14.5q54 0 99 -14t80 -41.5t58 -67.5
l-76 -75q-20 33 -45 55.5t-55 34t-64 11.5q-39 0 -68 -12t-45.5 -33.5t-16.5 -50.5q0 -21 8 -38.5t24.5 -31t44.5 -24t67 -18.5q55 -12 98 -30.5t73 -43.5t45.5 -56t15.5 -67q0 -67 -31 -116t-88 -75.5t-136 -26.5zM332 -206q-33 0 -51 17t-18 48q0 29 18.5 47t50.5 18
q33 0 51 -17t18 -48q0 -29 -18.5 -47t-50.5 -18z" />
    <glyph glyph-name="uni1E63" unicode="&#x1e63;" horiz-adv-x="479" 
d="M247 -10q-66 0 -119 23t-88 68l70 60q30 -35 65.5 -50.5t80.5 -15.5q18 0 33.5 4.5t27 13.5t17.5 21.5t6 27.5q0 26 -19 42q-10 7 -31.5 15.5t-55.5 17.5q-58 15 -95 34t-57 43q-15 19 -22 41.5t-7 49.5q0 33 14.5 60.5t40 48t60 31.5t73.5 11q37 0 73.5 -10t67.5 -29
t52 -45l-59 -65q-19 19 -41.5 33.5t-45.5 22.5t-42 8q-21 0 -38 -4t-28.5 -12t-17.5 -20t-6 -27q1 -13 6.5 -24.5t15.5 -19.5q11 -8 33 -17t56 -17q50 -13 82.5 -28.5t51.5 -35.5q20 -19 28 -44t8 -56q0 -45 -25.5 -80.5t-68.5 -55.5t-96 -20zM249 -206q-33 0 -51 17t-18 48
q0 29 18.5 47t50.5 18q33 0 51 -17t18 -48q0 -29 -18.5 -47t-50.5 -18z" />
    <glyph glyph-name="uni1E64" unicode="&#x1e64;" horiz-adv-x="624" 
d="M314 -10q-57 0 -105.5 15t-88 45.5t-70.5 75.5l74 85q49 -70 94 -97t107 -27q38 0 69 12t49 33t18 48q0 18 -6 34t-18.5 29t-32 24t-45.5 19.5t-60 14.5q-54 11 -94 29t-67 45t-40 61.5t-13 77.5q0 42 18.5 78t51 62.5t76.5 41t95 14.5q54 0 99 -14t80 -41.5t58 -67.5
l-76 -75q-20 33 -45 55.5t-55 34t-64 11.5q-39 0 -68 -12t-45.5 -33.5t-16.5 -50.5q0 -21 8 -38.5t24.5 -31t44.5 -24t67 -18.5q55 -12 98 -30.5t73 -43.5t45.5 -56t15.5 -67q0 -67 -31 -116t-88 -75.5t-136 -26.5zM401 751l-52 36l92 141l77 -57zM247 759q-33 0 -51 17
t-18 48q0 29 18.5 47t50.5 18q33 0 51 -17t18 -48q0 -29 -18.5 -47t-50.5 -18z" />
    <glyph glyph-name="uni1E65" unicode="&#x1e65;" horiz-adv-x="479" 
d="M247 -10q-66 0 -119 23t-88 68l70 60q30 -35 65.5 -50.5t80.5 -15.5q18 0 33.5 4.5t27 13.5t17.5 21.5t6 27.5q0 26 -19 42q-10 7 -31.5 15.5t-55.5 17.5q-58 15 -95 34t-57 43q-15 19 -22 41.5t-7 49.5q0 33 14.5 60.5t40 48t60 31.5t73.5 11q37 0 73.5 -10t67.5 -29
t52 -45l-59 -65q-19 19 -41.5 33.5t-45.5 22.5t-42 8q-21 0 -38 -4t-28.5 -12t-17.5 -20t-6 -27q1 -13 6.5 -24.5t15.5 -19.5q11 -8 33 -17t56 -17q50 -13 82.5 -28.5t51.5 -35.5q20 -19 28 -44t8 -56q0 -45 -25.5 -80.5t-68.5 -55.5t-96 -20zM309 627l-52 36l92 141l77 -57
zM155 635q-33 0 -51 17t-18 48q0 29 18.5 47t50.5 18q33 0 51 -17t18 -48q0 -29 -18.5 -47t-50.5 -18z" />
    <glyph glyph-name="uni1E66" unicode="&#x1e66;" horiz-adv-x="624" 
d="M314 -10q-57 0 -105.5 15t-88 45.5t-70.5 75.5l74 85q49 -70 94 -97t107 -27q38 0 69 12t49 33t18 48q0 18 -6 34t-18.5 29t-32 24t-45.5 19.5t-60 14.5q-54 11 -94 29t-67 45t-40 61.5t-13 77.5q0 42 18.5 78t51 62.5t76.5 41t95 14.5q54 0 99 -14t80 -41.5t58 -67.5
l-76 -75q-20 33 -45 55.5t-55 34t-64 11.5q-39 0 -68 -12t-45.5 -33.5t-16.5 -50.5q0 -21 8 -38.5t24.5 -31t44.5 -24t67 -18.5q55 -12 98 -30.5t73 -43.5t45.5 -56t15.5 -67q0 -67 -31 -116t-88 -75.5t-136 -26.5zM289 757l-120 103l38 33l140 -63h-30l140 63l38 -33
l-120 -103h-86zM332 909q-35 0 -52 18t-17 47q0 25 17 45t52 20t52 -18t17 -47q0 -25 -17 -45t-52 -20z" />
    <glyph glyph-name="uni1E67" unicode="&#x1e67;" horiz-adv-x="479" 
d="M247 -10q-66 0 -119 23t-88 68l70 60q30 -35 65.5 -50.5t80.5 -15.5q18 0 33.5 4.5t27 13.5t17.5 21.5t6 27.5q0 26 -19 42q-10 7 -31.5 15.5t-55.5 17.5q-58 15 -95 34t-57 43q-15 19 -22 41.5t-7 49.5q0 33 14.5 60.5t40 48t60 31.5t73.5 11q37 0 73.5 -10t67.5 -29
t52 -45l-59 -65q-19 19 -41.5 33.5t-45.5 22.5t-42 8q-21 0 -38 -4t-28.5 -12t-17.5 -20t-6 -27q1 -13 6.5 -24.5t15.5 -19.5q11 -8 33 -17t56 -17q50 -13 82.5 -28.5t51.5 -35.5q20 -19 28 -44t8 -56q0 -45 -25.5 -80.5t-68.5 -55.5t-96 -20zM197 607l-105 113l38 33
l125 -73h-30l125 73l38 -33l-105 -113h-86zM240 770q-33 0 -51 17t-18 48q0 29 18.5 47t50.5 18q33 0 51 -17t18 -48q0 -29 -18.5 -47t-50.5 -18z" />
    <glyph glyph-name="uni1E68" unicode="&#x1e68;" horiz-adv-x="624" 
d="M314 -10q-57 0 -105.5 15t-88 45.5t-70.5 75.5l74 85q49 -70 94 -97t107 -27q38 0 69 12t49 33t18 48q0 18 -6 34t-18.5 29t-32 24t-45.5 19.5t-60 14.5q-54 11 -94 29t-67 45t-40 61.5t-13 77.5q0 42 18.5 78t51 62.5t76.5 41t95 14.5q54 0 99 -14t80 -41.5t58 -67.5
l-76 -75q-20 33 -45 55.5t-55 34t-64 11.5q-39 0 -68 -12t-45.5 -33.5t-16.5 -50.5q0 -21 8 -38.5t24.5 -31t44.5 -24t67 -18.5q55 -12 98 -30.5t73 -43.5t45.5 -56t15.5 -67q0 -67 -31 -116t-88 -75.5t-136 -26.5zM332 -206q-33 0 -51 17t-18 48q0 29 18.5 47t50.5 18
q33 0 51 -17t18 -48q0 -29 -18.5 -47t-50.5 -18zM332 759q-35 0 -52 18t-17 47q0 25 17 45t52 20t52 -18t17 -47q0 -25 -17 -45t-52 -20z" />
    <glyph glyph-name="uni1E69" unicode="&#x1e69;" horiz-adv-x="479" 
d="M247 -10q-66 0 -119 23t-88 68l70 60q30 -35 65.5 -50.5t80.5 -15.5q18 0 33.5 4.5t27 13.5t17.5 21.5t6 27.5q0 26 -19 42q-10 7 -31.5 15.5t-55.5 17.5q-58 15 -95 34t-57 43q-15 19 -22 41.5t-7 49.5q0 33 14.5 60.5t40 48t60 31.5t73.5 11q37 0 73.5 -10t67.5 -29
t52 -45l-59 -65q-19 19 -41.5 33.5t-45.5 22.5t-42 8q-21 0 -38 -4t-28.5 -12t-17.5 -20t-6 -27q1 -13 6.5 -24.5t15.5 -19.5q11 -8 33 -17t56 -17q50 -13 82.5 -28.5t51.5 -35.5q20 -19 28 -44t8 -56q0 -45 -25.5 -80.5t-68.5 -55.5t-96 -20zM249 -206q-33 0 -51 17t-18 48
q0 29 18.5 47t50.5 18q33 0 51 -17t18 -48q0 -29 -18.5 -47t-50.5 -18zM240 641q-33 0 -51 17t-18 48q0 29 18.5 47t50.5 18q33 0 51 -17t18 -48q0 -29 -18.5 -47t-50.5 -18z" />
    <glyph glyph-name="uni1E6C" unicode="&#x1e6c;" horiz-adv-x="576" 
d="M231 0v596h-196v104h506v-104h-202v-596h-108zM288 -206q-33 0 -51 17t-18 48q0 29 18.5 47t50.5 18q33 0 51 -17t18 -48q0 -29 -18.5 -47t-50.5 -18z" />
    <glyph glyph-name="uni1E6D" unicode="&#x1e6d;" horiz-adv-x="384" 
d="M137 0v659h103v-659h-103zM28 425v100h334v-100h-334zM192 -206q-33 0 -51 17t-18 48q0 29 18.5 47t50.5 18q33 0 51 -17t18 -48q0 -29 -18.5 -47t-50.5 -18z" />
    <glyph glyph-name="uni1E6E" unicode="&#x1e6e;" horiz-adv-x="576" 
d="M231 0v596h-196v104h506v-104h-202v-596h-108zM147 -178v74h281v-74h-281z" />
    <glyph glyph-name="uni1E6F" unicode="&#x1e6f;" horiz-adv-x="384" 
d="M137 0v659h103v-659h-103zM28 425v100h334v-100h-334zM51 -178v74h281v-74h-281z" />
    <glyph glyph-name="uni1E78" unicode="&#x1e78;" horiz-adv-x="740" 
d="M370 -6q-81 0 -145 35.5t-100.5 98t-36.5 141.5v432h108v-423q0 -51 24 -91.5t63.5 -64.5t86.5 -24q50 0 90.5 24t64.5 64.5t24 91.5v423h103v-432q0 -79 -36.5 -141.5t-100.5 -98t-145 -35.5zM444 768q-23 0 -46.5 7.5t-44.5 15.5q-17 7 -29 11t-22 4q-13 0 -21.5 -9.5
t-8.5 -28.5h-77q0 54 35 83.5t79 29.5q21 0 41 -7t39 -15q14 -6 27.5 -10t22.5 -4q14 0 22 10t7 26h76q0 -29 -12 -55t-34.5 -42t-53.5 -16zM302 905l-28 52l183 113l47 -90z" />
    <glyph glyph-name="uni1E79" unicode="&#x1e79;" horiz-adv-x="605" 
d="M256 -10q-56 0 -97.5 26t-64 73t-22.5 112v324h103v-296q0 -46 14.5 -79.5t42 -51.5t66.5 -18q29 0 53 9.5t41.5 26.5t27.5 41t10 52v316h103v-525h-103v110l18 12q-12 -37 -40.5 -67t-67.5 -47.5t-84 -17.5zM354 615q-20 0 -33.5 8t-28.5 20q-19 17 -28.5 23.5
t-17.5 6.5q-13 0 -23 -14.5t-14 -43.5l-68 10q2 49 31.5 85t78.5 36q20 0 33.5 -8t28.5 -20q20 -16 29 -23t17 -7q14 0 23.5 15t13.5 43l68 -10q-1 -32 -15 -60t-38 -44.5t-57 -16.5zM314 767l-52 36l92 141l77 -57z" />
    <glyph glyph-name="uni1E7A" unicode="&#x1e7a;" horiz-adv-x="740" 
d="M370 -6q-81 0 -145 35.5t-100.5 98t-36.5 141.5v432h108v-423q0 -51 24 -91.5t63.5 -64.5t86.5 -24q50 0 90.5 24t64.5 64.5t24 91.5v423h103v-432q0 -79 -36.5 -141.5t-100.5 -98t-145 -35.5zM204 787v75h331v-75h-331zM473 909q-35 0 -52 18t-17 47q0 25 17 45t52 20
t52 -18t17 -47q0 -25 -17 -45t-52 -20zM267 909q-35 0 -52 18t-17 47q0 25 17 45t52 20t52 -18t17 -47q0 -25 -17 -45t-52 -20z" />
    <glyph glyph-name="uni1E7B" unicode="&#x1e7b;" horiz-adv-x="605" 
d="M256 -10q-56 0 -97.5 26t-64 73t-22.5 112v324h103v-296q0 -46 14.5 -79.5t42 -51.5t66.5 -18q29 0 53 9.5t41.5 26.5t27.5 41t10 52v316h103v-525h-103v110l18 12q-12 -37 -40.5 -67t-67.5 -47.5t-84 -17.5zM161 642v75h284v-75h-284zM403 777q-33 0 -51 17t-18 48
q0 29 18.5 47t50.5 18q33 0 51 -17t18 -48q0 -29 -18.5 -47t-50.5 -18zM203 777q-33 0 -51 17t-18 48q0 29 18.5 47t50.5 18q33 0 51 -17t18 -48q0 -29 -18.5 -47t-50.5 -18z" />
    <glyph glyph-name="Wgrave" unicode="&#x1e80;" horiz-adv-x="996" 
d="M247 0l-223 700h115l135 -438q6 -16 11 -37.5t9 -43.5t7.5 -41t6.5 -31l-29 1q15 53 23.5 82t13.5 44.5t9 26.5l126 316h97l122 -316q10 -24 17.5 -47.5t13.5 -47t13 -49.5l-26 -7q5 27 7.5 42.5t4.5 25.5t4 19.5t6.5 24.5t12.5 41l133 435h116l-223 -700h-75l-185 438
l9 -4l-178 -434h-73zM574 755l-202 75l49 90l183 -113z" />
    <glyph glyph-name="wgrave" unicode="&#x1e81;" horiz-adv-x="800" 
d="M201 0l-179 525l104 1l128 -393l-23 2l139 307h62l140 -308l-27 -2l129 393h104l-177 -525h-71l-146 334l23 -3l-136 -331h-70zM450 606l-174 94l65 82l143 -125z" />
    <glyph glyph-name="Wacute" unicode="&#x1e82;" horiz-adv-x="996" 
d="M247 0l-223 700h115l135 -438q6 -16 11 -37.5t9 -43.5t7.5 -41t6.5 -31l-29 1q15 53 23.5 82t13.5 44.5t9 26.5l126 316h97l122 -316q10 -24 17.5 -47.5t13.5 -47t13 -49.5l-26 -7q5 27 7.5 42.5t4.5 25.5t4 19.5t6.5 24.5t12.5 41l133 435h116l-223 -700h-75l-185 438
l9 -4l-178 -434h-73zM430 755l-28 52l183 113l47 -90z" />
    <glyph glyph-name="wacute" unicode="&#x1e83;" horiz-adv-x="800" 
d="M201 0l-179 525l104 1l128 -393l-23 2l139 307h62l140 -308l-27 -2l129 393h104l-177 -525h-71l-146 334l23 -3l-136 -331h-70zM330 606l-34 51l143 125l65 -82z" />
    <glyph glyph-name="Wdieresis" unicode="&#x1e84;" horiz-adv-x="996" 
d="M247 0l-223 700h115l135 -438q6 -16 11 -37.5t9 -43.5t7.5 -41t6.5 -31l-29 1q15 53 23.5 82t13.5 44.5t9 26.5l126 316h97l122 -316q10 -24 17.5 -47.5t13.5 -47t13 -49.5l-26 -7q5 27 7.5 42.5t4.5 25.5t4 19.5t6.5 24.5t12.5 41l133 435h116l-223 -700h-75l-185 438
l9 -4l-178 -434h-73zM601 759q-35 0 -52 18t-17 47q0 25 17 45t52 20t52 -18t17 -47q0 -25 -17 -45t-52 -20zM395 759q-35 0 -52 18t-17 47q0 25 17 45t52 20t52 -18t17 -47q0 -25 -17 -45t-52 -20z" />
    <glyph glyph-name="wdieresis" unicode="&#x1e85;" horiz-adv-x="800" 
d="M201 0l-179 525l104 1l128 -393l-23 2l139 307h62l140 -308l-27 -2l129 393h104l-177 -525h-71l-146 334l23 -3l-136 -331h-70zM500 642q-33 0 -51 17t-18 48q0 29 18.5 47t50.5 18q33 0 51 -17t18 -48q0 -29 -18.5 -47t-50.5 -18zM300 642q-33 0 -51 17t-18 48
q0 29 18.5 47t50.5 18q33 0 51 -17t18 -48q0 -29 -18.5 -47t-50.5 -18z" />
    <glyph glyph-name="uni1E8E" unicode="&#x1e8e;" horiz-adv-x="660" 
d="M286 0v349l7 -49l-283 400h130l216 -310l-25 3l195 307h124l-271 -411l15 68v-357h-108zM330 759q-35 0 -52 18t-17 47q0 25 17 45t52 20t52 -18t17 -47q0 -25 -17 -45t-52 -20z" />
    <glyph glyph-name="uni1E8F" unicode="&#x1e8f;" horiz-adv-x="581" 
d="M160 -230l106 245l1 -82l-262 592h120l164 -386q5 -10 12 -30.5t12 -40.5l-26 -6q8 21 15.5 42t14.5 42l137 379h122l-216 -525l-89 -230h-111zM291 641q-33 0 -51 17t-18 48q0 29 18.5 47t50.5 18q33 0 51 -17t18 -48q0 -29 -18.5 -47t-50.5 -18z" />
    <glyph glyph-name="uni1E92" unicode="&#x1e92;" horiz-adv-x="659" 
d="M60 0v79l399 534l15 -17h-388v104h507v-78l-397 -535l-16 17h424v-104h-544zM330 -206q-33 0 -51 17t-18 48q0 29 18.5 47t50.5 18q33 0 51 -17t18 -48q0 -29 -18.5 -47t-50.5 -18z" />
    <glyph glyph-name="uni1E93" unicode="&#x1e93;" horiz-adv-x="484" 
d="M50 0v86l271 362v-12h-271v89h383v-84l-267 -357l-4 5h277v-89h-389zM242 -206q-33 0 -51 17t-18 48q0 29 18.5 47t50.5 18q33 0 51 -17t18 -48q0 -29 -18.5 -47t-50.5 -18z" />
    <glyph glyph-name="uni1E97" unicode="&#x1e97;" horiz-adv-x="384" 
d="M137 0v659h103v-659h-103zM28 425v100h334v-100h-334zM292 729q-33 0 -51 17t-18 48q0 29 18.5 47t50.5 18q33 0 51 -17t18 -48q0 -29 -18.5 -47t-50.5 -18zM92 729q-33 0 -51 17t-18 48q0 29 18.5 47t50.5 18q33 0 51 -17t18 -48q0 -29 -18.5 -47t-50.5 -18z" />
    <glyph glyph-name="uni1E9E" unicode="&#x1e9e;" horiz-adv-x="762" 
d="M490 -10q-39 0 -76 10.5t-68 29.5t-51 45l67 80q25 -30 60 -49t67 -19q52 0 82.5 22.5t30.5 61.5q0 24 -12.5 40.5t-41.5 34.5t-79 45q-48 26 -76.5 50.5t-41.5 53t-13 65.5q0 39 14.5 71t41.5 55.5t64.5 38t82.5 18.5l50 -38q-32 12 -81.5 19.5t-92.5 7.5
q-48 1 -86 -18.5t-65.5 -57.5t-42.5 -91.5t-15 -121.5l-2 -342h-108l1 349q1 113 39 197.5t107 131.5t162 47q62 0 120 -11t109 -33l5 -73q-63 -10 -106.5 -28t-66.5 -42t-23 -53q0 -20 11 -37.5t33 -33t56 -31.5q53 -24 89 -48.5t54.5 -59.5t18.5 -92q0 -53 -30 -97
t-79 -70.5t-108 -26.5z" />
    <glyph glyph-name="uni1EA0" unicode="&#x1ea0;" horiz-adv-x="700" 
d="M25 0l271 700h110l269 -700h-115l-160 422q-3 7 -11.5 34t-19.5 60t-20 60.5t-12 35.5l23 1q-6 -17 -14.5 -43t-18 -55t-18.5 -54.5l-15 -42.5l-159 -418h-110zM145 174l40 104h318l46 -104h-404zM350 -206q-33 0 -51 17t-18 48q0 29 18.5 47t50.5 18q33 0 51 -17t18 -48
q0 -29 -18.5 -47t-50.5 -18z" />
    <glyph glyph-name="uni1EA1" unicode="&#x1ea1;" horiz-adv-x="633" 
d="M274 -10q-65 0 -118.5 36t-85.5 98t-32 140q0 79 32.5 140.5t88 96.5t124.5 35q41 0 75 -12t59.5 -33.5t42 -49.5t20.5 -60l-23 8v136h104v-525h-104v125l24 7q-6 -27 -24.5 -52.5t-47 -45.5t-63 -32t-72.5 -12zM301 85q47 0 83 23t56.5 63.5t20.5 92.5q0 51 -20.5 91
t-56.5 63t-83 23q-46 0 -81.5 -23t-56 -63t-20.5 -91q0 -52 20.5 -92.5t56 -63.5t81.5 -23zM317 -206q-33 0 -51 17t-18 48q0 29 18.5 47t50.5 18q33 0 51 -17t18 -48q0 -29 -18.5 -47t-50.5 -18z" />
    <glyph glyph-name="uni1EA2" unicode="&#x1ea2;" horiz-adv-x="700" 
d="M25 0l271 700h110l269 -700h-115l-160 422q-3 7 -11.5 34t-19.5 60t-20 60.5t-12 35.5l23 1q-6 -17 -14.5 -43t-18 -55t-18.5 -54.5l-15 -42.5l-159 -418h-110zM145 174l40 104h318l46 -104h-404zM327 758q-7 10 -11 19.5t-4 18.5t5.5 20t21.5 22q17 11 23.5 17t6.5 13
q0 9 -8.5 13t-21.5 4q-16 0 -35 -5t-36 -13l-16 63q21 12 45 18t44 6q53 0 79.5 -22.5t26.5 -54.5q0 -25 -11.5 -39.5t-25.5 -21.5q-18 -9 -26.5 -15.5t-8.5 -16.5q0 -4 1 -7l2 -6z" />
    <glyph glyph-name="uni1EA3" unicode="&#x1ea3;" horiz-adv-x="633" 
d="M274 -10q-65 0 -118.5 36t-85.5 98t-32 140q0 79 32.5 140.5t88 96.5t124.5 35q41 0 75 -12t59.5 -33.5t42 -49.5t20.5 -60l-23 8v136h104v-525h-104v125l24 7q-6 -27 -24.5 -52.5t-47 -45.5t-63 -32t-72.5 -12zM301 85q47 0 83 23t56.5 63.5t20.5 92.5q0 51 -20.5 91
t-56.5 63t-83 23q-46 0 -81.5 -23t-56 -63t-20.5 -91q0 -52 20.5 -92.5t56 -63.5t81.5 -23zM294 593q-7 10 -11 19.5t-4 18.5t5.5 20t21.5 22q17 11 23.5 17t6.5 13q0 9 -8.5 13t-21.5 4q-16 0 -35 -5t-36 -13l-16 63q21 12 45 18t44 6q53 0 79.5 -22.5t26.5 -54.5
q0 -25 -11.5 -39.5t-25.5 -21.5q-18 -9 -26.5 -15.5t-8.5 -16.5q0 -4 1 -7l2 -6z" />
    <glyph glyph-name="uni1EA4" unicode="&#x1ea4;" horiz-adv-x="700" 
d="M25 0l271 700h110l269 -700h-115l-160 422q-3 7 -11.5 34t-19.5 60t-20 60.5t-12 35.5l23 1q-6 -17 -14.5 -43t-18 -55t-18.5 -54.5l-15 -42.5l-159 -418h-110zM145 174l40 104h318l46 -104h-404zM226 755l-33 36l120 98h73l120 -98l-33 -36l-138 63h29zM512 864l-52 36
l82 146l87 -62z" />
    <glyph glyph-name="uni1EA5" unicode="&#x1ea5;" horiz-adv-x="633" 
d="M274 -10q-65 0 -118.5 36t-85.5 98t-32 140q0 79 32.5 140.5t88 96.5t124.5 35q41 0 75 -12t59.5 -33.5t42 -49.5t20.5 -60l-23 8v136h104v-525h-104v125l24 7q-6 -27 -24.5 -52.5t-47 -45.5t-63 -32t-72.5 -12zM301 85q47 0 83 23t56.5 63.5t20.5 92.5q0 51 -20.5 91
t-56.5 63t-83 23q-46 0 -81.5 -23t-56 -63t-20.5 -91q0 -52 20.5 -92.5t56 -63.5t81.5 -23zM197 607l-38 33l115 113h86l115 -113l-38 -33l-135 73h30zM484 745l-52 36l82 146l87 -62z" />
    <glyph glyph-name="uni1EA6" unicode="&#x1ea6;" horiz-adv-x="700" 
d="M25 0l271 700h110l269 -700h-115l-160 422q-3 7 -11.5 34t-19.5 60t-20 60.5t-12 35.5l23 1q-6 -17 -14.5 -43t-18 -55t-18.5 -54.5l-15 -42.5l-159 -418h-110zM145 174l40 104h318l46 -104h-404zM226 755l-33 36l120 98h73l120 -98l-33 -36l-138 63h29zM515 865
l-121 121l86 63l83 -146z" />
    <glyph glyph-name="uni1EA7" unicode="&#x1ea7;" horiz-adv-x="633" 
d="M274 -10q-65 0 -118.5 36t-85.5 98t-32 140q0 79 32.5 140.5t88 96.5t124.5 35q41 0 75 -12t59.5 -33.5t42 -49.5t20.5 -60l-23 8v136h104v-525h-104v125l24 7q-6 -27 -24.5 -52.5t-47 -45.5t-63 -32t-72.5 -12zM301 85q47 0 83 23t56.5 63.5t20.5 92.5q0 51 -20.5 91
t-56.5 63t-83 23q-46 0 -81.5 -23t-56 -63t-20.5 -91q0 -52 20.5 -92.5t56 -63.5t81.5 -23zM197 607l-38 33l115 113h86l115 -113l-38 -33l-135 73h30zM470 743l-121 121l86 63l83 -146z" />
    <glyph glyph-name="uni1EA8" unicode="&#x1ea8;" horiz-adv-x="700" 
d="M25 0l271 700h110l269 -700h-115l-160 422q-3 7 -11.5 34t-19.5 60t-20 60.5t-12 35.5l23 1q-6 -17 -14.5 -43t-18 -55t-18.5 -54.5l-15 -42.5l-159 -418h-110zM145 174l40 104h318l46 -104h-404zM226 755l-33 36l120 98h73l120 -98l-33 -36l-138 63h29zM484 863
q-6 8 -10.5 17t-4.5 18t4.5 18t22.5 21q15 10 22.5 16t7.5 10q0 9 -8.5 13t-21.5 4q-16 0 -35 -5t-36 -13l-16 63q21 12 45 18t44 6q53 0 79.5 -22.5t26.5 -54.5q0 -21 -12.5 -33.5t-24.5 -20.5q-19 -11 -27 -18t-8 -13q0 -3 1 -5.5t2 -5.5z" />
    <glyph glyph-name="uni1EA9" unicode="&#x1ea9;" horiz-adv-x="633" 
d="M274 -10q-65 0 -118.5 36t-85.5 98t-32 140q0 79 32.5 140.5t88 96.5t124.5 35q41 0 75 -12t59.5 -33.5t42 -49.5t20.5 -60l-23 8v136h104v-525h-104v125l24 7q-6 -27 -24.5 -52.5t-47 -45.5t-63 -32t-72.5 -12zM301 85q47 0 83 23t56.5 63.5t20.5 92.5q0 51 -20.5 91
t-56.5 63t-83 23q-46 0 -81.5 -23t-56 -63t-20.5 -91q0 -52 20.5 -92.5t56 -63.5t81.5 -23zM197 607l-38 33l115 113h86l115 -113l-38 -33l-135 73h30zM461 732q-7 10 -11 19.5t-4 18.5t5.5 20t21.5 22q17 11 23.5 17t6.5 13q0 9 -8.5 13t-21.5 4q-16 0 -35 -3.5t-36 -14.5
l-16 63q21 12 45 18t44 6q53 0 79.5 -22.5t26.5 -54.5q0 -25 -11.5 -39.5t-25.5 -21.5q-18 -9 -26.5 -15.5t-8.5 -16.5q0 -4 1 -7l2 -6z" />
    <glyph glyph-name="uni1EAA" unicode="&#x1eaa;" horiz-adv-x="700" 
d="M25 0l271 700h110l269 -700h-115l-160 422q-3 7 -11.5 34t-19.5 60t-20 60.5t-12 35.5l23 1q-6 -17 -14.5 -43t-18 -55t-18.5 -54.5l-15 -42.5l-159 -418h-110zM145 174l40 104h318l46 -104h-404zM226 755l-33 36l120 98h73l120 -98l-33 -36l-138 63h29zM427 937
q-24 0 -44.5 7t-37.5 14q-18 8 -30 13t-22 5q-13 0 -23 -10t-14 -27l-68 10q2 41 30 71.5t68 30.5q21 0 38.5 -7t35.5 -15q13 -6 26.5 -11.5t23.5 -5.5q14 0 21.5 9.5t11.5 28.5l68 -10q-1 -28 -11 -51.5t-28 -37.5t-45 -14z" />
    <glyph glyph-name="uni1EAB" unicode="&#x1eab;" horiz-adv-x="633" 
d="M274 -10q-65 0 -118.5 36t-85.5 98t-32 140q0 79 32.5 140.5t88 96.5t124.5 35q41 0 75 -12t59.5 -33.5t42 -49.5t20.5 -60l-23 8v136h104v-525h-104v125l24 7q-6 -27 -24.5 -52.5t-47 -45.5t-63 -32t-72.5 -12zM301 85q47 0 83 23t56.5 63.5t20.5 92.5q0 51 -20.5 91
t-56.5 63t-83 23q-46 0 -81.5 -23t-56 -63t-20.5 -91q0 -52 20.5 -92.5t56 -63.5t81.5 -23zM196 607l-38 33l115 113h86l115 -113l-38 -33l-135 73h30zM392 807q-29 0 -48 9.5t-37 16.5q-12 5 -23 10t-24 5t-23 -10t-14 -27l-68 10q2 42 30 73.5t65 31.5q23 0 41 -9.5
t36 -17.5q13 -6 24.5 -10.5t21.5 -4.5q14 0 23.5 9.5t13.5 28.5l68 -10q-1 -28 -11.5 -52t-29 -38.5t-45.5 -14.5z" />
    <glyph glyph-name="uni1EAC" unicode="&#x1eac;" horiz-adv-x="700" 
d="M25 0l271 700h110l269 -700h-115l-160 422q-3 7 -11.5 34t-19.5 60t-20 60.5t-12 35.5l23 1q-6 -17 -14.5 -43t-18 -55t-18.5 -54.5l-15 -42.5l-159 -418h-110zM145 174l40 104h318l46 -104h-404zM350 -206q-33 0 -51 17t-18 48q0 29 18.5 47t50.5 18q33 0 51 -17t18 -48
q0 -29 -18.5 -47t-50.5 -18zM226 755l-37 35l124 101h73l124 -101l-37 -35l-138 65h29z" />
    <glyph glyph-name="uni1EAD" unicode="&#x1ead;" horiz-adv-x="633" 
d="M274 -10q-65 0 -118.5 36t-85.5 98t-32 140q0 79 32.5 140.5t88 96.5t124.5 35q41 0 75 -12t59.5 -33.5t42 -49.5t20.5 -60l-23 8v136h104v-525h-104v125l24 7q-6 -27 -24.5 -52.5t-47 -45.5t-63 -32t-72.5 -12zM301 85q47 0 83 23t56.5 63.5t20.5 92.5q0 51 -20.5 91
t-56.5 63t-83 23q-46 0 -81.5 -23t-56 -63t-20.5 -91q0 -52 20.5 -92.5t56 -63.5t81.5 -23zM317 -206q-33 0 -51 17t-18 48q0 29 18.5 47t50.5 18q33 0 51 -17t18 -48q0 -29 -18.5 -47t-50.5 -18zM197 607l-38 33l115 113h86l115 -113l-38 -33l-135 73h30z" />
    <glyph glyph-name="uni1EAE" unicode="&#x1eae;" horiz-adv-x="700" 
d="M25 0l271 700h110l269 -700h-115l-160 422q-3 7 -11.5 34t-19.5 60t-20 60.5t-12 35.5l23 1q-6 -17 -14.5 -43t-18 -55t-18.5 -54.5l-15 -42.5l-159 -418h-110zM145 174l40 104h318l46 -104h-404zM350 751q-62 0 -105.5 36t-56.5 98l70 12q14 -36 37.5 -52.5t54.5 -16.5
t54.5 16.5t37.5 52.5l70 -12q-13 -62 -56.5 -98t-105.5 -36zM356 885l-48 38l83 146l86 -63z" />
    <glyph glyph-name="uni1EAF" unicode="&#x1eaf;" horiz-adv-x="633" 
d="M274 -10q-65 0 -118.5 36t-85.5 98t-32 140q0 79 32.5 140.5t88 96.5t124.5 35q41 0 75 -12t59.5 -33.5t42 -49.5t20.5 -60l-23 8v136h104v-525h-104v125l24 7q-6 -27 -24.5 -52.5t-47 -45.5t-63 -32t-72.5 -12zM301 85q47 0 83 23t56.5 63.5t20.5 92.5q0 51 -20.5 91
t-56.5 63t-83 23q-46 0 -81.5 -23t-56 -63t-20.5 -91q0 -52 20.5 -92.5t56 -63.5t81.5 -23zM317 589q-64 0 -106 36t-56 98l74 12q13 -30 35.5 -47.5t52.5 -17.5t52.5 17.5t35.5 47.5l74 -12q-14 -62 -56 -98t-106 -36zM324 755l-52 36l82 146l87 -62z" />
    <glyph glyph-name="uni1EB0" unicode="&#x1eb0;" horiz-adv-x="700" 
d="M25 0l271 700h110l269 -700h-115l-160 422q-3 7 -11.5 34t-19.5 60t-20 60.5t-12 35.5l23 1q-6 -17 -14.5 -43t-18 -55t-18.5 -54.5l-15 -42.5l-159 -418h-110zM145 174l40 104h318l46 -104h-404zM350 751q-62 0 -105.5 36t-56.5 98l70 12q15 -36 37.5 -52.5t54.5 -16.5
q31 0 54.5 16.5t37.5 52.5l70 -12q-13 -62 -56.5 -98t-105.5 -36zM349 885l-121 121l86 63l83 -146z" />
    <glyph glyph-name="uni1EB1" unicode="&#x1eb1;" horiz-adv-x="633" 
d="M274 -10q-65 0 -118.5 36t-85.5 98t-32 140q0 79 32.5 140.5t88 96.5t124.5 35q41 0 75 -12t59.5 -33.5t42 -49.5t20.5 -60l-23 8v136h104v-525h-104v125l24 7q-6 -27 -24.5 -52.5t-47 -45.5t-63 -32t-72.5 -12zM301 85q47 0 83 23t56.5 63.5t20.5 92.5q0 51 -20.5 91
t-56.5 63t-83 23q-46 0 -81.5 -23t-56 -63t-20.5 -91q0 -52 20.5 -92.5t56 -63.5t81.5 -23zM317 589q-64 0 -106 38.5t-56 105.5l74 12q13 -34 35.5 -54.5t52.5 -20.5t52.5 20.5t35.5 54.5l74 -12q-14 -67 -56 -105.5t-106 -38.5zM320 753l-121 121l86 63l83 -146z" />
    <glyph glyph-name="uni1EB2" unicode="&#x1eb2;" horiz-adv-x="700" 
d="M25 0l271 700h110l269 -700h-115l-160 422q-3 7 -11.5 34t-19.5 60t-20 60.5t-12 35.5l23 1q-6 -17 -14.5 -43t-18 -55t-18.5 -54.5l-15 -42.5l-159 -418h-110zM145 174l40 104h318l46 -104h-404zM350 751q-62 0 -105.5 36t-56.5 98l70 12q14 -36 37.5 -52.5t54.5 -16.5
t54.5 16.5t37.5 52.5l70 -12q-13 -62 -56.5 -98t-105.5 -36zM330 885q-6 8 -10.5 17t-4.5 18t4.5 18t22.5 21q15 10 22.5 16t7.5 10q0 9 -8.5 13t-21.5 4q-16 0 -35 -5t-36 -13l-16 63q21 12 45 18t44 6q53 0 79.5 -22.5t26.5 -54.5q0 -21 -12.5 -33.5t-24.5 -20.5
q-19 -11 -27 -18t-8 -13q0 -3 1 -5.5t2 -5.5z" />
    <glyph glyph-name="uni1EB3" unicode="&#x1eb3;" horiz-adv-x="633" 
d="M274 -10q-65 0 -118.5 36t-85.5 98t-32 140q0 79 32.5 140.5t88 96.5t124.5 35q41 0 75 -12t59.5 -33.5t42 -49.5t20.5 -60l-23 8v136h104v-525h-104v125l24 7q-6 -27 -24.5 -52.5t-47 -45.5t-63 -32t-72.5 -12zM301 85q47 0 83 23t56.5 63.5t20.5 92.5q0 51 -20.5 91
t-56.5 63t-83 23q-46 0 -81.5 -23t-56 -63t-20.5 -91q0 -52 20.5 -92.5t56 -63.5t81.5 -23zM317 589q-64 0 -106 38.5t-56 105.5l74 12q13 -34 35.5 -54.5t52.5 -20.5t52.5 20.5t35.5 54.5l74 -12q-14 -67 -56 -105.5t-106 -38.5zM294 756q-7 10 -11 19.5t-4 18.5t5.5 20
t21.5 22q17 11 23.5 17t6.5 13q0 9 -8.5 13t-21.5 4q-16 0 -35 -5t-36 -13l-16 63q20 13 44.5 18.5t44.5 5.5q53 0 79.5 -22.5t26.5 -54.5q0 -25 -11.5 -39.5t-25.5 -21.5q-18 -9 -26.5 -15.5t-8.5 -16.5q0 -4 1 -7l2 -6z" />
    <glyph glyph-name="uni1EB4" unicode="&#x1eb4;" horiz-adv-x="700" 
d="M25 0l271 700h110l269 -700h-115l-160 422q-3 7 -11.5 34t-19.5 60t-20 60.5t-12 35.5l23 1q-6 -17 -14.5 -43t-18 -55t-18.5 -54.5l-15 -42.5l-159 -418h-110zM145 174l40 104h318l46 -104h-404zM350 751q-62 0 -105.5 33t-56.5 91l70 12q14 -31 37.5 -45t54.5 -14
t54.5 14t37.5 45l70 -12q-13 -58 -56.5 -91t-105.5 -33zM428 937q-24 0 -44.5 7t-37.5 14q-18 8 -30 13t-22 5q-13 0 -23 -10t-14 -27l-68 10q2 41 30 71.5t68 30.5q21 0 38.5 -7t35.5 -15q13 -6 26.5 -11.5t23.5 -5.5q14 0 21.5 9.5t11.5 28.5l68 -10q-1 -28 -11 -51.5
t-28 -37.5t-45 -14z" />
    <glyph glyph-name="uni1EB5" unicode="&#x1eb5;" horiz-adv-x="633" 
d="M274 -10q-65 0 -118.5 36t-85.5 98t-32 140q0 79 32.5 140.5t88 96.5t124.5 35q41 0 75 -12t59.5 -33.5t42 -49.5t20.5 -60l-23 8v136h104v-525h-104v125l24 7q-6 -27 -24.5 -52.5t-47 -45.5t-63 -32t-72.5 -12zM301 85q47 0 83 23t56.5 63.5t20.5 92.5q0 51 -20.5 91
t-56.5 63t-83 23q-46 0 -81.5 -23t-56 -63t-20.5 -91q0 -52 20.5 -92.5t56 -63.5t81.5 -23zM317 589q-64 0 -106 38.5t-56 105.5l74 12q13 -34 35.5 -54.5t52.5 -20.5t52.5 20.5t35.5 54.5l74 -12q-14 -67 -56 -105.5t-106 -38.5zM393 817q-29 0 -48 9.5t-37 16.5
q-12 5 -23 10t-24 5t-23 -10t-14 -27l-68 10q2 42 30 73.5t65 31.5q23 0 41 -9.5t36 -17.5q13 -6 24.5 -10.5t21.5 -4.5q14 0 23.5 9.5t13.5 28.5l68 -10q-1 -28 -11.5 -52t-29 -38.5t-45.5 -14.5z" />
    <glyph glyph-name="uni1EB6" unicode="&#x1eb6;" horiz-adv-x="700" 
d="M25 0l271 700h110l269 -700h-115l-160 422q-3 7 -11.5 34t-19.5 60t-20 60.5t-12 35.5l23 1q-6 -17 -14.5 -43t-18 -55t-18.5 -54.5l-15 -42.5l-159 -418h-110zM145 174l40 104h318l46 -104h-404zM350 -206q-33 0 -51 17t-18 48q0 29 18.5 47t50.5 18q33 0 51 -17t18 -48
q0 -29 -18.5 -47t-50.5 -18zM350 751q-41 0 -74.5 18.5t-56 49t-31.5 66.5l74 12q11 -25 34 -45t54 -20t54 20t34 45l74 -12q-8 -36 -31 -66.5t-56 -49t-75 -18.5z" />
    <glyph glyph-name="uni1EB7" unicode="&#x1eb7;" horiz-adv-x="633" 
d="M274 -10q-65 0 -118.5 36t-85.5 98t-32 140q0 79 32.5 140.5t88 96.5t124.5 35q41 0 75 -12t59.5 -33.5t42 -49.5t20.5 -60l-23 8v136h104v-525h-104v125l24 7q-6 -27 -24.5 -52.5t-47 -45.5t-63 -32t-72.5 -12zM301 85q47 0 83 23t56.5 63.5t20.5 92.5q0 51 -20.5 91
t-56.5 63t-83 23q-46 0 -81.5 -23t-56 -63t-20.5 -91q0 -52 20.5 -92.5t56 -63.5t81.5 -23zM317 -206q-33 0 -51 17t-18 48q0 29 18.5 47t50.5 18q33 0 51 -17t18 -48q0 -29 -18.5 -47t-50.5 -18zM317 589q-64 0 -106 41.5t-56 112.5l74 12q13 -39 35.5 -62t52.5 -23
t52.5 23t35.5 62l74 -12q-14 -71 -56 -112.5t-106 -41.5z" />
    <glyph glyph-name="uni1EB8" unicode="&#x1eb8;" horiz-adv-x="614" 
d="M98 0v700h441v-104h-333v-492h333v-104h-441zM147 307v104h337v-104h-337zM307 -206q-33 0 -51 17t-18 48q0 29 18.5 47t50.5 18q33 0 51 -17t18 -48q0 -29 -18.5 -47t-50.5 -18z" />
    <glyph glyph-name="uni1EB9" unicode="&#x1eb9;" horiz-adv-x="586" 
d="M317 -10q-81 0 -143.5 34.5t-98 94.5t-35.5 138q0 62 20 113t55.5 88.5t85 58t107.5 20.5q51 0 95 -19.5t76.5 -53.5t50 -80.5t16.5 -101.5l-1 -44h-429l-23 82h363l-15 -17v24q-3 33 -22 59t-48 41t-63 15q-54 0 -91 -20.5t-56 -60t-19 -97.5q0 -55 23 -95.5t65 -62.5
t97 -22q39 0 72.5 13t72.5 47l52 -73q-24 -24 -58.5 -42t-73 -28.5t-75.5 -10.5zM317 -206q-33 0 -51 17t-18 48q0 29 18.5 47t50.5 18q33 0 51 -17t18 -48q0 -29 -18.5 -47t-50.5 -18z" />
    <glyph glyph-name="uni1EBA" unicode="&#x1eba;" horiz-adv-x="614" 
d="M98 0v700h441v-104h-333v-492h333v-104h-441zM147 307v104h337v-104h-337zM304 758q-7 10 -11 19.5t-4 18.5t5.5 20t21.5 22q17 11 23.5 17t6.5 13q0 9 -8.5 13t-21.5 4q-16 0 -35 -5t-36 -13l-16 63q21 12 45 18t44 6q53 0 79.5 -22.5t26.5 -54.5q0 -25 -11.5 -39.5
t-25.5 -21.5q-18 -9 -26.5 -15.5t-8.5 -16.5q0 -4 1 -7l2 -6z" />
    <glyph glyph-name="uni1EBB" unicode="&#x1ebb;" horiz-adv-x="586" 
d="M317 -10q-81 0 -143.5 34.5t-98 94.5t-35.5 138q0 62 20 113t55.5 88.5t85 58t107.5 20.5q51 0 95 -19.5t76.5 -53.5t50 -80.5t16.5 -101.5l-1 -44h-429l-23 82h363l-15 -17v24q-3 33 -22 59t-48 41t-63 15q-54 0 -91 -20.5t-56 -60t-19 -97.5q0 -55 23 -95.5t65 -62.5
t97 -22q39 0 72.5 13t72.5 47l52 -73q-24 -24 -58.5 -42t-73 -28.5t-75.5 -10.5zM285 593q-7 10 -11 19.5t-4 18.5t5.5 20t21.5 22q17 11 23.5 17t6.5 13q0 9 -8.5 13t-21.5 4q-16 0 -35 -5t-36 -13l-16 63q21 12 45 18t44 6q53 0 79.5 -22.5t26.5 -54.5q0 -25 -11.5 -39.5
t-25.5 -21.5q-18 -9 -26.5 -15.5t-8.5 -16.5q0 -4 1 -7l2 -6z" />
    <glyph glyph-name="uni1EBC" unicode="&#x1ebc;" horiz-adv-x="614" 
d="M98 0v700h441v-104h-333v-492h333v-104h-441zM147 307v104h337v-104h-337zM401 768q-23 0 -46.5 7.5t-44.5 15.5q-17 7 -29 11t-22 4q-13 0 -21.5 -9.5t-8.5 -28.5h-77q0 54 35 83.5t79 29.5q21 0 41 -7t39 -15q14 -6 27.5 -10t22.5 -4q14 0 22 10t7 26h76q0 -29 -12 -55
t-34.5 -42t-53.5 -16z" />
    <glyph glyph-name="uni1EBD" unicode="&#x1ebd;" horiz-adv-x="586" 
d="M317 -10q-81 0 -143.5 34.5t-98 94.5t-35.5 138q0 62 20 113t55.5 88.5t85 58t107.5 20.5q51 0 95 -19.5t76.5 -53.5t50 -80.5t16.5 -101.5l-1 -44h-429l-23 82h363l-15 -17v24q-3 33 -22 59t-48 41t-63 15q-54 0 -91 -20.5t-56 -60t-19 -97.5q0 -55 23 -95.5t65 -62.5
t97 -22q39 0 72.5 13t72.5 47l52 -73q-24 -24 -58.5 -42t-73 -28.5t-75.5 -10.5zM359 615q-20 0 -33.5 8t-28.5 20q-19 17 -28.5 23.5t-17.5 6.5q-13 0 -23 -14.5t-14 -43.5l-68 10q2 49 31.5 85t78.5 36q20 0 33.5 -8t28.5 -20q20 -16 29 -23t17 -7q14 0 23.5 15t13.5 43
l68 -10q-1 -32 -15 -60t-38 -44.5t-57 -16.5z" />
    <glyph glyph-name="uni1EBE" unicode="&#x1ebe;" horiz-adv-x="614" 
d="M98 0v700h441v-104h-333v-492h333v-104h-441zM147 307v104h337v-104h-337zM203 755l-33 36l120 98h73l120 -98l-33 -36l-138 63h29zM489 864l-52 36l82 146l87 -62z" />
    <glyph glyph-name="uni1EBF" unicode="&#x1ebf;" horiz-adv-x="586" 
d="M317 -10q-81 0 -143.5 34.5t-98 94.5t-35.5 138q0 62 20 113t55.5 88.5t85 58t107.5 20.5q51 0 95 -19.5t76.5 -53.5t50 -80.5t16.5 -101.5l-1 -44h-429l-23 82h363l-15 -17v24q-3 33 -22 59t-48 41t-63 15q-54 0 -91 -20.5t-56 -60t-19 -97.5q0 -55 23 -95.5t65 -62.5
t97 -22q39 0 72.5 13t72.5 47l52 -73q-24 -24 -58.5 -42t-73 -28.5t-75.5 -10.5zM188 607l-38 33l115 113h86l115 -113l-38 -33l-135 73h30zM475 745l-52 36l82 146l87 -62z" />
    <glyph glyph-name="uni1EC0" unicode="&#x1ec0;" horiz-adv-x="614" 
d="M98 0v700h441v-104h-333v-492h333v-104h-441zM147 307v104h337v-104h-337zM203 755l-33 36l120 98h73l120 -98l-33 -36l-138 63h29zM492 865l-121 121l86 63l83 -146z" />
    <glyph glyph-name="uni1EC1" unicode="&#x1ec1;" horiz-adv-x="586" 
d="M317 -10q-81 0 -143.5 34.5t-98 94.5t-35.5 138q0 62 20 113t55.5 88.5t85 58t107.5 20.5q51 0 95 -19.5t76.5 -53.5t50 -80.5t16.5 -101.5l-1 -44h-429l-23 82h363l-15 -17v24q-3 33 -22 59t-48 41t-63 15q-54 0 -91 -20.5t-56 -60t-19 -97.5q0 -55 23 -95.5t65 -62.5
t97 -22q39 0 72.5 13t72.5 47l52 -73q-24 -24 -58.5 -42t-73 -28.5t-75.5 -10.5zM188 607l-38 33l115 113h86l115 -113l-38 -33l-135 73h30zM461 743l-121 121l86 63l83 -146z" />
    <glyph glyph-name="uni1EC2" unicode="&#x1ec2;" horiz-adv-x="614" 
d="M98 0v700h441v-104h-333v-492h333v-104h-441zM147 307v104h337v-104h-337zM203 755l-33 36l120 98h73l120 -98l-33 -36l-138 63h29zM461 863q-6 8 -10.5 17t-4.5 18t4.5 18t22.5 21q15 10 22.5 16t7.5 10q0 9 -8.5 13t-21.5 4q-16 0 -35 -5t-36 -13l-16 63q21 12 45 18
t44 6q53 0 79.5 -22.5t26.5 -54.5q0 -21 -12.5 -33.5t-24.5 -20.5q-19 -11 -27 -18t-8 -13q0 -3 1 -5.5t2 -5.5z" />
    <glyph glyph-name="uni1EC3" unicode="&#x1ec3;" horiz-adv-x="586" 
d="M317 -10q-81 0 -143.5 34.5t-98 94.5t-35.5 138q0 62 20 113t55.5 88.5t85 58t107.5 20.5q51 0 95 -19.5t76.5 -53.5t50 -80.5t16.5 -101.5l-1 -44h-429l-23 82h363l-15 -17v24q-3 33 -22 59t-48 41t-63 15q-54 0 -91 -20.5t-56 -60t-19 -97.5q0 -55 23 -95.5t65 -62.5
t97 -22q39 0 72.5 13t72.5 47l52 -73q-24 -24 -58.5 -42t-73 -28.5t-75.5 -10.5zM188 607l-38 33l115 113h86l115 -113l-38 -33l-135 73h30zM452 732q-7 10 -11 19.5t-4 18.5t5.5 20t21.5 22q17 11 23.5 17t6.5 13q0 9 -8.5 13t-21.5 4q-16 0 -35 -3.5t-36 -14.5l-16 63
q21 12 45 18t44 6q53 0 79.5 -22.5t26.5 -54.5q0 -25 -11.5 -39.5t-25.5 -21.5q-18 -9 -26.5 -15.5t-8.5 -16.5q0 -4 1 -7l2 -6z" />
    <glyph glyph-name="uni1EC4" unicode="&#x1ec4;" horiz-adv-x="614" 
d="M98 0v700h441v-104h-333v-492h333v-104h-441zM147 307v104h337v-104h-337zM203 755l-33 36l120 98h73l120 -98l-33 -36l-138 63h29zM404 937q-24 0 -44.5 7t-37.5 14q-18 8 -30 13t-22 5q-13 0 -23 -10t-14 -27l-68 10q2 41 30 71.5t68 30.5q21 0 38.5 -7t35.5 -15
q13 -6 26.5 -11.5t23.5 -5.5q14 0 21.5 9.5t11.5 28.5l68 -10q-1 -28 -11 -51.5t-28 -37.5t-45 -14z" />
    <glyph glyph-name="uni1EC5" unicode="&#x1ec5;" horiz-adv-x="586" 
d="M317 -10q-81 0 -143.5 34.5t-98 94.5t-35.5 138q0 62 20 113t55.5 88.5t85 58t107.5 20.5q51 0 95 -19.5t76.5 -53.5t50 -80.5t16.5 -101.5l-1 -44h-429l-23 82h363l-15 -17v24q-3 33 -22 59t-48 41t-63 15q-54 0 -91 -20.5t-56 -60t-19 -97.5q0 -55 23 -95.5t65 -62.5
t97 -22q39 0 72.5 13t72.5 47l52 -73q-24 -24 -58.5 -42t-73 -28.5t-75.5 -10.5zM187 607l-38 33l115 113h86l115 -113l-38 -33l-135 73h30zM383 807q-29 0 -48 9.5t-37 16.5q-12 5 -23 10t-24 5t-23 -10t-14 -27l-68 10q2 42 30 73.5t65 31.5q23 0 41 -9.5t36 -17.5
q13 -6 24.5 -10.5t21.5 -4.5q14 0 23.5 9.5t13.5 28.5l68 -10q-1 -28 -11.5 -52t-29 -38.5t-45.5 -14.5z" />
    <glyph glyph-name="uni1EC6" unicode="&#x1ec6;" horiz-adv-x="614" 
d="M98 0v700h441v-104h-333v-492h333v-104h-441zM147 307v104h337v-104h-337zM307 -206q-33 0 -51 17t-18 48q0 29 18.5 47t50.5 18q33 0 51 -17t18 -48q0 -29 -18.5 -47t-50.5 -18zM203 755l-37 35l124 101h73l124 -101l-37 -35l-138 65h29z" />
    </font>
</defs>
</svg>
