<?xml version="1.0" standalone="no"?>
<!DOCTYPE svg PUBLIC "-//W3C//DTD SVG 1.1//EN" "http://www.w3.org/Graphics/SVG/1.1/DTD/svg11.dtd" >
<svg xmlns="http://www.w3.org/2000/svg" xmlns:xlink="http://www.w3.org/1999/xlink" version="1.1">
<metadata>
Created by FontForge 20170731 at Fri Jul 30 19:17:25 2021
 By Aleksey,,,
Copyright 2019 The Lexend Project Authors (https://github.com/googlefonts/lexend)
</metadata>
<defs>
<font id="LexendDeca-Black" horiz-adv-x="0" >
  <font-face 
    font-family="Lexend Deca Black"
    font-weight="900"
    font-stretch="normal"
    units-per-em="1000"
    panose-1="0 0 0 0 0 0 0 0 0 0"
    ascent="800"
    descent="-200"
    x-height="535"
    cap-height="700"
    bbox="-219 -331 1434 1200"
    underline-thickness="50"
    underline-position="-175"
    unicode-range="U+000D-FB02"
  />
<missing-glyph horiz-adv-x="584" 
d="M75 0q-35 0 -35 35v630q0 35 35 35h434q35 0 35 -35v-630q0 -35 -35 -35h-434zM75 30h413q3 0 4 2t-1 4l-415 599q-2 3 -4 2.5t-2 -4.5v-598q0 -5 5 -5zM508 65q2 -3 4 -2.5t2 4.5v598q0 5 -5 5h-414q-3 0 -4 -2t1 -4z" />
    <glyph glyph-name="fi" unicode="fi" horiz-adv-x="743" 
d="M86 0v537q0 57 24.5 104t69 75.5t104.5 28.5q41 0 76 -11t66 -30l-53 -145q-13 3 -23 4.5t-17 1.5q-16 0 -25.5 -6t-14 -17.5t-4.5 -28.5v-513h-101h-63.5h-38.5zM13 356v160h374v-160h-374zM466 0v535h203v-535h-203zM568 632q-54 0 -84.5 25t-30.5 71q0 42 31 69t84 27
q54 0 84.5 -25t30.5 -71q0 -42 -31 -69t-84 -27z" />
    <glyph glyph-name="fl" unicode="fl" horiz-adv-x="736" 
d="M86 0v537q0 57 24.5 104t69 75.5t104.5 28.5q41 0 76 -11t66 -30l-53 -145q-13 3 -23 4.5t-17 1.5q-16 0 -25.5 -6t-14 -17.5t-4.5 -28.5v-513h-101h-63.5h-38.5zM13 356v160h374v-160h-374zM463 0v740h203v-740h-203z" />
    <glyph glyph-name="f_f" unicode="ff" horiz-adv-x="786" 
d="M86 0v537q0 57 24.5 104t69 75.5t104.5 28.5q41 0 76 -11t66 -30l-53 -145q-13 3 -23 4.5t-17 1.5q-16 0 -25.5 -6t-14 -17.5t-4.5 -28.5v-513h-101h-63.5h-38.5zM13 356v160h374v-160h-374zM479 0v537q0 57 24.5 104t69 75.5t104.5 28.5q41 0 76 -11t66 -30l-53 -145
q-13 3 -23 4.5t-17 1.5q-16 0 -25.5 -6t-14 -17.5t-4.5 -28.5v-513h-101h-63.5h-38.5zM406 356v160h374v-160h-374z" />
    <glyph glyph-name="f_f_i" unicode="ffi" horiz-adv-x="1136" 
d="M86 0v537q0 57 24.5 104t69 75.5t104.5 28.5q41 0 76 -11t66 -30l-53 -145q-13 3 -23 4.5t-17 1.5q-16 0 -25.5 -6t-14 -17.5t-4.5 -28.5v-513h-101h-63.5h-38.5zM13 356v160h374v-160h-374zM479 0v537q0 57 24.5 104t69 75.5t104.5 28.5q41 0 76 -11t66 -30l-53 -145
q-13 3 -23 4.5t-17 1.5q-16 0 -25.5 -6t-14 -17.5t-4.5 -28.5v-513h-101h-63.5h-38.5zM406 356v160h374v-160h-374zM859 0v535h203v-535h-203zM961 632q-54 0 -84.5 25t-30.5 71q0 42 31 69t84 27q54 0 84.5 -25t30.5 -71q0 -42 -31 -69t-84 -27z" />
    <glyph glyph-name="f_f_l" unicode="ffl" horiz-adv-x="1129" 
d="M86 0v537q0 57 24.5 104t69 75.5t104.5 28.5q41 0 76 -11t66 -30l-53 -145q-13 3 -23 4.5t-17 1.5q-16 0 -25.5 -6t-14 -17.5t-4.5 -28.5v-513h-101h-63.5h-38.5zM13 356v160h374v-160h-374zM479 0v537q0 57 24.5 104t69 75.5t104.5 28.5q41 0 76 -11t66 -30l-53 -145
q-13 3 -23 4.5t-17 1.5q-16 0 -25.5 -6t-14 -17.5t-4.5 -28.5v-513h-101h-63.5h-38.5zM406 356v160h374v-160h-374zM856 0v740h203v-740h-203z" />
    <glyph glyph-name=".notdef" horiz-adv-x="584" 
d="M75 0q-35 0 -35 35v630q0 35 35 35h434q35 0 35 -35v-630q0 -35 -35 -35h-434zM75 30h413q3 0 4 2t-1 4l-415 599q-2 3 -4 2.5t-2 -4.5v-598q0 -5 5 -5zM508 65q2 -3 4 -2.5t2 4.5v598q0 5 -5 5h-414q-3 0 -4 -2t1 -4z" />
    <glyph glyph-name=".null" 
 />
    <glyph glyph-name="nonmarkingreturn" horiz-adv-x="333" 
 />
    <glyph glyph-name="CR" unicode="&#xd;" horiz-adv-x="277" 
 />
    <glyph glyph-name="space" unicode=" " horiz-adv-x="350" 
 />
    <glyph glyph-name="exclam" unicode="!" horiz-adv-x="364" 
d="M117 266q-9 59 -19 122t-16.5 125.5t-6.5 121.5v85h214v-85q0 -59 -6.5 -121.5t-16.5 -125.5t-19 -122h-130zM183 -11q-47 0 -73 26t-26 74q0 44 27.5 72t71.5 28q47 0 73 -26t26 -74q0 -44 -27.5 -72t-71.5 -28z" />
    <glyph glyph-name="quotedbl" unicode="&#x22;" horiz-adv-x="526" 
d="M290 432l18 268h198l-86 -268h-130zM50 432l18 268h198l-86 -268h-130z" />
    <glyph glyph-name="numbersign" unicode="#" horiz-adv-x="776" 
d="M369 0l120 700h179l-120 -700h-179zM60 133v163h619v-163h-619zM110 0l120 700h179l-120 -700h-179zM98 413v163h618v-163h-618z" />
    <glyph glyph-name="dollar" unicode="$" horiz-adv-x="642" 
d="M325 -10q-108 0 -184 28t-129 78l85 163q60 -49 119.5 -70.5t113.5 -21.5q19 0 34 3.5t23 11.5t8 22q0 13 -8.5 22t-22.5 15.5t-30.5 11t-32 7.5t-27.5 6q-81 19 -134 49t-79 73.5t-26 104.5q0 51 23.5 93t63 72t90 46t104.5 16q88 0 159.5 -21.5t137.5 -73.5l-68 -149
q-48 34 -104.5 49.5t-113.5 15.5q-23 0 -39 -3.5t-25 -11t-9 -20.5t11.5 -21.5t29 -14.5t35 -9.5t29.5 -5.5q55 -10 101 -27.5t80.5 -44t53 -66t18.5 -93.5q0 -77 -38.5 -129t-103.5 -78.5t-145 -26.5zM264 -91l20 474l68 -33l20 -441h-108zM366 348l-68 33l-20 411h108z
" />
    <glyph glyph-name="percent" unicode="%" horiz-adv-x="1064" 
d="M202 0l463 700h183l-468 -700h-178zM233 329q-55 0 -99 26t-69 71t-25 102q0 59 24.5 104t68 70.5t100.5 25.5t100 -25.5t67 -70.5t24 -104q0 -57 -25 -102t-68 -71t-98 -26zM233 452q13 0 21.5 9.5t13 26.5t4.5 40t-4.5 40.5t-13 27t-21.5 9.5t-22 -9.5t-14 -27
t-5 -40.5t4.5 -40t14 -26.5t22.5 -9.5zM833 -10q-55 0 -99 26t-69 71t-25 102q0 59 24.5 104t68 70.5t100.5 25.5t100 -25.5t67 -70.5t24 -104q0 -57 -25 -102t-68 -71t-98 -26zM833 113q13 0 21.5 9.5t13 26.5t4.5 40t-4.5 40.5t-13 27t-21.5 9.5t-22 -9.5t-14 -27
t-5 -40.5t4.5 -40t14 -26.5t22.5 -9.5z" />
    <glyph glyph-name="ampersand" unicode="&#x26;" horiz-adv-x="804" 
d="M583 0l-53 54l-94 84l-127 129q-50 51 -79.5 89.5t-43.5 68.5t-18.5 54.5t-4.5 45.5q0 56 30 100t83.5 69.5t123.5 25.5q54 0 102 -16.5t82.5 -46.5t48.5 -71l-163 -94q-15 37 -29 47.5t-32 10.5q-14 0 -25 -5t-17 -15t-6 -24q0 -18 18 -46t46 -59.5t57 -60.5t51 -50
l27 -26l99 -86l170 -178h-246zM342 -10q-84 0 -150 30t-104 83t-38 120q0 68 41.5 126.5t124.5 88.5l126 -112q-49 -11 -75.5 -35.5t-26.5 -58.5q0 -28 13.5 -47.5t39.5 -29.5t63 -10q36 0 68.5 15.5t57.5 43.5t40.5 67.5t18.5 87.5h192q-9 -66 -32.5 -122.5t-59 -102
t-82 -78t-101 -49.5t-116.5 -17z" />
    <glyph glyph-name="quotesingle" unicode="'" horiz-adv-x="286" 
d="M50 432l18 268h198l-86 -268h-130z" />
    <glyph glyph-name="parenleft" unicode="(" horiz-adv-x="407" 
d="M290 -186q-122 76 -186 190t-64 254q0 139 64.5 253.5t186.5 190.5l116 -102q-85 -58 -124 -149t-39 -193t39 -193t124 -149z" />
    <glyph glyph-name="parenright" unicode=")" horiz-adv-x="407" 
d="M116 -186l-116 102q85 58 124 149t39 193t-39 193t-124 149l117 102q122 -76 186 -190t64 -254q0 -139 -64.5 -253.5t-186.5 -190.5z" />
    <glyph glyph-name="asterisk" unicode="*" horiz-adv-x="480" 
d="M171 336l19 151l26 -5l-142 -96l-66 112l152 54v-11l-152 66l66 114l146 -113l-30 -4l-22 158h144l-19 -157l-22 5l135 111l66 -114l-157 -66v10l155 -53l-66 -112l-129 101h19l21 -151h-144z" />
    <glyph glyph-name="plus" unicode="+" horiz-adv-x="601" 
d="M50 206v160h501v-160h-501zM216 37v493h169v-493h-169z" />
    <glyph glyph-name="comma" unicode="," horiz-adv-x="302" 
d="M82 -215l-52 64q44 17 70 46t26 49q0 9 -4.5 19.5t-23.5 21.5q-25 16 -35 34.5t-10 42.5q0 36 27 57t69 21q32 0 57.5 -17t40.5 -47.5t15 -70.5q0 -36 -13 -70.5t-37.5 -64.5t-57.5 -52t-72 -33z" />
    <glyph glyph-name="hyphen" unicode="-" horiz-adv-x="488" 
d="M50 198v180h388v-180h-388z" />
    <glyph glyph-name="period" unicode="." horiz-adv-x="278" 
d="M139 -11q-47 0 -73 26t-26 74q0 44 27.5 72t71.5 28q47 0 73 -26t26 -74q0 -44 -27.5 -72t-71.5 -28z" />
    <glyph glyph-name="slash" unicode="/" horiz-adv-x="623" 
d="M0 -149l419 849h204l-417 -849h-206z" />
    <glyph glyph-name="zero" unicode="0" horiz-adv-x="725" 
d="M362 -10q-105 0 -178 42t-111 122.5t-38 195.5t38 195.5t111 122.5t178 42t178.5 -42t111.5 -122.5t38 -195.5t-38 -195.5t-111.5 -122.5t-178.5 -42zM362 168q59 0 91 47t32 135q0 93 -32 142.5t-91 49.5t-91 -49.5t-32 -142.5q0 -88 32 -135t91 -47z" />
    <glyph glyph-name="one" unicode="1" horiz-adv-x="607" 
d="M207 49v568l37 -128l-159 -68l-29 194l208 95h152v-661h-209zM66 0v184h494v-184h-494z" />
    <glyph glyph-name="two" unicode="2" horiz-adv-x="548" 
d="M34 0l-34 82l197 210q18 19 39 43.5t41 50.5t32.5 50t12.5 42q0 10 -6 19.5t-18.5 16t-33.5 6.5q-19 0 -34.5 -8t-31 -26.5t-33.5 -49.5l-157 80q23 58 65 104.5t96.5 73.5t114.5 26q64 -1 117 -27.5t85 -73.5t32 -110q0 -20 -4.5 -42t-14 -46t-25.5 -51.5t-39 -58
t-54 -64.5l-159 -173l-20 110h354v-184h-522z" />
    <glyph glyph-name="three" unicode="3" horiz-adv-x="637" 
d="M314 -10q-93 0 -163.5 36.5t-125.5 129.5l151 97q19 -33 42 -52t48 -27.5t52 -8.5q23 0 42 9t30.5 25.5t11.5 39.5q0 25 -11.5 41.5t-32.5 25t-51 8.5q-13 0 -29 -3t-33 -9t-34 -15l-43 113l136 146l65 -21l-287 10v175h452l39 -78l-234 -243l-50 63q8 4 26.5 7.5
t39.5 3.5q48 0 91.5 -17.5t77.5 -48t53.5 -71.5t19.5 -89q0 -71 -37.5 -126.5t-102 -88t-143.5 -32.5z" />
    <glyph glyph-name="four" unicode="4" horiz-adv-x="693" 
d="M347 0v568h140l-270 -331l-39 43h485v-170h-567l-86 162l368 438h178v-710h-209z" />
    <glyph glyph-name="five" unicode="5" horiz-adv-x="617" 
d="M301 -7q-87 0 -157.5 32t-117.5 93l115 125q36 -40 71 -55t79 -15q26 0 45.5 10t30 27.5t10.5 39.5q0 23 -11.5 40.5t-31.5 28t-47 10.5q-26 0 -47.5 -5t-43 -15t-46.5 -27l-84 110l45 318h420v-175h-330l61 84l-33 -222l-85 14q25 21 55.5 37t64 25.5t68.5 9.5
q69 0 123 -31t85.5 -86.5t31.5 -127.5q0 -69 -36 -124.5t-97 -88t-138 -32.5z" />
    <glyph glyph-name="six" unicode="6" horiz-adv-x="596" 
d="M302 0q-56 0 -105 20t-86.5 56t-59 82.5t-21.5 99.5q0 43 8 78.5t22 67.5t33 64.5t41 69.5l103 172h196l4 -10l-155 -236q-23 -35 -38.5 -64.5t-29.5 -61.5t-35 -78l-38 43q3 39 25 73t54.5 59.5t68 39.5t66.5 14q60 0 110.5 -31.5t80.5 -83.5t30 -114q0 -74 -36 -133
t-98 -93t-140 -34zM306 170q26 0 46 10.5t31.5 30t11.5 44.5q0 22 -12 41t-32 31t-45 12q-26 0 -46 -11.5t-31.5 -30.5t-11.5 -42q0 -25 11.5 -44t31.5 -30t46 -11z" />
    <glyph glyph-name="seven" unicode="7" horiz-adv-x="561" 
d="M64 0l272 642l74 -116h-375v184h474l17 -90l-252 -620h-210z" />
    <glyph glyph-name="eight" unicode="8" horiz-adv-x="613" 
d="M306 -3q-77 0 -139.5 27.5t-99.5 75.5t-37 109q0 45 11.5 79.5t34 59.5t55 41.5t74.5 25.5l-16 -55q-30 12 -54.5 29t-41.5 38.5t-26.5 47t-9.5 54.5q0 57 33.5 100t90 67t125.5 24t125.5 -24t90 -67t33.5 -100q0 -29 -8.5 -54t-25.5 -46t-41.5 -38.5t-57.5 -30.5l-13 51
q38 -7 70 -22t55 -39.5t36 -59.5t13 -81q0 -62 -37 -110t-100 -75t-140 -27zM306 156q21 0 38 8.5t27 24t10 36.5q0 20 -9.5 35.5t-26.5 24.5t-39 9q-21 0 -38 -9t-27 -24.5t-10 -35.5t10 -35.5t27 -24.5t38 -9zM306 457q19 0 34 8t23.5 21.5t8.5 31.5t-8.5 32t-23.5 22.5
t-34 8.5t-34 -8.5t-23.5 -22.5t-8.5 -32t8.5 -31.5t23.5 -21.5t34 -8z" />
    <glyph glyph-name="nine" unicode="9" horiz-adv-x="596" 
d="M193 0l-4 10l228 442l48 -43q-4 -40 -26.5 -73.5t-56.5 -59t-71.5 -39.5t-69.5 -14q-57 0 -105 32.5t-77 85.5t-29 115q0 74 36 134t98 95t140 35q56 0 105.5 -19.5t87 -54t58.5 -79t21 -95.5q0 -43 -7.5 -82.5t-21 -75.5t-30.5 -70.5t-35 -69.5l-93 -174h-196zM295 383
q25 0 44 11.5t29.5 30.5t10.5 42q0 25 -10.5 44t-29.5 30t-44 11t-43.5 -10.5t-29.5 -30t-11 -44.5q0 -22 11.5 -41t30.5 -31t42 -12z" />
    <glyph glyph-name="colon" unicode=":" horiz-adv-x="278" 
d="M139 -11q-47 0 -73 26t-26 74q0 44 27.5 72t71.5 28q47 0 73 -26t26 -74q0 -44 -27.5 -72t-71.5 -28zM139 345q-47 0 -73 26t-26 74q0 44 27.5 72t71.5 28q47 0 73 -26t26 -74q0 -44 -27.5 -72t-71.5 -28z" />
    <glyph glyph-name="semicolon" unicode=";" horiz-adv-x="312" 
d="M92 -215l-52 64q44 17 70 46t26 49q0 9 -4.5 19.5t-23.5 21.5q-25 16 -35 34.5t-10 42.5q0 36 27 57t69 21q32 0 57.5 -17t40.5 -47.5t15 -70.5q0 -36 -13 -70.5t-37.5 -64.5t-57.5 -52t-72 -33zM152 346q-47 0 -73 26t-26 74q0 44 27.5 72t71.5 28q47 0 73 -26t26 -74
q0 -44 -27.5 -72t-71.5 -28z" />
    <glyph glyph-name="less" unicode="&#x3c;" horiz-adv-x="526" 
d="M443 -26l-408 233v109l408 233l78 -165l-325 -158v71l325 -158z" />
    <glyph glyph-name="equal" unicode="=" horiz-adv-x="666" 
d="M80 321v160h506v-160h-506zM80 82v160h506v-160h-506z" />
    <glyph glyph-name="greater" unicode="&#x3e;" horiz-adv-x="527" 
d="M99 -26l-78 165l325 158v-71l-325 158l78 165l408 -233v-109z" />
    <glyph glyph-name="question" unicode="?" horiz-adv-x="554" 
d="M197 261l-37 124q22 5 44.5 12t43.5 16t37.5 21t26 28t9.5 35q0 13 -5.5 21t-15.5 12.5t-24 4.5q-28 0 -57.5 -20t-58.5 -75l-135 130q47 72 111.5 111t135.5 39q68 0 123 -27.5t87 -75t32 -106.5q0 -40 -16.5 -79.5t-46 -73.5t-69.5 -59t-88 -38h-4h-93zM160 89
q0 44 27.5 72t71.5 28q47 0 73 -26t26 -74q0 -44 -27.5 -72t-71.5 -28q-47 0 -73 26t-26 74z" />
    <glyph glyph-name="at" unicode="@" horiz-adv-x="965" 
d="M414 -162q-87 0 -156.5 26.5t-118 75t-74 116.5t-25.5 150q0 117 41.5 210.5t115 159t171 100t208.5 34.5q80 0 144 -22.5t110 -64.5t70.5 -99.5t24.5 -127.5t-19.5 -133t-54.5 -112.5t-81.5 -77.5t-100.5 -28q-41 0 -73 13.5t-50 37.5t-18 55q0 18 0.5 35.5t0.5 35.5
l34 -20q-16 -50 -41.5 -85t-59 -53.5t-73.5 -18.5q-48 0 -86 24.5t-60 67.5t-22 100q0 50 19 101.5t53 95t78.5 70t94.5 26.5q31 0 55.5 -17t40 -47.5t18.5 -70.5l-35 -4l31 126h176l-65 -323q-3 -14 1 -22t12.5 -11.5t19.5 -3.5q26 0 48 18.5t38.5 51t26 74.5t9.5 90
q0 76 -32.5 130t-94 83t-147.5 29q-103 0 -185 -29t-140 -84t-88.5 -133.5t-30.5 -177.5q0 -69 19.5 -122.5t56.5 -91.5t92 -57.5t125 -19.5q47 0 81 6.5t65 20t69 33.5l37 -67q-59 -30 -101 -45.5t-78 -21.5t-76 -6zM445 192q20 0 39.5 13.5t34.5 38t21 57.5q2 11 3.5 21.5
t1.5 20.5q0 15 -4 26.5t-13.5 18t-26.5 6.5q-26 0 -47 -19.5t-32.5 -52.5t-11.5 -73q0 -26 9.5 -41.5t25.5 -15.5z" />
    <glyph glyph-name="A" unicode="A" horiz-adv-x="690" 
d="M-20 0l281 700h170l279 -700h-214l-112 306q-11 31 -19 53t-14 41.5t-12 42t-12 53.5h34q-6 -31 -12 -53.5t-12.5 -42t-15 -41.5t-19.5 -53l-112 -306h-210zM120 104l63 147h325l57 -147h-445z" />
    <glyph glyph-name="B" unicode="B" horiz-adv-x="715" 
d="M80 0v700h322q76 0 128.5 -21t80 -59t27.5 -89q0 -63 -28.5 -104t-83.5 -55l-3 19q46 -11 80 -35.5t53 -59.5t19 -80q0 -55 -20 -95.5t-56.5 -67.5t-84 -40t-102.5 -13h-332zM280 170h126q19 0 32 6.5t20 20t7 32.5q0 17 -7.5 28.5t-21.5 18t-35 6.5h-121v-112zM280 426
h85q23 0 37.5 6t21 17.5t6.5 28.5q0 23 -15.5 37.5t-51.5 14.5h-83v-104z" />
    <glyph glyph-name="C" unicode="C" horiz-adv-x="705" 
d="M424 -10q-84 0 -154.5 27t-122 75.5t-79.5 115.5t-28 147t28.5 147t80.5 115.5t123.5 75.5t157.5 27q49 0 96.5 -11.5t90 -35t77.5 -59.5l-129 -151q-14 17 -33.5 31t-45 22.5t-58.5 8.5q-34 0 -64.5 -11.5t-53 -33.5t-35.5 -54t-13 -74q0 -38 13 -69t37 -53t58 -34
t76 -12q30 0 57 9t49 23.5t38 32.5l103 -162q-26 -28 -69 -50t-95 -34.5t-105 -12.5z" />
    <glyph glyph-name="D" unicode="D" horiz-adv-x="790" 
d="M80 0v700h308q79 0 145 -26t115 -72.5t75.5 -110.5t26.5 -141q0 -76 -26.5 -140.5t-75.5 -111t-115 -72.5t-145 -26h-308zM296 133l-37 51h124q33 0 60 12.5t47 34.5t31 52.5t11 66.5t-11 66.5t-31 52.5t-47 34.5t-60 12.5h-127l40 49v-432z" />
    <glyph glyph-name="E" unicode="E" horiz-adv-x="668" 
d="M80 0v700h523v-175h-316v-350h334v-175h-541zM183 272v164h383v-164h-383z" />
    <glyph glyph-name="F" unicode="F" horiz-adv-x="630" 
d="M80 0v700h216v-700h-216zM183 246v170h363v-170h-363zM183 516v184h400v-184h-400z" />
    <glyph glyph-name="G" unicode="G" horiz-adv-x="793" 
d="M414 -10q-90 0 -159.5 27t-117.5 76t-72.5 116t-24.5 146q0 80 27.5 146.5t79.5 115.5t123.5 76t159.5 27q61 0 113.5 -15t95 -40.5t73.5 -57.5l-128 -136q-20 19 -43 33.5t-51 23t-63 8.5q-36 0 -66 -13.5t-52 -37.5t-34.5 -57.5t-12.5 -72.5t13 -72.5t36 -57.5
t55 -37.5t70 -13.5q26 0 47.5 8.5t37 23t24.5 35t9 44.5v29l28 -48h-178v152h344q1 -11 2.5 -36t2 -49.5t0.5 -33.5q0 -67 -25 -124t-70.5 -98t-107.5 -64t-136 -23z" />
    <glyph glyph-name="H" unicode="H" horiz-adv-x="793" 
d="M497 0v700h216v-700h-216zM80 0v700h216v-700h-216zM161 255l1 188h457v-188h-458z" />
    <glyph glyph-name="I" unicode="I" horiz-adv-x="612" 
d="M75 0v175h123v350h-123v175h462v-175h-123v-350h123v-175h-462z" />
    <glyph glyph-name="J" unicode="J" horiz-adv-x="682" 
d="M265 -10q-42 0 -78 8.5t-65 24t-51.5 39t-39.5 53.5l119 123q9 -13 18.5 -24t19.5 -18.5t21.5 -12t23.5 -4.5q16 0 28 7.5t18.5 21t6.5 32.5v276h-129v184h445v-184h-108v-303q0 -54 -18 -95t-49 -70t-72.5 -43.5t-89.5 -14.5z" />
    <glyph glyph-name="K" unicode="K" horiz-adv-x="744" 
d="M230 199l-73 160l333 341h245zM80 0v700h216v-700h-216zM519 0l-254 331l140 121l359 -452h-245z" />
    <glyph glyph-name="L" unicode="L" horiz-adv-x="616" 
d="M80 0v700h216v-516h300v-184h-516z" />
    <glyph glyph-name="M" unicode="M" horiz-adv-x="888" 
d="M80 0v700h186l255 -415l-151 1l258 414h180v-700h-208v167q0 90 4.5 162t15.5 143l24 -63l-169 -262h-66l-166 262l25 63q11 -67 15.5 -137.5t4.5 -167.5v-167h-208z" />
    <glyph glyph-name="N" unicode="N" horiz-adv-x="817" 
d="M80 0v700h193l322 -445l-46 14q-5 40 -8.5 70t-6 55.5t-4 50.5t-1.5 55v70v130h208v-700h-195l-355 490l81 -24q5 -37 8.5 -64.5t5.5 -50.5t3.5 -45.5t2 -50t0.5 -64.5v-191h-208z" />
    <glyph glyph-name="O" unicode="O" horiz-adv-x="834" 
d="M418 -10q-83 0 -152 27t-120 76t-78.5 116t-27.5 146q0 80 27.5 146.5t78.5 115.5t120 76t151 27q83 0 151.5 -27t119.5 -76t78.5 -115.5t27.5 -145.5q0 -80 -27.5 -147t-78.5 -116t-119.5 -76t-150.5 -27zM417 190q34 0 62.5 12t50 34.5t33 52.5t11.5 66t-11.5 66
t-33 52.5t-50 34.5t-62.5 12t-62.5 -12t-50 -34.5t-33 -52.5t-11.5 -66t11.5 -66t33 -52.5t50 -34.5t62.5 -12z" />
    <glyph glyph-name="P" unicode="P" horiz-adv-x="683" 
d="M80 0v700h315q72 0 128 -31t88 -85t32 -124q0 -73 -32 -130t-88 -89.5t-128 -32.5h-99v-208h-216zM292 392h63q19 0 34 7.5t23.5 21.5t8.5 35t-8.5 34t-23.5 19.5t-34 6.5h-63v-124z" />
    <glyph glyph-name="Q" unicode="Q" horiz-adv-x="834" 
d="M617 -110l-270 374l151 108l267 -371zM417 -10q-82 0 -151 27t-120 76t-78.5 116t-27.5 146q0 80 27.5 146.5t78.5 115.5t120 76t151 27q83 0 151.5 -27t119.5 -76t78.5 -115.5t27.5 -146.5q0 -79 -27.5 -146t-78.5 -116t-119.5 -76t-151.5 -27zM417 190q34 0 62.5 12
t50 34.5t33 52.5t11.5 66t-11.5 66t-33 52.5t-50 34.5t-62.5 12t-62.5 -12t-50 -34.5t-33 -52.5t-11.5 -66t11.5 -66t33 -52.5t50 -34.5t62.5 -12z" />
    <glyph glyph-name="R" unicode="R" horiz-adv-x="707" 
d="M80 0v700h328q73 0 130 -29t89 -79t32 -115q0 -73 -32 -128t-89 -85.5t-130 -30.5h-126v-233h-202zM447 0l-178 316l221 25l198 -341h-241zM282 383h92q25 0 41.5 9.5t25 26.5t8.5 41q0 22 -8.5 37.5t-26 24t-44.5 8.5h-88v-147z" />
    <glyph glyph-name="S" unicode="S" horiz-adv-x="641" 
d="M325 -10q-79 0 -139.5 17.5t-106 49.5t-81.5 75l125 140q50 -64 104.5 -84.5t102.5 -20.5q19 0 34 3.5t23 11.5t8 22q0 13 -8.5 22t-22.5 15.5t-30.5 11t-32 7.5t-27.5 6q-60 14 -105 34t-75 48t-44.5 64t-14.5 81q0 51 23.5 93t63 72t90 46t104.5 16q79 0 132 -14.5
t89 -41.5t62 -63l-126 -121q-22 21 -46 34.5t-49.5 20t-50.5 6.5q-23 0 -39 -3.5t-25 -11t-9 -20.5t11.5 -21.5t29 -14.5t35 -9.5t29.5 -5.5q55 -10 101 -27.5t80.5 -44t53 -66t18.5 -93.5q0 -77 -38.5 -129t-103.5 -78.5t-145 -26.5z" />
    <glyph glyph-name="T" unicode="T" horiz-adv-x="714" 
d="M246 0v516h-216v184h654v-184h-222v-516h-216z" />
    <glyph glyph-name="U" unicode="U" horiz-adv-x="784" 
d="M392 -6q-91 0 -161.5 35.5t-110.5 97.5t-40 142v431h218v-422q0 -29 12 -51.5t33.5 -35.5t48.5 -13q29 0 51 13t35 35.5t13 51.5v422h213v-431q0 -80 -40 -142t-110.5 -97.5t-161.5 -35.5z" />
    <glyph glyph-name="V" unicode="V" horiz-adv-x="710" 
d="M269 0l-279 700h216l112 -306q12 -31 19.5 -53t13.5 -41.5t11.5 -41.5t12.5 -54h-35q10 42 17.5 69t17 53.5t24.5 67.5l112 306h209l-281 -700h-170z" />
    <glyph glyph-name="W" unicode="W" horiz-adv-x="990" 
d="M189 0l-199 700h216l82 -316q8 -31 13.5 -59.5t8.5 -52.5t4.5 -44t1.5 -34h-16q0 25 1.5 53.5t7.5 62t20 74.5l87 247h165l87 -247q14 -40 22 -73.5t11.5 -62t3.5 -54.5h-15v27t0.5 33t2.5 38.5t6 43.5t10 48l82 316h209l-201 -700h-170l-152 377h27l-135 -377h-180z" />
    <glyph glyph-name="X" unicode="X" horiz-adv-x="719" 
d="M480 0l-217 314l-278 386h259l212 -310l283 -390h-259zM-20 0l267 381l189 -79l-207 -302h-249zM472 325l-188 76l196 299h249z" />
    <glyph glyph-name="Y" unicode="Y" horiz-adv-x="710" 
d="M256 0v349l7 -49l-283 400h240l216 -310l-135 3l195 307h234l-271 -411l15 68v-357h-218z" />
    <glyph glyph-name="Z" unicode="Z" horiz-adv-x="701" 
d="M60 0v139l359 474l92 -107h-425v194h544v-138l-357 -475l-93 95h461v-182h-581z" />
    <glyph glyph-name="bracketleft" unicode="[" horiz-adv-x="432" 
d="M80 -190v890h327v-180h-134l6 8v-550l-10 12h138v-180h-327z" />
    <glyph glyph-name="backslash" unicode="\" horiz-adv-x="604" 
d="M398 -107l-398 807h204l400 -807h-206z" />
    <glyph glyph-name="bracketright" unicode="]" horiz-adv-x="432" 
d="M25 -190v180h134l-6 -8v550l10 -12h-138v180h327v-890h-327z" />
    <glyph glyph-name="asciicircum" unicode="^" horiz-adv-x="602" 
d="M0 356l226 381h150l226 -381h-196l-170 297l131 1l-174 -298h-193z" />
    <glyph glyph-name="underscore" unicode="_" horiz-adv-x="684" 
d="M30 -216v170h624v-170h-624z" />
    <glyph glyph-name="grave" unicode="`" horiz-adv-x="500" 
d="M335 567l-228 122l80 121l206 -154z" />
    <glyph glyph-name="a" unicode="a" horiz-adv-x="679" 
d="M261 -9q-67 0 -119 35.5t-82 98t-30 143.5q0 82 29.5 144.5t82 98t121.5 35.5q36 0 66 -10t53 -28t40 -41.5t29 -50.5l-41 1v118h199v-535h-204v131l45 -4q-10 -29 -27.5 -54t-41.5 -43t-54 -28.5t-66 -10.5zM319 156q29 0 49.5 13t31 38t10.5 61t-10.5 61.5t-31 38.5
t-49.5 13t-49 -13t-30.5 -38.5t-10.5 -61.5t10.5 -61t30.5 -38t49 -13z" />
    <glyph glyph-name="b" unicode="b" horiz-adv-x="679" 
d="M421 -11q-37 0 -70 9t-58.5 25t-42.5 38t-22 48l41 9l-16 -118h-183v740h204v-336l-45 14q6 27 23.5 50.5t42.5 41t56 27t65 9.5q68 0 120.5 -36t82.5 -99t30 -144q0 -82 -29.5 -144.5t-81 -98t-117.5 -35.5zM360 154q29 0 49 13.5t30.5 38.5t10.5 61t-10.5 61.5
t-30.5 38.5t-49 13t-49.5 -13t-31 -38.5t-10.5 -61.5t10.5 -61t31 -38.5t49.5 -13.5z" />
    <glyph glyph-name="c" unicode="c" horiz-adv-x="553" 
d="M311 -10q-81 0 -144.5 36t-100 98.5t-36.5 143.5t36.5 143.5t100 98.5t144.5 36q72 0 133 -22t99 -64l-110 -130q-11 12 -26 22t-34 15.5t-44 5.5q-30 0 -52.5 -13t-34.5 -36.5t-12 -54.5q0 -30 11.5 -53.5t34 -37.5t53.5 -14q25 0 44 5t34 14.5t26 22.5l109 -131
q-37 -41 -98 -63t-133 -22z" />
    <glyph glyph-name="d" unicode="d" horiz-adv-x="669" 
d="M258 -11q-66 0 -117.5 35.5t-81 98t-29.5 144.5q0 81 30 144t82.5 99t120.5 36q34 0 65 -9.5t56 -27t42.5 -41t23.5 -50.5l-45 -14v336h204v-740h-183l-16 118l41 -9q-5 -26 -22 -48t-42.5 -38t-58.5 -25t-70 -9zM319 154q29 0 49.5 13.5t31 38.5t10.5 61t-10.5 61.5
t-31 38.5t-49.5 13t-49 -13t-30.5 -38.5t-10.5 -61.5t10.5 -61t30.5 -38.5t49 -13.5z" />
    <glyph glyph-name="e" unicode="e" horiz-adv-x="586" 
d="M329 -10q-93 0 -160 36t-103 98.5t-36 143.5q0 60 20 111t56.5 88.5t86 58t108.5 20.5t107.5 -20.5t83.5 -58t53.5 -88.5t16.5 -111l-1 -42h-419l-23 95h281l-19 -20v18q0 19 -9.5 33.5t-26.5 22.5t-40 8q-29 0 -49 -12t-30.5 -34t-10.5 -53q0 -36 15.5 -63t46 -42
t75.5 -15q30 0 51.5 7.5t45.5 24.5l93 -131q-37 -29 -72.5 -45t-70 -23t-70.5 -7z" />
    <glyph glyph-name="f" unicode="f" horiz-adv-x="393" 
d="M86 0v537q0 57 24.5 104t69 75.5t104.5 28.5q41 0 76 -11t66 -30l-53 -145q-13 3 -23 4.5t-17 1.5q-16 0 -25.5 -6t-14 -17.5t-4.5 -28.5v-513h-101h-63.5h-38.5zM13 356v160h374v-160h-374z" />
    <glyph glyph-name="g" unicode="g" horiz-adv-x="684" 
d="M319 -230q-72 0 -142.5 20t-115.5 52l69 136q22 -14 46 -24t50.5 -15t56.5 -5q47 0 76 12.5t42.5 39.5t13.5 69v80l45 -4q-8 -34 -35 -60t-67 -41t-85 -15q-71 0 -125.5 32t-86 89.5t-31.5 135.5q0 81 31 142.5t84.5 96.5t122.5 35q30 0 57 -6t50 -16.5t41 -25.5
t29.5 -33t15.5 -39l-41 -9l11 118h188v-483q0 -67 -20.5 -119.5t-59.5 -89t-94.5 -55t-125.5 -18.5zM324 160q31 0 52.5 13t32.5 37.5t11 59.5t-11 60t-32.5 38t-52.5 13t-52 -13t-32 -38t-11 -60t11 -59.5t32 -37.5t52 -13z" />
    <glyph glyph-name="h" unicode="h" horiz-adv-x="665" 
d="M70 0v740h198v-313l-43 -12q11 38 39.5 67.5t68.5 46.5t85 17q60 0 102 -25t63.5 -73.5t21.5 -117.5v-330h-203v313q0 22 -7 37t-21 23t-33 8q-15 0 -27.5 -4.5t-21.5 -13.5t-14 -20t-5 -25v-318h-101h-63.5h-38.5z" />
    <glyph glyph-name="i" unicode="i" horiz-adv-x="350" 
d="M73 0v535h203v-535h-203zM175 632q-54 0 -84.5 25t-30.5 71q0 42 31 69t84 27q54 0 84.5 -25t30.5 -71q0 -42 -31 -69t-84 -27z" />
    <glyph glyph-name="j" unicode="j" horiz-adv-x="353" 
d="M33 -219l-77 157q51 0 77.5 10.5t36 39t9.5 83.5v464h203v-512q0 -89 -27.5 -142t-82.5 -76.5t-139 -23.5zM183 632q-54 0 -84.5 25t-30.5 71q0 42 31 69t84 27q54 0 84.5 -25t30.5 -71q0 -42 -31 -69t-84 -27z" />
    <glyph glyph-name="k" unicode="k" horiz-adv-x="669" 
d="M269 150l-100 126l247 259h264zM70 0v740h203v-740h-203zM434 0l-178 251l142 102l268 -353h-232z" />
    <glyph glyph-name="l" unicode="l" horiz-adv-x="343" 
d="M70 0v740h203v-740h-203z" />
    <glyph glyph-name="m" unicode="m" horiz-adv-x="993" 
d="M70 0v535h188l8 -84l-23 8q15 26 34.5 42.5t41.5 26.5t45 14t44 4q35 0 66 -9.5t56 -33.5t42 -69l-31 1l8 14q15 26 36 44t46 30t51 17.5t50 5.5q66 0 111 -25t67.5 -73.5t22.5 -117.5v-330h-203v313q0 22 -7 37t-20.5 23t-32.5 8q-15 0 -27.5 -4.5t-21 -13.5t-13.5 -20
t-5 -25v-318h-203v313q0 22 -7 37t-20.5 23t-32.5 8q-15 0 -27.5 -4.5t-21 -13.5t-13.5 -20t-5 -25v-318h-203z" />
    <glyph glyph-name="n" unicode="n" horiz-adv-x="665" 
d="M70 0v535h188l10 -108l-43 -12q11 38 39.5 67.5t68.5 46.5t85 17q60 0 102 -25t63.5 -73.5t21.5 -117.5v-330h-203v313q0 22 -7 37t-21 23t-33 8q-15 0 -27.5 -4.5t-21.5 -13.5t-14 -20t-5 -25v-318h-101h-63.5h-38.5z" />
    <glyph glyph-name="o" unicode="o" horiz-adv-x="660" 
d="M331 -10q-87 0 -155 36t-107 98.5t-39 143.5t39 143.5t107 98.5t155 36t154.5 -36t106 -98.5t38.5 -143.5t-38.5 -143.5t-106 -98.5t-154.5 -36zM331 160q27 0 48.5 14t33.5 38.5t12 55.5q0 32 -12 56.5t-33.5 38.5t-48.5 14q-28 0 -49.5 -14t-34 -38.5t-12.5 -56.5
q0 -31 12.5 -55.5t34 -38.5t49.5 -14z" />
    <glyph glyph-name="p" unicode="p" horiz-adv-x="679" 
d="M70 -220v755h188l11 -118l-41 9q7 35 34 62t68.5 42.5t90.5 15.5q66 0 117.5 -35.5t81 -98t29.5 -144.5q0 -81 -30 -143.5t-82.5 -98t-120.5 -35.5q-45 0 -84.5 16t-66.5 44.5t-36 65.5l45 14v-351h-204zM360 156q29 0 49 13t30.5 38t10.5 61t-10.5 61.5t-30.5 38.5
t-49 13t-49.5 -13t-31 -38.5t-10.5 -61.5t10.5 -61t31 -38t49.5 -13z" />
    <glyph glyph-name="q" unicode="q" horiz-adv-x="679" 
d="M405 -220v351l45 -14q-6 -27 -23.5 -50.5t-42.5 -40t-56 -26t-65 -9.5q-68 0 -120.5 35.5t-82.5 98t-30 143.5q0 82 29.5 144.5t81 98t117.5 35.5q37 0 70 -9t58.5 -25t42.5 -38t22 -48l-41 -9l11 118h188v-755h-204zM319 156q29 0 49.5 13t31 38t10.5 61t-10.5 61.5
t-31 38.5t-49.5 13t-49 -13t-30.5 -38.5t-10.5 -61.5t10.5 -61t30.5 -38t49 -13z" />
    <glyph glyph-name="r" unicode="r" horiz-adv-x="493" 
d="M70 0v535h188l12 -178l-45 28q13 46 41 82.5t67.5 57.5t84.5 21q18 0 34 -2.5t31 -6.5l-56 -225q-10 7 -31.5 13t-46.5 6q-18 0 -32.5 -5.5t-24 -16.5t-14.5 -26t-5 -35v-248h-203z" />
    <glyph glyph-name="s" unicode="s" horiz-adv-x="507" 
d="M253 -10q-87 0 -151.5 26.5t-100.5 66.5l118 101q32 -28 73.5 -41.5t69.5 -13.5q10 0 17.5 1.5t12 5t7 7.5t2.5 10q0 15 -16 22q-9 4 -29.5 10t-53.5 14q-39 10 -71.5 25t-55.5 35q-24 22 -37.5 50t-13.5 63q0 41 19 73t52 54.5t74 34.5t84 12q49 0 91.5 -9.5t80 -27
t68.5 -41.5l-103 -115q-17 14 -39.5 27t-47 21.5t-45.5 8.5q-11 0 -18.5 -1.5t-12.5 -5t-7.5 -8t-2.5 -10.5q0 -8 5 -15t16 -12q9 -4 30.5 -11t63.5 -19q45 -13 79.5 -30t55.5 -40q14 -16 22 -36t8 -43q0 -55 -31.5 -97.5t-86.5 -67t-126 -24.5z" />
    <glyph glyph-name="t" unicode="t" horiz-adv-x="409" 
d="M98 0v670h203v-670h-203zM15 365v170h374v-170h-374z" />
    <glyph glyph-name="u" unicode="u" horiz-adv-x="669" 
d="M249 -11q-61 0 -103 25t-64 73.5t-22 117.5v330h203v-313q0 -22 7.5 -37t21.5 -23t34 -8q15 0 27.5 4.5t21.5 13.5t14 20.5t5 24.5v318h203v-535h-186l-12 108l38 12q-11 -38 -38.5 -67.5t-66.5 -46.5t-83 -17z" />
    <glyph glyph-name="v" unicode="v" horiz-adv-x="629" 
d="M227 0l-222 535h226l111 -399h-54l110 399h226l-233 -535h-164z" />
    <glyph glyph-name="w" unicode="w" horiz-adv-x="859" 
d="M177 0l-172 535h216l77 -309l-20 4l88 240h118l98 -240l-20 -3l76 308h216l-183 -535h-154l-92 248h4l-98 -248h-154z" />
    <glyph glyph-name="x" unicode="x" horiz-adv-x="639" 
d="M381 0l-71 134l-80 113l-201 288h238l66 -122l86 -119l200 -294h-238zM20 0l219 319l105 -125l-86 -194h-238zM394 214l-105 125l87 196h238z" />
    <glyph glyph-name="y" unicode="y" horiz-adv-x="649" 
d="M121 -230l133 314l2 -82l-251 533h226l74 -178q12 -28 20.5 -53t12.5 -47l-20 -18q4 11 12 34.5t18 54.5l70 207h226l-233 -535l-94 -230h-196z" />
    <glyph glyph-name="z" unicode="z" horiz-adv-x="599" 
d="M50 0v96l291 362v-83h-291v160h483v-104l-267 -347l-4 76h281v-160h-493z" />
    <glyph glyph-name="braceleft" unicode="{" horiz-adv-x="438" 
d="M360 -210q-53 11 -93 28t-66.5 41.5t-40 58t-13.5 75.5l1 95q0 44 -19 61.5t-56 18.5h-38v164h40q37 1 55 18t18 62l-1 95q0 82 53 131t160 72l48 -149q-30 -10 -46.5 -18.5t-23.5 -24t-7 -45.5l2 -75q0 -58 -42 -98t-137 -61v23q95 -23 137 -63t42 -97l-2 -75
q0 -26 7 -39.5t23.5 -21t46.5 -17.5z" />
    <glyph glyph-name="bar" unicode="|" horiz-adv-x="383" 
d="M95 -193v933h193v-933h-193z" />
    <glyph glyph-name="braceright" unicode="}" horiz-adv-x="438" 
d="M78 -210l-48 149q30 10 46.5 18.5t23.5 24t7 45.5l-2 75q0 58 42 98t137 61v-23q-95 23 -137 63t-42 97l2 75q0 27 -7 40t-23.5 20.5t-46.5 17.5l48 159q53 -10 93 -27.5t66.5 -42t40 -58t13.5 -75.5l-1 -95q0 -44 19 -61.5t56 -18.5h38v-164h-40q-37 -1 -55 -18t-18 -62
l1 -95q0 -82 -53 -131t-160 -72z" />
    <glyph glyph-name="asciitilde" unicode="~" horiz-adv-x="594" 
d="M403 185q-18 0 -35.5 3.5t-35 10t-36.5 14.5q-15 7 -30.5 13t-29 10t-24.5 4q-20 0 -30.5 -17t-10.5 -50h-145q0 116 41.5 178t132.5 62q13 0 27 -3t27.5 -7.5t27 -10t24.5 -10.5q12 -5 24.5 -11t25.5 -10t25 -4q17 0 28.5 19.5t9.5 47.5h145q0 -79 -18 -132t-54 -80
t-89 -27z" />
    <glyph glyph-name="uni00A0" unicode="&#xa0;" horiz-adv-x="350" 
 />
    <glyph glyph-name="exclamdown" unicode="&#xa1;" horiz-adv-x="364" 
d="M247 264q9 -59 19 -121.5t16.5 -125.5t6.5 -122v-85h-214v85q0 59 6.5 122t16.5 125.5t19 121.5h130zM181 541q47 0 73 -26t26 -74q0 -44 -27.5 -72t-71.5 -28q-47 0 -73 26t-26 74q0 44 27.5 72t71.5 28z" />
    <glyph glyph-name="cent" unicode="&#xa2;" horiz-adv-x="583" 
d="M341 78q-84 0 -149.5 36t-103.5 98.5t-38 143.5t38 143.5t103.5 98.5t149.5 36q72 0 133 -22t99 -64l-110 -130q-11 12 -26 22t-34 15.5t-44 5.5q-33 0 -57.5 -13t-38 -36.5t-13.5 -54.5q0 -30 13 -53.5t37 -37.5t59 -14q25 0 44 5t34 14.5t26 22.5l109 -131
q-37 -41 -98 -63t-133 -22zM284 0v108l40 38v404l-40 56v104h137v-105l-33 -55v-405l33 -38v-107h-137z" />
    <glyph glyph-name="sterling" unicode="&#xa3;" horiz-adv-x="659" 
d="M177 53l-75 21q21 12 37.5 32.5t26 43.5t9.5 42q0 14 -4.5 35.5t-11.5 45t-14 44.5t-12 35q-12 37 -18 61t-8.5 41t-2.5 33q0 71 33 123t92.5 81t140.5 29q74 0 128.5 -25t80.5 -70l-155 -123q-7 13 -16.5 20.5t-21.5 11t-26 3.5q-22 0 -39 -9t-27 -25t-10 -37
q0 -31 7 -57.5t16 -55.5q12 -38 19 -69.5t7 -51.5q0 -31 -14.5 -59t-48.5 -57t-93 -63zM466 -21q-43 0 -80 9t-59 16q-13 4 -29.5 9t-36 9t-41.5 4q-34 0 -66.5 -11.5t-69.5 -30.5l-70 146q48 29 101.5 46.5t108.5 17.5q32 0 56.5 -5t67.5 -20q21 -7 47 -14.5t59 -7.5
q18 0 45 8.5t57 26.5l88 -135q-38 -34 -89 -51t-89 -17zM44 289v100h438v-100h-438z" />
    <glyph glyph-name="currency" unicode="&#xa4;" horiz-adv-x="568" 
d="M284 100q-67 0 -119.5 26.5t-82 73.5t-29.5 108t29.5 108t82 73.5t119.5 26.5t118.5 -26.5t81 -73.5t29.5 -108t-29.5 -108t-81 -73.5t-118.5 -26.5zM132 44l-120 121l83 83l117 -124zM86 379l-74 74l120 120l78 -78zM284 240q19 0 33.5 8.5t22.5 24t8 35.5q0 21 -8 36.5
t-22.5 24t-33.5 8.5t-34 -8.5t-23.5 -24t-8.5 -36.5q0 -20 8.5 -35.5t23.5 -24t34 -8.5zM440 44l-80 80l117 123l83 -82zM469 362l-120 119l91 92l120 -120z" />
    <glyph glyph-name="yen" unicode="&#xa5;" horiz-adv-x="710" 
d="M256 0v349l7 -49l-283 400h240l216 -310l-135 3l195 307h234l-271 -411l15 68v-357h-218zM139 148v60h452v-60h-452zM139 258v60h452v-60h-452z" />
    <glyph glyph-name="brokenbar" unicode="&#xa6;" horiz-adv-x="387" 
d="M95 -202v390h197v-390h-197zM95 351v389h197v-389h-197z" />
    <glyph glyph-name="section" unicode="&#xa7;" horiz-adv-x="594" 
d="M367 135l-61 94q22 2 36 8.5t21 16.5t7 22q0 15 -12.5 25t-38.5 22l-52 23q-48 21 -84.5 42.5t-61.5 45.5t-38 54t-13 67q0 32 13.5 61.5t43 53t77 37t114.5 13.5q56 0 103.5 -12t84 -33t60.5 -48l-102 -108q-32 26 -58.5 39t-48 18t-38.5 5q-29 0 -42 -9t-13 -23
q0 -15 11.5 -25t29.5 -17.5t37 -16.5l79 -35q70 -31 105 -71.5t35 -95.5q0 -40 -23 -72.5t-66 -53.5t-105 -27zM268 -148q-56 0 -103.5 12t-84 33.5t-60.5 47.5l102 108q48 -38 84 -50t61 -12q29 0 42 9t13 26q0 14 -14 24.5t-35.5 20t-45.5 19.5l-62 27q-70 31 -105 71.5
t-35 95.5q0 40 23 72.5t66.5 54t104.5 26.5l61 -94q-22 -2 -36 -8.5t-21 -16t-7 -22.5q0 -15 12.5 -25t38.5 -22l52 -23q64 -28 107.5 -54t66.5 -59.5t23 -84.5q0 -48 -24.5 -88t-79 -64t-144.5 -24z" />
    <glyph glyph-name="dieresis" unicode="&#xa8;" horiz-adv-x="500" 
d="M386 614q-48 0 -74 26t-26 74q0 44 27 72t73 28q48 0 74 -25.5t26 -74.5q0 -44 -27 -72t-73 -28zM115 614q-48 0 -74 26t-26 74q0 44 27 72t73 28q48 0 74 -25.5t26 -74.5q0 -44 -27 -72t-73 -28z" />
    <glyph glyph-name="copyright" unicode="&#xa9;" horiz-adv-x="794" 
d="M396 -27q-79 0 -147.5 29t-120 80.5t-80.5 120t-29 147.5t29 147.5t80.5 120t120 80.5t147.5 29q78 0 146.5 -29t120.5 -80.5t81 -120t29 -147.5t-29 -147.5t-81 -120t-120.5 -80.5t-146.5 -29zM410 144q-59 0 -106.5 27t-76 73t-28.5 105q0 57 28.5 104.5t76 75.5
t106.5 28q37 0 71.5 -13t68.5 -38l-58 -127q-11 8 -22 13t-20.5 7t-18.5 2q-17 0 -29.5 -7t-20 -18.5t-7.5 -26.5t7.5 -27t20 -19t29.5 -7q13 0 29.5 4.5t33.5 17.5l60 -129q-33 -23 -69.5 -34t-74.5 -11zM396 47q63 0 118 23.5t96.5 65t65 96.5t23.5 118t-23.5 118.5
t-65 96.5t-96.5 64.5t-118 23.5t-118 -23.5t-96.5 -64.5t-65 -96.5t-23.5 -118.5t23.5 -118t64.5 -96.5t96.5 -65t118.5 -23.5z" />
    <glyph glyph-name="ordfeminine" unicode="&#xaa;" horiz-adv-x="410" 
d="M137 390q-36 0 -62.5 21.5t-40.5 60.5t-14 90q0 46 16.5 82t45.5 57t67 21q60 0 86.5 -31t26.5 -89l-25 46v67h133v-314h-133v73l25 28q0 -29 -13.5 -54.5t-41 -41.5t-70.5 -16zM196 498q13 0 23.5 7.5t16 21t5.5 31.5q0 26 -12 41t-34 15q-13 0 -23 -7.5t-15.5 -20
t-5.5 -27.5q0 -19 5 -32.5t15 -21t25 -7.5z" />
    <glyph glyph-name="guillemotleft" unicode="&#xab;" horiz-adv-x="619" 
d="M471 9l-188 239v21l188 239l113 -77l-125 -198v51l125 -198zM198 9l-188 239v21l188 239l113 -77l-125 -198v51l125 -198z" />
    <glyph glyph-name="logicalnot" unicode="&#xac;" horiz-adv-x="670" 
d="M450 97v222l99 -65h-514v170h600v-327h-185z" />
    <glyph glyph-name="uni00AD" unicode="&#xad;" horiz-adv-x="498" 
d="M60 198v180h388v-180h-388z" />
    <glyph glyph-name="registered" unicode="&#xae;" horiz-adv-x="507" 
d="M260 219q-75 0 -136.5 35.5t-97.5 95.5t-36 134q0 56 21 104t58 84t86 56.5t105 20.5q53 0 100 -20.5t82.5 -57t56 -84.5t20.5 -103t-20 -103.5t-56 -84.5t-82.5 -56.5t-100.5 -20.5zM260 283q53 0 97.5 27t71 72.5t26.5 101.5t-26.5 101.5t-71 72.5t-97.5 27
q-57 0 -103.5 -27t-74.5 -72.5t-28 -101.5q0 -57 28 -102.5t74.5 -72t103.5 -26.5zM294 367l-37 80l79 19l63 -99h-105zM149 367v239h130q42 0 68 -22t26 -57q0 -36 -27.5 -58.5t-66.5 -22.5h-44l11 14v-93h-97zM246 495l-11 7h24q8 0 13.5 4.5t5.5 12.5t-4.5 12.5
t-12.5 4.5h-26l11 8v-49z" />
    <glyph glyph-name="macron" unicode="&#xaf;" horiz-adv-x="424" 
d="M63 628v120h374v-120h-374z" />
    <glyph glyph-name="degree" unicode="&#xb0;" horiz-adv-x="532" 
d="M266 389q-49 0 -89 22t-63.5 59.5t-23.5 82.5q0 47 23 84.5t62.5 59.5t90.5 22t90.5 -22t62.5 -59.5t23 -83.5t-23.5 -83.5t-63.5 -59.5t-89 -22zM266 506q12 0 22.5 6.5t16.5 17.5t6 24t-6 24t-16 17t-23 6t-23.5 -6.5t-16 -17.5t-5.5 -24t6 -24t16.5 -17t22.5 -6z" />
    <glyph glyph-name="plusminus" unicode="&#xb1;" horiz-adv-x="684" 
d="M80 333v160h521v-160h-521zM83 -10v160h521v-160h-521zM248 214v393h185v-393h-185z" />
    <glyph glyph-name="uni00B2" unicode="&#xb2;" horiz-adv-x="378" 
d="M57 418l-17 93l105 71q20 14 36 28t25.5 28.5t9.5 26.5q0 11 -5.5 18t-16.5 7q-21 0 -37.5 -17.5t-25.5 -34.5l-96 68q25 34 50.5 56.5t54.5 33.5t65 11q43 0 74.5 -16t48.5 -42.5t17 -57.5q0 -49 -22 -82.5t-57 -56.5t-72 -42l-44 -22v37h208v-107h-301z" />
    <glyph glyph-name="uni00B3" unicode="&#xb3;" horiz-adv-x="366" 
d="M186 412q-35 0 -61 3t-50.5 10.5t-54.5 20.5l54 95q16 -8 35 -13t39 -5q19 0 31 8t12 20q0 11 -11 18t-32 7q-14 0 -27.5 -2.5t-28.5 -5.5l-25 64l173 107v-45h-188v107h242l12 -98l-135 -89v6q14 9 29 13.5t25 4.5q40 0 70.5 -28.5t30.5 -74.5q0 -37 -20 -64.5t-52 -43
t-68 -15.5z" />
    <glyph glyph-name="acute" unicode="&#xb4;" horiz-adv-x="500" 
d="M165 566l-58 89l206 154l80 -121z" />
    <glyph glyph-name="uni00B5" unicode="&#xb5;" horiz-adv-x="679" 
d="M70 -165v700h203v-313q0 -22 7.5 -37t21.5 -23t34 -8q15 0 27.5 4.5t21.5 13.5t14 20.5t5 24.5v318h203v-535h-186l-11 89l22 -6q-26 -35 -49.5 -54t-52 -28t-69.5 -13q-6 0 -9 -0.5t-5 -0.5h-4l20 82l10 -234h-203z" />
    <glyph glyph-name="paragraph" unicode="&#xb6;" horiz-adv-x="801" 
d="M248 0v314l64 -45h-84q-54 0 -96.5 27.5t-67 75.5t-24.5 109q0 66 28 115.5t78.5 76.5t118.5 27h456v-700h-208v660l76 -64h-237l104 56v-652h-208z" />
    <glyph glyph-name="periodcentered" unicode="&#xb7;" horiz-adv-x="278" 
d="M139 253q-47 0 -73 26t-26 74q0 44 27.5 72t71.5 28q47 0 73 -26t26 -74q0 -44 -27.5 -72t-71.5 -28z" />
    <glyph glyph-name="cedilla" unicode="&#xb8;" horiz-adv-x="500" 
d="M146 -247l-11 91q18 0 38 3t34 10t14 18q0 10 -7.5 16.5t-20 9.5t-29.5 3l-21 16l67 104h99l-48 -64q54 -4 79.5 -32.5t25.5 -66.5q0 -34 -20.5 -55.5t-54 -33.5t-71.5 -16t-74 -3z" />
    <glyph glyph-name="uni00B9" unicode="&#xb9;" horiz-adv-x="298" 
d="M108 431v305l26 -58l-70 -42l-54 96l132 78h109v-379h-71h-34.5h-37.5z" />
    <glyph glyph-name="ordmasculine" unicode="&#xba;" horiz-adv-x="434" 
d="M216 393q-51 0 -90.5 21t-62.5 58t-23 84t23 84t62.5 59t90.5 22q50 0 90.5 -22t64 -59.5t23.5 -83.5q0 -47 -23 -83.5t-63.5 -58t-91.5 -21.5zM215 488q14 0 24 9t15.5 25t5.5 37t-5 35.5t-15 22t-25 7.5q-13 0 -23 -8.5t-16 -23.5t-6 -33q0 -22 5.5 -38t15.5 -24.5
t24 -8.5z" />
    <glyph glyph-name="guillemotright" unicode="&#xbb;" horiz-adv-x="620" 
d="M422 13l-113 77l125 198v-51l-125 198l113 77l188 -239v-21zM148 13l-113 77l125 198v-51l-125 198l113 77l188 -239v-21z" />
    <glyph glyph-name="onequarter" unicode="&#xbc;" horiz-adv-x="841" 
d="M118 361v305l26 -58l-70 -42l-54 96l132 78h109v-379h-71h-34.5h-37.5zM72 0l467 700h179l-468 -700h-178zM739 167h72v-107h-72v107zM541 133l-16 34h150l-45 -45v160l29 -11zM755 0h-155v105l45 -45h-194l-22 89l190 230h136v-379z" />
    <glyph glyph-name="onehalf" unicode="&#xbd;" horiz-adv-x="858" 
d="M118 361v305l26 -58l-70 -42l-54 96l132 78h109v-379h-71h-34.5h-37.5zM72 0l467 700h179l-468 -700h-178zM517 0l-17 93l105 71q20 14 36 28t25.5 28.5t9.5 26.5q0 11 -5.5 18t-16.5 7q-21 0 -37.5 -17.5t-25.5 -34.5l-96 68q25 34 50.5 56.5t54.5 33.5t65 11
q43 0 74.5 -16t48.5 -42.5t17 -57.5q0 -49 -22 -82.5t-57 -56.5t-72 -42l-44 -22v37h208v-107h-301z" />
    <glyph glyph-name="threequarters" unicode="&#xbe;" horiz-adv-x="893" 
d="M191 342q-35 0 -61 3t-50.5 10.5t-54.5 20.5l54 95q16 -8 35 -13t39 -5q19 0 31 8t12 20q0 11 -11 18t-32 7q-14 0 -27.5 -2.5t-28.5 -5.5l-25 64l173 107v-45h-188v107h242l12 -98l-135 -89v6q14 9 29 13.5t25 4.5q40 0 70.5 -28.5t30.5 -74.5q0 -37 -20 -64.5t-52 -43
t-68 -15.5zM124 0l467 700h179l-468 -700h-178zM791 167h72v-107h-72v107zM593 133l-16 34h150l-45 -45v160l29 -11zM807 0h-155v105l45 -45h-194l-22 89l190 230h136v-379z" />
    <glyph glyph-name="questiondown" unicode="&#xbf;" horiz-adv-x="554" 
d="M342 273l37 -124q-22 -5 -44.5 -12t-43.5 -16t-37.5 -21t-26 -27.5t-9.5 -35.5q0 -12 5.5 -20.5t15.5 -13t24 -4.5q29 0 58 20t58 75l135 -130q-47 -72 -111.5 -111t-135.5 -39q-68 0 -123 27.5t-87 75t-32 106.5q0 41 16.5 80t46 73t69.5 59t88 38h4h93zM379 445
q0 -44 -27.5 -72t-71.5 -28q-47 0 -73 26t-26 74q0 44 27.5 72t71.5 28q47 0 73 -26t26 -74z" />
    <glyph glyph-name="Agrave" unicode="&#xc0;" horiz-adv-x="690" 
d="M-20 0l281 700h170l279 -700h-214l-112 306q-11 31 -19 53t-14 41.5t-12 42t-12 53.5h34q-6 -31 -12 -53.5t-12.5 -42t-15 -41.5t-19.5 -53l-112 -306h-210zM120 104l63 147h325l57 -147h-445zM459 742l-245 81l60 137l228 -116z" />
    <glyph glyph-name="Aacute" unicode="&#xc1;" horiz-adv-x="690" 
d="M-20 0l281 700h170l279 -700h-214l-112 306q-11 31 -19 53t-14 41.5t-12 42t-12 53.5h34q-6 -31 -12 -53.5t-12.5 -42t-15 -41.5t-19.5 -53l-112 -306h-210zM120 104l63 147h325l57 -147h-445zM241 742l-43 102l228 116l60 -137z" />
    <glyph glyph-name="Acircumflex" unicode="&#xc2;" horiz-adv-x="690" 
d="M-20 0l281 700h170l279 -700h-214l-112 306q-11 31 -19 53t-14 41.5t-12 42t-12 53.5h34q-6 -31 -12 -53.5t-12.5 -42t-15 -41.5t-19.5 -53l-112 -306h-210zM120 104l63 147h325l57 -147h-445zM207 753l-58 73l145 111h102l145 -111l-58 -73l-153 76h30z" />
    <glyph glyph-name="Atilde" unicode="&#xc3;" horiz-adv-x="690" 
d="M-20 0l281 700h170l279 -700h-214l-112 306q-11 31 -19 53t-14 41.5t-12 42t-12 53.5h34q-6 -31 -12 -53.5t-12.5 -42t-15 -41.5t-19.5 -53l-112 -306h-210zM120 104l63 147h325l57 -147h-445zM424 768q-17 0 -35 5t-44 17q-19 9 -31.5 13.5t-22.5 4.5q-15 0 -23 -10.5
t-8 -28.5h-117q0 75 37 119t101 44q15 0 31 -3.5t48 -19.5q18 -9 27 -13t18 -4q13 0 19.5 11t5.5 29h116q0 -46 -15.5 -83.5t-43 -59t-63.5 -21.5z" />
    <glyph glyph-name="Adieresis" unicode="&#xc4;" horiz-adv-x="690" 
d="M-20 0l281 700h170l279 -700h-214l-112 306q-11 31 -19 53t-14 41.5t-12 42t-12 53.5h34q-6 -31 -12 -53.5t-12.5 -42t-15 -41.5t-19.5 -53l-112 -306h-210zM120 104l63 147h325l57 -147h-445zM480 750q-48 0 -74 26t-26 74q0 44 27 72t73 28q48 0 74 -25.5t26 -74.5
q0 -44 -27 -72t-73 -28zM209 750q-48 0 -74 26t-26 74q0 44 27 72t73 28q48 0 74 -25.5t26 -74.5q0 -44 -27 -72t-73 -28z" />
    <glyph glyph-name="Aring" unicode="&#xc5;" horiz-adv-x="690" 
d="M-20 0l281 700h170l279 -700h-214l-112 306q-11 31 -19 53t-14 41.5t-12 42t-12 53.5h34q-6 -31 -12 -53.5t-12.5 -42t-15 -41.5t-19.5 -53l-112 -306h-210zM120 104l63 147h325l57 -147h-445zM345 669q-40 0 -74 19t-55 49.5t-21 66.5q0 40 20.5 73t54.5 53t75 20
q40 0 74 -20t54.5 -53t20.5 -73q0 -36 -20.5 -66.5t-54.5 -49.5t-74 -19zM345 768q14 0 24.5 10.5t10.5 25.5q0 16 -10.5 26.5t-24.5 10.5t-24.5 -10.5t-10.5 -26.5q0 -15 10.5 -25.5t24.5 -10.5z" />
    <glyph glyph-name="AE" unicode="&#xc6;" horiz-adv-x="1154" 
d="M-20 0l488 700h639v-175h-328v-89h283v-164h-283v-97h328v-175h-535v135h-275l112 164h163v259l25 -8l-376 -550h-241z" />
    <glyph glyph-name="Ccedilla" unicode="&#xc7;" horiz-adv-x="705" 
d="M424 -10q-84 0 -154.5 27t-122 75.5t-79.5 115.5t-28 147t28.5 147t80.5 115.5t123.5 75.5t157.5 27q49 0 96.5 -11.5t90 -35t77.5 -59.5l-129 -151q-14 17 -33.5 31t-45 22.5t-58.5 8.5q-34 0 -64.5 -11.5t-53 -33.5t-35.5 -54t-13 -74q0 -38 13 -69t37 -53t58 -34
t76 -12q30 0 57 9t49 23.5t38 32.5l103 -162q-26 -28 -69 -50t-95 -34.5t-105 -12.5zM308 -247l-11 91q18 0 38 3t34 10t14 18q0 10 -7.5 16.5t-20 9.5t-29.5 3l-21 16l67 104h99l-48 -64q54 -4 79.5 -32.5t25.5 -66.5q0 -34 -20.5 -55.5t-54 -33.5t-71.5 -16t-74 -3z" />
    <glyph glyph-name="Egrave" unicode="&#xc8;" horiz-adv-x="668" 
d="M80 0v700h523v-175h-316v-350h334v-175h-541zM183 272v164h383v-164h-383zM468 742l-245 81l60 137l228 -116z" />
    <glyph glyph-name="Eacute" unicode="&#xc9;" horiz-adv-x="668" 
d="M80 0v700h523v-175h-316v-350h334v-175h-541zM183 272v164h383v-164h-383zM250 742l-43 102l228 116l60 -137z" />
    <glyph glyph-name="Ecircumflex" unicode="&#xca;" horiz-adv-x="668" 
d="M80 0v700h523v-175h-316v-350h334v-175h-541zM183 272v164h383v-164h-383zM216 753l-58 73l145 111h102l145 -111l-58 -73l-153 76h30z" />
    <glyph glyph-name="Edieresis" unicode="&#xcb;" horiz-adv-x="668" 
d="M80 0v700h523v-175h-316v-350h334v-175h-541zM183 272v164h383v-164h-383zM489 750q-48 0 -74 26t-26 74q0 44 27 72t73 28q48 0 74 -25.5t26 -74.5q0 -44 -27 -72t-73 -28zM218 750q-48 0 -74 26t-26 74q0 44 27 72t73 28q48 0 74 -25.5t26 -74.5q0 -44 -27 -72t-73 -28
z" />
    <glyph glyph-name="Igrave" unicode="&#xcc;" horiz-adv-x="612" 
d="M75 0v175h123v350h-123v175h462v-175h-123v-350h123v-175h-462zM420 742l-245 81l60 137l228 -116z" />
    <glyph glyph-name="Iacute" unicode="&#xcd;" horiz-adv-x="612" 
d="M75 0v175h123v350h-123v175h462v-175h-123v-350h123v-175h-462zM202 742l-43 102l228 116l60 -137z" />
    <glyph glyph-name="Icircumflex" unicode="&#xce;" horiz-adv-x="612" 
d="M75 0v175h123v350h-123v175h462v-175h-123v-350h123v-175h-462zM168 753l-58 73l145 111h102l145 -111l-58 -73l-153 76h30z" />
    <glyph glyph-name="Idieresis" unicode="&#xcf;" horiz-adv-x="612" 
d="M75 0v175h123v350h-123v175h462v-175h-123v-350h123v-175h-462zM441 750q-48 0 -74 26t-26 74q0 44 27 72t73 28q48 0 74 -25.5t26 -74.5q0 -44 -27 -72t-73 -28zM170 750q-48 0 -74 26t-26 74q0 44 27 72t73 28q48 0 74 -25.5t26 -74.5q0 -44 -27 -72t-73 -28z" />
    <glyph glyph-name="Eth" unicode="&#xd0;" horiz-adv-x="790" 
d="M25 280v140h368v-140h-368zM80 0v700h308q79 0 145 -26t115 -72.5t75.5 -110.5t26.5 -141q0 -76 -26.5 -140.5t-75.5 -111t-115 -72.5t-145 -26h-308zM296 133l-37 51h124q33 0 60 12.5t47 34.5t31 52.5t11 66.5t-11 66.5t-31 52.5t-47 34.5t-60 12.5h-127l40 49v-432z
" />
    <glyph glyph-name="Ntilde" unicode="&#xd1;" horiz-adv-x="817" 
d="M80 0v700h193l322 -445l-46 14q-5 40 -8.5 70t-6 55.5t-4 50.5t-1.5 55v70v130h208v-700h-195l-355 490l81 -24q5 -37 8.5 -64.5t5.5 -50.5t3.5 -45.5t2 -50t0.5 -64.5v-191h-208zM488 768q-17 0 -35 5t-44 17q-19 9 -31.5 13.5t-22.5 4.5q-15 0 -23 -10.5t-8 -28.5h-117
q0 75 37 119t101 44q15 0 31 -3.5t48 -19.5q18 -9 27 -13t18 -4q13 0 19.5 11t5.5 29h116q0 -46 -15.5 -83.5t-43 -59t-63.5 -21.5z" />
    <glyph glyph-name="Ograve" unicode="&#xd2;" horiz-adv-x="834" 
d="M418 -10q-83 0 -152 27t-120 76t-78.5 116t-27.5 146q0 80 27.5 146.5t78.5 115.5t120 76t151 27q83 0 151.5 -27t119.5 -76t78.5 -115.5t27.5 -145.5q0 -80 -27.5 -147t-78.5 -116t-119.5 -76t-150.5 -27zM417 190q34 0 62.5 12t50 34.5t33 52.5t11.5 66t-11.5 66
t-33 52.5t-50 34.5t-62.5 12t-62.5 -12t-50 -34.5t-33 -52.5t-11.5 -66t11.5 -66t33 -52.5t50 -34.5t62.5 -12zM531 742l-245 81l60 137l228 -116z" />
    <glyph glyph-name="Oacute" unicode="&#xd3;" horiz-adv-x="834" 
d="M418 -10q-83 0 -152 27t-120 76t-78.5 116t-27.5 146q0 80 27.5 146.5t78.5 115.5t120 76t151 27q83 0 151.5 -27t119.5 -76t78.5 -115.5t27.5 -145.5q0 -80 -27.5 -147t-78.5 -116t-119.5 -76t-150.5 -27zM417 190q34 0 62.5 12t50 34.5t33 52.5t11.5 66t-11.5 66
t-33 52.5t-50 34.5t-62.5 12t-62.5 -12t-50 -34.5t-33 -52.5t-11.5 -66t11.5 -66t33 -52.5t50 -34.5t62.5 -12zM313 742l-43 102l228 116l60 -137z" />
    <glyph glyph-name="Ocircumflex" unicode="&#xd4;" horiz-adv-x="834" 
d="M418 -10q-83 0 -152 27t-120 76t-78.5 116t-27.5 146q0 80 27.5 146.5t78.5 115.5t120 76t151 27q83 0 151.5 -27t119.5 -76t78.5 -115.5t27.5 -145.5q0 -80 -27.5 -147t-78.5 -116t-119.5 -76t-150.5 -27zM417 190q34 0 62.5 12t50 34.5t33 52.5t11.5 66t-11.5 66
t-33 52.5t-50 34.5t-62.5 12t-62.5 -12t-50 -34.5t-33 -52.5t-11.5 -66t11.5 -66t33 -52.5t50 -34.5t62.5 -12zM279 753l-58 73l145 111h102l145 -111l-58 -73l-153 76h30z" />
    <glyph glyph-name="Otilde" unicode="&#xd5;" horiz-adv-x="834" 
d="M418 -10q-83 0 -152 27t-120 76t-78.5 116t-27.5 146q0 80 27.5 146.5t78.5 115.5t120 76t151 27q83 0 151.5 -27t119.5 -76t78.5 -115.5t27.5 -145.5q0 -80 -27.5 -147t-78.5 -116t-119.5 -76t-150.5 -27zM417 190q34 0 62.5 12t50 34.5t33 52.5t11.5 66t-11.5 66
t-33 52.5t-50 34.5t-62.5 12t-62.5 -12t-50 -34.5t-33 -52.5t-11.5 -66t11.5 -66t33 -52.5t50 -34.5t62.5 -12zM496 768q-17 0 -35 5t-44 17q-19 9 -31.5 13.5t-22.5 4.5q-15 0 -23 -10.5t-8 -28.5h-117q0 75 37 119t101 44q15 0 31 -3.5t48 -19.5q18 -9 27 -13t18 -4
q13 0 19.5 11t5.5 29h116q0 -46 -15.5 -83.5t-43 -59t-63.5 -21.5z" />
    <glyph glyph-name="Odieresis" unicode="&#xd6;" horiz-adv-x="834" 
d="M418 -10q-83 0 -152 27t-120 76t-78.5 116t-27.5 146q0 80 27.5 146.5t78.5 115.5t120 76t151 27q83 0 151.5 -27t119.5 -76t78.5 -115.5t27.5 -145.5q0 -80 -27.5 -147t-78.5 -116t-119.5 -76t-150.5 -27zM417 190q34 0 62.5 12t50 34.5t33 52.5t11.5 66t-11.5 66
t-33 52.5t-50 34.5t-62.5 12t-62.5 -12t-50 -34.5t-33 -52.5t-11.5 -66t11.5 -66t33 -52.5t50 -34.5t62.5 -12zM552 750q-48 0 -74 26t-26 74q0 44 27 72t73 28q48 0 74 -25.5t26 -74.5q0 -44 -27 -72t-73 -28zM281 750q-48 0 -74 26t-26 74q0 44 27 72t73 28q48 0 74 -25.5
t26 -74.5q0 -44 -27 -72t-73 -28z" />
    <glyph glyph-name="multiply" unicode="&#xd7;" horiz-adv-x="568" 
d="M408 34l-368 369l120 120l368 -368zM160 34l-120 121l368 368l120 -120z" />
    <glyph glyph-name="Oslash" unicode="&#xd8;" horiz-adv-x="834" 
d="M151 -33l-63 53l589 721l68 -47zM418 -10q-83 0 -152 27t-120 76t-78.5 116t-27.5 146q0 80 27.5 146.5t78.5 115.5t120 76t151 27q83 0 151.5 -27t119.5 -76t78.5 -115.5t27.5 -145.5q0 -80 -27.5 -147t-78.5 -116t-119.5 -76t-150.5 -27zM417 190q34 0 62.5 12t50 34.5
t33 52.5t11.5 66t-11.5 66t-33 52.5t-50 34.5t-62.5 12t-62.5 -12t-50 -34.5t-33 -52.5t-11.5 -66t11.5 -66t33 -52.5t50 -34.5t62.5 -12z" />
    <glyph glyph-name="Ugrave" unicode="&#xd9;" horiz-adv-x="784" 
d="M392 -6q-91 0 -161.5 35.5t-110.5 97.5t-40 142v431h218v-422q0 -29 12 -51.5t33.5 -35.5t48.5 -13q29 0 51 13t35 35.5t13 51.5v422h213v-431q0 -80 -40 -142t-110.5 -97.5t-161.5 -35.5zM506 742l-245 81l60 137l228 -116z" />
    <glyph glyph-name="Uacute" unicode="&#xda;" horiz-adv-x="784" 
d="M392 -6q-91 0 -161.5 35.5t-110.5 97.5t-40 142v431h218v-422q0 -29 12 -51.5t33.5 -35.5t48.5 -13q29 0 51 13t35 35.5t13 51.5v422h213v-431q0 -80 -40 -142t-110.5 -97.5t-161.5 -35.5zM288 742l-43 102l228 116l60 -137z" />
    <glyph glyph-name="Ucircumflex" unicode="&#xdb;" horiz-adv-x="784" 
d="M392 -6q-91 0 -161.5 35.5t-110.5 97.5t-40 142v431h218v-422q0 -29 12 -51.5t33.5 -35.5t48.5 -13q29 0 51 13t35 35.5t13 51.5v422h213v-431q0 -80 -40 -142t-110.5 -97.5t-161.5 -35.5zM254 753l-58 73l145 111h102l145 -111l-58 -73l-153 76h30z" />
    <glyph glyph-name="Udieresis" unicode="&#xdc;" horiz-adv-x="784" 
d="M392 -6q-91 0 -161.5 35.5t-110.5 97.5t-40 142v431h218v-422q0 -29 12 -51.5t33.5 -35.5t48.5 -13q29 0 51 13t35 35.5t13 51.5v422h213v-431q0 -80 -40 -142t-110.5 -97.5t-161.5 -35.5zM527 750q-48 0 -74 26t-26 74q0 44 27 72t73 28q48 0 74 -25.5t26 -74.5
q0 -44 -27 -72t-73 -28zM256 750q-48 0 -74 26t-26 74q0 44 27 72t73 28q48 0 74 -25.5t26 -74.5q0 -44 -27 -72t-73 -28z" />
    <glyph glyph-name="Yacute" unicode="&#xdd;" horiz-adv-x="710" 
d="M256 0v349l7 -49l-283 400h240l216 -310l-135 3l195 307h234l-271 -411l15 68v-357h-218zM251 742l-43 102l228 116l60 -137z" />
    <glyph glyph-name="Thorn" unicode="&#xde;" horiz-adv-x="683" 
d="M80 0v700h216v-100h99q72 0 128 -31t88 -85t32 -124q0 -73 -32 -130t-88 -89.5t-128 -32.5h-99v-108h-216zM296 292h59q19 0 34 7.5t23.5 21.5t8.5 35t-8.5 34t-23.5 19.5t-34 6.5h-59v-124z" />
    <glyph glyph-name="germandbls" unicode="&#xdf;" horiz-adv-x="670" 
d="M430 -10q-37 0 -67 10t-53 29l71 151q12 -8 20.5 -10.5t18.5 -2.5q20 0 31.5 10.5t11.5 33.5q0 20 -12 36.5t-30.5 29.5t-39.5 24t-39 21v100q15 7 25.5 14.5t16.5 15.5t8.5 19t2.5 24q0 27 -15.5 40.5t-41.5 13.5q-27 0 -38 -14.5t-11 -39.5v-495h-203v499
q0 70 30.5 123t88.5 82.5t141 29.5q65 0 119.5 -20t87 -59t32.5 -96q0 -36 -14 -73t-40.5 -67t-63.5 -46l-2 59q44 -13 79.5 -34t61.5 -49.5t40 -64.5t14 -81q0 -61 -29.5 -109t-81.5 -76t-119 -28zM13 335v170h163v-170h-163z" />
    <glyph glyph-name="agrave" unicode="&#xe0;" horiz-adv-x="679" 
d="M261 -9q-67 0 -119 35.5t-82 98t-30 143.5q0 82 29.5 144.5t82 98t121.5 35.5q36 0 66 -10t53 -28t40 -41.5t29 -50.5l-41 1v118h199v-535h-204v131l45 -4q-10 -29 -27.5 -54t-41.5 -43t-54 -28.5t-66 -10.5zM319 156q29 0 49.5 13t31 38t10.5 61t-10.5 61.5t-31 38.5
t-49.5 13t-49 -13t-30.5 -38.5t-10.5 -61.5t10.5 -61t30.5 -38t49 -13zM405 577l-228 122l80 121l206 -154z" />
    <glyph glyph-name="aacute" unicode="&#xe1;" horiz-adv-x="679" 
d="M261 -9q-67 0 -119 35.5t-82 98t-30 143.5q0 82 29.5 144.5t82 98t121.5 35.5q36 0 66 -10t53 -28t40 -41.5t29 -50.5l-41 1v118h199v-535h-204v131l45 -4q-10 -29 -27.5 -54t-41.5 -43t-54 -28.5t-66 -10.5zM319 156q29 0 49.5 13t31 38t10.5 61t-10.5 61.5t-31 38.5
t-49.5 13t-49 -13t-30.5 -38.5t-10.5 -61.5t10.5 -61t30.5 -38t49 -13zM255 576l-58 89l206 154l80 -121z" />
    <glyph glyph-name="acircumflex" unicode="&#xe2;" horiz-adv-x="679" 
d="M261 -9q-67 0 -119 35.5t-82 98t-30 143.5q0 82 29.5 144.5t82 98t121.5 35.5q36 0 66 -10t53 -28t40 -41.5t29 -50.5l-41 1v118h199v-535h-204v131l45 -4q-10 -29 -27.5 -54t-41.5 -43t-54 -28.5t-66 -10.5zM319 156q29 0 49.5 13t31 38t10.5 61t-10.5 61.5t-31 38.5
t-49.5 13t-49 -13t-30.5 -38.5t-10.5 -61.5t10.5 -61t30.5 -38t49 -13zM195 596l-72 62l166 142h102l166 -142l-72 -62l-160 96h30z" />
    <glyph glyph-name="atilde" unicode="&#xe3;" horiz-adv-x="679" 
d="M261 -9q-67 0 -119 35.5t-82 98t-30 143.5q0 82 29.5 144.5t82 98t121.5 35.5q36 0 66 -10t53 -28t40 -41.5t29 -50.5l-41 1v118h199v-535h-204v131l45 -4q-10 -29 -27.5 -54t-41.5 -43t-54 -28.5t-66 -10.5zM319 156q29 0 49.5 13t31 38t10.5 61t-10.5 61.5t-31 38.5
t-49.5 13t-49 -13t-30.5 -38.5t-10.5 -61.5t10.5 -61t30.5 -38t49 -13zM421 613q-15 0 -35.5 4.5t-49.5 23.5q-17 12 -28.5 16.5t-18.5 4.5q-15 0 -26.5 -9.5t-13.5 -30.5l-105 14q0 62 32 104.5t87 42.5q15 0 34.5 -4t47.5 -22q9 -6 22.5 -14t26.5 -8q14 0 25 10t12 30
l105 -15q0 -38 -14.5 -72t-40.5 -54.5t-60 -20.5z" />
    <glyph glyph-name="adieresis" unicode="&#xe4;" horiz-adv-x="679" 
d="M261 -9q-67 0 -119 35.5t-82 98t-30 143.5q0 82 29.5 144.5t82 98t121.5 35.5q36 0 66 -10t53 -28t40 -41.5t29 -50.5l-41 1v118h199v-535h-204v131l45 -4q-10 -29 -27.5 -54t-41.5 -43t-54 -28.5t-66 -10.5zM319 156q29 0 49.5 13t31 38t10.5 61t-10.5 61.5t-31 38.5
t-49.5 13t-49 -13t-30.5 -38.5t-10.5 -61.5t10.5 -61t30.5 -38t49 -13zM475 624q-48 0 -74 26t-26 74q0 44 27 72t73 28q48 0 74 -25.5t26 -74.5q0 -44 -27 -72t-73 -28zM204 624q-48 0 -74 26t-26 74q0 44 27 72t73 28q48 0 74 -25.5t26 -74.5q0 -44 -27 -72t-73 -28z" />
    <glyph glyph-name="aring" unicode="&#xe5;" horiz-adv-x="679" 
d="M261 -9q-67 0 -119 35.5t-82 98t-30 143.5q0 82 29.5 144.5t82 98t121.5 35.5q36 0 66 -10t53 -28t40 -41.5t29 -50.5l-41 1v118h199v-535h-204v131l45 -4q-10 -29 -27.5 -54t-41.5 -43t-54 -28.5t-66 -10.5zM319 156q29 0 49.5 13t31 38t10.5 61t-10.5 61.5t-31 38.5
t-49.5 13t-49 -13t-30.5 -38.5t-10.5 -61.5t10.5 -61t30.5 -38t49 -13zM340 604q-34 0 -63.5 17t-47.5 45t-18 62q0 35 17.5 63.5t47 45.5t64.5 17q36 0 65 -17t46.5 -45.5t17.5 -63.5q0 -34 -18 -62t-47 -45t-64 -17zM340 700q12 0 20 8t8 20q0 13 -8 21.5t-20 8.5t-20 -8
t-8 -21t8 -21t20 -8z" />
    <glyph glyph-name="ae" unicode="&#xe6;" horiz-adv-x="901" 
d="M213 -10q-52 0 -93.5 20t-65.5 55.5t-24 83.5q0 39 15.5 69t45.5 50.5t75 30.5t105 10h430l-5 -8v18q0 19 -8.5 33.5t-24.5 22.5t-38 8q-33 0 -55 -12t-33.5 -34t-11.5 -53q0 -36 16.5 -63t49 -42t81.5 -15q33 0 57 7t50 25l83 -131q-37 -29 -72.5 -45t-70 -23t-70.5 -7
q-93 0 -160 36t-103 98.5t-36 143.5q0 60 20 111t56.5 88.5t86 58t108.5 20.5q77 0 135.5 -36t90.5 -98.5t30 -143.5l-1 -51h-588q-13 0 -23.5 -3.5t-18 -9.5t-11 -15t-3.5 -20t5.5 -20.5t16 -15t23.5 -5.5q19 0 36 6t31 17.5t23 28.5l59 -93q-19 -31 -53 -53t-75.5 -33
t-84.5 -11zM345 242v73q0 20 -4 33t-13.5 20.5t-23.5 10.5t-35 3q-36 0 -58.5 -12t-42.5 -43l-115 113q23 30 60.5 54t87 38t106.5 14q49 0 88.5 -11t67.5 -35t43 -60.5t15 -87.5v-110h-176z" />
    <glyph glyph-name="ccedilla" unicode="&#xe7;" horiz-adv-x="553" 
d="M311 -10q-81 0 -144.5 36t-100 98.5t-36.5 143.5t36.5 143.5t100 98.5t144.5 36q72 0 133 -22t99 -64l-110 -130q-11 12 -26 22t-34 15.5t-44 5.5q-30 0 -52.5 -13t-34.5 -36.5t-12 -54.5q0 -30 11.5 -53.5t34 -37.5t53.5 -14q25 0 44 5t34 14.5t26 22.5l109 -131
q-37 -41 -98 -63t-133 -22zM207 -247l-11 91q18 0 38 3t34 10t14 18q0 10 -7.5 16.5t-20 9.5t-29.5 3l-21 16l67 104h99l-48 -64q54 -4 79.5 -32.5t25.5 -66.5q0 -34 -20.5 -55.5t-54 -33.5t-71.5 -16t-74 -3z" />
    <glyph glyph-name="egrave" unicode="&#xe8;" horiz-adv-x="586" 
d="M329 -10q-93 0 -160 36t-103 98.5t-36 143.5q0 60 20 111t56.5 88.5t86 58t108.5 20.5t107.5 -20.5t83.5 -58t53.5 -88.5t16.5 -111l-1 -42h-419l-23 95h281l-19 -20v18q0 19 -9.5 33.5t-26.5 22.5t-40 8q-29 0 -49 -12t-30.5 -34t-10.5 -53q0 -36 15.5 -63t46 -42
t75.5 -15q30 0 51.5 7.5t45.5 24.5l93 -131q-37 -29 -72.5 -45t-70 -23t-70.5 -7zM366 577l-228 122l80 121l206 -154z" />
    <glyph glyph-name="eacute" unicode="&#xe9;" horiz-adv-x="586" 
d="M329 -10q-93 0 -160 36t-103 98.5t-36 143.5q0 60 20 111t56.5 88.5t86 58t108.5 20.5t107.5 -20.5t83.5 -58t53.5 -88.5t16.5 -111l-1 -42h-419l-23 95h281l-19 -20v18q0 19 -9.5 33.5t-26.5 22.5t-40 8q-29 0 -49 -12t-30.5 -34t-10.5 -53q0 -36 15.5 -63t46 -42
t75.5 -15q30 0 51.5 7.5t45.5 24.5l93 -131q-37 -29 -72.5 -45t-70 -23t-70.5 -7zM216 576l-58 89l206 154l80 -121z" />
    <glyph glyph-name="ecircumflex" unicode="&#xea;" horiz-adv-x="586" 
d="M329 -10q-93 0 -160 36t-103 98.5t-36 143.5q0 60 20 111t56.5 88.5t86 58t108.5 20.5t107.5 -20.5t83.5 -58t53.5 -88.5t16.5 -111l-1 -42h-419l-23 95h281l-19 -20v18q0 19 -9.5 33.5t-26.5 22.5t-40 8q-29 0 -49 -12t-30.5 -34t-10.5 -53q0 -36 15.5 -63t46 -42
t75.5 -15q30 0 51.5 7.5t45.5 24.5l93 -131q-37 -29 -72.5 -45t-70 -23t-70.5 -7zM156 596l-72 62l166 142h102l166 -142l-72 -62l-160 96h30z" />
    <glyph glyph-name="edieresis" unicode="&#xeb;" horiz-adv-x="586" 
d="M329 -10q-93 0 -160 36t-103 98.5t-36 143.5q0 60 20 111t56.5 88.5t86 58t108.5 20.5t107.5 -20.5t83.5 -58t53.5 -88.5t16.5 -111l-1 -42h-419l-23 95h281l-19 -20v18q0 19 -9.5 33.5t-26.5 22.5t-40 8q-29 0 -49 -12t-30.5 -34t-10.5 -53q0 -36 15.5 -63t46 -42
t75.5 -15q30 0 51.5 7.5t45.5 24.5l93 -131q-37 -29 -72.5 -45t-70 -23t-70.5 -7zM436 624q-48 0 -74 26t-26 74q0 44 27 72t73 28q48 0 74 -25.5t26 -74.5q0 -44 -27 -72t-73 -28zM165 624q-48 0 -74 26t-26 74q0 44 27 72t73 28q48 0 74 -25.5t26 -74.5q0 -44 -27 -72
t-73 -28z" />
    <glyph glyph-name="igrave" unicode="&#xec;" horiz-adv-x="323" 
d="M60 0v535h203v-535h-203zM227 577l-228 122l80 121l206 -154z" />
    <glyph glyph-name="iacute" unicode="&#xed;" horiz-adv-x="323" 
d="M60 0v535h203v-535h-203zM77 576l-58 89l206 154l80 -121z" />
    <glyph glyph-name="icircumflex" unicode="&#xee;" horiz-adv-x="323" 
d="M60 0v535h203v-535h-203zM17 596l-72 62l166 142h102l166 -142l-72 -62l-160 96h30z" />
    <glyph glyph-name="idieresis" unicode="&#xef;" horiz-adv-x="323" 
d="M60 0v535h203v-535h-203zM297 624q-48 0 -74 26t-26 74q0 44 27 72t73 28q48 0 74 -25.5t26 -74.5q0 -44 -27 -72t-73 -28zM26 624q-48 0 -74 26t-26 74q0 44 27 72t73 28q48 0 74 -25.5t26 -74.5q0 -44 -27 -72t-73 -28z" />
    <glyph glyph-name="eth" unicode="&#xf0;" horiz-adv-x="614" 
d="M305 -7q-83 0 -144.5 34.5t-96 93t-34.5 131.5q0 52 21.5 98.5t58.5 82t85 55.5t100 20q50 0 90 -19.5t67 -55.5t36 -85l-130 31q-2 42 -9.5 76t-21.5 61.5t-35.5 49t-52 38t-70.5 28.5l52 118q66 -16 122.5 -44.5t101 -69.5t75.5 -93t47.5 -114.5t16.5 -135.5
q0 -89 -34.5 -156.5t-97 -105.5t-147.5 -38zM307 159q25 0 45.5 13.5t32.5 37t12 52.5q0 28 -12 50.5t-32.5 36t-45.5 13.5t-45.5 -13t-32.5 -35.5t-12 -51.5t12 -52.5t32.5 -37t45.5 -13.5zM146 509l-13 65l170 44l59 32l146 33l18 -66l-113 -26l-45 -29z" />
    <glyph glyph-name="ntilde" unicode="&#xf1;" horiz-adv-x="665" 
d="M70 0v535h188l10 -108l-43 -12q11 38 39.5 67.5t68.5 46.5t85 17q60 0 102 -25t63.5 -73.5t21.5 -117.5v-330h-203v313q0 22 -7 37t-21 23t-33 8q-15 0 -27.5 -4.5t-21.5 -13.5t-14 -20t-5 -25v-318h-101h-63.5h-38.5zM444 613q-15 0 -35.5 4.5t-49.5 23.5
q-17 12 -28.5 16.5t-18.5 4.5q-15 0 -26.5 -9.5t-13.5 -30.5l-105 14q0 62 32 104.5t87 42.5q15 0 34.5 -4t47.5 -22q9 -6 22.5 -14t26.5 -8q14 0 25 10t12 30l105 -15q0 -38 -14.5 -72t-40.5 -54.5t-60 -20.5z" />
    <glyph glyph-name="ograve" unicode="&#xf2;" horiz-adv-x="660" 
d="M331 -10q-87 0 -155 36t-107 98.5t-39 143.5t39 143.5t107 98.5t155 36t154.5 -36t106 -98.5t38.5 -143.5t-38.5 -143.5t-106 -98.5t-154.5 -36zM331 160q27 0 48.5 14t33.5 38.5t12 55.5q0 32 -12 56.5t-33.5 38.5t-48.5 14q-28 0 -49.5 -14t-34 -38.5t-12.5 -56.5
q0 -31 12.5 -55.5t34 -38.5t49.5 -14zM395 577l-228 122l80 121l206 -154z" />
    <glyph glyph-name="oacute" unicode="&#xf3;" horiz-adv-x="660" 
d="M331 -10q-87 0 -155 36t-107 98.5t-39 143.5t39 143.5t107 98.5t155 36t154.5 -36t106 -98.5t38.5 -143.5t-38.5 -143.5t-106 -98.5t-154.5 -36zM331 160q27 0 48.5 14t33.5 38.5t12 55.5q0 32 -12 56.5t-33.5 38.5t-48.5 14q-28 0 -49.5 -14t-34 -38.5t-12.5 -56.5
q0 -31 12.5 -55.5t34 -38.5t49.5 -14zM245 576l-58 89l206 154l80 -121z" />
    <glyph glyph-name="ocircumflex" unicode="&#xf4;" horiz-adv-x="660" 
d="M331 -10q-87 0 -155 36t-107 98.5t-39 143.5t39 143.5t107 98.5t155 36t154.5 -36t106 -98.5t38.5 -143.5t-38.5 -143.5t-106 -98.5t-154.5 -36zM331 160q27 0 48.5 14t33.5 38.5t12 55.5q0 32 -12 56.5t-33.5 38.5t-48.5 14q-28 0 -49.5 -14t-34 -38.5t-12.5 -56.5
q0 -31 12.5 -55.5t34 -38.5t49.5 -14zM185 596l-72 62l166 142h102l166 -142l-72 -62l-160 96h30z" />
    <glyph glyph-name="otilde" unicode="&#xf5;" horiz-adv-x="660" 
d="M331 -10q-87 0 -155 36t-107 98.5t-39 143.5t39 143.5t107 98.5t155 36t154.5 -36t106 -98.5t38.5 -143.5t-38.5 -143.5t-106 -98.5t-154.5 -36zM331 160q27 0 48.5 14t33.5 38.5t12 55.5q0 32 -12 56.5t-33.5 38.5t-48.5 14q-28 0 -49.5 -14t-34 -38.5t-12.5 -56.5
q0 -31 12.5 -55.5t34 -38.5t49.5 -14zM411 613q-15 0 -35.5 4.5t-49.5 23.5q-17 12 -28.5 16.5t-18.5 4.5q-15 0 -26.5 -9.5t-13.5 -30.5l-105 14q0 62 32 104.5t87 42.5q15 0 34.5 -4t47.5 -22q9 -6 22.5 -14t26.5 -8q14 0 25 10t12 30l105 -15q0 -38 -14.5 -72
t-40.5 -54.5t-60 -20.5z" />
    <glyph glyph-name="odieresis" unicode="&#xf6;" horiz-adv-x="660" 
d="M331 -10q-87 0 -155 36t-107 98.5t-39 143.5t39 143.5t107 98.5t155 36t154.5 -36t106 -98.5t38.5 -143.5t-38.5 -143.5t-106 -98.5t-154.5 -36zM331 160q27 0 48.5 14t33.5 38.5t12 55.5q0 32 -12 56.5t-33.5 38.5t-48.5 14q-28 0 -49.5 -14t-34 -38.5t-12.5 -56.5
q0 -31 12.5 -55.5t34 -38.5t49.5 -14zM465 624q-48 0 -74 26t-26 74q0 44 27 72t73 28q48 0 74 -25.5t26 -74.5q0 -44 -27 -72t-73 -28zM194 624q-48 0 -74 26t-26 74q0 44 27 72t73 28q48 0 74 -25.5t26 -74.5q0 -44 -27 -72t-73 -28z" />
    <glyph glyph-name="divide" unicode="&#xf7;" horiz-adv-x="597" 
d="M38 188v160h522v-160h-522zM299 -52q-34 0 -58.5 11.5t-37.5 34t-13 54.5q0 29 13.5 51.5t37.5 35.5t58 13t58.5 -11.5t37.5 -34t13 -54.5q0 -29 -13.5 -51.5t-37.5 -35.5t-58 -13zM299 388q-34 0 -58.5 11.5t-37.5 34t-13 54.5q0 29 13.5 51.5t37.5 35.5t58 13
t58.5 -11.5t37.5 -34t13 -54.5q0 -29 -13.5 -51.5t-37.5 -35.5t-58 -13z" />
    <glyph glyph-name="oslash" unicode="&#xf8;" horiz-adv-x="660" 
d="M130 -35l-66 48l469 558l67 -49zM331 -10q-87 0 -155 36t-107 98.5t-39 143.5t39 143.5t107 98.5t155 36t154.5 -36t106 -98.5t38.5 -143.5t-38.5 -143.5t-106 -98.5t-154.5 -36zM331 160q27 0 48.5 14t33.5 38.5t12 55.5q0 32 -12 56.5t-33.5 38.5t-48.5 14
q-28 0 -49.5 -14t-34 -38.5t-12.5 -56.5q0 -31 12.5 -55.5t34 -38.5t49.5 -14z" />
    <glyph glyph-name="ugrave" unicode="&#xf9;" horiz-adv-x="669" 
d="M249 -11q-61 0 -103 25t-64 73.5t-22 117.5v330h203v-313q0 -22 7.5 -37t21.5 -23t34 -8q15 0 27.5 4.5t21.5 13.5t14 20.5t5 24.5v318h203v-535h-186l-12 108l38 12q-11 -38 -38.5 -67.5t-66.5 -46.5t-83 -17zM400 577l-228 122l80 121l206 -154z" />
    <glyph glyph-name="uacute" unicode="&#xfa;" horiz-adv-x="669" 
d="M249 -11q-61 0 -103 25t-64 73.5t-22 117.5v330h203v-313q0 -22 7.5 -37t21.5 -23t34 -8q15 0 27.5 4.5t21.5 13.5t14 20.5t5 24.5v318h203v-535h-186l-12 108l38 12q-11 -38 -38.5 -67.5t-66.5 -46.5t-83 -17zM250 576l-58 89l206 154l80 -121z" />
    <glyph glyph-name="ucircumflex" unicode="&#xfb;" horiz-adv-x="669" 
d="M249 -11q-61 0 -103 25t-64 73.5t-22 117.5v330h203v-313q0 -22 7.5 -37t21.5 -23t34 -8q15 0 27.5 4.5t21.5 13.5t14 20.5t5 24.5v318h203v-535h-186l-12 108l38 12q-11 -38 -38.5 -67.5t-66.5 -46.5t-83 -17zM190 596l-72 62l166 142h102l166 -142l-72 -62l-160 96h30z
" />
    <glyph glyph-name="udieresis" unicode="&#xfc;" horiz-adv-x="669" 
d="M249 -11q-61 0 -103 25t-64 73.5t-22 117.5v330h203v-313q0 -22 7.5 -37t21.5 -23t34 -8q15 0 27.5 4.5t21.5 13.5t14 20.5t5 24.5v318h203v-535h-186l-12 108l38 12q-11 -38 -38.5 -67.5t-66.5 -46.5t-83 -17zM470 624q-48 0 -74 26t-26 74q0 44 27 72t73 28
q48 0 74 -25.5t26 -74.5q0 -44 -27 -72t-73 -28zM199 624q-48 0 -74 26t-26 74q0 44 27 72t73 28q48 0 74 -25.5t26 -74.5q0 -44 -27 -72t-73 -28z" />
    <glyph glyph-name="yacute" unicode="&#xfd;" horiz-adv-x="649" 
d="M121 -230l133 314l2 -82l-251 533h226l74 -178q12 -28 20.5 -53t12.5 -47l-20 -18q4 11 12 34.5t18 54.5l70 207h226l-233 -535l-94 -230h-196zM240 576l-58 89l206 154l80 -121z" />
    <glyph glyph-name="thorn" unicode="&#xfe;" horiz-adv-x="679" 
d="M70 -220v960h204v-323l-46 9q7 35 34 62t68.5 42.5t90.5 15.5q50 0 91.5 -20t72 -57.5t47.5 -88t17 -112.5q0 -81 -30 -143.5t-82.5 -98t-120.5 -35.5q-45 0 -84.5 16t-66.5 44.5t-36 65.5l45 14v-351h-204zM360 156q29 0 49 13t30.5 38t10.5 61t-10.5 61.5t-30.5 38.5
t-49 13t-49.5 -13t-31 -38.5t-10.5 -61.5t10.5 -61t31 -38t49.5 -13z" />
    <glyph glyph-name="ydieresis" unicode="&#xff;" horiz-adv-x="649" 
d="M121 -230l133 314l2 -82l-251 533h226l74 -178q12 -28 20.5 -53t12.5 -47l-20 -18q4 11 12 34.5t18 54.5l70 207h226l-233 -535l-94 -230h-196zM460 624q-48 0 -74 26t-26 74q0 44 27 72t73 28q48 0 74 -25.5t26 -74.5q0 -44 -27 -72t-73 -28zM189 624q-48 0 -74 26
t-26 74q0 44 27 72t73 28q48 0 74 -25.5t26 -74.5q0 -44 -27 -72t-73 -28z" />
    <glyph glyph-name="Amacron" unicode="&#x100;" horiz-adv-x="690" 
d="M-20 0l281 700h170l279 -700h-214l-112 306q-11 31 -19 53t-14 41.5t-12 42t-12 53.5h34q-6 -31 -12 -53.5t-12.5 -42t-15 -41.5t-19.5 -53l-112 -306h-210zM120 104l63 147h325l57 -147h-445zM155 790v120h379v-120h-379z" />
    <glyph glyph-name="amacron" unicode="&#x101;" horiz-adv-x="679" 
d="M261 -9q-67 0 -119 35.5t-82 98t-30 143.5q0 82 29.5 144.5t82 98t121.5 35.5q36 0 66 -10t53 -28t40 -41.5t29 -50.5l-41 1v118h199v-535h-204v131l45 -4q-10 -29 -27.5 -54t-41.5 -43t-54 -28.5t-66 -10.5zM319 156q29 0 49.5 13t31 38t10.5 61t-10.5 61.5t-31 38.5
t-49.5 13t-49 -13t-30.5 -38.5t-10.5 -61.5t10.5 -61t30.5 -38t49 -13zM153 638v120h374v-120h-374z" />
    <glyph glyph-name="Abreve" unicode="&#x102;" horiz-adv-x="690" 
d="M-20 0l281 700h170l279 -700h-214l-112 306q-11 31 -19 53t-14 41.5t-12 42t-12 53.5h34q-6 -31 -12 -53.5t-12.5 -42t-15 -41.5t-19.5 -53l-112 -306h-210zM120 104l63 147h325l57 -147h-445zM345 762q-48 0 -88 19.5t-67 56.5t-37 88l124 12q9 -26 28 -40.5t40 -14.5
t40 14.5t28 40.5l124 -12q-10 -51 -37 -88t-66.5 -56.5t-88.5 -19.5z" />
    <glyph glyph-name="abreve" unicode="&#x103;" horiz-adv-x="679" 
d="M261 -9q-67 0 -119 35.5t-82 98t-30 143.5q0 82 29.5 144.5t82 98t121.5 35.5q36 0 66 -10t53 -28t40 -41.5t29 -50.5l-41 1v118h199v-535h-204v131l45 -4q-10 -29 -27.5 -54t-41.5 -43t-54 -28.5t-66 -10.5zM319 156q29 0 49.5 13t31 38t10.5 61t-10.5 61.5t-31 38.5
t-49.5 13t-49 -13t-30.5 -38.5t-10.5 -61.5t10.5 -61t30.5 -38t49 -13zM340 610q-73 0 -125 43.5t-67 120.5l124 12q9 -26 28 -40.5t40 -14.5t40 14.5t28 40.5l124 -12q-15 -77 -67 -120.5t-125 -43.5z" />
    <glyph glyph-name="Aogonek" unicode="&#x104;" horiz-adv-x="690" 
d="M-20 0l281 700h170l279 -700h-214l-112 306q-11 31 -19 53t-14 41.5t-12 42t-12 53.5h34q-6 -31 -12 -53.5t-12.5 -42t-15 -41.5t-19.5 -53l-112 -306h-210zM120 104l63 147h325l57 -147h-445zM554 -220q-37 0 -66.5 13.5t-46 38.5t-16.5 58q0 26 12 50t35 44.5t55.5 37
t72.5 27.5l31 -49q-22 -3 -40.5 -14t-29 -25.5t-10.5 -30.5q0 -11 5.5 -19t16.5 -8q10 0 16.5 5.5t13.5 17.5l80 -59q-18 -39 -49.5 -63t-79.5 -24z" />
    <glyph glyph-name="aogonek" unicode="&#x105;" horiz-adv-x="679" 
d="M261 -9q-67 0 -119 35.5t-82 98t-30 143.5q0 82 29.5 144.5t82 98t121.5 35.5q36 0 66 -10t53 -28t40 -41.5t29 -50.5l-41 1v118h199v-535h-204v131l45 -4q-10 -29 -27.5 -54t-41.5 -43t-54 -28.5t-66 -10.5zM319 156q29 0 49.5 13t31 38t10.5 61t-10.5 61.5t-31 38.5
t-49.5 13t-49 -13t-30.5 -38.5t-10.5 -61.5t10.5 -61t30.5 -38t49 -13zM461 -219q-37 0 -66.5 15.5t-46 42t-16.5 59.5q0 26 10.5 48.5t32.5 41.5t55.5 34.5t79.5 27.5l44 -50q-26 -6 -48 -17t-35 -25.5t-13 -31.5q0 -10 6 -16t17 -6q9 0 15 5.5t14 17.5l80 -59
q-12 -20 -31.5 -40t-44 -33.5t-53.5 -13.5z" />
    <glyph glyph-name="Cacute" unicode="&#x106;" horiz-adv-x="705" 
d="M424 -10q-84 0 -154.5 27t-122 75.5t-79.5 115.5t-28 147t28.5 147t80.5 115.5t123.5 75.5t157.5 27q49 0 96.5 -11.5t90 -35t77.5 -59.5l-129 -151q-14 17 -33.5 31t-45 22.5t-58.5 8.5q-34 0 -64.5 -11.5t-53 -33.5t-35.5 -54t-13 -74q0 -38 13 -69t37 -53t58 -34
t76 -12q30 0 57 9t49 23.5t38 32.5l103 -162q-26 -28 -69 -50t-95 -34.5t-105 -12.5zM322 742l-43 102l228 116l60 -137z" />
    <glyph glyph-name="cacute" unicode="&#x107;" horiz-adv-x="553" 
d="M311 -10q-81 0 -144.5 36t-100 98.5t-36.5 143.5t36.5 143.5t100 98.5t144.5 36q72 0 133 -22t99 -64l-110 -130q-11 12 -26 22t-34 15.5t-44 5.5q-30 0 -52.5 -13t-34.5 -36.5t-12 -54.5q0 -30 11.5 -53.5t34 -37.5t53.5 -14q25 0 44 5t34 14.5t26 22.5l109 -131
q-37 -41 -98 -63t-133 -22zM226 576l-58 89l206 154l80 -121z" />
    <glyph glyph-name="Ccircumflex" unicode="&#x108;" horiz-adv-x="705" 
d="M424 -10q-84 0 -154.5 27t-122 75.5t-79.5 115.5t-28 147t28.5 147t80.5 115.5t123.5 75.5t157.5 27q49 0 96.5 -11.5t90 -35t77.5 -59.5l-129 -151q-14 17 -33.5 31t-45 22.5t-58.5 8.5q-34 0 -64.5 -11.5t-53 -33.5t-35.5 -54t-13 -74q0 -38 13 -69t37 -53t58 -34
t76 -12q30 0 57 9t49 23.5t38 32.5l103 -162q-26 -28 -69 -50t-95 -34.5t-105 -12.5zM288 753l-58 73l145 111h102l145 -111l-58 -73l-153 76h30z" />
    <glyph glyph-name="ccircumflex" unicode="&#x109;" horiz-adv-x="553" 
d="M311 -10q-81 0 -144.5 36t-100 98.5t-36.5 143.5t36.5 143.5t100 98.5t144.5 36q72 0 133 -22t99 -64l-110 -130q-11 12 -26 22t-34 15.5t-44 5.5q-30 0 -52.5 -13t-34.5 -36.5t-12 -54.5q0 -30 11.5 -53.5t34 -37.5t53.5 -14q25 0 44 5t34 14.5t26 22.5l109 -131
q-37 -41 -98 -63t-133 -22zM166 596l-72 62l166 142h102l166 -142l-72 -62l-160 96h30z" />
    <glyph glyph-name="Cdotaccent" unicode="&#x10a;" horiz-adv-x="705" 
d="M424 -10q-84 0 -154.5 27t-122 75.5t-79.5 115.5t-28 147t28.5 147t80.5 115.5t123.5 75.5t157.5 27q49 0 96.5 -11.5t90 -35t77.5 -59.5l-129 -151q-14 17 -33.5 31t-45 22.5t-58.5 8.5q-34 0 -64.5 -11.5t-53 -33.5t-35.5 -54t-13 -74q0 -38 13 -69t37 -53t58 -34
t76 -12q30 0 57 9t49 23.5t38 32.5l103 -162q-26 -28 -69 -50t-95 -34.5t-105 -12.5zM426 754q-54 0 -84.5 25t-30.5 71q0 42 31 69t84 27q54 0 84.5 -25t30.5 -71q0 -42 -31 -69t-84 -27z" />
    <glyph glyph-name="cdotaccent" unicode="&#x10b;" horiz-adv-x="553" 
d="M311 -10q-81 0 -144.5 36t-100 98.5t-36.5 143.5t36.5 143.5t100 98.5t144.5 36q72 0 133 -22t99 -64l-110 -130q-11 12 -26 22t-34 15.5t-44 5.5q-30 0 -52.5 -13t-34.5 -36.5t-12 -54.5q0 -30 11.5 -53.5t34 -37.5t53.5 -14q25 0 44 5t34 14.5t26 22.5l109 -131
q-37 -41 -98 -63t-133 -22zM311 632q-54 0 -84.5 25t-30.5 71q0 42 31 69t84 27q54 0 84.5 -25t30.5 -71q0 -42 -31 -69t-84 -27z" />
    <glyph glyph-name="Ccaron" unicode="&#x10c;" horiz-adv-x="705" 
d="M424 -10q-84 0 -154.5 27t-122 75.5t-79.5 115.5t-28 147t28.5 147t80.5 115.5t123.5 75.5t157.5 27q49 0 96.5 -11.5t90 -35t77.5 -59.5l-129 -151q-14 17 -33.5 31t-45 22.5t-58.5 8.5q-34 0 -64.5 -11.5t-53 -33.5t-35.5 -54t-13 -74q0 -38 13 -69t37 -53t58 -34
t76 -12q30 0 57 9t49 23.5t38 32.5l103 -162q-26 -28 -69 -50t-95 -34.5t-105 -12.5zM375 753l-145 111l58 73l153 -76h-30l153 76l58 -73l-145 -111h-102z" />
    <glyph glyph-name="ccaron" unicode="&#x10d;" horiz-adv-x="553" 
d="M311 -10q-81 0 -144.5 36t-100 98.5t-36.5 143.5t36.5 143.5t100 98.5t144.5 36q72 0 133 -22t99 -64l-110 -130q-11 12 -26 22t-34 15.5t-44 5.5q-30 0 -52.5 -13t-34.5 -36.5t-12 -54.5q0 -30 11.5 -53.5t34 -37.5t53.5 -14q25 0 44 5t34 14.5t26 22.5l109 -131
q-37 -41 -98 -63t-133 -22zM260 606l-166 142l72 62l160 -96h-30l160 96l72 -62l-166 -142h-102z" />
    <glyph glyph-name="Dcaron" unicode="&#x10e;" horiz-adv-x="790" 
d="M80 0v700h308q79 0 145 -26t115 -72.5t75.5 -110.5t26.5 -141q0 -76 -26.5 -140.5t-75.5 -111t-115 -72.5t-145 -26h-308zM296 133l-37 51h124q33 0 60 12.5t47 34.5t31 52.5t11 66.5t-11 66.5t-31 52.5t-47 34.5t-60 12.5h-127l40 49v-432zM344 753l-145 111l58 73
l153 -76h-30l153 76l58 -73l-145 -111h-102z" />
    <glyph glyph-name="dcaron" unicode="&#x10f;" horiz-adv-x="829" 
d="M258 -11q-66 0 -117.5 35.5t-81 98t-29.5 144.5q0 81 30 144t82.5 99t120.5 36q34 0 65 -9.5t56 -27t42.5 -41t23.5 -50.5l-45 -14v336h204v-740h-183l-16 118l41 -9q-5 -26 -22 -48t-42.5 -38t-58.5 -25t-70 -9zM319 154q29 0 49.5 13.5t31 38.5t10.5 61t-10.5 61.5
t-31 38.5t-49.5 13t-49 -13t-30.5 -38.5t-10.5 -61.5t10.5 -61t30.5 -38.5t49 -13.5zM721 445l-52 64q14 5 34 14t36 21.5t16 26.5q0 10 -7.5 15t-20.5 12q-23 11 -34 26t-11 39q0 40 26.5 58.5t65.5 18.5q49 0 83 -27t34 -85q0 -36 -11.5 -65.5t-34 -52t-54 -38.5
t-70.5 -27z" />
    <glyph glyph-name="Dcroat" unicode="&#x110;" horiz-adv-x="790" 
d="M25 280v140h368v-140h-368zM80 0v700h308q79 0 145 -26t115 -72.5t75.5 -110.5t26.5 -141q0 -76 -26.5 -140.5t-75.5 -111t-115 -72.5t-145 -26h-308zM296 133l-37 51h124q33 0 60 12.5t47 34.5t31 52.5t11 66.5t-11 66.5t-31 52.5t-47 34.5t-60 12.5h-127l40 49v-432z
" />
    <glyph glyph-name="dcroat" unicode="&#x111;" horiz-adv-x="669" 
d="M281 564v140h368v-140h-368zM258 -11q-66 0 -117.5 35.5t-81 98t-29.5 144.5q0 81 30 144t82.5 99t120.5 36q34 0 65 -9.5t56 -27t42.5 -41t23.5 -50.5l-45 -14v336h204v-740h-183l-16 118l41 -9q-5 -26 -22 -48t-42.5 -38t-58.5 -25t-70 -9zM319 154q29 0 49.5 13.5
t31 38.5t10.5 61t-10.5 61.5t-31 38.5t-49.5 13t-49 -13t-30.5 -38.5t-10.5 -61.5t10.5 -61t30.5 -38.5t49 -13.5z" />
    <glyph glyph-name="Emacron" unicode="&#x112;" horiz-adv-x="668" 
d="M80 0v700h523v-175h-316v-350h334v-175h-541zM183 272v164h383v-164h-383zM164 790v120h379v-120h-379z" />
    <glyph glyph-name="emacron" unicode="&#x113;" horiz-adv-x="586" 
d="M329 -10q-93 0 -160 36t-103 98.5t-36 143.5q0 60 20 111t56.5 88.5t86 58t108.5 20.5t107.5 -20.5t83.5 -58t53.5 -88.5t16.5 -111l-1 -42h-419l-23 95h281l-19 -20v18q0 19 -9.5 33.5t-26.5 22.5t-40 8q-29 0 -49 -12t-30.5 -34t-10.5 -53q0 -36 15.5 -63t46 -42
t75.5 -15q30 0 51.5 7.5t45.5 24.5l93 -131q-37 -29 -72.5 -45t-70 -23t-70.5 -7zM114 638v120h374v-120h-374z" />
    <glyph glyph-name="Ebreve" unicode="&#x114;" horiz-adv-x="668" 
d="M80 0v700h523v-175h-316v-350h334v-175h-541zM183 272v164h383v-164h-383zM354 762q-48 0 -88 19.5t-67 56.5t-37 88l124 12q9 -26 28 -40.5t40 -14.5t40 14.5t28 40.5l124 -12q-10 -51 -37 -88t-66.5 -56.5t-88.5 -19.5z" />
    <glyph glyph-name="ebreve" unicode="&#x115;" horiz-adv-x="586" 
d="M329 -10q-93 0 -160 36t-103 98.5t-36 143.5q0 60 20 111t56.5 88.5t86 58t108.5 20.5t107.5 -20.5t83.5 -58t53.5 -88.5t16.5 -111l-1 -42h-419l-23 95h281l-19 -20v18q0 19 -9.5 33.5t-26.5 22.5t-40 8q-29 0 -49 -12t-30.5 -34t-10.5 -53q0 -36 15.5 -63t46 -42
t75.5 -15q30 0 51.5 7.5t45.5 24.5l93 -131q-37 -29 -72.5 -45t-70 -23t-70.5 -7zM301 610q-73 0 -125 43.5t-67 120.5l124 12q9 -26 28 -40.5t40 -14.5t40 14.5t28 40.5l124 -12q-15 -77 -67 -120.5t-125 -43.5z" />
    <glyph glyph-name="Edotaccent" unicode="&#x116;" horiz-adv-x="668" 
d="M80 0v700h523v-175h-316v-350h334v-175h-541zM183 272v164h383v-164h-383zM354 754q-54 0 -84.5 25t-30.5 71q0 42 31 69t84 27q54 0 84.5 -25t30.5 -71q0 -42 -31 -69t-84 -27z" />
    <glyph glyph-name="edotaccent" unicode="&#x117;" horiz-adv-x="586" 
d="M329 -10q-93 0 -160 36t-103 98.5t-36 143.5q0 60 20 111t56.5 88.5t86 58t108.5 20.5t107.5 -20.5t83.5 -58t53.5 -88.5t16.5 -111l-1 -42h-419l-23 95h281l-19 -20v18q0 19 -9.5 33.5t-26.5 22.5t-40 8q-29 0 -49 -12t-30.5 -34t-10.5 -53q0 -36 15.5 -63t46 -42
t75.5 -15q30 0 51.5 7.5t45.5 24.5l93 -131q-37 -29 -72.5 -45t-70 -23t-70.5 -7zM301 632q-54 0 -84.5 25t-30.5 71q0 42 31 69t84 27q54 0 84.5 -25t30.5 -71q0 -42 -31 -69t-84 -27z" />
    <glyph glyph-name="Eogonek" unicode="&#x118;" horiz-adv-x="668" 
d="M80 0v700h523v-175h-316v-350h334v-175h-541zM183 272v164h383v-164h-383zM494 -220q-37 0 -66.5 13.5t-46 38.5t-16.5 58q0 26 12 50t35 44.5t55.5 37t72.5 27.5l31 -49q-22 -3 -40.5 -14t-29 -25.5t-10.5 -30.5q0 -11 5.5 -19t16.5 -8q10 0 16.5 5.5t13.5 17.5l80 -59
q-18 -39 -49.5 -63t-79.5 -24z" />
    <glyph glyph-name="eogonek" unicode="&#x119;" horiz-adv-x="586" 
d="M376 -209q-53 0 -84.5 33t-31.5 79q0 39 25.5 71t73 62t113.5 62l31 -59q-55 -29 -86.5 -51.5t-31.5 -47.5q0 -13 6.5 -19.5t14.5 -6.5q9 0 16.5 5.5t15.5 17.5l80 -59q-12 -20 -31 -40t-46.5 -33.5t-64.5 -13.5zM329 -10q-93 0 -160 36t-103 98.5t-36 143.5q0 60 20 111
t56.5 88.5t86 58t108.5 20.5t107.5 -20.5t83.5 -58t53.5 -88.5t16.5 -111l-1 -42h-419l-23 95h281l-19 -20v18q0 19 -9.5 33.5t-26.5 22.5t-40 8q-29 0 -49 -12t-30.5 -34t-10.5 -53q0 -36 15.5 -63t46 -42t75.5 -15q30 0 51.5 7.5t45.5 24.5l93 -131q-37 -29 -72.5 -45
t-70 -23t-70.5 -7z" />
    <glyph glyph-name="Ecaron" unicode="&#x11a;" horiz-adv-x="668" 
d="M80 0v700h523v-175h-316v-350h334v-175h-541zM183 272v164h383v-164h-383zM303 753l-145 111l58 73l153 -76h-30l153 76l58 -73l-145 -111h-102z" />
    <glyph glyph-name="ecaron" unicode="&#x11b;" horiz-adv-x="586" 
d="M329 -10q-93 0 -160 36t-103 98.5t-36 143.5q0 60 20 111t56.5 88.5t86 58t108.5 20.5t107.5 -20.5t83.5 -58t53.5 -88.5t16.5 -111l-1 -42h-419l-23 95h281l-19 -20v18q0 19 -9.5 33.5t-26.5 22.5t-40 8q-29 0 -49 -12t-30.5 -34t-10.5 -53q0 -36 15.5 -63t46 -42
t75.5 -15q30 0 51.5 7.5t45.5 24.5l93 -131q-37 -29 -72.5 -45t-70 -23t-70.5 -7zM250 606l-166 142l72 62l160 -96h-30l160 96l72 -62l-166 -142h-102z" />
    <glyph glyph-name="Gcircumflex" unicode="&#x11c;" horiz-adv-x="793" 
d="M414 -10q-90 0 -159.5 27t-117.5 76t-72.5 116t-24.5 146q0 80 27.5 146.5t79.5 115.5t123.5 76t159.5 27q61 0 113.5 -15t95 -40.5t73.5 -57.5l-128 -136q-20 19 -43 33.5t-51 23t-63 8.5q-36 0 -66 -13.5t-52 -37.5t-34.5 -57.5t-12.5 -72.5t13 -72.5t36 -57.5
t55 -37.5t70 -13.5q26 0 47.5 8.5t37 23t24.5 35t9 44.5v29l28 -48h-178v152h344q1 -11 2.5 -36t2 -49.5t0.5 -33.5q0 -67 -25 -124t-70.5 -98t-107.5 -64t-136 -23zM280 753l-58 73l145 111h102l145 -111l-58 -73l-153 76h30z" />
    <glyph glyph-name="gcircumflex" unicode="&#x11d;" horiz-adv-x="684" 
d="M319 -230q-72 0 -142.5 20t-115.5 52l69 136q22 -14 46 -24t50.5 -15t56.5 -5q47 0 76 12.5t42.5 39.5t13.5 69v80l45 -4q-8 -34 -35 -60t-67 -41t-85 -15q-71 0 -125.5 32t-86 89.5t-31.5 135.5q0 81 31 142.5t84.5 96.5t122.5 35q30 0 57 -6t50 -16.5t41 -25.5
t29.5 -33t15.5 -39l-41 -9l11 118h188v-483q0 -67 -20.5 -119.5t-59.5 -89t-94.5 -55t-125.5 -18.5zM324 160q31 0 52.5 13t32.5 37.5t11 59.5t-11 60t-32.5 38t-52.5 13t-52 -13t-32 -38t-11 -60t11 -59.5t32 -37.5t52 -13zM197 596l-72 62l166 142h102l166 -142l-72 -62
l-160 96h30z" />
    <glyph glyph-name="Gbreve" unicode="&#x11e;" horiz-adv-x="793" 
d="M414 -10q-90 0 -159.5 27t-117.5 76t-72.5 116t-24.5 146q0 80 27.5 146.5t79.5 115.5t123.5 76t159.5 27q61 0 113.5 -15t95 -40.5t73.5 -57.5l-128 -136q-20 19 -43 33.5t-51 23t-63 8.5q-36 0 -66 -13.5t-52 -37.5t-34.5 -57.5t-12.5 -72.5t13 -72.5t36 -57.5
t55 -37.5t70 -13.5q26 0 47.5 8.5t37 23t24.5 35t9 44.5v29l28 -48h-178v152h344q1 -11 2.5 -36t2 -49.5t0.5 -33.5q0 -67 -25 -124t-70.5 -98t-107.5 -64t-136 -23zM418 762q-48 0 -88 19.5t-67 56.5t-37 88l124 12q9 -26 28 -40.5t40 -14.5t40 14.5t28 40.5l124 -12
q-10 -51 -37 -88t-66.5 -56.5t-88.5 -19.5z" />
    <glyph glyph-name="gbreve" unicode="&#x11f;" horiz-adv-x="684" 
d="M319 -230q-72 0 -142.5 20t-115.5 52l69 136q22 -14 46 -24t50.5 -15t56.5 -5q47 0 76 12.5t42.5 39.5t13.5 69v80l45 -4q-8 -34 -35 -60t-67 -41t-85 -15q-71 0 -125.5 32t-86 89.5t-31.5 135.5q0 81 31 142.5t84.5 96.5t122.5 35q30 0 57 -6t50 -16.5t41 -25.5
t29.5 -33t15.5 -39l-41 -9l11 118h188v-483q0 -67 -20.5 -119.5t-59.5 -89t-94.5 -55t-125.5 -18.5zM324 160q31 0 52.5 13t32.5 37.5t11 59.5t-11 60t-32.5 38t-52.5 13t-52 -13t-32 -38t-11 -60t11 -59.5t32 -37.5t52 -13zM342 610q-73 0 -125 43.5t-67 120.5l124 12
q9 -26 28 -40.5t40 -14.5t40 14.5t28 40.5l124 -12q-15 -77 -67 -120.5t-125 -43.5z" />
    <glyph glyph-name="Gdotaccent" unicode="&#x120;" horiz-adv-x="793" 
d="M414 -10q-90 0 -159.5 27t-117.5 76t-72.5 116t-24.5 146q0 80 27.5 146.5t79.5 115.5t123.5 76t159.5 27q61 0 113.5 -15t95 -40.5t73.5 -57.5l-128 -136q-20 19 -43 33.5t-51 23t-63 8.5q-36 0 -66 -13.5t-52 -37.5t-34.5 -57.5t-12.5 -72.5t13 -72.5t36 -57.5
t55 -37.5t70 -13.5q26 0 47.5 8.5t37 23t24.5 35t9 44.5v29l28 -48h-178v152h344q1 -11 2.5 -36t2 -49.5t0.5 -33.5q0 -67 -25 -124t-70.5 -98t-107.5 -64t-136 -23zM418 754q-54 0 -84.5 25t-30.5 71q0 42 31 69t84 27q54 0 84.5 -25t30.5 -71q0 -42 -31 -69t-84 -27z" />
    <glyph glyph-name="gdotaccent" unicode="&#x121;" horiz-adv-x="684" 
d="M319 -230q-72 0 -142.5 20t-115.5 52l69 136q22 -14 46 -24t50.5 -15t56.5 -5q47 0 76 12.5t42.5 39.5t13.5 69v80l45 -4q-8 -34 -35 -60t-67 -41t-85 -15q-71 0 -125.5 32t-86 89.5t-31.5 135.5q0 81 31 142.5t84.5 96.5t122.5 35q30 0 57 -6t50 -16.5t41 -25.5
t29.5 -33t15.5 -39l-41 -9l11 118h188v-483q0 -67 -20.5 -119.5t-59.5 -89t-94.5 -55t-125.5 -18.5zM324 160q31 0 52.5 13t32.5 37.5t11 59.5t-11 60t-32.5 38t-52.5 13t-52 -13t-32 -38t-11 -60t11 -59.5t32 -37.5t52 -13zM342 632q-54 0 -84.5 25t-30.5 71q0 42 31 69
t84 27q54 0 84.5 -25t30.5 -71q0 -42 -31 -69t-84 -27z" />
    <glyph glyph-name="uni0122" unicode="&#x122;" horiz-adv-x="793" 
d="M414 -10q-90 0 -159.5 27t-117.5 76t-72.5 116t-24.5 146q0 80 27.5 146.5t79.5 115.5t123.5 76t159.5 27q61 0 113.5 -15t95 -40.5t73.5 -57.5l-128 -136q-20 19 -43 33.5t-51 23t-63 8.5q-36 0 -66 -13.5t-52 -37.5t-34.5 -57.5t-12.5 -72.5t13 -72.5t36 -57.5
t55 -37.5t70 -13.5q26 0 47.5 8.5t37 23t24.5 35t9 44.5v29l28 -48h-178v152h344q1 -11 2.5 -36t2 -49.5t0.5 -33.5q0 -67 -25 -124t-70.5 -98t-107.5 -64t-136 -23zM338 -331l-52 64q14 5 34 14t36 21.5t16 26.5q0 10 -7.5 15t-20.5 12q-23 11 -34 26t-11 39
q0 40 26.5 58.5t65.5 18.5q49 0 83 -27t34 -85q0 -36 -11.5 -65.5t-34 -52t-54 -38.5t-70.5 -27z" />
    <glyph glyph-name="uni0123" unicode="&#x123;" horiz-adv-x="684" 
d="M319 -230q-72 0 -142.5 20t-115.5 52l69 136q22 -14 46 -24t50.5 -15t56.5 -5q47 0 76 12.5t42.5 39.5t13.5 69v80l45 -4q-8 -34 -35 -60t-67 -41t-85 -15q-71 0 -125.5 32t-86 89.5t-31.5 135.5q0 81 31 142.5t84.5 96.5t122.5 35q30 0 57 -6t50 -16.5t41 -25.5
t29.5 -33t15.5 -39l-41 -9l11 118h188v-483q0 -67 -20.5 -119.5t-59.5 -89t-94.5 -55t-125.5 -18.5zM324 160q31 0 52.5 13t32.5 37.5t11 59.5t-11 60t-32.5 38t-52.5 13t-52 -13t-32 -38t-11 -60t11 -59.5t32 -37.5t52 -13zM343 588q-47 0 -79.5 28.5t-32.5 88.5
q0 31 11.5 57t34 48t54 40t70.5 33l52 -64q-13 -5 -33.5 -14t-36.5 -21t-16 -27q0 -10 7.5 -15t20.5 -12q23 -11 34 -26t11 -39q0 -40 -28 -58.5t-69 -18.5z" />
    <glyph glyph-name="Hcircumflex" unicode="&#x124;" horiz-adv-x="793" 
d="M497 0v700h216v-700h-216zM80 0v700h216v-700h-216zM161 255l1 188h457v-188h-458zM259 753l-58 73l145 111h102l145 -111l-58 -73l-153 76h30z" />
    <glyph glyph-name="hcircumflex" unicode="&#x125;" horiz-adv-x="665" 
d="M70 0v740h198v-313l-43 -12q11 38 39.5 67.5t68.5 46.5t85 17q60 0 102 -25t63.5 -73.5t21.5 -117.5v-330h-203v313q0 22 -7 37t-21 23t-33 8q-15 0 -27.5 -4.5t-21.5 -13.5t-14 -20t-5 -25v-318h-101h-63.5h-38.5zM195 793l-58 73l145 111h102l145 -111l-58 -73l-153 76
h30z" />
    <glyph glyph-name="Hbar" unicode="&#x126;" horiz-adv-x="793" 
d="M17 488v164h73l99 -10h394l120 10h77v-164h-77l-108 10h-416l-89 -10h-73zM499 0v700h216v-700h-216zM82 0v700h216v-700h-216zM163 255l1 188h457v-188h-458z" />
    <glyph glyph-name="hbar" unicode="&#x127;" horiz-adv-x="665" 
d="M14 567v140h368v-140h-368zM70 0v740h198v-313l-43 -12q11 38 39.5 67.5t68.5 46.5t85 17q60 0 102 -25t63.5 -73.5t21.5 -117.5v-330h-203v313q0 22 -7 37t-21 23t-33 8q-15 0 -27.5 -4.5t-21.5 -13.5t-14 -20t-5 -25v-318h-101h-63.5h-38.5z" />
    <glyph glyph-name="Itilde" unicode="&#x128;" horiz-adv-x="612" 
d="M75 0v175h123v350h-123v175h462v-175h-123v-350h123v-175h-462zM385 768q-17 0 -35 5t-44 17q-19 9 -31.5 13.5t-22.5 4.5q-15 0 -23 -10.5t-8 -28.5h-117q0 75 37 119t101 44q15 0 31 -3.5t48 -19.5q18 -9 27 -13t18 -4q13 0 19.5 11t5.5 29h116q0 -46 -15.5 -83.5
t-43 -59t-63.5 -21.5z" />
    <glyph glyph-name="itilde" unicode="&#x129;" horiz-adv-x="323" 
d="M60 0v535h203v-535h-203zM243 613q-15 0 -35.5 4.5t-49.5 23.5q-17 12 -28.5 16.5t-18.5 4.5q-15 0 -26.5 -9.5t-13.5 -30.5l-105 14q0 62 32 104.5t87 42.5q15 0 34.5 -4t47.5 -22q9 -6 22.5 -14t26.5 -8q14 0 25 10t12 30l105 -15q0 -38 -14.5 -72t-40.5 -54.5
t-60 -20.5z" />
    <glyph glyph-name="Imacron" unicode="&#x12a;" horiz-adv-x="612" 
d="M75 0v175h123v350h-123v175h462v-175h-123v-350h123v-175h-462zM116 790v120h379v-120h-379z" />
    <glyph glyph-name="imacron" unicode="&#x12b;" horiz-adv-x="323" 
d="M60 0v535h203v-535h-203zM-25 638v120h374v-120h-374z" />
    <glyph glyph-name="Ibreve" unicode="&#x12c;" horiz-adv-x="612" 
d="M75 0v175h123v350h-123v175h462v-175h-123v-350h123v-175h-462zM306 762q-48 0 -88 19.5t-67 56.5t-37 88l124 12q9 -26 28 -40.5t40 -14.5t40 14.5t28 40.5l124 -12q-10 -51 -37 -88t-66.5 -56.5t-88.5 -19.5z" />
    <glyph glyph-name="ibreve" unicode="&#x12d;" horiz-adv-x="323" 
d="M60 0v535h203v-535h-203zM162 610q-73 0 -125 43.5t-67 120.5l124 12q9 -26 28 -40.5t40 -14.5t40 14.5t28 40.5l124 -12q-15 -77 -67 -120.5t-125 -43.5z" />
    <glyph glyph-name="Iogonek" unicode="&#x12e;" horiz-adv-x="612" 
d="M75 0v175h123v350h-123v175h462v-175h-123v-350h123v-175h-462zM360 -220q-37 0 -66.5 13.5t-46 38.5t-16.5 58q0 26 12 50t35 44.5t55.5 37t72.5 27.5l31 -49q-22 -3 -40.5 -14t-29 -25.5t-10.5 -30.5q0 -11 5.5 -19t16.5 -8q10 0 16.5 5.5t13.5 17.5l80 -59
q-18 -39 -49.5 -63t-79.5 -24z" />
    <glyph glyph-name="iogonek" unicode="&#x12f;" horiz-adv-x="323" 
d="M60 0v535h203v-535h-203zM162 632q-54 0 -84.5 25t-30.5 71q0 42 31 69t84 27q54 0 84.5 -25t30.5 -71q0 -42 -31 -69t-84 -27zM151 -219q-37 0 -66.5 15.5t-46 42t-16.5 59.5q0 26 10.5 48.5t32.5 41.5t55.5 34.5t79.5 27.5l44 -50q-26 -6 -48 -17t-35 -25.5t-13 -31.5
q0 -10 6 -16t17 -6q9 0 15 5.5t14 17.5l80 -59q-12 -20 -31.5 -40t-44 -33.5t-53.5 -13.5z" />
    <glyph glyph-name="Idotaccent" unicode="&#x130;" horiz-adv-x="612" 
d="M75 0v175h123v350h-123v175h462v-175h-123v-350h123v-175h-462zM306 754q-54 0 -84.5 25t-30.5 71q0 42 31 69t84 27q54 0 84.5 -25t30.5 -71q0 -42 -31 -69t-84 -27z" />
    <glyph glyph-name="dotlessi" unicode="&#x131;" horiz-adv-x="323" 
d="M60 0v535h203v-535h-203z" />
    <glyph glyph-name="IJ" unicode="&#x132;" horiz-adv-x="1294" 
d="M75 0v175h123v350h-123v175h462v-175h-123v-350h123v-175h-462zM877 -10q-42 0 -78 8.5t-65 24t-51.5 39t-39.5 53.5l119 123q9 -13 18.5 -24t19.5 -18.5t21.5 -12t23.5 -4.5q16 0 28 7.5t18.5 21t6.5 32.5v276h-129v184h445v-184h-108v-303q0 -54 -18 -95t-49 -70
t-72.5 -43.5t-89.5 -14.5z" />
    <glyph glyph-name="ij" unicode="&#x133;" horiz-adv-x="703" 
d="M73 0v535h203v-535h-203zM175 632q-54 0 -84.5 25t-30.5 71q0 42 31 69t84 27q54 0 84.5 -25t30.5 -71q0 -42 -31 -69t-84 -27zM383 -219l-77 157q51 0 77.5 10.5t36 39t9.5 83.5v464h203v-512q0 -89 -27.5 -142t-82.5 -76.5t-139 -23.5zM533 632q-54 0 -84.5 25
t-30.5 71q0 42 31 69t84 27q54 0 84.5 -25t30.5 -71q0 -42 -31 -69t-84 -27z" />
    <glyph glyph-name="Jcircumflex" unicode="&#x134;" horiz-adv-x="682" 
d="M265 -10q-42 0 -78 8.5t-65 24t-51.5 39t-39.5 53.5l119 123q9 -13 18.5 -24t19.5 -18.5t21.5 -12t23.5 -4.5q16 0 28 7.5t18.5 21t6.5 32.5v276h-129v184h445v-184h-108v-303q0 -54 -18 -95t-49 -70t-72.5 -43.5t-89.5 -14.5zM253 753l-58 73l145 111h102l145 -111
l-58 -73l-153 76h30z" />
    <glyph glyph-name="jcircumflex" unicode="&#x135;" horiz-adv-x="353" 
d="M33 -219l-77 157q51 0 77.5 10.5t36 39t9.5 83.5v464h203v-512q0 -89 -27.5 -142t-82.5 -76.5t-139 -23.5zM38 596l-72 62l166 142h102l166 -142l-72 -62l-160 96h30z" />
    <glyph glyph-name="uni0136" unicode="&#x136;" horiz-adv-x="744" 
d="M230 199l-73 160l333 341h245zM80 0v700h216v-700h-216zM519 0l-254 331l140 121l359 -452h-245zM313 -331l-52 64q14 5 34 14t36 21.5t16 26.5q0 10 -7.5 15t-20.5 12q-23 11 -34 26t-11 39q0 40 26.5 58.5t65.5 18.5q49 0 83 -27t34 -85q0 -36 -11.5 -65.5t-34 -52
t-54 -38.5t-70.5 -27z" />
    <glyph glyph-name="uni0137" unicode="&#x137;" horiz-adv-x="669" 
d="M269 150l-100 126l247 259h264zM70 0v740h203v-740h-203zM434 0l-178 251l142 102l268 -353h-232zM276 -331l-52 64q14 5 34 14t36 21t16 27q0 10 -7.5 15t-20.5 12q-23 11 -34 26t-11 39q0 40 28 58.5t69 18.5q47 0 79.5 -28.5t32.5 -88.5q0 -31 -11.5 -57t-34 -48
t-54 -40t-70.5 -33z" />
    <glyph glyph-name="kgreenlandic" unicode="&#x138;" horiz-adv-x="685" 
d="M269 120l-100 126l247 289h264zM70 0v535h203v-535h-203zM434 0l-168 251l142 102l258 -353h-232z" />
    <glyph glyph-name="Lacute" unicode="&#x139;" horiz-adv-x="616" 
d="M80 0v700h216v-516h300v-184h-516zM86 742l-43 102l228 116l60 -137z" />
    <glyph glyph-name="lacute" unicode="&#x13a;" horiz-adv-x="343" 
d="M70 0v740h203v-740h-203zM68 782l-43 102l228 116l60 -137z" />
    <glyph glyph-name="uni013B" unicode="&#x13b;" horiz-adv-x="616" 
d="M80 0v700h216v-516h300v-184h-516zM249 -331l-52 64q14 5 34 14t36 21.5t16 26.5q0 10 -7.5 15t-20.5 12q-23 11 -34 26t-11 39q0 40 26.5 58.5t65.5 18.5q49 0 83 -27t34 -85q0 -36 -11.5 -65.5t-34 -52t-54 -38.5t-70.5 -27z" />
    <glyph glyph-name="uni013C" unicode="&#x13c;" horiz-adv-x="343" 
d="M70 0v740h203v-740h-203zM113 -331l-52 64q14 5 34 14t36 21t16 27q0 10 -7.5 15t-20.5 12q-23 11 -34 26t-11 39q0 40 28 58.5t69 18.5q47 0 79.5 -28.5t32.5 -88.5q0 -31 -11.5 -57t-34 -48t-54 -40t-70.5 -33z" />
    <glyph glyph-name="Lcaron" unicode="&#x13d;" horiz-adv-x="616" 
d="M80 0v700h216v-516h300v-184h-516zM441 405l-52 64q14 5 34 14t36 21.5t16 26.5q0 10 -7.5 15t-20.5 12q-23 11 -34 26t-11 39q0 40 26.5 58.5t65.5 18.5q49 0 83 -27t34 -85q0 -36 -11.5 -65.5t-34 -52t-54 -38.5t-70.5 -27z" />
    <glyph glyph-name="lcaron" unicode="&#x13e;" horiz-adv-x="503" 
d="M70 0v740h203v-740h-203zM395 445l-52 64q14 5 34 14t36 21.5t16 26.5q0 10 -7.5 15t-20.5 12q-23 11 -34 26t-11 39q0 40 26.5 58.5t65.5 18.5q49 0 83 -27t34 -85q0 -36 -11.5 -65.5t-34 -52t-54 -38.5t-70.5 -27z" />
    <glyph glyph-name="Ldot" unicode="&#x13f;" horiz-adv-x="616" 
d="M80 0v700h216v-516h300v-184h-516zM500 299q-47 0 -73 26t-26 74q0 44 27.5 72t71.5 28q47 0 73 -26t26 -74q0 -44 -27.5 -72t-71.5 -28z" />
    <glyph glyph-name="ldot" unicode="&#x140;" horiz-adv-x="520" 
d="M70 0v740h203v-740h-203zM433 299q-47 0 -73 26t-26 74q0 44 27.5 72t71.5 28q47 0 73 -26t26 -74q0 -44 -27.5 -72t-71.5 -28z" />
    <glyph glyph-name="Lslash" unicode="&#x141;" horiz-adv-x="616" 
d="M18 224l-62 163l407 177l62 -163zM80 0v700h216v-516h300v-184h-516z" />
    <glyph glyph-name="lslash" unicode="&#x142;" horiz-adv-x="469" 
d="M62 224l-62 163l407 177l62 -163zM134 0v740h203v-740h-203z" />
    <glyph glyph-name="Nacute" unicode="&#x143;" horiz-adv-x="817" 
d="M80 0v700h193l322 -445l-46 14q-5 40 -8.5 70t-6 55.5t-4 50.5t-1.5 55v70v130h208v-700h-195l-355 490l81 -24q5 -37 8.5 -64.5t5.5 -50.5t3.5 -45.5t2 -50t0.5 -64.5v-191h-208zM305 742l-43 102l228 116l60 -137z" />
    <glyph glyph-name="nacute" unicode="&#x144;" horiz-adv-x="665" 
d="M70 0v535h188l10 -108l-43 -12q11 38 39.5 67.5t68.5 46.5t85 17q60 0 102 -25t63.5 -73.5t21.5 -117.5v-330h-203v313q0 22 -7 37t-21 23t-33 8q-15 0 -27.5 -4.5t-21.5 -13.5t-14 -20t-5 -25v-318h-101h-63.5h-38.5zM278 576l-58 89l206 154l80 -121z" />
    <glyph glyph-name="uni0145" unicode="&#x145;" horiz-adv-x="817" 
d="M80 0v700h193l322 -445l-46 14q-5 40 -8.5 70t-6 55.5t-4 50.5t-1.5 55v70v130h208v-700h-195l-355 490l81 -24q5 -37 8.5 -64.5t5.5 -50.5t3.5 -45.5t2 -50t0.5 -64.5v-191h-208zM350 -331l-52 64q14 5 34 14t36 21.5t16 26.5q0 10 -7.5 15t-20.5 12q-23 11 -34 26
t-11 39q0 40 26.5 58.5t65.5 18.5q49 0 83 -27t34 -85q0 -36 -11.5 -65.5t-34 -52t-54 -38.5t-70.5 -27z" />
    <glyph glyph-name="uni0146" unicode="&#x146;" horiz-adv-x="665" 
d="M70 0v535h188l10 -108l-43 -12q11 38 39.5 67.5t68.5 46.5t85 17q60 0 102 -25t63.5 -73.5t21.5 -117.5v-330h-203v313q0 22 -7 37t-21 23t-33 8q-15 0 -27.5 -4.5t-21.5 -13.5t-14 -20t-5 -25v-318h-101h-63.5h-38.5zM274 -331l-52 64q14 5 34 14t36 21t16 27
q0 10 -7.5 15t-20.5 12q-23 11 -34 26t-11 39q0 40 28 58.5t69 18.5q47 0 79.5 -28.5t32.5 -88.5q0 -31 -11.5 -57t-34 -48t-54 -40t-70.5 -33z" />
    <glyph glyph-name="Ncaron" unicode="&#x147;" horiz-adv-x="817" 
d="M80 0v700h193l322 -445l-46 14q-5 40 -8.5 70t-6 55.5t-4 50.5t-1.5 55v70v130h208v-700h-195l-355 490l81 -24q5 -37 8.5 -64.5t5.5 -50.5t3.5 -45.5t2 -50t0.5 -64.5v-191h-208zM358 753l-145 111l58 73l153 -76h-30l153 76l58 -73l-145 -111h-102z" />
    <glyph glyph-name="ncaron" unicode="&#x148;" horiz-adv-x="665" 
d="M70 0v535h188l10 -108l-43 -12q11 38 39.5 67.5t68.5 46.5t85 17q60 0 102 -25t63.5 -73.5t21.5 -117.5v-330h-203v313q0 22 -7 37t-21 23t-33 8q-15 0 -27.5 -4.5t-21.5 -13.5t-14 -20t-5 -25v-318h-101h-63.5h-38.5zM312 606l-166 142l72 62l160 -96h-30l160 96l72 -62
l-166 -142h-102z" />
    <glyph glyph-name="napostrophe" unicode="&#x149;" horiz-adv-x="695" 
d="M-120 432l18 268h198l-86 -268h-130zM100 0v535h188l10 -108l-43 -12q11 38 39.5 67.5t68.5 46.5t85 17q60 0 102 -25t63.5 -73.5t21.5 -117.5v-330h-203v313q0 22 -7 37t-21 23t-33 8q-15 0 -27.5 -4.5t-21.5 -13.5t-14 -20t-5 -25v-318h-101h-63.5h-38.5z" />
    <glyph glyph-name="Eng" unicode="&#x14a;" horiz-adv-x="817" 
d="M482 -207l-88 159q21 0 46 2.5t47 8.5t36 15t14 22v49l8 -52l-282 387l15 6q1 -13 2.5 -28.5t3 -32.5t2.5 -34t1.5 -33t0.5 -28v-234h-208v700h193l287 -396l-14 -6q-6 48 -9.5 81.5t-5.5 61t-2 57.5v72v130h208v-700q0 -76 -30 -121.5t-87 -65.5t-138 -20z" />
    <glyph glyph-name="eng" unicode="&#x14b;" horiz-adv-x="665" 
d="M350 -207l-76 159q68 0 97 27.5t31 82.5v251q0 22 -7 37t-21 23t-33 8q-15 0 -27.5 -4.5t-21.5 -13.5t-14 -20t-5 -25v-318h-203v535h188l5 -54q19 20 43.5 34.5t52.5 22.5t59 8q60 0 102 -25t63.5 -73.5t21.5 -117.5v-330q0 -73 -28 -118.5t-85 -67t-142 -21.5z" />
    <glyph glyph-name="Omacron" unicode="&#x14c;" horiz-adv-x="834" 
d="M418 -10q-83 0 -152 27t-120 76t-78.5 116t-27.5 146q0 80 27.5 146.5t78.5 115.5t120 76t151 27q83 0 151.5 -27t119.5 -76t78.5 -115.5t27.5 -145.5q0 -80 -27.5 -147t-78.5 -116t-119.5 -76t-150.5 -27zM417 190q34 0 62.5 12t50 34.5t33 52.5t11.5 66t-11.5 66
t-33 52.5t-50 34.5t-62.5 12t-62.5 -12t-50 -34.5t-33 -52.5t-11.5 -66t11.5 -66t33 -52.5t50 -34.5t62.5 -12zM227 790v120h379v-120h-379z" />
    <glyph glyph-name="omacron" unicode="&#x14d;" horiz-adv-x="660" 
d="M331 -10q-87 0 -155 36t-107 98.5t-39 143.5t39 143.5t107 98.5t155 36t154.5 -36t106 -98.5t38.5 -143.5t-38.5 -143.5t-106 -98.5t-154.5 -36zM331 160q27 0 48.5 14t33.5 38.5t12 55.5q0 32 -12 56.5t-33.5 38.5t-48.5 14q-28 0 -49.5 -14t-34 -38.5t-12.5 -56.5
q0 -31 12.5 -55.5t34 -38.5t49.5 -14zM143 638v120h374v-120h-374z" />
    <glyph glyph-name="Obreve" unicode="&#x14e;" horiz-adv-x="834" 
d="M418 -10q-83 0 -152 27t-120 76t-78.5 116t-27.5 146q0 80 27.5 146.5t78.5 115.5t120 76t151 27q83 0 151.5 -27t119.5 -76t78.5 -115.5t27.5 -145.5q0 -80 -27.5 -147t-78.5 -116t-119.5 -76t-150.5 -27zM417 190q34 0 62.5 12t50 34.5t33 52.5t11.5 66t-11.5 66
t-33 52.5t-50 34.5t-62.5 12t-62.5 -12t-50 -34.5t-33 -52.5t-11.5 -66t11.5 -66t33 -52.5t50 -34.5t62.5 -12zM417 762q-48 0 -88 19.5t-67 56.5t-37 88l124 12q9 -26 28 -40.5t40 -14.5t40 14.5t28 40.5l124 -12q-10 -51 -37 -88t-66.5 -56.5t-88.5 -19.5z" />
    <glyph glyph-name="obreve" unicode="&#x14f;" horiz-adv-x="660" 
d="M331 -10q-87 0 -155 36t-107 98.5t-39 143.5t39 143.5t107 98.5t155 36t154.5 -36t106 -98.5t38.5 -143.5t-38.5 -143.5t-106 -98.5t-154.5 -36zM331 160q27 0 48.5 14t33.5 38.5t12 55.5q0 32 -12 56.5t-33.5 38.5t-48.5 14q-28 0 -49.5 -14t-34 -38.5t-12.5 -56.5
q0 -31 12.5 -55.5t34 -38.5t49.5 -14zM330 610q-73 0 -125 43.5t-67 120.5l124 12q9 -26 28 -40.5t40 -14.5t40 14.5t28 40.5l124 -12q-15 -77 -67 -120.5t-125 -43.5z" />
    <glyph glyph-name="Ohungarumlaut" unicode="&#x150;" horiz-adv-x="834" 
d="M418 -10q-83 0 -152 27t-120 76t-78.5 116t-27.5 146q0 80 27.5 146.5t78.5 115.5t120 76t151 27q83 0 151.5 -27t119.5 -76t78.5 -115.5t27.5 -145.5q0 -80 -27.5 -147t-78.5 -116t-119.5 -76t-150.5 -27zM417 190q34 0 62.5 12t50 34.5t33 52.5t11.5 66t-11.5 66
t-33 52.5t-50 34.5t-62.5 12t-62.5 -12t-50 -34.5t-33 -52.5t-11.5 -66t11.5 -66t33 -52.5t50 -34.5t62.5 -12zM286 756l-61 85l165 148l81 -115zM525 752l-58 89l176 144l80 -121z" />
    <glyph glyph-name="ohungarumlaut" unicode="&#x151;" horiz-adv-x="660" 
d="M331 -10q-87 0 -155 36t-107 98.5t-39 143.5t39 143.5t107 98.5t155 36t154.5 -36t106 -98.5t38.5 -143.5t-38.5 -143.5t-106 -98.5t-154.5 -36zM331 160q27 0 48.5 14t33.5 38.5t12 55.5q0 32 -12 56.5t-33.5 38.5t-48.5 14q-28 0 -49.5 -14t-34 -38.5t-12.5 -56.5
q0 -31 12.5 -55.5t34 -38.5t49.5 -14zM390 578l-86 51l159 202l109 -96zM180 573l-92 45l141 214l117 -86z" />
    <glyph glyph-name="OE" unicode="&#x152;" horiz-adv-x="1117" 
d="M375 0q-77 0 -139 25t-105.5 71.5t-67 111t-23.5 142.5t25 142t71.5 111t112 72t146.5 25h675v-175h-333v-84h278v-164h-278v-102h333v-175h-695zM258 350q0 -39 10 -70t29 -52t46.5 -32.5t63.5 -11.5h123v332h-123q-36 0 -63.5 -11.5t-46.5 -33t-29 -52t-10 -69.5z" />
    <glyph glyph-name="oe" unicode="&#x153;" horiz-adv-x="992" 
d="M331 -10q-87 0 -155 36t-107 98.5t-39 143.5t39 143.5t107 98.5t155 36q45 0 84.5 -10t73.5 -30t60 -49h-33q22 29 51 49t64.5 30t75.5 10q59 0 107.5 -20.5t83.5 -58t53.5 -88.5t16.5 -111l-1 -42h-349l-8 95h222l-45 -34v32q0 20 -9.5 34t-27 22t-42.5 8
q-26 0 -43 -8.5t-26.5 -22.5t-13 -31t-3.5 -34q0 -38 11.5 -65.5t39 -42.5t74.5 -15q33 0 57 7.5t51 24.5l93 -131q-37 -28 -72.5 -44.5t-70 -23.5t-70.5 -7q-48 0 -89.5 10.5t-75.5 31.5t-60 52h32q-22 -31 -54 -52t-72 -31.5t-85 -10.5zM331 160q27 0 48.5 14t33.5 38.5
t12 55.5q0 32 -12 56.5t-33.5 38.5t-48.5 14q-28 0 -49.5 -14t-34 -38.5t-12.5 -56.5q0 -31 12.5 -55.5t34 -38.5t49.5 -14z" />
    <glyph glyph-name="Racute" unicode="&#x154;" horiz-adv-x="707" 
d="M80 0v700h328q73 0 130 -29t89 -79t32 -115q0 -73 -32 -128t-89 -85.5t-130 -30.5h-126v-233h-202zM447 0l-178 316l221 25l198 -341h-241zM282 383h92q25 0 41.5 9.5t25 26.5t8.5 41q0 22 -8.5 37.5t-26 24t-44.5 8.5h-88v-147zM240 742l-43 102l228 116l60 -137z" />
    <glyph glyph-name="racute" unicode="&#x155;" horiz-adv-x="493" 
d="M70 0v535h188l12 -178l-45 28q13 46 41 82.5t67.5 57.5t84.5 21q18 0 34 -2.5t31 -6.5l-56 -225q-10 7 -31.5 13t-46.5 6q-18 0 -32.5 -5.5t-24 -16.5t-14.5 -26t-5 -35v-248h-203zM192 576l-58 89l206 154l80 -121z" />
    <glyph glyph-name="uni0156" unicode="&#x156;" horiz-adv-x="707" 
d="M80 0v700h328q73 0 130 -29t89 -79t32 -115q0 -73 -32 -128t-89 -85.5t-130 -30.5h-126v-233h-202zM447 0l-178 316l221 25l198 -341h-241zM282 383h92q25 0 41.5 9.5t25 26.5t8.5 41q0 22 -8.5 37.5t-26 24t-44.5 8.5h-88v-147zM295 -331l-52 64q14 5 34 14t36 21.5
t16 26.5q0 10 -7.5 15t-20.5 12q-23 11 -34 26t-11 39q0 40 26.5 58.5t65.5 18.5q49 0 83 -27t34 -85q0 -36 -11.5 -65.5t-34 -52t-54 -38.5t-70.5 -27z" />
    <glyph glyph-name="uni0157" unicode="&#x157;" horiz-adv-x="493" 
d="M70 0v535h188l12 -178l-45 28q13 46 41 82.5t67.5 57.5t84.5 21q18 0 34 -2.5t31 -6.5l-56 -225q-10 7 -31.5 13t-46.5 6q-18 0 -32.5 -5.5t-24 -16.5t-14.5 -26t-5 -35v-248h-203zM105 -331l-52 64q14 5 34 14t36 21t16 27q0 10 -7.5 15t-20.5 12q-23 11 -34 26t-11 39
q0 40 28 58.5t69 18.5q47 0 79.5 -28.5t32.5 -88.5q0 -31 -11.5 -57t-34 -48t-54 -40t-70.5 -33z" />
    <glyph glyph-name="Rcaron" unicode="&#x158;" horiz-adv-x="707" 
d="M80 0v700h328q73 0 130 -29t89 -79t32 -115q0 -73 -32 -128t-89 -85.5t-130 -30.5h-126v-233h-202zM447 0l-178 316l221 25l198 -341h-241zM282 383h92q25 0 41.5 9.5t25 26.5t8.5 41q0 22 -8.5 37.5t-26 24t-44.5 8.5h-88v-147zM293 753l-145 111l58 73l153 -76h-30
l153 76l58 -73l-145 -111h-102z" />
    <glyph glyph-name="rcaron" unicode="&#x159;" horiz-adv-x="493" 
d="M70 0v535h188l12 -178l-45 28q13 46 41 82.5t67.5 57.5t84.5 21q18 0 34 -2.5t31 -6.5l-56 -225q-10 7 -31.5 13t-46.5 6q-18 0 -32.5 -5.5t-24 -16.5t-14.5 -26t-5 -35v-248h-203zM226 606l-166 142l72 62l160 -96h-30l160 96l72 -62l-166 -142h-102z" />
    <glyph glyph-name="Sacute" unicode="&#x15a;" horiz-adv-x="641" 
d="M325 -10q-79 0 -139.5 17.5t-106 49.5t-81.5 75l125 140q50 -64 104.5 -84.5t102.5 -20.5q19 0 34 3.5t23 11.5t8 22q0 13 -8.5 22t-22.5 15.5t-30.5 11t-32 7.5t-27.5 6q-60 14 -105 34t-75 48t-44.5 64t-14.5 81q0 51 23.5 93t63 72t90 46t104.5 16q79 0 132 -14.5
t89 -41.5t62 -63l-126 -121q-22 21 -46 34.5t-49.5 20t-50.5 6.5q-23 0 -39 -3.5t-25 -11t-9 -20.5t11.5 -21.5t29 -14.5t35 -9.5t29.5 -5.5q55 -10 101 -27.5t80.5 -44t53 -66t18.5 -93.5q0 -77 -38.5 -129t-103.5 -78.5t-145 -26.5zM227 742l-43 102l228 116l60 -137z" />
    <glyph glyph-name="sacute" unicode="&#x15b;" horiz-adv-x="507" 
d="M253 -10q-87 0 -151.5 26.5t-100.5 66.5l118 101q32 -28 73.5 -41.5t69.5 -13.5q10 0 17.5 1.5t12 5t7 7.5t2.5 10q0 15 -16 22q-9 4 -29.5 10t-53.5 14q-39 10 -71.5 25t-55.5 35q-24 22 -37.5 50t-13.5 63q0 41 19 73t52 54.5t74 34.5t84 12q49 0 91.5 -9.5t80 -27
t68.5 -41.5l-103 -115q-17 14 -39.5 27t-47 21.5t-45.5 8.5q-11 0 -18.5 -1.5t-12.5 -5t-7.5 -8t-2.5 -10.5q0 -8 5 -15t16 -12q9 -4 30.5 -11t63.5 -19q45 -13 79.5 -30t55.5 -40q14 -16 22 -36t8 -43q0 -55 -31.5 -97.5t-86.5 -67t-126 -24.5zM169 576l-58 89l206 154
l80 -121z" />
    <glyph glyph-name="Scircumflex" unicode="&#x15c;" horiz-adv-x="641" 
d="M325 -10q-79 0 -139.5 17.5t-106 49.5t-81.5 75l125 140q50 -64 104.5 -84.5t102.5 -20.5q19 0 34 3.5t23 11.5t8 22q0 13 -8.5 22t-22.5 15.5t-30.5 11t-32 7.5t-27.5 6q-60 14 -105 34t-75 48t-44.5 64t-14.5 81q0 51 23.5 93t63 72t90 46t104.5 16q79 0 132 -14.5
t89 -41.5t62 -63l-126 -121q-22 21 -46 34.5t-49.5 20t-50.5 6.5q-23 0 -39 -3.5t-25 -11t-9 -20.5t11.5 -21.5t29 -14.5t35 -9.5t29.5 -5.5q55 -10 101 -27.5t80.5 -44t53 -66t18.5 -93.5q0 -77 -38.5 -129t-103.5 -78.5t-145 -26.5zM193 753l-58 73l145 111h102l145 -111
l-58 -73l-153 76h30z" />
    <glyph glyph-name="scircumflex" unicode="&#x15d;" horiz-adv-x="507" 
d="M253 -10q-87 0 -151.5 26.5t-100.5 66.5l118 101q32 -28 73.5 -41.5t69.5 -13.5q10 0 17.5 1.5t12 5t7 7.5t2.5 10q0 15 -16 22q-9 4 -29.5 10t-53.5 14q-39 10 -71.5 25t-55.5 35q-24 22 -37.5 50t-13.5 63q0 41 19 73t52 54.5t74 34.5t84 12q49 0 91.5 -9.5t80 -27
t68.5 -41.5l-103 -115q-17 14 -39.5 27t-47 21.5t-45.5 8.5q-11 0 -18.5 -1.5t-12.5 -5t-7.5 -8t-2.5 -10.5q0 -8 5 -15t16 -12q9 -4 30.5 -11t63.5 -19q45 -13 79.5 -30t55.5 -40q14 -16 22 -36t8 -43q0 -55 -31.5 -97.5t-86.5 -67t-126 -24.5zM109 596l-72 62l166 142h102
l166 -142l-72 -62l-160 96h30z" />
    <glyph glyph-name="Scedilla" unicode="&#x15e;" horiz-adv-x="641" 
d="M325 -10q-79 0 -139.5 17.5t-106 49.5t-81.5 75l125 140q50 -64 104.5 -84.5t102.5 -20.5q19 0 34 3.5t23 11.5t8 22q0 13 -8.5 22t-22.5 15.5t-30.5 11t-32 7.5t-27.5 6q-60 14 -105 34t-75 48t-44.5 64t-14.5 81q0 51 23.5 93t63 72t90 46t104.5 16q79 0 132 -14.5
t89 -41.5t62 -63l-126 -121q-22 21 -46 34.5t-49.5 20t-50.5 6.5q-23 0 -39 -3.5t-25 -11t-9 -20.5t11.5 -21.5t29 -14.5t35 -9.5t29.5 -5.5q55 -10 101 -27.5t80.5 -44t53 -66t18.5 -93.5q0 -77 -38.5 -129t-103.5 -78.5t-145 -26.5zM236 -247l-11 91q18 0 38 3t34 10
t14 18q0 10 -7.5 16.5t-20 9.5t-29.5 3l-21 16l67 104h99l-48 -64q54 -4 79.5 -32.5t25.5 -66.5q0 -34 -20.5 -55.5t-54 -33.5t-71.5 -16t-74 -3z" />
    <glyph glyph-name="scedilla" unicode="&#x15f;" horiz-adv-x="507" 
d="M253 -10q-87 0 -151.5 26.5t-100.5 66.5l118 101q32 -28 73.5 -41.5t69.5 -13.5q10 0 17.5 1.5t12 5t7 7.5t2.5 10q0 15 -16 22q-9 4 -29.5 10t-53.5 14q-39 10 -71.5 25t-55.5 35q-24 22 -37.5 50t-13.5 63q0 41 19 73t52 54.5t74 34.5t84 12q49 0 91.5 -9.5t80 -27
t68.5 -41.5l-103 -115q-17 14 -39.5 27t-47 21.5t-45.5 8.5q-11 0 -18.5 -1.5t-12.5 -5t-7.5 -8t-2.5 -10.5q0 -8 5 -15t16 -12q9 -4 30.5 -11t63.5 -19q45 -13 79.5 -30t55.5 -40q14 -16 22 -36t8 -43q0 -55 -31.5 -97.5t-86.5 -67t-126 -24.5zM149 -247l-11 91q18 0 38 3
t34 10t14 18q0 10 -7.5 16.5t-20 9.5t-29.5 3l-21 16l67 104h99l-48 -64q54 -4 79.5 -32.5t25.5 -66.5q0 -34 -20.5 -55.5t-54 -33.5t-71.5 -16t-74 -3z" />
    <glyph glyph-name="Scaron" unicode="&#x160;" horiz-adv-x="641" 
d="M325 -10q-79 0 -139.5 17.5t-106 49.5t-81.5 75l125 140q50 -64 104.5 -84.5t102.5 -20.5q19 0 34 3.5t23 11.5t8 22q0 13 -8.5 22t-22.5 15.5t-30.5 11t-32 7.5t-27.5 6q-60 14 -105 34t-75 48t-44.5 64t-14.5 81q0 51 23.5 93t63 72t90 46t104.5 16q79 0 132 -14.5
t89 -41.5t62 -63l-126 -121q-22 21 -46 34.5t-49.5 20t-50.5 6.5q-23 0 -39 -3.5t-25 -11t-9 -20.5t11.5 -21.5t29 -14.5t35 -9.5t29.5 -5.5q55 -10 101 -27.5t80.5 -44t53 -66t18.5 -93.5q0 -77 -38.5 -129t-103.5 -78.5t-145 -26.5zM281 753l-145 111l58 73l153 -76h-30
l153 76l58 -73l-145 -111h-102z" />
    <glyph glyph-name="scaron" unicode="&#x161;" horiz-adv-x="507" 
d="M253 -10q-87 0 -151.5 26.5t-100.5 66.5l118 101q32 -28 73.5 -41.5t69.5 -13.5q10 0 17.5 1.5t12 5t7 7.5t2.5 10q0 15 -16 22q-9 4 -29.5 10t-53.5 14q-39 10 -71.5 25t-55.5 35q-24 22 -37.5 50t-13.5 63q0 41 19 73t52 54.5t74 34.5t84 12q49 0 91.5 -9.5t80 -27
t68.5 -41.5l-103 -115q-17 14 -39.5 27t-47 21.5t-45.5 8.5q-11 0 -18.5 -1.5t-12.5 -5t-7.5 -8t-2.5 -10.5q0 -8 5 -15t16 -12q9 -4 30.5 -11t63.5 -19q45 -13 79.5 -30t55.5 -40q14 -16 22 -36t8 -43q0 -55 -31.5 -97.5t-86.5 -67t-126 -24.5zM203 606l-166 142l72 62
l160 -96h-30l160 96l72 -62l-166 -142h-102z" />
    <glyph glyph-name="uni0162" unicode="&#x162;" horiz-adv-x="714" 
d="M246 0v516h-216v184h654v-184h-222v-516h-216zM252 -247l-11 91q18 0 38 3t34 10t14 18q0 10 -7.5 16.5t-20 9.5t-29.5 3l-21 16l67 104h99l-48 -64q54 -4 79.5 -32.5t25.5 -66.5q0 -34 -20.5 -55.5t-54 -33.5t-71.5 -16t-74 -3z" />
    <glyph glyph-name="uni0163" unicode="&#x163;" horiz-adv-x="409" 
d="M98 0v670h203v-670h-203zM15 365v170h374v-170h-374zM100 -247l-11 91q18 0 38 3t34 10t14 18q0 10 -7.5 16.5t-20 9.5t-29.5 3l-21 16l67 104h99l-48 -64q54 -4 79.5 -32.5t25.5 -66.5q0 -34 -20.5 -55.5t-54 -33.5t-71.5 -16t-74 -3z" />
    <glyph glyph-name="Tcaron" unicode="&#x164;" horiz-adv-x="714" 
d="M246 0v516h-216v184h654v-184h-222v-516h-216zM306 753l-145 111l58 73l153 -76h-30l153 76l58 -73l-145 -111h-102z" />
    <glyph glyph-name="tcaron" unicode="&#x165;" horiz-adv-x="409" 
d="M98 0v670h203v-670h-203zM15 365v170h374v-170h-374zM377 565l-52 64q14 5 34 14t36 21.5t16 26.5q0 10 -7.5 15t-20.5 12q-23 11 -34 26t-11 39q0 40 26.5 58.5t65.5 18.5q49 0 83 -27t34 -85q0 -36 -11.5 -65.5t-34 -52t-54 -38.5t-70.5 -27z" />
    <glyph glyph-name="Tbar" unicode="&#x166;" horiz-adv-x="714" 
d="M180 281v140h368v-140h-368zM246 0v516h-216v184h654v-184h-222v-516h-216z" />
    <glyph glyph-name="tbar" unicode="&#x167;" horiz-adv-x="409" 
d="M18 178v140h368v-140h-368zM98 0v670h203v-670h-203zM15 365v170h374v-170h-374z" />
    <glyph glyph-name="Utilde" unicode="&#x168;" horiz-adv-x="784" 
d="M392 -6q-91 0 -161.5 35.5t-110.5 97.5t-40 142v431h218v-422q0 -29 12 -51.5t33.5 -35.5t48.5 -13q29 0 51 13t35 35.5t13 51.5v422h213v-431q0 -80 -40 -142t-110.5 -97.5t-161.5 -35.5zM471 768q-17 0 -35 5t-44 17q-19 9 -31.5 13.5t-22.5 4.5q-15 0 -23 -10.5
t-8 -28.5h-117q0 75 37 119t101 44q15 0 31 -3.5t48 -19.5q18 -9 27 -13t18 -4q13 0 19.5 11t5.5 29h116q0 -46 -15.5 -83.5t-43 -59t-63.5 -21.5z" />
    <glyph glyph-name="utilde" unicode="&#x169;" horiz-adv-x="669" 
d="M249 -11q-61 0 -103 25t-64 73.5t-22 117.5v330h203v-313q0 -22 7.5 -37t21.5 -23t34 -8q15 0 27.5 4.5t21.5 13.5t14 20.5t5 24.5v318h203v-535h-186l-12 108l38 12q-11 -38 -38.5 -67.5t-66.5 -46.5t-83 -17zM416 613q-15 0 -35.5 4.5t-49.5 23.5q-17 12 -28.5 16.5
t-18.5 4.5q-15 0 -26.5 -9.5t-13.5 -30.5l-105 14q0 62 32 104.5t87 42.5q15 0 34.5 -4t47.5 -22q9 -6 22.5 -14t26.5 -8q14 0 25 10t12 30l105 -15q0 -38 -14.5 -72t-40.5 -54.5t-60 -20.5z" />
    <glyph glyph-name="Umacron" unicode="&#x16a;" horiz-adv-x="784" 
d="M392 -6q-91 0 -161.5 35.5t-110.5 97.5t-40 142v431h218v-422q0 -29 12 -51.5t33.5 -35.5t48.5 -13q29 0 51 13t35 35.5t13 51.5v422h213v-431q0 -80 -40 -142t-110.5 -97.5t-161.5 -35.5zM202 790v120h379v-120h-379z" />
    <glyph glyph-name="umacron" unicode="&#x16b;" horiz-adv-x="669" 
d="M249 -11q-61 0 -103 25t-64 73.5t-22 117.5v330h203v-313q0 -22 7.5 -37t21.5 -23t34 -8q15 0 27.5 4.5t21.5 13.5t14 20.5t5 24.5v318h203v-535h-186l-12 108l38 12q-11 -38 -38.5 -67.5t-66.5 -46.5t-83 -17zM148 638v120h374v-120h-374z" />
    <glyph glyph-name="Ubreve" unicode="&#x16c;" horiz-adv-x="784" 
d="M392 -6q-91 0 -161.5 35.5t-110.5 97.5t-40 142v431h218v-422q0 -29 12 -51.5t33.5 -35.5t48.5 -13q29 0 51 13t35 35.5t13 51.5v422h213v-431q0 -80 -40 -142t-110.5 -97.5t-161.5 -35.5zM392 762q-48 0 -88 19.5t-67 56.5t-37 88l124 12q9 -26 28 -40.5t40 -14.5
t40 14.5t28 40.5l124 -12q-10 -51 -37 -88t-66.5 -56.5t-88.5 -19.5z" />
    <glyph glyph-name="ubreve" unicode="&#x16d;" horiz-adv-x="669" 
d="M249 -11q-61 0 -103 25t-64 73.5t-22 117.5v330h203v-313q0 -22 7.5 -37t21.5 -23t34 -8q15 0 27.5 4.5t21.5 13.5t14 20.5t5 24.5v318h203v-535h-186l-12 108l38 12q-11 -38 -38.5 -67.5t-66.5 -46.5t-83 -17zM335 610q-73 0 -125 43.5t-67 120.5l124 12q9 -26 28 -40.5
t40 -14.5t40 14.5t28 40.5l124 -12q-15 -77 -67 -120.5t-125 -43.5z" />
    <glyph glyph-name="Uring" unicode="&#x16e;" horiz-adv-x="784" 
d="M392 -6q-91 0 -161.5 35.5t-110.5 97.5t-40 142v431h218v-422q0 -29 12 -51.5t33.5 -35.5t48.5 -13q29 0 51 13t35 35.5t13 51.5v422h213v-431q0 -80 -40 -142t-110.5 -97.5t-161.5 -35.5zM392 669q-40 0 -74 19t-55 49.5t-21 66.5q0 40 20.5 73t54.5 53t75 20
q40 0 74 -20t54.5 -53t20.5 -73q0 -36 -20.5 -66.5t-54.5 -49.5t-74 -19zM392 768q14 0 24.5 10.5t10.5 25.5q0 16 -10.5 26.5t-24.5 10.5t-24.5 -10.5t-10.5 -26.5q0 -15 10.5 -25.5t24.5 -10.5z" />
    <glyph glyph-name="uring" unicode="&#x16f;" horiz-adv-x="669" 
d="M249 -11q-61 0 -103 25t-64 73.5t-22 117.5v330h203v-313q0 -22 7.5 -37t21.5 -23t34 -8q15 0 27.5 4.5t21.5 13.5t14 20.5t5 24.5v318h203v-535h-186l-12 108l38 12q-11 -38 -38.5 -67.5t-66.5 -46.5t-83 -17zM335 604q-34 0 -63.5 17t-47.5 45t-18 62q0 35 17.5 63.5
t47 45.5t64.5 17q36 0 65 -17t46.5 -45.5t17.5 -63.5q0 -34 -18 -62t-47 -45t-64 -17zM335 700q12 0 20 8t8 20q0 13 -8 21.5t-20 8.5t-20 -8t-8 -21t8 -21t20 -8z" />
    <glyph glyph-name="Uhungarumlaut" unicode="&#x170;" horiz-adv-x="784" 
d="M392 -6q-91 0 -161.5 35.5t-110.5 97.5t-40 142v431h218v-422q0 -29 12 -51.5t33.5 -35.5t48.5 -13q29 0 51 13t35 35.5t13 51.5v422h213v-431q0 -80 -40 -142t-110.5 -97.5t-161.5 -35.5zM261 756l-61 85l165 148l81 -115zM500 752l-58 89l176 144l80 -121z" />
    <glyph glyph-name="uhungarumlaut" unicode="&#x171;" horiz-adv-x="669" 
d="M249 -11q-61 0 -103 25t-64 73.5t-22 117.5v330h203v-313q0 -22 7.5 -37t21.5 -23t34 -8q15 0 27.5 4.5t21.5 13.5t14 20.5t5 24.5v318h203v-535h-186l-12 108l38 12q-11 -38 -38.5 -67.5t-66.5 -46.5t-83 -17zM395 578l-86 51l159 202l109 -96zM185 573l-92 45l141 214
l117 -86z" />
    <glyph glyph-name="Uogonek" unicode="&#x172;" horiz-adv-x="784" 
d="M475 -220q-55 0 -88.5 33.5t-33.5 83.5q0 35 15.5 64t44 53.5t66.5 46.5t83 43l32 -49q-19 -12 -39 -25.5t-37.5 -28t-28 -31.5t-10.5 -37q0 -13 7 -21.5t17 -8.5t16.5 5.5t13.5 17.5l80 -59q-19 -34 -53.5 -60.5t-84.5 -26.5zM392 -6q-91 0 -161.5 35.5t-110.5 97.5
t-40 142v431h218v-422q0 -29 12 -51.5t33.5 -35.5t48.5 -13q29 0 51 13t35 35.5t13 51.5v422h213v-431q0 -80 -40 -142t-110.5 -97.5t-161.5 -35.5z" />
    <glyph glyph-name="uogonek" unicode="&#x173;" horiz-adv-x="669" 
d="M249 -11q-61 0 -103 25t-64 73.5t-22 117.5v330h203v-313q0 -22 7.5 -37t21.5 -23t34 -8q15 0 27.5 4.5t21.5 13.5t14 20.5t5 24.5v318h203v-535h-186l-12 108l38 12q-11 -38 -38.5 -67.5t-66.5 -46.5t-83 -17zM464 -219q-37 0 -66.5 15.5t-46 42t-16.5 59.5
q0 26 10.5 48.5t32.5 41.5t55.5 34.5t79.5 27.5l44 -50q-26 -6 -48 -17t-35 -25.5t-13 -31.5q0 -10 6 -16t17 -6q9 0 15 5.5t14 17.5l80 -59q-12 -20 -31.5 -40t-44 -33.5t-53.5 -13.5z" />
    <glyph glyph-name="Wcircumflex" unicode="&#x174;" horiz-adv-x="990" 
d="M189 0l-199 700h216l82 -316q8 -31 13.5 -59.5t8.5 -52.5t4.5 -44t1.5 -34h-16q0 25 1.5 53.5t7.5 62t20 74.5l87 247h165l87 -247q14 -40 22 -73.5t11.5 -62t3.5 -54.5h-15v27t0.5 33t2.5 38.5t6 43.5t10 48l82 316h209l-201 -700h-170l-152 377h27l-135 -377h-180z
M357 753l-58 73l145 111h102l145 -111l-58 -73l-153 76h30z" />
    <glyph glyph-name="wcircumflex" unicode="&#x175;" horiz-adv-x="859" 
d="M177 0l-172 535h216l77 -309l-20 4l88 240h118l98 -240l-20 -3l76 308h216l-183 -535h-154l-92 248h4l-98 -248h-154zM285 596l-72 62l166 142h102l166 -142l-72 -62l-160 96h30z" />
    <glyph glyph-name="Ycircumflex" unicode="&#x176;" horiz-adv-x="710" 
d="M256 0v349l7 -49l-283 400h240l216 -310l-135 3l195 307h234l-271 -411l15 68v-357h-218zM217 753l-58 73l145 111h102l145 -111l-58 -73l-153 76h30z" />
    <glyph glyph-name="ycircumflex" unicode="&#x177;" horiz-adv-x="649" 
d="M121 -230l133 314l2 -82l-251 533h226l74 -178q12 -28 20.5 -53t12.5 -47l-20 -18q4 11 12 34.5t18 54.5l70 207h226l-233 -535l-94 -230h-196zM180 596l-72 62l166 142h102l166 -142l-72 -62l-160 96h30z" />
    <glyph glyph-name="Ydieresis" unicode="&#x178;" horiz-adv-x="710" 
d="M256 0v349l7 -49l-283 400h240l216 -310l-135 3l195 307h234l-271 -411l15 68v-357h-218zM490 750q-48 0 -74 26t-26 74q0 44 27 72t73 28q48 0 74 -25.5t26 -74.5q0 -44 -27 -72t-73 -28zM219 750q-48 0 -74 26t-26 74q0 44 27 72t73 28q48 0 74 -25.5t26 -74.5
q0 -44 -27 -72t-73 -28z" />
    <glyph glyph-name="Zacute" unicode="&#x179;" horiz-adv-x="701" 
d="M60 0v139l359 474l92 -107h-425v194h544v-138l-357 -475l-93 95h461v-182h-581zM248 742l-43 102l228 116l60 -137z" />
    <glyph glyph-name="zacute" unicode="&#x17a;" horiz-adv-x="599" 
d="M50 0v96l291 362v-83h-291v160h483v-104l-267 -347l-4 76h281v-160h-493zM215 576l-58 89l206 154l80 -121z" />
    <glyph glyph-name="Zdotaccent" unicode="&#x17b;" horiz-adv-x="701" 
d="M60 0v139l359 474l92 -107h-425v194h544v-138l-357 -475l-93 95h461v-182h-581zM351 754q-54 0 -84.5 25t-30.5 71q0 42 31 69t84 27q54 0 84.5 -25t30.5 -71q0 -42 -31 -69t-84 -27z" />
    <glyph glyph-name="zdotaccent" unicode="&#x17c;" horiz-adv-x="599" 
d="M50 0v96l291 362v-83h-291v160h483v-104l-267 -347l-4 76h281v-160h-493zM300 632q-54 0 -84.5 25t-30.5 71q0 42 31 69t84 27q54 0 84.5 -25t30.5 -71q0 -42 -31 -69t-84 -27z" />
    <glyph glyph-name="Zcaron" unicode="&#x17d;" horiz-adv-x="701" 
d="M60 0v139l359 474l92 -107h-425v194h544v-138l-357 -475l-93 95h461v-182h-581zM300 753l-145 111l58 73l153 -76h-30l153 76l58 -73l-145 -111h-102z" />
    <glyph glyph-name="zcaron" unicode="&#x17e;" horiz-adv-x="599" 
d="M50 0v96l291 362v-83h-291v160h483v-104l-267 -347l-4 76h281v-160h-493zM249 606l-166 142l72 62l160 -96h-30l160 96l72 -62l-166 -142h-102z" />
    <glyph glyph-name="uni018F" unicode="&#x18f;" horiz-adv-x="764" 
d="M382 -10q-68 0 -128.5 24t-107 68t-75 103t-31.5 128v114h638l9 -166h-413q9 -18 21 -31.5t26 -22t30 -13t31 -4.5q27 0 49 9.5t38.5 29.5t25.5 50t9 72q0 36 -10.5 65.5t-29.5 50.5t-45.5 32t-59.5 11q-37 0 -66 -6t-56 -19t-59 -35l-77 171q48 32 88.5 51.5t85.5 28.5
t104 9q71 0 133.5 -28t110 -77.5t74.5 -114.5t27 -140t-26.5 -140t-74 -114.5t-109 -77.5t-132.5 -28z" />
    <glyph glyph-name="florin" unicode="&#x192;" horiz-adv-x="585" 
d="M122 -31q-37 0 -70 7t-62 25l72 170q16 -8 28.5 -11.5t29.5 -3.5q13 0 22.5 8.5t16.5 25t12 41.5l45 279q16 101 77 148t159 47q40 0 74 -9.5t67 -30.5l-72 -170q-15 13 -27 18t-28 5q-22 0 -32 -15t-14 -37l-48 -284q-19 -110 -83 -161.5t-167 -51.5zM97 272v163l399 -1
v-163z" />
    <glyph glyph-name="uni019D" unicode="&#x19d;" horiz-adv-x="812" 
d="M28 -207l-88 159q68 0 101.5 29.5t33.5 89.5v629h193l322 -445l-46 14q-6 50 -10 85t-6 65.5t-3 65.5t-1 85v130h208v-700h-195l-355 490l81 -24q6 -45 10 -79t6 -61.5t3 -54t1 -56.5v-70v-122q0 -85 -28 -135.5t-85 -72.5t-142 -22z" />
    <glyph glyph-name="Ohorn" unicode="&#x1a0;" horiz-adv-x="834" 
d="M417 -10q-82 0 -151 27t-120 76t-78.5 116t-27.5 146q0 80 27.5 146.5t78.5 115.5t120 76t151 27q19 0 43 -3t49 -8q19 -4 37.5 -8.5t38.5 -4.5q26 0 44 15.5t27.5 46t9.5 76.5h152q0 -42 -7 -83t-25.5 -74t-53 -52.5t-90.5 -19.5l36 22q37 -33 62.5 -75t39.5 -91.5
t14 -105.5q0 -79 -27.5 -146t-78.5 -116t-119.5 -76t-151.5 -27zM417 190q34 0 62.5 12t50 34.5t33 52.5t11.5 66t-11.5 66t-33 52.5t-50 34.5t-62.5 12t-62.5 -12t-50 -34.5t-33 -52.5t-11.5 -66t11.5 -66t33 -52.5t50 -34.5t62.5 -12z" />
    <glyph glyph-name="ohorn" unicode="&#x1a1;" horiz-adv-x="660" 
d="M331 -10q-87 0 -155 36t-107 98.5t-39 143.5t39 143.5t107 98.5t155 36q13 0 27.5 -1.5t27.5 -3.5q12 -2 22.5 -4t18.5 -2q42 0 64.5 29.5t22.5 84.5h152q0 -47 -14.5 -89t-46.5 -71.5t-83 -39.5l17 24q43 -37 67 -89.5t24 -115.5q0 -81 -38.5 -143.5t-106 -98.5
t-154.5 -36zM331 160q27 0 48.5 14t33.5 38.5t12 55.5q0 32 -12 56.5t-33.5 38.5t-48.5 14q-28 0 -49.5 -14t-34 -38.5t-12.5 -56.5q0 -31 12.5 -55.5t34 -38.5t49.5 -14z" />
    <glyph glyph-name="Uhorn" unicode="&#x1af;" horiz-adv-x="784" 
d="M392 -6q-91 0 -161.5 35.5t-110.5 97.5t-40 142v431h218v-422q0 -29 12 -51.5t33.5 -35.5t48.5 -13q29 0 51 13t35 35.5t13 51.5v422h79q45 0 67 33.5t22 100.5h152q0 -53 -16.5 -101t-53 -80t-96.5 -37l59 43v-390q0 -80 -40 -142t-110.5 -97.5t-161.5 -35.5z" />
    <glyph glyph-name="uhorn" unicode="&#x1b0;" horiz-adv-x="669" 
d="M249 -11q-61 0 -103 25t-64 73.5t-22 117.5v330h203v-313q0 -22 7.5 -37t21.5 -23t34 -8q15 0 27.5 4.5t21.5 13.5t14 20.5t5 24.5v318q52 0 84.5 6t50.5 19t25 35t7 54h152q0 -51 -17.5 -96.5t-52.5 -74t-88 -28.5l42 36v-486h-186l-12 104l22 -22q-16 -28 -42.5 -49
t-59.5 -32.5t-70 -11.5z" />
    <glyph glyph-name="uni01C4" unicode="&#x1c4;" horiz-adv-x="1446" 
d="M80 0v700h308q79 0 145 -26t115 -72.5t75.5 -110.5t26.5 -141q0 -76 -26.5 -140.5t-75.5 -111t-115 -72.5t-145 -26h-308zM296 133l-37 51h124q33 0 60 12.5t47 34.5t31 52.5t11 66.5t-11 66.5t-31 52.5t-47 34.5t-60 12.5h-127l40 49v-432zM805 0v139l359 474l92 -107
h-425v194h544v-138l-357 -475l-93 95h461v-182h-581zM1045 753l-145 111l58 73l153 -76h-30l153 76l58 -73l-145 -111h-102z" />
    <glyph glyph-name="uni01C5" unicode="&#x1c5;" horiz-adv-x="1388" 
d="M80 0v700h308q79 0 145 -26t115 -72.5t75.5 -110.5t26.5 -141q0 -76 -26.5 -140.5t-75.5 -111t-115 -72.5t-145 -26h-308zM296 133l-37 51h124q33 0 60 12.5t47 34.5t31 52.5t11 66.5t-11 66.5t-31 52.5t-47 34.5t-60 12.5h-127l40 49v-432zM839 0v96l291 362v-83h-291
v160h483v-104l-267 -347l-4 76h281v-160h-493zM1038 606l-166 142l72 62l160 -96h-30l160 96l72 -62l-166 -142h-102z" />
    <glyph glyph-name="uni01C6" unicode="&#x1c6;" horiz-adv-x="1268" 
d="M258 -11q-66 0 -117.5 35.5t-81 98t-29.5 144.5q0 81 30 144t82.5 99t120.5 36q34 0 65 -9.5t56 -27t42.5 -41t23.5 -50.5l-45 -14v336h204v-740h-183l-16 118l41 -9q-5 -26 -22 -48t-42.5 -38t-58.5 -25t-70 -9zM319 154q29 0 49.5 13.5t31 38.5t10.5 61t-10.5 61.5
t-31 38.5t-49.5 13t-49 -13t-30.5 -38.5t-10.5 -61.5t10.5 -61t30.5 -38.5t49 -13.5zM719 0v96l291 362v-83h-291v160h483v-104l-267 -347l-4 76h281v-160h-493zM918 606l-166 142l72 62l160 -96h-30l160 96l72 -62l-166 -142h-102z" />
    <glyph glyph-name="uni01C7" unicode="&#x1c7;" horiz-adv-x="1298" 
d="M80 0v700h216v-516h300v-184h-516zM881 -10q-42 0 -78 8.5t-65 24t-51.5 39t-39.5 53.5l119 123q9 -13 18.5 -24t19.5 -18.5t21.5 -12t23.5 -4.5q16 0 28 7.5t18.5 21t6.5 32.5v276h-129v184h445v-184h-108v-303q0 -54 -18 -95t-49 -70t-72.5 -43.5t-89.5 -14.5z" />
    <glyph glyph-name="uni01C8" unicode="&#x1c8;" horiz-adv-x="969" 
d="M80 0v700h216v-516h300v-184h-516zM649 -219l-77 157q51 0 77.5 10.5t36 39t9.5 83.5v464h203v-512q0 -89 -27.5 -142t-82.5 -76.5t-139 -23.5zM799 632q-54 0 -84.5 25t-30.5 71q0 42 31 69t84 27q54 0 84.5 -25t30.5 -71q0 -42 -31 -69t-84 -27z" />
    <glyph glyph-name="uni01C9" unicode="&#x1c9;" horiz-adv-x="682" 
d="M70 0v740h203v-740h-203zM362 -219l-77 157q51 0 77.5 10.5t36 39t9.5 83.5v464h203v-512q0 -89 -27.5 -142t-82.5 -76.5t-139 -23.5zM512 632q-54 0 -84.5 25t-30.5 71q0 42 31 69t84 27q54 0 84.5 -25t30.5 -71q0 -42 -31 -69t-84 -27z" />
    <glyph glyph-name="uni01CA" unicode="&#x1ca;" horiz-adv-x="1499" 
d="M80 0v700h193l322 -445l-46 14q-5 40 -8.5 70t-6 55.5t-4 50.5t-1.5 55v70v130h208v-700h-195l-355 490l81 -24q5 -37 8.5 -64.5t5.5 -50.5t3.5 -45.5t2 -50t0.5 -64.5v-191h-208zM1082 -10q-42 0 -78 8.5t-65 24t-51.5 39t-39.5 53.5l119 123q9 -13 18.5 -24t19.5 -18.5
t21.5 -12t23.5 -4.5q16 0 28 7.5t18.5 21t6.5 32.5v276h-129v184h445v-184h-108v-303q0 -54 -18 -95t-49 -70t-72.5 -43.5t-89.5 -14.5z" />
    <glyph glyph-name="uni01CB" unicode="&#x1cb;" horiz-adv-x="1170" 
d="M80 0v700h193l322 -445l-46 14q-5 40 -8.5 70t-6 55.5t-4 50.5t-1.5 55v70v130h208v-700h-195l-355 490l81 -24q5 -37 8.5 -64.5t5.5 -50.5t3.5 -45.5t2 -50t0.5 -64.5v-191h-208zM850 -219l-77 157q51 0 77.5 10.5t36 39t9.5 83.5v464h203v-512q0 -89 -27.5 -142
t-82.5 -76.5t-139 -23.5zM1000 632q-54 0 -84.5 25t-30.5 71q0 42 31 69t84 27q54 0 84.5 -25t30.5 -71q0 -42 -31 -69t-84 -27z" />
    <glyph glyph-name="uni01CC" unicode="&#x1cc;" horiz-adv-x="1018" 
d="M70 0v535h188l10 -108l-43 -12q11 38 39.5 67.5t68.5 46.5t85 17q60 0 102 -25t63.5 -73.5t21.5 -117.5v-330h-203v313q0 22 -7 37t-21 23t-33 8q-15 0 -27.5 -4.5t-21.5 -13.5t-14 -20t-5 -25v-318h-101h-63.5h-38.5zM698 -219l-77 157q51 0 77.5 10.5t36 39t9.5 83.5
v464h203v-512q0 -89 -27.5 -142t-82.5 -76.5t-139 -23.5zM848 632q-54 0 -84.5 25t-30.5 71q0 42 31 69t84 27q54 0 84.5 -25t30.5 -71q0 -42 -31 -69t-84 -27z" />
    <glyph glyph-name="uni01CD" unicode="&#x1cd;" horiz-adv-x="690" 
d="M-20 0l281 700h170l279 -700h-214l-112 306q-11 31 -19 53t-14 41.5t-12 42t-12 53.5h34q-6 -31 -12 -53.5t-12.5 -42t-15 -41.5t-19.5 -53l-112 -306h-210zM120 104l63 147h325l57 -147h-445zM294 753l-145 111l58 73l153 -76h-30l153 76l58 -73l-145 -111h-102z" />
    <glyph glyph-name="uni01CE" unicode="&#x1ce;" horiz-adv-x="679" 
d="M261 -9q-67 0 -119 35.5t-82 98t-30 143.5q0 82 29.5 144.5t82 98t121.5 35.5q36 0 66 -10t53 -28t40 -41.5t29 -50.5l-41 1v118h199v-535h-204v131l45 -4q-10 -29 -27.5 -54t-41.5 -43t-54 -28.5t-66 -10.5zM319 156q29 0 49.5 13t31 38t10.5 61t-10.5 61.5t-31 38.5
t-49.5 13t-49 -13t-30.5 -38.5t-10.5 -61.5t10.5 -61t30.5 -38t49 -13zM289 606l-166 142l72 62l160 -96h-30l160 96l72 -62l-166 -142h-102z" />
    <glyph glyph-name="uni01CF" unicode="&#x1cf;" horiz-adv-x="612" 
d="M75 0v175h123v350h-123v175h462v-175h-123v-350h123v-175h-462zM255 753l-145 111l58 73l153 -76h-30l153 76l58 -73l-145 -111h-102z" />
    <glyph glyph-name="uni01D0" unicode="&#x1d0;" horiz-adv-x="323" 
d="M60 0v535h203v-535h-203zM111 606l-166 142l72 62l160 -96h-30l160 96l72 -62l-166 -142h-102z" />
    <glyph glyph-name="uni01D1" unicode="&#x1d1;" horiz-adv-x="834" 
d="M418 -10q-83 0 -152 27t-120 76t-78.5 116t-27.5 146q0 80 27.5 146.5t78.5 115.5t120 76t151 27q83 0 151.5 -27t119.5 -76t78.5 -115.5t27.5 -145.5q0 -80 -27.5 -147t-78.5 -116t-119.5 -76t-150.5 -27zM417 190q34 0 62.5 12t50 34.5t33 52.5t11.5 66t-11.5 66
t-33 52.5t-50 34.5t-62.5 12t-62.5 -12t-50 -34.5t-33 -52.5t-11.5 -66t11.5 -66t33 -52.5t50 -34.5t62.5 -12zM366 753l-145 111l58 73l153 -76h-30l153 76l58 -73l-145 -111h-102z" />
    <glyph glyph-name="uni01D2" unicode="&#x1d2;" horiz-adv-x="660" 
d="M331 -10q-87 0 -155 36t-107 98.5t-39 143.5t39 143.5t107 98.5t155 36t154.5 -36t106 -98.5t38.5 -143.5t-38.5 -143.5t-106 -98.5t-154.5 -36zM331 160q27 0 48.5 14t33.5 38.5t12 55.5q0 32 -12 56.5t-33.5 38.5t-48.5 14q-28 0 -49.5 -14t-34 -38.5t-12.5 -56.5
q0 -31 12.5 -55.5t34 -38.5t49.5 -14zM279 606l-166 142l72 62l160 -96h-30l160 96l72 -62l-166 -142h-102z" />
    <glyph glyph-name="uni01D3" unicode="&#x1d3;" horiz-adv-x="784" 
d="M392 -6q-91 0 -161.5 35.5t-110.5 97.5t-40 142v431h218v-422q0 -29 12 -51.5t33.5 -35.5t48.5 -13q29 0 51 13t35 35.5t13 51.5v422h213v-431q0 -80 -40 -142t-110.5 -97.5t-161.5 -35.5zM341 753l-145 111l58 73l153 -76h-30l153 76l58 -73l-145 -111h-102z" />
    <glyph glyph-name="uni01D4" unicode="&#x1d4;" horiz-adv-x="669" 
d="M249 -11q-61 0 -103 25t-64 73.5t-22 117.5v330h203v-313q0 -22 7.5 -37t21.5 -23t34 -8q15 0 27.5 4.5t21.5 13.5t14 20.5t5 24.5v318h203v-535h-186l-12 108l38 12q-11 -38 -38.5 -67.5t-66.5 -46.5t-83 -17zM284 606l-166 142l72 62l160 -96h-30l160 96l72 -62
l-166 -142h-102z" />
    <glyph glyph-name="Gcaron" unicode="&#x1e6;" horiz-adv-x="793" 
d="M414 -10q-90 0 -159.5 27t-117.5 76t-72.5 116t-24.5 146q0 80 27.5 146.5t79.5 115.5t123.5 76t159.5 27q61 0 113.5 -15t95 -40.5t73.5 -57.5l-128 -136q-20 19 -43 33.5t-51 23t-63 8.5q-36 0 -66 -13.5t-52 -37.5t-34.5 -57.5t-12.5 -72.5t13 -72.5t36 -57.5
t55 -37.5t70 -13.5q26 0 47.5 8.5t37 23t24.5 35t9 44.5v29l28 -48h-178v152h344q1 -11 2.5 -36t2 -49.5t0.5 -33.5q0 -67 -25 -124t-70.5 -98t-107.5 -64t-136 -23zM367 753l-145 111l58 73l153 -76h-30l153 76l58 -73l-145 -111h-102z" />
    <glyph glyph-name="gcaron" unicode="&#x1e7;" horiz-adv-x="684" 
d="M319 -230q-72 0 -142.5 20t-115.5 52l69 136q22 -14 46 -24t50.5 -15t56.5 -5q47 0 76 12.5t42.5 39.5t13.5 69v80l45 -4q-8 -34 -35 -60t-67 -41t-85 -15q-71 0 -125.5 32t-86 89.5t-31.5 135.5q0 81 31 142.5t84.5 96.5t122.5 35q30 0 57 -6t50 -16.5t41 -25.5
t29.5 -33t15.5 -39l-41 -9l11 118h188v-483q0 -67 -20.5 -119.5t-59.5 -89t-94.5 -55t-125.5 -18.5zM324 160q31 0 52.5 13t32.5 37.5t11 59.5t-11 60t-32.5 38t-52.5 13t-52 -13t-32 -38t-11 -60t11 -59.5t32 -37.5t52 -13zM291 606l-166 142l72 62l160 -96h-30l160 96
l72 -62l-166 -142h-102z" />
    <glyph glyph-name="uni01EA" unicode="&#x1ea;" horiz-adv-x="834" 
d="M521 -220q-55 0 -88.5 33.5t-33.5 83.5q0 35 15.5 64t44 53.5t66.5 46.5t83 43l32 -49q-19 -12 -39 -25.5t-37.5 -28t-28 -31.5t-10.5 -37q0 -13 7 -21.5t17 -8.5t16.5 5.5t13.5 17.5l80 -59q-19 -34 -53.5 -60.5t-84.5 -26.5zM417 -10q-82 0 -151 27t-120 76t-78.5 116
t-27.5 146q0 80 27.5 146.5t78.5 115.5t120 76t151 27q83 0 151.5 -27t119.5 -76t78.5 -115.5t27.5 -146.5q0 -79 -27.5 -146t-78.5 -116t-119.5 -76t-151.5 -27zM417 190q34 0 62.5 12t50 34.5t33 52.5t11.5 66t-11.5 66t-33 52.5t-50 34.5t-62.5 12t-62.5 -12t-50 -34.5
t-33 -52.5t-11.5 -66t11.5 -66t33 -52.5t50 -34.5t62.5 -12z" />
    <glyph glyph-name="uni01EB" unicode="&#x1eb;" horiz-adv-x="660" 
d="M380 -209q-53 0 -84.5 33t-31.5 79q0 39 25.5 71t73 62t113.5 62l31 -59q-55 -29 -86.5 -51.5t-31.5 -47.5q0 -13 6.5 -19.5t14.5 -6.5q9 0 16.5 5.5t15.5 17.5l80 -59q-12 -20 -31 -40t-46.5 -33.5t-64.5 -13.5zM331 -10q-87 0 -155 36t-107 98.5t-39 143.5t39 143.5
t107 98.5t155 36t154.5 -36t106 -98.5t38.5 -143.5t-38.5 -143.5t-106 -98.5t-154.5 -36zM331 160q27 0 48.5 14t33.5 38.5t12 55.5q0 32 -12 56.5t-33.5 38.5t-48.5 14q-28 0 -49.5 -14t-34 -38.5t-12.5 -56.5q0 -31 12.5 -55.5t34 -38.5t49.5 -14z" />
    <glyph glyph-name="uni01F1" unicode="&#x1f1;" horiz-adv-x="1446" 
d="M80 0v700h308q79 0 145 -26t115 -72.5t75.5 -110.5t26.5 -141q0 -76 -26.5 -140.5t-75.5 -111t-115 -72.5t-145 -26h-308zM296 133l-37 51h124q33 0 60 12.5t47 34.5t31 52.5t11 66.5t-11 66.5t-31 52.5t-47 34.5t-60 12.5h-127l40 49v-432zM805 0v139l359 474l92 -107
h-425v194h544v-138l-357 -475l-93 95h461v-182h-581z" />
    <glyph glyph-name="uni01F2" unicode="&#x1f2;" horiz-adv-x="1388" 
d="M80 0v700h308q79 0 145 -26t115 -72.5t75.5 -110.5t26.5 -141q0 -76 -26.5 -140.5t-75.5 -111t-115 -72.5t-145 -26h-308zM296 133l-37 51h124q33 0 60 12.5t47 34.5t31 52.5t11 66.5t-11 66.5t-31 52.5t-47 34.5t-60 12.5h-127l40 49v-432zM839 0v96l291 362v-83h-291
v160h483v-104l-267 -347l-4 76h281v-160h-493z" />
    <glyph glyph-name="Aringacute" unicode="&#x1fa;" horiz-adv-x="690" 
d="M-20 0l281 700h170l279 -700h-214l-112 306q-11 31 -19 53t-14 41.5t-12 42t-12 53.5h34q-6 -31 -12 -53.5t-12.5 -42t-15 -41.5t-19.5 -53l-112 -306h-210zM120 104l63 147h325l57 -147h-445zM345 669q-40 0 -74 19t-55 49.5t-21 66.5q0 40 20.5 73t54.5 53t75 20
q40 0 74 -20t54.5 -53t20.5 -73q0 -36 -20.5 -66.5t-54.5 -49.5t-74 -19zM345 768q14 0 24.5 10.5t10.5 25.5q0 16 -10.5 26.5t-24.5 10.5t-24.5 -10.5t-10.5 -26.5q0 -15 10.5 -25.5t24.5 -10.5zM241 960l-43 102l228 116l60 -137z" />
    <glyph glyph-name="aringacute" unicode="&#x1fb;" horiz-adv-x="679" 
d="M261 -9q-67 0 -119 35.5t-82 98t-30 143.5q0 82 29.5 144.5t82 98t121.5 35.5q36 0 66 -10t53 -28t40 -41.5t29 -50.5l-41 1v118h199v-535h-204v131l45 -4q-10 -29 -27.5 -54t-41.5 -43t-54 -28.5t-66 -10.5zM319 156q29 0 49.5 13t31 38t10.5 61t-10.5 61.5t-31 38.5
t-49.5 13t-49 -13t-30.5 -38.5t-10.5 -61.5t10.5 -61t30.5 -38t49 -13zM340 604q-34 0 -63.5 17t-47.5 45t-18 62q0 35 17.5 63.5t47 45.5t64.5 17q36 0 65 -17t46.5 -45.5t17.5 -63.5q0 -34 -18 -62t-47 -45t-64 -17zM340 700q12 0 20 8t8 20q0 13 -8 21.5t-20 8.5t-20 -8
t-8 -21t8 -21t20 -8zM255 883l-58 89l206 154l80 -121z" />
    <glyph glyph-name="AEacute" unicode="&#x1fc;" horiz-adv-x="1154" 
d="M-20 0l488 700h639v-175h-328v-89h283v-164h-283v-97h328v-175h-535v135h-275l112 164h163v259l25 -8l-376 -550h-241zM671 742l-43 102l228 116l60 -137z" />
    <glyph glyph-name="aeacute" unicode="&#x1fd;" horiz-adv-x="901" 
d="M213 -10q-52 0 -93.5 20t-65.5 55.5t-24 83.5q0 39 15.5 69t45.5 50.5t75 30.5t105 10h430l-5 -8v18q0 19 -8.5 33.5t-24.5 22.5t-38 8q-33 0 -55 -12t-33.5 -34t-11.5 -53q0 -36 16.5 -63t49 -42t81.5 -15q33 0 57 7t50 25l83 -131q-37 -29 -72.5 -45t-70 -23t-70.5 -7
q-93 0 -160 36t-103 98.5t-36 143.5q0 60 20 111t56.5 88.5t86 58t108.5 20.5q77 0 135.5 -36t90.5 -98.5t30 -143.5l-1 -51h-588q-13 0 -23.5 -3.5t-18 -9.5t-11 -15t-3.5 -20t5.5 -20.5t16 -15t23.5 -5.5q19 0 36 6t31 17.5t23 28.5l59 -93q-19 -31 -53 -53t-75.5 -33
t-84.5 -11zM345 242v73q0 20 -4 33t-13.5 20.5t-23.5 10.5t-35 3q-36 0 -58.5 -12t-42.5 -43l-115 113q23 30 60.5 54t87 38t106.5 14q49 0 88.5 -11t67.5 -35t43 -60.5t15 -87.5v-110h-176zM377 576l-58 89l206 154l80 -121z" />
    <glyph glyph-name="Oslashacute" unicode="&#x1fe;" horiz-adv-x="834" 
d="M151 -33l-63 53l589 721l68 -47zM418 -10q-83 0 -152 27t-120 76t-78.5 116t-27.5 146q0 80 27.5 146.5t78.5 115.5t120 76t151 27q83 0 151.5 -27t119.5 -76t78.5 -115.5t27.5 -145.5q0 -80 -27.5 -147t-78.5 -116t-119.5 -76t-150.5 -27zM417 190q34 0 62.5 12t50 34.5
t33 52.5t11.5 66t-11.5 66t-33 52.5t-50 34.5t-62.5 12t-62.5 -12t-50 -34.5t-33 -52.5t-11.5 -66t11.5 -66t33 -52.5t50 -34.5t62.5 -12zM313 742l-43 102l228 116l60 -137z" />
    <glyph glyph-name="oslashacute" unicode="&#x1ff;" horiz-adv-x="660" 
d="M130 -35l-66 48l469 558l67 -49zM331 -10q-87 0 -155 36t-107 98.5t-39 143.5t39 143.5t107 98.5t155 36t154.5 -36t106 -98.5t38.5 -143.5t-38.5 -143.5t-106 -98.5t-154.5 -36zM331 160q27 0 48.5 14t33.5 38.5t12 55.5q0 32 -12 56.5t-33.5 38.5t-48.5 14
q-28 0 -49.5 -14t-34 -38.5t-12.5 -56.5q0 -31 12.5 -55.5t34 -38.5t49.5 -14zM245 576l-58 89l206 154l80 -121z" />
    <glyph glyph-name="uni0200" unicode="&#x200;" horiz-adv-x="690" 
d="M-20 0l281 700h170l279 -700h-214l-112 306q-11 31 -19 53t-14 41.5t-12 42t-12 53.5h34q-6 -31 -12 -53.5t-12.5 -42t-15 -41.5t-19.5 -53l-112 -306h-210zM120 104l63 147h325l57 -147h-445zM477 737l-174 134l91 107l151 -162zM238 732l-187 129l90 114l163 -159z" />
    <glyph glyph-name="uni0201" unicode="&#x201;" horiz-adv-x="679" 
d="M261 -9q-67 0 -119 35.5t-82 98t-30 143.5q0 82 29.5 144.5t82 98t121.5 35.5q36 0 66 -10t53 -28t40 -41.5t29 -50.5l-41 1v118h199v-535h-204v131l45 -4q-10 -29 -27.5 -54t-41.5 -43t-54 -28.5t-66 -10.5zM319 156q29 0 49.5 13t31 38t10.5 61t-10.5 61.5t-31 38.5
t-49.5 13t-49 -13t-30.5 -38.5t-10.5 -61.5t10.5 -61t30.5 -38t49 -13zM431 573l-166 173l117 86l141 -214zM221 578l-182 157l109 96l159 -202z" />
    <glyph glyph-name="uni0202" unicode="&#x202;" horiz-adv-x="690" 
d="M-20 0l281 700h170l279 -700h-214l-112 306q-11 31 -19 53t-14 41.5t-12 42t-12 53.5h34q-6 -31 -12 -53.5t-12.5 -42t-15 -41.5t-19.5 -53l-112 -306h-210zM120 104l63 147h325l57 -147h-445zM277 763l-124 12q10 52 37 88.5t67 56t88 19.5q49 0 88.5 -19.5t66.5 -56
t37 -88.5l-124 -12q-9 26 -28 40.5t-40 14.5t-40 -14.5t-28 -40.5z" />
    <glyph glyph-name="uni0203" unicode="&#x203;" horiz-adv-x="679" 
d="M261 -9q-67 0 -119 35.5t-82 98t-30 143.5q0 82 29.5 144.5t82 98t121.5 35.5q36 0 66 -10t53 -28t40 -41.5t29 -50.5l-41 1v118h199v-535h-204v131l45 -4q-10 -29 -27.5 -54t-41.5 -43t-54 -28.5t-66 -10.5zM319 156q29 0 49.5 13t31 38t10.5 61t-10.5 61.5t-31 38.5
t-49.5 13t-49 -13t-30.5 -38.5t-10.5 -61.5t10.5 -61t30.5 -38t49 -13zM272 620l-124 12q15 77 67 120.5t125 43.5t125 -43.5t67 -120.5l-124 -12q-9 26 -28 40.5t-40 14.5t-40 -14.5t-28 -40.5z" />
    <glyph glyph-name="uni0204" unicode="&#x204;" horiz-adv-x="668" 
d="M80 0v700h523v-175h-316v-350h334v-175h-541zM183 272v164h383v-164h-383zM486 737l-174 134l91 107l151 -162zM247 732l-187 129l90 114l163 -159z" />
    <glyph glyph-name="uni0205" unicode="&#x205;" horiz-adv-x="586" 
d="M329 -10q-93 0 -160 36t-103 98.5t-36 143.5q0 60 20 111t56.5 88.5t86 58t108.5 20.5t107.5 -20.5t83.5 -58t53.5 -88.5t16.5 -111l-1 -42h-419l-23 95h281l-19 -20v18q0 19 -9.5 33.5t-26.5 22.5t-40 8q-29 0 -49 -12t-30.5 -34t-10.5 -53q0 -36 15.5 -63t46 -42
t75.5 -15q30 0 51.5 7.5t45.5 24.5l93 -131q-37 -29 -72.5 -45t-70 -23t-70.5 -7zM392 573l-166 173l117 86l141 -214zM182 578l-182 157l109 96l159 -202z" />
    <glyph glyph-name="uni0206" unicode="&#x206;" horiz-adv-x="668" 
d="M80 0v700h523v-175h-316v-350h334v-175h-541zM183 272v164h383v-164h-383zM286 763l-124 12q10 52 37 88.5t67 56t88 19.5q49 0 88.5 -19.5t66.5 -56t37 -88.5l-124 -12q-9 26 -28 40.5t-40 14.5t-40 -14.5t-28 -40.5z" />
    <glyph glyph-name="uni0207" unicode="&#x207;" horiz-adv-x="586" 
d="M329 -10q-93 0 -160 36t-103 98.5t-36 143.5q0 60 20 111t56.5 88.5t86 58t108.5 20.5t107.5 -20.5t83.5 -58t53.5 -88.5t16.5 -111l-1 -42h-419l-23 95h281l-19 -20v18q0 19 -9.5 33.5t-26.5 22.5t-40 8q-29 0 -49 -12t-30.5 -34t-10.5 -53q0 -36 15.5 -63t46 -42
t75.5 -15q30 0 51.5 7.5t45.5 24.5l93 -131q-37 -29 -72.5 -45t-70 -23t-70.5 -7zM233 620l-124 12q15 77 67 120.5t125 43.5t125 -43.5t67 -120.5l-124 -12q-9 26 -28 40.5t-40 14.5t-40 -14.5t-28 -40.5z" />
    <glyph glyph-name="uni0208" unicode="&#x208;" horiz-adv-x="612" 
d="M75 0v175h123v350h-123v175h462v-175h-123v-350h123v-175h-462zM438 737l-174 134l91 107l151 -162zM199 732l-187 129l90 114l163 -159z" />
    <glyph glyph-name="uni0209" unicode="&#x209;" horiz-adv-x="323" 
d="M60 0v535h203v-535h-203zM253 573l-166 173l117 86l141 -214zM43 578l-182 157l109 96l159 -202z" />
    <glyph glyph-name="uni020A" unicode="&#x20a;" horiz-adv-x="612" 
d="M75 0v175h123v350h-123v175h462v-175h-123v-350h123v-175h-462zM238 763l-124 12q10 52 37 88.5t67 56t88 19.5q49 0 88.5 -19.5t66.5 -56t37 -88.5l-124 -12q-9 26 -28 40.5t-40 14.5t-40 -14.5t-28 -40.5z" />
    <glyph glyph-name="uni020B" unicode="&#x20b;" horiz-adv-x="323" 
d="M60 0v535h203v-535h-203zM94 620l-124 12q15 77 67 120.5t125 43.5t125 -43.5t67 -120.5l-124 -12q-9 26 -28 40.5t-40 14.5t-40 -14.5t-28 -40.5z" />
    <glyph glyph-name="uni020C" unicode="&#x20c;" horiz-adv-x="834" 
d="M418 -10q-83 0 -152 27t-120 76t-78.5 116t-27.5 146q0 80 27.5 146.5t78.5 115.5t120 76t151 27q83 0 151.5 -27t119.5 -76t78.5 -115.5t27.5 -145.5q0 -80 -27.5 -147t-78.5 -116t-119.5 -76t-150.5 -27zM417 190q34 0 62.5 12t50 34.5t33 52.5t11.5 66t-11.5 66
t-33 52.5t-50 34.5t-62.5 12t-62.5 -12t-50 -34.5t-33 -52.5t-11.5 -66t11.5 -66t33 -52.5t50 -34.5t62.5 -12zM549 737l-174 134l91 107l151 -162zM310 732l-187 129l90 114l163 -159z" />
    <glyph glyph-name="uni020D" unicode="&#x20d;" horiz-adv-x="660" 
d="M331 -10q-87 0 -155 36t-107 98.5t-39 143.5t39 143.5t107 98.5t155 36t154.5 -36t106 -98.5t38.5 -143.5t-38.5 -143.5t-106 -98.5t-154.5 -36zM331 160q27 0 48.5 14t33.5 38.5t12 55.5q0 32 -12 56.5t-33.5 38.5t-48.5 14q-28 0 -49.5 -14t-34 -38.5t-12.5 -56.5
q0 -31 12.5 -55.5t34 -38.5t49.5 -14zM421 573l-166 173l117 86l141 -214zM211 578l-182 157l109 96l159 -202z" />
    <glyph glyph-name="uni020E" unicode="&#x20e;" horiz-adv-x="834" 
d="M418 -10q-83 0 -152 27t-120 76t-78.5 116t-27.5 146q0 80 27.5 146.5t78.5 115.5t120 76t151 27q83 0 151.5 -27t119.5 -76t78.5 -115.5t27.5 -145.5q0 -80 -27.5 -147t-78.5 -116t-119.5 -76t-150.5 -27zM417 190q34 0 62.5 12t50 34.5t33 52.5t11.5 66t-11.5 66
t-33 52.5t-50 34.5t-62.5 12t-62.5 -12t-50 -34.5t-33 -52.5t-11.5 -66t11.5 -66t33 -52.5t50 -34.5t62.5 -12zM349 763l-124 12q10 52 37 88.5t67 56t88 19.5q49 0 88.5 -19.5t66.5 -56t37 -88.5l-124 -12q-9 26 -28 40.5t-40 14.5t-40 -14.5t-28 -40.5z" />
    <glyph glyph-name="uni020F" unicode="&#x20f;" horiz-adv-x="660" 
d="M331 -10q-87 0 -155 36t-107 98.5t-39 143.5t39 143.5t107 98.5t155 36t154.5 -36t106 -98.5t38.5 -143.5t-38.5 -143.5t-106 -98.5t-154.5 -36zM331 160q27 0 48.5 14t33.5 38.5t12 55.5q0 32 -12 56.5t-33.5 38.5t-48.5 14q-28 0 -49.5 -14t-34 -38.5t-12.5 -56.5
q0 -31 12.5 -55.5t34 -38.5t49.5 -14zM262 620l-124 12q15 77 67 120.5t125 43.5t125 -43.5t67 -120.5l-124 -12q-9 26 -28 40.5t-40 14.5t-40 -14.5t-28 -40.5z" />
    <glyph glyph-name="uni0210" unicode="&#x210;" horiz-adv-x="707" 
d="M80 0v700h328q73 0 130 -29t89 -79t32 -115q0 -73 -32 -128t-89 -85.5t-130 -30.5h-126v-233h-202zM447 0l-178 316l221 25l198 -341h-241zM282 383h92q25 0 41.5 9.5t25 26.5t8.5 41q0 22 -8.5 37.5t-26 24t-44.5 8.5h-88v-147zM476 737l-174 134l91 107l151 -162z
M237 732l-187 129l90 114l163 -159z" />
    <glyph glyph-name="uni0211" unicode="&#x211;" horiz-adv-x="493" 
d="M70 0v535h188l12 -178l-45 28q13 46 41 82.5t67.5 57.5t84.5 21q18 0 34 -2.5t31 -6.5l-56 -225q-10 7 -31.5 13t-46.5 6q-18 0 -32.5 -5.5t-24 -16.5t-14.5 -26t-5 -35v-248h-203zM368 573l-166 173l117 86l141 -214zM158 578l-182 157l109 96l159 -202z" />
    <glyph glyph-name="uni0212" unicode="&#x212;" horiz-adv-x="707" 
d="M80 0v700h328q73 0 130 -29t89 -79t32 -115q0 -73 -32 -128t-89 -85.5t-130 -30.5h-126v-233h-202zM447 0l-178 316l221 25l198 -341h-241zM282 383h92q25 0 41.5 9.5t25 26.5t8.5 41q0 22 -8.5 37.5t-26 24t-44.5 8.5h-88v-147zM276 763l-124 12q10 52 37 88.5t67 56
t88 19.5q49 0 88.5 -19.5t66.5 -56t37 -88.5l-124 -12q-9 26 -28 40.5t-40 14.5t-40 -14.5t-28 -40.5z" />
    <glyph glyph-name="uni0213" unicode="&#x213;" horiz-adv-x="493" 
d="M70 0v535h188l12 -178l-45 28q13 46 41 82.5t67.5 57.5t84.5 21q18 0 34 -2.5t31 -6.5l-56 -225q-10 7 -31.5 13t-46.5 6q-18 0 -32.5 -5.5t-24 -16.5t-14.5 -26t-5 -35v-248h-203zM209 620l-124 12q15 77 67 120.5t125 43.5t125 -43.5t67 -120.5l-124 -12
q-9 26 -28 40.5t-40 14.5t-40 -14.5t-28 -40.5z" />
    <glyph glyph-name="uni0214" unicode="&#x214;" horiz-adv-x="784" 
d="M392 -6q-91 0 -161.5 35.5t-110.5 97.5t-40 142v431h218v-422q0 -29 12 -51.5t33.5 -35.5t48.5 -13q29 0 51 13t35 35.5t13 51.5v422h213v-431q0 -80 -40 -142t-110.5 -97.5t-161.5 -35.5zM524 737l-174 134l91 107l151 -162zM285 732l-187 129l90 114l163 -159z" />
    <glyph glyph-name="uni0215" unicode="&#x215;" horiz-adv-x="669" 
d="M249 -11q-61 0 -103 25t-64 73.5t-22 117.5v330h203v-313q0 -22 7.5 -37t21.5 -23t34 -8q15 0 27.5 4.5t21.5 13.5t14 20.5t5 24.5v318h203v-535h-186l-12 108l38 12q-11 -38 -38.5 -67.5t-66.5 -46.5t-83 -17zM426 573l-166 173l117 86l141 -214zM216 578l-182 157
l109 96l159 -202z" />
    <glyph glyph-name="uni0216" unicode="&#x216;" horiz-adv-x="784" 
d="M392 -6q-91 0 -161.5 35.5t-110.5 97.5t-40 142v431h218v-422q0 -29 12 -51.5t33.5 -35.5t48.5 -13q29 0 51 13t35 35.5t13 51.5v422h213v-431q0 -80 -40 -142t-110.5 -97.5t-161.5 -35.5zM324 763l-124 12q10 52 37 88.5t67 56t88 19.5q49 0 88.5 -19.5t66.5 -56
t37 -88.5l-124 -12q-9 26 -28 40.5t-40 14.5t-40 -14.5t-28 -40.5z" />
    <glyph glyph-name="uni0217" unicode="&#x217;" horiz-adv-x="669" 
d="M249 -11q-61 0 -103 25t-64 73.5t-22 117.5v330h203v-313q0 -22 7.5 -37t21.5 -23t34 -8q15 0 27.5 4.5t21.5 13.5t14 20.5t5 24.5v318h203v-535h-186l-12 108l38 12q-11 -38 -38.5 -67.5t-66.5 -46.5t-83 -17zM267 620l-124 12q15 77 67 120.5t125 43.5t125 -43.5
t67 -120.5l-124 -12q-9 26 -28 40.5t-40 14.5t-40 -14.5t-28 -40.5z" />
    <glyph glyph-name="uni0218" unicode="&#x218;" horiz-adv-x="641" 
d="M325 -10q-79 0 -139.5 17.5t-106 49.5t-81.5 75l125 140q50 -64 104.5 -84.5t102.5 -20.5q19 0 34 3.5t23 11.5t8 22q0 13 -8.5 22t-22.5 15.5t-30.5 11t-32 7.5t-27.5 6q-60 14 -105 34t-75 48t-44.5 64t-14.5 81q0 51 23.5 93t63 72t90 46t104.5 16q79 0 132 -14.5
t89 -41.5t62 -63l-126 -121q-22 21 -46 34.5t-49.5 20t-50.5 6.5q-23 0 -39 -3.5t-25 -11t-9 -20.5t11.5 -21.5t29 -14.5t35 -9.5t29.5 -5.5q55 -10 101 -27.5t80.5 -44t53 -66t18.5 -93.5q0 -77 -38.5 -129t-103.5 -78.5t-145 -26.5zM282 -331l-52 64q14 5 34 14t36 21.5
t16 26.5q0 10 -7.5 15t-20.5 12q-23 11 -34 26t-11 39q0 40 26.5 58.5t65.5 18.5q49 0 83 -27t34 -85q0 -36 -11.5 -65.5t-34 -52t-54 -38.5t-70.5 -27z" />
    <glyph glyph-name="uni0219" unicode="&#x219;" horiz-adv-x="507" 
d="M253 -10q-87 0 -151.5 26.5t-100.5 66.5l118 101q32 -28 73.5 -41.5t69.5 -13.5q10 0 17.5 1.5t12 5t7 7.5t2.5 10q0 15 -16 22q-9 4 -29.5 10t-53.5 14q-39 10 -71.5 25t-55.5 35q-24 22 -37.5 50t-13.5 63q0 41 19 73t52 54.5t74 34.5t84 12q49 0 91.5 -9.5t80 -27
t68.5 -41.5l-103 -115q-17 14 -39.5 27t-47 21.5t-45.5 8.5q-11 0 -18.5 -1.5t-12.5 -5t-7.5 -8t-2.5 -10.5q0 -8 5 -15t16 -12q9 -4 30.5 -11t63.5 -19q45 -13 79.5 -30t55.5 -40q14 -16 22 -36t8 -43q0 -55 -31.5 -97.5t-86.5 -67t-126 -24.5zM195 -331l-52 64q14 5 34 14
t36 21t16 27q0 10 -7.5 15t-20.5 12q-23 11 -34 26t-11 39q0 40 28 58.5t69 18.5q47 0 79.5 -28.5t32.5 -88.5q0 -31 -11.5 -57t-34 -48t-54 -40t-70.5 -33z" />
    <glyph glyph-name="uni021A" unicode="&#x21a;" horiz-adv-x="714" 
d="M246 0v516h-216v184h654v-184h-222v-516h-216zM298 -331l-52 64q14 5 34 14t36 21.5t16 26.5q0 10 -7.5 15t-20.5 12q-23 11 -34 26t-11 39q0 40 26.5 58.5t65.5 18.5q49 0 83 -27t34 -85q0 -36 -11.5 -65.5t-34 -52t-54 -38.5t-70.5 -27z" />
    <glyph glyph-name="uni021B" unicode="&#x21b;" horiz-adv-x="409" 
d="M98 0v670h203v-670h-203zM15 365v170h374v-170h-374zM146 -331l-52 64q14 5 34 14t36 21t16 27q0 10 -7.5 15t-20.5 12q-23 11 -34 26t-11 39q0 40 28 58.5t69 18.5q47 0 79.5 -28.5t32.5 -88.5q0 -31 -11.5 -57t-34 -48t-54 -40t-70.5 -33z" />
    <glyph glyph-name="uni022A" unicode="&#x22a;" horiz-adv-x="834" 
d="M418 -10q-83 0 -152 27t-120 76t-78.5 116t-27.5 146q0 80 27.5 146.5t78.5 115.5t120 76t151 27q83 0 151.5 -27t119.5 -76t78.5 -115.5t27.5 -145.5q0 -80 -27.5 -147t-78.5 -116t-119.5 -76t-150.5 -27zM417 190q34 0 62.5 12t50 34.5t33 52.5t11.5 66t-11.5 66
t-33 52.5t-50 34.5t-62.5 12t-62.5 -12t-50 -34.5t-33 -52.5t-11.5 -66t11.5 -66t33 -52.5t50 -34.5t62.5 -12zM552 750q-48 0 -74 26t-26 74q0 44 27 72t73 28q48 0 74 -25.5t26 -74.5q0 -44 -27 -72t-73 -28zM281 750q-48 0 -74 26t-26 74q0 44 27 72t73 28q48 0 74 -25.5
t26 -74.5q0 -44 -27 -72t-73 -28zM227 1010v120h379v-120h-379z" />
    <glyph glyph-name="uni022B" unicode="&#x22b;" horiz-adv-x="660" 
d="M331 -10q-87 0 -155 36t-107 98.5t-39 143.5t39 143.5t107 98.5t155 36t154.5 -36t106 -98.5t38.5 -143.5t-38.5 -143.5t-106 -98.5t-154.5 -36zM331 160q27 0 48.5 14t33.5 38.5t12 55.5q0 32 -12 56.5t-33.5 38.5t-48.5 14q-28 0 -49.5 -14t-34 -38.5t-12.5 -56.5
q0 -31 12.5 -55.5t34 -38.5t49.5 -14zM465 624q-48 0 -74 26t-26 74q0 44 27 72t73 28q48 0 74 -25.5t26 -74.5q0 -44 -27 -72t-73 -28zM194 624q-48 0 -74 26t-26 74q0 44 27 72t73 28q48 0 74 -25.5t26 -74.5q0 -44 -27 -72t-73 -28zM143 873v120h374v-120h-374z" />
    <glyph glyph-name="uni022C" unicode="&#x22c;" horiz-adv-x="834" 
d="M418 -10q-83 0 -152 27t-120 76t-78.5 116t-27.5 146q0 80 27.5 146.5t78.5 115.5t120 76t151 27q83 0 151.5 -27t119.5 -76t78.5 -115.5t27.5 -145.5q0 -80 -27.5 -147t-78.5 -116t-119.5 -76t-150.5 -27zM417 190q34 0 62.5 12t50 34.5t33 52.5t11.5 66t-11.5 66
t-33 52.5t-50 34.5t-62.5 12t-62.5 -12t-50 -34.5t-33 -52.5t-11.5 -66t11.5 -66t33 -52.5t50 -34.5t62.5 -12zM496 768q-17 0 -35 5t-44 17q-19 9 -31.5 13.5t-22.5 4.5q-15 0 -23 -10.5t-8 -28.5h-117q0 75 37 119t101 44q15 0 31 -3.5t48 -19.5q18 -9 27 -13t18 -4
q13 0 19.5 11t5.5 29h116q0 -46 -15.5 -83.5t-43 -59t-63.5 -21.5zM227 1010v120h379v-120h-379z" />
    <glyph glyph-name="uni022D" unicode="&#x22d;" horiz-adv-x="660" 
d="M331 -10q-87 0 -155 36t-107 98.5t-39 143.5t39 143.5t107 98.5t155 36t154.5 -36t106 -98.5t38.5 -143.5t-38.5 -143.5t-106 -98.5t-154.5 -36zM331 160q27 0 48.5 14t33.5 38.5t12 55.5q0 32 -12 56.5t-33.5 38.5t-48.5 14q-28 0 -49.5 -14t-34 -38.5t-12.5 -56.5
q0 -31 12.5 -55.5t34 -38.5t49.5 -14zM411 613q-15 0 -35.5 4.5t-49.5 23.5q-17 12 -28.5 16.5t-18.5 4.5q-15 0 -26.5 -9.5t-13.5 -30.5l-105 14q0 62 32 104.5t87 42.5q15 0 34.5 -4t47.5 -22q9 -6 22.5 -14t26.5 -8q14 0 25 10t12 30l105 -15q0 -38 -14.5 -72
t-40.5 -54.5t-60 -20.5zM143 863v120h374v-120h-374z" />
    <glyph glyph-name="uni0230" unicode="&#x230;" horiz-adv-x="834" 
d="M418 -10q-83 0 -152 27t-120 76t-78.5 116t-27.5 146q0 80 27.5 146.5t78.5 115.5t120 76t151 27q83 0 151.5 -27t119.5 -76t78.5 -115.5t27.5 -145.5q0 -80 -27.5 -147t-78.5 -116t-119.5 -76t-150.5 -27zM417 190q34 0 62.5 12t50 34.5t33 52.5t11.5 66t-11.5 66
t-33 52.5t-50 34.5t-62.5 12t-62.5 -12t-50 -34.5t-33 -52.5t-11.5 -66t11.5 -66t33 -52.5t50 -34.5t62.5 -12zM417 754q-54 0 -84.5 25t-30.5 71q0 42 31 69t84 27q54 0 84.5 -25t30.5 -71q0 -42 -31 -69t-84 -27zM227 1010v120h379v-120h-379z" />
    <glyph glyph-name="uni0231" unicode="&#x231;" horiz-adv-x="660" 
d="M331 -10q-87 0 -155 36t-107 98.5t-39 143.5t39 143.5t107 98.5t155 36t154.5 -36t106 -98.5t38.5 -143.5t-38.5 -143.5t-106 -98.5t-154.5 -36zM331 160q27 0 48.5 14t33.5 38.5t12 55.5q0 32 -12 56.5t-33.5 38.5t-48.5 14q-28 0 -49.5 -14t-34 -38.5t-12.5 -56.5
q0 -31 12.5 -55.5t34 -38.5t49.5 -14zM330 632q-54 0 -84.5 25t-30.5 71q0 42 31 69t84 27q54 0 84.5 -25t30.5 -71q0 -42 -31 -69t-84 -27zM143 873v120h374v-120h-374z" />
    <glyph glyph-name="uni0232" unicode="&#x232;" horiz-adv-x="710" 
d="M256 0v349l7 -49l-283 400h240l216 -310l-135 3l195 307h234l-271 -411l15 68v-357h-218zM165 790v120h379v-120h-379z" />
    <glyph glyph-name="uni0233" unicode="&#x233;" horiz-adv-x="649" 
d="M121 -230l133 314l2 -82l-251 533h226l74 -178q12 -28 20.5 -53t12.5 -47l-20 -18q4 11 12 34.5t18 54.5l70 207h226l-233 -535l-94 -230h-196zM138 638v120h374v-120h-374z" />
    <glyph glyph-name="uni0237" unicode="&#x237;" horiz-adv-x="353" 
d="M33 -219l-77 157q51 0 77.5 10.5t36 39t9.5 83.5v464h203v-512q0 -89 -27.5 -142t-82.5 -76.5t-139 -23.5z" />
    <glyph glyph-name="uni0259" unicode="&#x259;" horiz-adv-x="586" 
d="M285 -11q-78 0 -137 36t-91.5 99t-32.5 143l1 42h419l23 -95h-281l19 20v-18q0 -19 9 -33.5t26.5 -22.5t40.5 -8q30 0 50 12t30 34.5t10 52.5q0 36 -15.5 63t-45.5 42t-76 15q-30 0 -51.5 -7.5t-45.5 -24.5l-93 131q38 29 73 45t69.5 23t70.5 7q94 0 160.5 -36
t102.5 -98.5t36 -143.5q0 -60 -20 -111t-56.5 -88.5t-86 -58t-108.5 -20.5z" />
    <glyph glyph-name="uni0272" unicode="&#x272;" horiz-adv-x="674" 
d="M33 -219l-77 157q38 0 62 4.5t37.5 16t18.5 32.5t5 54v490h188l9 -99l-21 23q17 26 43.5 45.5t59.5 30.5t69 11q60 0 102 -25t63.5 -73t21.5 -118v-330h-203v313q0 22 -7 37t-20.5 23t-33.5 8q-15 0 -27.5 -4.5t-21.5 -13.5t-14 -20t-5 -25v-296q-2 -81 -30.5 -134.5
t-83 -80t-135.5 -26.5z" />
    <glyph glyph-name="uni02BB" unicode="&#x2bb;" horiz-adv-x="302" 
d="M153 396q-32 0 -57.5 17t-40.5 47.5t-15 70.5q0 36 13 70.5t37.5 64.5t57.5 52.5t72 32.5l52 -64q-44 -17 -70 -46t-26 -49q0 -9 4.5 -19.5t23.5 -21.5q25 -16 35 -34.5t10 -42.5q0 -36 -27 -57t-69 -21z" />
    <glyph glyph-name="uni02BC" unicode="&#x2bc;" horiz-adv-x="286" 
d="M50 432l18 268h198l-86 -268h-130z" />
    <glyph glyph-name="uni02BE" unicode="&#x2be;" horiz-adv-x="219" 
d="M45 513v96q12 0 20 8t8 20q0 13 -8 21.5t-20 8.5v96q35 0 64.5 -17t47 -45.5t17.5 -63.5q0 -34 -18 -62t-47 -45t-64 -17z" />
    <glyph glyph-name="uni02BF" unicode="&#x2bf;" horiz-adv-x="219" 
d="M174 513q-35 0 -64 17t-47 45t-18 62q0 35 17.5 63.5t47 45.5t64.5 17v-96q-12 0 -20 -8.5t-8 -21.5q0 -12 8 -20t20 -8v-96z" />
    <glyph glyph-name="circumflex" unicode="&#x2c6;" horiz-adv-x="500" 
d="M105 586l-72 62l166 142h102l166 -142l-72 -62l-160 96h30z" />
    <glyph glyph-name="caron" unicode="&#x2c7;" horiz-adv-x="500" 
d="M199 596l-166 142l72 62l160 -96h-30l160 96l72 -62l-166 -142h-102z" />
    <glyph glyph-name="uni02C8" unicode="&#x2c8;" horiz-adv-x="231" 
d="M67 368v344h97v-344h-97z" />
    <glyph glyph-name="uni02CC" unicode="&#x2cc;" horiz-adv-x="270" 
d="M60 -147v344h150v-344h-150z" />
    <glyph glyph-name="breve" unicode="&#x2d8;" horiz-adv-x="402" 
d="M250 600q-73 0 -125 43.5t-67 120.5l124 12q9 -26 28 -40.5t40 -14.5t40 14.5t28 40.5l124 -12q-15 -77 -67 -120.5t-125 -43.5z" />
    <glyph glyph-name="dotaccent" unicode="&#x2d9;" horiz-adv-x="500" 
d="M250 622q-54 0 -84.5 25t-30.5 71q0 42 31 69t84 27q54 0 84.5 -25t30.5 -71q0 -42 -31 -69t-84 -27z" />
    <glyph glyph-name="ring" unicode="&#x2da;" horiz-adv-x="500" 
d="M250 594q-34 0 -63.5 17t-47.5 45t-18 62q0 35 17.5 63.5t47 45.5t64.5 17q36 0 65 -17t46.5 -45.5t17.5 -63.5q0 -34 -18 -62t-47 -45t-64 -17zM250 690q12 0 20 8t8 20q0 13 -8 21.5t-20 8.5t-20 -8t-8 -21t8 -21t20 -8z" />
    <glyph glyph-name="ogonek" unicode="&#x2db;" horiz-adv-x="500" 
d="M250 -219q-37 0 -66.5 15.5t-46 42t-16.5 59.5q0 26 10.5 48.5t32.5 41.5t55.5 34.5t79.5 27.5l44 -50q-26 -6 -48 -17t-35 -25.5t-13 -31.5q0 -10 6 -16t17 -6q9 0 15 5.5t14 17.5l80 -59q-12 -20 -31.5 -40t-44 -33.5t-53.5 -13.5z" />
    <glyph glyph-name="tilde" unicode="&#x2dc;" horiz-adv-x="500" 
d="M331 603q-15 0 -35.5 4.5t-49.5 23.5q-17 12 -28.5 16.5t-18.5 4.5q-15 0 -26.5 -9.5t-13.5 -30.5l-105 14q0 62 32 104.5t87 42.5q15 0 34.5 -4t47.5 -22q9 -6 22.5 -14t26.5 -8q14 0 25 10t12 30l105 -15q0 -38 -14.5 -72t-40.5 -54.5t-60 -20.5z" />
    <glyph glyph-name="hungarumlaut" unicode="&#x2dd;" horiz-adv-x="500" 
d="M310 568l-86 51l159 202l109 -96zM100 563l-92 45l141 214l117 -86z" />
    <glyph glyph-name="gravecomb" unicode="&#x300;" 
d="M335 567l-228 122l80 121l206 -154z" />
    <glyph glyph-name="acutecomb" unicode="&#x301;" 
d="M165 566l-58 89l206 154l80 -121z" />
    <glyph glyph-name="uni0302" unicode="&#x302;" 
d="M105 586l-72 62l166 142h102l166 -142l-72 -62l-160 96h30z" />
    <glyph glyph-name="tildecomb" unicode="&#x303;" 
d="M331 603q-15 0 -35.5 4.5t-49.5 23.5q-17 12 -28.5 16.5t-18.5 4.5q-15 0 -26.5 -9.5t-13.5 -30.5l-105 14q0 62 32 104.5t87 42.5q15 0 34.5 -4t47.5 -22q9 -6 22.5 -14t26.5 -8q14 0 25 10t12 30l105 -15q0 -38 -14.5 -72t-40.5 -54.5t-60 -20.5z" />
    <glyph glyph-name="uni0304" unicode="&#x304;" 
d="M63 628v120h374v-120h-374z" />
    <glyph glyph-name="uni0306" unicode="&#x306;" 
d="M250 600q-73 0 -125 43.5t-67 120.5l124 12q9 -26 28 -40.5t40 -14.5t40 14.5t28 40.5l124 -12q-15 -77 -67 -120.5t-125 -43.5z" />
    <glyph glyph-name="uni0307" unicode="&#x307;" 
d="M250 622q-54 0 -84.5 25t-30.5 71q0 42 31 69t84 27q54 0 84.5 -25t30.5 -71q0 -42 -31 -69t-84 -27z" />
    <glyph glyph-name="uni0308" unicode="&#x308;" 
d="M386 614q-48 0 -74 26t-26 74q0 44 27 72t73 28q48 0 74 -25.5t26 -74.5q0 -44 -27 -72t-73 -28zM115 614q-48 0 -74 26t-26 74q0 44 27 72t73 28q48 0 74 -25.5t26 -74.5q0 -44 -27 -72t-73 -28z" />
    <glyph glyph-name="hookabovecomb" unicode="&#x309;" 
d="M223 580q-8 9 -15 20.5t-7 25.5q0 15 7 27t27 26q11 8 20.5 15.5t9.5 19.5q0 9 -8.5 14t-22.5 5q-23 0 -46.5 -7t-49.5 -17l-29 100q23 12 61.5 23t84.5 11q59 0 97.5 -26t38.5 -75q0 -38 -15.5 -57t-32.5 -32q-15 -10 -27.5 -21t-12.5 -21q0 -3 1 -6.5t2 -7.5z" />
    <glyph glyph-name="uni030A" unicode="&#x30a;" 
d="M250 594q-34 0 -63.5 17t-47.5 45t-18 62q0 35 17.5 63.5t47 45.5t64.5 17q36 0 65 -17t46.5 -45.5t17.5 -63.5q0 -34 -18 -62t-47 -45t-64 -17zM250 690q12 0 20 8t8 20q0 13 -8 21.5t-20 8.5t-20 -8t-8 -21t8 -21t20 -8z" />
    <glyph glyph-name="uni030B" unicode="&#x30b;" 
d="M310 568l-86 51l159 202l109 -96zM100 563l-92 45l141 214l117 -86z" />
    <glyph glyph-name="uni030C" unicode="&#x30c;" 
d="M199 596l-166 142l72 62l160 -96h-30l160 96l72 -62l-166 -142h-102z" />
    <glyph glyph-name="uni030F" unicode="&#x30f;" 
d="M400 563l-166 173l117 86l141 -214zM190 568l-182 157l109 96l159 -202z" />
    <glyph glyph-name="uni0311" unicode="&#x311;" 
d="M182 610l-124 12q15 77 67 120.5t125 43.5t125 -43.5t67 -120.5l-124 -12q-9 26 -28 40.5t-40 14.5t-40 -14.5t-28 -40.5z" />
    <glyph glyph-name="uni0312" unicode="&#x312;" 
d="M251 578q-47 0 -79.5 28.5t-32.5 88.5q0 31 11.5 57t34 48t54 40t70.5 33l52 -64q-13 -5 -33.5 -14t-36.5 -21t-16 -27q0 -10 7.5 -15t20.5 -12q23 -11 34 -26t11 -39q0 -40 -28 -58.5t-69 -18.5z" />
    <glyph glyph-name="uni031B" unicode="&#x31b;" 
d="M130 460v122q45 0 67 28.5t22 85.5h152q0 -67 -28.5 -120.5t-82 -84.5t-130.5 -31z" />
    <glyph glyph-name="dotbelowcomb" unicode="&#x323;" 
d="M250 -237q-56 0 -87.5 26t-31.5 74q0 44 32 72t87 28q56 0 87.5 -26t31.5 -74q0 -44 -32 -72t-87 -28z" />
    <glyph glyph-name="uni0324" unicode="&#x324;" 
d="M386 -238q-48 0 -74 26t-26 74q0 44 27 72t73 28q48 0 74 -25.5t26 -74.5q0 -44 -27 -72t-73 -28zM115 -238q-48 0 -74 26t-26 74q0 44 27 72t73 28q48 0 74 -25.5t26 -74.5q0 -44 -27 -72t-73 -28z" />
    <glyph glyph-name="uni0326" unicode="&#x326;" 
d="M191 -331l-52 64q14 5 34 14t36 21t16 27q0 10 -7.5 15t-20.5 12q-23 11 -34 26t-11 39q0 40 28 58.5t69 18.5q47 0 79.5 -28.5t32.5 -88.5q0 -31 -11.5 -57t-34 -48t-54 -40t-70.5 -33z" />
    <glyph glyph-name="uni0327" unicode="&#x327;" 
d="M146 -247l-11 91q18 0 38 3t34 10t14 18q0 10 -7.5 16.5t-20 9.5t-29.5 3l-21 16l67 104h99l-48 -64q54 -4 79.5 -32.5t25.5 -66.5q0 -34 -20.5 -55.5t-54 -33.5t-71.5 -16t-74 -3z" />
    <glyph glyph-name="uni0328" unicode="&#x328;" 
d="M250 -219q-37 0 -66.5 15.5t-46 42t-16.5 59.5q0 26 10.5 48.5t32.5 41.5t55.5 34.5t79.5 27.5l44 -50q-26 -6 -48 -17t-35 -25.5t-13 -31.5q0 -10 6 -16t17 -6q9 0 15 5.5t14 17.5l80 -59q-12 -20 -31.5 -40t-44 -33.5t-53.5 -13.5z" />
    <glyph glyph-name="uni032E" unicode="&#x32e;" 
d="M250 -236q-73 0 -125 43.5t-67 120.5l124 12q9 -26 28 -40.5t40 -14.5t40 14.5t28 40.5l124 -12q-15 -77 -67 -120.5t-125 -43.5z" />
    <glyph glyph-name="uni0331" unicode="&#x331;" 
d="M88 -213v150h324v-150h-324z" />
    <glyph glyph-name="uni0335" unicode="&#x335;" 
d="M66 221v140h368v-140h-368z" />
    <glyph glyph-name="uni0394" unicode="&#x394;" horiz-adv-x="711" 
d="M-16 0l371 748l376 -748h-747zM189 64l-77 99h496l-85 -102l-236 469h136z" />
    <glyph glyph-name="uni03A9" unicode="&#x3a9;" horiz-adv-x="766" 
d="M58 0v177h197l-57 -32q-48 42 -86 86t-60 92t-22 101q0 64 26.5 118t74.5 94t112.5 62t139.5 22t139.5 -22t112.5 -62t74.5 -94t26.5 -118q0 -53 -22 -101t-60 -92t-86 -86l-57 32h197v-177h-284v225q10 6 24 18t28.5 27.5t24.5 34.5q7 14 13 28.5t9 29.5t3 30
q0 27 -10.5 50.5t-30 40.5t-45.5 26.5t-57 9.5t-57 -9.5t-45.5 -26.5t-30 -40.5t-10.5 -50.5q0 -15 3.5 -31t9.5 -31t14 -29t17.5 -26t20 -21.5t20 -17t17.5 -12.5v-225h-284z" />
    <glyph glyph-name="uni03BC" unicode="&#x3bc;" horiz-adv-x="679" 
d="M70 -165v700h203v-313q0 -22 7.5 -37t21.5 -23t34 -8q15 0 27.5 4.5t21.5 13.5t14 20.5t5 24.5v318h203v-535h-186l-11 89l22 -6q-26 -35 -49.5 -54t-52 -28t-69.5 -13q-6 0 -9 -0.5t-5 -0.5h-4l20 82l10 -234h-203z" />
    <glyph glyph-name="pi" unicode="&#x3c0;" horiz-adv-x="669" 
d="M99 0v485l17 -120h-91v170h634v-170h-83l9 82v-447h-194v469l10 -104h-121l13 82v-447h-194z" />
    <glyph glyph-name="uni1E08" unicode="&#x1e08;" horiz-adv-x="705" 
d="M424 -10q-84 0 -154.5 27t-122 75.5t-79.5 115.5t-28 147t28.5 147t80.5 115.5t123.5 75.5t157.5 27q49 0 96.5 -11.5t90 -35t77.5 -59.5l-129 -151q-14 17 -33.5 31t-45 22.5t-58.5 8.5q-34 0 -64.5 -11.5t-53 -33.5t-35.5 -54t-13 -74q0 -38 13 -69t37 -53t58 -34
t76 -12q30 0 57 9t49 23.5t38 32.5l103 -162q-26 -28 -69 -50t-95 -34.5t-105 -12.5zM308 -247l-11 91q18 0 38 3t34 10t14 18q0 10 -7.5 16.5t-20 9.5t-29.5 3l-21 16l67 104h99l-48 -64q54 -4 79.5 -32.5t25.5 -66.5q0 -34 -20.5 -55.5t-54 -33.5t-71.5 -16t-74 -3z
M322 742l-43 102l228 116l60 -137z" />
    <glyph glyph-name="uni1E09" unicode="&#x1e09;" horiz-adv-x="553" 
d="M311 -10q-81 0 -144.5 36t-100 98.5t-36.5 143.5t36.5 143.5t100 98.5t144.5 36q72 0 133 -22t99 -64l-110 -130q-11 12 -26 22t-34 15.5t-44 5.5q-30 0 -52.5 -13t-34.5 -36.5t-12 -54.5q0 -30 11.5 -53.5t34 -37.5t53.5 -14q25 0 44 5t34 14.5t26 22.5l109 -131
q-37 -41 -98 -63t-133 -22zM207 -247l-11 91q18 0 38 3t34 10t14 18q0 10 -7.5 16.5t-20 9.5t-29.5 3l-21 16l67 104h99l-48 -64q54 -4 79.5 -32.5t25.5 -66.5q0 -34 -20.5 -55.5t-54 -33.5t-71.5 -16t-74 -3zM226 576l-58 89l206 154l80 -121z" />
    <glyph glyph-name="uni1E0C" unicode="&#x1e0c;" horiz-adv-x="790" 
d="M80 0v700h308q79 0 145 -26t115 -72.5t75.5 -110.5t26.5 -141q0 -76 -26.5 -140.5t-75.5 -111t-115 -72.5t-145 -26h-308zM296 133l-37 51h124q33 0 60 12.5t47 34.5t31 52.5t11 66.5t-11 66.5t-31 52.5t-47 34.5t-60 12.5h-127l40 49v-432zM395 -237q-56 0 -87.5 26
t-31.5 74q0 44 32 72t87 28q56 0 87.5 -26t31.5 -74q0 -44 -32 -72t-87 -28z" />
    <glyph glyph-name="uni1E0D" unicode="&#x1e0d;" horiz-adv-x="669" 
d="M258 -11q-66 0 -117.5 35.5t-81 98t-29.5 144.5q0 81 30 144t82.5 99t120.5 36q34 0 65 -9.5t56 -27t42.5 -41t23.5 -50.5l-45 -14v336h204v-740h-183l-16 118l41 -9q-5 -26 -22 -48t-42.5 -38t-58.5 -25t-70 -9zM319 154q29 0 49.5 13.5t31 38.5t10.5 61t-10.5 61.5
t-31 38.5t-49.5 13t-49 -13t-30.5 -38.5t-10.5 -61.5t10.5 -61t30.5 -38.5t49 -13.5zM335 -237q-56 0 -87.5 26t-31.5 74q0 44 32 72t87 28q56 0 87.5 -26t31.5 -74q0 -44 -32 -72t-87 -28z" />
    <glyph glyph-name="uni1E0E" unicode="&#x1e0e;" horiz-adv-x="790" 
d="M80 0v700h308q79 0 145 -26t115 -72.5t75.5 -110.5t26.5 -141q0 -76 -26.5 -140.5t-75.5 -111t-115 -72.5t-145 -26h-308zM296 133l-37 51h124q33 0 60 12.5t47 34.5t31 52.5t11 66.5t-11 66.5t-31 52.5t-47 34.5t-60 12.5h-127l40 49v-432zM233 -213v150h324v-150h-324z
" />
    <glyph glyph-name="uni1E0F" unicode="&#x1e0f;" horiz-adv-x="669" 
d="M258 -11q-66 0 -117.5 35.5t-81 98t-29.5 144.5q0 81 30 144t82.5 99t120.5 36q34 0 65 -9.5t56 -27t42.5 -41t23.5 -50.5l-45 -14v336h204v-740h-183l-16 118l41 -9q-5 -26 -22 -48t-42.5 -38t-58.5 -25t-70 -9zM319 154q29 0 49.5 13.5t31 38.5t10.5 61t-10.5 61.5
t-31 38.5t-49.5 13t-49 -13t-30.5 -38.5t-10.5 -61.5t10.5 -61t30.5 -38.5t49 -13.5zM173 -213v150h324v-150h-324z" />
    <glyph glyph-name="uni1E14" unicode="&#x1e14;" horiz-adv-x="668" 
d="M80 0v700h523v-175h-316v-350h334v-175h-541zM183 272v164h383v-164h-383zM164 790v120h379v-120h-379zM468 962l-245 81l60 137l228 -116z" />
    <glyph glyph-name="uni1E15" unicode="&#x1e15;" horiz-adv-x="586" 
d="M329 -10q-93 0 -160 36t-103 98.5t-36 143.5q0 60 20 111t56.5 88.5t86 58t108.5 20.5t107.5 -20.5t83.5 -58t53.5 -88.5t16.5 -111l-1 -42h-419l-23 95h281l-19 -20v18q0 19 -9.5 33.5t-26.5 22.5t-40 8q-29 0 -49 -12t-30.5 -34t-10.5 -53q0 -36 15.5 -63t46 -42
t75.5 -15q30 0 51.5 7.5t45.5 24.5l93 -131q-37 -29 -72.5 -45t-70 -23t-70.5 -7zM308 798l-135 149l119 84l95 -183zM114 628v120h374v-120h-374z" />
    <glyph glyph-name="uni1E16" unicode="&#x1e16;" horiz-adv-x="668" 
d="M80 0v700h523v-175h-316v-350h334v-175h-541zM183 272v164h383v-164h-383zM164 790v120h379v-120h-379zM250 962l-43 102l228 116l60 -137z" />
    <glyph glyph-name="uni1E17" unicode="&#x1e17;" horiz-adv-x="586" 
d="M329 -10q-93 0 -160 36t-103 98.5t-36 143.5q0 60 20 111t56.5 88.5t86 58t108.5 20.5t107.5 -20.5t83.5 -58t53.5 -88.5t16.5 -111l-1 -42h-419l-23 95h281l-19 -20v18q0 19 -9.5 33.5t-26.5 22.5t-40 8q-29 0 -49 -12t-30.5 -34t-10.5 -53q0 -36 15.5 -63t46 -42
t75.5 -15q30 0 51.5 7.5t45.5 24.5l93 -131q-37 -29 -72.5 -45t-70 -23t-70.5 -7zM114 628v120h374v-120h-374zM312 798l-79 50l95 183l119 -84z" />
    <glyph glyph-name="uni1E1C" unicode="&#x1e1c;" horiz-adv-x="668" 
d="M80 0v700h523v-175h-316v-350h334v-175h-541zM183 272v164h383v-164h-383zM229 -247l-11 91q18 0 38 3t34 10t14 18q0 10 -7.5 16.5t-20 9.5t-29.5 3l-21 16l67 104h99l-48 -64q54 -4 79.5 -32.5t25.5 -66.5q0 -34 -20.5 -55.5t-54 -33.5t-71.5 -16t-74 -3zM354 762
q-48 0 -88 19.5t-67 56.5t-37 88l124 12q9 -26 28 -40.5t40 -14.5t40 14.5t28 40.5l124 -12q-10 -51 -37 -88t-66.5 -56.5t-88.5 -19.5z" />
    <glyph glyph-name="uni1E1D" unicode="&#x1e1d;" horiz-adv-x="586" 
d="M329 -10q-93 0 -160 36t-103 98.5t-36 143.5q0 60 20 111t56.5 88.5t86 58t108.5 20.5t107.5 -20.5t83.5 -58t53.5 -88.5t16.5 -111l-1 -42h-419l-23 95h281l-19 -20v18q0 19 -9.5 33.5t-26.5 22.5t-40 8q-29 0 -49 -12t-30.5 -34t-10.5 -53q0 -36 15.5 -63t46 -42
t75.5 -15q30 0 51.5 7.5t45.5 24.5l93 -131q-37 -29 -72.5 -45t-70 -23t-70.5 -7zM224 -247l-11 91q18 0 38 3t34 10t14 18q0 10 -7.5 16.5t-20 9.5t-29.5 3l-21 16l67 104h99l-48 -64q54 -4 79.5 -32.5t25.5 -66.5q0 -34 -20.5 -55.5t-54 -33.5t-71.5 -16t-74 -3zM301 610
q-73 0 -125 43.5t-67 120.5l124 12q9 -26 28 -40.5t40 -14.5t40 14.5t28 40.5l124 -12q-15 -77 -67 -120.5t-125 -43.5z" />
    <glyph glyph-name="uni1E20" unicode="&#x1e20;" horiz-adv-x="793" 
d="M414 -10q-90 0 -159.5 27t-117.5 76t-72.5 116t-24.5 146q0 80 27.5 146.5t79.5 115.5t123.5 76t159.5 27q61 0 113.5 -15t95 -40.5t73.5 -57.5l-128 -136q-20 19 -43 33.5t-51 23t-63 8.5q-36 0 -66 -13.5t-52 -37.5t-34.5 -57.5t-12.5 -72.5t13 -72.5t36 -57.5
t55 -37.5t70 -13.5q26 0 47.5 8.5t37 23t24.5 35t9 44.5v29l28 -48h-178v152h344q1 -11 2.5 -36t2 -49.5t0.5 -33.5q0 -67 -25 -124t-70.5 -98t-107.5 -64t-136 -23zM228 790v120h379v-120h-379z" />
    <glyph glyph-name="uni1E21" unicode="&#x1e21;" horiz-adv-x="684" 
d="M319 -230q-72 0 -142.5 20t-115.5 52l69 136q22 -14 46 -24t50.5 -15t56.5 -5q47 0 76 12.5t42.5 39.5t13.5 69v80l45 -4q-8 -34 -35 -60t-67 -41t-85 -15q-71 0 -125.5 32t-86 89.5t-31.5 135.5q0 81 31 142.5t84.5 96.5t122.5 35q30 0 57 -6t50 -16.5t41 -25.5
t29.5 -33t15.5 -39l-41 -9l11 118h188v-483q0 -67 -20.5 -119.5t-59.5 -89t-94.5 -55t-125.5 -18.5zM324 160q31 0 52.5 13t32.5 37.5t11 59.5t-11 60t-32.5 38t-52.5 13t-52 -13t-32 -38t-11 -60t11 -59.5t32 -37.5t52 -13zM155 638v120h374v-120h-374z" />
    <glyph glyph-name="uni1E24" unicode="&#x1e24;" horiz-adv-x="793" 
d="M497 0v700h216v-700h-216zM80 0v700h216v-700h-216zM161 255l1 188h457v-188h-458zM397 -237q-56 0 -87.5 26t-31.5 74q0 44 32 72t87 28q56 0 87.5 -26t31.5 -74q0 -44 -32 -72t-87 -28z" />
    <glyph glyph-name="uni1E25" unicode="&#x1e25;" horiz-adv-x="665" 
d="M70 0v740h198v-313l-43 -12q11 38 39.5 67.5t68.5 46.5t85 17q60 0 102 -25t63.5 -73.5t21.5 -117.5v-330h-203v313q0 22 -7 37t-21 23t-33 8q-15 0 -27.5 -4.5t-21.5 -13.5t-14 -20t-5 -25v-318h-101h-63.5h-38.5zM333 -237q-56 0 -87.5 26t-31.5 74q0 44 32 72t87 28
q56 0 87.5 -26t31.5 -74q0 -44 -32 -72t-87 -28z" />
    <glyph glyph-name="uni1E2A" unicode="&#x1e2a;" horiz-adv-x="793" 
d="M497 0v700h216v-700h-216zM80 0v700h216v-700h-216zM161 255l1 188h457v-188h-458zM397 -236q-73 0 -125 43.5t-67 120.5l124 12q9 -26 28 -40.5t40 -14.5t40 14.5t28 40.5l124 -12q-15 -77 -67 -120.5t-125 -43.5z" />
    <glyph glyph-name="uni1E2B" unicode="&#x1e2b;" horiz-adv-x="665" 
d="M70 0v740h198v-313l-43 -12q11 38 39.5 67.5t68.5 46.5t85 17q60 0 102 -25t63.5 -73.5t21.5 -117.5v-330h-203v313q0 22 -7 37t-21 23t-33 8q-15 0 -27.5 -4.5t-21.5 -13.5t-14 -20t-5 -25v-318h-101h-63.5h-38.5zM333 -236q-73 0 -125 43.5t-67 120.5l124 12
q9 -26 28 -40.5t40 -14.5t40 14.5t28 40.5l124 -12q-15 -77 -67 -120.5t-125 -43.5z" />
    <glyph glyph-name="uni1E2E" unicode="&#x1e2e;" horiz-adv-x="612" 
d="M75 0v175h123v350h-123v175h462v-175h-123v-350h123v-175h-462zM202 982l-43 102l228 116l60 -137zM170 750q-48 0 -74 26t-26 74q0 44 27 72t73 28q48 0 74 -25.5t26 -74.5q0 -44 -27 -72t-73 -28zM441 750q-48 0 -74 26t-26 74q0 44 27 72t73 28q48 0 74 -25.5
t26 -74.5q0 -44 -27 -72t-73 -28z" />
    <glyph glyph-name="uni1E2F" unicode="&#x1e2f;" horiz-adv-x="323" 
d="M60 0v535h203v-535h-203zM27 598q-48 0 -74 26t-26 74q0 44 27 72t73 28q48 0 74 -25.5t26 -74.5q0 -44 -27 -72t-73 -28zM298 598q-48 0 -74 26t-26 74q0 44 27 72t73 28q48 0 74 -25.5t26 -74.5q0 -44 -27 -72t-73 -28zM180 798l-79 50l95 183l119 -84z" />
    <glyph glyph-name="uni1E36" unicode="&#x1e36;" horiz-adv-x="616" 
d="M80 0v700h216v-516h300v-184h-516zM308 -237q-56 0 -87.5 26t-31.5 74q0 44 32 72t87 28q56 0 87.5 -26t31.5 -74q0 -44 -32 -72t-87 -28z" />
    <glyph glyph-name="uni1E37" unicode="&#x1e37;" horiz-adv-x="343" 
d="M70 0v740h203v-740h-203zM172 -237q-56 0 -87.5 26t-31.5 74q0 44 32 72t87 28q56 0 87.5 -26t31.5 -74q0 -44 -32 -72t-87 -28z" />
    <glyph glyph-name="uni1E3A" unicode="&#x1e3a;" horiz-adv-x="616" 
d="M80 0v700h216v-516h300v-184h-516zM146 -213v150h324v-150h-324z" />
    <glyph glyph-name="uni1E3B" unicode="&#x1e3b;" horiz-adv-x="343" 
d="M70 0v740h203v-740h-203zM10 -213v150h324v-150h-324z" />
    <glyph glyph-name="uni1E42" unicode="&#x1e42;" horiz-adv-x="888" 
d="M80 0v700h186l255 -415l-151 1l258 414h180v-700h-208v167q0 90 4.5 162t15.5 143l24 -63l-169 -262h-66l-166 262l25 63q11 -67 15.5 -137.5t4.5 -167.5v-167h-208zM444 -237q-56 0 -87.5 26t-31.5 74q0 44 32 72t87 28q56 0 87.5 -26t31.5 -74q0 -44 -32 -72t-87 -28z
" />
    <glyph glyph-name="uni1E43" unicode="&#x1e43;" horiz-adv-x="993" 
d="M70 0v535h188l8 -84l-23 8q15 26 34.5 42.5t41.5 26.5t45 14t44 4q35 0 66 -9.5t56 -33.5t42 -69l-31 1l8 14q15 26 36 44t46 30t51 17.5t50 5.5q66 0 111 -25t67.5 -73.5t22.5 -117.5v-330h-203v313q0 22 -7 37t-20.5 23t-32.5 8q-15 0 -27.5 -4.5t-21 -13.5t-13.5 -20
t-5 -25v-318h-203v313q0 22 -7 37t-20.5 23t-32.5 8q-15 0 -27.5 -4.5t-21 -13.5t-13.5 -20t-5 -25v-318h-203zM497 -237q-56 0 -87.5 26t-31.5 74q0 44 32 72t87 28q56 0 87.5 -26t31.5 -74q0 -44 -32 -72t-87 -28z" />
    <glyph glyph-name="uni1E44" unicode="&#x1e44;" horiz-adv-x="817" 
d="M80 0v700h193l322 -445l-46 14q-5 40 -8.5 70t-6 55.5t-4 50.5t-1.5 55v70v130h208v-700h-195l-355 490l81 -24q5 -37 8.5 -64.5t5.5 -50.5t3.5 -45.5t2 -50t0.5 -64.5v-191h-208zM409 754q-54 0 -84.5 25t-30.5 71q0 42 31 69t84 27q54 0 84.5 -25t30.5 -71
q0 -42 -31 -69t-84 -27z" />
    <glyph glyph-name="uni1E45" unicode="&#x1e45;" horiz-adv-x="665" 
d="M70 0v535h188l10 -108l-43 -12q11 38 39.5 67.5t68.5 46.5t85 17q60 0 102 -25t63.5 -73.5t21.5 -117.5v-330h-203v313q0 22 -7 37t-21 23t-33 8q-15 0 -27.5 -4.5t-21.5 -13.5t-14 -20t-5 -25v-318h-101h-63.5h-38.5zM363 632q-54 0 -84.5 25t-30.5 71q0 42 31 69t84 27
q54 0 84.5 -25t30.5 -71q0 -42 -31 -69t-84 -27z" />
    <glyph glyph-name="uni1E46" unicode="&#x1e46;" horiz-adv-x="817" 
d="M80 0v700h193l322 -445l-46 14q-5 40 -8.5 70t-6 55.5t-4 50.5t-1.5 55v70v130h208v-700h-195l-355 490l81 -24q5 -37 8.5 -64.5t5.5 -50.5t3.5 -45.5t2 -50t0.5 -64.5v-191h-208zM409 -237q-56 0 -87.5 26t-31.5 74q0 44 32 72t87 28q56 0 87.5 -26t31.5 -74
q0 -44 -32 -72t-87 -28z" />
    <glyph glyph-name="uni1E47" unicode="&#x1e47;" horiz-adv-x="665" 
d="M70 0v535h188l10 -108l-43 -12q11 38 39.5 67.5t68.5 46.5t85 17q60 0 102 -25t63.5 -73.5t21.5 -117.5v-330h-203v313q0 22 -7 37t-21 23t-33 8q-15 0 -27.5 -4.5t-21.5 -13.5t-14 -20t-5 -25v-318h-101h-63.5h-38.5zM333 -237q-56 0 -87.5 26t-31.5 74q0 44 32 72
t87 28q56 0 87.5 -26t31.5 -74q0 -44 -32 -72t-87 -28z" />
    <glyph glyph-name="uni1E48" unicode="&#x1e48;" horiz-adv-x="817" 
d="M80 0v700h193l322 -445l-46 14q-5 40 -8.5 70t-6 55.5t-4 50.5t-1.5 55v70v130h208v-700h-195l-355 490l81 -24q5 -37 8.5 -64.5t5.5 -50.5t3.5 -45.5t2 -50t0.5 -64.5v-191h-208zM247 -213v150h324v-150h-324z" />
    <glyph glyph-name="uni1E49" unicode="&#x1e49;" horiz-adv-x="665" 
d="M70 0v535h188l10 -108l-43 -12q11 38 39.5 67.5t68.5 46.5t85 17q60 0 102 -25t63.5 -73.5t21.5 -117.5v-330h-203v313q0 22 -7 37t-21 23t-33 8q-15 0 -27.5 -4.5t-21.5 -13.5t-14 -20t-5 -25v-318h-101h-63.5h-38.5zM171 -213v150h324v-150h-324z" />
    <glyph glyph-name="uni1E4C" unicode="&#x1e4c;" horiz-adv-x="834" 
d="M418 -10q-83 0 -152 27t-120 76t-78.5 116t-27.5 146q0 80 27.5 146.5t78.5 115.5t120 76t151 27q83 0 151.5 -27t119.5 -76t78.5 -115.5t27.5 -145.5q0 -80 -27.5 -147t-78.5 -116t-119.5 -76t-150.5 -27zM417 190q34 0 62.5 12t50 34.5t33 52.5t11.5 66t-11.5 66
t-33 52.5t-50 34.5t-62.5 12t-62.5 -12t-50 -34.5t-33 -52.5t-11.5 -66t11.5 -66t33 -52.5t50 -34.5t62.5 -12zM496 768q-17 0 -35 5t-44 17q-19 9 -31.5 13.5t-22.5 4.5q-15 0 -23 -10.5t-8 -28.5h-117q0 75 37 119t101 44q15 0 31 -3.5t48 -19.5q18 -9 27 -13t18 -4
q13 0 19.5 11t5.5 29h116q0 -46 -15.5 -83.5t-43 -59t-63.5 -21.5zM313 962l-43 102l228 116l60 -137z" />
    <glyph glyph-name="uni1E4D" unicode="&#x1e4d;" horiz-adv-x="660" 
d="M331 -10q-87 0 -155 36t-107 98.5t-39 143.5t39 143.5t107 98.5t155 36t154.5 -36t106 -98.5t38.5 -143.5t-38.5 -143.5t-106 -98.5t-154.5 -36zM331 160q27 0 48.5 14t33.5 38.5t12 55.5q0 32 -12 56.5t-33.5 38.5t-48.5 14q-28 0 -49.5 -14t-34 -38.5t-12.5 -56.5
q0 -31 12.5 -55.5t34 -38.5t49.5 -14zM411 613q-15 0 -35.5 4.5t-49.5 23.5q-17 12 -28.5 16.5t-18.5 4.5q-15 0 -26.5 -9.5t-13.5 -30.5l-105 14q0 62 32 104.5t87 42.5q15 0 34.5 -4t47.5 -22q9 -6 22.5 -14t26.5 -8q14 0 25 10t12 30l105 -15q0 -38 -14.5 -72
t-40.5 -54.5t-60 -20.5zM341 798l-79 50l95 183l119 -84z" />
    <glyph glyph-name="uni1E4E" unicode="&#x1e4e;" horiz-adv-x="834" 
d="M418 -10q-83 0 -152 27t-120 76t-78.5 116t-27.5 146q0 80 27.5 146.5t78.5 115.5t120 76t151 27q83 0 151.5 -27t119.5 -76t78.5 -115.5t27.5 -145.5q0 -80 -27.5 -147t-78.5 -116t-119.5 -76t-150.5 -27zM417 190q34 0 62.5 12t50 34.5t33 52.5t11.5 66t-11.5 66
t-33 52.5t-50 34.5t-62.5 12t-62.5 -12t-50 -34.5t-33 -52.5t-11.5 -66t11.5 -66t33 -52.5t50 -34.5t62.5 -12zM496 768q-17 0 -35 5t-44 17q-19 9 -31.5 13.5t-22.5 4.5q-15 0 -23 -10.5t-8 -28.5h-117q0 75 37 119t101 44q15 0 31 -3.5t48 -19.5q18 -9 27 -13t18 -4
q13 0 19.5 11t5.5 29h116q0 -46 -15.5 -83.5t-43 -59t-63.5 -21.5zM552 970q-48 0 -74 26t-26 74q0 44 27 72t73 28q48 0 74 -25.5t26 -74.5q0 -44 -27 -72t-73 -28zM281 970q-48 0 -74 26t-26 74q0 44 27 72t73 28q48 0 74 -25.5t26 -74.5q0 -44 -27 -72t-73 -28z" />
    <glyph glyph-name="uni1E4F" unicode="&#x1e4f;" horiz-adv-x="660" 
d="M331 -10q-87 0 -155 36t-107 98.5t-39 143.5t39 143.5t107 98.5t155 36t154.5 -36t106 -98.5t38.5 -143.5t-38.5 -143.5t-106 -98.5t-154.5 -36zM331 160q27 0 48.5 14t33.5 38.5t12 55.5q0 32 -12 56.5t-33.5 38.5t-48.5 14q-28 0 -49.5 -14t-34 -38.5t-12.5 -56.5
q0 -31 12.5 -55.5t34 -38.5t49.5 -14zM458 827q-46 0 -70.5 22.5t-24.5 63.5q0 38 26 62t69 24q45 0 70 -22t25 -64q0 -37 -25.5 -61.5t-69.5 -24.5zM201 827q-46 0 -70.5 22.5t-24.5 63.5q0 38 26 62t69 24q45 0 69.5 -22t24.5 -64q0 -37 -25.5 -61.5t-68.5 -24.5zM411 613
q-15 0 -35.5 4.5t-49.5 23.5q-17 12 -28.5 16.5t-18.5 4.5q-15 0 -26.5 -9.5t-13.5 -30.5l-105 14q0 62 32 104.5t87 42.5q15 0 34.5 -4t47.5 -22q9 -6 22.5 -14t26.5 -8q14 0 25 10t12 30l105 -15q0 -38 -14.5 -72t-40.5 -54.5t-60 -20.5z" />
    <glyph glyph-name="uni1E50" unicode="&#x1e50;" horiz-adv-x="834" 
d="M418 -10q-83 0 -152 27t-120 76t-78.5 116t-27.5 146q0 80 27.5 146.5t78.5 115.5t120 76t151 27q83 0 151.5 -27t119.5 -76t78.5 -115.5t27.5 -145.5q0 -80 -27.5 -147t-78.5 -116t-119.5 -76t-150.5 -27zM417 190q34 0 62.5 12t50 34.5t33 52.5t11.5 66t-11.5 66
t-33 52.5t-50 34.5t-62.5 12t-62.5 -12t-50 -34.5t-33 -52.5t-11.5 -66t11.5 -66t33 -52.5t50 -34.5t62.5 -12zM227 790v120h379v-120h-379zM531 962l-245 81l60 137l228 -116z" />
    <glyph glyph-name="uni1E51" unicode="&#x1e51;" horiz-adv-x="660" 
d="M331 -10q-87 0 -155 36t-107 98.5t-39 143.5t39 143.5t107 98.5t155 36t154.5 -36t106 -98.5t38.5 -143.5t-38.5 -143.5t-106 -98.5t-154.5 -36zM331 160q27 0 48.5 14t33.5 38.5t12 55.5q0 32 -12 56.5t-33.5 38.5t-48.5 14q-28 0 -49.5 -14t-34 -38.5t-12.5 -56.5
q0 -31 12.5 -55.5t34 -38.5t49.5 -14zM337 798l-135 149l119 84l95 -183zM143 628v120h374v-120h-374z" />
    <glyph glyph-name="uni1E52" unicode="&#x1e52;" horiz-adv-x="834" 
d="M418 -10q-83 0 -152 27t-120 76t-78.5 116t-27.5 146q0 80 27.5 146.5t78.5 115.5t120 76t151 27q83 0 151.5 -27t119.5 -76t78.5 -115.5t27.5 -145.5q0 -80 -27.5 -147t-78.5 -116t-119.5 -76t-150.5 -27zM417 190q34 0 62.5 12t50 34.5t33 52.5t11.5 66t-11.5 66
t-33 52.5t-50 34.5t-62.5 12t-62.5 -12t-50 -34.5t-33 -52.5t-11.5 -66t11.5 -66t33 -52.5t50 -34.5t62.5 -12zM227 790v120h379v-120h-379zM313 962l-43 102l228 116l60 -137z" />
    <glyph glyph-name="uni1E53" unicode="&#x1e53;" horiz-adv-x="660" 
d="M331 -10q-87 0 -155 36t-107 98.5t-39 143.5t39 143.5t107 98.5t155 36t154.5 -36t106 -98.5t38.5 -143.5t-38.5 -143.5t-106 -98.5t-154.5 -36zM331 160q27 0 48.5 14t33.5 38.5t12 55.5q0 32 -12 56.5t-33.5 38.5t-48.5 14q-28 0 -49.5 -14t-34 -38.5t-12.5 -56.5
q0 -31 12.5 -55.5t34 -38.5t49.5 -14zM143 628v120h374v-120h-374zM341 798l-79 50l95 183l119 -84z" />
    <glyph glyph-name="uni1E5A" unicode="&#x1e5a;" horiz-adv-x="707" 
d="M80 0v700h328q73 0 130 -29t89 -79t32 -115q0 -73 -32 -128t-89 -85.5t-130 -30.5h-126v-233h-202zM447 0l-178 316l221 25l198 -341h-241zM282 383h92q25 0 41.5 9.5t25 26.5t8.5 41q0 22 -8.5 37.5t-26 24t-44.5 8.5h-88v-147zM354 -237q-56 0 -87.5 26t-31.5 74
q0 44 32 72t87 28q56 0 87.5 -26t31.5 -74q0 -44 -32 -72t-87 -28z" />
    <glyph glyph-name="uni1E5B" unicode="&#x1e5b;" horiz-adv-x="493" 
d="M70 0v535h188l12 -178l-45 28q13 46 41 82.5t67.5 57.5t84.5 21q18 0 34 -2.5t31 -6.5l-56 -225q-10 7 -31.5 13t-46.5 6q-18 0 -32.5 -5.5t-24 -16.5t-14.5 -26t-5 -35v-248h-203zM164 -237q-56 0 -87.5 26t-31.5 74q0 44 32 72t87 28q56 0 87.5 -26t31.5 -74
q0 -44 -32 -72t-87 -28z" />
    <glyph glyph-name="uni1E5E" unicode="&#x1e5e;" horiz-adv-x="707" 
d="M80 0v700h328q73 0 130 -29t89 -79t32 -115q0 -73 -32 -128t-89 -85.5t-130 -30.5h-126v-233h-202zM447 0l-178 316l221 25l198 -341h-241zM282 383h92q25 0 41.5 9.5t25 26.5t8.5 41q0 22 -8.5 37.5t-26 24t-44.5 8.5h-88v-147zM192 -213v150h324v-150h-324z" />
    <glyph glyph-name="uni1E5F" unicode="&#x1e5f;" horiz-adv-x="493" 
d="M70 0v535h188l12 -178l-45 28q13 46 41 82.5t67.5 57.5t84.5 21q18 0 34 -2.5t31 -6.5l-56 -225q-10 7 -31.5 13t-46.5 6q-18 0 -32.5 -5.5t-24 -16.5t-14.5 -26t-5 -35v-248h-203zM2 -213v150h324v-150h-324z" />
    <glyph glyph-name="uni1E60" unicode="&#x1e60;" horiz-adv-x="641" 
d="M325 -10q-79 0 -139.5 17.5t-106 49.5t-81.5 75l125 140q50 -64 104.5 -84.5t102.5 -20.5q19 0 34 3.5t23 11.5t8 22q0 13 -8.5 22t-22.5 15.5t-30.5 11t-32 7.5t-27.5 6q-60 14 -105 34t-75 48t-44.5 64t-14.5 81q0 51 23.5 93t63 72t90 46t104.5 16q79 0 132 -14.5
t89 -41.5t62 -63l-126 -121q-22 21 -46 34.5t-49.5 20t-50.5 6.5q-23 0 -39 -3.5t-25 -11t-9 -20.5t11.5 -21.5t29 -14.5t35 -9.5t29.5 -5.5q55 -10 101 -27.5t80.5 -44t53 -66t18.5 -93.5q0 -77 -38.5 -129t-103.5 -78.5t-145 -26.5zM332 754q-54 0 -84.5 25t-30.5 71
q0 42 31 69t84 27q54 0 84.5 -25t30.5 -71q0 -42 -31 -69t-84 -27z" />
    <glyph glyph-name="uni1E61" unicode="&#x1e61;" horiz-adv-x="507" 
d="M253 -10q-87 0 -151.5 26.5t-100.5 66.5l118 101q32 -28 73.5 -41.5t69.5 -13.5q10 0 17.5 1.5t12 5t7 7.5t2.5 10q0 15 -16 22q-9 4 -29.5 10t-53.5 14q-39 10 -71.5 25t-55.5 35q-24 22 -37.5 50t-13.5 63q0 41 19 73t52 54.5t74 34.5t84 12q49 0 91.5 -9.5t80 -27
t68.5 -41.5l-103 -115q-17 14 -39.5 27t-47 21.5t-45.5 8.5q-11 0 -18.5 -1.5t-12.5 -5t-7.5 -8t-2.5 -10.5q0 -8 5 -15t16 -12q9 -4 30.5 -11t63.5 -19q45 -13 79.5 -30t55.5 -40q14 -16 22 -36t8 -43q0 -55 -31.5 -97.5t-86.5 -67t-126 -24.5zM254 632q-54 0 -84.5 25
t-30.5 71q0 42 31 69t84 27q54 0 84.5 -25t30.5 -71q0 -42 -31 -69t-84 -27z" />
    <glyph glyph-name="uni1E62" unicode="&#x1e62;" horiz-adv-x="641" 
d="M325 -10q-79 0 -139.5 17.5t-106 49.5t-81.5 75l125 140q50 -64 104.5 -84.5t102.5 -20.5q19 0 34 3.5t23 11.5t8 22q0 13 -8.5 22t-22.5 15.5t-30.5 11t-32 7.5t-27.5 6q-60 14 -105 34t-75 48t-44.5 64t-14.5 81q0 51 23.5 93t63 72t90 46t104.5 16q79 0 132 -14.5
t89 -41.5t62 -63l-126 -121q-22 21 -46 34.5t-49.5 20t-50.5 6.5q-23 0 -39 -3.5t-25 -11t-9 -20.5t11.5 -21.5t29 -14.5t35 -9.5t29.5 -5.5q55 -10 101 -27.5t80.5 -44t53 -66t18.5 -93.5q0 -77 -38.5 -129t-103.5 -78.5t-145 -26.5zM341 -237q-56 0 -87.5 26t-31.5 74
q0 44 32 72t87 28q56 0 87.5 -26t31.5 -74q0 -44 -32 -72t-87 -28z" />
    <glyph glyph-name="uni1E63" unicode="&#x1e63;" horiz-adv-x="507" 
d="M253 -10q-87 0 -151.5 26.5t-100.5 66.5l118 101q32 -28 73.5 -41.5t69.5 -13.5q10 0 17.5 1.5t12 5t7 7.5t2.5 10q0 15 -16 22q-9 4 -29.5 10t-53.5 14q-39 10 -71.5 25t-55.5 35q-24 22 -37.5 50t-13.5 63q0 41 19 73t52 54.5t74 34.5t84 12q49 0 91.5 -9.5t80 -27
t68.5 -41.5l-103 -115q-17 14 -39.5 27t-47 21.5t-45.5 8.5q-11 0 -18.5 -1.5t-12.5 -5t-7.5 -8t-2.5 -10.5q0 -8 5 -15t16 -12q9 -4 30.5 -11t63.5 -19q45 -13 79.5 -30t55.5 -40q14 -16 22 -36t8 -43q0 -55 -31.5 -97.5t-86.5 -67t-126 -24.5zM254 -237q-56 0 -87.5 26
t-31.5 74q0 44 32 72t87 28q56 0 87.5 -26t31.5 -74q0 -44 -32 -72t-87 -28z" />
    <glyph glyph-name="uni1E64" unicode="&#x1e64;" horiz-adv-x="641" 
d="M325 -10q-79 0 -139.5 17.5t-106 49.5t-81.5 75l125 140q50 -64 104.5 -84.5t102.5 -20.5q19 0 34 3.5t23 11.5t8 22q0 13 -8.5 22t-22.5 15.5t-30.5 11t-32 7.5t-27.5 6q-60 14 -105 34t-75 48t-44.5 64t-14.5 81q0 51 23.5 93t63 72t90 46t104.5 16q79 0 132 -14.5
t89 -41.5t62 -63l-126 -121q-22 21 -46 34.5t-49.5 20t-50.5 6.5q-23 0 -39 -3.5t-25 -11t-9 -20.5t11.5 -21.5t29 -14.5t35 -9.5t29.5 -5.5q55 -10 101 -27.5t80.5 -44t53 -66t18.5 -93.5q0 -77 -38.5 -129t-103.5 -78.5t-145 -26.5zM433 752l-79 50l95 183l119 -84z
M231 751q-48 0 -75 22.5t-27 62.5q0 38 27.5 61.5t74.5 23.5q48 0 75 -22t27 -63q0 -37 -27.5 -61t-74.5 -24z" />
    <glyph glyph-name="uni1E65" unicode="&#x1e65;" horiz-adv-x="507" 
d="M253 -10q-87 0 -151.5 26.5t-100.5 66.5l118 101q32 -28 73.5 -41.5t69.5 -13.5q10 0 17.5 1.5t12 5t7 7.5t2.5 10q0 15 -16 22q-9 4 -29.5 10t-53.5 14q-39 10 -71.5 25t-55.5 35q-24 22 -37.5 50t-13.5 63q0 41 19 73t52 54.5t74 34.5t84 12q49 0 91.5 -9.5t80 -27
t68.5 -41.5l-103 -115q-17 14 -39.5 27t-47 21.5t-45.5 8.5q-11 0 -18.5 -1.5t-12.5 -5t-7.5 -8t-2.5 -10.5q0 -8 5 -15t16 -12q9 -4 30.5 -11t63.5 -19q45 -13 79.5 -30t55.5 -40q14 -16 22 -36t8 -43q0 -55 -31.5 -97.5t-86.5 -67t-126 -24.5zM355 612l-79 50l95 183
l119 -84zM153 611q-48 0 -75 22.5t-27 62.5q0 38 27.5 61.5t74.5 23.5q48 0 75 -22t27 -63q0 -37 -27.5 -61t-74.5 -24z" />
    <glyph glyph-name="uni1E66" unicode="&#x1e66;" horiz-adv-x="641" 
d="M325 -10q-79 0 -139.5 17.5t-106 49.5t-81.5 75l125 140q50 -64 104.5 -84.5t102.5 -20.5q19 0 34 3.5t23 11.5t8 22q0 13 -8.5 22t-22.5 15.5t-30.5 11t-32 7.5t-27.5 6q-60 14 -105 34t-75 48t-44.5 64t-14.5 81q0 51 23.5 93t63 72t90 46t104.5 16q79 0 132 -14.5
t89 -41.5t62 -63l-126 -121q-22 21 -46 34.5t-49.5 20t-50.5 6.5q-23 0 -39 -3.5t-25 -11t-9 -20.5t11.5 -21.5t29 -14.5t35 -9.5t29.5 -5.5q55 -10 101 -27.5t80.5 -44t53 -66t18.5 -93.5q0 -77 -38.5 -129t-103.5 -78.5t-145 -26.5zM281 753l-145 111l58 73l153 -76h-30
l153 76l58 -73l-145 -111h-102zM331 974q-54 0 -84.5 25t-30.5 71q0 42 31 69t84 27q54 0 84.5 -25t30.5 -71q0 -42 -31 -69t-84 -27z" />
    <glyph glyph-name="uni1E67" unicode="&#x1e67;" horiz-adv-x="507" 
d="M253 -10q-87 0 -151.5 26.5t-100.5 66.5l118 101q32 -28 73.5 -41.5t69.5 -13.5q10 0 17.5 1.5t12 5t7 7.5t2.5 10q0 15 -16 22q-9 4 -29.5 10t-53.5 14q-39 10 -71.5 25t-55.5 35q-24 22 -37.5 50t-13.5 63q0 41 19 73t52 54.5t74 34.5t84 12q49 0 91.5 -9.5t80 -27
t68.5 -41.5l-103 -115q-17 14 -39.5 27t-47 21.5t-45.5 8.5q-11 0 -18.5 -1.5t-12.5 -5t-7.5 -8t-2.5 -10.5q0 -8 5 -15t16 -12q9 -4 30.5 -11t63.5 -19q45 -13 79.5 -30t55.5 -40q14 -16 22 -36t8 -43q0 -55 -31.5 -97.5t-86.5 -67t-126 -24.5zM203 597l-166 142l72 62
l160 -96h-30l160 96l72 -62l-166 -142h-102zM254 817q-54 0 -84.5 25t-30.5 71q0 42 31 69t84 27q54 0 84.5 -25t30.5 -71q0 -42 -31 -69t-84 -27z" />
    <glyph glyph-name="uni1E68" unicode="&#x1e68;" horiz-adv-x="641" 
d="M325 -10q-79 0 -139.5 17.5t-106 49.5t-81.5 75l125 140q50 -64 104.5 -84.5t102.5 -20.5q19 0 34 3.5t23 11.5t8 22q0 13 -8.5 22t-22.5 15.5t-30.5 11t-32 7.5t-27.5 6q-60 14 -105 34t-75 48t-44.5 64t-14.5 81q0 51 23.5 93t63 72t90 46t104.5 16q79 0 132 -14.5
t89 -41.5t62 -63l-126 -121q-22 21 -46 34.5t-49.5 20t-50.5 6.5q-23 0 -39 -3.5t-25 -11t-9 -20.5t11.5 -21.5t29 -14.5t35 -9.5t29.5 -5.5q55 -10 101 -27.5t80.5 -44t53 -66t18.5 -93.5q0 -77 -38.5 -129t-103.5 -78.5t-145 -26.5zM341 -237q-56 0 -87.5 26t-31.5 74
q0 44 32 72t87 28q56 0 87.5 -26t31.5 -74q0 -44 -32 -72t-87 -28zM332 754q-54 0 -84.5 25t-30.5 71q0 42 31 69t84 27q54 0 84.5 -25t30.5 -71q0 -42 -31 -69t-84 -27z" />
    <glyph glyph-name="uni1E69" unicode="&#x1e69;" horiz-adv-x="507" 
d="M253 -10q-87 0 -151.5 26.5t-100.5 66.5l118 101q32 -28 73.5 -41.5t69.5 -13.5q10 0 17.5 1.5t12 5t7 7.5t2.5 10q0 15 -16 22q-9 4 -29.5 10t-53.5 14q-39 10 -71.5 25t-55.5 35q-24 22 -37.5 50t-13.5 63q0 41 19 73t52 54.5t74 34.5t84 12q49 0 91.5 -9.5t80 -27
t68.5 -41.5l-103 -115q-17 14 -39.5 27t-47 21.5t-45.5 8.5q-11 0 -18.5 -1.5t-12.5 -5t-7.5 -8t-2.5 -10.5q0 -8 5 -15t16 -12q9 -4 30.5 -11t63.5 -19q45 -13 79.5 -30t55.5 -40q14 -16 22 -36t8 -43q0 -55 -31.5 -97.5t-86.5 -67t-126 -24.5zM254 -237q-56 0 -87.5 26
t-31.5 74q0 44 32 72t87 28q56 0 87.5 -26t31.5 -74q0 -44 -32 -72t-87 -28zM254 632q-54 0 -84.5 25t-30.5 71q0 42 31 69t84 27q54 0 84.5 -25t30.5 -71q0 -42 -31 -69t-84 -27z" />
    <glyph glyph-name="uni1E6C" unicode="&#x1e6c;" horiz-adv-x="714" 
d="M246 0v516h-216v184h654v-184h-222v-516h-216zM357 -237q-56 0 -87.5 26t-31.5 74q0 44 32 72t87 28q56 0 87.5 -26t31.5 -74q0 -44 -32 -72t-87 -28z" />
    <glyph glyph-name="uni1E6D" unicode="&#x1e6d;" horiz-adv-x="409" 
d="M98 0v670h203v-670h-203zM15 365v170h374v-170h-374zM205 -237q-56 0 -87.5 26t-31.5 74q0 44 32 72t87 28q56 0 87.5 -26t31.5 -74q0 -44 -32 -72t-87 -28z" />
    <glyph glyph-name="uni1E6E" unicode="&#x1e6e;" horiz-adv-x="714" 
d="M246 0v516h-216v184h654v-184h-222v-516h-216zM195 -213v150h324v-150h-324z" />
    <glyph glyph-name="uni1E6F" unicode="&#x1e6f;" horiz-adv-x="409" 
d="M98 0v670h203v-670h-203zM15 365v170h374v-170h-374zM43 -213v150h324v-150h-324z" />
    <glyph glyph-name="uni1E78" unicode="&#x1e78;" horiz-adv-x="784" 
d="M392 -6q-91 0 -161.5 35.5t-110.5 97.5t-40 142v431h218v-422q0 -29 12 -51.5t33.5 -35.5t48.5 -13q29 0 51 13t35 35.5t13 51.5v422h213v-431q0 -80 -40 -142t-110.5 -97.5t-161.5 -35.5zM471 768q-17 0 -35 5t-44 17q-19 9 -31.5 13.5t-22.5 4.5q-15 0 -23 -10.5
t-8 -28.5h-117q0 75 37 119t101 44q15 0 31 -3.5t48 -19.5q18 -9 27 -13t18 -4q13 0 19.5 11t5.5 29h116q0 -46 -15.5 -83.5t-43 -59t-63.5 -21.5zM288 962l-43 102l228 116l60 -137z" />
    <glyph glyph-name="uni1E79" unicode="&#x1e79;" horiz-adv-x="669" 
d="M249 -11q-61 0 -103 25t-64 73.5t-22 117.5v330h203v-313q0 -22 7.5 -37t21.5 -23t34 -8q15 0 27.5 4.5t21.5 13.5t14 20.5t5 24.5v318h203v-535h-186l-12 108l38 12q-11 -38 -38.5 -67.5t-66.5 -46.5t-83 -17zM416 613q-15 0 -35.5 4.5t-49.5 23.5q-17 12 -28.5 16.5
t-18.5 4.5q-15 0 -26.5 -9.5t-13.5 -30.5l-105 14q0 62 32 104.5t87 42.5q15 0 34.5 -4t47.5 -22q9 -6 22.5 -14t26.5 -8q14 0 25 10t12 30l105 -15q0 -38 -14.5 -72t-40.5 -54.5t-60 -20.5zM346 798l-79 50l95 183l119 -84z" />
    <glyph glyph-name="uni1E7A" unicode="&#x1e7a;" horiz-adv-x="784" 
d="M392 -6q-91 0 -161.5 35.5t-110.5 97.5t-40 142v431h218v-422q0 -29 12 -51.5t33.5 -35.5t48.5 -13q29 0 51 13t35 35.5t13 51.5v422h213v-431q0 -80 -40 -142t-110.5 -97.5t-161.5 -35.5zM202 790v120h379v-120h-379zM527 970q-48 0 -74 26t-26 74q0 44 27 72t73 28
q48 0 74 -25.5t26 -74.5q0 -44 -27 -72t-73 -28zM256 970q-48 0 -74 26t-26 74q0 44 27 72t73 28q48 0 74 -25.5t26 -74.5q0 -44 -27 -72t-73 -28z" />
    <glyph glyph-name="uni1E7B" unicode="&#x1e7b;" horiz-adv-x="669" 
d="M249 -11q-61 0 -103 25t-64 73.5t-22 117.5v330h203v-313q0 -22 7.5 -37t21.5 -23t34 -8q15 0 27.5 4.5t21.5 13.5t14 20.5t5 24.5v318h203v-535h-186l-12 108l38 12q-11 -38 -38.5 -67.5t-66.5 -46.5t-83 -17zM148 638v120h374v-120h-374zM470 839q-48 0 -74 26t-26 74
q0 44 27 72t73 28q48 0 74 -25.5t26 -74.5q0 -44 -27 -72t-73 -28zM199 839q-48 0 -74 26t-26 74q0 44 27 72t73 28q48 0 74 -25.5t26 -74.5q0 -44 -27 -72t-73 -28z" />
    <glyph glyph-name="Wgrave" unicode="&#x1e80;" horiz-adv-x="990" 
d="M189 0l-199 700h216l82 -316q8 -31 13.5 -59.5t8.5 -52.5t4.5 -44t1.5 -34h-16q0 25 1.5 53.5t7.5 62t20 74.5l87 247h165l87 -247q14 -40 22 -73.5t11.5 -62t3.5 -54.5h-15v27t0.5 33t2.5 38.5t6 43.5t10 48l82 316h209l-201 -700h-170l-152 377h27l-135 -377h-180z
M609 742l-245 81l60 137l228 -116z" />
    <glyph glyph-name="wgrave" unicode="&#x1e81;" horiz-adv-x="859" 
d="M177 0l-172 535h216l77 -309l-20 4l88 240h118l98 -240l-20 -3l76 308h216l-183 -535h-154l-92 248h4l-98 -248h-154zM495 577l-228 122l80 121l206 -154z" />
    <glyph glyph-name="Wacute" unicode="&#x1e82;" horiz-adv-x="990" 
d="M189 0l-199 700h216l82 -316q8 -31 13.5 -59.5t8.5 -52.5t4.5 -44t1.5 -34h-16q0 25 1.5 53.5t7.5 62t20 74.5l87 247h165l87 -247q14 -40 22 -73.5t11.5 -62t3.5 -54.5h-15v27t0.5 33t2.5 38.5t6 43.5t10 48l82 316h209l-201 -700h-170l-152 377h27l-135 -377h-180z
M391 742l-43 102l228 116l60 -137z" />
    <glyph glyph-name="wacute" unicode="&#x1e83;" horiz-adv-x="859" 
d="M177 0l-172 535h216l77 -309l-20 4l88 240h118l98 -240l-20 -3l76 308h216l-183 -535h-154l-92 248h4l-98 -248h-154zM345 576l-58 89l206 154l80 -121z" />
    <glyph glyph-name="Wdieresis" unicode="&#x1e84;" horiz-adv-x="990" 
d="M189 0l-199 700h216l82 -316q8 -31 13.5 -59.5t8.5 -52.5t4.5 -44t1.5 -34h-16q0 25 1.5 53.5t7.5 62t20 74.5l87 247h165l87 -247q14 -40 22 -73.5t11.5 -62t3.5 -54.5h-15v27t0.5 33t2.5 38.5t6 43.5t10 48l82 316h209l-201 -700h-170l-152 377h27l-135 -377h-180z
M630 750q-48 0 -74 26t-26 74q0 44 27 72t73 28q48 0 74 -25.5t26 -74.5q0 -44 -27 -72t-73 -28zM359 750q-48 0 -74 26t-26 74q0 44 27 72t73 28q48 0 74 -25.5t26 -74.5q0 -44 -27 -72t-73 -28z" />
    <glyph glyph-name="wdieresis" unicode="&#x1e85;" horiz-adv-x="859" 
d="M177 0l-172 535h216l77 -309l-20 4l88 240h118l98 -240l-20 -3l76 308h216l-183 -535h-154l-92 248h4l-98 -248h-154zM565 624q-48 0 -74 26t-26 74q0 44 27 72t73 28q48 0 74 -25.5t26 -74.5q0 -44 -27 -72t-73 -28zM294 624q-48 0 -74 26t-26 74q0 44 27 72t73 28
q48 0 74 -25.5t26 -74.5q0 -44 -27 -72t-73 -28z" />
    <glyph glyph-name="uni1E8E" unicode="&#x1e8e;" horiz-adv-x="710" 
d="M256 0v349l7 -49l-283 400h240l216 -310l-135 3l195 307h234l-271 -411l15 68v-357h-218zM355 754q-54 0 -84.5 25t-30.5 71q0 42 31 69t84 27q54 0 84.5 -25t30.5 -71q0 -42 -31 -69t-84 -27z" />
    <glyph glyph-name="uni1E8F" unicode="&#x1e8f;" horiz-adv-x="649" 
d="M121 -230l133 314l2 -82l-251 533h226l74 -178q12 -28 20.5 -53t12.5 -47l-20 -18q4 11 12 34.5t18 54.5l70 207h226l-233 -535l-94 -230h-196zM325 632q-54 0 -84.5 25t-30.5 71q0 42 31 69t84 27q54 0 84.5 -25t30.5 -71q0 -42 -31 -69t-84 -27z" />
    <glyph glyph-name="uni1E92" unicode="&#x1e92;" horiz-adv-x="701" 
d="M60 0v139l359 474l92 -107h-425v194h544v-138l-357 -475l-93 95h461v-182h-581zM351 -237q-56 0 -87.5 26t-31.5 74q0 44 32 72t87 28q56 0 87.5 -26t31.5 -74q0 -44 -32 -72t-87 -28z" />
    <glyph glyph-name="uni1E93" unicode="&#x1e93;" horiz-adv-x="599" 
d="M50 0v96l291 362v-83h-291v160h483v-104l-267 -347l-4 76h281v-160h-493zM300 -237q-56 0 -87.5 26t-31.5 74q0 44 32 72t87 28q56 0 87.5 -26t31.5 -74q0 -44 -32 -72t-87 -28z" />
    <glyph glyph-name="uni1E97" unicode="&#x1e97;" horiz-adv-x="409" 
d="M98 0v670h203v-670h-203zM15 365v170h374v-170h-374zM336 701q-48 0 -74 26t-26 74q0 44 27 72t73 28q48 0 74 -25.5t26 -74.5q0 -44 -27 -72t-73 -28zM65 701q-48 0 -74 26t-26 74q0 44 27 72t73 28q48 0 74 -25.5t26 -74.5q0 -44 -27 -72t-73 -28z" />
    <glyph glyph-name="uni1E9E" unicode="&#x1e9e;" horiz-adv-x="848" 
d="M554 -10q-47 0 -91.5 12t-79.5 31.5t-56 41.5l109 130q27 -24 51 -36t47 -12q24 0 37 12.5t13 29.5q0 15 -10.5 28t-33 28.5t-59.5 35.5q-38 22 -60 42t-31.5 43.5t-9.5 53.5q0 32 18.5 60t49 49t66.5 33t72 12l57 -39q-30 11 -76.5 19t-87.5 8q-42 0 -76 -15.5
t-57.5 -45t-36.5 -72t-13 -96.5v-343h-216v350q0 113 49 197.5t137 131.5t205 47q69 0 134.5 -10t122.5 -34v-153q-47 -3 -76 -13.5t-42 -24.5t-13 -30q0 -17 9.5 -30t28 -25.5t44.5 -25.5q42 -21 73.5 -43t49 -54t17.5 -84q0 -58 -36 -105.5t-96 -75.5t-133 -28z" />
    <glyph glyph-name="uni1EA0" unicode="&#x1ea0;" horiz-adv-x="690" 
d="M-20 0l281 700h170l279 -700h-214l-112 306q-11 31 -19 53t-14 41.5t-12 42t-12 53.5h34q-6 -31 -12 -53.5t-12.5 -42t-15 -41.5t-19.5 -53l-112 -306h-210zM120 104l63 147h325l57 -147h-445zM345 -237q-56 0 -87.5 26t-31.5 74q0 44 32 72t87 28q56 0 87.5 -26
t31.5 -74q0 -44 -32 -72t-87 -28z" />
    <glyph glyph-name="uni1EA1" unicode="&#x1ea1;" horiz-adv-x="679" 
d="M261 -9q-67 0 -119 35.5t-82 98t-30 143.5q0 82 29.5 144.5t82 98t121.5 35.5q36 0 66 -10t53 -28t40 -41.5t29 -50.5l-41 1v118h199v-535h-204v131l45 -4q-10 -29 -27.5 -54t-41.5 -43t-54 -28.5t-66 -10.5zM319 156q29 0 49.5 13t31 38t10.5 61t-10.5 61.5t-31 38.5
t-49.5 13t-49 -13t-30.5 -38.5t-10.5 -61.5t10.5 -61t30.5 -38t49 -13zM340 -237q-56 0 -87.5 26t-31.5 74q0 44 32 72t87 28q56 0 87.5 -26t31.5 -74q0 -44 -32 -72t-87 -28z" />
    <glyph glyph-name="uni1EA2" unicode="&#x1ea2;" horiz-adv-x="690" 
d="M-20 0l281 700h170l279 -700h-214l-112 306q-11 31 -19 53t-14 41.5t-12 42t-12 53.5h34q-6 -31 -12 -53.5t-12.5 -42t-15 -41.5t-19.5 -53l-112 -306h-210zM120 104l63 147h325l57 -147h-445zM318 737q-8 9 -15 20.5t-7 25.5q0 15 7 27t27 26q11 8 20.5 15.5t9.5 19.5
q0 9 -8.5 14t-22.5 5q-23 0 -46.5 -7t-49.5 -17l-29 100q23 12 61.5 23t84.5 11q59 0 97.5 -26t38.5 -75q0 -38 -15.5 -57t-32.5 -32q-15 -10 -27.5 -21t-12.5 -21q0 -3 1 -6.5t2 -7.5z" />
    <glyph glyph-name="uni1EA3" unicode="&#x1ea3;" horiz-adv-x="679" 
d="M261 -9q-67 0 -119 35.5t-82 98t-30 143.5q0 82 29.5 144.5t82 98t121.5 35.5q36 0 66 -10t53 -28t40 -41.5t29 -50.5l-41 1v118h199v-535h-204v131l45 -4q-10 -29 -27.5 -54t-41.5 -43t-54 -28.5t-66 -10.5zM319 156q29 0 49.5 13t31 38t10.5 61t-10.5 61.5t-31 38.5
t-49.5 13t-49 -13t-30.5 -38.5t-10.5 -61.5t10.5 -61t30.5 -38t49 -13zM313 590q-8 9 -15 20.5t-7 25.5q0 15 7 27t27 26q11 8 20.5 15.5t9.5 19.5q0 9 -8.5 14t-22.5 5q-23 0 -46.5 -7t-49.5 -17l-29 100q23 12 61.5 23t84.5 11q59 0 97.5 -26t38.5 -75q0 -38 -15.5 -57
t-32.5 -32q-15 -10 -27.5 -21t-12.5 -21q0 -3 1 -6.5t2 -7.5z" />
    <glyph glyph-name="uni1EA4" unicode="&#x1ea4;" horiz-adv-x="690" 
d="M-20 0l281 700h170l279 -700h-214l-112 306q-11 31 -19 53t-14 41.5t-12 42t-12 53.5h34q-6 -31 -12 -53.5t-12.5 -42t-15 -41.5t-19.5 -53l-112 -306h-210zM120 104l63 147h325l57 -147h-445zM203 747l-54 69l145 104h102l145 -104l-54 -69l-157 65h30zM537 891l-72 51
l104 178l110 -79z" />
    <glyph glyph-name="uni1EA5" unicode="&#x1ea5;" horiz-adv-x="679" 
d="M261 -9q-67 0 -119 35.5t-82 98t-30 143.5q0 82 29.5 144.5t82 98t121.5 35.5q36 0 66 -10t53 -28t40 -41.5t29 -50.5l-41 1v118h199v-535h-204v131l45 -4q-10 -29 -27.5 -54t-41.5 -43t-54 -28.5t-66 -10.5zM319 156q29 0 49.5 13t31 38t10.5 61t-10.5 61.5t-31 38.5
t-49.5 13t-49 -13t-30.5 -38.5t-10.5 -61.5t10.5 -61t30.5 -38t49 -13zM198 597l-54 69l145 104h102l145 -104l-54 -69l-157 65h30zM552 761l-72 51l104 178l110 -79z" />
    <glyph glyph-name="uni1EA6" unicode="&#x1ea6;" horiz-adv-x="690" 
d="M-20 0l281 700h170l279 -700h-214l-112 306q-11 31 -19 53t-14 41.5t-12 42t-12 53.5h34q-6 -31 -12 -53.5t-12.5 -42t-15 -41.5t-19.5 -53l-112 -306h-210zM120 104l63 147h325l57 -147h-445zM203 747l-54 69l145 104h102l145 -104l-54 -69l-157 65h30zM517 891
l-142 150l110 79l104 -178z" />
    <glyph glyph-name="uni1EA7" unicode="&#x1ea7;" horiz-adv-x="679" 
d="M261 -9q-67 0 -119 35.5t-82 98t-30 143.5q0 82 29.5 144.5t82 98t121.5 35.5q36 0 66 -10t53 -28t40 -41.5t29 -50.5l-41 1v118h199v-535h-204v131l45 -4q-10 -29 -27.5 -54t-41.5 -43t-54 -28.5t-66 -10.5zM319 156q29 0 49.5 13t31 38t10.5 61t-10.5 61.5t-31 38.5
t-49.5 13t-49 -13t-30.5 -38.5t-10.5 -61.5t10.5 -61t30.5 -38t49 -13zM198 596l-54 69l145 104h102l145 -104l-54 -69l-157 65h30zM522 760l-142 150l110 79l104 -178z" />
    <glyph glyph-name="uni1EA8" unicode="&#x1ea8;" horiz-adv-x="690" 
d="M-20 0l281 700h170l279 -700h-214l-112 306q-11 31 -19 53t-14 41.5t-12 42t-12 53.5h34q-6 -31 -12 -53.5t-12.5 -42t-15 -41.5t-19.5 -53l-112 -306h-210zM120 104l63 147h325l57 -147h-445zM203 747l-55 69l146 104h102l145 -104l-54 -69l-157 65h30zM509 886
q-10 9 -15.5 20t-5.5 23q1 11 5.5 20t19.5 19q8 6 16.5 13.5t9.5 15.5q0 10 -9.5 15.5t-25.5 5.5q-22 0 -45 -6.5t-47 -14.5l-26 101q21 11 57 20t79 9q62 0 103 -26.5t41 -76.5q0 -36 -17 -53t-38 -29q-14 -7 -25.5 -15.5t-11.5 -19.5q0 -1 -0.5 -2.5t0.5 -3.5z" />
    <glyph glyph-name="uni1EA9" unicode="&#x1ea9;" horiz-adv-x="679" 
d="M261 -9q-67 0 -119 35.5t-82 98t-30 143.5q0 82 29.5 144.5t82 98t121.5 35.5q36 0 66 -10t53 -28t40 -41.5t29 -50.5l-41 1v118h199v-535h-204v131l45 -4q-10 -29 -27.5 -54t-41.5 -43t-54 -28.5t-66 -10.5zM319 156q29 0 49.5 13t31 38t10.5 61t-10.5 61.5t-31 38.5
t-49.5 13t-49 -13t-30.5 -38.5t-10.5 -61.5t10.5 -61t30.5 -38t49 -13zM198 597l-55 69l146 104h102l145 -104l-54 -69l-157 65h30zM504 756q-10 9 -15.5 20t-5.5 23q1 11 5.5 20t19.5 19q8 6 16.5 13.5t9.5 15.5q0 10 -9.5 15.5t-25.5 5.5q-22 0 -45 -6.5t-47 -14.5
l-26 101q21 11 57 20t79 9q62 0 103 -26.5t41 -76.5q0 -36 -17 -53t-38 -29q-14 -7 -25.5 -15.5t-11.5 -19.5q0 -1 -0.5 -2.5t0.5 -3.5z" />
    <glyph glyph-name="uni1EAA" unicode="&#x1eaa;" horiz-adv-x="690" 
d="M-20 0l281 700h170l279 -700h-214l-112 306q-11 31 -19 53t-14 41.5t-12 42t-12 53.5h34q-6 -31 -12 -53.5t-12.5 -42t-15 -41.5t-19.5 -53l-112 -306h-210zM120 104l63 147h325l57 -147h-445zM203 747l-54 69l145 104h102l145 -104l-54 -69l-157 65h30zM430 966
q-21 0 -41 5t-43 14q-19 8 -31.5 12t-22.5 4q-19 0 -27.5 -10t-11.5 -27h-109q0 69 36 109.5t94 40.5q21 0 37 -4.5t42 -15.5q17 -7 30 -10.5t23 -3.5q17 0 23 10.5t9 26.5h109q0 -42 -15.5 -76.5t-41.5 -54.5t-60 -20z" />
    <glyph glyph-name="uni1EAB" unicode="&#x1eab;" horiz-adv-x="679" 
d="M261 -9q-67 0 -119 35.5t-82 98t-30 143.5q0 82 29.5 144.5t82 98t121.5 35.5q36 0 66 -10t53 -28t40 -41.5t29 -50.5l-41 1v118h199v-535h-204v131l45 -4q-10 -29 -27.5 -54t-41.5 -43t-54 -28.5t-66 -10.5zM319 156q29 0 49.5 13t31 38t10.5 61t-10.5 61.5t-31 38.5
t-49.5 13t-49 -13t-30.5 -38.5t-10.5 -61.5t10.5 -61t30.5 -38t49 -13zM198 597l-54 69l145 104h102l145 -104l-54 -69l-157 65h30zM420 840q-15 0 -35.5 3.5t-47.5 14.5q-18 8 -30 11t-19 3q-15 0 -26.5 -8.5t-13.5 -26.5l-105 14q0 57 32 96t87 39q15 0 35 -3t42 -13
q17 -7 29 -11t25 -4q14 0 25 9.5t12 25.5l105 -15q0 -34 -14.5 -65t-40.5 -50.5t-60 -19.5z" />
    <glyph glyph-name="uni1EAC" unicode="&#x1eac;" horiz-adv-x="690" 
d="M-20 0l281 700h170l279 -700h-214l-112 306q-11 31 -19 53t-14 41.5t-12 42t-12 53.5h34q-6 -31 -12 -53.5t-12.5 -42t-15 -41.5t-19.5 -53l-112 -306h-210zM120 104l63 147h325l57 -147h-445zM345 -237q-56 0 -87.5 26t-31.5 74q0 44 32 72t87 28q56 0 87.5 -26
t31.5 -74q0 -44 -32 -72t-87 -28zM207 753l-58 73l145 111h102l145 -111l-58 -73l-153 76h30z" />
    <glyph glyph-name="uni1EAD" unicode="&#x1ead;" horiz-adv-x="679" 
d="M261 -9q-67 0 -119 35.5t-82 98t-30 143.5q0 82 29.5 144.5t82 98t121.5 35.5q36 0 66 -10t53 -28t40 -41.5t29 -50.5l-41 1v118h199v-535h-204v131l45 -4q-10 -29 -27.5 -54t-41.5 -43t-54 -28.5t-66 -10.5zM319 156q29 0 49.5 13t31 38t10.5 61t-10.5 61.5t-31 38.5
t-49.5 13t-49 -13t-30.5 -38.5t-10.5 -61.5t10.5 -61t30.5 -38t49 -13zM340 -237q-56 0 -87.5 26t-31.5 74q0 44 32 72t87 28q56 0 87.5 -26t31.5 -74q0 -44 -32 -72t-87 -28zM195 596l-72 62l166 142h102l166 -142l-72 -62l-160 96h30z" />
    <glyph glyph-name="uni1EAE" unicode="&#x1eae;" horiz-adv-x="690" 
d="M-20 0l281 700h170l279 -700h-214l-112 306q-11 31 -19 53t-14 41.5t-12 42t-12 53.5h34q-6 -31 -12 -53.5t-12.5 -42t-15 -41.5t-19.5 -53l-112 -306h-210zM120 104l63 147h325l57 -147h-445zM345 740q-73 0 -125 39.5t-67 109.5l117 12q11 -31 32.5 -40.5t42.5 -9.5
t42.5 9.5t32.5 40.5l117 -12q-15 -70 -67 -109.5t-125 -39.5zM356 891l-72 51l104 178l110 -79z" />
    <glyph glyph-name="uni1EAF" unicode="&#x1eaf;" horiz-adv-x="679" 
d="M261 -9q-67 0 -119 35.5t-82 98t-30 143.5q0 82 29.5 144.5t82 98t121.5 35.5q36 0 66 -10t53 -28t40 -41.5t29 -50.5l-41 1v118h199v-535h-204v131l45 -4q-10 -29 -27.5 -54t-41.5 -43t-54 -28.5t-66 -10.5zM319 156q29 0 49.5 13t31 38t10.5 61t-10.5 61.5t-31 38.5
t-49.5 13t-49 -13t-30.5 -38.5t-10.5 -61.5t10.5 -61t30.5 -38t49 -13zM340 597q-73 0 -125 39.5t-67 109.5l117 12q11 -31 32.5 -40.5t42.5 -9.5t42.5 9.5t32.5 40.5l117 -12q-15 -70 -67 -109.5t-125 -39.5zM351 781l-72 51l104 178l110 -79z" />
    <glyph glyph-name="uni1EB0" unicode="&#x1eb0;" horiz-adv-x="690" 
d="M-20 0l281 700h170l279 -700h-214l-112 306q-11 31 -19 53t-14 41.5t-12 42t-12 53.5h34q-6 -31 -12 -53.5t-12.5 -42t-15 -41.5t-19.5 -53l-112 -306h-210zM120 104l63 147h325l57 -147h-445zM345 740q-73 0 -125 39t-67 110l117 12q11 -31 32.5 -40.5t42.5 -9.5
t42.5 9.5t32.5 40.5l117 -12q-15 -70 -67 -109.5t-125 -39.5zM342 891l-142 150l110 79l104 -178z" />
    <glyph glyph-name="uni1EB1" unicode="&#x1eb1;" horiz-adv-x="679" 
d="M261 -9q-67 0 -119 35.5t-82 98t-30 143.5q0 82 29.5 144.5t82 98t121.5 35.5q36 0 66 -10t53 -28t40 -41.5t29 -50.5l-41 1v118h199v-535h-204v131l45 -4q-10 -29 -27.5 -54t-41.5 -43t-54 -28.5t-66 -10.5zM319 156q29 0 49.5 13t31 38t10.5 61t-10.5 61.5t-31 38.5
t-49.5 13t-49 -13t-30.5 -38.5t-10.5 -61.5t10.5 -61t30.5 -38t49 -13zM340 597q-73 0 -125 39t-67 110l117 12q11 -31 32.5 -40.5t42.5 -9.5t42.5 9.5t32.5 40.5l117 -12q-14 -70 -66 -109.5t-126 -39.5zM337 781l-142 150l110 79l104 -178z" />
    <glyph glyph-name="uni1EB2" unicode="&#x1eb2;" horiz-adv-x="690" 
d="M-20 0l281 700h170l279 -700h-214l-112 306q-11 31 -19 53t-14 41.5t-12 42t-12 53.5h34q-6 -31 -12 -53.5t-12.5 -42t-15 -41.5t-19.5 -53l-112 -306h-210zM120 104l63 147h325l57 -147h-445zM345 740q-73 0 -125 39.5t-67 109.5l117 12q9 -31 31.5 -40.5t43.5 -9.5
t43.5 9.5t31.5 40.5l117 -12q-15 -70 -67 -109.5t-125 -39.5zM316 886q-10 9 -15.5 20t-5.5 23q1 11 5.5 20.5t17.5 18.5q8 6 16.5 13.5t9.5 15.5q0 10 -9.5 15.5t-26.5 5.5q-22 0 -44.5 -6t-46.5 -15l-26 101q21 11 57 20t79 9q62 0 103 -26.5t41 -76.5q0 -36 -17 -53
t-38 -29q-14 -7 -25.5 -15.5t-11.5 -19.5q0 -1 -0.5 -2.5t0.5 -3.5z" />
    <glyph glyph-name="uni1EB3" unicode="&#x1eb3;" horiz-adv-x="679" 
d="M261 -9q-67 0 -119 35.5t-82 98t-30 143.5q0 82 29.5 144.5t82 98t121.5 35.5q36 0 66 -10t53 -28t40 -41.5t29 -50.5l-41 1v118h199v-535h-204v131l45 -4q-10 -29 -27.5 -54t-41.5 -43t-54 -28.5t-66 -10.5zM319 156q29 0 49.5 13t31 38t10.5 61t-10.5 61.5t-31 38.5
t-49.5 13t-49 -13t-30.5 -38.5t-10.5 -61.5t10.5 -61t30.5 -38t49 -13zM340 597q-73 0 -125 39t-67 110l117 12q11 -31 32.5 -40.5t42.5 -9.5t42.5 9.5t32.5 40.5l117 -12q-14 -70 -66 -109.5t-126 -39.5zM312 776q-10 9 -15.5 20t-5.5 23q1 11 5.5 20t19.5 19
q8 6 16.5 13.5t9.5 15.5q0 10 -9.5 15.5t-25.5 5.5q-22 0 -45 -6.5t-47 -14.5l-26 101q21 11 57 20t79 9q62 0 103 -26.5t41 -76.5q0 -36 -17 -53t-38 -29q-14 -7 -25.5 -15.5t-11.5 -19.5q0 -1 -0.5 -2.5t0.5 -3.5z" />
    <glyph glyph-name="uni1EB4" unicode="&#x1eb4;" horiz-adv-x="690" 
d="M-20 0l281 700h170l279 -700h-214l-112 306q-11 31 -19 53t-14 41.5t-12 42t-12 53.5h34q-6 -31 -12 -53.5t-12.5 -42t-15 -41.5t-19.5 -53l-112 -306h-210zM120 104l63 147h325l57 -147h-445zM345 740q-73 0 -125 39.5t-67 109.5l117 12q11 -31 32.5 -40.5t42.5 -9.5
t42.5 9.5t32.5 40.5l117 -12q-15 -70 -67 -109.5t-125 -39.5zM425 963q-17 0 -35 5t-44 17q-19 9 -31.5 13.5t-22.5 4.5q-19 0 -27.5 -10.5t-11.5 -28.5h-109q0 71 36 112t94 41q21 0 39.5 -6t42.5 -17q17 -8 28.5 -12.5t21.5 -4.5q17 0 23 11t9 29h109q0 -43 -15.5 -78
t-43 -55.5t-63.5 -20.5z" />
    <glyph glyph-name="uni1EB5" unicode="&#x1eb5;" horiz-adv-x="679" 
d="M261 -9q-67 0 -119 35.5t-82 98t-30 143.5q0 82 29.5 144.5t82 98t121.5 35.5q36 0 66 -10t53 -28t40 -41.5t29 -50.5l-41 1v118h199v-535h-204v131l45 -4q-10 -29 -27.5 -54t-41.5 -43t-54 -28.5t-66 -10.5zM319 156q29 0 49.5 13t31 38t10.5 61t-10.5 61.5t-31 38.5
t-49.5 13t-49 -13t-30.5 -38.5t-10.5 -61.5t10.5 -61t30.5 -38t49 -13zM340 597q-73 0 -125 39t-67 110l117 12q11 -31 32.5 -40.5t42.5 -9.5t42.5 9.5t32.5 40.5l117 -12q-14 -70 -66 -109.5t-126 -39.5zM420 840q-15 0 -35.5 3.5t-47.5 14.5q-18 8 -30 11t-19 3
q-15 0 -26.5 -8.5t-13.5 -26.5l-105 14q0 57 32 96t87 39q15 0 35 -3t42 -13q17 -7 29 -11t25 -4q14 0 25 9.5t12 25.5l105 -15q0 -34 -14.5 -65t-40.5 -50.5t-60 -19.5z" />
    <glyph glyph-name="uni1EB6" unicode="&#x1eb6;" horiz-adv-x="690" 
d="M-20 0l281 700h170l279 -700h-214l-112 306q-11 31 -19 53t-14 41.5t-12 42t-12 53.5h34q-6 -31 -12 -53.5t-12.5 -42t-15 -41.5t-19.5 -53l-112 -306h-210zM120 104l63 147h325l57 -147h-445zM345 -237q-56 0 -87.5 26t-31.5 74q0 44 32 72t87 28q56 0 87.5 -26
t31.5 -74q0 -44 -32 -72t-87 -28zM345 762q-48 0 -88 19.5t-67 56.5t-37 88l124 12q9 -26 28 -40.5t40 -14.5t40 14.5t28 40.5l124 -12q-10 -51 -37 -88t-66.5 -56.5t-88.5 -19.5z" />
    <glyph glyph-name="uni1EB7" unicode="&#x1eb7;" horiz-adv-x="679" 
d="M261 -9q-67 0 -119 35.5t-82 98t-30 143.5q0 82 29.5 144.5t82 98t121.5 35.5q36 0 66 -10t53 -28t40 -41.5t29 -50.5l-41 1v118h199v-535h-204v131l45 -4q-10 -29 -27.5 -54t-41.5 -43t-54 -28.5t-66 -10.5zM319 156q29 0 49.5 13t31 38t10.5 61t-10.5 61.5t-31 38.5
t-49.5 13t-49 -13t-30.5 -38.5t-10.5 -61.5t10.5 -61t30.5 -38t49 -13zM340 -237q-56 0 -87.5 26t-31.5 74q0 44 32 72t87 28q56 0 87.5 -26t31.5 -74q0 -44 -32 -72t-87 -28zM340 610q-73 0 -125 43.5t-67 120.5l124 12q9 -26 28 -40.5t40 -14.5t40 14.5t28 40.5l124 -12
q-15 -77 -67 -120.5t-125 -43.5z" />
    <glyph glyph-name="uni1EB8" unicode="&#x1eb8;" horiz-adv-x="668" 
d="M80 0v700h523v-175h-316v-350h334v-175h-541zM183 272v164h383v-164h-383zM334 -237q-56 0 -87.5 26t-31.5 74q0 44 32 72t87 28q56 0 87.5 -26t31.5 -74q0 -44 -32 -72t-87 -28z" />
    <glyph glyph-name="uni1EB9" unicode="&#x1eb9;" horiz-adv-x="586" 
d="M329 -10q-93 0 -160 36t-103 98.5t-36 143.5q0 60 20 111t56.5 88.5t86 58t108.5 20.5t107.5 -20.5t83.5 -58t53.5 -88.5t16.5 -111l-1 -42h-419l-23 95h281l-19 -20v18q0 19 -9.5 33.5t-26.5 22.5t-40 8q-29 0 -49 -12t-30.5 -34t-10.5 -53q0 -36 15.5 -63t46 -42
t75.5 -15q30 0 51.5 7.5t45.5 24.5l93 -131q-37 -29 -72.5 -45t-70 -23t-70.5 -7zM329 -237q-56 0 -87.5 26t-31.5 74q0 44 32 72t87 28q56 0 87.5 -26t31.5 -74q0 -44 -32 -72t-87 -28z" />
    <glyph glyph-name="uni1EBA" unicode="&#x1eba;" horiz-adv-x="668" 
d="M80 0v700h523v-175h-316v-350h334v-175h-541zM183 272v164h383v-164h-383zM327 737q-8 9 -15 20.5t-7 25.5q0 15 7 27t27 26q11 8 20.5 15.5t9.5 19.5q0 9 -8.5 14t-22.5 5q-23 0 -46.5 -7t-49.5 -17l-29 100q23 12 61.5 23t84.5 11q59 0 97.5 -26t38.5 -75
q0 -38 -15.5 -57t-32.5 -32q-15 -10 -27.5 -21t-12.5 -21q0 -3 1 -6.5t2 -7.5z" />
    <glyph glyph-name="uni1EBB" unicode="&#x1ebb;" horiz-adv-x="586" 
d="M329 -10q-93 0 -160 36t-103 98.5t-36 143.5q0 60 20 111t56.5 88.5t86 58t108.5 20.5t107.5 -20.5t83.5 -58t53.5 -88.5t16.5 -111l-1 -42h-419l-23 95h281l-19 -20v18q0 19 -9.5 33.5t-26.5 22.5t-40 8q-29 0 -49 -12t-30.5 -34t-10.5 -53q0 -36 15.5 -63t46 -42
t75.5 -15q30 0 51.5 7.5t45.5 24.5l93 -131q-37 -29 -72.5 -45t-70 -23t-70.5 -7zM274 590q-8 9 -15 20.5t-7 25.5q0 15 7 27t27 26q11 8 20.5 15.5t9.5 19.5q0 9 -8.5 14t-22.5 5q-23 0 -46.5 -7t-49.5 -17l-29 100q23 12 61.5 23t84.5 11q59 0 97.5 -26t38.5 -75
q0 -38 -15.5 -57t-32.5 -32q-15 -10 -27.5 -21t-12.5 -21q0 -3 1 -6.5t2 -7.5z" />
    <glyph glyph-name="uni1EBC" unicode="&#x1ebc;" horiz-adv-x="668" 
d="M80 0v700h523v-175h-316v-350h334v-175h-541zM183 272v164h383v-164h-383zM433 768q-17 0 -35 5t-44 17q-19 9 -31.5 13.5t-22.5 4.5q-15 0 -23 -10.5t-8 -28.5h-117q0 75 37 119t101 44q15 0 31 -3.5t48 -19.5q18 -9 27 -13t18 -4q13 0 19.5 11t5.5 29h116
q0 -46 -15.5 -83.5t-43 -59t-63.5 -21.5z" />
    <glyph glyph-name="uni1EBD" unicode="&#x1ebd;" horiz-adv-x="586" 
d="M329 -10q-93 0 -160 36t-103 98.5t-36 143.5q0 60 20 111t56.5 88.5t86 58t108.5 20.5t107.5 -20.5t83.5 -58t53.5 -88.5t16.5 -111l-1 -42h-419l-23 95h281l-19 -20v18q0 19 -9.5 33.5t-26.5 22.5t-40 8q-29 0 -49 -12t-30.5 -34t-10.5 -53q0 -36 15.5 -63t46 -42
t75.5 -15q30 0 51.5 7.5t45.5 24.5l93 -131q-37 -29 -72.5 -45t-70 -23t-70.5 -7zM382 613q-15 0 -35.5 4.5t-49.5 23.5q-17 12 -28.5 16.5t-18.5 4.5q-15 0 -26.5 -9.5t-13.5 -30.5l-105 14q0 62 32 104.5t87 42.5q15 0 34.5 -4t47.5 -22q9 -6 22.5 -14t26.5 -8q14 0 25 10
t12 30l105 -15q0 -38 -14.5 -72t-40.5 -54.5t-60 -20.5z" />
    <glyph glyph-name="uni1EBE" unicode="&#x1ebe;" horiz-adv-x="668" 
d="M80 0v700h523v-175h-316v-350h334v-175h-541zM183 272v164h383v-164h-383zM212 747l-54 69l145 104h102l145 -104l-54 -69l-157 65h30zM546 891l-72 51l104 178l110 -79z" />
    <glyph glyph-name="uni1EBF" unicode="&#x1ebf;" horiz-adv-x="586" 
d="M329 -10q-93 0 -160 36t-103 98.5t-36 143.5q0 60 20 111t56.5 88.5t86 58t108.5 20.5t107.5 -20.5t83.5 -58t53.5 -88.5t16.5 -111l-1 -42h-419l-23 95h281l-19 -20v18q0 19 -9.5 33.5t-26.5 22.5t-40 8q-29 0 -49 -12t-30.5 -34t-10.5 -53q0 -36 15.5 -63t46 -42
t75.5 -15q30 0 51.5 7.5t45.5 24.5l93 -131q-37 -29 -72.5 -45t-70 -23t-70.5 -7zM159 597l-54 69l145 104h102l145 -104l-54 -69l-157 65h30zM513 761l-72 51l104 178l110 -79z" />
    <glyph glyph-name="uni1EC0" unicode="&#x1ec0;" horiz-adv-x="668" 
d="M80 0v700h523v-175h-316v-350h334v-175h-541zM183 272v164h383v-164h-383zM212 747l-54 69l145 104h102l145 -104l-54 -69l-157 65h30zM526 891l-142 150l110 79l104 -178z" />
    <glyph glyph-name="uni1EC1" unicode="&#x1ec1;" horiz-adv-x="586" 
d="M329 -10q-93 0 -160 36t-103 98.5t-36 143.5q0 60 20 111t56.5 88.5t86 58t108.5 20.5t107.5 -20.5t83.5 -58t53.5 -88.5t16.5 -111l-1 -42h-419l-23 95h281l-19 -20v18q0 19 -9.5 33.5t-26.5 22.5t-40 8q-29 0 -49 -12t-30.5 -34t-10.5 -53q0 -36 15.5 -63t46 -42
t75.5 -15q30 0 51.5 7.5t45.5 24.5l93 -131q-37 -29 -72.5 -45t-70 -23t-70.5 -7zM159 596l-54 69l145 104h102l145 -104l-54 -69l-157 65h30zM483 760l-142 150l110 79l104 -178z" />
    <glyph glyph-name="uni1EC2" unicode="&#x1ec2;" horiz-adv-x="668" 
d="M80 0v700h523v-175h-316v-350h334v-175h-541zM183 272v164h383v-164h-383zM212 747l-55 69l146 104h102l145 -104l-54 -69l-157 65h30zM518 886q-10 9 -15.5 20t-5.5 23q1 11 5.5 20t19.5 19q8 6 16.5 13.5t9.5 15.5q0 10 -9.5 15.5t-25.5 5.5q-22 0 -45 -6.5t-47 -14.5
l-26 101q21 11 57 20t79 9q62 0 103 -26.5t41 -76.5q0 -36 -17 -53t-38 -29q-14 -7 -25.5 -15.5t-11.5 -19.5q0 -1 -0.5 -2.5t0.5 -3.5z" />
    <glyph glyph-name="uni1EC3" unicode="&#x1ec3;" horiz-adv-x="586" 
d="M329 -10q-93 0 -160 36t-103 98.5t-36 143.5q0 60 20 111t56.5 88.5t86 58t108.5 20.5t107.5 -20.5t83.5 -58t53.5 -88.5t16.5 -111l-1 -42h-419l-23 95h281l-19 -20v18q0 19 -9.5 33.5t-26.5 22.5t-40 8q-29 0 -49 -12t-30.5 -34t-10.5 -53q0 -36 15.5 -63t46 -42
t75.5 -15q30 0 51.5 7.5t45.5 24.5l93 -131q-37 -29 -72.5 -45t-70 -23t-70.5 -7zM159 597l-55 69l146 104h102l145 -104l-54 -69l-157 65h30zM465 756q-10 9 -15.5 20t-5.5 23q1 11 5.5 20t19.5 19q8 6 16.5 13.5t9.5 15.5q0 10 -9.5 15.5t-25.5 5.5q-22 0 -45 -6.5
t-47 -14.5l-26 101q21 11 57 20t79 9q62 0 103 -26.5t41 -76.5q0 -36 -17 -53t-38 -29q-14 -7 -25.5 -15.5t-11.5 -19.5q0 -1 -0.5 -2.5t0.5 -3.5z" />
    </font>
</defs>
</svg>
