<?xml version="1.0" standalone="no"?>
<!DOCTYPE svg PUBLIC "-//W3C//DTD SVG 1.1//EN" "http://www.w3.org/Graphics/SVG/1.1/DTD/svg11.dtd" >
<svg xmlns="http://www.w3.org/2000/svg" xmlns:xlink="http://www.w3.org/1999/xlink" version="1.1">
<metadata>
Created by FontForge 20170731 at Fri Jul 30 19:17:25 2021
 By Aleksey,,,
Copyright 2019 The Lexend Project Authors (https://github.com/googlefonts/lexend)
</metadata>
<defs>
<font id="LexendDeca-Bold" horiz-adv-x="0" >
  <font-face 
    font-family="Lexend Deca"
    font-weight="700"
    font-stretch="normal"
    units-per-em="1000"
    panose-1="0 0 0 0 0 0 0 0 0 0"
    ascent="800"
    descent="-200"
    x-height="531"
    cap-height="700"
    bbox="-215 -294 1405 1149"
    underline-thickness="50"
    underline-position="-175"
    unicode-range="U+000D-FB02"
  />
<missing-glyph horiz-adv-x="584" 
d="M75 0q-35 0 -35 35v630q0 35 35 35h434q35 0 35 -35v-630q0 -35 -35 -35h-434zM75 30h413q3 0 4 2t-1 4l-415 599q-2 3 -4 2.5t-2 -4.5v-598q0 -5 5 -5zM508 65q2 -3 4 -2.5t2 4.5v598q0 5 -5 5h-414q-3 0 -4 -2t1 -4z" />
    <glyph glyph-name="fi" unicode="fi" horiz-adv-x="712" 
d="M104 0v557q0 52 22.5 94t63 66.5t94.5 24.5q38 0 70 -11t57 -31l-46 -117q-13 7 -25 11t-22 4q-18 0 -30 -6t-17.5 -18.5t-5.5 -30.5v-543h-80h-47.5h-33.5zM27 384v132h347v-132h-347zM473 0v531h160v-531h-160zM553 636q-45 0 -70.5 21.5t-25.5 61.5q0 36 26 59t70 23
q45 0 70 -21.5t25 -60.5q0 -37 -25.5 -60t-69.5 -23z" />
    <glyph glyph-name="fl" unicode="fl" horiz-adv-x="697" 
d="M104 0v557q0 52 22.5 94t63 66.5t94.5 24.5q38 0 70 -11t57 -31l-46 -117q-13 7 -25 11t-22 4q-18 0 -30 -6t-17.5 -18.5t-5.5 -30.5v-543h-80h-47.5h-33.5zM27 384v132h347v-132h-347zM465 0v740h160v-740h-160z" />
    <glyph glyph-name="f_f" unicode="ff" horiz-adv-x="786" 
d="M104 0v557q0 52 22.5 94t63 66.5t94.5 24.5q38 0 70 -11t57 -31l-46 -117q-13 7 -25 11t-22 4q-18 0 -30 -6t-17.5 -18.5t-5.5 -30.5v-543h-80h-47.5h-33.5zM27 384v132h347v-132h-347zM497 0v557q0 52 22.5 94t63 66.5t94.5 24.5q38 0 70 -11t57 -31l-46 -117
q-13 7 -25 11t-22 4q-18 0 -30 -6t-17.5 -18.5t-5.5 -30.5v-543h-80h-47.5h-33.5zM420 384v132h347v-132h-347z" />
    <glyph glyph-name="f_f_i" unicode="ffi" horiz-adv-x="1105" 
d="M104 0v557q0 52 22.5 94t63 66.5t94.5 24.5q38 0 70 -11t57 -31l-46 -117q-13 7 -25 11t-22 4q-18 0 -30 -6t-17.5 -18.5t-5.5 -30.5v-543h-80h-47.5h-33.5zM27 384v132h347v-132h-347zM497 0v557q0 52 22.5 94t63 66.5t94.5 24.5q38 0 70 -11t57 -31l-46 -117
q-13 7 -25 11t-22 4q-18 0 -30 -6t-17.5 -18.5t-5.5 -30.5v-543h-80h-47.5h-33.5zM420 384v132h347v-132h-347zM866 0v531h160v-531h-160zM946 636q-45 0 -70.5 21.5t-25.5 61.5q0 36 26 59t70 23q45 0 70 -21.5t25 -60.5q0 -37 -25.5 -60t-69.5 -23z" />
    <glyph glyph-name="f_f_l" unicode="ffl" horiz-adv-x="1090" 
d="M104 0v557q0 52 22.5 94t63 66.5t94.5 24.5q38 0 70 -11t57 -31l-46 -117q-13 7 -25 11t-22 4q-18 0 -30 -6t-17.5 -18.5t-5.5 -30.5v-543h-80h-47.5h-33.5zM27 384v132h347v-132h-347zM497 0v557q0 52 22.5 94t63 66.5t94.5 24.5q38 0 70 -11t57 -31l-46 -117
q-13 7 -25 11t-22 4q-18 0 -30 -6t-17.5 -18.5t-5.5 -30.5v-543h-80h-47.5h-33.5zM420 384v132h347v-132h-347zM858 0v740h160v-740h-160z" />
    <glyph glyph-name=".notdef" horiz-adv-x="584" 
d="M75 0q-35 0 -35 35v630q0 35 35 35h434q35 0 35 -35v-630q0 -35 -35 -35h-434zM75 30h413q3 0 4 2t-1 4l-415 599q-2 3 -4 2.5t-2 -4.5v-598q0 -5 5 -5zM508 65q2 -3 4 -2.5t2 4.5v598q0 5 -5 5h-414q-3 0 -4 -2t1 -4z" />
    <glyph glyph-name=".null" 
 />
    <glyph glyph-name="nonmarkingreturn" horiz-adv-x="333" 
 />
    <glyph glyph-name="CR" unicode="&#xd;" horiz-adv-x="277" 
 />
    <glyph glyph-name="space" unicode=" " horiz-adv-x="320" 
 />
    <glyph glyph-name="exclam" unicode="!" horiz-adv-x="309" 
d="M104 255q-8 61 -16 126t-13 129t-5 123v78h169v-78q0 -60 -5 -125t-13 -129.5t-17 -123.5h-100zM154 -11q-41 0 -64 23t-23 66q0 40 24 65t63 25q41 0 63.5 -23.5t22.5 -66.5q0 -39 -24 -64t-62 -25z" />
    <glyph glyph-name="quotedbl" unicode="&#x22;" horiz-adv-x="477" 
d="M271 436l20 264h163l-83 -264h-100zM44 436l21 264h164l-84 -264h-101z" />
    <glyph glyph-name="numbersign" unicode="#" horiz-adv-x="734" 
d="M368 0l120 700h141l-120 -700h-141zM48 150v129h602v-129h-602zM106 0l120 700h141l-120 -700h-141zM86 430v129h601v-129h-601z" />
    <glyph glyph-name="dollar" unicode="$" horiz-adv-x="634" 
d="M320 -10q-98 0 -169.5 30.5t-122.5 88.5l80 130q56 -58 109 -82t111 -24q27 0 49 7t34 20.5t12 33.5q0 15 -7.5 27t-20.5 21t-31 16.5t-38 13t-41 9.5q-78 17 -128.5 46t-75.5 72.5t-25 102.5q0 47 21.5 86.5t58 68t84.5 44t100 15.5q85 0 152 -26t120 -81l-72 -118
q-40 41 -90 61t-105 20q-30 0 -51.5 -7.5t-33.5 -21t-12 -32.5q0 -17 10 -29t27 -21.5t39 -16t46 -10.5q55 -11 99.5 -29t77 -44t50 -61.5t17.5 -82.5q0 -73 -35.5 -123.5t-97 -77t-141.5 -26.5zM260 -91l11 465l81 -33l11 -432h-103zM377 340l-81 33l-11 415h103z" />
    <glyph glyph-name="percent" unicode="%" horiz-adv-x="968" 
d="M171 0l463 700h149l-468 -700h-144zM216 329q-51 0 -91 25.5t-62.5 69.5t-22.5 100q0 57 22.5 101.5t62.5 69.5t91 25q52 0 91.5 -25t61.5 -69.5t22 -101.5q0 -56 -23 -100t-62.5 -69.5t-89.5 -25.5zM216 432q17 0 28.5 11t17.5 32t6 49t-6 49t-17.5 32.5t-28.5 11.5
q-16 0 -28 -11.5t-18.5 -32.5t-6.5 -49t6 -49t18.5 -32t28.5 -11zM749 -10q-51 0 -91 26t-62.5 69.5t-22.5 99.5q0 57 22 101.5t62 69.5t92 25t91.5 -25t61.5 -69.5t22 -101.5q0 -55 -23 -99t-62.5 -70t-89.5 -26zM749 93q17 0 28.5 11.5t17.5 32t6 48.5t-6 49t-17.5 32.5
t-28.5 11.5t-29 -11t-18.5 -32.5t-6.5 -49.5t6.5 -48.5t18.5 -32t29 -11.5z" />
    <glyph glyph-name="ampersand" unicode="&#x26;" horiz-adv-x="776" 
d="M580 0l-70 72l-60 56l-147 156q-39 42 -66 76.5t-42.5 64t-22.5 55.5t-7 48q0 54 28.5 96.5t79 67t116.5 24.5q51 0 95 -16.5t76 -46.5t45 -70l-126 -75q-17 41 -37 56t-47 15q-22 0 -37 -7t-23 -20.5t-8 -33.5q0 -19 15.5 -46.5t39.5 -57t49 -56t45 -45.5l74 -81l69 -63
l159 -169h-198zM327 -10q-79 0 -141.5 30t-99 82t-36.5 116q0 73 42.5 131.5t125.5 88.5l100 -97q-56 -12 -84 -40t-28 -71q0 -34 16 -59t47 -38.5t74 -13.5q40 0 74.5 16.5t62 46.5t44.5 71.5t23 92.5h149q-9 -64 -31 -118.5t-55.5 -98.5t-77 -75t-95 -47.5t-110.5 -16.5z
" />
    <glyph glyph-name="quotesingle" unicode="'" horiz-adv-x="252" 
d="M44 436l21 264h164l-84 -264h-101z" />
    <glyph glyph-name="parenleft" unicode="(" horiz-adv-x="390" 
d="M290 -186q-122 76 -186 190t-64 254q0 139 64.5 253.5t186.5 190.5l90 -85q-92 -64 -137.5 -158t-45.5 -201t45.5 -201t137.5 -158z" />
    <glyph glyph-name="parenright" unicode=")" horiz-adv-x="390" 
d="M99 -186l-90 85q92 64 137 158t45 201t-45 201t-137 158l91 85q122 -76 186 -190t64 -254q0 -139 -64.5 -253.5t-186.5 -190.5z" />
    <glyph glyph-name="asterisk" unicode="*" horiz-adv-x="440" 
d="M166 353l14 136l17 -3l-125 -85l-54 92l135 54l-1 -9l-135 61l54 93l129 -95l-20 -1l-16 140h115l-15 -145l-16 7l121 93l54 -93l-138 -61v10l136 -54l-53 -91l-119 88l16 -1l16 -136h-115z" />
    <glyph glyph-name="plus" unicode="+" horiz-adv-x="597" 
d="M48 218v131h501v-131h-501zM227 39v489h142v-489h-142z" />
    <glyph glyph-name="comma" unicode="," horiz-adv-x="287" 
d="M85 -200l-46 57q40 18 64 45.5t24 47.5q0 9 -4.5 19.5t-22.5 23.5q-23 17 -31 33.5t-8 36.5q0 31 22.5 49t58.5 18q29 0 52.5 -16t37 -44t13.5 -65q0 -34 -12 -65.5t-33.5 -59t-51 -48.5t-63.5 -32z" />
    <glyph glyph-name="hyphen" unicode="-" horiz-adv-x="448" 
d="M51 214v147h346v-147h-346z" />
    <glyph glyph-name="period" unicode="." horiz-adv-x="257" 
d="M128 -11q-41 0 -63.5 23t-22.5 66q0 40 24 65t62 25q41 0 64 -23.5t23 -66.5q0 -39 -24 -64t-63 -25z" />
    <glyph glyph-name="slash" unicode="/" horiz-adv-x="595" 
d="M8 -142l416 842h159l-414 -842h-161z" />
    <glyph glyph-name="zero" unicode="0" horiz-adv-x="675" 
d="M337 -10q-94 0 -160.5 43t-101.5 123.5t-35 193.5t35 193.5t101.5 123.5t160.5 43t161 -43t102 -123.5t35 -193.5t-35 -193.5t-102 -123.5t-161 -43zM337 134q65 0 100.5 56t35.5 160q0 107 -35.5 164.5t-100.5 57.5t-100.5 -57.5t-35.5 -164.5q0 -104 35.5 -160
t100.5 -56z" />
    <glyph glyph-name="one" unicode="1" horiz-adv-x="561" 
d="M211 49v568l37 -85l-150 -71l-29 152l199 97h110v-661h-167zM83 0v150h426v-150h-426z" />
    <glyph glyph-name="two" unicode="2" horiz-adv-x="548" 
d="M59 0l-33 82l204 223q17 19 37 43t39 49.5t30.5 49.5t11.5 44t-9 35t-26 23.5t-43 8.5q-23 0 -44 -11.5t-39.5 -35.5t-34.5 -59l-126 68q21 58 59.5 102.5t90.5 69t111 24.5q62 -1 112 -26.5t79.5 -71t29.5 -106.5q0 -21 -5 -44t-15 -47.5t-26.5 -52t-39.5 -57.5t-54 -64
l-159 -173l-20 76h350v-150h-480z" />
    <glyph glyph-name="three" unicode="3" horiz-adv-x="591" 
d="M287 -10q-85 0 -148.5 35.5t-115.5 122.5l122 79q22 -35 45.5 -56t49 -30.5t53.5 -9.5t51.5 12.5t38 35.5t14.5 52q0 31 -12.5 52.5t-36 32.5t-56.5 11q-15 0 -32 -3.5t-36 -9.5t-39 -16l-37 99l170 185l46 -25l-292 6v143h430l31 -62l-231 -248l-40 47q8 4 26.5 7.5
t35.5 3.5q47 0 88 -17t73 -47t50 -70.5t18 -86.5q0 -70 -35.5 -124.5t-96 -86.5t-134.5 -32z" />
    <glyph glyph-name="four" unicode="4" horiz-adv-x="662" 
d="M349 0v566l91 -2l-253 -310l-24 30h464v-140h-540l-68 131l357 431h137v-706h-164z" />
    <glyph glyph-name="five" unicode="5" horiz-adv-x="596" 
d="M282 -7q-79 0 -143.5 32t-106.5 92l91 100q41 -45 76 -61.5t78 -16.5q32 0 57 13t39.5 36.5t14.5 52.5q0 30 -14.5 53.5t-39 37.5t-56.5 14q-23 0 -43 -4t-42.5 -13.5t-53.5 -27.5l-72 96l43 309h402v-143h-321l44 56l-33 -222l-60 20q19 17 46.5 30t59.5 21.5t64 8.5
q66 0 118.5 -30.5t83.5 -84.5t31 -124q0 -69 -35 -124.5t-94 -88t-134 -32.5z" />
    <glyph glyph-name="six" unicode="6" horiz-adv-x="579" 
d="M294 0q-54 0 -101.5 19.5t-82.5 54t-55.5 80.5t-20.5 99q0 37 8 71.5t22.5 70t35 73t45.5 79.5l98 164h157l4 -10l-136 -214q-26 -42 -45 -78.5t-34 -72.5t-30 -76l-32 69q10 35 32 64.5t51.5 51t61.5 33t63 11.5q59 0 108.5 -31.5t79.5 -83.5t30 -114q0 -74 -33.5 -133
t-92 -93t-133.5 -34zM296 140q32 0 56.5 14t38.5 39.5t14 58.5q0 28 -14.5 52.5t-39 40t-54.5 15.5q-32 0 -57.5 -14.5t-39.5 -39t-14 -54.5q0 -32 14 -57.5t39 -40t57 -14.5z" />
    <glyph glyph-name="seven" unicode="7" horiz-adv-x="553" 
d="M84 0l280 638l48 -80h-366v148h456l16 -81l-264 -625h-170z" />
    <glyph glyph-name="eight" unicode="8" horiz-adv-x="599" 
d="M299 -3q-72 0 -130.5 27.5t-93.5 74.5t-35 106q0 39 10 70.5t30.5 56t50 42t67.5 28.5l-12 -40q-28 11 -51 27t-39 36.5t-24.5 44.5t-8.5 50q0 56 31.5 99t85 67.5t119.5 24.5q65 0 118.5 -24.5t85.5 -67.5t32 -99q0 -26 -8 -50t-24 -43.5t-39 -36t-53 -28.5l-9 36
q34 -9 63 -25.5t50 -41t32.5 -56t11.5 -70.5q0 -60 -35 -107t-94 -74t-131 -27zM299 131q28 0 50 11t35 30t13 44q0 26 -12.5 45.5t-35 31t-50.5 11.5t-50 -11.5t-35 -31t-13 -45.5q0 -24 13 -43t35 -30.5t50 -11.5zM299 439q24 0 43.5 9.5t30.5 26t11 38.5t-11 39t-30.5 27
t-43.5 10q-25 0 -44.5 -10t-30.5 -27t-11 -39t11 -38.5t30.5 -26t44.5 -9.5z" />
    <glyph glyph-name="nine" unicode="9" horiz-adv-x="577" 
d="M208 0l-4 10l219 442l29 -60q-10 -36 -32 -65t-52.5 -50.5t-63.5 -33t-63 -11.5q-57 0 -105 31t-77 83t-29 113q0 72 34.5 130.5t93.5 93t133 34.5q54 0 101 -19t82.5 -52.5t55.5 -77.5t20 -93q0 -36 -6 -70.5t-19 -70.5t-30.5 -75t-40.5 -85l-88 -174h-158zM282 366
q31 0 55 14t37.5 37.5t13.5 52.5q0 31 -13.5 55.5t-37 38.5t-54.5 14q-30 0 -52.5 -13.5t-36 -38t-13.5 -56.5q0 -27 13.5 -50.5t36.5 -38.5t51 -15z" />
    <glyph glyph-name="colon" unicode=":" horiz-adv-x="257" 
d="M128 -11q-41 0 -63.5 23t-22.5 66q0 40 24 65t62 25q41 0 64 -23.5t23 -66.5q0 -39 -24 -64t-63 -25zM128 362q-41 0 -63.5 23t-22.5 66q0 40 24 65t62 25q41 0 64 -23.5t23 -66.5q0 -39 -24 -64t-63 -25z" />
    <glyph glyph-name="semicolon" unicode=";" horiz-adv-x="291" 
d="M89 -200l-46 57q40 18 64 45.5t24 47.5q0 9 -4.5 19.5t-22.5 23.5q-23 17 -31 33.5t-8 36.5q0 31 22.5 49t58.5 18q29 0 52.5 -16t37 -44t13.5 -65q0 -34 -12 -65.5t-33.5 -59t-51 -48.5t-63.5 -32zM143 363q-41 0 -63.5 23t-22.5 66q0 40 24 65t62 25q41 0 64 -23.5
t23 -66.5q0 -39 -24 -64t-63 -25z" />
    <glyph glyph-name="less" unicode="&#x3c;" horiz-adv-x="525" 
d="M429 -13l-388 222v97l388 222l66 -127l-340 -178v69l340 -179z" />
    <glyph glyph-name="equal" unicode="=" horiz-adv-x="623" 
d="M67 325v130h489v-130h-489zM67 108v129h489v-129h-489z" />
    <glyph glyph-name="greater" unicode="&#x3e;" horiz-adv-x="526" 
d="M105 -13l-65 126l339 179v-69l-339 178l65 127l388 -222v-97z" />
    <glyph glyph-name="question" unicode="?" horiz-adv-x="536" 
d="M195 240l-32 131q29 7 55 16.5t48 20.5t37.5 25.5t24.5 32t9 37.5t-10 34.5t-27 22.5t-40 8q-33 0 -66 -23.5t-61 -75.5l-109 101q45 69 107.5 107t130.5 38q66 0 119 -26.5t84 -73t31 -104.5q0 -37 -15.5 -73t-43 -67.5t-64.5 -55.5t-82 -37l-10 -38h-86zM159 78
q0 40 24 65t62 25q41 0 64 -23.5t23 -66.5q0 -39 -24 -64t-63 -25q-41 0 -63.5 23t-22.5 66z" />
    <glyph glyph-name="at" unicode="@" horiz-adv-x="965" 
d="M414 -162q-87 0 -156.5 26.5t-118 75t-74 116.5t-25.5 150q0 117 41.5 210.5t115 159t171 100t208.5 34.5q80 0 144 -22.5t110 -64.5t70.5 -99.5t24.5 -127.5q0 -69 -19.5 -131.5t-54.5 -111t-81.5 -76.5t-100.5 -28q-38 0 -68 13t-46.5 36.5t-16.5 54.5q0 16 1.5 33.5
t2.5 35.5l26 -20q-16 -49 -41.5 -83t-59 -52t-73.5 -18q-46 0 -82 24t-57 66t-21 98q0 49 18 99t51.5 92t77.5 67.5t96 25.5q31 0 55.5 -16t40 -45t18.5 -67l-31 -28l29 145h144l-59 -316q-3 -17 2 -26.5t14.5 -14.5t20.5 -5q28 0 52 19.5t41.5 53t27.5 77.5t10 93
q0 76 -32.5 129.5t-93.5 82.5t-146 29q-103 0 -185.5 -29t-140.5 -83.5t-89 -133t-31 -177.5q0 -69 19.5 -122.5t56.5 -91.5t92 -57.5t125 -19.5q47 0 81 6.5t65 20t69 33.5l37 -67q-59 -30 -101 -45.5t-78 -21.5t-76 -6zM436 170q26 0 50.5 17t42.5 45t24 63q2 14 4 25.5
t2 22.5q0 19 -6.5 33.5t-20 22.5t-34.5 8q-31 0 -56.5 -23t-40.5 -61t-15 -81q0 -33 13.5 -52.5t36.5 -19.5z" />
    <glyph glyph-name="A" unicode="A" horiz-adv-x="694" 
d="M-1 0l277 700h144l275 -700h-172l-132 355q-8 21 -16 45t-16 49.5t-15.5 50t-12.5 45.5l30 1q-6 -25 -13.5 -49t-15 -47.5t-16.5 -47t-17 -48.5l-132 -354h-168zM131 134l53 128h322l52 -128h-427z" />
    <glyph glyph-name="B" unicode="B" horiz-adv-x="701" 
d="M88 0v700h309q72 0 122 -20.5t75.5 -59t25.5 -92.5q0 -60 -29.5 -101t-85.5 -55l-2 19q47 -10 81.5 -35t53.5 -61.5t19 -82.5q0 -53 -18 -92.5t-52 -66.5t-79.5 -40t-100.5 -13h-319zM248 142h153q28 0 47.5 9t30.5 26.5t11 42.5q0 23 -11.5 39t-32.5 24.5t-50 8.5h-148
v-150zM248 419h125q26 0 44.5 8.5t28 24t9.5 37.5q0 32 -22 50.5t-66 18.5h-119v-139z" />
    <glyph glyph-name="C" unicode="C" horiz-adv-x="694" 
d="M406 -10q-79 0 -145.5 26.5t-115.5 75t-75.5 115t-26.5 146.5q0 78 28 144t77.5 114.5t117 75.5t147.5 27q50 0 98 -13t89.5 -38.5t71.5 -60.5l-104 -119q-21 22 -44.5 38.5t-51.5 25.5t-60 9q-40 0 -75.5 -14.5t-62 -41t-41.5 -64.5t-15 -85q0 -46 15 -83.5t42 -64.5
t65.5 -41t85.5 -14q32 0 61 9t53.5 24.5t43.5 35.5l82 -130q-25 -28 -66.5 -50t-92 -34.5t-101.5 -12.5z" />
    <glyph glyph-name="D" unicode="D" horiz-adv-x="772" 
d="M88 0v700h293q77 0 141 -25.5t110.5 -72.5t71.5 -111t25 -141t-25 -141.5t-71.5 -111t-110.5 -72t-141 -25.5h-293zM258 116l-23 34h141q42 0 75 14.5t56.5 40.5t36.5 63t13 82t-13 82t-36.5 63t-56.5 40.5t-75 14.5h-144l26 32v-466z" />
    <glyph glyph-name="E" unicode="E" horiz-adv-x="645" 
d="M88 0v700h488v-145h-323v-410h333v-145h-498zM168 287v138h363v-138h-363z" />
    <glyph glyph-name="F" unicode="F" horiz-adv-x="618" 
d="M88 0v700h170v-700h-170zM167 268v142h362v-142h-362zM167 550v150h403v-150h-403z" />
    <glyph glyph-name="G" unicode="G" horiz-adv-x="782" 
d="M413 -10q-84 0 -152 27t-117 76t-75 115.5t-26 144.5t27.5 143.5t78.5 114.5t120.5 76t151.5 27q58 0 109.5 -15t93.5 -41t71 -60l-103 -109q-25 24 -51.5 40t-56.5 25.5t-64 9.5q-44 0 -80.5 -16t-64 -44.5t-42.5 -67t-15 -83.5t16 -84t44 -67.5t66.5 -45t82.5 -16.5
q31 0 58.5 10t47.5 27t32 40.5t12 50.5v26l22 -34h-193v133h329q2 -11 3 -30t1.5 -37t0.5 -27q0 -68 -24.5 -124.5t-68.5 -97.5t-104 -64t-130 -23z" />
    <glyph glyph-name="H" unicode="H" horiz-adv-x="779" 
d="M522 0v700h170v-700h-170zM88 0v700h170v-700h-170zM154 273l1 152h457v-152h-458z" />
    <glyph glyph-name="I" unicode="I" horiz-adv-x="555" 
d="M74 0v143h118v414h-118v143h407v-143h-119v-414h119v-143h-407z" />
    <glyph glyph-name="J" unicode="J" horiz-adv-x="665" 
d="M261 -10q-38 0 -72 8.5t-62 25t-50 40t-38 52.5l97 101q14 -21 27 -34.5t25.5 -22.5t26 -13t28.5 -4q24 0 42.5 11.5t28.5 31.5t10 47v319h-128v148h402v-148h-108v-339q0 -51 -17.5 -92t-48.5 -70.5t-72.5 -45t-90.5 -15.5z" />
    <glyph glyph-name="K" unicode="K" horiz-adv-x="739" 
d="M212 205l-44 143l347 352h201zM88 0v700h170v-700h-170zM537 0l-260 342l115 99l343 -441h-198z" />
    <glyph glyph-name="L" unicode="L" horiz-adv-x="609" 
d="M88 0v700h170v-550h312v-150h-482z" />
    <glyph glyph-name="M" unicode="M" horiz-adv-x="878" 
d="M88 0v700h152l255 -415l-109 1l258 414h146v-700h-165v218q0 90 4.5 162t15.5 143l19 -52l-194 -301h-66l-190 299l19 54q11 -67 15.5 -137.5t4.5 -167.5v-218h-165z" />
    <glyph glyph-name="N" unicode="N" horiz-adv-x="807" 
d="M88 0v700h152l367 -500l-33 5q-5 33 -8 63t-5.5 59t-4 59t-2 65t-0.5 76v173h165v-700h-154l-383 516l51 -7q5 -48 8.5 -81.5t6 -59.5t3.5 -47t1.5 -41.5t0.5 -45.5v-234h-165z" />
    <glyph glyph-name="O" unicode="O" horiz-adv-x="812" 
d="M407 -10q-80 0 -146 27t-115 76t-76 115t-27 145t27 145t76 115t115 76t145 27t145 -27t115 -76t75.5 -115t26.5 -145q0 -78 -26.5 -144.5t-75.5 -115.5t-115 -76t-144 -27zM406 150q41 0 75.5 15t60 42.5t39.5 64.5t14 81t-14 81t-39.5 64.5t-60 42.5t-75.5 15
t-75.5 -15t-60.5 -42.5t-39.5 -64.5t-13.5 -81t13.5 -81.5t39.5 -64.5t60.5 -42t75.5 -15z" />
    <glyph glyph-name="P" unicode="P" horiz-adv-x="662" 
d="M88 0v700h302q66 0 117.5 -30t82 -82t30.5 -117q0 -68 -30.5 -121.5t-82 -84.5t-117.5 -31h-132v-234h-170zM255 383h111q22 0 40 11t29 30t11 44q0 26 -11 44t-29 28t-40 10h-111v-167z" />
    <glyph glyph-name="Q" unicode="Q" horiz-adv-x="812" 
d="M615 -110l-268 363l125 87l265 -360zM406 -10q-79 0 -145 27t-115 76t-76 115t-27 145t27 145t76 115t115 76t145 27t145 -27t115 -76t75.5 -115t26.5 -145q0 -78 -26.5 -144.5t-75.5 -115.5t-115 -76t-145 -27zM406 150q41 0 75.5 15t60 42.5t39.5 64.5t14 81t-14 81
t-39.5 64.5t-60 42.5t-75.5 15t-75.5 -15t-60.5 -42.5t-39.5 -64.5t-13.5 -81t13.5 -81.5t39.5 -64.5t60.5 -42t75.5 -15z" />
    <glyph glyph-name="R" unicode="R" horiz-adv-x="702" 
d="M88 0v700h315q67 0 121.5 -29t85.5 -79.5t31 -114.5q0 -66 -31 -118.5t-85 -82.5t-122 -30h-153v-246h-162zM476 0l-178 316l174 25l198 -341h-194zM250 376h138q26 0 45.5 11.5t30 32.5t10.5 48t-12 47.5t-34.5 31.5t-54.5 11h-123v-182z" />
    <glyph glyph-name="S" unicode="S" horiz-adv-x="634" 
d="M320 -10q-69 0 -124.5 16.5t-98.5 48t-77 74.5l103 117q50 -67 100.5 -90t104.5 -23q27 0 49 7t34 20.5t12 33.5q0 15 -7.5 27t-20.5 21t-31 16.5t-38 13t-41 9.5q-58 13 -101 32t-71.5 46.5t-42.5 63t-14 79.5q0 47 21.5 86.5t58 68t84.5 44t100 15.5q69 0 118.5 -14.5
t85 -41.5t60.5 -65l-105 -101q-21 26 -45.5 43t-52 26t-56.5 9q-30 0 -51.5 -7.5t-33.5 -21t-12 -32.5q0 -17 10 -29t27 -21.5t39 -16t46 -10.5q55 -11 99.5 -29t77 -44t50 -61.5t17.5 -82.5q0 -73 -35.5 -123.5t-97 -77t-141.5 -26.5z" />
    <glyph glyph-name="T" unicode="T" horiz-adv-x="655" 
d="M240 0v550h-208v150h591v-150h-213v-550h-170z" />
    <glyph glyph-name="U" unicode="U" horiz-adv-x="765" 
d="M383 -6q-87 0 -155 35.5t-106.5 97.5t-38.5 142v431h172v-422q0 -38 17 -68.5t46 -48t65 -17.5q38 0 67.5 17.5t47.5 48t18 68.5v422h166v-431q0 -80 -38.5 -142t-106.5 -97.5t-154 -35.5z" />
    <glyph glyph-name="V" unicode="V" horiz-adv-x="712" 
d="M284 0l-280 700h177l135 -357q12 -31 20.5 -54t15 -43t12 -40.5t12.5 -46.5h-31q8 34 16 60.5t18 55t25 68.5l130 357h174l-282 -700h-142z" />
    <glyph glyph-name="W" unicode="W" horiz-adv-x="993" 
d="M214 0l-210 700h173l105 -368q7 -25 12.5 -50.5t9 -48.5t5.5 -42.5t4 -32.5h-22q6 37 10.5 66t10.5 54.5t15 53.5l104 277h136l102 -277q12 -33 20 -62t12.5 -55.5t7.5 -52.5l-20 -3q2 18 3 33.5t2.5 30t3.5 30.5t6 35.5t11 44.5l104 367h169l-210 -700h-130l-166 403
l19 -2l-153 -401h-134z" />
    <glyph glyph-name="X" unicode="X" horiz-adv-x="705" 
d="M499 0l-217 314l-278 386h207l212 -310l283 -390h-207zM-1 0l267 381l137 -79l-207 -302h-197zM439 325l-136 76l196 299h197z" />
    <glyph glyph-name="Y" unicode="Y" horiz-adv-x="689" 
d="M269 0v349l7 -49l-283 400h193l216 -310l-88 3l195 307h187l-271 -411l15 68v-357h-171z" />
    <glyph glyph-name="Z" unicode="Z" horiz-adv-x="683" 
d="M60 0v113l376 500l59 -69h-409v156h528v-112l-374 -501l-60 62h445v-149h-565z" />
    <glyph glyph-name="bracketleft" unicode="[" horiz-adv-x="420" 
d="M80 -190v890h297v-137h-149l6 8v-636l-10 12h153v-137h-297z" />
    <glyph glyph-name="backslash" unicode="\" horiz-adv-x="584" 
d="M418 -107l-398 807h160l400 -807h-162z" />
    <glyph glyph-name="bracketright" unicode="]" horiz-adv-x="420" 
d="M42 -190v137h150l-6 -8v636l10 -12h-154v137h298v-890h-298z" />
    <glyph glyph-name="asciicircum" unicode="^" horiz-adv-x="592" 
d="M12 361l220 372h129l219 -372h-161l-164 283l84 2l-168 -285h-159z" />
    <glyph glyph-name="underscore" unicode="_" horiz-adv-x="687" 
d="M40 -192v131h607v-131h-607z" />
    <glyph glyph-name="grave" unicode="`" horiz-adv-x="500" 
d="M329 584l-205 110l73 104l179 -142z" />
    <glyph glyph-name="a" unicode="a" horiz-adv-x="659" 
d="M267 -9q-67 0 -119.5 35.5t-83.5 98t-31 141.5q0 81 31 143t85 97.5t123 35.5q38 0 69.5 -11t55.5 -30.5t41 -45t25 -54.5l-33 4v126h159v-531h-162v128l36 1q-8 -28 -26 -53t-44 -44t-58 -30t-68 -11zM311 126q37 0 64 17t42 48.5t15 74.5t-15 74.5t-42 49t-64 17.5
q-36 0 -62.5 -17.5t-41.5 -49t-15 -74.5t15 -74.5t41.5 -48.5t62.5 -17z" />
    <glyph glyph-name="b" unicode="b" horiz-adv-x="658" 
d="M390 -11q-36 0 -69 10t-59.5 27t-44 39.5t-23.5 46.5l35 12l-9 -123h-149v739h161v-336l-33 12q6 26 23 48.5t43 40t57 27.5t64 10q69 0 122.5 -35.5t84.5 -98t31 -142.5q0 -81 -30.5 -143.5t-83.5 -98t-120 -35.5zM348 124q36 0 63 18t41.5 49.5t14.5 74.5
q0 42 -14.5 74t-41.5 49t-63 17q-37 0 -64 -17t-42 -49t-15 -74q0 -43 15 -74.5t42 -49.5t64 -18z" />
    <glyph glyph-name="c" unicode="c" horiz-adv-x="545" 
d="M304 -10q-77 0 -138 36t-96.5 98.5t-35.5 141.5t35.5 141.5t96.5 98.5t138 36q71 0 130.5 -25t94.5 -70l-87 -104q-14 16 -33 30t-42 22t-48 8q-38 0 -67 -17.5t-45 -48.5t-16 -71q0 -38 16.5 -69t45.5 -49t66 -18q26 0 48 6.5t40.5 19.5t34.5 32l86 -105
q-34 -43 -94.5 -68t-129.5 -25z" />
    <glyph glyph-name="d" unicode="d" horiz-adv-x="654" 
d="M272 -11q-69 0 -122.5 35.5t-84.5 98t-31 142.5t31 142.5t85 98.5t124 36q36 0 69 -11t60 -30t44 -43.5t20 -50.5l-38 -9v342h161v-740h-149l-9 121l32 -5q-3 -25 -19.5 -48t-42.5 -40.5t-59.5 -28t-70.5 -10.5zM313 122q37 0 64 18t41.5 50t14.5 75q0 44 -14.5 76
t-41.5 50t-64 18t-63.5 -18t-41.5 -50t-15 -76q0 -43 15 -75t41.5 -50t63.5 -18z" />
    <glyph glyph-name="e" unicode="e" horiz-adv-x="586" 
d="M324 -10q-88 0 -153 35.5t-101 97t-36 140.5q0 61 20 112t56 88.5t85.5 58t108.5 20.5q56 0 102.5 -20t80.5 -56t52 -85t16 -107l-1 -43h-423l-23 90h316l-17 -19v20q-2 25 -15.5 44.5t-35.5 30.5t-50 11q-39 0 -66.5 -15.5t-41.5 -45t-14 -72.5q0 -44 18.5 -76.5
t54 -50.5t84.5 -18q34 0 60.5 10t57.5 34l75 -106q-31 -27 -66 -44t-71.5 -25.5t-72.5 -8.5z" />
    <glyph glyph-name="f" unicode="f" horiz-adv-x="393" 
d="M104 0v557q0 52 22.5 94t63 66.5t94.5 24.5q38 0 70 -11t57 -31l-46 -117q-13 7 -25 11t-22 4q-18 0 -30 -6t-17.5 -18.5t-5.5 -30.5v-543h-80h-47.5h-33.5zM27 384v132h347v-132h-347z" />
    <glyph glyph-name="g" unicode="g" horiz-adv-x="669" 
d="M314 -230q-65 0 -129.5 19t-104.5 49l56 112q21 -14 46.5 -24.5t53.5 -16.5t57 -6q51 0 83 15t48 45.5t16 76.5v89l31 -5q-7 -33 -34.5 -60t-67.5 -43.5t-85 -16.5q-72 0 -128.5 33.5t-89 93t-32.5 137.5q0 80 32 141.5t88 97t126 35.5q30 0 57.5 -7t51 -18.5t42 -27
t30 -33.5t15.5 -37l-33 -8l6 120h152v-488q0 -65 -19.5 -115.5t-57 -86t-90.5 -53.5t-120 -18zM318 128q39 0 67.5 17.5t44 48.5t15.5 73t-15.5 73.5t-44 49t-67.5 17.5q-38 0 -66 -17.5t-43.5 -49t-15.5 -73.5t15.5 -73t43.5 -48.5t66 -17.5z" />
    <glyph glyph-name="h" unicode="h" horiz-adv-x="635" 
d="M71 0v740h157v-317l-32 -12q11 36 39.5 65.5t68.5 47.5t84 18q60 0 101 -24.5t62 -73t21 -118.5v-326h-161v313q0 32 -9 53t-27.5 31.5t-45.5 9.5q-21 0 -39 -6.5t-31 -19t-20.5 -28.5t-7.5 -35v-318h-79h-48h-33z" />
    <glyph glyph-name="i" unicode="i" horiz-adv-x="319" 
d="M80 0v531h160v-531h-160zM160 636q-45 0 -70.5 21.5t-25.5 61.5q0 36 26 59t70 23q45 0 70 -21.5t25 -60.5q0 -37 -25.5 -60t-69.5 -23z" />
    <glyph glyph-name="j" unicode="j" horiz-adv-x="316" 
d="M23 -210l-61 124q46 0 72 12t37 39.5t11 75.5v490h160v-528q0 -73 -25 -120t-74 -70t-120 -23zM165 636q-45 0 -70.5 21.5t-25.5 61.5q0 36 26 59t70 23q45 0 70 -21.5t25 -60.5q0 -37 -25.5 -60t-69.5 -23z" />
    <glyph glyph-name="k" unicode="k" horiz-adv-x="626" 
d="M225 156l-59 120l248 255h211zM71 0v740h160v-740h-160zM431 0l-187 242l113 88l263 -330h-189z" />
    <glyph glyph-name="l" unicode="l" horiz-adv-x="304" 
d="M72 0v740h160v-740h-160z" />
    <glyph glyph-name="m" unicode="m" horiz-adv-x="962" 
d="M70 0v531h152l5 -96l-21 -1q12 26 30.5 46t42 33.5t49 20.5t51.5 7q39 0 71 -12t56 -38.5t38 -71.5l-25 2l8 16q13 24 33.5 43.5t45.5 33t52 20.5t52 7q63 0 105 -24.5t63.5 -73.5t21.5 -119v-324h-161v311q0 32 -9 53t-26.5 31.5t-43.5 10.5q-21 0 -38.5 -7t-30 -19
t-19.5 -28t-7 -36v-316h-161v312q0 30 -9 51t-27 32t-42 11q-21 0 -38.5 -7t-30 -19t-19.5 -28t-7 -35v-317h-161z" />
    <glyph glyph-name="n" unicode="n" horiz-adv-x="635" 
d="M71 0v531h152l5 -108l-32 -12q11 36 39.5 65.5t68.5 47.5t84 18q60 0 101 -24.5t62 -73t21 -118.5v-326h-161v313q0 32 -9 53t-27.5 31.5t-45.5 9.5q-21 0 -39 -6.5t-31 -19t-20.5 -28.5t-7.5 -35v-318h-79h-48h-33z" />
    <glyph glyph-name="o" unicode="o" horiz-adv-x="641" 
d="M321 -10q-83 0 -147.5 36t-102 98t-37.5 142t37.5 142t102 98t147.5 36t147.5 -36t101.5 -98t37 -142t-37 -142t-101.5 -98t-147.5 -36zM321 128q36 0 64 18t44 49t15 71q1 40 -15 71.5t-44 49.5t-64 18t-64.5 -18t-44.5 -49.5t-15 -71.5q-1 -40 15 -71t44.5 -49
t64.5 -18z" />
    <glyph glyph-name="p" unicode="p" horiz-adv-x="659" 
d="M71 -220v751h152l6 -119l-30 9q7 33 34 60t68.5 43.5t87.5 16.5q68 0 121 -35.5t83.5 -97t30.5 -142.5q0 -80 -30.5 -142t-84 -97.5t-122.5 -35.5q-45 0 -86 17t-69 46t-37 63l37 14v-351h-161zM348 126q36 0 63 17.5t42 48.5t15 74q0 42 -15 73.5t-41.5 49t-63.5 17.5
t-64 -17t-42 -49t-15 -74q0 -43 15 -74t42 -48.5t64 -17.5z" />
    <glyph glyph-name="q" unicode="q" horiz-adv-x="658" 
d="M426 -220v348l35 -8q-4 -25 -21 -48.5t-42.5 -41.5t-57.5 -28.5t-66 -10.5q-70 0 -124 35.5t-85 97.5t-31 142q0 81 30.5 143t84 97.5t120.5 35.5q38 0 72 -11t61 -29t44 -41.5t19 -49.5l-36 -6l6 126h152v-751h-161zM310 126q37 0 64 17t42 48.5t15 74.5t-15 74.5
t-42 49t-64 17.5q-36 0 -63 -17.5t-41.5 -49.5t-14.5 -74q0 -43 14.5 -74.5t41.5 -48.5t63 -17z" />
    <glyph glyph-name="r" unicode="r" horiz-adv-x="455" 
d="M71 0v531h152l7 -173l-30 33q12 43 39.5 77t64.5 54t79 20q18 0 33.5 -3t28.5 -7l-44 -177q-11 7 -29.5 11.5t-38.5 4.5q-22 0 -41 -7.5t-32 -21.5t-20.5 -33t-7.5 -43v-266h-161z" />
    <glyph glyph-name="s" unicode="s" horiz-adv-x="495" 
d="M250 -10q-78 0 -137.5 25t-94.5 67l97 84q31 -31 70 -45.5t74 -14.5q14 0 25 3t18.5 8.5t11.5 13t4 17.5q0 20 -18 31q-9 5 -30 12t-54 16q-47 12 -81.5 28.5t-56.5 38.5q-20 21 -31 46.5t-11 57.5q0 37 17.5 67t47 52t68 33.5t79.5 11.5q44 0 84 -10t74.5 -28t61.5 -43
l-84 -94q-18 17 -40.5 30.5t-46.5 21.5t-44 8q-15 0 -26.5 -2.5t-19.5 -8t-12 -13t-4 -17.5t5.5 -19t15.5 -15t32 -13.5t60 -18.5q47 -13 81 -29t54 -38q16 -17 24 -39.5t8 -48.5q0 -51 -28.5 -90.5t-78.5 -62t-114 -22.5z" />
    <glyph glyph-name="t" unicode="t" horiz-adv-x="398" 
d="M115 0v665h160v-665h-160zM21 391v140h357v-140h-357z" />
    <glyph glyph-name="u" unicode="u" horiz-adv-x="642" 
d="M252 -11q-59 0 -100.5 25.5t-64 73.5t-22.5 115v328h161v-306q0 -32 10 -55t30 -35.5t48 -12.5q21 0 38.5 7t30 19.5t19.5 29t7 36.5v317h161v-531h-151l-7 109l30 12q-12 -38 -40 -67.5t-67 -47t-83 -17.5z" />
    <glyph glyph-name="v" unicode="v" horiz-adv-x="605" 
d="M234 0l-222 531h177l132 -397l-39 -4l136 401h175l-233 -531h-126z" />
    <glyph glyph-name="w" unicode="w" horiz-adv-x="834" 
d="M187 0l-175 531h169l98 -345l-21 4l110 268h94l116 -269l-23 -2l98 344h169l-181 -531h-118l-115 285l12 -2l-115 -283h-118z" />
    <glyph glyph-name="x" unicode="x" horiz-adv-x="606" 
d="M398 0l-113 171l-52 73l-210 287h192l109 -163l57 -78l207 -290h-190zM18 0l214 298l86 -103l-111 -195h-189zM369 231l-85 102l105 198h189z" />
    <glyph glyph-name="y" unicode="y" horiz-adv-x="620" 
d="M138 -230l121 285l2 -82l-256 558h181l112 -267q9 -20 17 -43t12 -44l-22 -13q6 15 13.5 37.5t16.5 48.5l98 281h182l-226 -531l-92 -230h-159z" />
    <glyph glyph-name="z" unicode="z" horiz-adv-x="550" 
d="M50 0v92l282 362v-53h-282v130h440v-96l-267 -351l-4 46h280v-130h-449z" />
    <glyph glyph-name="braceleft" unicode="{" horiz-adv-x="427" 
d="M364 -206q-51 11 -89 27.5t-63 40t-37 56.5t-12 75l1 95q0 50 -22 74t-63 25h-40v126h42q41 1 62 24.5t21 74.5l-1 95q0 82 48.5 129.5t152.5 69.5l35 -115q-35 -12 -55 -23.5t-28.5 -31.5t-8.5 -54l2 -84q0 -58 -35.5 -97t-110.5 -58l-1 15q76 -21 111.5 -60t35.5 -96
l-2 -84q0 -32 8.5 -50.5t28.5 -29.5t55 -23z" />
    <glyph glyph-name="bar" unicode="|" horiz-adv-x="318" 
d="M83 -193v933h152v-933h-152z" />
    <glyph glyph-name="braceright" unicode="}" horiz-adv-x="427" 
d="M63 -206l-36 115q36 12 55.5 23.5t28 31.5t8.5 54l-2 84q0 58 35.5 97t111.5 58v-15q-76 21 -111.5 60t-35.5 96l2 84q0 32 -8 50.5t-28 29.5t-56 23l36 121q51 -10 89 -27t62.5 -40.5t37 -56.5t12.5 -75l-1 -95q0 -50 21.5 -74t63.5 -25h40v-126h-42q-42 -1 -62.5 -24.5
t-20.5 -74.5l1 -95q0 -82 -49 -129.5t-152 -69.5z" />
    <glyph glyph-name="asciitilde" unicode="~" horiz-adv-x="558" 
d="M383 202q-17 0 -36.5 4.5t-38.5 11.5t-36 14q-15 7 -31.5 13t-30.5 10t-24 4q-19 0 -29 -16t-10 -47h-115q0 96 37 147t115 51q12 0 27 -3t29 -8t28.5 -10.5t25.5 -10.5q13 -5 27 -11t27.5 -10t23.5 -4q17 0 28 16.5t9 41.5l115 -1q0 -63 -16 -105.5t-47.5 -64.5
t-77.5 -22z" />
    <glyph glyph-name="uni00A0" unicode="&#xa0;" horiz-adv-x="320" 
 />
    <glyph glyph-name="exclamdown" unicode="&#xa1;" horiz-adv-x="309" 
d="M202 275q8 -61 16 -125.5t13 -129t5 -123.5v-78h-169v78q0 60 5 125.5t13.5 129.5t16.5 123h100zM152 541q42 0 64.5 -23t22.5 -66q0 -40 -24 -65t-63 -25q-41 0 -63.5 23.5t-22.5 66.5q0 39 24 64t62 25z" />
    <glyph glyph-name="cent" unicode="&#xa2;" horiz-adv-x="563" 
d="M321 78q-79 0 -141 36t-98 98.5t-36 141.5t36 141.5t98 98.5t141 36q72 0 131.5 -25t93.5 -70l-87 -104q-13 16 -32.5 30t-42.5 22t-48 8q-39 0 -69 -17.5t-47.5 -48.5t-17.5 -71q0 -38 17.5 -69t47.5 -49t69 -18q26 0 48 6.5t40.5 19.5t34.5 32l87 -105
q-35 -43 -95.5 -68t-129.5 -25zM265 0v108l26 38v410l-26 50v100h120v-101l-22 -46v-416l22 -36v-107h-120z" />
    <glyph glyph-name="sterling" unicode="&#xa3;" horiz-adv-x="638" 
d="M186 53l-75 21q18 10 32.5 30t23 44.5t8.5 47.5q0 14 -3 32t-8.5 39t-12.5 42.5t-14 42.5q-12 37 -18 61t-8.5 41t-2.5 33q0 69 31 120.5t86.5 80t131.5 28.5q71 0 123.5 -24t77.5 -67l-121 -94q-10 14 -23 22.5t-29 13t-34 4.5q-28 0 -50 -12.5t-34.5 -34t-12.5 -49.5
q0 -31 8.5 -62t18.5 -60q11 -35 19 -67.5t8 -56.5q0 -31 -12 -59t-38.5 -56.5t-71.5 -60.5zM449 -21q-35 0 -70.5 9t-57.5 16q-13 4 -30 9t-36 9t-38 4q-33 0 -67.5 -10t-71.5 -28l-57 114q44 27 95 42.5t104 15.5q30 0 54.5 -5t67.5 -20q21 -7 46 -14.5t54 -7.5
q22 0 49.5 8.5t56.5 26.5l73 -105q-35 -32 -83 -48t-89 -16zM44 303v94h425v-94h-425z" />
    <glyph glyph-name="currency" unicode="&#xa4;" horiz-adv-x="560" 
d="M282 109q-59 0 -106.5 25.5t-75 70t-27.5 100.5q0 57 27.5 101.5t75 70t106.5 25.5t106 -26t74 -70.5t27 -100.5t-27 -100.5t-74 -70t-106 -25.5zM131 60l-99 99l86 90l98 -102zM112 370l-84 82l99 99l86 -84zM282 227q21 0 37.5 10t25.5 27.5t9 40.5q0 24 -9 42
t-25.5 28t-37.5 10t-37.5 -10t-26 -28t-9.5 -42q0 -23 9.5 -40.5t26 -27.5t37.5 -10zM435 64l-88 85l97 100l90 -86zM443 362l-99 98l91 95l99 -99z" />
    <glyph glyph-name="yen" unicode="&#xa5;" horiz-adv-x="689" 
d="M269 0v349l7 -49l-283 400h193l216 -310l-88 3l195 307h187l-271 -411l15 68v-357h-171zM142 123v71h435v-72zM142 246v71l435 -1v-71z" />
    <glyph glyph-name="brokenbar" unicode="&#xa6;" horiz-adv-x="324" 
d="M85 -202v394h154v-394h-154zM85 347v393h154v-393h-154z" />
    <glyph glyph-name="section" unicode="&#xa7;" horiz-adv-x="575" 
d="M348 132l-40 80q28 3 46 11.5t26.5 21t8.5 27.5q0 18 -13.5 30t-43.5 24l-85 29q-31 13 -61 29.5t-53.5 39t-38 53t-14.5 70.5q0 34 13.5 65t41 54.5t71 36.5t102.5 13q48 0 89.5 -10.5t74 -30.5t56.5 -48l-83 -90q-26 23 -50 35.5t-46 18t-42 5.5q-35 0 -54.5 -14
t-19.5 -36q0 -16 10.5 -28.5t28.5 -21.5t41 -18l85 -32q73 -27 108.5 -66.5t34.5 -95.5q-2 -44 -25.5 -77t-65.5 -52t-102 -23zM271 -142q-49 0 -93.5 12t-81 33t-61.5 47l80 95q43 -36 83 -52t72 -16q37 0 57 13t20 37q0 16 -12.5 27.5t-32 21t-43.5 18.5l-85 31
q-70 26 -105 66t-35 96q0 41 22 74.5t63.5 54.5t100.5 24l39 -84q-22 -2 -37.5 -10.5t-23.5 -20t-8 -27.5q0 -19 15 -32.5t48 -25.5l71 -25q52 -20 91.5 -43.5t62 -56.5t22.5 -81q0 -50 -24 -89.5t-74.5 -63t-130.5 -23.5z" />
    <glyph glyph-name="dieresis" unicode="&#xa8;" horiz-adv-x="500" 
d="M371 626q-42 0 -64.5 22t-22.5 63q0 38 23.5 61.5t63.5 23.5q41 0 63.5 -22t22.5 -63q0 -38 -23 -61.5t-63 -23.5zM130 626q-42 0 -64.5 22t-22.5 63q0 38 23.5 61.5t63.5 23.5q42 0 64.5 -22t22.5 -63q0 -38 -23.5 -61.5t-63.5 -23.5z" />
    <glyph glyph-name="copyright" unicode="&#xa9;" horiz-adv-x="791" 
d="M395 -18q-78 0 -144.5 28t-117 78.5t-79 117.5t-28.5 144t28.5 144t79 117.5t117 78.5t144.5 28q76 0 143 -28t117.5 -78.5t79 -117.5t28.5 -144t-28.5 -144t-79 -117.5t-117.5 -78.5t-143 -28zM410 143q-59 0 -107 27t-76.5 73.5t-28.5 105.5q0 57 28.5 104.5t76.5 75.5
t107 28q36 0 70 -12.5t66 -35.5l-49 -105q-15 10 -28 16.5t-24.5 9.5t-22.5 3q-25 0 -44.5 -11.5t-31 -30t-11.5 -42.5t11.5 -43t31 -30t44.5 -11q18 0 37.5 6.5t40.5 22.5l50 -107q-32 -22 -67.5 -33t-72.5 -11zM395 56q61 0 114.5 22.5t93.5 63t63 94t23 114.5
q0 62 -23 115.5t-63 93.5t-93.5 62.5t-114.5 22.5q-62 0 -115.5 -22.5t-93.5 -62.5t-63 -93.5t-23 -115.5q0 -61 23 -114.5t63 -94t93.5 -63t115.5 -22.5z" />
    <glyph glyph-name="ordfeminine" unicode="&#xaa;" horiz-adv-x="391" 
d="M140 390q-38 0 -65.5 21.5t-42 60.5t-14.5 90q0 46 17 82t47 57t70 21q55 0 81.5 -32.5t26.5 -91.5l-21 50v67h116v-314h-116v73l21 32q0 -29 -14.5 -55.5t-41.5 -43.5t-64 -17zM186 481q17 0 30 9.5t20 26.5t7 40q0 34 -15.5 54t-42.5 20q-15 0 -27 -9.5t-18.5 -25.5
t-6.5 -36q0 -24 6 -42t18 -27.5t29 -9.5z" />
    <glyph glyph-name="guillemotleft" unicode="&#xab;" horiz-adv-x="562" 
d="M433 26l-176 226v13l176 227l91 -63l-122 -187v34l123 -186zM186 26l-176 226v13l176 227l91 -63l-122 -187v34l123 -186z" />
    <glyph glyph-name="logicalnot" unicode="&#xac;" horiz-adv-x="670" 
d="M478 106v213l65 -42h-502v138h588v-309h-151z" />
    <glyph glyph-name="uni00AD" unicode="&#xad;" horiz-adv-x="454" 
d="M57 214v147h346v-147h-346z" />
    <glyph glyph-name="registered" unicode="&#xae;" horiz-adv-x="507" 
d="M260 236q-71 0 -128.5 33t-91 89.5t-33.5 125.5q0 52 19.5 97t54 79t80.5 53t99 19q50 0 94.5 -19t78.5 -53.5t53.5 -79t19.5 -96.5t-19 -97t-53 -79t-78.5 -53t-95.5 -19zM260 300q50 0 91.5 24.5t66 66.5t24.5 93t-24.5 93t-66 67t-91.5 25q-53 0 -96 -25t-68.5 -67
t-25.5 -93q0 -52 25.5 -94t68.5 -66t96 -24zM293 367l-37 89l68 16l55 -105h-86zM159 367v239h121q38 0 62 -21t24 -55t-25 -56t-61 -22h-55l14 12v-97h-80zM239 495l-13 7h34q12 0 20 6t8 15q0 10 -6.5 16t-19.5 6h-38l15 8v-58z" />
    <glyph glyph-name="macron" unicode="&#xaf;" horiz-adv-x="424" 
d="M82 634v101h336v-101h-336z" />
    <glyph glyph-name="degree" unicode="&#xb0;" horiz-adv-x="532" 
d="M266 393q-47 0 -85 21.5t-60 58t-22 80.5q0 46 21.5 82.5t59.5 58t86 21.5t86 -21.5t59.5 -58t21.5 -81.5t-22 -81.5t-60 -58t-85 -21.5zM266 489q17 0 30.5 9t21.5 23.5t8 32.5t-8 32.5t-21.5 23t-30.5 8.5t-31 -8.5t-21.5 -23.5t-7.5 -33t8 -32.5t21.5 -23t30.5 -8.5z
" />
    <glyph glyph-name="plusminus" unicode="&#xb1;" horiz-adv-x="641" 
d="M67 313v130h505v-130h-505zM69 -6v131h504v-131h-504zM245 184v392h150v-392h-150z" />
    <glyph glyph-name="uni00B2" unicode="&#xb2;" horiz-adv-x="364" 
d="M60 418l-13 84l102 83q16 11 30.5 24.5t24 29t9.5 29.5q0 13 -7 21t-20 8q-19 0 -37.5 -15.5t-32.5 -37.5l-78 56q21 31 45 52.5t51.5 32t60.5 10.5q39 0 67.5 -14.5t44 -39.5t15.5 -55q0 -40 -19 -70t-47.5 -52.5t-56.5 -40.5l-54 -40l2 25h185v-90h-272z" />
    <glyph glyph-name="uni00B3" unicode="&#xb3;" horiz-adv-x="356" 
d="M177 412q-28 0 -51.5 3.5t-45 11t-44.5 19.5l45 78q17 -10 35 -15t37 -5q23 0 37 10.5t14 28.5q0 15 -13 24t-36 9q-13 0 -27.5 -2.5t-28.5 -6.5l-23 61l143 99l8 -29h-164v91h219l10 -85l-120 -86l-6 7q10 6 22.5 9.5t19.5 3.5q46 0 76 -28.5t30 -75.5q0 -36 -19 -63.5
t-50.5 -43t-67.5 -15.5z" />
    <glyph glyph-name="acute" unicode="&#xb4;" horiz-adv-x="500" 
d="M171 583l-47 73l179 142l73 -105z" />
    <glyph glyph-name="uni00B5" unicode="&#xb5;" horiz-adv-x="639" 
d="M74 -162v693h158v-309q0 -33 9.5 -55t27.5 -33.5t45 -11.5q21 0 38.5 7.5t30.5 21t20 31t7 37.5v312h158v-531h-148l-6 100l15 -10q-20 -35 -43.5 -56.5t-53.5 -32t-68 -12.5q-12 0 -22.5 3t-18 8.5t-11.5 12.5l14 53l6 -228h-158z" />
    <glyph glyph-name="paragraph" unicode="&#xb6;" horiz-adv-x="763" 
d="M247 0v314l47 -41h-63q-54 0 -96.5 27.5t-67 75t-24.5 107.5q0 66 28 114.5t78.5 75.5t118.5 27h407v-700h-165v660l50 -64h-226l79 56v-652h-166z" />
    <glyph glyph-name="periodcentered" unicode="&#xb7;" horiz-adv-x="257" 
d="M128 253q-41 0 -63.5 23t-22.5 66q0 40 24 65t62 25q41 0 64 -23.5t23 -66.5q0 -39 -24 -64t-63 -25z" />
    <glyph glyph-name="cedilla" unicode="&#xb8;" horiz-adv-x="500" 
d="M152 -246l-10 75q21 0 43.5 5t38 14.5t15.5 20.5q0 12 -11.5 19t-27.5 10.5t-32 3.5l-17 14l69 108h82l-46 -67q52 -6 77.5 -32.5t25.5 -63.5q0 -31 -19.5 -51.5t-50.5 -33.5t-67 -18t-70 -4z" />
    <glyph glyph-name="uni00B9" unicode="&#xb9;" horiz-adv-x="291" 
d="M116 430v292l17 -41l-61 -38l-46 83l117 70h87v-366h-57h-28h-29z" />
    <glyph glyph-name="ordmasculine" unicode="&#xba;" horiz-adv-x="400" 
d="M199 393q-48 0 -86 20.5t-60 57t-22 82.5q0 47 22 83.5t60 58t86 21.5t86.5 -21.5t60.5 -58.5t22 -83t-21.5 -82t-60.5 -57t-87 -21zM198 477q17 0 29.5 10t19.5 27.5t7 40.5t-6.5 40t-19 26t-30.5 9q-16 0 -28 -9.5t-19 -26.5t-7 -39q0 -24 6.5 -41.5t19 -27t28.5 -9.5z
" />
    <glyph glyph-name="guillemotright" unicode="&#xbb;" horiz-adv-x="565" 
d="M378 29l-91 63l122 187v-34l-123 186l92 64l175 -226v-13zM129 29l-91 63l122 187v-34l-123 186l92 64l175 -226v-13z" />
    <glyph glyph-name="onequarter" unicode="&#xbc;" horiz-adv-x="821" 
d="M125 360v292l17 -41l-61 -38l-46 83l117 70h87v-366h-57h-28h-29zM89 0l467 700h145l-468 -700h-144zM712 159h74v-90h-74v90zM527 125l-16 34h147l-34 -34v158l29 -11zM728 -1h-121v104l31 -34h-177l-20 80l181 220h106v-370z" />
    <glyph glyph-name="onehalf" unicode="&#xbd;" horiz-adv-x="827" 
d="M125 360v292l17 -41l-61 -38l-46 83l117 70h87v-366h-57h-28h-29zM89 0l467 700h145l-468 -700h-144zM519 0l-13 84l102 83q16 11 30.5 24.5t24 29t9.5 29.5q0 13 -7 21t-20 8q-19 0 -37.5 -15.5t-32.5 -37.5l-78 56q21 31 45 52.5t51.5 32t60.5 10.5q39 0 67.5 -14.5
t44 -39.5t15.5 -55q0 -40 -19 -70t-47.5 -52.5t-56.5 -40.5l-54 -40l2 25h185v-90h-272z" />
    <glyph glyph-name="threequarters" unicode="&#xbe;" horiz-adv-x="850" 
d="M164 342q-28 0 -51.5 3.5t-45 11t-44.5 19.5l45 78q17 -10 35 -15t37 -5q23 0 37 10.5t14 28.5q0 15 -13 24t-36 9q-13 0 -27.5 -2.5t-28.5 -6.5l-23 61l143 99l8 -29h-164v91h219l10 -85l-120 -86l-6 7q10 6 22.5 9.5t19.5 3.5q46 0 76 -28.5t30 -75.5q0 -36 -19 -63.5
t-50.5 -43t-67.5 -15.5zM123 0l467 700h145l-468 -700h-144zM741 159h74v-90h-74v90zM556 125l-16 34h147l-34 -34v158l29 -11zM757 -1h-121v104l31 -34h-177l-20 80l181 220h106v-370z" />
    <glyph glyph-name="questiondown" unicode="&#xbf;" horiz-adv-x="536" 
d="M324 294l32 -131q-29 -7 -55 -16.5t-47.5 -20.5t-37.5 -25.5t-24.5 -31.5t-8.5 -38q0 -19 9.5 -34t27 -23t39.5 -8q34 0 66.5 23.5t60.5 75.5l110 -101q-46 -69 -108 -107t-131 -38q-66 0 -118.5 26.5t-83.5 73t-31 104.5q0 38 15 73.5t42.5 67t65 55.5t81.5 37l10 38h86
zM360 456q0 -40 -23.5 -65t-62.5 -25q-41 0 -63.5 23.5t-22.5 66.5q0 39 24 64t62 25q41 0 63.5 -23t22.5 -66z" />
    <glyph glyph-name="Agrave" unicode="&#xc0;" horiz-adv-x="694" 
d="M-1 0l277 700h144l275 -700h-172l-132 355q-8 21 -16 45t-16 49.5t-15.5 50t-12.5 45.5l30 1q-6 -25 -13.5 -49t-15 -47.5t-16.5 -47t-17 -48.5l-132 -354h-168zM131 134l53 128h322l52 -128h-427zM445 748l-227 78l55 117l209 -115z" />
    <glyph glyph-name="Aacute" unicode="&#xc1;" horiz-adv-x="694" 
d="M-1 0l277 700h144l275 -700h-172l-132 355q-8 21 -16 45t-16 49.5t-15.5 50t-12.5 45.5l30 1q-6 -25 -13.5 -49t-15 -47.5t-16.5 -47t-17 -48.5l-132 -354h-168zM131 134l53 128h322l52 -128h-427zM258 748l-37 80l209 115l55 -117z" />
    <glyph glyph-name="Acircumflex" unicode="&#xc2;" horiz-adv-x="694" 
d="M-1 0l277 700h144l275 -700h-172l-132 355q-8 21 -16 45t-16 49.5t-15.5 50t-12.5 45.5l30 1q-6 -25 -13.5 -49t-15 -47.5t-16.5 -47t-17 -48.5l-132 -354h-168zM131 134l53 128h322l52 -128h-427zM215 754l-49 57l136 106h90l136 -106l-49 -57l-147 71h30z" />
    <glyph glyph-name="Atilde" unicode="&#xc3;" horiz-adv-x="694" 
d="M-1 0l277 700h144l275 -700h-172l-132 355q-8 21 -16 45t-16 49.5t-15.5 50t-12.5 45.5l30 1q-6 -25 -13.5 -49t-15 -47.5t-16.5 -47t-17 -48.5l-132 -354h-168zM131 134l53 128h322l52 -128h-427zM424 768q-20 0 -40 6t-44 16q-18 9 -30.5 13t-22.5 4q-14 0 -22.5 -10
t-8.5 -28h-100q0 66 36.5 103.5t91.5 37.5q18 0 35.5 -5t44.5 -17q16 -8 27 -12t20 -4q13 0 20.5 10.5t6.5 27.5h99q0 -38 -14.5 -71t-39.5 -52t-59 -19z" />
    <glyph glyph-name="Adieresis" unicode="&#xc4;" horiz-adv-x="694" 
d="M-1 0l277 700h144l275 -700h-172l-132 355q-8 21 -16 45t-16 49.5t-15.5 50t-12.5 45.5l30 1q-6 -25 -13.5 -49t-15 -47.5t-16.5 -47t-17 -48.5l-132 -354h-168zM131 134l53 128h322l52 -128h-427zM469 754q-43 0 -65 22.5t-22 62.5q0 36 23 60.5t64 24.5
q42 0 64.5 -22.5t22.5 -62.5q0 -36 -23 -60.5t-64 -24.5zM226 754q-43 0 -65 22.5t-22 62.5q0 36 22.5 60.5t64.5 24.5t64 -22.5t22 -62.5q0 -36 -22.5 -60.5t-63.5 -24.5z" />
    <glyph glyph-name="Aring" unicode="&#xc5;" horiz-adv-x="694" 
d="M-1 0l277 700h144l275 -700h-172l-132 355q-8 21 -16 45t-16 49.5t-15.5 50t-12.5 45.5l30 1q-6 -25 -13.5 -49t-15 -47.5t-16.5 -47t-17 -48.5l-132 -354h-168zM131 134l53 128h322l52 -128h-427zM347 673q-35 0 -65.5 17t-49 45t-18.5 60q0 36 18.5 65.5t48.5 46.5
t66 17q35 0 65 -17t48.5 -46.5t18.5 -65.5q0 -32 -18.5 -60t-48.5 -45t-65 -17zM347 755q17 0 29 12t12 28q0 19 -12.5 30.5t-28.5 11.5q-17 0 -29 -11.5t-12 -30.5q0 -16 12 -28t29 -12z" />
    <glyph glyph-name="AE" unicode="&#xc6;" horiz-adv-x="1075" 
d="M-9 0l488 700h537v-140h-328v-138h283v-135h-283v-147h328v-140h-490v143h-269l91 133h178v282l25 -8l-376 -550h-184z" />
    <glyph glyph-name="Ccedilla" unicode="&#xc7;" horiz-adv-x="694" 
d="M406 -10q-79 0 -145.5 26.5t-115.5 75t-75.5 115t-26.5 146.5q0 78 28 144t77.5 114.5t117 75.5t147.5 27q50 0 98 -13t89.5 -38.5t71.5 -60.5l-104 -119q-21 22 -44.5 38.5t-51.5 25.5t-60 9q-40 0 -75.5 -14.5t-62 -41t-41.5 -64.5t-15 -85q0 -46 15 -83.5t42 -64.5
t65.5 -41t85.5 -14q32 0 61 9t53.5 24.5t43.5 35.5l82 -130q-25 -28 -66.5 -50t-92 -34.5t-101.5 -12.5zM298 -246l-9 75q20 0 42.5 5t38.5 14.5t16 20.5q0 12 -11.5 19t-27.5 10.5t-32 3.5l-18 14l69 108h82l-45 -67q52 -6 77 -32.5t25 -63.5q0 -31 -19 -51.5t-50 -33.5
t-67 -18t-71 -4z" />
    <glyph glyph-name="Egrave" unicode="&#xc8;" horiz-adv-x="645" 
d="M88 0v700h488v-145h-323v-410h333v-145h-498zM168 287v138h363v-138h-363zM441 748l-227 78l55 117l209 -115z" />
    <glyph glyph-name="Eacute" unicode="&#xc9;" horiz-adv-x="645" 
d="M88 0v700h488v-145h-323v-410h333v-145h-498zM168 287v138h363v-138h-363zM254 748l-37 80l209 115l55 -117z" />
    <glyph glyph-name="Ecircumflex" unicode="&#xca;" horiz-adv-x="645" 
d="M88 0v700h488v-145h-323v-410h333v-145h-498zM168 287v138h363v-138h-363zM210 754l-49 57l136 106h90l136 -106l-49 -57l-147 71h30z" />
    <glyph glyph-name="Edieresis" unicode="&#xcb;" horiz-adv-x="645" 
d="M88 0v700h488v-145h-323v-410h333v-145h-498zM168 287v138h363v-138h-363zM464 754q-43 0 -65 22.5t-22 62.5q0 36 23 60.5t64 24.5q42 0 64.5 -22.5t22.5 -62.5q0 -36 -23 -60.5t-64 -24.5zM221 754q-43 0 -65 22.5t-22 62.5q0 36 22.5 60.5t64.5 24.5t64 -22.5
t22 -62.5q0 -36 -22.5 -60.5t-63.5 -24.5z" />
    <glyph glyph-name="Igrave" unicode="&#xcc;" horiz-adv-x="555" 
d="M74 0v143h118v414h-118v143h407v-143h-119v-414h119v-143h-407zM376 748l-227 78l55 117l209 -115z" />
    <glyph glyph-name="Iacute" unicode="&#xcd;" horiz-adv-x="555" 
d="M74 0v143h118v414h-118v143h407v-143h-119v-414h119v-143h-407zM189 748l-37 80l209 115l55 -117z" />
    <glyph glyph-name="Icircumflex" unicode="&#xce;" horiz-adv-x="555" 
d="M74 0v143h118v414h-118v143h407v-143h-119v-414h119v-143h-407zM145 754l-49 57l136 106h90l136 -106l-49 -57l-147 71h30z" />
    <glyph glyph-name="Idieresis" unicode="&#xcf;" horiz-adv-x="555" 
d="M74 0v143h118v414h-118v143h407v-143h-119v-414h119v-143h-407zM399 754q-43 0 -65 22.5t-22 62.5q0 36 23 60.5t64 24.5q42 0 64.5 -22.5t22.5 -62.5q0 -36 -23 -60.5t-64 -24.5zM156 754q-43 0 -65 22.5t-22 62.5q0 36 22.5 60.5t64.5 24.5t64 -22.5t22 -62.5
q0 -36 -22.5 -60.5t-63.5 -24.5z" />
    <glyph glyph-name="Eth" unicode="&#xd0;" horiz-adv-x="772" 
d="M35 291v118h326v-118h-326zM88 0v700h293q77 0 141 -25.5t110.5 -72.5t71.5 -111t25 -141t-25 -141.5t-71.5 -111t-110.5 -72t-141 -25.5h-293zM258 116l-23 34h141q42 0 75 14.5t56.5 40.5t36.5 63t13 82t-13 82t-36.5 63t-56.5 40.5t-75 14.5h-144l26 32v-466z" />
    <glyph glyph-name="Ntilde" unicode="&#xd1;" horiz-adv-x="807" 
d="M88 0v700h152l367 -500l-33 5q-5 33 -8 63t-5.5 59t-4 59t-2 65t-0.5 76v173h165v-700h-154l-383 516l51 -7q5 -48 8.5 -81.5t6 -59.5t3.5 -47t1.5 -41.5t0.5 -45.5v-234h-165zM481 768q-20 0 -40 6t-44 16q-18 9 -30.5 13t-22.5 4q-14 0 -22.5 -10t-8.5 -28h-100
q0 66 36.5 103.5t91.5 37.5q18 0 35.5 -5t44.5 -17q16 -8 27 -12t20 -4q13 0 20.5 10.5t6.5 27.5h99q0 -38 -14.5 -71t-39.5 -52t-59 -19z" />
    <glyph glyph-name="Ograve" unicode="&#xd2;" horiz-adv-x="812" 
d="M407 -10q-80 0 -146 27t-115 76t-76 115t-27 145t27 145t76 115t115 76t145 27t145 -27t115 -76t75.5 -115t26.5 -145q0 -78 -26.5 -144.5t-75.5 -115.5t-115 -76t-144 -27zM406 150q41 0 75.5 15t60 42.5t39.5 64.5t14 81t-14 81t-39.5 64.5t-60 42.5t-75.5 15
t-75.5 -15t-60.5 -42.5t-39.5 -64.5t-13.5 -81t13.5 -81.5t39.5 -64.5t60.5 -42t75.5 -15zM504 748l-227 78l55 117l209 -115z" />
    <glyph glyph-name="Oacute" unicode="&#xd3;" horiz-adv-x="812" 
d="M407 -10q-80 0 -146 27t-115 76t-76 115t-27 145t27 145t76 115t115 76t145 27t145 -27t115 -76t75.5 -115t26.5 -145q0 -78 -26.5 -144.5t-75.5 -115.5t-115 -76t-144 -27zM406 150q41 0 75.5 15t60 42.5t39.5 64.5t14 81t-14 81t-39.5 64.5t-60 42.5t-75.5 15
t-75.5 -15t-60.5 -42.5t-39.5 -64.5t-13.5 -81t13.5 -81.5t39.5 -64.5t60.5 -42t75.5 -15zM317 748l-37 80l209 115l55 -117z" />
    <glyph glyph-name="Ocircumflex" unicode="&#xd4;" horiz-adv-x="812" 
d="M407 -10q-80 0 -146 27t-115 76t-76 115t-27 145t27 145t76 115t115 76t145 27t145 -27t115 -76t75.5 -115t26.5 -145q0 -78 -26.5 -144.5t-75.5 -115.5t-115 -76t-144 -27zM406 150q41 0 75.5 15t60 42.5t39.5 64.5t14 81t-14 81t-39.5 64.5t-60 42.5t-75.5 15
t-75.5 -15t-60.5 -42.5t-39.5 -64.5t-13.5 -81t13.5 -81.5t39.5 -64.5t60.5 -42t75.5 -15zM274 754l-49 57l136 106h90l136 -106l-49 -57l-147 71h30z" />
    <glyph glyph-name="Otilde" unicode="&#xd5;" horiz-adv-x="812" 
d="M407 -10q-80 0 -146 27t-115 76t-76 115t-27 145t27 145t76 115t115 76t145 27t145 -27t115 -76t75.5 -115t26.5 -145q0 -78 -26.5 -144.5t-75.5 -115.5t-115 -76t-144 -27zM406 150q41 0 75.5 15t60 42.5t39.5 64.5t14 81t-14 81t-39.5 64.5t-60 42.5t-75.5 15
t-75.5 -15t-60.5 -42.5t-39.5 -64.5t-13.5 -81t13.5 -81.5t39.5 -64.5t60.5 -42t75.5 -15zM483 768q-20 0 -40 6t-44 16q-18 9 -30.5 13t-22.5 4q-14 0 -22.5 -10t-8.5 -28h-100q0 66 36.5 103.5t91.5 37.5q18 0 35.5 -5t44.5 -17q16 -8 27 -12t20 -4q13 0 20.5 10.5
t6.5 27.5h99q0 -38 -14.5 -71t-39.5 -52t-59 -19z" />
    <glyph glyph-name="Odieresis" unicode="&#xd6;" horiz-adv-x="812" 
d="M407 -10q-80 0 -146 27t-115 76t-76 115t-27 145t27 145t76 115t115 76t145 27t145 -27t115 -76t75.5 -115t26.5 -145q0 -78 -26.5 -144.5t-75.5 -115.5t-115 -76t-144 -27zM406 150q41 0 75.5 15t60 42.5t39.5 64.5t14 81t-14 81t-39.5 64.5t-60 42.5t-75.5 15
t-75.5 -15t-60.5 -42.5t-39.5 -64.5t-13.5 -81t13.5 -81.5t39.5 -64.5t60.5 -42t75.5 -15zM527 754q-43 0 -65 22.5t-22 62.5q0 36 23 60.5t64 24.5q42 0 64.5 -22.5t22.5 -62.5q0 -36 -23 -60.5t-64 -24.5zM284 754q-43 0 -65 22.5t-22 62.5q0 36 22.5 60.5t64.5 24.5
t64 -22.5t22 -62.5q0 -36 -22.5 -60.5t-63.5 -24.5z" />
    <glyph glyph-name="multiply" unicode="&#xd7;" horiz-adv-x="532" 
d="M398 53l-360 360l96 94l360 -360zM134 50l-94 97l359 360l95 -96z" />
    <glyph glyph-name="Oslash" unicode="&#xd8;" horiz-adv-x="807" 
d="M139 -33l-63 53l589 721l68 -47zM406 -10q-79 0 -145.5 27t-115.5 76t-75.5 115t-26.5 145t26.5 145t75.5 115t115.5 76t145.5 27t145 -27t115 -76t75.5 -115t26.5 -145q0 -78 -26.5 -144.5t-75.5 -115.5t-115 -76t-145 -27zM406 150q41 0 75.5 15t60 42.5t39.5 64.5
t14 81t-14 81t-39.5 64.5t-60 42.5t-75.5 15q-42 0 -76.5 -15t-60 -42.5t-39.5 -64.5t-14 -81t14 -81.5t39.5 -64.5t60 -42t76.5 -15z" />
    <glyph glyph-name="Ugrave" unicode="&#xd9;" horiz-adv-x="765" 
d="M383 -6q-87 0 -155 35.5t-106.5 97.5t-38.5 142v431h172v-422q0 -38 17 -68.5t46 -48t65 -17.5q38 0 67.5 17.5t47.5 48t18 68.5v422h166v-431q0 -80 -38.5 -142t-106.5 -97.5t-154 -35.5zM481 748l-227 78l55 117l209 -115z" />
    <glyph glyph-name="Uacute" unicode="&#xda;" horiz-adv-x="765" 
d="M383 -6q-87 0 -155 35.5t-106.5 97.5t-38.5 142v431h172v-422q0 -38 17 -68.5t46 -48t65 -17.5q38 0 67.5 17.5t47.5 48t18 68.5v422h166v-431q0 -80 -38.5 -142t-106.5 -97.5t-154 -35.5zM294 748l-37 80l209 115l55 -117z" />
    <glyph glyph-name="Ucircumflex" unicode="&#xdb;" horiz-adv-x="765" 
d="M383 -6q-87 0 -155 35.5t-106.5 97.5t-38.5 142v431h172v-422q0 -38 17 -68.5t46 -48t65 -17.5q38 0 67.5 17.5t47.5 48t18 68.5v422h166v-431q0 -80 -38.5 -142t-106.5 -97.5t-154 -35.5zM250 754l-49 57l136 106h90l136 -106l-49 -57l-147 71h30z" />
    <glyph glyph-name="Udieresis" unicode="&#xdc;" horiz-adv-x="765" 
d="M383 -6q-87 0 -155 35.5t-106.5 97.5t-38.5 142v431h172v-422q0 -38 17 -68.5t46 -48t65 -17.5q38 0 67.5 17.5t47.5 48t18 68.5v422h166v-431q0 -80 -38.5 -142t-106.5 -97.5t-154 -35.5zM504 754q-43 0 -65 22.5t-22 62.5q0 36 23 60.5t64 24.5q42 0 64.5 -22.5
t22.5 -62.5q0 -36 -23 -60.5t-64 -24.5zM261 754q-43 0 -65 22.5t-22 62.5q0 36 22.5 60.5t64.5 24.5t64 -22.5t22 -62.5q0 -36 -22.5 -60.5t-63.5 -24.5z" />
    <glyph glyph-name="Yacute" unicode="&#xdd;" horiz-adv-x="689" 
d="M269 0v349l7 -49l-283 400h193l216 -310l-88 3l195 307h187l-271 -411l15 68v-357h-171zM256 748l-37 80l209 115l55 -117z" />
    <glyph glyph-name="Thorn" unicode="&#xde;" horiz-adv-x="662" 
d="M88 0v700h170v-111h132q66 0 117.5 -30t82 -82t30.5 -118q0 -67 -30.5 -121t-82 -85t-117.5 -31h-132v-122h-170zM258 272h108q22 0 40 11t29 30t11 44t-11 43t-29 28.5t-40 10.5h-108v-167z" />
    <glyph glyph-name="germandbls" unicode="&#xdf;" horiz-adv-x="667" 
d="M427 -10q-42 0 -74.5 13t-57.5 38l63 110q18 -15 33 -20.5t31 -5.5q31 0 49 20.5t18 56.5q0 28 -11 50.5t-31.5 40.5t-47 31.5t-56.5 24.5v85q21 9 36 19t24.5 21t13.5 24t4 27q0 31 -21 47.5t-57 16.5q-40 0 -60.5 -24.5t-20.5 -66.5v-498h-158v499q0 70 29.5 123
t84 82.5t131.5 29.5q64 0 114 -20t79 -58t29 -91q0 -32 -13.5 -64t-38.5 -58.5t-60 -41.5l-2 36q42 -13 76 -35t59 -51.5t38.5 -66.5t13.5 -81q0 -61 -28 -109t-77 -76t-112 -28zM27 364v138h151v-138h-151z" />
    <glyph glyph-name="agrave" unicode="&#xe0;" horiz-adv-x="659" 
d="M267 -9q-67 0 -119.5 35.5t-83.5 98t-31 141.5q0 81 31 143t85 97.5t123 35.5q38 0 69.5 -11t55.5 -30.5t41 -45t25 -54.5l-33 4v126h159v-531h-162v128l36 1q-8 -28 -26 -53t-44 -44t-58 -30t-68 -11zM311 126q37 0 64 17t42 48.5t15 74.5t-15 74.5t-42 49t-64 17.5
q-36 0 -62.5 -17.5t-41.5 -49t-15 -74.5t15 -74.5t41.5 -48.5t62.5 -17zM389 590l-205 110l73 104l179 -142z" />
    <glyph glyph-name="aacute" unicode="&#xe1;" horiz-adv-x="659" 
d="M267 -9q-67 0 -119.5 35.5t-83.5 98t-31 141.5q0 81 31 143t85 97.5t123 35.5q38 0 69.5 -11t55.5 -30.5t41 -45t25 -54.5l-33 4v126h159v-531h-162v128l36 1q-8 -28 -26 -53t-44 -44t-58 -30t-68 -11zM311 126q37 0 64 17t42 48.5t15 74.5t-15 74.5t-42 49t-64 17.5
q-36 0 -62.5 -17.5t-41.5 -49t-15 -74.5t15 -74.5t41.5 -48.5t62.5 -17zM251 589l-47 73l179 142l73 -105z" />
    <glyph glyph-name="acircumflex" unicode="&#xe2;" horiz-adv-x="659" 
d="M267 -9q-67 0 -119.5 35.5t-83.5 98t-31 141.5q0 81 31 143t85 97.5t123 35.5q38 0 69.5 -11t55.5 -30.5t41 -45t25 -54.5l-33 4v126h159v-531h-162v128l36 1q-8 -28 -26 -53t-44 -44t-58 -30t-68 -11zM311 126q37 0 64 17t42 48.5t15 74.5t-15 74.5t-42 49t-64 17.5
q-36 0 -62.5 -17.5t-41.5 -49t-15 -74.5t15 -74.5t41.5 -48.5t62.5 -17zM196 601l-58 50l144 129h96l144 -129l-58 -50l-149 86h30z" />
    <glyph glyph-name="atilde" unicode="&#xe3;" horiz-adv-x="659" 
d="M267 -9q-67 0 -119.5 35.5t-83.5 98t-31 141.5q0 81 31 143t85 97.5t123 35.5q38 0 69.5 -11t55.5 -30.5t41 -45t25 -54.5l-33 4v126h159v-531h-162v128l36 1q-8 -28 -26 -53t-44 -44t-58 -30t-68 -11zM311 126q37 0 64 17t42 48.5t15 74.5t-15 74.5t-42 49t-64 17.5
q-36 0 -62.5 -17.5t-41.5 -49t-15 -74.5t15 -74.5t41.5 -48.5t62.5 -17zM399 614q-17 0 -35 6t-41 22q-17 14 -28 19.5t-18 5.5q-14 0 -25 -11.5t-14 -36.5l-89 13q1 56 32 96t83 40q17 0 34 -6t40 -21q13 -11 24.5 -18.5t22.5 -7.5q14 0 24.5 12.5t12.5 35.5l90 -13
q-1 -35 -15 -66.5t-39.5 -50.5t-58.5 -19z" />
    <glyph glyph-name="adieresis" unicode="&#xe4;" horiz-adv-x="659" 
d="M267 -9q-67 0 -119.5 35.5t-83.5 98t-31 141.5q0 81 31 143t85 97.5t123 35.5q38 0 69.5 -11t55.5 -30.5t41 -45t25 -54.5l-33 4v126h159v-531h-162v128l36 1q-8 -28 -26 -53t-44 -44t-58 -30t-68 -11zM311 126q37 0 64 17t42 48.5t15 74.5t-15 74.5t-42 49t-64 17.5
q-36 0 -62.5 -17.5t-41.5 -49t-15 -74.5t15 -74.5t41.5 -48.5t62.5 -17zM451 632q-42 0 -64.5 22t-22.5 63q0 38 23.5 61.5t63.5 23.5q41 0 63.5 -22t22.5 -63q0 -38 -23 -61.5t-63 -23.5zM210 632q-42 0 -64.5 22t-22.5 63q0 38 23.5 61.5t63.5 23.5q42 0 64.5 -22
t22.5 -63q0 -38 -23.5 -61.5t-63.5 -23.5z" />
    <glyph glyph-name="aring" unicode="&#xe5;" horiz-adv-x="659" 
d="M267 -9q-67 0 -119.5 35.5t-83.5 98t-31 141.5q0 81 31 143t85 97.5t123 35.5q38 0 69.5 -11t55.5 -30.5t41 -45t25 -54.5l-33 4v126h159v-531h-162v128l36 1q-8 -28 -26 -53t-44 -44t-58 -30t-68 -11zM311 126q37 0 64 17t42 48.5t15 74.5t-15 74.5t-42 49t-64 17.5
q-36 0 -62.5 -17.5t-41.5 -49t-15 -74.5t15 -74.5t41.5 -48.5t62.5 -17zM330 604q-31 0 -59 16t-44.5 42.5t-16.5 57.5q0 33 16 59.5t44 42.5t60 16q33 0 60.5 -16t44 -42.5t16.5 -59.5q0 -31 -17 -57.5t-44 -42.5t-60 -16zM330 685q16 0 26.5 10t10.5 25q0 17 -10.5 27
t-26.5 10t-26.5 -10t-10.5 -26t11 -26t26 -10z" />
    <glyph glyph-name="ae" unicode="&#xe6;" horiz-adv-x="900" 
d="M214 -10q-51 0 -92 20t-65 55.5t-24 83.5q0 40 15.5 71t45.5 52t74.5 31t103.5 10h458l-9 -12v21q-2 25 -15 44.5t-34.5 30.5t-48.5 11q-40 0 -67.5 -15.5t-41.5 -45t-14 -72.5t20 -75.5t57 -51t87 -18.5q36 0 64 9.5t60 34.5l68 -107q-31 -27 -66 -43.5t-71 -25
t-72 -8.5q-88 0 -152.5 35t-99.5 96.5t-35 141.5q0 61 19.5 112t54.5 88.5t83 58t104 20.5q73 -1 129.5 -35.5t88 -95t30.5 -137.5l-1 -48h-591q-21 0 -37 -4.5t-27 -13t-16.5 -20t-5.5 -27.5q0 -15 7.5 -27.5t22 -19.5t32.5 -7q26 0 49.5 8.5t42.5 24.5t30 37l53 -81
q-21 -33 -55 -57t-75 -36.5t-84 -12.5zM357 248v84q0 20 -6 34t-18 23t-29 13.5t-38 4.5q-39 0 -67 -14.5t-52 -48.5l-95 94q26 31 61.5 54.5t80.5 36.5t95 13q48 0 86.5 -10.5t65.5 -32.5t42 -54.5t15 -77.5v-116z" />
    <glyph glyph-name="ccedilla" unicode="&#xe7;" horiz-adv-x="545" 
d="M304 -10q-77 0 -138 36t-96.5 98.5t-35.5 141.5t35.5 141.5t96.5 98.5t138 36q71 0 130.5 -25t94.5 -70l-87 -104q-14 16 -33 30t-42 22t-48 8q-38 0 -67 -17.5t-45 -48.5t-16 -71q0 -38 16.5 -69t45.5 -49t66 -18q26 0 48 6.5t40.5 19.5t34.5 32l86 -105
q-34 -43 -94.5 -68t-129.5 -25zM206 -246l-10 75q21 0 43.5 5t38 14.5t15.5 20.5q0 12 -11.5 19t-27.5 10.5t-32 3.5l-17 14l69 108h82l-46 -67q52 -6 77.5 -32.5t25.5 -63.5q0 -31 -19.5 -51.5t-50.5 -33.5t-67 -18t-70 -4z" />
    <glyph glyph-name="egrave" unicode="&#xe8;" horiz-adv-x="586" 
d="M324 -10q-88 0 -153 35.5t-101 97t-36 140.5q0 61 20 112t56 88.5t85.5 58t108.5 20.5q56 0 102.5 -20t80.5 -56t52 -85t16 -107l-1 -43h-423l-23 90h316l-17 -19v20q-2 25 -15.5 44.5t-35.5 30.5t-50 11q-39 0 -66.5 -15.5t-41.5 -45t-14 -72.5q0 -44 18.5 -76.5
t54 -50.5t84.5 -18q34 0 60.5 10t57.5 34l75 -106q-31 -27 -66 -44t-71.5 -25.5t-72.5 -8.5zM363 590l-205 110l73 104l179 -142z" />
    <glyph glyph-name="eacute" unicode="&#xe9;" horiz-adv-x="586" 
d="M324 -10q-88 0 -153 35.5t-101 97t-36 140.5q0 61 20 112t56 88.5t85.5 58t108.5 20.5q56 0 102.5 -20t80.5 -56t52 -85t16 -107l-1 -43h-423l-23 90h316l-17 -19v20q-2 25 -15.5 44.5t-35.5 30.5t-50 11q-39 0 -66.5 -15.5t-41.5 -45t-14 -72.5q0 -44 18.5 -76.5
t54 -50.5t84.5 -18q34 0 60.5 10t57.5 34l75 -106q-31 -27 -66 -44t-71.5 -25.5t-72.5 -8.5zM225 589l-47 73l179 142l73 -105z" />
    <glyph glyph-name="ecircumflex" unicode="&#xea;" horiz-adv-x="586" 
d="M324 -10q-88 0 -153 35.5t-101 97t-36 140.5q0 61 20 112t56 88.5t85.5 58t108.5 20.5q56 0 102.5 -20t80.5 -56t52 -85t16 -107l-1 -43h-423l-23 90h316l-17 -19v20q-2 25 -15.5 44.5t-35.5 30.5t-50 11q-39 0 -66.5 -15.5t-41.5 -45t-14 -72.5q0 -44 18.5 -76.5
t54 -50.5t84.5 -18q34 0 60.5 10t57.5 34l75 -106q-31 -27 -66 -44t-71.5 -25.5t-72.5 -8.5zM170 601l-58 50l144 129h96l144 -129l-58 -50l-149 86h30z" />
    <glyph glyph-name="edieresis" unicode="&#xeb;" horiz-adv-x="586" 
d="M324 -10q-88 0 -153 35.5t-101 97t-36 140.5q0 61 20 112t56 88.5t85.5 58t108.5 20.5q56 0 102.5 -20t80.5 -56t52 -85t16 -107l-1 -43h-423l-23 90h316l-17 -19v20q-2 25 -15.5 44.5t-35.5 30.5t-50 11q-39 0 -66.5 -15.5t-41.5 -45t-14 -72.5q0 -44 18.5 -76.5
t54 -50.5t84.5 -18q34 0 60.5 10t57.5 34l75 -106q-31 -27 -66 -44t-71.5 -25.5t-72.5 -8.5zM424 632q-42 0 -64.5 22t-22.5 63q0 38 23.5 61.5t63.5 23.5q41 0 63.5 -22t22.5 -63q0 -38 -23 -61.5t-63 -23.5zM183 632q-42 0 -64.5 22t-22.5 63q0 38 23.5 61.5t63.5 23.5
q42 0 64.5 -22t22.5 -63q0 -38 -23.5 -61.5t-63.5 -23.5z" />
    <glyph glyph-name="igrave" unicode="&#xec;" horiz-adv-x="289" 
d="M64 0v531h161v-531h-161zM203 590l-205 110l73 104l179 -142z" />
    <glyph glyph-name="iacute" unicode="&#xed;" horiz-adv-x="289" 
d="M64 0v531h161v-531h-161zM65 589l-47 73l179 142l73 -105z" />
    <glyph glyph-name="icircumflex" unicode="&#xee;" horiz-adv-x="289" 
d="M64 0v531h161v-531h-161zM10 601l-58 50l144 129h96l144 -129l-58 -50l-149 86h30z" />
    <glyph glyph-name="idieresis" unicode="&#xef;" horiz-adv-x="289" 
d="M64 0v531h161v-531h-161zM265 632q-42 0 -64.5 22t-22.5 63q0 38 23.5 61.5t63.5 23.5q41 0 63.5 -22t22.5 -63q0 -38 -23 -61.5t-63 -23.5zM24 632q-42 0 -64.5 22t-22.5 63q0 38 23.5 61.5t63.5 23.5q42 0 64.5 -22t22.5 -63q0 -38 -23.5 -61.5t-63.5 -23.5z" />
    <glyph glyph-name="eth" unicode="&#xf0;" horiz-adv-x="597" 
d="M297 -7q-77 0 -136 35t-93 94.5t-34 133.5q0 53 20.5 100t56 83.5t81 57t94.5 20.5q50 0 90 -21t67 -58.5t36 -89.5l-95 31q-2 44 -11 79.5t-25 64t-40.5 51t-59 40t-79.5 31.5l48 101q63 -15 116.5 -43.5t96 -69.5t72 -93.5t45.5 -115.5t16 -136q0 -87 -33.5 -153.5
t-93 -104t-139.5 -37.5zM298 129q33 0 59 17.5t41.5 47.5t15.5 68q0 36 -15.5 65.5t-41.5 47t-59 17.5q-32 0 -58 -17t-41.5 -46.5t-15.5 -66.5q0 -38 15.5 -68t41.5 -47.5t58 -17.5zM150 517l-13 65l160 41l57 27l146 33l18 -66l-113 -26l-43 -24z" />
    <glyph glyph-name="ntilde" unicode="&#xf1;" horiz-adv-x="635" 
d="M71 0v531h152l5 -108l-32 -12q11 36 39.5 65.5t68.5 47.5t84 18q60 0 101 -24.5t62 -73t21 -118.5v-326h-161v313q0 32 -9 53t-27.5 31.5t-45.5 9.5q-21 0 -39 -6.5t-31 -19t-20.5 -28.5t-7.5 -35v-318h-79h-48h-33zM417 614q-17 0 -35 6t-41 22q-17 14 -28 19.5t-18 5.5
q-14 0 -25 -11.5t-14 -36.5l-89 13q1 56 32 96t83 40q17 0 34 -6t40 -21q13 -11 24.5 -18.5t22.5 -7.5q14 0 24.5 12.5t12.5 35.5l90 -13q-1 -35 -15 -66.5t-39.5 -50.5t-58.5 -19z" />
    <glyph glyph-name="ograve" unicode="&#xf2;" horiz-adv-x="641" 
d="M321 -10q-83 0 -147.5 36t-102 98t-37.5 142t37.5 142t102 98t147.5 36t147.5 -36t101.5 -98t37 -142t-37 -142t-101.5 -98t-147.5 -36zM321 128q36 0 64 18t44 49t15 71q1 40 -15 71.5t-44 49.5t-64 18t-64.5 -18t-44.5 -49.5t-15 -71.5q-1 -40 15 -71t44.5 -49
t64.5 -18zM380 590l-205 110l73 104l179 -142z" />
    <glyph glyph-name="oacute" unicode="&#xf3;" horiz-adv-x="641" 
d="M321 -10q-83 0 -147.5 36t-102 98t-37.5 142t37.5 142t102 98t147.5 36t147.5 -36t101.5 -98t37 -142t-37 -142t-101.5 -98t-147.5 -36zM321 128q36 0 64 18t44 49t15 71q1 40 -15 71.5t-44 49.5t-64 18t-64.5 -18t-44.5 -49.5t-15 -71.5q-1 -40 15 -71t44.5 -49
t64.5 -18zM242 589l-47 73l179 142l73 -105z" />
    <glyph glyph-name="ocircumflex" unicode="&#xf4;" horiz-adv-x="641" 
d="M321 -10q-83 0 -147.5 36t-102 98t-37.5 142t37.5 142t102 98t147.5 36t147.5 -36t101.5 -98t37 -142t-37 -142t-101.5 -98t-147.5 -36zM321 128q36 0 64 18t44 49t15 71q1 40 -15 71.5t-44 49.5t-64 18t-64.5 -18t-44.5 -49.5t-15 -71.5q-1 -40 15 -71t44.5 -49
t64.5 -18zM187 601l-58 50l144 129h96l144 -129l-58 -50l-149 86h30z" />
    <glyph glyph-name="otilde" unicode="&#xf5;" horiz-adv-x="641" 
d="M321 -10q-83 0 -147.5 36t-102 98t-37.5 142t37.5 142t102 98t147.5 36t147.5 -36t101.5 -98t37 -142t-37 -142t-101.5 -98t-147.5 -36zM321 128q36 0 64 18t44 49t15 71q1 40 -15 71.5t-44 49.5t-64 18t-64.5 -18t-44.5 -49.5t-15 -71.5q-1 -40 15 -71t44.5 -49
t64.5 -18zM389 614q-17 0 -35 6t-41 22q-17 14 -28 19.5t-18 5.5q-14 0 -25 -11.5t-14 -36.5l-89 13q1 56 32 96t83 40q17 0 34 -6t40 -21q13 -11 24.5 -18.5t22.5 -7.5q14 0 24.5 12.5t12.5 35.5l90 -13q-1 -35 -15 -66.5t-39.5 -50.5t-58.5 -19z" />
    <glyph glyph-name="odieresis" unicode="&#xf6;" horiz-adv-x="641" 
d="M321 -10q-83 0 -147.5 36t-102 98t-37.5 142t37.5 142t102 98t147.5 36t147.5 -36t101.5 -98t37 -142t-37 -142t-101.5 -98t-147.5 -36zM321 128q36 0 64 18t44 49t15 71q1 40 -15 71.5t-44 49.5t-64 18t-64.5 -18t-44.5 -49.5t-15 -71.5q-1 -40 15 -71t44.5 -49
t64.5 -18zM441 632q-42 0 -64.5 22t-22.5 63q0 38 23.5 61.5t63.5 23.5q41 0 63.5 -22t22.5 -63q0 -38 -23 -61.5t-63 -23.5zM200 632q-42 0 -64.5 22t-22.5 63q0 38 23.5 61.5t63.5 23.5q42 0 64.5 -22t22.5 -63q0 -38 -23.5 -61.5t-63.5 -23.5z" />
    <glyph glyph-name="divide" unicode="&#xf7;" horiz-adv-x="597" 
d="M43 199v131h511v-131h-511zM296 -23q-27 0 -47.5 10t-31.5 29.5t-11 45.5q0 24 11.5 43.5t31.5 30.5t47 11q28 0 48.5 -10.5t31.5 -29.5t11 -45q0 -25 -11.5 -44t-31.5 -30t-48 -11zM296 381q-27 0 -47.5 10.5t-31.5 29.5t-11 45q0 24 11.5 43.5t31.5 30.5t47 11
q28 0 48.5 -10t31.5 -29.5t11 -45.5q0 -24 -11.5 -43t-32 -30.5t-47.5 -11.5z" />
    <glyph glyph-name="oslash" unicode="&#xf8;" horiz-adv-x="641" 
d="M120 -35l-66 48l462 547l67 -49zM321 -10q-83 0 -147.5 36t-102 98t-37.5 142t37.5 142t102 98t147.5 36t147.5 -36t101.5 -98t37 -142t-37 -142t-101.5 -98t-147.5 -36zM321 128q36 0 64 18t44 49t15 71q1 40 -15 71.5t-44 49.5t-64 18t-64.5 -18t-44.5 -49.5t-15 -71.5
q-1 -40 15 -71t44.5 -49t64.5 -18z" />
    <glyph glyph-name="ugrave" unicode="&#xf9;" horiz-adv-x="642" 
d="M252 -11q-59 0 -100.5 25.5t-64 73.5t-22.5 115v328h161v-306q0 -32 10 -55t30 -35.5t48 -12.5q21 0 38.5 7t30 19.5t19.5 29t7 36.5v317h161v-531h-151l-7 109l30 12q-12 -38 -40 -67.5t-67 -47t-83 -17.5zM380 590l-205 110l73 104l179 -142z" />
    <glyph glyph-name="uacute" unicode="&#xfa;" horiz-adv-x="642" 
d="M252 -11q-59 0 -100.5 25.5t-64 73.5t-22.5 115v328h161v-306q0 -32 10 -55t30 -35.5t48 -12.5q21 0 38.5 7t30 19.5t19.5 29t7 36.5v317h161v-531h-151l-7 109l30 12q-12 -38 -40 -67.5t-67 -47t-83 -17.5zM242 589l-47 73l179 142l73 -105z" />
    <glyph glyph-name="ucircumflex" unicode="&#xfb;" horiz-adv-x="642" 
d="M252 -11q-59 0 -100.5 25.5t-64 73.5t-22.5 115v328h161v-306q0 -32 10 -55t30 -35.5t48 -12.5q21 0 38.5 7t30 19.5t19.5 29t7 36.5v317h161v-531h-151l-7 109l30 12q-12 -38 -40 -67.5t-67 -47t-83 -17.5zM187 601l-58 50l144 129h96l144 -129l-58 -50l-149 86h30z" />
    <glyph glyph-name="udieresis" unicode="&#xfc;" horiz-adv-x="642" 
d="M252 -11q-59 0 -100.5 25.5t-64 73.5t-22.5 115v328h161v-306q0 -32 10 -55t30 -35.5t48 -12.5q21 0 38.5 7t30 19.5t19.5 29t7 36.5v317h161v-531h-151l-7 109l30 12q-12 -38 -40 -67.5t-67 -47t-83 -17.5zM442 632q-42 0 -64.5 22t-22.5 63q0 38 23.5 61.5t63.5 23.5
q41 0 63.5 -22t22.5 -63q0 -38 -23 -61.5t-63 -23.5zM201 632q-42 0 -64.5 22t-22.5 63q0 38 23.5 61.5t63.5 23.5q42 0 64.5 -22t22.5 -63q0 -38 -23.5 -61.5t-63.5 -23.5z" />
    <glyph glyph-name="yacute" unicode="&#xfd;" horiz-adv-x="620" 
d="M138 -230l121 285l2 -82l-256 558h181l112 -267q9 -20 17 -43t12 -44l-22 -13q6 15 13.5 37.5t16.5 48.5l98 281h182l-226 -531l-92 -230h-159zM232 589l-47 73l179 142l73 -105z" />
    <glyph glyph-name="thorn" unicode="&#xfe;" horiz-adv-x="659" 
d="M71 -220v960h161v-328l-33 9q7 33 34 60t68.5 43.5t87.5 16.5q51 0 94 -20t74.5 -57t49 -87t17.5 -111q0 -80 -30.5 -142t-84 -97.5t-122.5 -35.5q-45 0 -86 17t-69 46t-37 63l37 14v-351h-161zM348 126q36 0 63 17.5t42 48.5t15 74q0 42 -15 73.5t-41.5 49t-63.5 17.5
t-64 -17t-42 -49t-15 -74q0 -43 15 -74t42 -48.5t64 -17.5z" />
    <glyph glyph-name="ydieresis" unicode="&#xff;" horiz-adv-x="620" 
d="M138 -230l121 285l2 -82l-256 558h181l112 -267q9 -20 17 -43t12 -44l-22 -13q6 15 13.5 37.5t16.5 48.5l98 281h182l-226 -531l-92 -230h-159zM431 632q-42 0 -64.5 22t-22.5 63q0 38 23.5 61.5t63.5 23.5q41 0 63.5 -22t22.5 -63q0 -38 -23 -61.5t-63 -23.5zM190 632
q-42 0 -64.5 22t-22.5 63q0 38 23.5 61.5t63.5 23.5q42 0 64.5 -22t22.5 -63q0 -38 -23.5 -61.5t-63.5 -23.5z" />
    <glyph glyph-name="Amacron" unicode="&#x100;" horiz-adv-x="694" 
d="M-1 0l277 700h144l275 -700h-172l-132 355q-8 21 -16 45t-16 49.5t-15.5 50t-12.5 45.5l30 1q-6 -25 -13.5 -49t-15 -47.5t-16.5 -47t-17 -48.5l-132 -354h-168zM131 134l53 128h322l52 -128h-427zM167 789v101h359v-101h-359z" />
    <glyph glyph-name="amacron" unicode="&#x101;" horiz-adv-x="659" 
d="M267 -9q-67 0 -119.5 35.5t-83.5 98t-31 141.5q0 81 31 143t85 97.5t123 35.5q38 0 69.5 -11t55.5 -30.5t41 -45t25 -54.5l-33 4v126h159v-531h-162v128l36 1q-8 -28 -26 -53t-44 -44t-58 -30t-68 -11zM311 126q37 0 64 17t42 48.5t15 74.5t-15 74.5t-42 49t-64 17.5
q-36 0 -62.5 -17.5t-41.5 -49t-15 -74.5t15 -74.5t41.5 -48.5t62.5 -17zM162 640v101h336v-101h-336z" />
    <glyph glyph-name="Abreve" unicode="&#x102;" horiz-adv-x="694" 
d="M-1 0l277 700h144l275 -700h-172l-132 355q-8 21 -16 45t-16 49.5t-15.5 50t-12.5 45.5l30 1q-6 -25 -13.5 -49t-15 -47.5t-16.5 -47t-17 -48.5l-132 -354h-168zM131 134l53 128h322l52 -128h-427zM347 757q-45 0 -82 19t-62.5 53.5t-34.5 79.5l102 12q10 -26 31 -43
t46 -17t46 17t31 43l102 -12q-9 -45 -34.5 -79.5t-62 -53.5t-82.5 -19z" />
    <glyph glyph-name="abreve" unicode="&#x103;" horiz-adv-x="659" 
d="M267 -9q-67 0 -119.5 35.5t-83.5 98t-31 141.5q0 81 31 143t85 97.5t123 35.5q38 0 69.5 -11t55.5 -30.5t41 -45t25 -54.5l-33 4v126h159v-531h-162v128l36 1q-8 -28 -26 -53t-44 -44t-58 -30t-68 -11zM311 126q37 0 64 17t42 48.5t15 74.5t-15 74.5t-42 49t-64 17.5
q-36 0 -62.5 -17.5t-41.5 -49t-15 -74.5t15 -74.5t41.5 -48.5t62.5 -17zM330 601q-69 0 -117 43t-62 117l102 12q11 -31 31.5 -49.5t45.5 -18.5t45.5 18.5t31.5 49.5l102 -12q-14 -74 -62 -117t-117 -43z" />
    <glyph glyph-name="Aogonek" unicode="&#x104;" horiz-adv-x="694" 
d="M-1 0l277 700h144l275 -700h-172l-132 355q-8 21 -16 45t-16 49.5t-15.5 50t-12.5 45.5l30 1q-6 -25 -13.5 -49t-15 -47.5t-16.5 -47t-17 -48.5l-132 -354h-168zM131 134l53 128h322l52 -128h-427zM567 -211q-34 0 -61.5 13.5t-43 38t-15.5 55.5q0 25 11 48.5t33 43.5
t53 35.5t69 26.5l37 -50q-25 -4 -46.5 -16.5t-33.5 -28t-12 -32.5q0 -13 7 -22t20 -9q10 0 17.5 6t15.5 18l69 -51q-14 -33 -45.5 -54.5t-74.5 -21.5z" />
    <glyph glyph-name="aogonek" unicode="&#x105;" horiz-adv-x="659" 
d="M267 -9q-67 0 -119.5 35.5t-83.5 98t-31 141.5q0 81 31 143t85 97.5t123 35.5q38 0 69.5 -11t55.5 -30.5t41 -45t25 -54.5l-33 4v126h159v-531h-162v128l36 1q-8 -28 -26 -53t-44 -44t-58 -30t-68 -11zM311 126q37 0 64 17t42 48.5t15 74.5t-15 74.5t-42 49t-64 17.5
q-36 0 -62.5 -17.5t-41.5 -49t-15 -74.5t15 -74.5t41.5 -48.5t62.5 -17zM465 -211q-34 0 -61.5 15t-43 40t-15.5 56q0 26 10.5 47.5t32 39.5t54 33t75.5 26l40 -46q-28 -6 -51 -18.5t-36.5 -28t-13.5 -33.5q0 -12 7.5 -19.5t19.5 -7.5q10 0 17.5 5.5t15.5 17.5l69 -51
q-9 -18 -27 -35.5t-41 -29t-52 -11.5z" />
    <glyph glyph-name="Cacute" unicode="&#x106;" horiz-adv-x="694" 
d="M406 -10q-79 0 -145.5 26.5t-115.5 75t-75.5 115t-26.5 146.5q0 78 28 144t77.5 114.5t117 75.5t147.5 27q50 0 98 -13t89.5 -38.5t71.5 -60.5l-104 -119q-21 22 -44.5 38.5t-51.5 25.5t-60 9q-40 0 -75.5 -14.5t-62 -41t-41.5 -64.5t-15 -85q0 -46 15 -83.5t42 -64.5
t65.5 -41t85.5 -14q32 0 61 9t53.5 24.5t43.5 35.5l82 -130q-25 -28 -66.5 -50t-92 -34.5t-101.5 -12.5zM322 748l-37 80l209 115l55 -117z" />
    <glyph glyph-name="cacute" unicode="&#x107;" horiz-adv-x="545" 
d="M304 -10q-77 0 -138 36t-96.5 98.5t-35.5 141.5t35.5 141.5t96.5 98.5t138 36q71 0 130.5 -25t94.5 -70l-87 -104q-14 16 -33 30t-42 22t-48 8q-38 0 -67 -17.5t-45 -48.5t-16 -71q0 -38 16.5 -69t45.5 -49t66 -18q26 0 48 6.5t40.5 19.5t34.5 32l86 -105
q-34 -43 -94.5 -68t-129.5 -25zM225 589l-47 73l179 142l73 -105z" />
    <glyph glyph-name="Ccircumflex" unicode="&#x108;" horiz-adv-x="694" 
d="M406 -10q-79 0 -145.5 26.5t-115.5 75t-75.5 115t-26.5 146.5q0 78 28 144t77.5 114.5t117 75.5t147.5 27q50 0 98 -13t89.5 -38.5t71.5 -60.5l-104 -119q-21 22 -44.5 38.5t-51.5 25.5t-60 9q-40 0 -75.5 -14.5t-62 -41t-41.5 -64.5t-15 -85q0 -46 15 -83.5t42 -64.5
t65.5 -41t85.5 -14q32 0 61 9t53.5 24.5t43.5 35.5l82 -130q-25 -28 -66.5 -50t-92 -34.5t-101.5 -12.5zM278 754l-49 57l136 106h90l136 -106l-49 -57l-147 71h30z" />
    <glyph glyph-name="ccircumflex" unicode="&#x109;" horiz-adv-x="545" 
d="M304 -10q-77 0 -138 36t-96.5 98.5t-35.5 141.5t35.5 141.5t96.5 98.5t138 36q71 0 130.5 -25t94.5 -70l-87 -104q-14 16 -33 30t-42 22t-48 8q-38 0 -67 -17.5t-45 -48.5t-16 -71q0 -38 16.5 -69t45.5 -49t66 -18q26 0 48 6.5t40.5 19.5t34.5 32l86 -105
q-34 -43 -94.5 -68t-129.5 -25zM170 601l-58 50l144 129h96l144 -129l-58 -50l-149 86h30z" />
    <glyph glyph-name="Cdotaccent" unicode="&#x10a;" horiz-adv-x="694" 
d="M406 -10q-79 0 -145.5 26.5t-115.5 75t-75.5 115t-26.5 146.5q0 78 28 144t77.5 114.5t117 75.5t147.5 27q50 0 98 -13t89.5 -38.5t71.5 -60.5l-104 -119q-21 22 -44.5 38.5t-51.5 25.5t-60 9q-40 0 -75.5 -14.5t-62 -41t-41.5 -64.5t-15 -85q0 -46 15 -83.5t42 -64.5
t65.5 -41t85.5 -14q32 0 61 9t53.5 24.5t43.5 35.5l82 -130q-25 -28 -66.5 -50t-92 -34.5t-101.5 -12.5zM411 756q-46 0 -70.5 22t-24.5 61q0 35 25 59t70 24q46 0 70.5 -22t24.5 -61q0 -35 -25 -59t-70 -24z" />
    <glyph glyph-name="cdotaccent" unicode="&#x10b;" horiz-adv-x="545" 
d="M304 -10q-77 0 -138 36t-96.5 98.5t-35.5 141.5t35.5 141.5t96.5 98.5t138 36q71 0 130.5 -25t94.5 -70l-87 -104q-14 16 -33 30t-42 22t-48 8q-38 0 -67 -17.5t-45 -48.5t-16 -71q0 -38 16.5 -69t45.5 -49t66 -18q26 0 48 6.5t40.5 19.5t34.5 32l86 -105
q-34 -43 -94.5 -68t-129.5 -25zM304 636q-45 0 -70 21.5t-25 61.5q0 36 25.5 59.5t69.5 23.5q45 0 70 -21.5t25 -61.5q0 -37 -25.5 -60t-69.5 -23z" />
    <glyph glyph-name="Ccaron" unicode="&#x10c;" horiz-adv-x="694" 
d="M406 -10q-79 0 -145.5 26.5t-115.5 75t-75.5 115t-26.5 146.5q0 78 28 144t77.5 114.5t117 75.5t147.5 27q50 0 98 -13t89.5 -38.5t71.5 -60.5l-104 -119q-21 22 -44.5 38.5t-51.5 25.5t-60 9q-40 0 -75.5 -14.5t-62 -41t-41.5 -64.5t-15 -85q0 -46 15 -83.5t42 -64.5
t65.5 -41t85.5 -14q32 0 61 9t53.5 24.5t43.5 35.5l82 -130q-25 -28 -66.5 -50t-92 -34.5t-101.5 -12.5zM363 755l-134 107l50 56l147 -70h-30l147 70l50 -56l-134 -107h-96z" />
    <glyph glyph-name="ccaron" unicode="&#x10d;" horiz-adv-x="545" 
d="M304 -10q-77 0 -138 36t-96.5 98.5t-35.5 141.5t35.5 141.5t96.5 98.5t138 36q71 0 130.5 -25t94.5 -70l-87 -104q-14 16 -33 30t-42 22t-48 8q-38 0 -67 -17.5t-45 -48.5t-16 -71q0 -38 16.5 -69t45.5 -49t66 -18q26 0 48 6.5t40.5 19.5t34.5 32l86 -105
q-34 -43 -94.5 -68t-129.5 -25zM256 607l-140 129l58 50l145 -86h-30l145 86l58 -50l-140 -129h-96z" />
    <glyph glyph-name="Dcaron" unicode="&#x10e;" horiz-adv-x="772" 
d="M88 0v700h293q77 0 141 -25.5t110.5 -72.5t71.5 -111t25 -141t-25 -141.5t-71.5 -111t-110.5 -72t-141 -25.5h-293zM258 116l-23 34h141q42 0 75 14.5t56.5 40.5t36.5 63t13 82t-13 82t-36.5 63t-56.5 40.5t-75 14.5h-144l26 32v-466zM338 755l-134 107l50 56l147 -70
h-30l147 70l50 -56l-134 -107h-96z" />
    <glyph glyph-name="dcaron" unicode="&#x10f;" horiz-adv-x="754" 
d="M272 -11q-69 0 -122.5 35.5t-84.5 98t-31 142.5t31 142.5t85 98.5t124 36q36 0 69 -11t60 -30t44 -43.5t20 -50.5l-38 -9v342h161v-740h-149l-9 121l32 -5q-3 -25 -19.5 -48t-42.5 -40.5t-59.5 -28t-70.5 -10.5zM313 122q37 0 64 18t41.5 50t14.5 75q0 44 -14.5 76
t-41.5 50t-64 18t-63.5 -18t-41.5 -50t-15 -76q0 -43 15 -75t41.5 -50t63.5 -18zM686 486l-40 55q14 5 30.5 13.5t29 20.5t12.5 24q0 8 -5.5 12.5t-18.5 10.5q-21 8 -30 20.5t-9 32.5q0 32 23 48.5t58 16.5q42 0 71 -24.5t29 -72.5q0 -29 -10.5 -53.5t-30 -44t-47.5 -34
t-62 -25.5z" />
    <glyph glyph-name="Dcroat" unicode="&#x110;" horiz-adv-x="772" 
d="M35 291v118h326v-118h-326zM88 0v700h293q77 0 141 -25.5t110.5 -72.5t71.5 -111t25 -141t-25 -141.5t-71.5 -111t-110.5 -72t-141 -25.5h-293zM258 116l-23 34h141q42 0 75 14.5t56.5 40.5t36.5 63t13 82t-13 82t-36.5 63t-56.5 40.5t-75 14.5h-144l26 32v-466z" />
    <glyph glyph-name="dcroat" unicode="&#x111;" horiz-adv-x="654" 
d="M317 575v118h326v-118h-326zM272 -11q-69 0 -122.5 35.5t-84.5 98t-31 142.5t31 142.5t85 98.5t124 36q36 0 69 -11t60 -30t44 -43.5t20 -50.5l-38 -9v342h161v-740h-149l-9 121l32 -5q-3 -25 -19.5 -48t-42.5 -40.5t-59.5 -28t-70.5 -10.5zM313 122q37 0 64 18t41.5 50
t14.5 75q0 44 -14.5 76t-41.5 50t-64 18t-63.5 -18t-41.5 -50t-15 -76q0 -43 15 -75t41.5 -50t63.5 -18z" />
    <glyph glyph-name="Emacron" unicode="&#x112;" horiz-adv-x="645" 
d="M88 0v700h488v-145h-323v-410h333v-145h-498zM168 287v138h363v-138h-363zM163 789v101h359v-101h-359z" />
    <glyph glyph-name="emacron" unicode="&#x113;" horiz-adv-x="586" 
d="M324 -10q-88 0 -153 35.5t-101 97t-36 140.5q0 61 20 112t56 88.5t85.5 58t108.5 20.5q56 0 102.5 -20t80.5 -56t52 -85t16 -107l-1 -43h-423l-23 90h316l-17 -19v20q-2 25 -15.5 44.5t-35.5 30.5t-50 11q-39 0 -66.5 -15.5t-41.5 -45t-14 -72.5q0 -44 18.5 -76.5
t54 -50.5t84.5 -18q34 0 60.5 10t57.5 34l75 -106q-31 -27 -66 -44t-71.5 -25.5t-72.5 -8.5zM136 640v101h336v-101h-336z" />
    <glyph glyph-name="Ebreve" unicode="&#x114;" horiz-adv-x="645" 
d="M88 0v700h488v-145h-323v-410h333v-145h-498zM168 287v138h363v-138h-363zM343 757q-45 0 -82 19t-62.5 53.5t-34.5 79.5l102 12q10 -26 31 -43t46 -17t46 17t31 43l102 -12q-9 -45 -34.5 -79.5t-62 -53.5t-82.5 -19z" />
    <glyph glyph-name="ebreve" unicode="&#x115;" horiz-adv-x="586" 
d="M324 -10q-88 0 -153 35.5t-101 97t-36 140.5q0 61 20 112t56 88.5t85.5 58t108.5 20.5q56 0 102.5 -20t80.5 -56t52 -85t16 -107l-1 -43h-423l-23 90h316l-17 -19v20q-2 25 -15.5 44.5t-35.5 30.5t-50 11q-39 0 -66.5 -15.5t-41.5 -45t-14 -72.5q0 -44 18.5 -76.5
t54 -50.5t84.5 -18q34 0 60.5 10t57.5 34l75 -106q-31 -27 -66 -44t-71.5 -25.5t-72.5 -8.5zM304 601q-69 0 -117 43t-62 117l102 12q11 -31 31.5 -49.5t45.5 -18.5t45.5 18.5t31.5 49.5l102 -12q-14 -74 -62 -117t-117 -43z" />
    <glyph glyph-name="Edotaccent" unicode="&#x116;" horiz-adv-x="645" 
d="M88 0v700h488v-145h-323v-410h333v-145h-498zM168 287v138h363v-138h-363zM343 756q-46 0 -70.5 22t-24.5 61q0 35 25 59t70 24q46 0 70.5 -22t24.5 -61q0 -35 -25 -59t-70 -24z" />
    <glyph glyph-name="edotaccent" unicode="&#x117;" horiz-adv-x="586" 
d="M324 -10q-88 0 -153 35.5t-101 97t-36 140.5q0 61 20 112t56 88.5t85.5 58t108.5 20.5q56 0 102.5 -20t80.5 -56t52 -85t16 -107l-1 -43h-423l-23 90h316l-17 -19v20q-2 25 -15.5 44.5t-35.5 30.5t-50 11q-39 0 -66.5 -15.5t-41.5 -45t-14 -72.5q0 -44 18.5 -76.5
t54 -50.5t84.5 -18q34 0 60.5 10t57.5 34l75 -106q-31 -27 -66 -44t-71.5 -25.5t-72.5 -8.5zM304 636q-45 0 -70 21.5t-25 61.5q0 36 25.5 59.5t69.5 23.5q45 0 70 -21.5t25 -61.5q0 -37 -25.5 -60t-69.5 -23z" />
    <glyph glyph-name="Eogonek" unicode="&#x118;" horiz-adv-x="645" 
d="M88 0v700h488v-145h-323v-410h333v-145h-498zM168 287v138h363v-138h-363zM462 -211q-34 0 -61.5 13.5t-43 38t-15.5 55.5q0 25 11 48.5t33 43.5t53 35.5t69 26.5l37 -50q-25 -4 -46.5 -16.5t-33.5 -28t-12 -32.5q0 -13 7 -22t20 -9q10 0 17.5 6t15.5 18l69 -51
q-14 -33 -45.5 -54.5t-74.5 -21.5z" />
    <glyph glyph-name="eogonek" unicode="&#x119;" horiz-adv-x="586" 
d="M383 -205q-54 0 -84.5 31.5t-30.5 74.5q0 42 26 74t71.5 60t105.5 55l27 -48q-58 -32 -88.5 -57.5t-30.5 -53.5q0 -15 8 -24t20 -9q11 0 19 6t17 18l69 -51q-10 -18 -28 -35.5t-43.5 -29t-57.5 -11.5zM324 -10q-88 0 -153 35.5t-101 97t-36 140.5q0 61 20 112t56 88.5
t85.5 58t108.5 20.5q56 0 102.5 -20t80.5 -56t52 -85t16 -107l-1 -43h-423l-23 90h316l-17 -19v20q-2 25 -15.5 44.5t-35.5 30.5t-50 11q-39 0 -66.5 -15.5t-41.5 -45t-14 -72.5q0 -44 18.5 -76.5t54 -50.5t84.5 -18q34 0 60.5 10t57.5 34l75 -106q-31 -27 -66 -44
t-71.5 -25.5t-72.5 -8.5z" />
    <glyph glyph-name="Ecaron" unicode="&#x11a;" horiz-adv-x="645" 
d="M88 0v700h488v-145h-323v-410h333v-145h-498zM168 287v138h363v-138h-363zM295 755l-134 107l50 56l147 -70h-30l147 70l50 -56l-134 -107h-96z" />
    <glyph glyph-name="ecaron" unicode="&#x11b;" horiz-adv-x="586" 
d="M324 -10q-88 0 -153 35.5t-101 97t-36 140.5q0 61 20 112t56 88.5t85.5 58t108.5 20.5q56 0 102.5 -20t80.5 -56t52 -85t16 -107l-1 -43h-423l-23 90h316l-17 -19v20q-2 25 -15.5 44.5t-35.5 30.5t-50 11q-39 0 -66.5 -15.5t-41.5 -45t-14 -72.5q0 -44 18.5 -76.5
t54 -50.5t84.5 -18q34 0 60.5 10t57.5 34l75 -106q-31 -27 -66 -44t-71.5 -25.5t-72.5 -8.5zM256 607l-140 129l58 50l145 -86h-30l145 86l58 -50l-140 -129h-96z" />
    <glyph glyph-name="Gcircumflex" unicode="&#x11c;" horiz-adv-x="782" 
d="M413 -10q-84 0 -152 27t-117 76t-75 115.5t-26 144.5t27.5 143.5t78.5 114.5t120.5 76t151.5 27q58 0 109.5 -15t93.5 -41t71 -60l-103 -109q-25 24 -51.5 40t-56.5 25.5t-64 9.5q-44 0 -80.5 -16t-64 -44.5t-42.5 -67t-15 -83.5t16 -84t44 -67.5t66.5 -45t82.5 -16.5
q31 0 58.5 10t47.5 27t32 40.5t12 50.5v26l22 -34h-193v133h329q2 -11 3 -30t1.5 -37t0.5 -27q0 -68 -24.5 -124.5t-68.5 -97.5t-104 -64t-130 -23zM279 754l-49 57l136 106h90l136 -106l-49 -57l-147 71h30z" />
    <glyph glyph-name="gcircumflex" unicode="&#x11d;" horiz-adv-x="669" 
d="M314 -230q-65 0 -129.5 19t-104.5 49l56 112q21 -14 46.5 -24.5t53.5 -16.5t57 -6q51 0 83 15t48 45.5t16 76.5v89l31 -5q-7 -33 -34.5 -60t-67.5 -43.5t-85 -16.5q-72 0 -128.5 33.5t-89 93t-32.5 137.5q0 80 32 141.5t88 97t126 35.5q30 0 57.5 -7t51 -18.5t42 -27
t30 -33.5t15.5 -37l-33 -8l6 120h152v-488q0 -65 -19.5 -115.5t-57 -86t-90.5 -53.5t-120 -18zM318 128q39 0 67.5 17.5t44 48.5t15.5 73t-15.5 73.5t-44 49t-67.5 17.5q-38 0 -66 -17.5t-43.5 -49t-15.5 -73.5t15.5 -73t43.5 -48.5t66 -17.5zM201 601l-58 50l144 129h96
l144 -129l-58 -50l-149 86h30z" />
    <glyph glyph-name="Gbreve" unicode="&#x11e;" horiz-adv-x="782" 
d="M413 -10q-84 0 -152 27t-117 76t-75 115.5t-26 144.5t27.5 143.5t78.5 114.5t120.5 76t151.5 27q58 0 109.5 -15t93.5 -41t71 -60l-103 -109q-25 24 -51.5 40t-56.5 25.5t-64 9.5q-44 0 -80.5 -16t-64 -44.5t-42.5 -67t-15 -83.5t16 -84t44 -67.5t66.5 -45t82.5 -16.5
q31 0 58.5 10t47.5 27t32 40.5t12 50.5v26l22 -34h-193v133h329q2 -11 3 -30t1.5 -37t0.5 -27q0 -68 -24.5 -124.5t-68.5 -97.5t-104 -64t-130 -23zM412 757q-45 0 -82 19t-62.5 53.5t-34.5 79.5l102 12q10 -26 31 -43t46 -17t46 17t31 43l102 -12q-9 -45 -34.5 -79.5
t-62 -53.5t-82.5 -19z" />
    <glyph glyph-name="gbreve" unicode="&#x11f;" horiz-adv-x="669" 
d="M314 -230q-65 0 -129.5 19t-104.5 49l56 112q21 -14 46.5 -24.5t53.5 -16.5t57 -6q51 0 83 15t48 45.5t16 76.5v89l31 -5q-7 -33 -34.5 -60t-67.5 -43.5t-85 -16.5q-72 0 -128.5 33.5t-89 93t-32.5 137.5q0 80 32 141.5t88 97t126 35.5q30 0 57.5 -7t51 -18.5t42 -27
t30 -33.5t15.5 -37l-33 -8l6 120h152v-488q0 -65 -19.5 -115.5t-57 -86t-90.5 -53.5t-120 -18zM318 128q39 0 67.5 17.5t44 48.5t15.5 73t-15.5 73.5t-44 49t-67.5 17.5q-38 0 -66 -17.5t-43.5 -49t-15.5 -73.5t15.5 -73t43.5 -48.5t66 -17.5zM335 601q-69 0 -117 43
t-62 117l102 12q11 -31 31.5 -49.5t45.5 -18.5t45.5 18.5t31.5 49.5l102 -12q-14 -74 -62 -117t-117 -43z" />
    <glyph glyph-name="Gdotaccent" unicode="&#x120;" horiz-adv-x="782" 
d="M413 -10q-84 0 -152 27t-117 76t-75 115.5t-26 144.5t27.5 143.5t78.5 114.5t120.5 76t151.5 27q58 0 109.5 -15t93.5 -41t71 -60l-103 -109q-25 24 -51.5 40t-56.5 25.5t-64 9.5q-44 0 -80.5 -16t-64 -44.5t-42.5 -67t-15 -83.5t16 -84t44 -67.5t66.5 -45t82.5 -16.5
q31 0 58.5 10t47.5 27t32 40.5t12 50.5v26l22 -34h-193v133h329q2 -11 3 -30t1.5 -37t0.5 -27q0 -68 -24.5 -124.5t-68.5 -97.5t-104 -64t-130 -23zM412 756q-46 0 -70.5 22t-24.5 61q0 35 25 59t70 24q46 0 70.5 -22t24.5 -61q0 -35 -25 -59t-70 -24z" />
    <glyph glyph-name="gdotaccent" unicode="&#x121;" horiz-adv-x="669" 
d="M314 -230q-65 0 -129.5 19t-104.5 49l56 112q21 -14 46.5 -24.5t53.5 -16.5t57 -6q51 0 83 15t48 45.5t16 76.5v89l31 -5q-7 -33 -34.5 -60t-67.5 -43.5t-85 -16.5q-72 0 -128.5 33.5t-89 93t-32.5 137.5q0 80 32 141.5t88 97t126 35.5q30 0 57.5 -7t51 -18.5t42 -27
t30 -33.5t15.5 -37l-33 -8l6 120h152v-488q0 -65 -19.5 -115.5t-57 -86t-90.5 -53.5t-120 -18zM318 128q39 0 67.5 17.5t44 48.5t15.5 73t-15.5 73.5t-44 49t-67.5 17.5q-38 0 -66 -17.5t-43.5 -49t-15.5 -73.5t15.5 -73t43.5 -48.5t66 -17.5zM335 636q-45 0 -70 21.5
t-25 61.5q0 36 25.5 59.5t69.5 23.5q45 0 70 -21.5t25 -61.5q0 -37 -25.5 -60t-69.5 -23z" />
    <glyph glyph-name="uni0122" unicode="&#x122;" horiz-adv-x="782" 
d="M413 -10q-84 0 -152 27t-117 76t-75 115.5t-26 144.5t27.5 143.5t78.5 114.5t120.5 76t151.5 27q58 0 109.5 -15t93.5 -41t71 -60l-103 -109q-25 24 -51.5 40t-56.5 25.5t-64 9.5q-44 0 -80.5 -16t-64 -44.5t-42.5 -67t-15 -83.5t16 -84t44 -67.5t66.5 -45t82.5 -16.5
q31 0 58.5 10t47.5 27t32 40.5t12 50.5v26l22 -34h-193v133h329q2 -11 3 -30t1.5 -37t0.5 -27q0 -68 -24.5 -124.5t-68.5 -97.5t-104 -64t-130 -23zM336 -294l-40 55q14 5 30.5 13.5t29 20.5t12.5 24q0 8 -5.5 12.5t-18.5 10.5q-21 8 -30 20.5t-9 32.5q0 32 23 48.5t58 16.5
q42 0 71 -24.5t29 -72.5q0 -29 -10.5 -53.5t-30 -44t-47.5 -34t-62 -25.5z" />
    <glyph glyph-name="uni0123" unicode="&#x123;" horiz-adv-x="669" 
d="M314 -230q-65 0 -129.5 19t-104.5 49l56 112q21 -14 46.5 -24.5t53.5 -16.5t57 -6q51 0 83 15t48 45.5t16 76.5v89l31 -5q-7 -33 -34.5 -60t-67.5 -43.5t-85 -16.5q-72 0 -128.5 33.5t-89 93t-32.5 137.5q0 80 32 141.5t88 97t126 35.5q30 0 57.5 -7t51 -18.5t42 -27
t30 -33.5t15.5 -37l-33 -8l6 120h152v-488q0 -65 -19.5 -115.5t-57 -86t-90.5 -53.5t-120 -18zM318 128q39 0 67.5 17.5t44 48.5t15.5 73t-15.5 73.5t-44 49t-67.5 17.5q-38 0 -66 -17.5t-43.5 -49t-15.5 -73.5t15.5 -73t43.5 -48.5t66 -17.5zM337 596q-38 0 -67.5 24
t-29.5 76q0 29 12.5 52.5t34 42.5t48.5 33.5t55 25.5l40 -55q-13 -4 -30 -12.5t-29.5 -20t-12.5 -25.5q0 -10 7 -14t18 -9q17 -8 27.5 -19t10.5 -34q0 -33 -24.5 -49t-59.5 -16z" />
    <glyph glyph-name="Hcircumflex" unicode="&#x124;" horiz-adv-x="779" 
d="M522 0v700h170v-700h-170zM88 0v700h170v-700h-170zM154 273l1 152h457v-152h-458zM258 754l-49 57l136 106h90l136 -106l-49 -57l-147 71h30z" />
    <glyph glyph-name="hcircumflex" unicode="&#x125;" horiz-adv-x="635" 
d="M71 0v740h157v-317l-32 -12q11 36 39.5 65.5t68.5 47.5t84 18q60 0 101 -24.5t62 -73t21 -118.5v-326h-161v313q0 32 -9 53t-27.5 31.5t-45.5 9.5q-21 0 -39 -6.5t-31 -19t-20.5 -28.5t-7.5 -35v-318h-79h-48h-33zM186 794l-49 57l136 106h90l136 -106l-49 -57l-147 71
h30z" />
    <glyph glyph-name="Hbar" unicode="&#x126;" horiz-adv-x="820" 
d="M34 479v139h91l77 -10h394l84 10h109v-139h-106l-75 10h-416l-71 -10h-87zM543 0v700h170v-700h-170zM109 0v700h170v-700h-170zM176 273v152h458v-152h-458z" />
    <glyph glyph-name="hbar" unicode="&#x127;" horiz-adv-x="635" 
d="M13 578v119h326v-119h-326zM71 0v740h157v-317l-32 -12q11 36 39.5 65.5t68.5 47.5t84 18q60 0 101 -24.5t62 -73t21 -118.5v-326h-161v313q0 32 -9 53t-27.5 31.5t-45.5 9.5q-21 0 -39 -6.5t-31 -19t-20.5 -28.5t-7.5 -35v-318h-79h-48h-33z" />
    <glyph glyph-name="Itilde" unicode="&#x128;" horiz-adv-x="555" 
d="M74 0v143h118v414h-118v143h407v-143h-119v-414h119v-143h-407zM354 768q-20 0 -40 6t-44 16q-18 9 -30.5 13t-22.5 4q-14 0 -22.5 -10t-8.5 -28h-100q0 66 36.5 103.5t91.5 37.5q18 0 35.5 -5t44.5 -17q16 -8 27 -12t20 -4q13 0 20.5 10.5t6.5 27.5h99q0 -38 -14.5 -71
t-39.5 -52t-59 -19z" />
    <glyph glyph-name="itilde" unicode="&#x129;" horiz-adv-x="289" 
d="M64 0v531h161v-531h-161zM213 614q-17 0 -35 6t-41 22q-17 14 -28 19.5t-18 5.5q-14 0 -25 -11.5t-14 -36.5l-89 13q1 56 32 96t83 40q17 0 34 -6t40 -21q13 -11 24.5 -18.5t22.5 -7.5q14 0 24.5 12.5t12.5 35.5l90 -13q-1 -35 -15 -66.5t-39.5 -50.5t-58.5 -19z" />
    <glyph glyph-name="Imacron" unicode="&#x12a;" horiz-adv-x="555" 
d="M74 0v143h118v414h-118v143h407v-143h-119v-414h119v-143h-407zM97 789v101h359v-101h-359z" />
    <glyph glyph-name="imacron" unicode="&#x12b;" horiz-adv-x="289" 
d="M64 0v531h161v-531h-161zM-24 640v101h336v-101h-336z" />
    <glyph glyph-name="Ibreve" unicode="&#x12c;" horiz-adv-x="555" 
d="M74 0v143h118v414h-118v143h407v-143h-119v-414h119v-143h-407zM277 757q-45 0 -82 19t-62.5 53.5t-34.5 79.5l102 12q10 -26 31 -43t46 -17t46 17t31 43l102 -12q-9 -45 -34.5 -79.5t-62 -53.5t-82.5 -19z" />
    <glyph glyph-name="ibreve" unicode="&#x12d;" horiz-adv-x="289" 
d="M64 0v531h161v-531h-161zM144 601q-69 0 -117 43t-62 117l102 12q11 -31 31.5 -49.5t45.5 -18.5t45.5 18.5t31.5 49.5l102 -12q-14 -74 -62 -117t-117 -43z" />
    <glyph glyph-name="Iogonek" unicode="&#x12e;" horiz-adv-x="555" 
d="M74 0v143h118v414h-118v143h407v-143h-119v-414h119v-143h-407zM314 -211q-34 0 -61.5 13.5t-43 38t-15.5 55.5q0 25 11 48.5t33 43.5t53 35.5t69 26.5l37 -50q-25 -4 -46.5 -16.5t-33.5 -28t-12 -32.5q0 -13 7 -22t20 -9q10 0 17.5 6t15.5 18l69 -51
q-14 -33 -45.5 -54.5t-74.5 -21.5z" />
    <glyph glyph-name="iogonek" unicode="&#x12f;" horiz-adv-x="289" 
d="M64 0v531h161v-531h-161zM144 636q-45 0 -70 21.5t-25 61.5q0 36 25.5 59.5t69.5 23.5q45 0 70 -21.5t25 -61.5q0 -37 -25.5 -60t-69.5 -23zM122 -211q-34 0 -61.5 15t-43 40t-15.5 56q0 26 10.5 47.5t32 39.5t54 33t75.5 26l40 -46q-28 -6 -51 -18.5t-36.5 -28
t-13.5 -33.5q0 -12 7.5 -19.5t19.5 -7.5q10 0 17.5 5.5t15.5 17.5l69 -51q-9 -18 -27 -35.5t-41 -29t-52 -11.5z" />
    <glyph glyph-name="Idotaccent" unicode="&#x130;" horiz-adv-x="555" 
d="M74 0v143h118v414h-118v143h407v-143h-119v-414h119v-143h-407zM277 756q-46 0 -70.5 22t-24.5 61q0 35 25 59t70 24q46 0 70.5 -22t24.5 -61q0 -35 -25 -59t-70 -24z" />
    <glyph glyph-name="dotlessi" unicode="&#x131;" horiz-adv-x="289" 
d="M64 0v531h161v-531h-161z" />
    <glyph glyph-name="IJ" unicode="&#x132;" horiz-adv-x="1220" 
d="M74 0v143h118v414h-118v143h407v-143h-119v-414h119v-143h-407zM816 -10q-38 0 -72 8.5t-62 25t-50 40t-38 52.5l97 101q14 -21 27 -34.5t25.5 -22.5t26 -13t28.5 -4q24 0 42.5 11.5t28.5 31.5t10 47v319h-128v148h402v-148h-108v-339q0 -51 -17.5 -92t-48.5 -70.5
t-72.5 -45t-90.5 -15.5z" />
    <glyph glyph-name="ij" unicode="&#x133;" horiz-adv-x="635" 
d="M80 0v531h160v-531h-160zM160 636q-45 0 -70.5 21.5t-25.5 61.5q0 36 26 59t70 23q45 0 70 -21.5t25 -60.5q0 -37 -25.5 -60t-69.5 -23zM342 -210l-61 124q46 0 72 12t37 39.5t11 75.5v490h160v-528q0 -73 -25 -120t-74 -70t-120 -23zM484 636q-45 0 -70.5 21.5
t-25.5 61.5q0 36 26 59t70 23q45 0 70 -21.5t25 -60.5q0 -37 -25.5 -60t-69.5 -23z" />
    <glyph glyph-name="Jcircumflex" unicode="&#x134;" horiz-adv-x="665" 
d="M261 -10q-38 0 -72 8.5t-62 25t-50 40t-38 52.5l97 101q14 -21 27 -34.5t25.5 -22.5t26 -13t28.5 -4q24 0 42.5 11.5t28.5 31.5t10 47v319h-128v148h402v-148h-108v-339q0 -51 -17.5 -92t-48.5 -70.5t-72.5 -45t-90.5 -15.5zM273 754l-49 57l136 106h90l136 -106l-49 -57
l-147 71h30z" />
    <glyph glyph-name="jcircumflex" unicode="&#x135;" horiz-adv-x="315" 
d="M22 -210l-60 124q45 0 71.5 12t37.5 39.5t11 75.5v490h160v-528q0 -73 -25.5 -120t-74.5 -70t-120 -23zM30 601l-58 50l144 129h96l144 -129l-58 -50l-149 86h30z" />
    <glyph glyph-name="uni0136" unicode="&#x136;" horiz-adv-x="739" 
d="M212 205l-44 143l347 352h201zM88 0v700h170v-700h-170zM537 0l-260 342l115 99l343 -441h-198zM314 -294l-40 55q14 5 30.5 13.5t29 20.5t12.5 24q0 8 -5.5 12.5t-18.5 10.5q-21 8 -30 20.5t-9 32.5q0 32 23 48.5t58 16.5q42 0 71 -24.5t29 -72.5q0 -29 -10.5 -53.5
t-30 -44t-47.5 -34t-62 -25.5z" />
    <glyph glyph-name="uni0137" unicode="&#x137;" horiz-adv-x="626" 
d="M225 156l-59 120l248 255h211zM71 0v740h160v-740h-160zM431 0l-187 242l113 88l263 -330h-189zM258 -293l-40 55q14 4 30.5 13t29 20t12.5 24q0 9 -5.5 13.5t-18.5 9.5q-21 8 -30 20.5t-9 33.5q0 32 24 48.5t60 16.5q41 0 69 -25.5t28 -74.5q0 -26 -10.5 -48.5t-30 -42
t-47.5 -35.5t-62 -28z" />
    <glyph glyph-name="kgreenlandic" unicode="&#x138;" horiz-adv-x="629" 
d="M223 134l-60 116l249 281h203zM71 0v531h158v-531h-158zM423 0l-178 260l111 79l253 -339h-186z" />
    <glyph glyph-name="Lacute" unicode="&#x139;" horiz-adv-x="609" 
d="M88 0v700h170v-550h312v-150h-482zM86 748l-37 80l209 115l55 -117z" />
    <glyph glyph-name="lacute" unicode="&#x13a;" horiz-adv-x="304" 
d="M72 0v740h160v-740h-160zM64 788l-37 80l209 115l55 -117z" />
    <glyph glyph-name="uni013B" unicode="&#x13b;" horiz-adv-x="609" 
d="M88 0v700h170v-550h312v-150h-482zM250 -294l-40 55q14 5 30.5 13.5t29 20.5t12.5 24q0 8 -5.5 12.5t-18.5 10.5q-21 8 -30 20.5t-9 32.5q0 32 23 48.5t58 16.5q42 0 71 -24.5t29 -72.5q0 -29 -10.5 -53.5t-30 -44t-47.5 -34t-62 -25.5z" />
    <glyph glyph-name="uni013C" unicode="&#x13c;" horiz-adv-x="304" 
d="M72 0v740h160v-740h-160zM97 -293l-40 55q14 4 30.5 13t29 20t12.5 24q0 9 -5.5 13.5t-18.5 9.5q-21 8 -30 20.5t-9 33.5q0 32 24 48.5t60 16.5q41 0 69 -25.5t28 -74.5q0 -26 -10.5 -48.5t-30 -42t-47.5 -35.5t-62 -28z" />
    <glyph glyph-name="Lcaron" unicode="&#x13d;" horiz-adv-x="609" 
d="M88 0v700h170v-550h312v-150h-482zM397 446l-40 55q14 5 30.5 13.5t29 20.5t12.5 24q0 8 -5.5 12.5t-18.5 10.5q-21 8 -30 20.5t-9 32.5q0 32 23 48.5t58 16.5q42 0 71 -24.5t29 -72.5q0 -29 -10.5 -53.5t-30 -44t-47.5 -34t-62 -25.5z" />
    <glyph glyph-name="lcaron" unicode="&#x13e;" horiz-adv-x="404" 
d="M72 0v740h160v-740h-160zM336 486l-40 55q14 5 30.5 13.5t29 20.5t12.5 24q0 8 -5.5 12.5t-18.5 10.5q-21 8 -30 20.5t-9 32.5q0 32 23 48.5t58 16.5q42 0 71 -24.5t29 -72.5q0 -29 -10.5 -53.5t-30 -44t-47.5 -34t-62 -25.5z" />
    <glyph glyph-name="Ldot" unicode="&#x13f;" horiz-adv-x="609" 
d="M88 0v700h170v-550h312v-150h-482zM478 299q-41 0 -63.5 23t-22.5 66q0 40 24 65t62 25q41 0 64 -23.5t23 -66.5q0 -39 -24 -64t-63 -25z" />
    <glyph glyph-name="ldot" unicode="&#x140;" horiz-adv-x="448" 
d="M72 0v740h160v-740h-160zM378 299q-41 0 -63.5 23t-22.5 66q0 40 24 65t62 25q41 0 64 -23.5t23 -66.5q0 -39 -24 -64t-63 -25z" />
    <glyph glyph-name="Lslash" unicode="&#x141;" horiz-adv-x="625" 
d="M40 238l-48 124l357 157l50 -126zM104 0v700h170v-550h312v-150h-482z" />
    <glyph glyph-name="lslash" unicode="&#x142;" horiz-adv-x="377" 
d="M49 253l-50 126l328 144l51 -125zM108 0v740h160v-740h-160z" />
    <glyph glyph-name="Nacute" unicode="&#x143;" horiz-adv-x="807" 
d="M88 0v700h152l367 -500l-33 5q-5 33 -8 63t-5.5 59t-4 59t-2 65t-0.5 76v173h165v-700h-154l-383 516l51 -7q5 -48 8.5 -81.5t6 -59.5t3.5 -47t1.5 -41.5t0.5 -45.5v-234h-165zM315 748l-37 80l209 115l55 -117z" />
    <glyph glyph-name="nacute" unicode="&#x144;" horiz-adv-x="635" 
d="M71 0v531h152l5 -108l-32 -12q11 36 39.5 65.5t68.5 47.5t84 18q60 0 101 -24.5t62 -73t21 -118.5v-326h-161v313q0 32 -9 53t-27.5 31.5t-45.5 9.5q-21 0 -39 -6.5t-31 -19t-20.5 -28.5t-7.5 -35v-318h-79h-48h-33zM269 589l-47 73l179 142l73 -105z" />
    <glyph glyph-name="uni0145" unicode="&#x145;" horiz-adv-x="807" 
d="M88 0v700h152l367 -500l-33 5q-5 33 -8 63t-5.5 59t-4 59t-2 65t-0.5 76v173h165v-700h-154l-383 516l51 -7q5 -48 8.5 -81.5t6 -59.5t3.5 -47t1.5 -41.5t0.5 -45.5v-234h-165zM349 -294l-40 55q14 5 30.5 13.5t29 20.5t12.5 24q0 8 -5.5 12.5t-18.5 10.5q-21 8 -30 20.5
t-9 32.5q0 32 23 48.5t58 16.5q42 0 71 -24.5t29 -72.5q0 -29 -10.5 -53.5t-30 -44t-47.5 -34t-62 -25.5z" />
    <glyph glyph-name="uni0146" unicode="&#x146;" horiz-adv-x="635" 
d="M71 0v531h152l5 -108l-32 -12q11 36 39.5 65.5t68.5 47.5t84 18q60 0 101 -24.5t62 -73t21 -118.5v-326h-161v313q0 32 -9 53t-27.5 31.5t-45.5 9.5q-21 0 -39 -6.5t-31 -19t-20.5 -28.5t-7.5 -35v-318h-79h-48h-33zM263 -293l-40 55q14 4 30.5 13t29 20t12.5 24
q0 9 -5.5 13.5t-18.5 9.5q-21 8 -30 20.5t-9 33.5q0 32 24 48.5t60 16.5q41 0 69 -25.5t28 -74.5q0 -26 -10.5 -48.5t-30 -42t-47.5 -35.5t-62 -28z" />
    <glyph glyph-name="Ncaron" unicode="&#x147;" horiz-adv-x="807" 
d="M88 0v700h152l367 -500l-33 5q-5 33 -8 63t-5.5 59t-4 59t-2 65t-0.5 76v173h165v-700h-154l-383 516l51 -7q5 -48 8.5 -81.5t6 -59.5t3.5 -47t1.5 -41.5t0.5 -45.5v-234h-165zM356 755l-134 107l50 56l147 -70h-30l147 70l50 -56l-134 -107h-96z" />
    <glyph glyph-name="ncaron" unicode="&#x148;" horiz-adv-x="635" 
d="M71 0v531h152l5 -108l-32 -12q11 36 39.5 65.5t68.5 47.5t84 18q60 0 101 -24.5t62 -73t21 -118.5v-326h-161v313q0 32 -9 53t-27.5 31.5t-45.5 9.5q-21 0 -39 -6.5t-31 -19t-20.5 -28.5t-7.5 -35v-318h-79h-48h-33zM300 607l-140 129l58 50l145 -86h-30l145 86l58 -50
l-140 -129h-96z" />
    <glyph glyph-name="napostrophe" unicode="&#x149;" horiz-adv-x="670" 
d="M-93 436l21 264h164l-84 -264h-101zM106 0v531h152l5 -108l-32 -12q11 36 39.5 65.5t68.5 47.5t84 18q60 0 101 -24.5t62 -73t21 -118.5v-326h-161v313q0 32 -9 53t-27.5 31.5t-45.5 9.5q-21 0 -39 -6.5t-31 -19t-20.5 -28.5t-7.5 -35v-318h-79h-48h-33z" />
    <glyph glyph-name="Eng" unicode="&#x14a;" horiz-adv-x="807" 
d="M494 -203l-67 125q24 0 47.5 4.5t42.5 14.5t30 24.5t11 34.5v60l9 -62l-341 458l13 9q2 -22 4 -44.5t4 -45.5t3.5 -44.5t2 -40t0.5 -32.5v-258h-165v700h152l347 -471l-15 -8q-6 41 -9.5 76.5t-5.5 70.5t-2.5 73.5t-0.5 85.5v173h165v-710q0 -66 -27 -108.5t-77.5 -63.5
t-120.5 -21z" />
    <glyph glyph-name="eng" unicode="&#x14b;" horiz-adv-x="635" 
d="M349 -203l-61 125q64 0 93 28.5t30 85.5v277q0 32 -9 53t-27.5 31.5t-45.5 9.5q-21 0 -39 -6.5t-31 -19t-20.5 -28.5t-7.5 -35v-318h-160v531h152l3 -66q18 22 43.5 39.5t55.5 27.5t63 10q60 0 101 -24.5t62 -73t21 -118.5v-336q0 -64 -26 -106.5t-76 -64.5t-121 -22z
" />
    <glyph glyph-name="Omacron" unicode="&#x14c;" horiz-adv-x="812" 
d="M407 -10q-80 0 -146 27t-115 76t-76 115t-27 145t27 145t76 115t115 76t145 27t145 -27t115 -76t75.5 -115t26.5 -145q0 -78 -26.5 -144.5t-75.5 -115.5t-115 -76t-144 -27zM406 150q41 0 75.5 15t60 42.5t39.5 64.5t14 81t-14 81t-39.5 64.5t-60 42.5t-75.5 15
t-75.5 -15t-60.5 -42.5t-39.5 -64.5t-13.5 -81t13.5 -81.5t39.5 -64.5t60.5 -42t75.5 -15zM226 789v101h359v-101h-359z" />
    <glyph glyph-name="omacron" unicode="&#x14d;" horiz-adv-x="641" 
d="M321 -10q-83 0 -147.5 36t-102 98t-37.5 142t37.5 142t102 98t147.5 36t147.5 -36t101.5 -98t37 -142t-37 -142t-101.5 -98t-147.5 -36zM321 128q36 0 64 18t44 49t15 71q1 40 -15 71.5t-44 49.5t-64 18t-64.5 -18t-44.5 -49.5t-15 -71.5q-1 -40 15 -71t44.5 -49
t64.5 -18zM153 640v101h336v-101h-336z" />
    <glyph glyph-name="Obreve" unicode="&#x14e;" horiz-adv-x="812" 
d="M407 -10q-80 0 -146 27t-115 76t-76 115t-27 145t27 145t76 115t115 76t145 27t145 -27t115 -76t75.5 -115t26.5 -145q0 -78 -26.5 -144.5t-75.5 -115.5t-115 -76t-144 -27zM406 150q41 0 75.5 15t60 42.5t39.5 64.5t14 81t-14 81t-39.5 64.5t-60 42.5t-75.5 15
t-75.5 -15t-60.5 -42.5t-39.5 -64.5t-13.5 -81t13.5 -81.5t39.5 -64.5t60.5 -42t75.5 -15zM406 757q-45 0 -82 19t-62.5 53.5t-34.5 79.5l102 12q10 -26 31 -43t46 -17t46 17t31 43l102 -12q-9 -45 -34.5 -79.5t-62 -53.5t-82.5 -19z" />
    <glyph glyph-name="obreve" unicode="&#x14f;" horiz-adv-x="641" 
d="M321 -10q-83 0 -147.5 36t-102 98t-37.5 142t37.5 142t102 98t147.5 36t147.5 -36t101.5 -98t37 -142t-37 -142t-101.5 -98t-147.5 -36zM321 128q36 0 64 18t44 49t15 71q1 40 -15 71.5t-44 49.5t-64 18t-64.5 -18t-44.5 -49.5t-15 -71.5q-1 -40 15 -71t44.5 -49
t64.5 -18zM321 601q-69 0 -117 43t-62 117l102 12q11 -31 31.5 -49.5t45.5 -18.5t45.5 18.5t31.5 49.5l102 -12q-14 -74 -62 -117t-117 -43z" />
    <glyph glyph-name="Ohungarumlaut" unicode="&#x150;" horiz-adv-x="812" 
d="M407 -10q-80 0 -146 27t-115 76t-76 115t-27 145t27 145t76 115t115 76t145 27t145 -27t115 -76t75.5 -115t26.5 -145q0 -78 -26.5 -144.5t-75.5 -115.5t-115 -76t-144 -27zM406 150q41 0 75.5 15t60 42.5t39.5 64.5t14 81t-14 81t-39.5 64.5t-60 42.5t-75.5 15
t-75.5 -15t-60.5 -42.5t-39.5 -64.5t-13.5 -81t13.5 -81.5t39.5 -64.5t60.5 -42t75.5 -15zM285 753l-52 70l151 143l77 -98zM507 751l-50 72l157 141l77 -102z" />
    <glyph glyph-name="ohungarumlaut" unicode="&#x151;" horiz-adv-x="641" 
d="M321 -10q-83 0 -147.5 36t-102 98t-37.5 142t37.5 142t102 98t147.5 36t147.5 -36t101.5 -98t37 -142t-37 -142t-101.5 -98t-147.5 -36zM321 128q36 0 64 18t44 49t15 71q1 40 -15 71.5t-44 49.5t-64 18t-64.5 -18t-44.5 -49.5t-15 -71.5q-1 -40 15 -71t44.5 -49
t64.5 -18zM367 590l-64 51l153 169l90 -90zM162 587l-67 48l141 176l95 -84z" />
    <glyph glyph-name="OE" unicode="&#x152;" horiz-adv-x="1079" 
d="M375 0q-76 0 -137.5 25t-104.5 71.5t-66.5 111t-23.5 142.5t25 142t71 111t111 72t145 25h625v-145h-333v-127h278v-138h-278v-145h333v-145h-645zM215 350q0 -47 12 -84t35 -62.5t56.5 -39.5t76.5 -14h127v400h-119q-45 0 -79.5 -14t-58.5 -40t-37 -62.5t-13 -83.5z" />
    <glyph glyph-name="oe" unicode="&#x153;" horiz-adv-x="1003" 
d="M321 -10q-83 0 -147.5 36t-102 98t-37.5 142t37.5 142t102 98t147.5 36q48 0 89 -12.5t75.5 -36.5t59.5 -58h-33q24 34 55 58t69.5 36.5t81.5 12.5q57 0 104 -20t81 -56t52 -85t17 -107l-1 -43h-379l-2 90h278l-45 -39v37q0 27 -13.5 47t-37.5 31t-55 11q-30 0 -52 -10
t-36 -28t-20.5 -41.5t-6.5 -50.5q0 -43 15 -76.5t48.5 -52.5t86.5 -19q35 0 63 10t60 34l76 -106q-31 -26 -66.5 -43.5t-71.5 -26t-72 -8.5q-51 0 -94.5 12.5t-78.5 37t-60 59.5h32q-22 -35 -55.5 -59t-75 -37t-88.5 -13zM321 128q36 0 64 18t44 49t15 71q1 40 -15 71.5
t-44 49.5t-64 18t-64.5 -18t-44.5 -49.5t-15 -71.5q-1 -40 15 -71t44.5 -49t64.5 -18z" />
    <glyph glyph-name="Racute" unicode="&#x154;" horiz-adv-x="702" 
d="M88 0v700h315q67 0 121.5 -29t85.5 -79.5t31 -114.5q0 -66 -31 -118.5t-85 -82.5t-122 -30h-153v-246h-162zM476 0l-178 316l174 25l198 -341h-194zM250 376h138q26 0 45.5 11.5t30 32.5t10.5 48t-12 47.5t-34.5 31.5t-54.5 11h-123v-182zM244 748l-37 80l209 115
l55 -117z" />
    <glyph glyph-name="racute" unicode="&#x155;" horiz-adv-x="455" 
d="M71 0v531h152l7 -173l-30 33q12 43 39.5 77t64.5 54t79 20q18 0 33.5 -3t28.5 -7l-44 -177q-11 7 -29.5 11.5t-38.5 4.5q-22 0 -41 -7.5t-32 -21.5t-20.5 -33t-7.5 -43v-266h-161zM183 589l-47 73l179 142l73 -105z" />
    <glyph glyph-name="uni0156" unicode="&#x156;" horiz-adv-x="702" 
d="M88 0v700h315q67 0 121.5 -29t85.5 -79.5t31 -114.5q0 -66 -31 -118.5t-85 -82.5t-122 -30h-153v-246h-162zM476 0l-178 316l174 25l198 -341h-194zM250 376h138q26 0 45.5 11.5t30 32.5t10.5 48t-12 47.5t-34.5 31.5t-54.5 11h-123v-182zM296 -294l-40 55
q14 5 30.5 13.5t29 20.5t12.5 24q0 8 -5.5 12.5t-18.5 10.5q-21 8 -30 20.5t-9 32.5q0 32 23 48.5t58 16.5q42 0 71 -24.5t29 -72.5q0 -29 -10.5 -53.5t-30 -44t-47.5 -34t-62 -25.5z" />
    <glyph glyph-name="uni0157" unicode="&#x157;" horiz-adv-x="455" 
d="M71 0v531h152l7 -173l-30 33q12 43 39.5 77t64.5 54t79 20q18 0 33.5 -3t28.5 -7l-44 -177q-11 7 -29.5 11.5t-38.5 4.5q-22 0 -41 -7.5t-32 -21.5t-20.5 -33t-7.5 -43v-266h-161zM92 -293l-40 55q14 4 30.5 13t29 20t12.5 24q0 9 -5.5 13.5t-18.5 9.5q-21 8 -30 20.5
t-9 33.5q0 32 24 48.5t60 16.5q41 0 69 -25.5t28 -74.5q0 -26 -10.5 -48.5t-30 -42t-47.5 -35.5t-62 -28z" />
    <glyph glyph-name="Rcaron" unicode="&#x158;" horiz-adv-x="702" 
d="M88 0v700h315q67 0 121.5 -29t85.5 -79.5t31 -114.5q0 -66 -31 -118.5t-85 -82.5t-122 -30h-153v-246h-162zM476 0l-178 316l174 25l198 -341h-194zM250 376h138q26 0 45.5 11.5t30 32.5t10.5 48t-12 47.5t-34.5 31.5t-54.5 11h-123v-182zM285 755l-134 107l50 56
l147 -70h-30l147 70l50 -56l-134 -107h-96z" />
    <glyph glyph-name="rcaron" unicode="&#x159;" horiz-adv-x="455" 
d="M71 0v531h152l7 -173l-30 33q12 43 39.5 77t64.5 54t79 20q18 0 33.5 -3t28.5 -7l-44 -177q-11 7 -29.5 11.5t-38.5 4.5q-22 0 -41 -7.5t-32 -21.5t-20.5 -33t-7.5 -43v-266h-161zM214 607l-140 129l58 50l145 -86h-30l145 86l58 -50l-140 -129h-96z" />
    <glyph glyph-name="Sacute" unicode="&#x15a;" horiz-adv-x="634" 
d="M320 -10q-69 0 -124.5 16.5t-98.5 48t-77 74.5l103 117q50 -67 100.5 -90t104.5 -23q27 0 49 7t34 20.5t12 33.5q0 15 -7.5 27t-20.5 21t-31 16.5t-38 13t-41 9.5q-58 13 -101 32t-71.5 46.5t-42.5 63t-14 79.5q0 47 21.5 86.5t58 68t84.5 44t100 15.5q69 0 118.5 -14.5
t85 -41.5t60.5 -65l-105 -101q-21 26 -45.5 43t-52 26t-56.5 9q-30 0 -51.5 -7.5t-33.5 -21t-12 -32.5q0 -17 10 -29t27 -21.5t39 -16t46 -10.5q55 -11 99.5 -29t77 -44t50 -61.5t17.5 -82.5q0 -73 -35.5 -123.5t-97 -77t-141.5 -26.5zM243 748l-37 80l209 115l55 -117z" />
    <glyph glyph-name="sacute" unicode="&#x15b;" horiz-adv-x="495" 
d="M250 -10q-78 0 -137.5 25t-94.5 67l97 84q31 -31 70 -45.5t74 -14.5q14 0 25 3t18.5 8.5t11.5 13t4 17.5q0 20 -18 31q-9 5 -30 12t-54 16q-47 12 -81.5 28.5t-56.5 38.5q-20 21 -31 46.5t-11 57.5q0 37 17.5 67t47 52t68 33.5t79.5 11.5q44 0 84 -10t74.5 -28t61.5 -43
l-84 -94q-18 17 -40.5 30.5t-46.5 21.5t-44 8q-15 0 -26.5 -2.5t-19.5 -8t-12 -13t-4 -17.5t5.5 -19t15.5 -15t32 -13.5t60 -18.5q47 -13 81 -29t54 -38q16 -17 24 -39.5t8 -48.5q0 -51 -28.5 -90.5t-78.5 -62t-114 -22.5zM169 589l-47 73l179 142l73 -105z" />
    <glyph glyph-name="Scircumflex" unicode="&#x15c;" horiz-adv-x="634" 
d="M320 -10q-69 0 -124.5 16.5t-98.5 48t-77 74.5l103 117q50 -67 100.5 -90t104.5 -23q27 0 49 7t34 20.5t12 33.5q0 15 -7.5 27t-20.5 21t-31 16.5t-38 13t-41 9.5q-58 13 -101 32t-71.5 46.5t-42.5 63t-14 79.5q0 47 21.5 86.5t58 68t84.5 44t100 15.5q69 0 118.5 -14.5
t85 -41.5t60.5 -65l-105 -101q-21 26 -45.5 43t-52 26t-56.5 9q-30 0 -51.5 -7.5t-33.5 -21t-12 -32.5q0 -17 10 -29t27 -21.5t39 -16t46 -10.5q55 -11 99.5 -29t77 -44t50 -61.5t17.5 -82.5q0 -73 -35.5 -123.5t-97 -77t-141.5 -26.5zM199 754l-49 57l136 106h90l136 -106
l-49 -57l-147 71h30z" />
    <glyph glyph-name="scircumflex" unicode="&#x15d;" horiz-adv-x="495" 
d="M250 -10q-78 0 -137.5 25t-94.5 67l97 84q31 -31 70 -45.5t74 -14.5q14 0 25 3t18.5 8.5t11.5 13t4 17.5q0 20 -18 31q-9 5 -30 12t-54 16q-47 12 -81.5 28.5t-56.5 38.5q-20 21 -31 46.5t-11 57.5q0 37 17.5 67t47 52t68 33.5t79.5 11.5q44 0 84 -10t74.5 -28t61.5 -43
l-84 -94q-18 17 -40.5 30.5t-46.5 21.5t-44 8q-15 0 -26.5 -2.5t-19.5 -8t-12 -13t-4 -17.5t5.5 -19t15.5 -15t32 -13.5t60 -18.5q47 -13 81 -29t54 -38q16 -17 24 -39.5t8 -48.5q0 -51 -28.5 -90.5t-78.5 -62t-114 -22.5zM114 601l-58 50l144 129h96l144 -129l-58 -50
l-149 86h30z" />
    <glyph glyph-name="Scedilla" unicode="&#x15e;" horiz-adv-x="634" 
d="M320 -10q-69 0 -124.5 16.5t-98.5 48t-77 74.5l103 117q50 -67 100.5 -90t104.5 -23q27 0 49 7t34 20.5t12 33.5q0 15 -7.5 27t-20.5 21t-31 16.5t-38 13t-41 9.5q-58 13 -101 32t-71.5 46.5t-42.5 63t-14 79.5q0 47 21.5 86.5t58 68t84.5 44t100 15.5q69 0 118.5 -14.5
t85 -41.5t60.5 -65l-105 -101q-21 26 -45.5 43t-52 26t-56.5 9q-30 0 -51.5 -7.5t-33.5 -21t-12 -32.5q0 -17 10 -29t27 -21.5t39 -16t46 -10.5q55 -11 99.5 -29t77 -44t50 -61.5t17.5 -82.5q0 -73 -35.5 -123.5t-97 -77t-141.5 -26.5zM238 -246l-9 75q20 0 42.5 5
t38.5 14.5t16 20.5q0 12 -11.5 19t-27.5 10.5t-32 3.5l-18 14l69 108h82l-45 -67q52 -6 77 -32.5t25 -63.5q0 -31 -19 -51.5t-50 -33.5t-67 -18t-71 -4z" />
    <glyph glyph-name="scedilla" unicode="&#x15f;" horiz-adv-x="495" 
d="M250 -10q-78 0 -137.5 25t-94.5 67l97 84q31 -31 70 -45.5t74 -14.5q14 0 25 3t18.5 8.5t11.5 13t4 17.5q0 20 -18 31q-9 5 -30 12t-54 16q-47 12 -81.5 28.5t-56.5 38.5q-20 21 -31 46.5t-11 57.5q0 37 17.5 67t47 52t68 33.5t79.5 11.5q44 0 84 -10t74.5 -28t61.5 -43
l-84 -94q-18 17 -40.5 30.5t-46.5 21.5t-44 8q-15 0 -26.5 -2.5t-19.5 -8t-12 -13t-4 -17.5t5.5 -19t15.5 -15t32 -13.5t60 -18.5q47 -13 81 -29t54 -38q16 -17 24 -39.5t8 -48.5q0 -51 -28.5 -90.5t-78.5 -62t-114 -22.5zM153 -246l-10 75q21 0 43.5 5t38 14.5t15.5 20.5
q0 12 -11.5 19t-27.5 10.5t-32 3.5l-17 14l69 108h82l-46 -67q52 -6 77.5 -32.5t25.5 -63.5q0 -31 -19.5 -51.5t-50.5 -33.5t-67 -18t-70 -4z" />
    <glyph glyph-name="Scaron" unicode="&#x160;" horiz-adv-x="634" 
d="M320 -10q-69 0 -124.5 16.5t-98.5 48t-77 74.5l103 117q50 -67 100.5 -90t104.5 -23q27 0 49 7t34 20.5t12 33.5q0 15 -7.5 27t-20.5 21t-31 16.5t-38 13t-41 9.5q-58 13 -101 32t-71.5 46.5t-42.5 63t-14 79.5q0 47 21.5 86.5t58 68t84.5 44t100 15.5q69 0 118.5 -14.5
t85 -41.5t60.5 -65l-105 -101q-21 26 -45.5 43t-52 26t-56.5 9q-30 0 -51.5 -7.5t-33.5 -21t-12 -32.5q0 -17 10 -29t27 -21.5t39 -16t46 -10.5q55 -11 99.5 -29t77 -44t50 -61.5t17.5 -82.5q0 -73 -35.5 -123.5t-97 -77t-141.5 -26.5zM284 755l-134 107l50 56l147 -70h-30
l147 70l50 -56l-134 -107h-96z" />
    <glyph glyph-name="scaron" unicode="&#x161;" horiz-adv-x="495" 
d="M250 -10q-78 0 -137.5 25t-94.5 67l97 84q31 -31 70 -45.5t74 -14.5q14 0 25 3t18.5 8.5t11.5 13t4 17.5q0 20 -18 31q-9 5 -30 12t-54 16q-47 12 -81.5 28.5t-56.5 38.5q-20 21 -31 46.5t-11 57.5q0 37 17.5 67t47 52t68 33.5t79.5 11.5q44 0 84 -10t74.5 -28t61.5 -43
l-84 -94q-18 17 -40.5 30.5t-46.5 21.5t-44 8q-15 0 -26.5 -2.5t-19.5 -8t-12 -13t-4 -17.5t5.5 -19t15.5 -15t32 -13.5t60 -18.5q47 -13 81 -29t54 -38q16 -17 24 -39.5t8 -48.5q0 -51 -28.5 -90.5t-78.5 -62t-114 -22.5zM200 607l-140 129l58 50l145 -86h-30l145 86
l58 -50l-140 -129h-96z" />
    <glyph glyph-name="uni0162" unicode="&#x162;" horiz-adv-x="655" 
d="M240 0v550h-208v150h591v-150h-213v-550h-170zM228 -246l-9 75q20 0 42.5 5t38.5 14.5t16 20.5q0 12 -11.5 19t-27.5 10.5t-32 3.5l-18 14l69 108h82l-45 -67q52 -6 77 -32.5t25 -63.5q0 -31 -19 -51.5t-50 -33.5t-67 -18t-71 -4z" />
    <glyph glyph-name="uni0163" unicode="&#x163;" horiz-adv-x="398" 
d="M115 0v665h160v-665h-160zM21 391v140h357v-140h-357zM100 -246l-10 75q21 0 43.5 5t38 14.5t15.5 20.5q0 12 -11.5 19t-27.5 10.5t-32 3.5l-17 14l69 108h82l-46 -67q52 -6 77.5 -32.5t25.5 -63.5q0 -31 -19.5 -51.5t-50.5 -33.5t-67 -18t-70 -4z" />
    <glyph glyph-name="Tcaron" unicode="&#x164;" horiz-adv-x="655" 
d="M240 0v550h-208v150h591v-150h-213v-550h-170zM280 755l-134 107l50 56l147 -70h-30l147 70l50 -56l-134 -107h-96z" />
    <glyph glyph-name="tcaron" unicode="&#x165;" horiz-adv-x="398" 
d="M115 0v665h160v-665h-160zM21 391v140h357v-140h-357zM350 575l-40 55q14 5 30.5 13.5t29 20.5t12.5 24q0 8 -5.5 12.5t-18.5 10.5q-21 8 -30 20.5t-9 32.5q0 32 23 48.5t58 16.5q42 0 71 -24.5t29 -72.5q0 -29 -10.5 -53.5t-30 -44t-47.5 -34t-62 -25.5z" />
    <glyph glyph-name="Tbar" unicode="&#x166;" horiz-adv-x="655" 
d="M169 292v119h325v-119h-325zM240 0v550h-208v150h591v-150h-213v-550h-170z" />
    <glyph glyph-name="tbar" unicode="&#x167;" horiz-adv-x="398" 
d="M35 195v119h325v-119h-325zM115 0v665h160v-665h-160zM21 391v140h357v-140h-357z" />
    <glyph glyph-name="Utilde" unicode="&#x168;" horiz-adv-x="765" 
d="M383 -6q-87 0 -155 35.5t-106.5 97.5t-38.5 142v431h172v-422q0 -38 17 -68.5t46 -48t65 -17.5q38 0 67.5 17.5t47.5 48t18 68.5v422h166v-431q0 -80 -38.5 -142t-106.5 -97.5t-154 -35.5zM460 768q-20 0 -40 6t-44 16q-18 9 -30.5 13t-22.5 4q-14 0 -22.5 -10t-8.5 -28
h-100q0 66 36.5 103.5t91.5 37.5q18 0 35.5 -5t44.5 -17q16 -8 27 -12t20 -4q13 0 20.5 10.5t6.5 27.5h99q0 -38 -14.5 -71t-39.5 -52t-59 -19z" />
    <glyph glyph-name="utilde" unicode="&#x169;" horiz-adv-x="642" 
d="M252 -11q-59 0 -100.5 25.5t-64 73.5t-22.5 115v328h161v-306q0 -32 10 -55t30 -35.5t48 -12.5q21 0 38.5 7t30 19.5t19.5 29t7 36.5v317h161v-531h-151l-7 109l30 12q-12 -38 -40 -67.5t-67 -47t-83 -17.5zM390 614q-17 0 -35 6t-41 22q-17 14 -28 19.5t-18 5.5
q-14 0 -25 -11.5t-14 -36.5l-89 13q1 56 32 96t83 40q17 0 34 -6t40 -21q13 -11 24.5 -18.5t22.5 -7.5q14 0 24.5 12.5t12.5 35.5l90 -13q-1 -35 -15 -66.5t-39.5 -50.5t-58.5 -19z" />
    <glyph glyph-name="Umacron" unicode="&#x16a;" horiz-adv-x="765" 
d="M383 -6q-87 0 -155 35.5t-106.5 97.5t-38.5 142v431h172v-422q0 -38 17 -68.5t46 -48t65 -17.5q38 0 67.5 17.5t47.5 48t18 68.5v422h166v-431q0 -80 -38.5 -142t-106.5 -97.5t-154 -35.5zM203 789v101h359v-101h-359z" />
    <glyph glyph-name="umacron" unicode="&#x16b;" horiz-adv-x="642" 
d="M252 -11q-59 0 -100.5 25.5t-64 73.5t-22.5 115v328h161v-306q0 -32 10 -55t30 -35.5t48 -12.5q21 0 38.5 7t30 19.5t19.5 29t7 36.5v317h161v-531h-151l-7 109l30 12q-12 -38 -40 -67.5t-67 -47t-83 -17.5zM153 640v101h336v-101h-336z" />
    <glyph glyph-name="Ubreve" unicode="&#x16c;" horiz-adv-x="765" 
d="M383 -6q-87 0 -155 35.5t-106.5 97.5t-38.5 142v431h172v-422q0 -38 17 -68.5t46 -48t65 -17.5q38 0 67.5 17.5t47.5 48t18 68.5v422h166v-431q0 -80 -38.5 -142t-106.5 -97.5t-154 -35.5zM383 757q-45 0 -82 19t-62.5 53.5t-34.5 79.5l102 12q10 -26 31 -43t46 -17
t46 17t31 43l102 -12q-9 -45 -34.5 -79.5t-62 -53.5t-82.5 -19z" />
    <glyph glyph-name="ubreve" unicode="&#x16d;" horiz-adv-x="642" 
d="M252 -11q-59 0 -100.5 25.5t-64 73.5t-22.5 115v328h161v-306q0 -32 10 -55t30 -35.5t48 -12.5q21 0 38.5 7t30 19.5t19.5 29t7 36.5v317h161v-531h-151l-7 109l30 12q-12 -38 -40 -67.5t-67 -47t-83 -17.5zM321 601q-69 0 -117 43t-62 117l102 12q11 -31 31.5 -49.5
t45.5 -18.5t45.5 18.5t31.5 49.5l102 -12q-14 -74 -62 -117t-117 -43z" />
    <glyph glyph-name="Uring" unicode="&#x16e;" horiz-adv-x="765" 
d="M383 -6q-87 0 -155 35.5t-106.5 97.5t-38.5 142v431h172v-422q0 -38 17 -68.5t46 -48t65 -17.5q38 0 67.5 17.5t47.5 48t18 68.5v422h166v-431q0 -80 -38.5 -142t-106.5 -97.5t-154 -35.5zM383 673q-35 0 -65.5 17t-49 45t-18.5 60q0 36 18.5 65.5t48.5 46.5t66 17
q35 0 65 -17t48.5 -46.5t18.5 -65.5q0 -32 -18.5 -60t-48.5 -45t-65 -17zM383 755q17 0 29 12t12 28q0 19 -12.5 30.5t-28.5 11.5q-17 0 -29 -11.5t-12 -30.5q0 -16 12 -28t29 -12z" />
    <glyph glyph-name="uring" unicode="&#x16f;" horiz-adv-x="642" 
d="M252 -11q-59 0 -100.5 25.5t-64 73.5t-22.5 115v328h161v-306q0 -32 10 -55t30 -35.5t48 -12.5q21 0 38.5 7t30 19.5t19.5 29t7 36.5v317h161v-531h-151l-7 109l30 12q-12 -38 -40 -67.5t-67 -47t-83 -17.5zM321 604q-31 0 -59 16t-44.5 42.5t-16.5 57.5q0 33 16 59.5
t44 42.5t60 16q33 0 60.5 -16t44 -42.5t16.5 -59.5q0 -31 -17 -57.5t-44 -42.5t-60 -16zM321 685q16 0 26.5 10t10.5 25q0 17 -10.5 27t-26.5 10t-26.5 -10t-10.5 -26t11 -26t26 -10z" />
    <glyph glyph-name="Uhungarumlaut" unicode="&#x170;" horiz-adv-x="765" 
d="M383 -6q-87 0 -155 35.5t-106.5 97.5t-38.5 142v431h172v-422q0 -38 17 -68.5t46 -48t65 -17.5q38 0 67.5 17.5t47.5 48t18 68.5v422h166v-431q0 -80 -38.5 -142t-106.5 -97.5t-154 -35.5zM261 753l-52 70l151 143l77 -98zM483 751l-50 72l157 141l77 -102z" />
    <glyph glyph-name="uhungarumlaut" unicode="&#x171;" horiz-adv-x="642" 
d="M252 -11q-59 0 -100.5 25.5t-64 73.5t-22.5 115v328h161v-306q0 -32 10 -55t30 -35.5t48 -12.5q21 0 38.5 7t30 19.5t19.5 29t7 36.5v317h161v-531h-151l-7 109l30 12q-12 -38 -40 -67.5t-67 -47t-83 -17.5zM368 590l-64 51l153 169l90 -90zM163 587l-67 48l141 176
l95 -84z" />
    <glyph glyph-name="Uogonek" unicode="&#x172;" horiz-adv-x="765" 
d="M458 -211q-50 0 -83.5 30.5t-33.5 80.5q0 32 14.5 60t41 51.5t61.5 44t75 40.5l35 -47q-24 -14 -44.5 -28.5t-36.5 -29.5t-25.5 -31t-9.5 -34q0 -15 8 -24.5t20 -9.5q11 0 18.5 6t14.5 18l70 -51q-15 -30 -48 -53t-77 -23zM383 -6q-87 0 -155 35.5t-106.5 97.5t-38.5 142
v431h172v-422q0 -38 17 -68.5t46 -48t65 -17.5q38 0 67.5 17.5t47.5 48t18 68.5v422h166v-431q0 -80 -38.5 -142t-106.5 -97.5t-154 -35.5z" />
    <glyph glyph-name="uogonek" unicode="&#x173;" horiz-adv-x="642" 
d="M252 -11q-59 0 -100.5 25.5t-64 73.5t-22.5 115v328h161v-306q0 -32 10 -55t30 -35.5t48 -12.5q21 0 38.5 7t30 19.5t19.5 29t7 36.5v317h161v-531h-151l-7 109l30 12q-12 -38 -40 -67.5t-67 -47t-83 -17.5zM455 -211q-34 0 -61.5 15t-43 40t-15.5 56q0 26 10.5 47.5
t32 39.5t54 33t75.5 26l40 -46q-28 -6 -51 -18.5t-36.5 -28t-13.5 -33.5q0 -12 7.5 -19.5t19.5 -7.5q10 0 17.5 5.5t15.5 17.5l69 -51q-9 -18 -27 -35.5t-41 -29t-52 -11.5z" />
    <glyph glyph-name="Wcircumflex" unicode="&#x174;" horiz-adv-x="993" 
d="M214 0l-210 700h173l105 -368q7 -25 12.5 -50.5t9 -48.5t5.5 -42.5t4 -32.5h-22q6 37 10.5 66t10.5 54.5t15 53.5l104 277h136l102 -277q12 -33 20 -62t12.5 -55.5t7.5 -52.5l-20 -3q2 18 3 33.5t2.5 30t3.5 30.5t6 35.5t11 44.5l104 367h169l-210 -700h-130l-166 403
l19 -2l-153 -401h-134zM364 754l-49 57l136 106h90l136 -106l-49 -57l-147 71h30z" />
    <glyph glyph-name="wcircumflex" unicode="&#x175;" horiz-adv-x="834" 
d="M187 0l-175 531h169l98 -345l-21 4l110 268h94l116 -269l-23 -2l98 344h169l-181 -531h-118l-115 285l12 -2l-115 -283h-118zM283 601l-58 50l144 129h96l144 -129l-58 -50l-149 86h30z" />
    <glyph glyph-name="Ycircumflex" unicode="&#x176;" horiz-adv-x="689" 
d="M269 0v349l7 -49l-283 400h193l216 -310l-88 3l195 307h187l-271 -411l15 68v-357h-171zM212 754l-49 57l136 106h90l136 -106l-49 -57l-147 71h30z" />
    <glyph glyph-name="ycircumflex" unicode="&#x177;" horiz-adv-x="620" 
d="M138 -230l121 285l2 -82l-256 558h181l112 -267q9 -20 17 -43t12 -44l-22 -13q6 15 13.5 37.5t16.5 48.5l98 281h182l-226 -531l-92 -230h-159zM177 601l-58 50l144 129h96l144 -129l-58 -50l-149 86h30z" />
    <glyph glyph-name="Ydieresis" unicode="&#x178;" horiz-adv-x="689" 
d="M269 0v349l7 -49l-283 400h193l216 -310l-88 3l195 307h187l-271 -411l15 68v-357h-171zM466 754q-43 0 -65 22.5t-22 62.5q0 36 23 60.5t64 24.5q42 0 64.5 -22.5t22.5 -62.5q0 -36 -23 -60.5t-64 -24.5zM223 754q-43 0 -65 22.5t-22 62.5q0 36 22.5 60.5t64.5 24.5
t64 -22.5t22 -62.5q0 -36 -22.5 -60.5t-63.5 -24.5z" />
    <glyph glyph-name="Zacute" unicode="&#x179;" horiz-adv-x="683" 
d="M60 0v113l376 500l59 -69h-409v156h528v-112l-374 -501l-60 62h445v-149h-565zM254 748l-37 80l209 115l55 -117z" />
    <glyph glyph-name="zacute" unicode="&#x17a;" horiz-adv-x="550" 
d="M50 0v92l282 362v-53h-282v130h440v-96l-267 -351l-4 46h280v-130h-449zM196 589l-47 73l179 142l73 -105z" />
    <glyph glyph-name="Zdotaccent" unicode="&#x17b;" horiz-adv-x="683" 
d="M60 0v113l376 500l59 -69h-409v156h528v-112l-374 -501l-60 62h445v-149h-565zM342 756q-46 0 -70.5 22t-24.5 61q0 35 25 59t70 24q46 0 70.5 -22t24.5 -61q0 -35 -25 -59t-70 -24z" />
    <glyph glyph-name="zdotaccent" unicode="&#x17c;" horiz-adv-x="550" 
d="M50 0v92l282 362v-53h-282v130h440v-96l-267 -351l-4 46h280v-130h-449zM275 636q-45 0 -70 21.5t-25 61.5q0 36 25.5 59.5t69.5 23.5q45 0 70 -21.5t25 -61.5q0 -37 -25.5 -60t-69.5 -23z" />
    <glyph glyph-name="Zcaron" unicode="&#x17d;" horiz-adv-x="683" 
d="M60 0v113l376 500l59 -69h-409v156h528v-112l-374 -501l-60 62h445v-149h-565zM294 755l-134 107l50 56l147 -70h-30l147 70l50 -56l-134 -107h-96z" />
    <glyph glyph-name="zcaron" unicode="&#x17e;" horiz-adv-x="550" 
d="M50 0v92l282 362v-53h-282v130h440v-96l-267 -351l-4 46h280v-130h-449zM227 607l-140 129l58 50l145 -86h-30l145 86l58 -50l-140 -129h-96z" />
    <glyph glyph-name="uni018F" unicode="&#x18f;" horiz-adv-x="771" 
d="M385 -10q-68 0 -128.5 24t-107 68t-75 103t-31.5 128v100h638l9 -137h-468q9 -30 25 -53.5t37.5 -40.5t47.5 -26.5t53 -9.5q38 0 69 13.5t54.5 40t36 64.5t12.5 87q0 46 -13.5 83.5t-38 64.5t-58.5 41t-76 14q-39 0 -71 -7t-60.5 -22t-58.5 -38l-74 128q44 33 84.5 54
t86.5 31t104 10q71 0 133.5 -28t110 -77.5t74.5 -114.5t27 -140t-26.5 -140t-74 -114.5t-109 -77.5t-132.5 -28z" />
    <glyph glyph-name="florin" unicode="&#x192;" horiz-adv-x="557" 
d="M111 -31q-32 0 -62 8t-53 24l53 127q16 -8 28.5 -11.5t29.5 -3.5q15 0 26 8.5t18.5 25t12.5 41.5l57 334q15 91 68 134t140 43q37 0 69 -9t62 -28l-54 -125q-18 11 -32 15t-29 4q-30 0 -45 -17t-21 -49l-58 -335q-17 -95 -70 -140.5t-140 -45.5zM86 310v129l386 -1v-129z
" />
    <glyph glyph-name="uni019D" unicode="&#x19d;" horiz-adv-x="797" 
d="M18 -203l-67 125q64 0 95.5 30t31.5 89v659h152l367 -500l-33 5q-6 42 -9.5 78t-6 73t-3.5 78t-1 93v173h165v-700h-154l-383 516l51 -7q5 -40 8.5 -73.5t6 -62.5t4 -56t1.5 -53.5v-56.5v-204q0 -71 -25.5 -116.5t-76.5 -67.5t-123 -22z" />
    <glyph glyph-name="Ohorn" unicode="&#x1a0;" horiz-adv-x="812" 
d="M406 -10q-79 0 -145 27t-115 76t-76 115t-27 145t27 145t76 115t115 76t145 27q21 0 43.5 -3t43.5 -7q16 -4 31.5 -7t32.5 -3q28 0 46.5 14.5t28 43t9.5 71.5h127q0 -40 -7.5 -77t-24.5 -66t-47 -46.5t-76 -19.5l24 22q41 -32 70.5 -75.5t45 -96.5t15.5 -113
q0 -78 -26.5 -144.5t-75.5 -115.5t-115 -76t-145 -27zM406 150q41 0 75.5 15t60 42.5t39.5 64.5t14 81t-14 81t-39.5 64.5t-60 42.5t-75.5 15t-75.5 -15t-60.5 -42.5t-39.5 -64.5t-13.5 -81t13.5 -81.5t39.5 -64.5t60.5 -42t75.5 -15z" />
    <glyph glyph-name="ohorn" unicode="&#x1a1;" horiz-adv-x="641" 
d="M321 -10q-83 0 -147.5 36t-102 98t-37.5 142t37.5 142t102 98t147.5 36q17 0 33 -2.5t30 -4.5q11 -2 20 -4t16 -2q41 0 62 29.5t21 86.5h123q0 -46 -13.5 -86t-42.5 -67.5t-76 -36.5l13 24q46 -36 73 -91t27 -122q0 -80 -37 -142t-101.5 -98t-147.5 -36zM321 128
q36 0 64 18t44 49t15 71q1 40 -15 71.5t-44 49.5t-64 18t-64.5 -18t-44.5 -49.5t-15 -71.5q-1 -40 15 -71t44.5 -49t64.5 -18z" />
    <glyph glyph-name="Uhorn" unicode="&#x1af;" horiz-adv-x="765" 
d="M383 -6q-87 0 -155 35.5t-106.5 97.5t-38.5 142v431h172v-422q0 -38 17 -68.5t46 -48t65 -17.5q38 0 67.5 17.5t47.5 48t18 68.5v422h61q46 0 67 32.5t21 92.5h126q0 -53 -16.5 -98t-51 -74t-88.5 -35l47 47v-396q0 -80 -38.5 -142t-106.5 -97.5t-154 -35.5z" />
    <glyph glyph-name="uhorn" unicode="&#x1b0;" horiz-adv-x="642" 
d="M252 -11q-59 0 -100.5 25.5t-64 73.5t-22.5 115v328h161v-306q0 -32 10 -55t30 -35.5t48 -12.5q21 0 38.5 7t30 19.5t19.5 29t7 36.5v317q41 0 67.5 6.5t42 20t22 35t6.5 52.5h122q0 -47 -14.5 -87.5t-44.5 -67t-77 -31.5l37 44v-503h-151l-7 115l18 -22
q-15 -30 -42 -53.5t-62 -37t-74 -13.5z" />
    <glyph glyph-name="uni01C4" unicode="&#x1c4;" horiz-adv-x="1410" 
d="M88 0v700h293q77 0 141 -25.5t110.5 -72.5t71.5 -111t25 -141t-25 -141.5t-71.5 -111t-110.5 -72t-141 -25.5h-293zM258 116l-23 34h141q42 0 75 14.5t56.5 40.5t36.5 63t13 82t-13 82t-36.5 63t-56.5 40.5t-75 14.5h-144l26 32v-466zM787 0v113l376 500l59 -69h-409v156
h528v-112l-374 -501l-60 62h445v-149h-565zM1021 755l-134 107l50 56l147 -70h-30l147 70l50 -56l-134 -107h-96z" />
    <glyph glyph-name="uni01C5" unicode="&#x1c5;" horiz-adv-x="1321" 
d="M88 0v700h293q77 0 141 -25.5t110.5 -72.5t71.5 -111t25 -141t-25 -141.5t-71.5 -111t-110.5 -72t-141 -25.5h-293zM258 116l-23 34h141q42 0 75 14.5t56.5 40.5t36.5 63t13 82t-13 82t-36.5 63t-56.5 40.5t-75 14.5h-144l26 32v-466zM821 0v92l282 362v-53h-282v130h440
v-96l-267 -351l-4 46h280v-130h-449zM998 607l-140 129l58 50l145 -86h-30l145 86l58 -50l-140 -129h-96z" />
    <glyph glyph-name="uni01C6" unicode="&#x1c6;" horiz-adv-x="1204" 
d="M272 -11q-69 0 -122.5 35.5t-84.5 98t-31 142.5t31 142.5t85 98.5t124 36q36 0 69 -11t60 -30t44 -43.5t20 -50.5l-38 -9v342h161v-740h-149l-9 121l32 -5q-3 -25 -19.5 -48t-42.5 -40.5t-59.5 -28t-70.5 -10.5zM313 122q37 0 64 18t41.5 50t14.5 75q0 44 -14.5 76
t-41.5 50t-64 18t-63.5 -18t-41.5 -50t-15 -76q0 -43 15 -75t41.5 -50t63.5 -18zM704 0v92l282 362v-53h-282v130h440v-96l-267 -351l-4 46h280v-130h-449zM881 607l-140 129l58 50l145 -86h-30l145 86l58 -50l-140 -129h-96z" />
    <glyph glyph-name="uni01C7" unicode="&#x1c7;" horiz-adv-x="1274" 
d="M88 0v700h170v-550h312v-150h-482zM870 -10q-38 0 -72 8.5t-62 25t-50 40t-38 52.5l97 101q14 -21 27 -34.5t25.5 -22.5t26 -13t28.5 -4q24 0 42.5 11.5t28.5 31.5t10 47v319h-128v148h402v-148h-108v-339q0 -51 -17.5 -92t-48.5 -70.5t-72.5 -45t-90.5 -15.5z" />
    <glyph glyph-name="uni01C8" unicode="&#x1c8;" horiz-adv-x="924" 
d="M88 0v700h170v-550h312v-150h-482zM632 -210l-61 124q46 0 72 12t37 39.5t11 75.5v490h160v-528q0 -73 -25 -120t-74 -70t-120 -23zM774 636q-45 0 -70.5 21.5t-25.5 61.5q0 36 26 59t70 23q45 0 70 -21.5t25 -60.5q0 -37 -25.5 -60t-69.5 -23z" />
    <glyph glyph-name="uni01C9" unicode="&#x1c9;" horiz-adv-x="605" 
d="M72 0v740h160v-740h-160zM313 -210l-61 124q46 0 72 12t37 39.5t11 75.5v490h160v-528q0 -73 -25 -120t-74 -70t-120 -23zM455 636q-45 0 -70.5 21.5t-25.5 61.5q0 36 26 59t70 23q45 0 70 -21.5t25 -60.5q0 -37 -25.5 -60t-69.5 -23z" />
    <glyph glyph-name="uni01CA" unicode="&#x1ca;" horiz-adv-x="1472" 
d="M88 0v700h152l367 -500l-33 5q-5 33 -8 63t-5.5 59t-4 59t-2 65t-0.5 76v173h165v-700h-154l-383 516l51 -7q5 -48 8.5 -81.5t6 -59.5t3.5 -47t1.5 -41.5t0.5 -45.5v-234h-165zM1068 -10q-38 0 -72 8.5t-62 25t-50 40t-38 52.5l97 101q14 -21 27 -34.5t25.5 -22.5t26 -13
t28.5 -4q24 0 42.5 11.5t28.5 31.5t10 47v319h-128v148h402v-148h-108v-339q0 -51 -17.5 -92t-48.5 -70.5t-72.5 -45t-90.5 -15.5z" />
    <glyph glyph-name="uni01CB" unicode="&#x1cb;" horiz-adv-x="1122" 
d="M88 0v700h152l367 -500l-33 5q-5 33 -8 63t-5.5 59t-4 59t-2 65t-0.5 76v173h165v-700h-154l-383 516l51 -7q5 -48 8.5 -81.5t6 -59.5t3.5 -47t1.5 -41.5t0.5 -45.5v-234h-165zM830 -210l-61 124q46 0 72 12t37 39.5t11 75.5v490h160v-528q0 -73 -25 -120t-74 -70
t-120 -23zM972 636q-45 0 -70.5 21.5t-25.5 61.5q0 36 26 59t70 23q45 0 70 -21.5t25 -60.5q0 -37 -25.5 -60t-69.5 -23z" />
    <glyph glyph-name="uni01CC" unicode="&#x1cc;" horiz-adv-x="951" 
d="M71 0v531h152l5 -108l-32 -12q11 36 39.5 65.5t68.5 47.5t84 18q60 0 101 -24.5t62 -73t21 -118.5v-326h-161v313q0 32 -9 53t-27.5 31.5t-45.5 9.5q-21 0 -39 -6.5t-31 -19t-20.5 -28.5t-7.5 -35v-318h-79h-48h-33zM658 -210l-61 124q46 0 72 12t37 39.5t11 75.5v490
h160v-528q0 -73 -25 -120t-74 -70t-120 -23zM800 636q-45 0 -70.5 21.5t-25.5 61.5q0 36 26 59t70 23q45 0 70 -21.5t25 -60.5q0 -37 -25.5 -60t-69.5 -23z" />
    <glyph glyph-name="uni01CD" unicode="&#x1cd;" horiz-adv-x="694" 
d="M-1 0l277 700h144l275 -700h-172l-132 355q-8 21 -16 45t-16 49.5t-15.5 50t-12.5 45.5l30 1q-6 -25 -13.5 -49t-15 -47.5t-16.5 -47t-17 -48.5l-132 -354h-168zM131 134l53 128h322l52 -128h-427zM299 755l-134 107l50 56l147 -70h-30l147 70l50 -56l-134 -107h-96z" />
    <glyph glyph-name="uni01CE" unicode="&#x1ce;" horiz-adv-x="659" 
d="M267 -9q-67 0 -119.5 35.5t-83.5 98t-31 141.5q0 81 31 143t85 97.5t123 35.5q38 0 69.5 -11t55.5 -30.5t41 -45t25 -54.5l-33 4v126h159v-531h-162v128l36 1q-8 -28 -26 -53t-44 -44t-58 -30t-68 -11zM311 126q37 0 64 17t42 48.5t15 74.5t-15 74.5t-42 49t-64 17.5
q-36 0 -62.5 -17.5t-41.5 -49t-15 -74.5t15 -74.5t41.5 -48.5t62.5 -17zM282 607l-140 129l58 50l145 -86h-30l145 86l58 -50l-140 -129h-96z" />
    <glyph glyph-name="uni01CF" unicode="&#x1cf;" horiz-adv-x="555" 
d="M74 0v143h118v414h-118v143h407v-143h-119v-414h119v-143h-407zM229 755l-134 107l50 56l147 -70h-30l147 70l50 -56l-134 -107h-96z" />
    <glyph glyph-name="uni01D0" unicode="&#x1d0;" horiz-adv-x="289" 
d="M64 0v531h161v-531h-161zM96 607l-140 129l58 50l145 -86h-30l145 86l58 -50l-140 -129h-96z" />
    <glyph glyph-name="uni01D1" unicode="&#x1d1;" horiz-adv-x="812" 
d="M407 -10q-80 0 -146 27t-115 76t-76 115t-27 145t27 145t76 115t115 76t145 27t145 -27t115 -76t75.5 -115t26.5 -145q0 -78 -26.5 -144.5t-75.5 -115.5t-115 -76t-144 -27zM406 150q41 0 75.5 15t60 42.5t39.5 64.5t14 81t-14 81t-39.5 64.5t-60 42.5t-75.5 15
t-75.5 -15t-60.5 -42.5t-39.5 -64.5t-13.5 -81t13.5 -81.5t39.5 -64.5t60.5 -42t75.5 -15zM358 755l-134 107l50 56l147 -70h-30l147 70l50 -56l-134 -107h-96z" />
    <glyph glyph-name="uni01D2" unicode="&#x1d2;" horiz-adv-x="641" 
d="M321 -10q-83 0 -147.5 36t-102 98t-37.5 142t37.5 142t102 98t147.5 36t147.5 -36t101.5 -98t37 -142t-37 -142t-101.5 -98t-147.5 -36zM321 128q36 0 64 18t44 49t15 71q1 40 -15 71.5t-44 49.5t-64 18t-64.5 -18t-44.5 -49.5t-15 -71.5q-1 -40 15 -71t44.5 -49
t64.5 -18zM273 607l-140 129l58 50l145 -86h-30l145 86l58 -50l-140 -129h-96z" />
    <glyph glyph-name="uni01D3" unicode="&#x1d3;" horiz-adv-x="765" 
d="M383 -6q-87 0 -155 35.5t-106.5 97.5t-38.5 142v431h172v-422q0 -38 17 -68.5t46 -48t65 -17.5q38 0 67.5 17.5t47.5 48t18 68.5v422h166v-431q0 -80 -38.5 -142t-106.5 -97.5t-154 -35.5zM335 755l-134 107l50 56l147 -70h-30l147 70l50 -56l-134 -107h-96z" />
    <glyph glyph-name="uni01D4" unicode="&#x1d4;" horiz-adv-x="642" 
d="M252 -11q-59 0 -100.5 25.5t-64 73.5t-22.5 115v328h161v-306q0 -32 10 -55t30 -35.5t48 -12.5q21 0 38.5 7t30 19.5t19.5 29t7 36.5v317h161v-531h-151l-7 109l30 12q-12 -38 -40 -67.5t-67 -47t-83 -17.5zM273 607l-140 129l58 50l145 -86h-30l145 86l58 -50l-140 -129
h-96z" />
    <glyph glyph-name="Gcaron" unicode="&#x1e6;" horiz-adv-x="782" 
d="M413 -10q-84 0 -152 27t-117 76t-75 115.5t-26 144.5t27.5 143.5t78.5 114.5t120.5 76t151.5 27q58 0 109.5 -15t93.5 -41t71 -60l-103 -109q-25 24 -51.5 40t-56.5 25.5t-64 9.5q-44 0 -80.5 -16t-64 -44.5t-42.5 -67t-15 -83.5t16 -84t44 -67.5t66.5 -45t82.5 -16.5
q31 0 58.5 10t47.5 27t32 40.5t12 50.5v26l22 -34h-193v133h329q2 -11 3 -30t1.5 -37t0.5 -27q0 -68 -24.5 -124.5t-68.5 -97.5t-104 -64t-130 -23zM364 755l-134 107l50 56l147 -70h-30l147 70l50 -56l-134 -107h-96z" />
    <glyph glyph-name="gcaron" unicode="&#x1e7;" horiz-adv-x="669" 
d="M314 -230q-65 0 -129.5 19t-104.5 49l56 112q21 -14 46.5 -24.5t53.5 -16.5t57 -6q51 0 83 15t48 45.5t16 76.5v89l31 -5q-7 -33 -34.5 -60t-67.5 -43.5t-85 -16.5q-72 0 -128.5 33.5t-89 93t-32.5 137.5q0 80 32 141.5t88 97t126 35.5q30 0 57.5 -7t51 -18.5t42 -27
t30 -33.5t15.5 -37l-33 -8l6 120h152v-488q0 -65 -19.5 -115.5t-57 -86t-90.5 -53.5t-120 -18zM318 128q39 0 67.5 17.5t44 48.5t15.5 73t-15.5 73.5t-44 49t-67.5 17.5q-38 0 -66 -17.5t-43.5 -49t-15.5 -73.5t15.5 -73t43.5 -48.5t66 -17.5zM287 607l-140 129l58 50
l145 -86h-30l145 86l58 -50l-140 -129h-96z" />
    <glyph glyph-name="uni01EA" unicode="&#x1ea;" horiz-adv-x="812" 
d="M500 -211q-50 0 -83 30.5t-33 80.5q0 32 14.5 60t41 51.5t61 44t75.5 40.5l34 -47q-23 -14 -43.5 -28.5t-37 -29.5t-25.5 -31t-9 -34q0 -15 7.5 -24.5t20.5 -9.5q10 0 18 6t15 18l70 -51q-15 -30 -48.5 -53t-77.5 -23zM406 -10q-79 0 -145 27t-115 76t-76 115t-27 145
t27 145t76 115t115 76t145 27t145 -27t115 -76t75.5 -115t26.5 -145q0 -78 -26.5 -144.5t-75.5 -115.5t-115 -76t-145 -27zM406 150q41 0 75.5 15t60 42.5t39.5 64.5t14 81t-14 81t-39.5 64.5t-60 42.5t-75.5 15t-75.5 -15t-60.5 -42.5t-39.5 -64.5t-13.5 -81t13.5 -81.5
t39.5 -64.5t60.5 -42t75.5 -15z" />
    <glyph glyph-name="uni01EB" unicode="&#x1eb;" horiz-adv-x="641" 
d="M379 -205q-52 0 -82 31.5t-30 75.5q0 42 25.5 73.5t70.5 59.5t104 55l22 -51q-51 -29 -81 -53.5t-30 -54.5q0 -15 7.5 -24t18.5 -9q10 0 18.5 6t16.5 18l70 -51q-11 -18 -29 -35.5t-43.5 -29t-57.5 -11.5zM321 -10q-83 0 -147.5 36t-102 98t-37.5 142t37.5 142t102 98
t147.5 36t147.5 -36t101.5 -98t37 -142t-37 -142t-101.5 -98t-147.5 -36zM321 128q36 0 64 18t44 49t15 71q1 40 -15 71.5t-44 49.5t-64 18t-64.5 -18t-44.5 -49.5t-15 -71.5q-1 -40 15 -71t44.5 -49t64.5 -18z" />
    <glyph glyph-name="uni01F1" unicode="&#x1f1;" horiz-adv-x="1410" 
d="M88 0v700h293q77 0 141 -25.5t110.5 -72.5t71.5 -111t25 -141t-25 -141.5t-71.5 -111t-110.5 -72t-141 -25.5h-293zM258 116l-23 34h141q42 0 75 14.5t56.5 40.5t36.5 63t13 82t-13 82t-36.5 63t-56.5 40.5t-75 14.5h-144l26 32v-466zM787 0v113l376 500l59 -69h-409v156
h528v-112l-374 -501l-60 62h445v-149h-565z" />
    <glyph glyph-name="uni01F2" unicode="&#x1f2;" horiz-adv-x="1321" 
d="M88 0v700h293q77 0 141 -25.5t110.5 -72.5t71.5 -111t25 -141t-25 -141.5t-71.5 -111t-110.5 -72t-141 -25.5h-293zM258 116l-23 34h141q42 0 75 14.5t56.5 40.5t36.5 63t13 82t-13 82t-36.5 63t-56.5 40.5t-75 14.5h-144l26 32v-466zM821 0v92l282 362v-53h-282v130h440
v-96l-267 -351l-4 46h280v-130h-449z" />
    <glyph glyph-name="Aringacute" unicode="&#x1fa;" horiz-adv-x="694" 
d="M-1 0l277 700h144l275 -700h-172l-132 355q-8 21 -16 45t-16 49.5t-15.5 50t-12.5 45.5l30 1q-6 -25 -13.5 -49t-15 -47.5t-16.5 -47t-17 -48.5l-132 -354h-168zM131 134l53 128h322l52 -128h-427zM347 673q-35 0 -65.5 17t-49 45t-18.5 60q0 36 18.5 65.5t48.5 46.5
t66 17q35 0 65 -17t48.5 -46.5t18.5 -65.5q0 -32 -18.5 -60t-48.5 -45t-65 -17zM347 755q17 0 29 12t12 28q0 19 -12.5 30.5t-28.5 11.5q-17 0 -29 -11.5t-12 -30.5q0 -16 12 -28t29 -12zM258 941l-37 80l209 115l55 -117z" />
    <glyph glyph-name="aringacute" unicode="&#x1fb;" horiz-adv-x="659" 
d="M267 -9q-67 0 -119.5 35.5t-83.5 98t-31 141.5q0 81 31 143t85 97.5t123 35.5q38 0 69.5 -11t55.5 -30.5t41 -45t25 -54.5l-33 4v126h159v-531h-162v128l36 1q-8 -28 -26 -53t-44 -44t-58 -30t-68 -11zM311 126q37 0 64 17t42 48.5t15 74.5t-15 74.5t-42 49t-64 17.5
q-36 0 -62.5 -17.5t-41.5 -49t-15 -74.5t15 -74.5t41.5 -48.5t62.5 -17zM330 604q-31 0 -59 16t-44.5 42.5t-16.5 57.5q0 33 16 59.5t44 42.5t60 16q33 0 60.5 -16t44 -42.5t16.5 -59.5q0 -31 -17 -57.5t-44 -42.5t-60 -16zM330 685q16 0 26.5 10t10.5 25q0 17 -10.5 27
t-26.5 10t-26.5 -10t-10.5 -26t11 -26t26 -10zM251 864l-47 73l179 142l73 -105z" />
    <glyph glyph-name="AEacute" unicode="&#x1fc;" horiz-adv-x="1075" 
d="M-9 0l488 700h537v-140h-328v-138h283v-135h-283v-147h328v-140h-490v143h-269l91 133h178v282l25 -8l-376 -550h-184zM631 748l-37 80l209 115l55 -117z" />
    <glyph glyph-name="aeacute" unicode="&#x1fd;" horiz-adv-x="900" 
d="M214 -10q-51 0 -92 20t-65 55.5t-24 83.5q0 40 15.5 71t45.5 52t74.5 31t103.5 10h458l-9 -12v21q-2 25 -15 44.5t-34.5 30.5t-48.5 11q-40 0 -67.5 -15.5t-41.5 -45t-14 -72.5t20 -75.5t57 -51t87 -18.5q36 0 64 9.5t60 34.5l68 -107q-31 -27 -66 -43.5t-71 -25
t-72 -8.5q-88 0 -152.5 35t-99.5 96.5t-35 141.5q0 61 19.5 112t54.5 88.5t83 58t104 20.5q73 -1 129.5 -35.5t88 -95t30.5 -137.5l-1 -48h-591q-21 0 -37 -4.5t-27 -13t-16.5 -20t-5.5 -27.5q0 -15 7.5 -27.5t22 -19.5t32.5 -7q26 0 49.5 8.5t42.5 24.5t30 37l53 -81
q-21 -33 -55 -57t-75 -36.5t-84 -12.5zM357 248v84q0 20 -6 34t-18 23t-29 13.5t-38 4.5q-39 0 -67 -14.5t-52 -48.5l-95 94q26 31 61.5 54.5t80.5 36.5t95 13q48 0 86.5 -10.5t65.5 -32.5t42 -54.5t15 -77.5v-116zM378 589l-47 73l179 142l73 -105z" />
    <glyph glyph-name="Oslashacute" unicode="&#x1fe;" horiz-adv-x="807" 
d="M139 -33l-63 53l589 721l68 -47zM406 -10q-79 0 -145.5 27t-115.5 76t-75.5 115t-26.5 145t26.5 145t75.5 115t115.5 76t145.5 27t145 -27t115 -76t75.5 -115t26.5 -145q0 -78 -26.5 -144.5t-75.5 -115.5t-115 -76t-145 -27zM406 150q41 0 75.5 15t60 42.5t39.5 64.5
t14 81t-14 81t-39.5 64.5t-60 42.5t-75.5 15q-42 0 -76.5 -15t-60 -42.5t-39.5 -64.5t-14 -81t14 -81.5t39.5 -64.5t60 -42t76.5 -15zM315 748l-37 80l209 115l55 -117z" />
    <glyph glyph-name="oslashacute" unicode="&#x1ff;" horiz-adv-x="641" 
d="M120 -35l-66 48l462 547l67 -49zM321 -10q-83 0 -147.5 36t-102 98t-37.5 142t37.5 142t102 98t147.5 36t147.5 -36t101.5 -98t37 -142t-37 -142t-101.5 -98t-147.5 -36zM321 128q36 0 64 18t44 49t15 71q1 40 -15 71.5t-44 49.5t-64 18t-64.5 -18t-44.5 -49.5t-15 -71.5
q-1 -40 15 -71t44.5 -49t64.5 -18zM242 589l-47 73l179 142l73 -105z" />
    <glyph glyph-name="uni0200" unicode="&#x200;" horiz-adv-x="694" 
d="M-1 0l277 700h144l275 -700h-172l-132 355q-8 21 -16 45t-16 49.5t-15.5 50t-12.5 45.5l30 1q-6 -25 -13.5 -49t-15 -47.5t-16.5 -47t-17 -48.5l-132 -354h-168zM131 134l53 128h322l52 -128h-427zM470 743l-170 123l83 94l142 -152zM248 740l-177 120l82 98l149 -150z
" />
    <glyph glyph-name="uni0201" unicode="&#x201;" horiz-adv-x="659" 
d="M267 -9q-67 0 -119.5 35.5t-83.5 98t-31 141.5q0 81 31 143t85 97.5t123 35.5q38 0 69.5 -11t55.5 -30.5t41 -45t25 -54.5l-33 4v126h159v-531h-162v128l36 1q-8 -28 -26 -53t-44 -44t-58 -30t-68 -11zM311 126q37 0 64 17t42 48.5t15 74.5t-15 74.5t-42 49t-64 17.5
q-36 0 -62.5 -17.5t-41.5 -49t-15 -74.5t15 -74.5t41.5 -48.5t62.5 -17zM427 587l-170 140l95 84l142 -176zM221 590l-178 130l90 90l152 -169z" />
    <glyph glyph-name="uni0202" unicode="&#x202;" horiz-adv-x="694" 
d="M-1 0l277 700h144l275 -700h-172l-132 355q-8 21 -16 45t-16 49.5t-15.5 50t-12.5 45.5l30 1q-6 -25 -13.5 -49t-15 -47.5t-16.5 -47t-17 -48.5l-132 -354h-168zM131 134l53 128h322l52 -128h-427zM270 758l-102 12q9 45 34.5 79t62.5 53t82 19q46 0 82.5 -19t62 -53
t34.5 -79l-102 -12q-10 25 -31 42t-46 17t-46 -17t-31 -42z" />
    <glyph glyph-name="uni0203" unicode="&#x203;" horiz-adv-x="659" 
d="M267 -9q-67 0 -119.5 35.5t-83.5 98t-31 141.5q0 81 31 143t85 97.5t123 35.5q38 0 69.5 -11t55.5 -30.5t41 -45t25 -54.5l-33 4v126h159v-531h-162v128l36 1q-8 -28 -26 -53t-44 -44t-58 -30t-68 -11zM311 126q37 0 64 17t42 48.5t15 74.5t-15 74.5t-42 49t-64 17.5
q-36 0 -62.5 -17.5t-41.5 -49t-15 -74.5t15 -74.5t41.5 -48.5t62.5 -17zM253 611l-102 12q14 75 62 117.5t117 42.5t117 -42.5t62 -117.5l-102 -12q-11 32 -31.5 50t-45.5 18t-45.5 -18t-31.5 -50z" />
    <glyph glyph-name="uni0204" unicode="&#x204;" horiz-adv-x="645" 
d="M88 0v700h488v-145h-323v-410h333v-145h-498zM168 287v138h363v-138h-363zM465 743l-170 123l83 94l142 -152zM243 740l-177 120l82 98l149 -150z" />
    <glyph glyph-name="uni0205" unicode="&#x205;" horiz-adv-x="586" 
d="M324 -10q-88 0 -153 35.5t-101 97t-36 140.5q0 61 20 112t56 88.5t85.5 58t108.5 20.5q56 0 102.5 -20t80.5 -56t52 -85t16 -107l-1 -43h-423l-23 90h316l-17 -19v20q-2 25 -15.5 44.5t-35.5 30.5t-50 11q-39 0 -66.5 -15.5t-41.5 -45t-14 -72.5q0 -44 18.5 -76.5
t54 -50.5t84.5 -18q34 0 60.5 10t57.5 34l75 -106q-31 -27 -66 -44t-71.5 -25.5t-72.5 -8.5zM401 587l-170 140l95 84l142 -176zM195 590l-178 130l90 90l152 -169z" />
    <glyph glyph-name="uni0206" unicode="&#x206;" horiz-adv-x="645" 
d="M88 0v700h488v-145h-323v-410h333v-145h-498zM168 287v138h363v-138h-363zM266 758l-102 12q9 45 34.5 79t62.5 53t82 19q46 0 82.5 -19t62 -53t34.5 -79l-102 -12q-10 25 -31 42t-46 17t-46 -17t-31 -42z" />
    <glyph glyph-name="uni0207" unicode="&#x207;" horiz-adv-x="586" 
d="M324 -10q-88 0 -153 35.5t-101 97t-36 140.5q0 61 20 112t56 88.5t85.5 58t108.5 20.5q56 0 102.5 -20t80.5 -56t52 -85t16 -107l-1 -43h-423l-23 90h316l-17 -19v20q-2 25 -15.5 44.5t-35.5 30.5t-50 11q-39 0 -66.5 -15.5t-41.5 -45t-14 -72.5q0 -44 18.5 -76.5
t54 -50.5t84.5 -18q34 0 60.5 10t57.5 34l75 -106q-31 -27 -66 -44t-71.5 -25.5t-72.5 -8.5zM227 611l-102 12q14 75 62 117.5t117 42.5t117 -42.5t62 -117.5l-102 -12q-11 32 -31.5 50t-45.5 18t-45.5 -18t-31.5 -50z" />
    <glyph glyph-name="uni0208" unicode="&#x208;" horiz-adv-x="555" 
d="M74 0v143h118v414h-118v143h407v-143h-119v-414h119v-143h-407zM400 743l-170 123l83 94l142 -152zM178 740l-177 120l82 98l149 -150z" />
    <glyph glyph-name="uni0209" unicode="&#x209;" horiz-adv-x="289" 
d="M64 0v531h161v-531h-161zM241 587l-170 140l95 84l142 -176zM35 590l-178 130l90 90l152 -169z" />
    <glyph glyph-name="uni020A" unicode="&#x20a;" horiz-adv-x="555" 
d="M74 0v143h118v414h-118v143h407v-143h-119v-414h119v-143h-407zM200 758l-102 12q9 45 34.5 79t62.5 53t82 19q46 0 82.5 -19t62 -53t34.5 -79l-102 -12q-10 25 -31 42t-46 17t-46 -17t-31 -42z" />
    <glyph glyph-name="uni020B" unicode="&#x20b;" horiz-adv-x="289" 
d="M64 0v531h161v-531h-161zM67 611l-102 12q14 75 62 117.5t117 42.5t117 -42.5t62 -117.5l-102 -12q-11 32 -31.5 50t-45.5 18t-45.5 -18t-31.5 -50z" />
    <glyph glyph-name="uni020C" unicode="&#x20c;" horiz-adv-x="812" 
d="M407 -10q-80 0 -146 27t-115 76t-76 115t-27 145t27 145t76 115t115 76t145 27t145 -27t115 -76t75.5 -115t26.5 -145q0 -78 -26.5 -144.5t-75.5 -115.5t-115 -76t-144 -27zM406 150q41 0 75.5 15t60 42.5t39.5 64.5t14 81t-14 81t-39.5 64.5t-60 42.5t-75.5 15
t-75.5 -15t-60.5 -42.5t-39.5 -64.5t-13.5 -81t13.5 -81.5t39.5 -64.5t60.5 -42t75.5 -15zM529 743l-170 123l83 94l142 -152zM307 740l-177 120l82 98l149 -150z" />
    <glyph glyph-name="uni020D" unicode="&#x20d;" horiz-adv-x="641" 
d="M321 -10q-83 0 -147.5 36t-102 98t-37.5 142t37.5 142t102 98t147.5 36t147.5 -36t101.5 -98t37 -142t-37 -142t-101.5 -98t-147.5 -36zM321 128q36 0 64 18t44 49t15 71q1 40 -15 71.5t-44 49.5t-64 18t-64.5 -18t-44.5 -49.5t-15 -71.5q-1 -40 15 -71t44.5 -49
t64.5 -18zM417 587l-170 140l95 84l142 -176zM211 590l-178 130l90 90l152 -169z" />
    <glyph glyph-name="uni020E" unicode="&#x20e;" horiz-adv-x="812" 
d="M407 -10q-80 0 -146 27t-115 76t-76 115t-27 145t27 145t76 115t115 76t145 27t145 -27t115 -76t75.5 -115t26.5 -145q0 -78 -26.5 -144.5t-75.5 -115.5t-115 -76t-144 -27zM406 150q41 0 75.5 15t60 42.5t39.5 64.5t14 81t-14 81t-39.5 64.5t-60 42.5t-75.5 15
t-75.5 -15t-60.5 -42.5t-39.5 -64.5t-13.5 -81t13.5 -81.5t39.5 -64.5t60.5 -42t75.5 -15zM329 758l-102 12q9 45 34.5 79t62.5 53t82 19q46 0 82.5 -19t62 -53t34.5 -79l-102 -12q-10 25 -31 42t-46 17t-46 -17t-31 -42z" />
    <glyph glyph-name="uni020F" unicode="&#x20f;" horiz-adv-x="641" 
d="M321 -10q-83 0 -147.5 36t-102 98t-37.5 142t37.5 142t102 98t147.5 36t147.5 -36t101.5 -98t37 -142t-37 -142t-101.5 -98t-147.5 -36zM321 128q36 0 64 18t44 49t15 71q1 40 -15 71.5t-44 49.5t-64 18t-64.5 -18t-44.5 -49.5t-15 -71.5q-1 -40 15 -71t44.5 -49
t64.5 -18zM244 611l-102 12q14 75 62 117.5t117 42.5t117 -42.5t62 -117.5l-102 -12q-11 32 -31.5 50t-45.5 18t-45.5 -18t-31.5 -50z" />
    <glyph glyph-name="uni0210" unicode="&#x210;" horiz-adv-x="702" 
d="M88 0v700h315q67 0 121.5 -29t85.5 -79.5t31 -114.5q0 -66 -31 -118.5t-85 -82.5t-122 -30h-153v-246h-162zM476 0l-178 316l174 25l198 -341h-194zM250 376h138q26 0 45.5 11.5t30 32.5t10.5 48t-12 47.5t-34.5 31.5t-54.5 11h-123v-182zM456 743l-170 123l83 94
l142 -152zM234 740l-177 120l82 98l149 -150z" />
    <glyph glyph-name="uni0211" unicode="&#x211;" horiz-adv-x="455" 
d="M71 0v531h152l7 -173l-30 33q12 43 39.5 77t64.5 54t79 20q18 0 33.5 -3t28.5 -7l-44 -177q-11 7 -29.5 11.5t-38.5 4.5q-22 0 -41 -7.5t-32 -21.5t-20.5 -33t-7.5 -43v-266h-161zM359 587l-170 140l95 84l142 -176zM153 590l-178 130l90 90l152 -169z" />
    <glyph glyph-name="uni0212" unicode="&#x212;" horiz-adv-x="702" 
d="M88 0v700h315q67 0 121.5 -29t85.5 -79.5t31 -114.5q0 -66 -31 -118.5t-85 -82.5t-122 -30h-153v-246h-162zM476 0l-178 316l174 25l198 -341h-194zM250 376h138q26 0 45.5 11.5t30 32.5t10.5 48t-12 47.5t-34.5 31.5t-54.5 11h-123v-182zM256 758l-102 12q9 45 34.5 79
t62.5 53t82 19q46 0 82.5 -19t62 -53t34.5 -79l-102 -12q-10 25 -31 42t-46 17t-46 -17t-31 -42z" />
    <glyph glyph-name="uni0213" unicode="&#x213;" horiz-adv-x="455" 
d="M71 0v531h152l7 -173l-30 33q12 43 39.5 77t64.5 54t79 20q18 0 33.5 -3t28.5 -7l-44 -177q-11 7 -29.5 11.5t-38.5 4.5q-22 0 -41 -7.5t-32 -21.5t-20.5 -33t-7.5 -43v-266h-161zM185 611l-102 12q14 75 62 117.5t117 42.5t117 -42.5t62 -117.5l-102 -12
q-11 32 -31.5 50t-45.5 18t-45.5 -18t-31.5 -50z" />
    <glyph glyph-name="uni0214" unicode="&#x214;" horiz-adv-x="765" 
d="M383 -6q-87 0 -155 35.5t-106.5 97.5t-38.5 142v431h172v-422q0 -38 17 -68.5t46 -48t65 -17.5q38 0 67.5 17.5t47.5 48t18 68.5v422h166v-431q0 -80 -38.5 -142t-106.5 -97.5t-154 -35.5zM506 743l-170 123l83 94l142 -152zM284 740l-177 120l82 98l149 -150z" />
    <glyph glyph-name="uni0215" unicode="&#x215;" horiz-adv-x="642" 
d="M252 -11q-59 0 -100.5 25.5t-64 73.5t-22.5 115v328h161v-306q0 -32 10 -55t30 -35.5t48 -12.5q21 0 38.5 7t30 19.5t19.5 29t7 36.5v317h161v-531h-151l-7 109l30 12q-12 -38 -40 -67.5t-67 -47t-83 -17.5zM418 587l-170 140l95 84l142 -176zM212 590l-178 130l90 90
l152 -169z" />
    <glyph glyph-name="uni0216" unicode="&#x216;" horiz-adv-x="765" 
d="M383 -6q-87 0 -155 35.5t-106.5 97.5t-38.5 142v431h172v-422q0 -38 17 -68.5t46 -48t65 -17.5q38 0 67.5 17.5t47.5 48t18 68.5v422h166v-431q0 -80 -38.5 -142t-106.5 -97.5t-154 -35.5zM306 758l-102 12q9 45 34.5 79t62.5 53t82 19q46 0 82.5 -19t62 -53t34.5 -79
l-102 -12q-10 25 -31 42t-46 17t-46 -17t-31 -42z" />
    <glyph glyph-name="uni0217" unicode="&#x217;" horiz-adv-x="642" 
d="M252 -11q-59 0 -100.5 25.5t-64 73.5t-22.5 115v328h161v-306q0 -32 10 -55t30 -35.5t48 -12.5q21 0 38.5 7t30 19.5t19.5 29t7 36.5v317h161v-531h-151l-7 109l30 12q-12 -38 -40 -67.5t-67 -47t-83 -17.5zM244 611l-102 12q14 75 62 117.5t117 42.5t117 -42.5
t62 -117.5l-102 -12q-11 32 -31.5 50t-45.5 18t-45.5 -18t-31.5 -50z" />
    <glyph glyph-name="uni0218" unicode="&#x218;" horiz-adv-x="634" 
d="M320 -10q-69 0 -124.5 16.5t-98.5 48t-77 74.5l103 117q50 -67 100.5 -90t104.5 -23q27 0 49 7t34 20.5t12 33.5q0 15 -7.5 27t-20.5 21t-31 16.5t-38 13t-41 9.5q-58 13 -101 32t-71.5 46.5t-42.5 63t-14 79.5q0 47 21.5 86.5t58 68t84.5 44t100 15.5q69 0 118.5 -14.5
t85 -41.5t60.5 -65l-105 -101q-21 26 -45.5 43t-52 26t-56.5 9q-30 0 -51.5 -7.5t-33.5 -21t-12 -32.5q0 -17 10 -29t27 -21.5t39 -16t46 -10.5q55 -11 99.5 -29t77 -44t50 -61.5t17.5 -82.5q0 -73 -35.5 -123.5t-97 -77t-141.5 -26.5zM282 -294l-40 55q14 5 30.5 13.5
t29 20.5t12.5 24q0 8 -5.5 12.5t-18.5 10.5q-21 8 -30 20.5t-9 32.5q0 32 23 48.5t58 16.5q42 0 71 -24.5t29 -72.5q0 -29 -10.5 -53.5t-30 -44t-47.5 -34t-62 -25.5z" />
    <glyph glyph-name="uni0219" unicode="&#x219;" horiz-adv-x="495" 
d="M250 -10q-78 0 -137.5 25t-94.5 67l97 84q31 -31 70 -45.5t74 -14.5q14 0 25 3t18.5 8.5t11.5 13t4 17.5q0 20 -18 31q-9 5 -30 12t-54 16q-47 12 -81.5 28.5t-56.5 38.5q-20 21 -31 46.5t-11 57.5q0 37 17.5 67t47 52t68 33.5t79.5 11.5q44 0 84 -10t74.5 -28t61.5 -43
l-84 -94q-18 17 -40.5 30.5t-46.5 21.5t-44 8q-15 0 -26.5 -2.5t-19.5 -8t-12 -13t-4 -17.5t5.5 -19t15.5 -15t32 -13.5t60 -18.5q47 -13 81 -29t54 -38q16 -17 24 -39.5t8 -48.5q0 -51 -28.5 -90.5t-78.5 -62t-114 -22.5zM197 -293l-40 55q14 4 30.5 13t29 20t12.5 24
q0 9 -5.5 13.5t-18.5 9.5q-21 8 -30 20.5t-9 33.5q0 32 24 48.5t60 16.5q41 0 69 -25.5t28 -74.5q0 -26 -10.5 -48.5t-30 -42t-47.5 -35.5t-62 -28z" />
    <glyph glyph-name="uni021A" unicode="&#x21a;" horiz-adv-x="655" 
d="M240 0v550h-208v150h591v-150h-213v-550h-170zM273 -294l-40 55q14 5 30.5 13.5t29 20.5t12.5 24q0 8 -5.5 12.5t-18.5 10.5q-21 8 -30 20.5t-9 32.5q0 32 23 48.5t58 16.5q42 0 71 -24.5t29 -72.5q0 -29 -10.5 -53.5t-30 -44t-47.5 -34t-62 -25.5z" />
    <glyph glyph-name="uni021B" unicode="&#x21b;" horiz-adv-x="398" 
d="M115 0v665h160v-665h-160zM21 391v140h357v-140h-357zM144 -293l-40 55q14 4 30.5 13t29 20t12.5 24q0 9 -5.5 13.5t-18.5 9.5q-21 8 -30 20.5t-9 33.5q0 32 24 48.5t60 16.5q41 0 69 -25.5t28 -74.5q0 -26 -10.5 -48.5t-30 -42t-47.5 -35.5t-62 -28z" />
    <glyph glyph-name="uni022A" unicode="&#x22a;" horiz-adv-x="812" 
d="M407 -10q-80 0 -146 27t-115 76t-76 115t-27 145t27 145t76 115t115 76t145 27t145 -27t115 -76t75.5 -115t26.5 -145q0 -78 -26.5 -144.5t-75.5 -115.5t-115 -76t-144 -27zM406 150q41 0 75.5 15t60 42.5t39.5 64.5t14 81t-14 81t-39.5 64.5t-60 42.5t-75.5 15
t-75.5 -15t-60.5 -42.5t-39.5 -64.5t-13.5 -81t13.5 -81.5t39.5 -64.5t60.5 -42t75.5 -15zM527 754q-43 0 -65 22.5t-22 62.5q0 36 23 60.5t64 24.5q42 0 64.5 -22.5t22.5 -62.5q0 -36 -23 -60.5t-64 -24.5zM284 754q-43 0 -65 22.5t-22 62.5q0 36 22.5 60.5t64.5 24.5
t64 -22.5t22 -62.5q0 -36 -22.5 -60.5t-63.5 -24.5zM226 979v101h359v-101h-359z" />
    <glyph glyph-name="uni022B" unicode="&#x22b;" horiz-adv-x="641" 
d="M321 -10q-83 0 -147.5 36t-102 98t-37.5 142t37.5 142t102 98t147.5 36t147.5 -36t101.5 -98t37 -142t-37 -142t-101.5 -98t-147.5 -36zM321 128q36 0 64 18t44 49t15 71q1 40 -15 71.5t-44 49.5t-64 18t-64.5 -18t-44.5 -49.5t-15 -71.5q-1 -40 15 -71t44.5 -49
t64.5 -18zM441 632q-42 0 -64.5 22t-22.5 63q0 38 23.5 61.5t63.5 23.5q41 0 63.5 -22t22.5 -63q0 -38 -23 -61.5t-63 -23.5zM200 632q-42 0 -64.5 22t-22.5 63q0 38 23.5 61.5t63.5 23.5q42 0 64.5 -22t22.5 -63q0 -38 -23.5 -61.5t-63.5 -23.5zM153 853v101h336v-101h-336
z" />
    <glyph glyph-name="uni022C" unicode="&#x22c;" horiz-adv-x="812" 
d="M407 -10q-80 0 -146 27t-115 76t-76 115t-27 145t27 145t76 115t115 76t145 27t145 -27t115 -76t75.5 -115t26.5 -145q0 -78 -26.5 -144.5t-75.5 -115.5t-115 -76t-144 -27zM406 150q41 0 75.5 15t60 42.5t39.5 64.5t14 81t-14 81t-39.5 64.5t-60 42.5t-75.5 15
t-75.5 -15t-60.5 -42.5t-39.5 -64.5t-13.5 -81t13.5 -81.5t39.5 -64.5t60.5 -42t75.5 -15zM483 768q-20 0 -40 6t-44 16q-18 9 -30.5 13t-22.5 4q-14 0 -22.5 -10t-8.5 -28h-100q0 66 36.5 103.5t91.5 37.5q18 0 35.5 -5t44.5 -17q16 -8 27 -12t20 -4q13 0 20.5 10.5
t6.5 27.5h99q0 -38 -14.5 -71t-39.5 -52t-59 -19zM226 979v101h359v-101h-359z" />
    <glyph glyph-name="uni022D" unicode="&#x22d;" horiz-adv-x="641" 
d="M321 -10q-83 0 -147.5 36t-102 98t-37.5 142t37.5 142t102 98t147.5 36t147.5 -36t101.5 -98t37 -142t-37 -142t-101.5 -98t-147.5 -36zM321 128q36 0 64 18t44 49t15 71q1 40 -15 71.5t-44 49.5t-64 18t-64.5 -18t-44.5 -49.5t-15 -71.5q-1 -40 15 -71t44.5 -49
t64.5 -18zM389 614q-17 0 -35 6t-41 22q-17 14 -28 19.5t-18 5.5q-14 0 -25 -11.5t-14 -36.5l-89 13q1 56 32 96t83 40q17 0 34 -6t40 -21q13 -11 24.5 -18.5t22.5 -7.5q14 0 24.5 12.5t12.5 35.5l90 -13q-1 -35 -15 -66.5t-39.5 -50.5t-58.5 -19zM153 848v101h336v-101
h-336z" />
    <glyph glyph-name="uni0230" unicode="&#x230;" horiz-adv-x="812" 
d="M407 -10q-80 0 -146 27t-115 76t-76 115t-27 145t27 145t76 115t115 76t145 27t145 -27t115 -76t75.5 -115t26.5 -145q0 -78 -26.5 -144.5t-75.5 -115.5t-115 -76t-144 -27zM406 150q41 0 75.5 15t60 42.5t39.5 64.5t14 81t-14 81t-39.5 64.5t-60 42.5t-75.5 15
t-75.5 -15t-60.5 -42.5t-39.5 -64.5t-13.5 -81t13.5 -81.5t39.5 -64.5t60.5 -42t75.5 -15zM406 756q-46 0 -70.5 22t-24.5 61q0 35 25 59t70 24q46 0 70.5 -22t24.5 -61q0 -35 -25 -59t-70 -24zM226 979v101h359v-101h-359z" />
    <glyph glyph-name="uni0231" unicode="&#x231;" horiz-adv-x="641" 
d="M321 -10q-83 0 -147.5 36t-102 98t-37.5 142t37.5 142t102 98t147.5 36t147.5 -36t101.5 -98t37 -142t-37 -142t-101.5 -98t-147.5 -36zM321 128q36 0 64 18t44 49t15 71q1 40 -15 71.5t-44 49.5t-64 18t-64.5 -18t-44.5 -49.5t-15 -71.5q-1 -40 15 -71t44.5 -49
t64.5 -18zM321 636q-45 0 -70 21.5t-25 61.5q0 36 25.5 59.5t69.5 23.5q45 0 70 -21.5t25 -61.5q0 -37 -25.5 -60t-69.5 -23zM153 853v101h336v-101h-336z" />
    <glyph glyph-name="uni0232" unicode="&#x232;" horiz-adv-x="689" 
d="M269 0v349l7 -49l-283 400h193l216 -310l-88 3l195 307h187l-271 -411l15 68v-357h-171zM164 789v101h359v-101h-359z" />
    <glyph glyph-name="uni0233" unicode="&#x233;" horiz-adv-x="620" 
d="M138 -230l121 285l2 -82l-256 558h181l112 -267q9 -20 17 -43t12 -44l-22 -13q6 15 13.5 37.5t16.5 48.5l98 281h182l-226 -531l-92 -230h-159zM143 640v101h336v-101h-336z" />
    <glyph glyph-name="uni0237" unicode="&#x237;" horiz-adv-x="315" 
d="M22 -210l-60 124q45 0 71.5 12t37.5 39.5t11 75.5v490h160v-528q0 -73 -25.5 -120t-74.5 -70t-120 -23z" />
    <glyph glyph-name="uni0259" unicode="&#x259;" horiz-adv-x="586" 
d="M282 -11q-74 0 -130.5 34.5t-88.5 95.5t-32 138l1 43h423l23 -90h-316l17 19v-21q2 -24 15 -43.5t35.5 -30.5t50.5 -11q40 0 67 15.5t41 45t14 71.5q0 44 -18.5 76.5t-53.5 51t-85 18.5q-34 0 -60.5 -10t-57.5 -34l-75 106q32 27 66.5 44t71 25.5t72.5 8.5
q89 0 153.5 -35.5t100.5 -97t36 -141.5q0 -60 -20 -111t-56 -88.5t-85.5 -58t-108.5 -20.5z" />
    <glyph glyph-name="uni0272" unicode="&#x272;" horiz-adv-x="646" 
d="M23 -210l-61 124q34 0 57 6t37 19t20 34.5t6 52.5v505h152l5 -111l-18 22q16 29 43.5 51t62.5 35.5t72 13.5q60 0 101 -24.5t62 -72.5t21 -119v-326h-161v313q0 32 -9 53t-27 31.5t-46 9.5q-21 0 -39 -6.5t-31 -19t-20.5 -28.5t-7.5 -35v-316q-1 -68 -27 -115t-74.5 -72
t-117.5 -25z" />
    <glyph glyph-name="uni02BB" unicode="&#x2bb;" horiz-adv-x="276" 
d="M147 432q-30 0 -54.5 16t-38.5 44t-14 65q0 32 12 62.5t34.5 57t52.5 47t65 29.5l46 -56q-42 -18 -67.5 -44.5t-25.5 -44.5q0 -11 7.5 -21.5t22.5 -19.5q23 -17 32 -33t9 -35q0 -31 -22.5 -49t-58.5 -18z" />
    <glyph glyph-name="uni02BC" unicode="&#x2bc;" horiz-adv-x="252" 
d="M44 436l21 264h164l-84 -264h-101z" />
    <glyph glyph-name="uni02BE" unicode="&#x2be;" horiz-adv-x="220" 
d="M52 520v81q16 0 26 10t10 25q0 16 -10 26t-26 10l1 82q32 -1 59.5 -17t44 -42t16.5 -59q0 -31 -17 -57.5t-44 -42.5t-60 -16z" />
    <glyph glyph-name="uni02BF" unicode="&#x2bf;" horiz-adv-x="220" 
d="M160 520q-31 0 -58.5 16t-45 42t-17.5 58q0 33 16.5 59t44 42t60.5 17v-82q-15 0 -25.5 -9.5t-10.5 -26.5q0 -15 10.5 -25t25.5 -10v-81z" />
    <glyph glyph-name="circumflex" unicode="&#x2c6;" horiz-adv-x="500" 
d="M116 595l-58 50l144 129h96l144 -129l-58 -50l-149 86h30z" />
    <glyph glyph-name="caron" unicode="&#x2c7;" horiz-adv-x="500" 
d="M202 601l-140 129l58 50l145 -86h-30l145 86l58 -50l-140 -129h-96z" />
    <glyph glyph-name="uni02C8" unicode="&#x2c8;" horiz-adv-x="231" 
d="M67 368v344h97v-344h-97z" />
    <glyph glyph-name="uni02CC" unicode="&#x2cc;" horiz-adv-x="253" 
d="M63 -147v344h127v-344h-127z" />
    <glyph glyph-name="breve" unicode="&#x2d8;" horiz-adv-x="402" 
d="M250 595q-69 0 -117 43t-62 117l102 12q11 -31 31.5 -49.5t45.5 -18.5t45.5 18.5t31.5 49.5l102 -12q-14 -74 -62 -117t-117 -43z" />
    <glyph glyph-name="dotaccent" unicode="&#x2d9;" horiz-adv-x="500" 
d="M250 630q-45 0 -70 21.5t-25 61.5q0 36 25.5 59.5t69.5 23.5q45 0 70 -21.5t25 -61.5q0 -37 -25.5 -60t-69.5 -23z" />
    <glyph glyph-name="ring" unicode="&#x2da;" horiz-adv-x="500" 
d="M250 598q-31 0 -59 16t-44.5 42.5t-16.5 57.5q0 33 16 59.5t44 42.5t60 16q33 0 60.5 -16t44 -42.5t16.5 -59.5q0 -31 -17 -57.5t-44 -42.5t-60 -16zM250 679q16 0 26.5 10t10.5 25q0 17 -10.5 27t-26.5 10t-26.5 -10t-10.5 -26t11 -26t26 -10z" />
    <glyph glyph-name="ogonek" unicode="&#x2db;" horiz-adv-x="500" 
d="M250 -211q-34 0 -61.5 15t-43 40t-15.5 56q0 26 10.5 47.5t32 39.5t54 33t75.5 26l40 -46q-28 -6 -51 -18.5t-36.5 -28t-13.5 -33.5q0 -12 7.5 -19.5t19.5 -7.5q10 0 17.5 5.5t15.5 17.5l69 -51q-9 -18 -27 -35.5t-41 -29t-52 -11.5z" />
    <glyph glyph-name="tilde" unicode="&#x2dc;" horiz-adv-x="500" 
d="M319 608q-17 0 -35 6t-41 22q-17 14 -28 19.5t-18 5.5q-14 0 -25 -11.5t-14 -36.5l-89 13q1 56 32 96t83 40q17 0 34 -6t40 -21q13 -11 24.5 -18.5t22.5 -7.5q14 0 24.5 12.5t12.5 35.5l90 -13q-1 -35 -15 -66.5t-39.5 -50.5t-58.5 -19z" />
    <glyph glyph-name="hungarumlaut" unicode="&#x2dd;" horiz-adv-x="500" 
d="M297 584l-64 51l153 169l90 -90zM92 581l-67 48l141 176l95 -84z" />
    <glyph glyph-name="gravecomb" unicode="&#x300;" 
d="M329 584l-205 110l73 104l179 -142z" />
    <glyph glyph-name="acutecomb" unicode="&#x301;" 
d="M171 583l-47 73l179 142l73 -105z" />
    <glyph glyph-name="uni0302" unicode="&#x302;" 
d="M116 595l-58 50l144 129h96l144 -129l-58 -50l-149 86h30z" />
    <glyph glyph-name="tildecomb" unicode="&#x303;" 
d="M319 608q-17 0 -35 6t-41 22q-17 14 -28 19.5t-18 5.5q-14 0 -25 -11.5t-14 -36.5l-89 13q1 56 32 96t83 40q17 0 34 -6t40 -21q13 -11 24.5 -18.5t22.5 -7.5q14 0 24.5 12.5t12.5 35.5l90 -13q-1 -35 -15 -66.5t-39.5 -50.5t-58.5 -19z" />
    <glyph glyph-name="uni0304" unicode="&#x304;" 
d="M82 634v101h336v-101h-336z" />
    <glyph glyph-name="uni0306" unicode="&#x306;" 
d="M250 595q-69 0 -117 43t-62 117l102 12q11 -31 31.5 -49.5t45.5 -18.5t45.5 18.5t31.5 49.5l102 -12q-14 -74 -62 -117t-117 -43z" />
    <glyph glyph-name="uni0307" unicode="&#x307;" 
d="M250 630q-45 0 -70 21.5t-25 61.5q0 36 25.5 59.5t69.5 23.5q45 0 70 -21.5t25 -61.5q0 -37 -25.5 -60t-69.5 -23z" />
    <glyph glyph-name="uni0308" unicode="&#x308;" 
d="M371 626q-42 0 -64.5 22t-22.5 63q0 38 23.5 61.5t63.5 23.5q41 0 63.5 -22t22.5 -63q0 -38 -23 -61.5t-63 -23.5zM130 626q-42 0 -64.5 22t-22.5 63q0 38 23.5 61.5t63.5 23.5q42 0 64.5 -22t22.5 -63q0 -38 -23.5 -61.5t-63.5 -23.5z" />
    <glyph glyph-name="hookabovecomb" unicode="&#x309;" 
d="M225 586q-7 9 -13 19.5t-6 22.5q0 13 6.5 24.5t24.5 23.5q14 10 22 16.5t8 16.5q0 9 -8.5 13.5t-21.5 4.5q-20 0 -42 -6t-44 -15l-23 84q22 12 54.5 21t66.5 9q57 0 90.5 -24.5t33.5 -66.5q0 -32 -14 -49t-30 -28q-16 -9 -26.5 -18.5t-10.5 -19.5q0 -3 1 -6.5t2 -6.5z
" />
    <glyph glyph-name="uni030A" unicode="&#x30a;" 
d="M250 598q-31 0 -59 16t-44.5 42.5t-16.5 57.5q0 33 16 59.5t44 42.5t60 16q33 0 60.5 -16t44 -42.5t16.5 -59.5q0 -31 -17 -57.5t-44 -42.5t-60 -16zM250 679q16 0 26.5 10t10.5 25q0 17 -10.5 27t-26.5 10t-26.5 -10t-10.5 -26t11 -26t26 -10z" />
    <glyph glyph-name="uni030B" unicode="&#x30b;" 
d="M297 584l-64 51l153 169l90 -90zM92 581l-67 48l141 176l95 -84z" />
    <glyph glyph-name="uni030C" unicode="&#x30c;" 
d="M202 601l-140 129l58 50l145 -86h-30l145 86l58 -50l-140 -129h-96z" />
    <glyph glyph-name="uni030F" unicode="&#x30f;" 
d="M409 581l-170 140l95 84l142 -176zM203 584l-178 130l90 90l152 -169z" />
    <glyph glyph-name="uni0311" unicode="&#x311;" 
d="M173 605l-102 12q14 75 62 117.5t117 42.5t117 -42.5t62 -117.5l-102 -12q-11 32 -31.5 50t-45.5 18t-45.5 -18t-31.5 -50z" />
    <glyph glyph-name="uni0312" unicode="&#x312;" 
d="M252 590q-38 0 -67.5 24t-29.5 76q0 29 12.5 52.5t34 42.5t48.5 33.5t55 25.5l40 -55q-13 -4 -30 -12.5t-29.5 -20t-12.5 -25.5q0 -10 7 -14t18 -9q17 -8 27.5 -19t10.5 -34q0 -33 -24.5 -49t-59.5 -16z" />
    <glyph glyph-name="uni031B" unicode="&#x31b;" 
d="M143 450v98q47 0 70 28.5t23 85.5h122q0 -60 -24 -108t-71.5 -76t-119.5 -28z" />
    <glyph glyph-name="dotbelowcomb" unicode="&#x323;" 
d="M250 -224q-46 0 -72 22.5t-26 62.5q0 38 26.5 61.5t71.5 23.5q46 0 72 -22t26 -63q0 -37 -26.5 -61t-71.5 -24z" />
    <glyph glyph-name="uni0324" unicode="&#x324;" 
d="M371 -224q-42 0 -64.5 22t-22.5 63q0 37 23.5 61t63.5 24q41 0 63.5 -22t22.5 -63q0 -38 -23 -61.5t-63 -23.5zM130 -224q-42 0 -64.5 22t-22.5 63q0 37 23.5 61t63.5 24q42 0 64.5 -22t22.5 -63q0 -38 -23.5 -61.5t-63.5 -23.5z" />
    <glyph glyph-name="uni0326" unicode="&#x326;" 
d="M195 -293l-40 55q14 4 30.5 13t29 20t12.5 24q0 9 -5.5 13.5t-18.5 9.5q-21 8 -30 20.5t-9 33.5q0 32 24 48.5t60 16.5q41 0 69 -25.5t28 -74.5q0 -26 -10.5 -48.5t-30 -42t-47.5 -35.5t-62 -28z" />
    <glyph glyph-name="uni0327" unicode="&#x327;" 
d="M152 -246l-10 75q21 0 43.5 5t38 14.5t15.5 20.5q0 12 -11.5 19t-27.5 10.5t-32 3.5l-17 14l69 108h82l-46 -67q52 -6 77.5 -32.5t25.5 -63.5q0 -31 -19.5 -51.5t-50.5 -33.5t-67 -18t-70 -4z" />
    <glyph glyph-name="uni0328" unicode="&#x328;" 
d="M250 -211q-34 0 -61.5 15t-43 40t-15.5 56q0 26 10.5 47.5t32 39.5t54 33t75.5 26l40 -46q-28 -6 -51 -18.5t-36.5 -28t-13.5 -33.5q0 -12 7.5 -19.5t19.5 -7.5q10 0 17.5 5.5t15.5 17.5l69 -51q-9 -18 -27 -35.5t-41 -29t-52 -11.5z" />
    <glyph glyph-name="uni032E" unicode="&#x32e;" 
d="M250 -235q-68 0 -116.5 42.5t-62.5 117.5l102 12q11 -32 32 -50t45 -18t45 18t32 50l102 -12q-14 -75 -62.5 -117.5t-116.5 -42.5z" />
    <glyph glyph-name="uni0331" unicode="&#x331;" 
d="M97 -198v118h306v-118h-306z" />
    <glyph glyph-name="uni0335" unicode="&#x335;" 
d="M87 234v118h326v-118h-326z" />
    <glyph glyph-name="uni0394" unicode="&#x394;" horiz-adv-x="711" 
d="M-3 0l358 735l363 -735h-721zM168 64l-52 65h488l-60 -68l-231 469h84z" />
    <glyph glyph-name="uni03A9" unicode="&#x3a9;" horiz-adv-x="727" 
d="M50 0v143h186l-44 -32q-48 45 -85 94.5t-58 102.5t-21 107q0 65 25 120t71 95.5t107 63t133 22.5q71 0 132.5 -22.5t107 -63t70.5 -95.5t25 -120q0 -54 -20.5 -107t-57.5 -102.5t-86 -94.5l-41 32h183v-143h-269v153q17 17 33 34t29.5 32.5t21.5 29.5q14 23 24.5 45.5
t15.5 48t5 54.5q0 35 -12.5 65t-36.5 51.5t-55.5 34t-68.5 12.5q-38 0 -69.5 -12.5t-55 -34t-36.5 -51.5t-13 -65q0 -34 8 -63.5t22 -55.5t33 -51q9 -14 18 -25.5t18 -20.5t16.5 -16t13.5 -12v-153h-269z" />
    <glyph glyph-name="uni03BC" unicode="&#x3bc;" horiz-adv-x="639" 
d="M74 -162v693h158v-309q0 -33 9.5 -55t27.5 -33.5t45 -11.5q21 0 38.5 7.5t30.5 21t20 31t7 37.5v312h158v-531h-148l-6 100l15 -10q-20 -35 -43.5 -56.5t-53.5 -32t-68 -12.5q-12 0 -22.5 3t-18 8.5t-11.5 12.5l14 53l6 -228h-158z" />
    <glyph glyph-name="pi" unicode="&#x3c0;" horiz-adv-x="646" 
d="M105 0v481l17 -90h-91v140h592v-140h-83l9 52v-443h-150v465l10 -74h-166l13 52v-443h-151z" />
    <glyph glyph-name="uni1E08" unicode="&#x1e08;" horiz-adv-x="694" 
d="M406 -10q-79 0 -145.5 26.5t-115.5 75t-75.5 115t-26.5 146.5q0 78 28 144t77.5 114.5t117 75.5t147.5 27q50 0 98 -13t89.5 -38.5t71.5 -60.5l-104 -119q-21 22 -44.5 38.5t-51.5 25.5t-60 9q-40 0 -75.5 -14.5t-62 -41t-41.5 -64.5t-15 -85q0 -46 15 -83.5t42 -64.5
t65.5 -41t85.5 -14q32 0 61 9t53.5 24.5t43.5 35.5l82 -130q-25 -28 -66.5 -50t-92 -34.5t-101.5 -12.5zM298 -246l-9 75q20 0 42.5 5t38.5 14.5t16 20.5q0 12 -11.5 19t-27.5 10.5t-32 3.5l-18 14l69 108h82l-45 -67q52 -6 77 -32.5t25 -63.5q0 -31 -19 -51.5t-50 -33.5
t-67 -18t-71 -4zM322 748l-37 80l209 115l55 -117z" />
    <glyph glyph-name="uni1E09" unicode="&#x1e09;" horiz-adv-x="545" 
d="M304 -10q-77 0 -138 36t-96.5 98.5t-35.5 141.5t35.5 141.5t96.5 98.5t138 36q71 0 130.5 -25t94.5 -70l-87 -104q-14 16 -33 30t-42 22t-48 8q-38 0 -67 -17.5t-45 -48.5t-16 -71q0 -38 16.5 -69t45.5 -49t66 -18q26 0 48 6.5t40.5 19.5t34.5 32l86 -105
q-34 -43 -94.5 -68t-129.5 -25zM206 -246l-10 75q21 0 43.5 5t38 14.5t15.5 20.5q0 12 -11.5 19t-27.5 10.5t-32 3.5l-17 14l69 108h82l-46 -67q52 -6 77.5 -32.5t25.5 -63.5q0 -31 -19.5 -51.5t-50.5 -33.5t-67 -18t-70 -4zM225 589l-47 73l179 142l73 -105z" />
    <glyph glyph-name="uni1E0C" unicode="&#x1e0c;" horiz-adv-x="772" 
d="M88 0v700h293q77 0 141 -25.5t110.5 -72.5t71.5 -111t25 -141t-25 -141.5t-71.5 -111t-110.5 -72t-141 -25.5h-293zM258 116l-23 34h141q42 0 75 14.5t56.5 40.5t36.5 63t13 82t-13 82t-36.5 63t-56.5 40.5t-75 14.5h-144l26 32v-466zM386 -224q-46 0 -72 22.5t-26 62.5
q0 38 26.5 61.5t71.5 23.5q46 0 72 -22t26 -63q0 -37 -26.5 -61t-71.5 -24z" />
    <glyph glyph-name="uni1E0D" unicode="&#x1e0d;" horiz-adv-x="654" 
d="M272 -11q-69 0 -122.5 35.5t-84.5 98t-31 142.5t31 142.5t85 98.5t124 36q36 0 69 -11t60 -30t44 -43.5t20 -50.5l-38 -9v342h161v-740h-149l-9 121l32 -5q-3 -25 -19.5 -48t-42.5 -40.5t-59.5 -28t-70.5 -10.5zM313 122q37 0 64 18t41.5 50t14.5 75q0 44 -14.5 76
t-41.5 50t-64 18t-63.5 -18t-41.5 -50t-15 -76q0 -43 15 -75t41.5 -50t63.5 -18zM327 -224q-46 0 -72 22.5t-26 62.5q0 38 26.5 61.5t71.5 23.5q46 0 72 -22t26 -63q0 -37 -26.5 -61t-71.5 -24z" />
    <glyph glyph-name="uni1E0E" unicode="&#x1e0e;" horiz-adv-x="772" 
d="M88 0v700h293q77 0 141 -25.5t110.5 -72.5t71.5 -111t25 -141t-25 -141.5t-71.5 -111t-110.5 -72t-141 -25.5h-293zM258 116l-23 34h141q42 0 75 14.5t56.5 40.5t36.5 63t13 82t-13 82t-36.5 63t-56.5 40.5t-75 14.5h-144l26 32v-466zM233 -198v118h306v-118h-306z" />
    <glyph glyph-name="uni1E0F" unicode="&#x1e0f;" horiz-adv-x="654" 
d="M272 -11q-69 0 -122.5 35.5t-84.5 98t-31 142.5t31 142.5t85 98.5t124 36q36 0 69 -11t60 -30t44 -43.5t20 -50.5l-38 -9v342h161v-740h-149l-9 121l32 -5q-3 -25 -19.5 -48t-42.5 -40.5t-59.5 -28t-70.5 -10.5zM313 122q37 0 64 18t41.5 50t14.5 75q0 44 -14.5 76
t-41.5 50t-64 18t-63.5 -18t-41.5 -50t-15 -76q0 -43 15 -75t41.5 -50t63.5 -18zM174 -198v118h306v-118h-306z" />
    <glyph glyph-name="uni1E14" unicode="&#x1e14;" horiz-adv-x="645" 
d="M88 0v700h488v-145h-323v-410h333v-145h-498zM168 287v138h363v-138h-363zM163 789v101h359v-101h-359zM441 938l-227 78l55 117l209 -115z" />
    <glyph glyph-name="uni1E15" unicode="&#x1e15;" horiz-adv-x="586" 
d="M324 -10q-88 0 -153 35.5t-101 97t-36 140.5q0 61 20 112t56 88.5t85.5 58t108.5 20.5q56 0 102.5 -20t80.5 -56t52 -85t16 -107l-1 -43h-423l-23 90h316l-17 -19v20q-2 25 -15.5 44.5t-35.5 30.5t-50 11q-39 0 -66.5 -15.5t-41.5 -45t-14 -72.5q0 -44 18.5 -76.5
t54 -50.5t84.5 -18q34 0 60.5 10t57.5 34l75 -106q-31 -27 -66 -44t-71.5 -25.5t-72.5 -8.5zM314 777l-127 136l101 73l94 -165zM136 630v101h336v-101h-336z" />
    <glyph glyph-name="uni1E16" unicode="&#x1e16;" horiz-adv-x="645" 
d="M88 0v700h488v-145h-323v-410h333v-145h-498zM168 287v138h363v-138h-363zM163 789v101h359v-101h-359zM254 938l-37 80l209 115l55 -117z" />
    <glyph glyph-name="uni1E17" unicode="&#x1e17;" horiz-adv-x="586" 
d="M324 -10q-88 0 -153 35.5t-101 97t-36 140.5q0 61 20 112t56 88.5t85.5 58t108.5 20.5q56 0 102.5 -20t80.5 -56t52 -85t16 -107l-1 -43h-423l-23 90h316l-17 -19v20q-2 25 -15.5 44.5t-35.5 30.5t-50 11q-39 0 -66.5 -15.5t-41.5 -45t-14 -72.5q0 -44 18.5 -76.5
t54 -50.5t84.5 -18q34 0 60.5 10t57.5 34l75 -106q-31 -27 -66 -44t-71.5 -25.5t-72.5 -8.5zM136 630v101h336v-101h-336zM310 777l-67 44l94 165l101 -73z" />
    <glyph glyph-name="uni1E1C" unicode="&#x1e1c;" horiz-adv-x="645" 
d="M88 0v700h488v-145h-323v-410h333v-145h-498zM168 287v138h363v-138h-363zM223 -246l-9 75q20 0 42.5 5t38.5 14.5t16 20.5q0 12 -11.5 19t-27.5 10.5t-32 3.5l-18 14l69 108h82l-45 -67q52 -6 77 -32.5t25 -63.5q0 -31 -19 -51.5t-50 -33.5t-67 -18t-71 -4zM343 757
q-45 0 -82 19t-62.5 53.5t-34.5 79.5l102 12q10 -26 31 -43t46 -17t46 17t31 43l102 -12q-9 -45 -34.5 -79.5t-62 -53.5t-82.5 -19z" />
    <glyph glyph-name="uni1E1D" unicode="&#x1e1d;" horiz-adv-x="586" 
d="M324 -10q-88 0 -153 35.5t-101 97t-36 140.5q0 61 20 112t56 88.5t85.5 58t108.5 20.5q56 0 102.5 -20t80.5 -56t52 -85t16 -107l-1 -43h-423l-23 90h316l-17 -19v20q-2 25 -15.5 44.5t-35.5 30.5t-50 11q-39 0 -66.5 -15.5t-41.5 -45t-14 -72.5q0 -44 18.5 -76.5
t54 -50.5t84.5 -18q34 0 60.5 10t57.5 34l75 -106q-31 -27 -66 -44t-71.5 -25.5t-72.5 -8.5zM225 -246l-10 75q21 0 43.5 5t38 14.5t15.5 20.5q0 12 -11.5 19t-27.5 10.5t-32 3.5l-17 14l69 108h82l-46 -67q52 -6 77.5 -32.5t25.5 -63.5q0 -31 -19.5 -51.5t-50.5 -33.5
t-67 -18t-70 -4zM304 601q-69 0 -117 43t-62 117l102 12q11 -31 31.5 -49.5t45.5 -18.5t45.5 18.5t31.5 49.5l102 -12q-14 -74 -62 -117t-117 -43z" />
    <glyph glyph-name="uni1E20" unicode="&#x1e20;" horiz-adv-x="782" 
d="M413 -10q-84 0 -152 27t-117 76t-75 115.5t-26 144.5t27.5 143.5t78.5 114.5t120.5 76t151.5 27q58 0 109.5 -15t93.5 -41t71 -60l-103 -109q-25 24 -51.5 40t-56.5 25.5t-64 9.5q-44 0 -80.5 -16t-64 -44.5t-42.5 -67t-15 -83.5t16 -84t44 -67.5t66.5 -45t82.5 -16.5
q31 0 58.5 10t47.5 27t32 40.5t12 50.5v26l22 -34h-193v133h329q2 -11 3 -30t1.5 -37t0.5 -27q0 -68 -24.5 -124.5t-68.5 -97.5t-104 -64t-130 -23zM232 789v101h359v-101h-359z" />
    <glyph glyph-name="uni1E21" unicode="&#x1e21;" horiz-adv-x="669" 
d="M314 -230q-65 0 -129.5 19t-104.5 49l56 112q21 -14 46.5 -24.5t53.5 -16.5t57 -6q51 0 83 15t48 45.5t16 76.5v89l31 -5q-7 -33 -34.5 -60t-67.5 -43.5t-85 -16.5q-72 0 -128.5 33.5t-89 93t-32.5 137.5q0 80 32 141.5t88 97t126 35.5q30 0 57.5 -7t51 -18.5t42 -27
t30 -33.5t15.5 -37l-33 -8l6 120h152v-488q0 -65 -19.5 -115.5t-57 -86t-90.5 -53.5t-120 -18zM318 128q39 0 67.5 17.5t44 48.5t15.5 73t-15.5 73.5t-44 49t-67.5 17.5q-38 0 -66 -17.5t-43.5 -49t-15.5 -73.5t15.5 -73t43.5 -48.5t66 -17.5zM167 640v101h336v-101h-336z
" />
    <glyph glyph-name="uni1E24" unicode="&#x1e24;" horiz-adv-x="779" 
d="M522 0v700h170v-700h-170zM88 0v700h170v-700h-170zM154 273l1 152h457v-152h-458zM390 -224q-46 0 -72 22.5t-26 62.5q0 38 26.5 61.5t71.5 23.5q46 0 72 -22t26 -63q0 -37 -26.5 -61t-71.5 -24z" />
    <glyph glyph-name="uni1E25" unicode="&#x1e25;" horiz-adv-x="635" 
d="M71 0v740h157v-317l-32 -12q11 36 39.5 65.5t68.5 47.5t84 18q60 0 101 -24.5t62 -73t21 -118.5v-326h-161v313q0 32 -9 53t-27.5 31.5t-45.5 9.5q-21 0 -39 -6.5t-31 -19t-20.5 -28.5t-7.5 -35v-318h-79h-48h-33zM318 -224q-46 0 -72 22.5t-26 62.5q0 38 26.5 61.5
t71.5 23.5q46 0 72 -22t26 -63q0 -37 -26.5 -61t-71.5 -24z" />
    <glyph glyph-name="uni1E2A" unicode="&#x1e2a;" horiz-adv-x="779" 
d="M522 0v700h170v-700h-170zM88 0v700h170v-700h-170zM154 273l1 152h457v-152h-458zM390 -235q-68 0 -116.5 42.5t-62.5 117.5l102 12q11 -32 32 -50t45 -18t45 18t32 50l102 -12q-14 -75 -62.5 -117.5t-116.5 -42.5z" />
    <glyph glyph-name="uni1E2B" unicode="&#x1e2b;" horiz-adv-x="635" 
d="M71 0v740h157v-317l-32 -12q11 36 39.5 65.5t68.5 47.5t84 18q60 0 101 -24.5t62 -73t21 -118.5v-326h-161v313q0 32 -9 53t-27.5 31.5t-45.5 9.5q-21 0 -39 -6.5t-31 -19t-20.5 -28.5t-7.5 -35v-318h-79h-48h-33zM318 -235q-68 0 -116.5 42.5t-62.5 117.5l102 12
q11 -32 32 -50t45 -18t45 18t32 50l102 -12q-14 -75 -62.5 -117.5t-116.5 -42.5z" />
    <glyph glyph-name="uni1E2E" unicode="&#x1e2e;" horiz-adv-x="555" 
d="M74 0v143h118v414h-118v143h407v-143h-119v-414h119v-143h-407zM189 953l-37 81l209 115l55 -117zM156 754q-43 0 -65 22.5t-22 62.5q0 36 22.5 60.5t64.5 24.5t64 -22.5t22 -62.5q0 -36 -22.5 -60.5t-63.5 -24.5zM399 754q-43 0 -65 22.5t-22 62.5q0 36 23 60.5t64 24.5
q42 0 64.5 -22.5t22.5 -62.5q0 -36 -23 -60.5t-64 -24.5z" />
    <glyph glyph-name="uni1E2F" unicode="&#x1e2f;" horiz-adv-x="289" 
d="M64 0v531h161v-531h-161zM24 614q-41 0 -63.5 22t-22.5 63q0 38 23 61.5t63 23.5q42 0 64.5 -22t22.5 -63q0 -38 -23.5 -61.5t-63.5 -23.5zM265 614q-42 0 -64.5 22t-22.5 63q0 38 23.5 61.5t63.5 23.5q42 0 64.5 -22t22.5 -63q0 -38 -23.5 -61.5t-63.5 -23.5zM158 791
l-67 44l89 167l106 -74z" />
    <glyph glyph-name="uni1E36" unicode="&#x1e36;" horiz-adv-x="609" 
d="M88 0v700h170v-550h312v-150h-482zM305 -224q-46 0 -72 22.5t-26 62.5q0 38 26.5 61.5t71.5 23.5q46 0 72 -22t26 -63q0 -37 -26.5 -61t-71.5 -24z" />
    <glyph glyph-name="uni1E37" unicode="&#x1e37;" horiz-adv-x="304" 
d="M72 0v740h160v-740h-160zM152 -224q-46 0 -72 22.5t-26 62.5q0 38 26.5 61.5t71.5 23.5q46 0 72 -22t26 -63q0 -37 -26.5 -61t-71.5 -24z" />
    <glyph glyph-name="uni1E3A" unicode="&#x1e3a;" horiz-adv-x="609" 
d="M88 0v700h170v-550h312v-150h-482zM151 -198v118h306v-118h-306z" />
    <glyph glyph-name="uni1E3B" unicode="&#x1e3b;" horiz-adv-x="304" 
d="M72 0v740h160v-740h-160zM-1 -198v118h306v-118h-306z" />
    <glyph glyph-name="uni1E42" unicode="&#x1e42;" horiz-adv-x="878" 
d="M88 0v700h152l255 -415l-109 1l258 414h146v-700h-165v218q0 90 4.5 162t15.5 143l19 -52l-194 -301h-66l-190 299l19 54q11 -67 15.5 -137.5t4.5 -167.5v-218h-165zM439 -224q-46 0 -72 22.5t-26 62.5q0 38 26.5 61.5t71.5 23.5q46 0 72 -22t26 -63q0 -37 -26.5 -61
t-71.5 -24z" />
    <glyph glyph-name="uni1E43" unicode="&#x1e43;" horiz-adv-x="962" 
d="M70 0v531h152l5 -96l-21 -1q12 26 30.5 46t42 33.5t49 20.5t51.5 7q39 0 71 -12t56 -38.5t38 -71.5l-25 2l8 16q13 24 33.5 43.5t45.5 33t52 20.5t52 7q63 0 105 -24.5t63.5 -73.5t21.5 -119v-324h-161v311q0 32 -9 53t-26.5 31.5t-43.5 10.5q-21 0 -38.5 -7t-30 -19
t-19.5 -28t-7 -36v-316h-161v312q0 30 -9 51t-27 32t-42 11q-21 0 -38.5 -7t-30 -19t-19.5 -28t-7 -35v-317h-161zM482 -224q-46 0 -72 22.5t-26 62.5q0 38 26.5 61.5t71.5 23.5q46 0 72 -22t26 -63q0 -37 -26.5 -61t-71.5 -24z" />
    <glyph glyph-name="uni1E44" unicode="&#x1e44;" horiz-adv-x="807" 
d="M88 0v700h152l367 -500l-33 5q-5 33 -8 63t-5.5 59t-4 59t-2 65t-0.5 76v173h165v-700h-154l-383 516l51 -7q5 -48 8.5 -81.5t6 -59.5t3.5 -47t1.5 -41.5t0.5 -45.5v-234h-165zM404 756q-46 0 -70.5 22t-24.5 61q0 35 25 59t70 24q46 0 70.5 -22t24.5 -61q0 -35 -25 -59
t-70 -24z" />
    <glyph glyph-name="uni1E45" unicode="&#x1e45;" horiz-adv-x="635" 
d="M71 0v531h152l5 -108l-32 -12q11 36 39.5 65.5t68.5 47.5t84 18q60 0 101 -24.5t62 -73t21 -118.5v-326h-161v313q0 32 -9 53t-27.5 31.5t-45.5 9.5q-21 0 -39 -6.5t-31 -19t-20.5 -28.5t-7.5 -35v-318h-79h-48h-33zM348 636q-45 0 -70 21.5t-25 61.5q0 36 25.5 59.5
t69.5 23.5q45 0 70 -21.5t25 -61.5q0 -37 -25.5 -60t-69.5 -23z" />
    <glyph glyph-name="uni1E46" unicode="&#x1e46;" horiz-adv-x="807" 
d="M88 0v700h152l367 -500l-33 5q-5 33 -8 63t-5.5 59t-4 59t-2 65t-0.5 76v173h165v-700h-154l-383 516l51 -7q5 -48 8.5 -81.5t6 -59.5t3.5 -47t1.5 -41.5t0.5 -45.5v-234h-165zM404 -224q-46 0 -72 22.5t-26 62.5q0 38 26.5 61.5t71.5 23.5q46 0 72 -22t26 -63
q0 -37 -26.5 -61t-71.5 -24z" />
    <glyph glyph-name="uni1E47" unicode="&#x1e47;" horiz-adv-x="635" 
d="M71 0v531h152l5 -108l-32 -12q11 36 39.5 65.5t68.5 47.5t84 18q60 0 101 -24.5t62 -73t21 -118.5v-326h-161v313q0 32 -9 53t-27.5 31.5t-45.5 9.5q-21 0 -39 -6.5t-31 -19t-20.5 -28.5t-7.5 -35v-318h-79h-48h-33zM318 -224q-46 0 -72 22.5t-26 62.5q0 38 26.5 61.5
t71.5 23.5q46 0 72 -22t26 -63q0 -37 -26.5 -61t-71.5 -24z" />
    <glyph glyph-name="uni1E48" unicode="&#x1e48;" horiz-adv-x="807" 
d="M88 0v700h152l367 -500l-33 5q-5 33 -8 63t-5.5 59t-4 59t-2 65t-0.5 76v173h165v-700h-154l-383 516l51 -7q5 -48 8.5 -81.5t6 -59.5t3.5 -47t1.5 -41.5t0.5 -45.5v-234h-165zM250 -198v118h306v-118h-306z" />
    <glyph glyph-name="uni1E49" unicode="&#x1e49;" horiz-adv-x="635" 
d="M71 0v531h152l5 -108l-32 -12q11 36 39.5 65.5t68.5 47.5t84 18q60 0 101 -24.5t62 -73t21 -118.5v-326h-161v313q0 32 -9 53t-27.5 31.5t-45.5 9.5q-21 0 -39 -6.5t-31 -19t-20.5 -28.5t-7.5 -35v-318h-79h-48h-33zM165 -198v118h306v-118h-306z" />
    <glyph glyph-name="uni1E4C" unicode="&#x1e4c;" horiz-adv-x="812" 
d="M407 -10q-80 0 -146 27t-115 76t-76 115t-27 145t27 145t76 115t115 76t145 27t145 -27t115 -76t75.5 -115t26.5 -145q0 -78 -26.5 -144.5t-75.5 -115.5t-115 -76t-144 -27zM406 150q41 0 75.5 15t60 42.5t39.5 64.5t14 81t-14 81t-39.5 64.5t-60 42.5t-75.5 15
t-75.5 -15t-60.5 -42.5t-39.5 -64.5t-13.5 -81t13.5 -81.5t39.5 -64.5t60.5 -42t75.5 -15zM483 768q-20 0 -40 6t-44 16q-18 9 -30.5 13t-22.5 4q-14 0 -22.5 -10t-8.5 -28h-100q0 66 36.5 103.5t91.5 37.5q18 0 35.5 -5t44.5 -17q16 -8 27 -12t20 -4q13 0 20.5 10.5
t6.5 27.5h99q0 -38 -14.5 -71t-39.5 -52t-59 -19zM317 938l-37 80l209 115l55 -117z" />
    <glyph glyph-name="uni1E4D" unicode="&#x1e4d;" horiz-adv-x="641" 
d="M321 -10q-83 0 -147.5 36t-102 98t-37.5 142t37.5 142t102 98t147.5 36t147.5 -36t101.5 -98t37 -142t-37 -142t-101.5 -98t-147.5 -36zM321 128q36 0 64 18t44 49t15 71q1 40 -15 71.5t-44 49.5t-64 18t-64.5 -18t-44.5 -49.5t-15 -71.5q-1 -40 15 -71t44.5 -49
t64.5 -18zM389 614q-17 0 -35 6t-41 22q-17 14 -28 19.5t-18 5.5q-14 0 -25 -11.5t-14 -36.5l-89 13q1 56 32 96t83 40q17 0 34 -6t40 -21q13 -11 24.5 -18.5t22.5 -7.5q14 0 24.5 12.5t12.5 35.5l90 -13q-1 -35 -15 -66.5t-39.5 -50.5t-58.5 -19zM331 785l-67 44l94 165
l101 -72z" />
    <glyph glyph-name="uni1E4E" unicode="&#x1e4e;" horiz-adv-x="812" 
d="M407 -10q-80 0 -146 27t-115 76t-76 115t-27 145t27 145t76 115t115 76t145 27t145 -27t115 -76t75.5 -115t26.5 -145q0 -78 -26.5 -144.5t-75.5 -115.5t-115 -76t-144 -27zM406 150q41 0 75.5 15t60 42.5t39.5 64.5t14 81t-14 81t-39.5 64.5t-60 42.5t-75.5 15
t-75.5 -15t-60.5 -42.5t-39.5 -64.5t-13.5 -81t13.5 -81.5t39.5 -64.5t60.5 -42t75.5 -15zM483 768q-20 0 -40 6t-44 16q-18 9 -30.5 13t-22.5 4q-14 0 -22.5 -10t-8.5 -28h-100q0 66 36.5 103.5t91.5 37.5q18 0 35.5 -5t44.5 -17q16 -8 27 -12t20 -4q13 0 20.5 10.5
t6.5 27.5h99q0 -38 -14.5 -71t-39.5 -52t-59 -19zM527 944q-43 0 -65 22.5t-22 62.5q0 36 23 60.5t64 24.5q42 0 64.5 -22.5t22.5 -62.5q0 -36 -23 -60.5t-64 -24.5zM284 944q-43 0 -65 22.5t-22 62.5q0 36 22.5 60.5t64.5 24.5t64 -22.5t22 -62.5q0 -36 -22.5 -60.5
t-63.5 -24.5z" />
    <glyph glyph-name="uni1E4F" unicode="&#x1e4f;" horiz-adv-x="641" 
d="M321 -10q-83 0 -147.5 36t-102 98t-37.5 142t37.5 142t102 98t147.5 36t147.5 -36t101.5 -98t37 -142t-37 -142t-101.5 -98t-147.5 -36zM321 128q36 0 64 18t44 49t15 71q1 40 -15 71.5t-44 49.5t-64 18t-64.5 -18t-44.5 -49.5t-15 -71.5q-1 -40 15 -71t44.5 -49
t64.5 -18zM437 814q-41 0 -62.5 20.5t-21.5 57.5q0 34 22.5 55.5t61.5 21.5q40 0 62 -20t22 -57q0 -34 -22.5 -56t-61.5 -22zM204 814q-41 0 -62.5 20.5t-21.5 57.5q0 34 23 55.5t61 21.5q40 0 61.5 -20t21.5 -57q0 -34 -22.5 -56t-60.5 -22zM389 614q-17 0 -34.5 6
t-40.5 22q-18 14 -29 19.5t-18 5.5q-14 0 -25 -11.5t-14 -36.5l-89 13q1 56 32 96t83 40q17 0 34 -6t40 -21q13 -11 25 -18.5t22 -7.5q14 0 24.5 12.5t12.5 35.5l90 -13q-1 -35 -15 -66.5t-39.5 -50.5t-58.5 -19z" />
    <glyph glyph-name="uni1E50" unicode="&#x1e50;" horiz-adv-x="812" 
d="M407 -10q-80 0 -146 27t-115 76t-76 115t-27 145t27 145t76 115t115 76t145 27t145 -27t115 -76t75.5 -115t26.5 -145q0 -78 -26.5 -144.5t-75.5 -115.5t-115 -76t-144 -27zM406 150q41 0 75.5 15t60 42.5t39.5 64.5t14 81t-14 81t-39.5 64.5t-60 42.5t-75.5 15
t-75.5 -15t-60.5 -42.5t-39.5 -64.5t-13.5 -81t13.5 -81.5t39.5 -64.5t60.5 -42t75.5 -15zM226 789v101h359v-101h-359zM504 938l-227 78l55 117l209 -115z" />
    <glyph glyph-name="uni1E51" unicode="&#x1e51;" horiz-adv-x="641" 
d="M321 -10q-83 0 -147.5 36t-102 98t-37.5 142t37.5 142t102 98t147.5 36t147.5 -36t101.5 -98t37 -142t-37 -142t-101.5 -98t-147.5 -36zM321 128q36 0 64 18t44 49t15 71q1 40 -15 71.5t-44 49.5t-64 18t-64.5 -18t-44.5 -49.5t-15 -71.5q-1 -40 15 -71t44.5 -49
t64.5 -18zM331 777l-127 136l101 73l94 -165zM153 630v101h336v-101h-336z" />
    <glyph glyph-name="uni1E52" unicode="&#x1e52;" horiz-adv-x="812" 
d="M407 -10q-80 0 -146 27t-115 76t-76 115t-27 145t27 145t76 115t115 76t145 27t145 -27t115 -76t75.5 -115t26.5 -145q0 -78 -26.5 -144.5t-75.5 -115.5t-115 -76t-144 -27zM406 150q41 0 75.5 15t60 42.5t39.5 64.5t14 81t-14 81t-39.5 64.5t-60 42.5t-75.5 15
t-75.5 -15t-60.5 -42.5t-39.5 -64.5t-13.5 -81t13.5 -81.5t39.5 -64.5t60.5 -42t75.5 -15zM226 789v101h359v-101h-359zM317 938l-37 80l209 115l55 -117z" />
    <glyph glyph-name="uni1E53" unicode="&#x1e53;" horiz-adv-x="641" 
d="M321 -10q-83 0 -147.5 36t-102 98t-37.5 142t37.5 142t102 98t147.5 36t147.5 -36t101.5 -98t37 -142t-37 -142t-101.5 -98t-147.5 -36zM321 128q36 0 64 18t44 49t15 71q1 40 -15 71.5t-44 49.5t-64 18t-64.5 -18t-44.5 -49.5t-15 -71.5q-1 -40 15 -71t44.5 -49
t64.5 -18zM153 630v101h336v-101h-336zM327 777l-67 44l94 165l101 -73z" />
    <glyph glyph-name="uni1E5A" unicode="&#x1e5a;" horiz-adv-x="702" 
d="M88 0v700h315q67 0 121.5 -29t85.5 -79.5t31 -114.5q0 -66 -31 -118.5t-85 -82.5t-122 -30h-153v-246h-162zM476 0l-178 316l174 25l198 -341h-194zM250 376h138q26 0 45.5 11.5t30 32.5t10.5 48t-12 47.5t-34.5 31.5t-54.5 11h-123v-182zM351 -224q-46 0 -72 22.5
t-26 62.5q0 38 26.5 61.5t71.5 23.5q46 0 72 -22t26 -63q0 -37 -26.5 -61t-71.5 -24z" />
    <glyph glyph-name="uni1E5B" unicode="&#x1e5b;" horiz-adv-x="455" 
d="M71 0v531h152l7 -173l-30 33q12 43 39.5 77t64.5 54t79 20q18 0 33.5 -3t28.5 -7l-44 -177q-11 7 -29.5 11.5t-38.5 4.5q-22 0 -41 -7.5t-32 -21.5t-20.5 -33t-7.5 -43v-266h-161zM147 -224q-46 0 -72 22.5t-26 62.5q0 38 26.5 61.5t71.5 23.5q46 0 72 -22t26 -63
q0 -37 -26.5 -61t-71.5 -24z" />
    <glyph glyph-name="uni1E5E" unicode="&#x1e5e;" horiz-adv-x="702" 
d="M88 0v700h315q67 0 121.5 -29t85.5 -79.5t31 -114.5q0 -66 -31 -118.5t-85 -82.5t-122 -30h-153v-246h-162zM476 0l-178 316l174 25l198 -341h-194zM250 376h138q26 0 45.5 11.5t30 32.5t10.5 48t-12 47.5t-34.5 31.5t-54.5 11h-123v-182zM198 -198v118h306v-118h-306z
" />
    <glyph glyph-name="uni1E5F" unicode="&#x1e5f;" horiz-adv-x="455" 
d="M71 0v531h152l7 -173l-30 33q12 43 39.5 77t64.5 54t79 20q18 0 33.5 -3t28.5 -7l-44 -177q-11 7 -29.5 11.5t-38.5 4.5q-22 0 -41 -7.5t-32 -21.5t-20.5 -33t-7.5 -43v-266h-161zM-6 -198v118h306v-118h-306z" />
    <glyph glyph-name="uni1E60" unicode="&#x1e60;" horiz-adv-x="634" 
d="M320 -10q-69 0 -124.5 16.5t-98.5 48t-77 74.5l103 117q50 -67 100.5 -90t104.5 -23q27 0 49 7t34 20.5t12 33.5q0 15 -7.5 27t-20.5 21t-31 16.5t-38 13t-41 9.5q-58 13 -101 32t-71.5 46.5t-42.5 63t-14 79.5q0 47 21.5 86.5t58 68t84.5 44t100 15.5q69 0 118.5 -14.5
t85 -41.5t60.5 -65l-105 -101q-21 26 -45.5 43t-52 26t-56.5 9q-30 0 -51.5 -7.5t-33.5 -21t-12 -32.5q0 -17 10 -29t27 -21.5t39 -16t46 -10.5q55 -11 99.5 -29t77 -44t50 -61.5t17.5 -82.5q0 -73 -35.5 -123.5t-97 -77t-141.5 -26.5zM332 756q-46 0 -70.5 22t-24.5 61
q0 35 25 59t70 24q46 0 70.5 -22t24.5 -61q0 -35 -25 -59t-70 -24z" />
    <glyph glyph-name="uni1E61" unicode="&#x1e61;" horiz-adv-x="495" 
d="M250 -10q-78 0 -137.5 25t-94.5 67l97 84q31 -31 70 -45.5t74 -14.5q14 0 25 3t18.5 8.5t11.5 13t4 17.5q0 20 -18 31q-9 5 -30 12t-54 16q-47 12 -81.5 28.5t-56.5 38.5q-20 21 -31 46.5t-11 57.5q0 37 17.5 67t47 52t68 33.5t79.5 11.5q44 0 84 -10t74.5 -28t61.5 -43
l-84 -94q-18 17 -40.5 30.5t-46.5 21.5t-44 8q-15 0 -26.5 -2.5t-19.5 -8t-12 -13t-4 -17.5t5.5 -19t15.5 -15t32 -13.5t60 -18.5q47 -13 81 -29t54 -38q16 -17 24 -39.5t8 -48.5q0 -51 -28.5 -90.5t-78.5 -62t-114 -22.5zM248 636q-45 0 -70 21.5t-25 61.5q0 36 25.5 59.5
t69.5 23.5q45 0 70 -21.5t25 -61.5q0 -37 -25.5 -60t-69.5 -23z" />
    <glyph glyph-name="uni1E62" unicode="&#x1e62;" horiz-adv-x="634" 
d="M320 -10q-69 0 -124.5 16.5t-98.5 48t-77 74.5l103 117q50 -67 100.5 -90t104.5 -23q27 0 49 7t34 20.5t12 33.5q0 15 -7.5 27t-20.5 21t-31 16.5t-38 13t-41 9.5q-58 13 -101 32t-71.5 46.5t-42.5 63t-14 79.5q0 47 21.5 86.5t58 68t84.5 44t100 15.5q69 0 118.5 -14.5
t85 -41.5t60.5 -65l-105 -101q-21 26 -45.5 43t-52 26t-56.5 9q-30 0 -51.5 -7.5t-33.5 -21t-12 -32.5q0 -17 10 -29t27 -21.5t39 -16t46 -10.5q55 -11 99.5 -29t77 -44t50 -61.5t17.5 -82.5q0 -73 -35.5 -123.5t-97 -77t-141.5 -26.5zM337 -224q-46 0 -72 22.5t-26 62.5
q0 38 26.5 61.5t71.5 23.5q46 0 72 -22t26 -63q0 -37 -26.5 -61t-71.5 -24z" />
    <glyph glyph-name="uni1E63" unicode="&#x1e63;" horiz-adv-x="495" 
d="M250 -10q-78 0 -137.5 25t-94.5 67l97 84q31 -31 70 -45.5t74 -14.5q14 0 25 3t18.5 8.5t11.5 13t4 17.5q0 20 -18 31q-9 5 -30 12t-54 16q-47 12 -81.5 28.5t-56.5 38.5q-20 21 -31 46.5t-11 57.5q0 37 17.5 67t47 52t68 33.5t79.5 11.5q44 0 84 -10t74.5 -28t61.5 -43
l-84 -94q-18 17 -40.5 30.5t-46.5 21.5t-44 8q-15 0 -26.5 -2.5t-19.5 -8t-12 -13t-4 -17.5t5.5 -19t15.5 -15t32 -13.5t60 -18.5q47 -13 81 -29t54 -38q16 -17 24 -39.5t8 -48.5q0 -51 -28.5 -90.5t-78.5 -62t-114 -22.5zM252 -224q-46 0 -72 22.5t-26 62.5q0 38 26.5 61.5
t71.5 23.5q46 0 72 -22t26 -63q0 -37 -26.5 -61t-71.5 -24z" />
    <glyph glyph-name="uni1E64" unicode="&#x1e64;" horiz-adv-x="634" 
d="M320 -10q-69 0 -124.5 16.5t-98.5 48t-77 74.5l103 117q50 -67 100.5 -90t104.5 -23q27 0 49 7t34 20.5t12 33.5q0 15 -7.5 27t-20.5 21t-31 16.5t-38 13t-41 9.5q-58 13 -101 32t-71.5 46.5t-42.5 63t-14 79.5q0 47 21.5 86.5t58 68t84.5 44t100 15.5q69 0 118.5 -14.5
t85 -41.5t60.5 -65l-105 -101q-21 26 -45.5 43t-52 26t-56.5 9q-30 0 -51.5 -7.5t-33.5 -21t-12 -32.5q0 -17 10 -29t27 -21.5t39 -16t46 -10.5q55 -11 99.5 -29t77 -44t50 -61.5t17.5 -82.5q0 -73 -35.5 -123.5t-97 -77t-141.5 -26.5zM419 752l-67 44l94 165l101 -73z
M238 754q-42 0 -65 20.5t-23 56.5q0 34 23.5 55t64.5 21t64.5 -19.5t23.5 -56.5q0 -34 -24 -55.5t-64 -21.5z" />
    <glyph glyph-name="uni1E65" unicode="&#x1e65;" horiz-adv-x="495" 
d="M250 -10q-78 0 -137.5 25t-94.5 67l97 84q31 -31 70 -45.5t74 -14.5q14 0 25 3t18.5 8.5t11.5 13t4 17.5q0 20 -18 31q-9 5 -30 12t-54 16q-47 12 -81.5 28.5t-56.5 38.5q-20 21 -31 46.5t-11 57.5q0 37 17.5 67t47 52t68 33.5t79.5 11.5q44 0 84 -10t74.5 -28t61.5 -43
l-84 -94q-18 17 -40.5 30.5t-46.5 21.5t-44 8q-15 0 -26.5 -2.5t-19.5 -8t-12 -13t-4 -17.5t5.5 -19t15.5 -15t32 -13.5t60 -18.5q47 -13 81 -29t54 -38q16 -17 24 -39.5t8 -48.5q0 -51 -28.5 -90.5t-78.5 -62t-114 -22.5zM335 619l-67 44l94 165l101 -73zM154 621
q-42 0 -65 20.5t-23 56.5q0 34 23.5 55t64.5 21t64.5 -19.5t23.5 -56.5q0 -34 -24 -55.5t-64 -21.5z" />
    <glyph glyph-name="uni1E66" unicode="&#x1e66;" horiz-adv-x="634" 
d="M320 -10q-69 0 -124.5 16.5t-98.5 48t-77 74.5l103 117q50 -67 100.5 -90t104.5 -23q27 0 49 7t34 20.5t12 33.5q0 15 -7.5 27t-20.5 21t-31 16.5t-38 13t-41 9.5q-58 13 -101 32t-71.5 46.5t-42.5 63t-14 79.5q0 47 21.5 86.5t58 68t84.5 44t100 15.5q69 0 118.5 -14.5
t85 -41.5t60.5 -65l-105 -101q-21 26 -45.5 43t-52 26t-56.5 9q-30 0 -51.5 -7.5t-33.5 -21t-12 -32.5q0 -17 10 -29t27 -21.5t39 -16t46 -10.5q55 -11 99.5 -29t77 -44t50 -61.5t17.5 -82.5q0 -73 -35.5 -123.5t-97 -77t-141.5 -26.5zM284 755l-134 107l50 56l147 -70h-30
l147 70l50 -56l-134 -107h-96zM331 946q-46 0 -70.5 22t-24.5 61q0 35 25 59t70 24q46 0 70.5 -22t24.5 -61q0 -35 -25 -59t-70 -24z" />
    <glyph glyph-name="uni1E67" unicode="&#x1e67;" horiz-adv-x="495" 
d="M250 -10q-78 0 -137.5 25t-94.5 67l97 84q31 -31 70 -45.5t74 -14.5q14 0 25 3t18.5 8.5t11.5 13t4 17.5q0 20 -18 31q-9 5 -30 12t-54 16q-47 12 -81.5 28.5t-56.5 38.5q-20 21 -31 46.5t-11 57.5q0 37 17.5 67t47 52t68 33.5t79.5 11.5q44 0 84 -10t74.5 -28t61.5 -43
l-84 -94q-18 17 -40.5 30.5t-46.5 21.5t-44 8q-15 0 -26.5 -2.5t-19.5 -8t-12 -13t-4 -17.5t5.5 -19t15.5 -15t32 -13.5t60 -18.5q47 -13 81 -29t54 -38q16 -17 24 -39.5t8 -48.5q0 -51 -28.5 -90.5t-78.5 -62t-114 -22.5zM200 602l-140 129l58 50l145 -86h-30l145 86
l58 -50l-140 -129h-96zM248 797q-45 0 -70 21.5t-25 61.5q0 37 25.5 60t69.5 23q45 0 70 -21.5t25 -61.5q0 -36 -25.5 -59.5t-69.5 -23.5z" />
    <glyph glyph-name="uni1E68" unicode="&#x1e68;" horiz-adv-x="634" 
d="M320 -10q-69 0 -124.5 16.5t-98.5 48t-77 74.5l103 117q50 -67 100.5 -90t104.5 -23q27 0 49 7t34 20.5t12 33.5q0 15 -7.5 27t-20.5 21t-31 16.5t-38 13t-41 9.5q-58 13 -101 32t-71.5 46.5t-42.5 63t-14 79.5q0 47 21.5 86.5t58 68t84.5 44t100 15.5q69 0 118.5 -14.5
t85 -41.5t60.5 -65l-105 -101q-21 26 -45.5 43t-52 26t-56.5 9q-30 0 -51.5 -7.5t-33.5 -21t-12 -32.5q0 -17 10 -29t27 -21.5t39 -16t46 -10.5q55 -11 99.5 -29t77 -44t50 -61.5t17.5 -82.5q0 -73 -35.5 -123.5t-97 -77t-141.5 -26.5zM337 -224q-46 0 -72 22.5t-26 62.5
q0 38 26.5 61.5t71.5 23.5q46 0 72 -22t26 -63q0 -37 -26.5 -61t-71.5 -24zM332 756q-46 0 -70.5 22t-24.5 61q0 35 25 59t70 24q46 0 70.5 -22t24.5 -61q0 -35 -25 -59t-70 -24z" />
    <glyph glyph-name="uni1E69" unicode="&#x1e69;" horiz-adv-x="495" 
d="M250 -10q-78 0 -137.5 25t-94.5 67l97 84q31 -31 70 -45.5t74 -14.5q14 0 25 3t18.5 8.5t11.5 13t4 17.5q0 20 -18 31q-9 5 -30 12t-54 16q-47 12 -81.5 28.5t-56.5 38.5q-20 21 -31 46.5t-11 57.5q0 37 17.5 67t47 52t68 33.5t79.5 11.5q44 0 84 -10t74.5 -28t61.5 -43
l-84 -94q-18 17 -40.5 30.5t-46.5 21.5t-44 8q-15 0 -26.5 -2.5t-19.5 -8t-12 -13t-4 -17.5t5.5 -19t15.5 -15t32 -13.5t60 -18.5q47 -13 81 -29t54 -38q16 -17 24 -39.5t8 -48.5q0 -51 -28.5 -90.5t-78.5 -62t-114 -22.5zM252 -224q-46 0 -72 22.5t-26 62.5q0 38 26.5 61.5
t71.5 23.5q46 0 72 -22t26 -63q0 -37 -26.5 -61t-71.5 -24zM248 636q-45 0 -70 21.5t-25 61.5q0 36 25.5 59.5t69.5 23.5q45 0 70 -21.5t25 -61.5q0 -37 -25.5 -60t-69.5 -23z" />
    <glyph glyph-name="uni1E6C" unicode="&#x1e6c;" horiz-adv-x="655" 
d="M240 0v550h-208v150h591v-150h-213v-550h-170zM328 -224q-46 0 -72 22.5t-26 62.5q0 38 26.5 61.5t71.5 23.5q46 0 72 -22t26 -63q0 -37 -26.5 -61t-71.5 -24z" />
    <glyph glyph-name="uni1E6D" unicode="&#x1e6d;" horiz-adv-x="398" 
d="M115 0v665h160v-665h-160zM21 391v140h357v-140h-357zM199 -224q-46 0 -72 22.5t-26 62.5q0 38 26.5 61.5t71.5 23.5q46 0 72 -22t26 -63q0 -37 -26.5 -61t-71.5 -24z" />
    <glyph glyph-name="uni1E6E" unicode="&#x1e6e;" horiz-adv-x="655" 
d="M240 0v550h-208v150h591v-150h-213v-550h-170zM174 -198v118h306v-118h-306z" />
    <glyph glyph-name="uni1E6F" unicode="&#x1e6f;" horiz-adv-x="398" 
d="M115 0v665h160v-665h-160zM21 391v140h357v-140h-357zM46 -198v118h306v-118h-306z" />
    <glyph glyph-name="uni1E78" unicode="&#x1e78;" horiz-adv-x="765" 
d="M383 -6q-87 0 -155 35.5t-106.5 97.5t-38.5 142v431h172v-422q0 -38 17 -68.5t46 -48t65 -17.5q38 0 67.5 17.5t47.5 48t18 68.5v422h166v-431q0 -80 -38.5 -142t-106.5 -97.5t-154 -35.5zM460 768q-20 0 -40 6t-44 16q-18 9 -30.5 13t-22.5 4q-14 0 -22.5 -10t-8.5 -28
h-100q0 66 36.5 103.5t91.5 37.5q18 0 35.5 -5t44.5 -17q16 -8 27 -12t20 -4q13 0 20.5 10.5t6.5 27.5h99q0 -38 -14.5 -71t-39.5 -52t-59 -19zM294 938l-37 80l209 115l55 -117z" />
    <glyph glyph-name="uni1E79" unicode="&#x1e79;" horiz-adv-x="642" 
d="M252 -11q-59 0 -100.5 25.5t-64 73.5t-22.5 115v328h161v-306q0 -32 10 -55t30 -35.5t48 -12.5q21 0 38.5 7t30 19.5t19.5 29t7 36.5v317h161v-531h-151l-7 109l30 12q-12 -38 -40 -67.5t-67 -47t-83 -17.5zM390 614q-17 0 -35 6t-41 22q-17 14 -28 19.5t-18 5.5
q-14 0 -25 -11.5t-14 -36.5l-89 13q1 56 32 96t83 40q17 0 34 -6t40 -21q13 -11 24.5 -18.5t22.5 -7.5q14 0 24.5 12.5t12.5 35.5l90 -13q-1 -35 -15 -66.5t-39.5 -50.5t-58.5 -19zM332 785l-67 44l94 165l101 -72z" />
    <glyph glyph-name="uni1E7A" unicode="&#x1e7a;" horiz-adv-x="765" 
d="M383 -6q-87 0 -155 35.5t-106.5 97.5t-38.5 142v431h172v-422q0 -38 17 -68.5t46 -48t65 -17.5q38 0 67.5 17.5t47.5 48t18 68.5v422h166v-431q0 -80 -38.5 -142t-106.5 -97.5t-154 -35.5zM203 789v101h359v-101h-359zM504 944q-43 0 -65 22.5t-22 62.5q0 36 23 60.5
t64 24.5q42 0 64.5 -22.5t22.5 -62.5q0 -36 -23 -60.5t-64 -24.5zM261 944q-43 0 -65 22.5t-22 62.5q0 36 22.5 60.5t64.5 24.5t64 -22.5t22 -62.5q0 -36 -22.5 -60.5t-63.5 -24.5z" />
    <glyph glyph-name="uni1E7B" unicode="&#x1e7b;" horiz-adv-x="642" 
d="M252 -11q-59 0 -100.5 25.5t-64 73.5t-22.5 115v328h161v-306q0 -32 10 -55t30 -35.5t48 -12.5q21 0 38.5 7t30 19.5t19.5 29t7 36.5v317h161v-531h-151l-7 109l30 12q-12 -38 -40 -67.5t-67 -47t-83 -17.5zM153 640v101h336v-101h-336zM442 813q-42 0 -64.5 22t-22.5 63
q0 38 23.5 61.5t63.5 23.5q41 0 63.5 -22t22.5 -63q0 -38 -23 -61.5t-63 -23.5zM201 813q-42 0 -64.5 22t-22.5 63q0 38 23.5 61.5t63.5 23.5q42 0 64.5 -22t22.5 -63q0 -38 -23.5 -61.5t-63.5 -23.5z" />
    <glyph glyph-name="Wgrave" unicode="&#x1e80;" horiz-adv-x="993" 
d="M214 0l-210 700h173l105 -368q7 -25 12.5 -50.5t9 -48.5t5.5 -42.5t4 -32.5h-22q6 37 10.5 66t10.5 54.5t15 53.5l104 277h136l102 -277q12 -33 20 -62t12.5 -55.5t7.5 -52.5l-20 -3q2 18 3 33.5t2.5 30t3.5 30.5t6 35.5t11 44.5l104 367h169l-210 -700h-130l-166 403
l19 -2l-153 -401h-134zM594 748l-227 78l55 117l209 -115z" />
    <glyph glyph-name="wgrave" unicode="&#x1e81;" horiz-adv-x="834" 
d="M187 0l-175 531h169l98 -345l-21 4l110 268h94l116 -269l-23 -2l98 344h169l-181 -531h-118l-115 285l12 -2l-115 -283h-118zM476 590l-205 110l73 104l179 -142z" />
    <glyph glyph-name="Wacute" unicode="&#x1e82;" horiz-adv-x="993" 
d="M214 0l-210 700h173l105 -368q7 -25 12.5 -50.5t9 -48.5t5.5 -42.5t4 -32.5h-22q6 37 10.5 66t10.5 54.5t15 53.5l104 277h136l102 -277q12 -33 20 -62t12.5 -55.5t7.5 -52.5l-20 -3q2 18 3 33.5t2.5 30t3.5 30.5t6 35.5t11 44.5l104 367h169l-210 -700h-130l-166 403
l19 -2l-153 -401h-134zM408 748l-37 80l209 115l55 -117z" />
    <glyph glyph-name="wacute" unicode="&#x1e83;" horiz-adv-x="834" 
d="M187 0l-175 531h169l98 -345l-21 4l110 268h94l116 -269l-23 -2l98 344h169l-181 -531h-118l-115 285l12 -2l-115 -283h-118zM338 589l-47 73l179 142l73 -105z" />
    <glyph glyph-name="Wdieresis" unicode="&#x1e84;" horiz-adv-x="993" 
d="M214 0l-210 700h173l105 -368q7 -25 12.5 -50.5t9 -48.5t5.5 -42.5t4 -32.5h-22q6 37 10.5 66t10.5 54.5t15 53.5l104 277h136l102 -277q12 -33 20 -62t12.5 -55.5t7.5 -52.5l-20 -3q2 18 3 33.5t2.5 30t3.5 30.5t6 35.5t11 44.5l104 367h169l-210 -700h-130l-166 403
l19 -2l-153 -401h-134zM618 754q-43 0 -65 22.5t-22 62.5q0 36 23 60.5t64 24.5q42 0 64.5 -22.5t22.5 -62.5q0 -36 -23 -60.5t-64 -24.5zM375 754q-43 0 -65 22.5t-22 62.5q0 36 22.5 60.5t64.5 24.5t64 -22.5t22 -62.5q0 -36 -22.5 -60.5t-63.5 -24.5z" />
    <glyph glyph-name="wdieresis" unicode="&#x1e85;" horiz-adv-x="834" 
d="M187 0l-175 531h169l98 -345l-21 4l110 268h94l116 -269l-23 -2l98 344h169l-181 -531h-118l-115 285l12 -2l-115 -283h-118zM538 632q-42 0 -64.5 22t-22.5 63q0 38 23.5 61.5t63.5 23.5q41 0 63.5 -22t22.5 -63q0 -38 -23 -61.5t-63 -23.5zM297 632q-42 0 -64.5 22
t-22.5 63q0 38 23.5 61.5t63.5 23.5q42 0 64.5 -22t22.5 -63q0 -38 -23.5 -61.5t-63.5 -23.5z" />
    <glyph glyph-name="uni1E8E" unicode="&#x1e8e;" horiz-adv-x="689" 
d="M269 0v349l7 -49l-283 400h193l216 -310l-88 3l195 307h187l-271 -411l15 68v-357h-171zM344 756q-46 0 -70.5 22t-24.5 61q0 35 25 59t70 24q46 0 70.5 -22t24.5 -61q0 -35 -25 -59t-70 -24z" />
    <glyph glyph-name="uni1E8F" unicode="&#x1e8f;" horiz-adv-x="620" 
d="M138 -230l121 285l2 -82l-256 558h181l112 -267q9 -20 17 -43t12 -44l-22 -13q6 15 13.5 37.5t16.5 48.5l98 281h182l-226 -531l-92 -230h-159zM311 636q-45 0 -70 21.5t-25 61.5q0 36 25.5 59.5t69.5 23.5q45 0 70 -21.5t25 -61.5q0 -37 -25.5 -60t-69.5 -23z" />
    <glyph glyph-name="uni1E92" unicode="&#x1e92;" horiz-adv-x="683" 
d="M60 0v113l376 500l59 -69h-409v156h528v-112l-374 -501l-60 62h445v-149h-565zM342 -224q-46 0 -72 22.5t-26 62.5q0 38 26.5 61.5t71.5 23.5q46 0 72 -22t26 -63q0 -37 -26.5 -61t-71.5 -24z" />
    <glyph glyph-name="uni1E93" unicode="&#x1e93;" horiz-adv-x="550" 
d="M50 0v92l282 362v-53h-282v130h440v-96l-267 -351l-4 46h280v-130h-449zM275 -224q-46 0 -72 22.5t-26 62.5q0 38 26.5 61.5t71.5 23.5q46 0 72 -22t26 -63q0 -37 -26.5 -61t-71.5 -24z" />
    <glyph glyph-name="uni1E97" unicode="&#x1e97;" horiz-adv-x="398" 
d="M115 0v665h160v-665h-160zM21 391v140h357v-140h-357zM318 713q-42 0 -64.5 22t-22.5 63q0 38 23.5 61.5t63.5 23.5q41 0 63.5 -22t22.5 -63q0 -38 -23 -61.5t-63 -23.5zM77 713q-42 0 -64.5 22t-22.5 63q0 38 23.5 61.5t63.5 23.5q42 0 64.5 -22t22.5 -63
q0 -38 -23.5 -61.5t-63.5 -23.5z" />
    <glyph glyph-name="uni1E9E" unicode="&#x1e9e;" horiz-adv-x="811" 
d="M527 -10q-44 0 -85 11.5t-74.5 30.5t-54.5 43l91 109q27 -27 55.5 -42t55.5 -15q36 0 56.5 17t20.5 43q0 19 -11.5 33.5t-37 31t-67.5 39.5q-42 24 -67 46t-36 47.5t-11 58.5q0 35 17 64.5t46 51.5t65.5 35t76.5 15l54 -38q-31 11 -79 19t-89 8q-45 0 -80.5 -17
t-61 -50.5t-39 -80.5t-13.5 -107l-1 -343h-170v350q1 113 45 197.5t124 131.5t187 47q66 0 128 -10.5t117 -33.5l2 -119q-54 -6 -89 -19.5t-52.5 -32t-17.5 -39.5q0 -19 10.5 -33.5t30.5 -28.5t49 -28q47 -23 80 -46t51 -56t18 -87q0 -56 -33.5 -102t-88.5 -73.5t-122 -27.5
z" />
    <glyph glyph-name="uni1EA0" unicode="&#x1ea0;" horiz-adv-x="694" 
d="M-1 0l277 700h144l275 -700h-172l-132 355q-8 21 -16 45t-16 49.5t-15.5 50t-12.5 45.5l30 1q-6 -25 -13.5 -49t-15 -47.5t-16.5 -47t-17 -48.5l-132 -354h-168zM131 134l53 128h322l52 -128h-427zM347 -224q-46 0 -72 22.5t-26 62.5q0 38 26.5 61.5t71.5 23.5
q46 0 72 -22t26 -63q0 -37 -26.5 -61t-71.5 -24z" />
    <glyph glyph-name="uni1EA1" unicode="&#x1ea1;" horiz-adv-x="659" 
d="M267 -9q-67 0 -119.5 35.5t-83.5 98t-31 141.5q0 81 31 143t85 97.5t123 35.5q38 0 69.5 -11t55.5 -30.5t41 -45t25 -54.5l-33 4v126h159v-531h-162v128l36 1q-8 -28 -26 -53t-44 -44t-58 -30t-68 -11zM311 126q37 0 64 17t42 48.5t15 74.5t-15 74.5t-42 49t-64 17.5
q-36 0 -62.5 -17.5t-41.5 -49t-15 -74.5t15 -74.5t41.5 -48.5t62.5 -17zM330 -224q-46 0 -72 22.5t-26 62.5q0 38 26.5 61.5t71.5 23.5q46 0 72 -22t26 -63q0 -37 -26.5 -61t-71.5 -24z" />
    <glyph glyph-name="uni1EA2" unicode="&#x1ea2;" horiz-adv-x="694" 
d="M-1 0l277 700h144l275 -700h-172l-132 355q-8 21 -16 45t-16 49.5t-15.5 50t-12.5 45.5l30 1q-6 -25 -13.5 -49t-15 -47.5t-16.5 -47t-17 -48.5l-132 -354h-168zM131 134l53 128h322l52 -128h-427zM322 746q-7 9 -13 20t-6 23t6.5 23.5t24.5 24.5q14 9 22 16t8 17
q0 9 -8.5 13.5t-21.5 4.5q-20 0 -42 -6t-44 -16l-23 85q22 12 54.5 20.5t66.5 8.5q57 0 90.5 -24.5t33.5 -65.5q0 -33 -14 -50t-30 -27t-26.5 -19t-10.5 -19q0 -4 1 -7t2 -7z" />
    <glyph glyph-name="uni1EA3" unicode="&#x1ea3;" horiz-adv-x="659" 
d="M267 -9q-67 0 -119.5 35.5t-83.5 98t-31 141.5q0 81 31 143t85 97.5t123 35.5q38 0 69.5 -11t55.5 -30.5t41 -45t25 -54.5l-33 4v126h159v-531h-162v128l36 1q-8 -28 -26 -53t-44 -44t-58 -30t-68 -11zM311 126q37 0 64 17t42 48.5t15 74.5t-15 74.5t-42 49t-64 17.5
q-36 0 -62.5 -17.5t-41.5 -49t-15 -74.5t15 -74.5t41.5 -48.5t62.5 -17zM305 592q-7 9 -13 19.5t-6 22.5q0 13 6.5 24.5t24.5 23.5q14 10 22 16.5t8 16.5q0 9 -8.5 13.5t-21.5 4.5q-20 0 -42 -6t-44 -15l-23 84q22 12 54.5 21t66.5 9q57 0 90.5 -24.5t33.5 -66.5
q0 -32 -14 -49t-30 -28q-16 -9 -26.5 -18.5t-10.5 -19.5q0 -3 1 -6.5t2 -6.5z" />
    <glyph glyph-name="uni1EA4" unicode="&#x1ea4;" horiz-adv-x="694" 
d="M-1 0l277 700h144l275 -700h-172l-132 355q-8 21 -16 45t-16 49.5t-15.5 50t-12.5 45.5l30 1q-6 -25 -13.5 -49t-15 -47.5t-16.5 -47t-17 -48.5l-132 -354h-168zM131 134l53 128h322l52 -128h-427zM213 750l-45 55l134 102h90l134 -102l-45 -55l-149 65h30zM527 880
l-64 44l95 164l100 -71z" />
    <glyph glyph-name="uni1EA5" unicode="&#x1ea5;" horiz-adv-x="659" 
d="M267 -9q-67 0 -119.5 35.5t-83.5 98t-31 141.5q0 81 31 143t85 97.5t123 35.5q38 0 69.5 -11t55.5 -30.5t41 -45t25 -54.5l-33 4v126h159v-531h-162v128l36 1q-8 -28 -26 -53t-44 -44t-58 -30t-68 -11zM311 126q37 0 64 17t42 48.5t15 74.5t-15 74.5t-42 49t-64 17.5
q-36 0 -62.5 -17.5t-41.5 -49t-15 -74.5t15 -74.5t41.5 -48.5t62.5 -17zM198 602l-47 53l132 108h95l133 -108l-48 -53l-147 68h30zM524 754l-64 45l95 164l100 -71z" />
    <glyph glyph-name="uni1EA6" unicode="&#x1ea6;" horiz-adv-x="694" 
d="M-1 0l277 700h144l275 -700h-172l-132 355q-8 21 -16 45t-16 49.5t-15.5 50t-12.5 45.5l30 1q-6 -25 -13.5 -49t-15 -47.5t-16.5 -47t-17 -48.5l-132 -354h-168zM131 134l53 128h322l52 -128h-427zM213 750l-45 55l134 102h90l134 -102l-45 -55l-149 65h30zM516 880
l-133 138l100 72l95 -165z" />
    <glyph glyph-name="uni1EA7" unicode="&#x1ea7;" horiz-adv-x="659" 
d="M267 -9q-67 0 -119.5 35.5t-83.5 98t-31 141.5q0 81 31 143t85 97.5t123 35.5q38 0 69.5 -11t55.5 -30.5t41 -45t25 -54.5l-33 4v126h159v-531h-162v128l36 1q-8 -28 -26 -53t-44 -44t-58 -30t-68 -11zM311 126q37 0 64 17t42 48.5t15 74.5t-15 74.5t-42 49t-64 17.5
q-36 0 -62.5 -17.5t-41.5 -49t-15 -74.5t15 -74.5t41.5 -48.5t62.5 -17zM198 601l-48 54l133 107h95l132 -107l-47 -54l-148 68h30zM500 753l-133 138l100 72l95 -165z" />
    <glyph glyph-name="uni1EA8" unicode="&#x1ea8;" horiz-adv-x="694" 
d="M-1 0l277 700h144l275 -700h-172l-132 355q-8 21 -16 45t-16 49.5t-15.5 50t-12.5 45.5l30 1q-6 -25 -13.5 -49t-15 -47.5t-16.5 -47t-17 -48.5l-132 -354h-168zM131 134l53 128h322l52 -128h-427zM213 750l-46 55l135 102h90l134 -102l-45 -55l-149 65h30zM498 876
q-8 9 -13 19t-5 21q0 10 4.5 19t21.5 20q11 8 19 14.5t8 13.5q0 9 -9 14t-24 5q-19 0 -40.5 -6t-42.5 -14l-21 85q21 11 51.5 19t64.5 8q58 0 92.5 -25t34.5 -67q0 -30 -15 -45t-32 -25q-16 -9 -26 -17t-10 -17v-3t1 -5z" />
    <glyph glyph-name="uni1EA9" unicode="&#x1ea9;" horiz-adv-x="659" 
d="M267 -9q-67 0 -119.5 35.5t-83.5 98t-31 141.5q0 81 31 143t85 97.5t123 35.5q38 0 69.5 -11t55.5 -30.5t41 -45t25 -54.5l-33 4v126h159v-531h-162v128l36 1q-8 -28 -26 -53t-44 -44t-58 -30t-68 -11zM311 126q37 0 64 17t42 48.5t15 74.5t-15 74.5t-42 49t-64 17.5
q-36 0 -62.5 -17.5t-41.5 -49t-15 -74.5t15 -74.5t41.5 -48.5t62.5 -17zM197 602l-48 53l133 108h95l133 -108l-48 -53l-147 68h30zM485 746q-8 9 -13 19.5t-5 21.5q0 10 5 20t21 20q12 8 19.5 15t7.5 15q0 9 -9 14t-23 5q-20 0 -41 -5.5t-43 -14.5l-21 85q21 11 52 19t64 8
q58 0 93 -25t35 -67q0 -31 -15 -47t-33 -26q-15 -8 -25.5 -15.5t-10.5 -18.5v-4t1 -5z" />
    <glyph glyph-name="uni1EAA" unicode="&#x1eaa;" horiz-adv-x="694" 
d="M-1 0l277 700h144l275 -700h-172l-132 355q-8 21 -16 45t-16 49.5t-15.5 50t-12.5 45.5l30 1q-6 -25 -13.5 -49t-15 -47.5t-16.5 -47t-17 -48.5l-132 -354h-168zM131 134l53 128h322l52 -128h-427zM213 750l-45 55l134 102h90l134 -102l-45 -55l-149 65h30zM429 954
q-22 0 -42.5 5.5t-40.5 14.5q-19 8 -31 12t-22 4q-17 0 -26 -10t-12 -27l-92 5q1 57 33.5 93t82.5 36q21 0 38 -5.5t39 -15.5q16 -6 29 -10.5t23 -4.5q16 0 22.5 10t9.5 27l92 -4q0 -36 -13.5 -65.5t-36 -47t-53.5 -17.5z" />
    <glyph glyph-name="uni1EAB" unicode="&#x1eab;" horiz-adv-x="659" 
d="M267 -9q-67 0 -119.5 35.5t-83.5 98t-31 141.5q0 81 31 143t85 97.5t123 35.5q38 0 69.5 -11t55.5 -30.5t41 -45t25 -54.5l-33 4v126h159v-531h-162v128l36 1q-8 -28 -26 -53t-44 -44t-58 -30t-68 -11zM311 126q37 0 64 17t42 48.5t15 74.5t-15 74.5t-42 49t-64 17.5
q-36 0 -62.5 -17.5t-41.5 -49t-15 -74.5t15 -74.5t41.5 -48.5t62.5 -17zM197 602l-47 53l132 108h95l132 -108l-47 -53l-147 68h30zM408 826q-21 0 -41 6t-43 16q-15 6 -27 10t-21 4q-14 0 -25 -9t-14 -27l-89 12q1 51 31 87t78 36q18 0 37 -6t40 -15q15 -7 27 -11t23 -4
q14 0 24.5 9.5t12.5 26.5l90 -13q-1 -31 -13.5 -59t-35.5 -45.5t-54 -17.5z" />
    <glyph glyph-name="uni1EAC" unicode="&#x1eac;" horiz-adv-x="694" 
d="M-1 0l277 700h144l275 -700h-172l-132 355q-8 21 -16 45t-16 49.5t-15.5 50t-12.5 45.5l30 1q-6 -25 -13.5 -49t-15 -47.5t-16.5 -47t-17 -48.5l-132 -354h-168zM131 134l53 128h322l52 -128h-427zM347 -224q-46 0 -72 22.5t-26 62.5q0 38 26.5 61.5t71.5 23.5
q46 0 72 -22t26 -63q0 -37 -26.5 -61t-71.5 -24zM215 754l-49 57l136 106h90l136 -106l-49 -57l-147 71h30z" />
    <glyph glyph-name="uni1EAD" unicode="&#x1ead;" horiz-adv-x="659" 
d="M267 -9q-67 0 -119.5 35.5t-83.5 98t-31 141.5q0 81 31 143t85 97.5t123 35.5q38 0 69.5 -11t55.5 -30.5t41 -45t25 -54.5l-33 4v126h159v-531h-162v128l36 1q-8 -28 -26 -53t-44 -44t-58 -30t-68 -11zM311 126q37 0 64 17t42 48.5t15 74.5t-15 74.5t-42 49t-64 17.5
q-36 0 -62.5 -17.5t-41.5 -49t-15 -74.5t15 -74.5t41.5 -48.5t62.5 -17zM330 -224q-46 0 -72 22.5t-26 62.5q0 38 26.5 61.5t71.5 23.5q46 0 72 -22t26 -63q0 -37 -26.5 -61t-71.5 -24zM196 601l-58 50l144 129h96l144 -129l-58 -50l-149 86h30z" />
    <glyph glyph-name="uni1EAE" unicode="&#x1eae;" horiz-adv-x="694" 
d="M-1 0l277 700h144l275 -700h-172l-132 355q-8 21 -16 45t-16 49.5t-15.5 50t-12.5 45.5l30 1q-6 -25 -13.5 -49t-15 -47.5t-16.5 -47t-17 -48.5l-132 -354h-168zM131 134l53 128h322l52 -128h-427zM347 745q-68 0 -116.5 38t-62.5 104l97 12q12 -33 34.5 -45.5
t47.5 -12.5t47.5 12.5t34.5 45.5l97 -12q-14 -66 -62.5 -104t-116.5 -38zM356 888l-62 46l95 164l100 -72z" />
    <glyph glyph-name="uni1EAF" unicode="&#x1eaf;" horiz-adv-x="659" 
d="M267 -9q-67 0 -119.5 35.5t-83.5 98t-31 141.5q0 81 31 143t85 97.5t123 35.5q38 0 69.5 -11t55.5 -30.5t41 -45t25 -54.5l-33 4v126h159v-531h-162v128l36 1q-8 -28 -26 -53t-44 -44t-58 -30t-68 -11zM311 126q37 0 64 17t42 48.5t15 74.5t-15 74.5t-42 49t-64 17.5
q-36 0 -62.5 -17.5t-41.5 -49t-15 -74.5t15 -74.5t41.5 -48.5t62.5 -17zM330 594q-69 0 -117 38t-62 104l98 12q12 -30 34 -43t47 -13t47 13t34 43l98 -12q-14 -66 -62 -104t-117 -38zM339 770l-63 45l94 164l101 -72z" />
    <glyph glyph-name="uni1EB0" unicode="&#x1eb0;" horiz-adv-x="694" 
d="M-1 0l277 700h144l275 -700h-172l-132 355q-8 21 -16 45t-16 49.5t-15.5 50t-12.5 45.5l30 1q-6 -25 -13.5 -49t-15 -47.5t-16.5 -47t-17 -48.5l-132 -354h-168zM131 134l53 128h322l52 -128h-427zM347 745q-68 0 -116.5 37.5t-62.5 104.5l97 12q12 -33 34 -45.5
t48 -12.5q25 0 47.5 12.5t34.5 45.5l97 -12q-14 -66 -62.5 -104t-116.5 -38zM345 888l-133 138l100 72l95 -164z" />
    <glyph glyph-name="uni1EB1" unicode="&#x1eb1;" horiz-adv-x="659" 
d="M267 -9q-67 0 -119.5 35.5t-83.5 98t-31 141.5q0 81 31 143t85 97.5t123 35.5q38 0 69.5 -11t55.5 -30.5t41 -45t25 -54.5l-33 4v126h159v-531h-162v128l36 1q-8 -28 -26 -53t-44 -44t-58 -30t-68 -11zM311 126q37 0 64 17t42 48.5t15 74.5t-15 74.5t-42 49t-64 17.5
q-36 0 -62.5 -17.5t-41.5 -49t-15 -74.5t15 -74.5t41.5 -48.5t62.5 -17zM330 594q-69 0 -117 38.5t-62 108.5l98 12q12 -33 34 -47t47 -14t47 14t34 47l98 -12q-14 -69 -61.5 -108t-117.5 -39zM330 769l-134 138l100 72l95 -164z" />
    <glyph glyph-name="uni1EB2" unicode="&#x1eb2;" horiz-adv-x="694" 
d="M-1 0l277 700h144l275 -700h-172l-132 355q-8 21 -16 45t-16 49.5t-15.5 50t-12.5 45.5l30 1q-6 -25 -13.5 -49t-15 -47.5t-16.5 -47t-17 -48.5l-132 -354h-168zM131 134l53 128h322l52 -128h-427zM347 745q-68 0 -116.5 38t-62.5 104l97 12q11 -33 34 -45.5t48 -12.5
t48 12.5t34 45.5l97 -12q-14 -66 -62.5 -104t-116.5 -38zM322 886q-8 8 -13.5 18t-5.5 21q1 10 5.5 19.5t19.5 19.5q11 8 19 15t9 13q0 9 -9 14t-25 5q-19 0 -40 -5.5t-42 -14.5l-22 85q21 12 52 19.5t64 7.5q58 0 93 -24.5t35 -67.5q0 -29 -15 -44.5t-32 -25.5
q-17 -9 -27 -16.5t-10 -16.5q0 -2 0.5 -4t1.5 -4z" />
    <glyph glyph-name="uni1EB3" unicode="&#x1eb3;" horiz-adv-x="659" 
d="M267 -9q-67 0 -119.5 35.5t-83.5 98t-31 141.5q0 81 31 143t85 97.5t123 35.5q38 0 69.5 -11t55.5 -30.5t41 -45t25 -54.5l-33 4v126h159v-531h-162v128l36 1q-8 -28 -26 -53t-44 -44t-58 -30t-68 -11zM311 126q37 0 64 17t42 48.5t15 74.5t-15 74.5t-42 49t-64 17.5
q-36 0 -62.5 -17.5t-41.5 -49t-15 -74.5t15 -74.5t41.5 -48.5t62.5 -17zM330 594q-69 0 -117 38.5t-62 108.5l98 12q12 -33 34 -47t47 -14t47 14t34 47l98 -12q-14 -69 -61.5 -108t-117.5 -39zM304 768q-9 9 -13.5 19.5t-4.5 21.5q0 10 5 19.5t21 20.5q11 8 19 15t8 14
q0 10 -9 15t-24 5q-19 0 -40.5 -6t-42.5 -14l-21 85q20 12 51 19.5t65 7.5q58 0 92.5 -25t34.5 -67q0 -32 -14.5 -48t-32.5 -25q-16 -8 -26 -16t-10 -18v-4.5t1 -4.5z" />
    <glyph glyph-name="uni1EB4" unicode="&#x1eb4;" horiz-adv-x="694" 
d="M-1 0l277 700h144l275 -700h-172l-132 355q-8 21 -16 45t-16 49.5t-15.5 50t-12.5 45.5l30 1q-6 -25 -13.5 -49t-15 -47.5t-16.5 -47t-17 -48.5l-132 -354h-168zM131 134l53 128h322l52 -128h-427zM347 745q-68 0 -116.5 36.5t-62.5 101.5l97 12q12 -31 34.5 -42.5
t47.5 -11.5t47.5 11.5t34.5 42.5l97 -12q-14 -65 -62.5 -101.5t-116.5 -36.5zM426 952q-20 0 -39 6t-41 16q-19 8 -31 13t-22 5q-17 0 -26 -10.5t-12 -28.5l-92 5q1 58 33.5 94.5t82.5 36.5q21 0 39.5 -6.5t39.5 -16.5q15 -7 27.5 -12t22.5 -5q16 0 22.5 10.5t9.5 28.5
l92 -4q0 -36 -13.5 -66.5t-37 -48t-55.5 -17.5z" />
    <glyph glyph-name="uni1EB5" unicode="&#x1eb5;" horiz-adv-x="659" 
d="M267 -9q-67 0 -119.5 35.5t-83.5 98t-31 141.5q0 81 31 143t85 97.5t123 35.5q38 0 69.5 -11t55.5 -30.5t41 -45t25 -54.5l-33 4v126h159v-531h-162v128l36 1q-8 -28 -26 -53t-44 -44t-58 -30t-68 -11zM311 126q37 0 64 17t42 48.5t15 74.5t-15 74.5t-42 49t-64 17.5
q-36 0 -62.5 -17.5t-41.5 -49t-15 -74.5t15 -74.5t41.5 -48.5t62.5 -17zM331 594q-70 0 -117.5 38.5t-62.5 108.5l99 12q12 -33 34 -47t47 -14q24 0 46 14t34 47l99 -12q-14 -69 -62 -108t-117 -39zM409 830q-21 0 -41 6.5t-43 15.5q-15 7 -27 10.5t-21 3.5q-14 0 -25 -9
t-14 -27l-89 13q1 50 31 86t78 36q18 0 37 -6t40 -15q15 -6 27 -10.5t23 -4.5q14 0 24.5 9.5t12.5 27.5l90 -13q-1 -32 -13.5 -60t-35.5 -45.5t-54 -17.5z" />
    <glyph glyph-name="uni1EB6" unicode="&#x1eb6;" horiz-adv-x="694" 
d="M-1 0l277 700h144l275 -700h-172l-132 355q-8 21 -16 45t-16 49.5t-15.5 50t-12.5 45.5l30 1q-6 -25 -13.5 -49t-15 -47.5t-16.5 -47t-17 -48.5l-132 -354h-168zM131 134l53 128h322l52 -128h-427zM347 -224q-46 0 -72 22.5t-26 62.5q0 38 26.5 61.5t71.5 23.5
q46 0 72 -22t26 -63q0 -37 -26.5 -61t-71.5 -24zM347 757q-45 0 -82 19t-62.5 53.5t-34.5 79.5l102 12q10 -26 31 -43t46 -17t46 17t31 43l102 -12q-9 -45 -34.5 -79.5t-62 -53.5t-82.5 -19z" />
    <glyph glyph-name="uni1EB7" unicode="&#x1eb7;" horiz-adv-x="659" 
d="M267 -9q-67 0 -119.5 35.5t-83.5 98t-31 141.5q0 81 31 143t85 97.5t123 35.5q38 0 69.5 -11t55.5 -30.5t41 -45t25 -54.5l-33 4v126h159v-531h-162v128l36 1q-8 -28 -26 -53t-44 -44t-58 -30t-68 -11zM311 126q37 0 64 17t42 48.5t15 74.5t-15 74.5t-42 49t-64 17.5
q-36 0 -62.5 -17.5t-41.5 -49t-15 -74.5t15 -74.5t41.5 -48.5t62.5 -17zM330 -224q-46 0 -72 22.5t-26 62.5q0 38 26.5 61.5t71.5 23.5q46 0 72 -22t26 -63q0 -37 -26.5 -61t-71.5 -24zM330 601q-69 0 -117 43t-62 117l102 12q11 -31 31.5 -49.5t45.5 -18.5t45.5 18.5
t31.5 49.5l102 -12q-14 -74 -62 -117t-117 -43z" />
    <glyph glyph-name="uni1EB8" unicode="&#x1eb8;" horiz-adv-x="645" 
d="M88 0v700h488v-145h-323v-410h333v-145h-498zM168 287v138h363v-138h-363zM323 -224q-46 0 -72 22.5t-26 62.5q0 38 26.5 61.5t71.5 23.5q46 0 72 -22t26 -63q0 -37 -26.5 -61t-71.5 -24z" />
    <glyph glyph-name="uni1EB9" unicode="&#x1eb9;" horiz-adv-x="586" 
d="M324 -10q-88 0 -153 35.5t-101 97t-36 140.5q0 61 20 112t56 88.5t85.5 58t108.5 20.5q56 0 102.5 -20t80.5 -56t52 -85t16 -107l-1 -43h-423l-23 90h316l-17 -19v20q-2 25 -15.5 44.5t-35.5 30.5t-50 11q-39 0 -66.5 -15.5t-41.5 -45t-14 -72.5q0 -44 18.5 -76.5
t54 -50.5t84.5 -18q34 0 60.5 10t57.5 34l75 -106q-31 -27 -66 -44t-71.5 -25.5t-72.5 -8.5zM324 -224q-46 0 -72 22.5t-26 62.5q0 38 26.5 61.5t71.5 23.5q46 0 72 -22t26 -63q0 -37 -26.5 -61t-71.5 -24z" />
    <glyph glyph-name="uni1EBA" unicode="&#x1eba;" horiz-adv-x="645" 
d="M88 0v700h488v-145h-323v-410h333v-145h-498zM168 287v138h363v-138h-363zM317 746q-7 9 -13 20t-6 23t6.5 23.5t24.5 24.5q14 9 22 16t8 17q0 9 -8.5 13.5t-21.5 4.5q-20 0 -42 -6t-44 -16l-23 85q22 12 54.5 20.5t66.5 8.5q57 0 90.5 -24.5t33.5 -65.5q0 -33 -14 -50
t-30 -27t-26.5 -19t-10.5 -19q0 -4 1 -7t2 -7z" />
    <glyph glyph-name="uni1EBB" unicode="&#x1ebb;" horiz-adv-x="586" 
d="M324 -10q-88 0 -153 35.5t-101 97t-36 140.5q0 61 20 112t56 88.5t85.5 58t108.5 20.5q56 0 102.5 -20t80.5 -56t52 -85t16 -107l-1 -43h-423l-23 90h316l-17 -19v20q-2 25 -15.5 44.5t-35.5 30.5t-50 11q-39 0 -66.5 -15.5t-41.5 -45t-14 -72.5q0 -44 18.5 -76.5
t54 -50.5t84.5 -18q34 0 60.5 10t57.5 34l75 -106q-31 -27 -66 -44t-71.5 -25.5t-72.5 -8.5zM279 592q-7 9 -13 19.5t-6 22.5q0 13 6.5 24.5t24.5 23.5q14 10 22 16.5t8 16.5q0 9 -8.5 13.5t-21.5 4.5q-20 0 -42 -6t-44 -15l-23 84q22 12 54.5 21t66.5 9q57 0 90.5 -24.5
t33.5 -66.5q0 -32 -14 -49t-30 -28q-16 -9 -26.5 -18.5t-10.5 -19.5q0 -3 1 -6.5t2 -6.5z" />
    <glyph glyph-name="uni1EBC" unicode="&#x1ebc;" horiz-adv-x="645" 
d="M88 0v700h488v-145h-323v-410h333v-145h-498zM168 287v138h363v-138h-363zM420 768q-20 0 -40 6t-44 16q-18 9 -30.5 13t-22.5 4q-14 0 -22.5 -10t-8.5 -28h-100q0 66 36.5 103.5t91.5 37.5q18 0 35.5 -5t44.5 -17q16 -8 27 -12t20 -4q13 0 20.5 10.5t6.5 27.5h99
q0 -38 -14.5 -71t-39.5 -52t-59 -19z" />
    <glyph glyph-name="uni1EBD" unicode="&#x1ebd;" horiz-adv-x="586" 
d="M324 -10q-88 0 -153 35.5t-101 97t-36 140.5q0 61 20 112t56 88.5t85.5 58t108.5 20.5q56 0 102.5 -20t80.5 -56t52 -85t16 -107l-1 -43h-423l-23 90h316l-17 -19v20q-2 25 -15.5 44.5t-35.5 30.5t-50 11q-39 0 -66.5 -15.5t-41.5 -45t-14 -72.5q0 -44 18.5 -76.5
t54 -50.5t84.5 -18q34 0 60.5 10t57.5 34l75 -106q-31 -27 -66 -44t-71.5 -25.5t-72.5 -8.5zM373 614q-17 0 -35 6t-41 22q-17 14 -28 19.5t-18 5.5q-14 0 -25 -11.5t-14 -36.5l-89 13q1 56 32 96t83 40q17 0 34 -6t40 -21q13 -11 24.5 -18.5t22.5 -7.5q14 0 24.5 12.5
t12.5 35.5l90 -13q-1 -35 -15 -66.5t-39.5 -50.5t-58.5 -19z" />
    <glyph glyph-name="uni1EBE" unicode="&#x1ebe;" horiz-adv-x="645" 
d="M88 0v700h488v-145h-323v-410h333v-145h-498zM168 287v138h363v-138h-363zM208 750l-45 55l134 102h90l134 -102l-45 -55l-149 65h30zM522 880l-64 44l95 164l100 -71z" />
    <glyph glyph-name="uni1EBF" unicode="&#x1ebf;" horiz-adv-x="586" 
d="M324 -10q-88 0 -153 35.5t-101 97t-36 140.5q0 61 20 112t56 88.5t85.5 58t108.5 20.5q56 0 102.5 -20t80.5 -56t52 -85t16 -107l-1 -43h-423l-23 90h316l-17 -19v20q-2 25 -15.5 44.5t-35.5 30.5t-50 11q-39 0 -66.5 -15.5t-41.5 -45t-14 -72.5q0 -44 18.5 -76.5
t54 -50.5t84.5 -18q34 0 60.5 10t57.5 34l75 -106q-31 -27 -66 -44t-71.5 -25.5t-72.5 -8.5zM171 602l-47 53l132 108h95l133 -108l-48 -53l-147 68h30zM497 754l-64 45l95 164l100 -71z" />
    <glyph glyph-name="uni1EC0" unicode="&#x1ec0;" horiz-adv-x="645" 
d="M88 0v700h488v-145h-323v-410h333v-145h-498zM168 287v138h363v-138h-363zM208 750l-45 55l134 102h90l134 -102l-45 -55l-149 65h30zM511 880l-133 138l100 72l95 -165z" />
    <glyph glyph-name="uni1EC1" unicode="&#x1ec1;" horiz-adv-x="586" 
d="M324 -10q-88 0 -153 35.5t-101 97t-36 140.5q0 61 20 112t56 88.5t85.5 58t108.5 20.5q56 0 102.5 -20t80.5 -56t52 -85t16 -107l-1 -43h-423l-23 90h316l-17 -19v20q-2 25 -15.5 44.5t-35.5 30.5t-50 11q-39 0 -66.5 -15.5t-41.5 -45t-14 -72.5q0 -44 18.5 -76.5
t54 -50.5t84.5 -18q34 0 60.5 10t57.5 34l75 -106q-31 -27 -66 -44t-71.5 -25.5t-72.5 -8.5zM172 601l-48 54l133 107h95l132 -107l-47 -54l-148 68h30zM474 753l-133 138l100 72l95 -165z" />
    <glyph glyph-name="uni1EC2" unicode="&#x1ec2;" horiz-adv-x="645" 
d="M88 0v700h488v-145h-323v-410h333v-145h-498zM168 287v138h363v-138h-363zM209 750l-46 55l135 102h90l134 -102l-45 -55l-149 65h30zM494 876q-8 9 -13 19t-5 21q0 10 4.5 19t21.5 20q11 8 19 14.5t8 13.5q0 9 -9 14t-24 5q-19 0 -40.5 -6t-42.5 -14l-21 85
q21 11 51.5 19t64.5 8q58 0 92.5 -25t34.5 -67q0 -30 -15 -45t-32 -25q-16 -9 -26 -17t-10 -17v-3t1 -5z" />
    <glyph glyph-name="uni1EC3" unicode="&#x1ec3;" horiz-adv-x="586" 
d="M324 -10q-88 0 -153 35.5t-101 97t-36 140.5q0 61 20 112t56 88.5t85.5 58t108.5 20.5q56 0 102.5 -20t80.5 -56t52 -85t16 -107l-1 -43h-423l-23 90h316l-17 -19v20q-2 25 -15.5 44.5t-35.5 30.5t-50 11q-39 0 -66.5 -15.5t-41.5 -45t-14 -72.5q0 -44 18.5 -76.5
t54 -50.5t84.5 -18q34 0 60.5 10t57.5 34l75 -106q-31 -27 -66 -44t-71.5 -25.5t-72.5 -8.5zM171 602l-48 53l133 108h95l133 -108l-48 -53l-147 68h30zM459 746q-8 9 -13 19.5t-5 21.5q0 10 5 20t21 20q12 8 19.5 15t7.5 15q0 9 -9 14t-23 5q-20 0 -41 -5.5t-43 -14.5
l-21 85q21 11 52 19t64 8q58 0 93 -25t35 -67q0 -31 -15 -47t-33 -26q-15 -8 -25.5 -15.5t-10.5 -18.5v-4t1 -5z" />
    </font>
</defs>
</svg>
