<?xml version="1.0" standalone="no"?>
<!DOCTYPE svg PUBLIC "-//W3C//DTD SVG 1.1//EN" "http://www.w3.org/Graphics/SVG/1.1/DTD/svg11.dtd" >
<svg xmlns="http://www.w3.org/2000/svg" xmlns:xlink="http://www.w3.org/1999/xlink" version="1.1">
<metadata>
Created by FontForge 20170731 at Fri Jul 30 19:17:25 2021
 By Aleksey,,,
Copyright 2019 The Lexend Project Authors (https://github.com/googlefonts/lexend)
</metadata>
<defs>
<font id="LexendDeca-SemiBold" horiz-adv-x="0" >
  <font-face 
    font-family="Lexend Deca SemiBold"
    font-weight="600"
    font-stretch="normal"
    units-per-em="1000"
    panose-1="0 0 0 0 0 0 0 0 0 0"
    ascent="800"
    descent="-200"
    x-height="529"
    cap-height="700"
    bbox="-213 -277 1398 1127"
    underline-thickness="50"
    underline-position="-175"
    unicode-range="U+000D-FB02"
  />
<missing-glyph horiz-adv-x="584" 
d="M75 0q-35 0 -35 35v630q0 35 35 35h434q35 0 35 -35v-630q0 -35 -35 -35h-434zM75 30h413q3 0 4 2t-1 4l-415 599q-2 3 -4 2.5t-2 -4.5v-598q0 -5 5 -5zM508 65q2 -3 4 -2.5t2 4.5v598q0 5 -5 5h-414q-3 0 -4 -2t1 -4z" />
    <glyph glyph-name="fi" unicode="fi" horiz-adv-x="699" 
d="M112 0v566q0 49 22 89t60.5 63t90.5 23q35 0 66 -11.5t53 -30.5l-42 -105q-13 8 -26.5 13.5t-24.5 5.5q-19 0 -31.5 -6.5t-18.5 -19t-6 -31.5v-556h-71h-41h-31zM33 396v120h336v-120h-336zM476 0v529h142v-529h-142zM546 637q-41 0 -64 20.5t-23 57.5q0 34 23.5 55.5
t63.5 21.5q41 0 64 -20.5t23 -56.5q0 -34 -23.5 -56t-63.5 -22z" />
    <glyph glyph-name="fl" unicode="fl" horiz-adv-x="680" 
d="M112 0v566q0 49 22 89t60.5 63t90.5 23q35 0 66 -11.5t53 -30.5l-42 -105q-13 8 -26.5 13.5t-24.5 5.5q-19 0 -31.5 -6.5t-18.5 -19t-6 -31.5v-556h-71h-41h-31zM33 396v120h336v-120h-336zM465 0v740h142v-740h-142z" />
    <glyph glyph-name="f_f" unicode="ff" horiz-adv-x="786" 
d="M112 0v566q0 49 22 89t60.5 63t90.5 23q35 0 66 -11.5t53 -30.5l-42 -105q-13 8 -26.5 13.5t-24.5 5.5q-19 0 -31.5 -6.5t-18.5 -19t-6 -31.5v-556h-71h-41h-31zM33 396v120h336v-120h-336zM505 0v566q0 49 22 89t60.5 63t90.5 23q35 0 66 -11.5t53 -30.5l-42 -105
q-13 8 -26.5 13.5t-24.5 5.5q-19 0 -31.5 -6.5t-18.5 -19t-6 -31.5v-556h-71h-41h-31zM426 396v120h336v-120h-336z" />
    <glyph glyph-name="f_f_i" unicode="ffi" horiz-adv-x="1092" 
d="M112 0v566q0 49 22 89t60.5 63t90.5 23q35 0 66 -11.5t53 -30.5l-42 -105q-13 8 -26.5 13.5t-24.5 5.5q-19 0 -31.5 -6.5t-18.5 -19t-6 -31.5v-556h-71h-41h-31zM33 396v120h336v-120h-336zM505 0v566q0 49 22 89t60.5 63t90.5 23q35 0 66 -11.5t53 -30.5l-42 -105
q-13 8 -26.5 13.5t-24.5 5.5q-19 0 -31.5 -6.5t-18.5 -19t-6 -31.5v-556h-71h-41h-31zM426 396v120h336v-120h-336zM869 0v529h142v-529h-142zM939 637q-41 0 -64 20.5t-23 57.5q0 34 23.5 55.5t63.5 21.5q41 0 64 -20.5t23 -56.5q0 -34 -23.5 -56t-63.5 -22z" />
    <glyph glyph-name="f_f_l" unicode="ffl" horiz-adv-x="1073" 
d="M112 0v566q0 49 22 89t60.5 63t90.5 23q35 0 66 -11.5t53 -30.5l-42 -105q-13 8 -26.5 13.5t-24.5 5.5q-19 0 -31.5 -6.5t-18.5 -19t-6 -31.5v-556h-71h-41h-31zM33 396v120h336v-120h-336zM505 0v566q0 49 22 89t60.5 63t90.5 23q35 0 66 -11.5t53 -30.5l-42 -105
q-13 8 -26.5 13.5t-24.5 5.5q-19 0 -31.5 -6.5t-18.5 -19t-6 -31.5v-556h-71h-41h-31zM426 396v120h336v-120h-336zM858 0v740h142v-740h-142z" />
    <glyph glyph-name=".notdef" horiz-adv-x="584" 
d="M75 0q-35 0 -35 35v630q0 35 35 35h434q35 0 35 -35v-630q0 -35 -35 -35h-434zM75 30h413q3 0 4 2t-1 4l-415 599q-2 3 -4 2.5t-2 -4.5v-598q0 -5 5 -5zM508 65q2 -3 4 -2.5t2 4.5v598q0 5 -5 5h-414q-3 0 -4 -2t1 -4z" />
    <glyph glyph-name=".null" 
 />
    <glyph glyph-name="nonmarkingreturn" horiz-adv-x="333" 
 />
    <glyph glyph-name="CR" unicode="&#xd;" horiz-adv-x="277" 
 />
    <glyph glyph-name="space" unicode=" " horiz-adv-x="307" 
 />
    <glyph glyph-name="exclam" unicode="!" horiz-adv-x="286" 
d="M99 251q-8 61 -15.5 127t-11.5 130.5t-4 123.5v76h149v-76q0 -61 -4.5 -127t-11.5 -131t-15 -123h-87zM141 -11q-39 0 -60 22t-21 63q0 37 22.5 60.5t58.5 23.5q38 0 59.5 -22t21.5 -62q0 -38 -22.5 -61.5t-58.5 -23.5z" />
    <glyph glyph-name="quotedbl" unicode="&#x22;" horiz-adv-x="456" 
d="M263 438l21 262h148l-82 -262h-87zM42 438l21 262h149l-83 -262h-87z" />
    <glyph glyph-name="numbersign" unicode="#" horiz-adv-x="716" 
d="M368 0l120 700h124l-120 -700h-124zM42 157v115h595v-115h-595zM105 0l120 700h124l-120 -700h-124zM80 437v115h594v-115h-594z" />
    <glyph glyph-name="dollar" unicode="$" horiz-adv-x="631" 
d="M318 -10q-94 0 -163.5 31.5t-119.5 92.5l78 116q54 -62 104.5 -87t109.5 -25q31 0 55.5 9t38.5 24.5t14 37.5q0 16 -7 29.5t-20 24t-31 19t-40 15t-48 10.5q-75 16 -125 45t-74 72t-24 102q0 45 20 83.5t55.5 66.5t82 43t98.5 15q84 0 148.5 -27.5t111.5 -84.5l-72 -104
q-37 43 -84.5 65t-100.5 22q-33 0 -57 -8.5t-37.5 -25t-13.5 -38.5q0 -18 9 -32t26 -24.5t41 -18.5t53 -14q55 -11 99 -29t75.5 -43.5t48.5 -60t17 -77.5q0 -71 -34 -121t-94 -76.5t-140 -26.5zM258 -91l8 462l85 -33l8 -429h-101zM381 337l-85 33l-8 416h101z" />
    <glyph glyph-name="percent" unicode="%" horiz-adv-x="927" 
d="M157 0l463 700h135l-468 -700h-130zM209 329q-49 0 -87.5 25t-60 68.5t-21.5 99.5t21.5 100.5t60 69t87.5 24.5q50 0 87.5 -24.5t59 -69t21.5 -100.5q0 -55 -22 -98.5t-60 -69t-86 -25.5zM209 423q18 0 31 12t20 34.5t7 52.5t-7 53t-20 35t-31 12t-31.5 -12.5t-20.5 -35
t-7 -52.5t7 -52.5t20.5 -34.5t31.5 -12zM713 -9q-49 0 -87.5 25t-60.5 68.5t-22 99.5t21.5 100t60 69t88.5 25q49 0 87 -25t59 -69t21 -100q0 -55 -21.5 -99t-59.5 -69t-86 -25zM713 84q18 0 31 12.5t20 34.5t7 53q0 30 -7 52.5t-20 35t-31 12.5q-19 0 -32 -12.5t-20.5 -35
t-7.5 -52.5q0 -31 7 -53t20.5 -34.5t32.5 -12.5z" />
    <glyph glyph-name="ampersand" unicode="&#x26;" horiz-adv-x="764" 
d="M578 0l-76 80l-46 44l-156 168q-34 37 -59.5 70t-42 62.5t-24.5 55.5t-8 49q0 53 28 95t77 66t114 24q48 0 90.5 -16.5t73.5 -46t44 -69.5l-111 -67q-17 42 -39.5 59t-54.5 17q-24 0 -41 -8t-26 -22.5t-9 -36.5q0 -21 14.5 -48t37 -55.5t46 -54t41.5 -44.5l95 -104
l56 -53l154 -165h-178zM320 -10q-76 0 -137 30.5t-97 82t-36 113.5q0 75 42.5 133t126.5 89l88 -91q-58 -12 -87 -41.5t-29 -76.5q0 -37 17 -64t50.5 -42t79.5 -15q41 0 76.5 17t63.5 47.5t46 73t25 95.5h131q-9 -63 -30.5 -117t-54 -97t-74.5 -74t-92.5 -47t-108.5 -16z
" />
    <glyph glyph-name="quotesingle" unicode="'" horiz-adv-x="237" 
d="M42 438l21 262h149l-83 -262h-87z" />
    <glyph glyph-name="parenleft" unicode="(" horiz-adv-x="382" 
d="M290 -186q-122 76 -186 190t-64 254q0 139 64.5 253.5t186.5 190.5l79 -78q-96 -66 -143.5 -161.5t-47.5 -204.5t47.5 -204.5t143.5 -161.5z" />
    <glyph glyph-name="parenright" unicode=")" horiz-adv-x="382" 
d="M91 -186l-79 78q96 66 143.5 161.5t47.5 204.5t-47.5 204.5t-143.5 161.5l80 78q122 -76 186 -190t64 -254q0 -139 -64.5 -253.5t-186.5 -190.5z" />
    <glyph glyph-name="asterisk" unicode="*" horiz-adv-x="423" 
d="M164 360l12 129l13 -2l-118 -80l-48 84l127 54l-1 -8l-128 59l49 83l121 -86l-15 -1l-13 132h101l-13 -139l-13 7l115 86l49 -84l-130 -59v11l128 -55l-48 -82l-114 82l14 -2l14 -129h-102z" />
    <glyph glyph-name="plus" unicode="+" horiz-adv-x="595" 
d="M47 224v117h501v-117h-501zM232 40v487h130v-487h-130z" />
    <glyph glyph-name="comma" unicode="," horiz-adv-x="281" 
d="M86 -193l-44 53q39 19 62.5 46t23.5 47q0 9 -5 19t-22 25q-22 17 -29.5 32.5t-7.5 33.5q0 29 21 46t54 17q27 0 49.5 -15.5t35.5 -43t13 -63.5q0 -32 -11 -62.5t-31.5 -57t-48 -46.5t-60.5 -31z" />
    <glyph glyph-name="hyphen" unicode="-" horiz-adv-x="431" 
d="M52 221v132h327v-132h-327z" />
    <glyph glyph-name="period" unicode="." horiz-adv-x="247" 
d="M124 -11q-39 0 -60 22t-21 63q0 37 22.5 60.5t58.5 23.5q38 0 59 -22t21 -62q0 -38 -22 -61.5t-58 -23.5z" />
    <glyph glyph-name="slash" unicode="/" horiz-adv-x="583" 
d="M11 -139l415 839h140l-414 -839h-141z" />
    <glyph glyph-name="zero" unicode="0" horiz-adv-x="653" 
d="M326 -10q-90 0 -153.5 43t-97 123.5t-33.5 193.5t33.5 193.5t97 123.5t153.5 43t154 -43t97.5 -123.5t33.5 -193.5t-33.5 -193.5t-97.5 -123.5t-154 -43zM326 119q68 0 104.5 60t36.5 171q0 113 -36.5 174t-104.5 61t-104.5 -61t-36.5 -174q0 -111 36.5 -171t104.5 -60z
" />
    <glyph glyph-name="one" unicode="1" horiz-adv-x="542" 
d="M213 49v568l37 -67l-146 -71l-29 133l195 98h91v-661h-148zM90 0v135h397v-135h-397z" />
    <glyph glyph-name="two" unicode="2" horiz-adv-x="548" 
d="M70 0l-33 82l207 229q17 18 36.5 42t38 49.5t29.5 49.5t11 45q0 23 -10 40.5t-29 27.5t-47 10q-26 0 -49 -13.5t-43 -39.5t-35 -63l-112 62q20 58 57 101.5t88 67.5t109 24q61 0 110 -25.5t77 -70.5t28 -104q0 -22 -4.5 -45t-15 -48t-27 -52.5t-40 -58t-53.5 -63.5
l-159 -173l-20 61h348v-135h-462z" />
    <glyph glyph-name="three" unicode="3" horiz-adv-x="571" 
d="M276 -10q-82 0 -142.5 35t-111.5 120l110 70q23 -35 47 -57t49.5 -32t53.5 -10q30 0 56 14.5t41.5 39.5t15.5 58q0 34 -13 57t-38 35t-59 12q-15 0 -32.5 -3t-37 -9.5t-41.5 -16.5l-35 93l185 202l38 -27l-294 4v129h421l27 -55l-231 -250l-34 41q8 4 26.5 7.5t33.5 3.5
q46 0 86 -17t71 -47t48.5 -70t17.5 -86q0 -69 -34.5 -123.5t-93 -86t-130.5 -31.5z" />
    <glyph glyph-name="four" unicode="4" horiz-adv-x="648" 
d="M350 0v566l70 -4l-246 -301l-17 24h454v-126h-527l-62 118l353 427h120v-704h-145z" />
    <glyph glyph-name="five" unicode="5" horiz-adv-x="587" 
d="M274 -7q-76 0 -137.5 31.5t-102.5 91.5l81 90q43 -48 78 -65t77 -17q35 0 63 14.5t44 40.5t16 58q0 33 -16 59t-42.5 41.5t-60.5 15.5q-22 0 -41 -3.5t-42 -13t-56 -27.5l-68 90l43 305h394v-129h-318l37 44l-33 -222l-48 23q15 14 41.5 26.5t58 20t61.5 7.5
q66 0 117.5 -30t82 -83.5t30.5 -122.5t-34 -124.5t-93 -88t-132 -32.5z" />
    <glyph glyph-name="six" unicode="6" horiz-adv-x="572" 
d="M290 0q-53 0 -99.5 19t-81 53.5t-54 80t-19.5 98.5q0 34 7.5 68t22.5 71t36 76.5t47 83.5l96 161h140l4 -10l-127 -205q-27 -44 -47.5 -84t-36 -77t-28.5 -75l-29 80q13 34 35 61.5t50 47t59 30t61 10.5q59 0 108.5 -31.5t79 -83.5t29.5 -114q0 -75 -32.5 -133.5
t-89.5 -92.5t-131 -34zM292 127q34 0 60.5 15.5t41.5 43.5t15 64q0 31 -15.5 58.5t-41.5 44.5t-59 17q-35 0 -62.5 -16.5t-43 -43.5t-15.5 -59q0 -36 15.5 -63.5t42.5 -44t62 -16.5z" />
    <glyph glyph-name="seven" unicode="7" horiz-adv-x="549" 
d="M93 0l283 636l36 -65h-362v133h449l15 -77l-268 -627h-153z" />
    <glyph glyph-name="eight" unicode="8" horiz-adv-x="592" 
d="M296 -3q-70 0 -127 27.5t-91 74.5t-34 105q0 36 9.5 66t29 54t47.5 42t65 31l-10 -35q-28 11 -50 26.5t-38 35.5t-24 43.5t-8 49.5q0 54 31 97t83.5 68.5t116.5 25.5t116 -25.5t83 -68.5t31 -97q0 -26 -7.5 -49t-23 -42.5t-38 -35.5t-51.5 -28l-7 31q33 -10 60.5 -27.5
t47 -42t30.5 -54.5t11 -65q0 -59 -34 -106t-91 -74t-127 -27zM296 120q30 0 55 12t39 32.5t14 47.5q0 28 -14 49.5t-38.5 34.5t-55.5 13t-55.5 -13t-38.5 -34.5t-14 -49.5q0 -26 14 -46.5t38.5 -33t55.5 -12.5zM296 431q27 0 48 10.5t33.5 28t12.5 41.5q0 23 -12.5 41.5
t-33.5 29.5t-48 11t-48.5 -11t-33.5 -29.5t-12 -41.5q0 -24 12 -41.5t33.5 -28t48.5 -10.5z" />
    <glyph glyph-name="nine" unicode="9" horiz-adv-x="569" 
d="M214 0l-4 10l216 442l21 -67q-13 -34 -35 -61t-50.5 -47.5t-59.5 -31t-61 -10.5q-57 0 -105 31t-77 82t-29 112q0 72 33.5 130t91.5 91.5t131 33.5q52 0 98 -18.5t81 -52t54.5 -76.5t19.5 -92q0 -32 -6 -65t-18 -68.5t-30.5 -77t-42.5 -91.5l-87 -174h-141zM276 359
q34 0 60 15t41 40.5t15 56.5q0 34 -14.5 60.5t-40.5 42t-60 15.5q-31 0 -55.5 -15t-39 -41t-14.5 -61q0 -30 14.5 -55.5t39 -41.5t54.5 -16z" />
    <glyph glyph-name="colon" unicode=":" horiz-adv-x="247" 
d="M124 -10q-39 0 -60 22t-21 63q0 37 22.5 60.5t58.5 23.5q38 0 59 -22t21 -62q0 -38 -22 -61.5t-58 -23.5zM124 369q-39 0 -60 22t-21 63q0 37 22.5 60.5t58.5 23.5q38 0 59 -22t21 -62q0 -38 -22 -61.5t-58 -23.5z" />
    <glyph glyph-name="semicolon" unicode=";" horiz-adv-x="281" 
d="M87 -193l-44 53q39 19 62.5 46t23.5 47q0 9 -5 19t-22 25q-22 17 -29.5 32.5t-7.5 33.5q0 29 21 46t54 17q27 0 49.5 -15.5t35.5 -43t13 -63.5q0 -32 -11 -62.5t-31.5 -57t-48 -46.5t-60.5 -31zM140 370q-39 0 -60 22t-21 63q0 37 22.5 60.5t58.5 23.5q38 0 59 -22
t21 -62q0 -38 -22 -61.5t-58 -23.5z" />
    <glyph glyph-name="less" unicode="&#x3c;" horiz-adv-x="525" 
d="M423 -8l-379 217v92l379 217l60 -110l-346 -187v69l346 -188z" />
    <glyph glyph-name="equal" unicode="=" horiz-adv-x="605" 
d="M62 327v117h481v-117h-481zM62 119v116h481v-116h-481z" />
    <glyph glyph-name="greater" unicode="&#x3e;" horiz-adv-x="525" 
d="M108 -8l-60 110l346 188v-69l-346 187l60 110l379 -217v-92z" />
    <glyph glyph-name="question" unicode="?" horiz-adv-x="528" 
d="M195 230l-31 135q33 8 60.5 18.5t49.5 22.5t37.5 27t24 33.5t8.5 39.5q0 22 -12 39.5t-32 27t-47 9.5q-35 0 -69.5 -24.5t-61.5 -76.5l-99 89q45 68 106.5 105.5t128.5 37.5q65 0 117 -26.5t82.5 -72.5t30.5 -103q0 -36 -15 -70.5t-41.5 -65t-62.5 -53.5t-79 -37l-12 -55
h-83zM159 74q0 37 22 60.5t58 23.5q39 0 60 -22t21 -62q0 -38 -22 -61.5t-59 -23.5q-38 0 -59 22t-21 63z" />
    <glyph glyph-name="at" unicode="@" horiz-adv-x="965" 
d="M414 -162q-87 0 -156.5 26.5t-118 75t-74 116.5t-25.5 150q0 117 41.5 210.5t115 159t171 100t208.5 34.5q80 0 144 -22.5t110 -64.5t70.5 -99.5t24.5 -127.5q0 -69 -19.5 -131t-54.5 -110.5t-81.5 -76t-100.5 -27.5q-37 0 -66 13t-45 35.5t-16 53.5q0 17 2.5 34t3.5 35
l22 -20q-16 -48 -41.5 -82t-59 -51.5t-73.5 -17.5q-45 0 -80.5 23.5t-55.5 65.5t-20 97q0 48 17.5 97.5t50.5 91t77 67t96 25.5q31 0 55.5 -16t40 -44t18.5 -66l-28 -38l28 153h130l-56 -314q-3 -17 2 -27.5t15 -15.5t22 -5q28 0 52.5 19.5t42.5 53.5t28.5 78.5t10.5 94.5
q0 75 -32 129t-93 82.5t-147 28.5q-102 0 -184.5 -28.5t-141 -83.5t-89.5 -133t-31 -177q0 -69 19.5 -122.5t56.5 -91.5t92 -57.5t125 -19.5q47 0 81 6.5t65 20t69 33.5l37 -67q-59 -30 -101 -45.5t-78 -21.5t-76 -6zM432 160q28 0 55 18.5t46.5 48.5t24.5 65q3 15 5 27
t2 23q0 22 -8 38t-23 24.5t-37 8.5q-34 0 -61.5 -25t-43.5 -65t-16 -84q0 -37 15 -58t41 -21z" />
    <glyph glyph-name="A" unicode="A" horiz-adv-x="696" 
d="M7 0l275 700h134l273 -700h-154l-141 377q-6 16 -14.5 41t-17.5 53t-17 53.5t-12 42.5h27q-6 -22 -13.5 -46.5t-15.5 -50t-17 -49.5t-17 -47l-141 -374h-149zM135 147l49 120h321l50 -120h-420z" />
    <glyph glyph-name="B" unicode="B" horiz-adv-x="694" 
d="M91 0v700h304q70 0 118.5 -20.5t73.5 -59.5t25 -93q0 -60 -30 -100t-86 -55l-1 20q47 -11 81.5 -36t53.5 -62t19 -84q0 -52 -17 -91.5t-50 -65.5t-77.5 -39.5t-99.5 -13.5h-314zM235 130h164q32 0 54.5 9.5t34.5 29.5t12 47q0 26 -13 44t-36.5 27.5t-56.5 9.5h-159v-167z
M235 416h142q27 0 47 10t30.5 27t10.5 40q0 37 -24 57t-73 20h-133v-154z" />
    <glyph glyph-name="C" unicode="C" horiz-adv-x="689" 
d="M398 -10q-77 0 -141.5 26.5t-112 75t-73.5 115t-26 145.5q0 77 27 142.5t76 114t115 75.5t143 27q50 0 98.5 -13.5t89 -39.5t69.5 -62l-94 -104q-23 24 -49 41.5t-54.5 27t-60.5 9.5q-43 0 -80.5 -16t-65.5 -44.5t-44.5 -69t-16.5 -89.5q0 -50 16 -90.5t45 -69t69.5 -44
t89.5 -15.5q32 0 62 9t55.5 25t45.5 37l74 -117q-25 -27 -65.5 -49t-90.5 -34.5t-101 -12.5z" />
    <glyph glyph-name="D" unicode="D" horiz-adv-x="764" 
d="M91 0v700h287q77 0 139.5 -25.5t108 -72t69.5 -110.5t24 -142q0 -77 -24 -141.5t-69 -111t-108 -72t-140 -25.5h-287zM241 109l-16 26h148q45 0 81 15.5t61.5 43t38.5 67.5t13 89t-13 88.5t-38.5 67.5t-61.5 43.5t-81 15.5h-151l19 24v-480z" />
    <glyph glyph-name="E" unicode="E" horiz-adv-x="635" 
d="M91 0v700h473v-132h-326v-436h333v-132h-480zM161 293v128h355v-128h-355z" />
    <glyph glyph-name="F" unicode="F" horiz-adv-x="613" 
d="M91 0v700h150v-700h-150zM160 278v129h362v-129h-362zM160 565v135h404v-135h-404z" />
    <glyph glyph-name="G" unicode="G" horiz-adv-x="777" 
d="M412 -10q-81 0 -148.5 27.5t-116.5 76.5t-75.5 115t-26.5 143t27.5 142.5t78 114t118.5 75.5t149 27q56 0 107 -15t93 -41t70 -60l-93 -98q-26 25 -54 42.5t-59.5 27t-64.5 9.5q-47 0 -86.5 -17t-69.5 -47t-46.5 -71t-16.5 -89q0 -47 17.5 -88.5t48 -72t71.5 -48
t88 -17.5q34 0 63.5 10t52 28.5t35 43.5t12.5 53v24l20 -28h-200v125h324q1 -11 2.5 -27t2 -31.5t0.5 -24.5q0 -68 -24.5 -125t-68 -98t-102.5 -63.5t-128 -22.5z" />
    <glyph glyph-name="H" unicode="H" horiz-adv-x="773" 
d="M532 0v700h150v-700h-150zM91 0v700h150v-700h-150zM151 281l1 136h457v-136h-458z" />
    <glyph glyph-name="I" unicode="I" horiz-adv-x="530" 
d="M73 0v129h117v442h-117v129h384v-129h-117v-442h117v-129h-384z" />
    <glyph glyph-name="J" unicode="J" horiz-adv-x="658" 
d="M260 -10q-38 0 -71 9t-60 25t-49 39.5t-37 52.5l87 91q17 -23 31.5 -38t28 -24.5t27.5 -13t30 -3.5q28 0 49.5 13t33 36t11.5 53v337h-128v133h383v-133h-108v-354q0 -50 -17 -91t-48 -70.5t-72.5 -45.5t-90.5 -16z" />
    <glyph glyph-name="K" unicode="K" horiz-adv-x="737" 
d="M204 207l-32 136l354 357h182zM91 0v700h150v-700h-150zM545 0l-262 347l103 90l337 -437h-178z" />
    <glyph glyph-name="L" unicode="L" horiz-adv-x="606" 
d="M91 0v700h150v-565h317v-135h-467z" />
    <glyph glyph-name="M" unicode="M" horiz-adv-x="873" 
d="M91 0v700h137l255 -415l-90 1l258 414h131v-700h-147v240q0 90 4.5 162t15.5 143l18 -47l-205 -318h-66l-201 316l17 49q11 -67 15.5 -137.5t4.5 -167.5v-240h-147z" />
    <glyph glyph-name="N" unicode="N" horiz-adv-x="802" 
d="M91 0v700h134l387 -523h-28q-4 31 -7 60.5t-5.5 60t-4 63t-2.5 69t-1 79.5v191h147v-700h-136l-395 528l38 -1q5 -52 8.5 -88.5t6 -63.5t3.5 -47t1.5 -38t0.5 -38v-252h-147z" />
    <glyph glyph-name="O" unicode="O" horiz-adv-x="802" 
d="M402 -10q-78 0 -143 27t-113.5 75.5t-74.5 115t-26 144.5q0 79 26 145t74.5 114.5t113.5 75.5t142 27q78 0 142.5 -27t113 -76t74.5 -115t26 -144t-26 -144t-74.5 -115t-113 -76t-141.5 -27zM401 132q45 0 82 16.5t64 46t42.5 69.5t15.5 88t-15.5 88t-42.5 69.5t-64 46
t-82 16.5q-44 0 -81 -16.5t-65 -46t-42.5 -69.5t-14.5 -88t14.5 -88t42.5 -69.5t65 -46t81 -16.5z" />
    <glyph glyph-name="P" unicode="P" horiz-adv-x="653" 
d="M91 0v700h297q63 0 113 -29.5t79.5 -80.5t29.5 -115q0 -65 -29.5 -117t-79.5 -82.5t-113 -30.5h-147v-245h-150zM239 380h132q24 0 43 12.5t30.5 33.5t11.5 48t-11.5 47t-30.5 32t-43 12h-132v-185z" />
    <glyph glyph-name="Q" unicode="Q" horiz-adv-x="802" 
d="M615 -110l-267 358l113 78l264 -355zM401 -10q-77 0 -142 27t-113.5 75.5t-74.5 115t-26 144.5q0 79 26 145t74.5 114.5t113.5 75.5t142 27q78 0 142.5 -27t113 -76t74.5 -115t26 -144t-26 -144t-74.5 -115t-113 -76t-142.5 -27zM401 132q45 0 82 16.5t64 46t42.5 69.5
t15.5 88t-15.5 88t-42.5 69.5t-64 46t-82 16.5q-44 0 -81 -16.5t-65 -46t-42.5 -69.5t-14.5 -88t14.5 -88t42.5 -69.5t65 -46t81 -16.5z" />
    <glyph glyph-name="R" unicode="R" horiz-adv-x="700" 
d="M91 0v700h310q65 0 118 -29.5t83.5 -79.5t30.5 -114q0 -63 -30.5 -114.5t-83.5 -81.5t-118 -30h-165v-251h-145zM488 0l-178 316l154 25l198 -342zM236 373h158q27 0 47.5 12.5t31.5 35t11 50.5q0 30 -13 52t-38 34.5t-58 12.5h-139v-197z" />
    <glyph glyph-name="S" unicode="S" horiz-adv-x="631" 
d="M318 -10q-65 0 -118.5 16t-95 47t-74.5 75l94 107q49 -68 97.5 -92.5t105.5 -24.5q31 0 55.5 9t38.5 24.5t14 37.5q0 16 -7 29.5t-20 24t-31 19t-40 15t-48 10.5q-56 13 -98 31.5t-70 46t-41.5 62.5t-13.5 79q0 45 20 83.5t55.5 66.5t82 43t98.5 15q64 0 112 -14
t83.5 -41.5t59.5 -66.5l-95 -92q-21 28 -45.5 47t-53 28.5t-58.5 9.5q-33 0 -57 -8.5t-37.5 -25t-13.5 -38.5q0 -18 9 -32t26 -24.5t41 -18.5t53 -14q55 -11 99 -29t75.5 -43.5t48.5 -60t17 -77.5q0 -71 -34 -121t-94 -76.5t-140 -26.5z" />
    <glyph glyph-name="T" unicode="T" horiz-adv-x="630" 
d="M237 0v565h-204v135h564v-135h-210v-565h-150z" />
    <glyph glyph-name="U" unicode="U" horiz-adv-x="757" 
d="M379 -6q-85 0 -151.5 35.5t-104.5 98t-38 141.5v432h151v-423q0 -42 19 -75.5t51.5 -53.5t72.5 -20q41 0 74.5 20t53 53.5t19.5 75.5v423h146v-432q0 -79 -37.5 -141.5t-104.5 -98t-151 -35.5z" />
    <glyph glyph-name="V" unicode="V" horiz-adv-x="713" 
d="M290 0l-279 700h159l146 -379q12 -31 20.5 -54.5t15 -44t12.5 -40t12 -42.5l-29 -1q8 31 15.5 57.5t18 56t25.5 68.5l138 379h158l-281 -700h-131z" />
    <glyph glyph-name="W" unicode="W" horiz-adv-x="994" 
d="M224 0l-213 700h154l114 -391q7 -21 12.5 -45.5t9 -47t6 -42t4.5 -32.5l-24 1q9 42 15 70.5t11.5 51t13.5 45.5l110 289h124l108 -289q12 -30 19.5 -57.5t12.5 -53t9 -51.5l-21 -4q3 21 4.5 36.5t3 28.5t3.5 26.5t6 32t12 43.5l113 389h152l-215 -700h-112l-172 414
l16 -2l-161 -412h-115z" />
    <glyph glyph-name="X" unicode="X" horiz-adv-x="698" 
d="M507 0l-217 314l-278 386h184l212 -310l283 -390h-184zM7 0l267 381l114 -79l-207 -302h-174zM424 325l-113 76l196 299h174z" />
    <glyph glyph-name="Y" unicode="Y" horiz-adv-x="679" 
d="M274 0v349l7 -49l-283 400h173l216 -310l-68 3l195 307h167l-271 -411l15 68v-357h-151z" />
    <glyph glyph-name="Z" unicode="Z" horiz-adv-x="675" 
d="M60 0v102l383 511l45 -52h-402v139h521v-101l-381 -512l-46 47h438v-134h-558z" />
    <glyph glyph-name="bracketleft" unicode="[" horiz-adv-x="414" 
d="M80 -190v890h284v-118h-156l6 8v-674l-10 12h160v-118h-284z" />
    <glyph glyph-name="backslash" unicode="\" horiz-adv-x="575" 
d="M427 -107l-398 807h140l400 -807h-142z" />
    <glyph glyph-name="bracketright" unicode="]" horiz-adv-x="414" 
d="M50 -190v118h156l-6 -8v674l10 -12h-160v118h284v-890h-284z" />
    <glyph glyph-name="asciicircum" unicode="^" horiz-adv-x="588" 
d="M18 363l217 368h119l217 -368h-147l-161 278l64 2l-165 -280h-144z" />
    <glyph glyph-name="underscore" unicode="_" horiz-adv-x="688" 
d="M44 -182v114h600v-114h-600z" />
    <glyph glyph-name="grave" unicode="`" horiz-adv-x="500" 
d="M326 591l-195 105l71 97l167 -136z" />
    <glyph glyph-name="a" unicode="a" horiz-adv-x="651" 
d="M269 -10q-66 0 -119 36t-84 98t-31 142t31.5 142t85.5 97t123 35q39 0 71.5 -11.5t57 -31.5t41.5 -46t24 -56l-30 5v129h141v-529h-143v127l32 3q-8 -28 -26 -53t-44.5 -44.5t-59.5 -31t-70 -11.5zM308 113q40 0 70 19t46.5 53.5t16.5 80.5q0 45 -16.5 79t-46.5 53.5
t-70 19.5q-39 0 -68.5 -19.5t-46.5 -53.5t-17 -79q0 -46 17 -80.5t46.5 -53.5t68.5 -19z" />
    <glyph glyph-name="b" unicode="b" horiz-adv-x="649" 
d="M376 -10q-35 0 -68 10t-60 27.5t-45 40t-23 46.5l32 12l-7 -124h-134v738h143v-335l-28 11q6 24 23 46.5t43 40t57 27.5t64 10q69 0 123.5 -35.5t85.5 -97.5t31 -142t-30.5 -142t-84.5 -97.5t-122 -35.5zM342 111q40 0 69.5 19.5t46.5 54t17 80.5q0 45 -16.5 80t-46.5 54
t-70 19t-70 -19t-46.5 -54t-16.5 -80q0 -46 16.5 -80.5t46.5 -54t70 -19.5z" />
    <glyph glyph-name="c" unicode="c" horiz-adv-x="542" 
d="M301 -10q-76 0 -136 36t-94.5 98t-34.5 141t34.5 141t94.5 98t136 36q71 0 130 -26t92 -72l-78 -94q-14 19 -35 34.5t-45.5 24.5t-50.5 9q-41 0 -72.5 -19.5t-49.5 -53.5t-18 -78q0 -42 18.5 -76t50.5 -54t72 -20q26 0 49 7t43.5 22t37.5 36l77 -94q-33 -43 -93.5 -69.5
t-127.5 -26.5z" />
    <glyph glyph-name="d" unicode="d" horiz-adv-x="648" 
d="M278 -10q-70 0 -124.5 35.5t-86 97t-31.5 142.5q0 79 31.5 141.5t86 98t124.5 35.5q37 0 71.5 -11.5t62 -31.5t44.5 -44.5t19 -50.5l-36 -7v345h143v-740h-135l-6 122l28 -3q-2 -25 -18 -48t-42.5 -41.5t-60 -29t-70.5 -10.5zM310 108q40 0 70 20t47 55t17 82
q0 46 -17 81t-47 55t-70 20t-69.5 -20t-46 -55t-16.5 -81q0 -47 16.5 -82t46 -55t69.5 -20z" />
    <glyph glyph-name="e" unicode="e" horiz-adv-x="586" 
d="M322 -10q-86 0 -150.5 35t-100 96t-35.5 140q0 62 20 113t56 88.5t85.5 58t107.5 20.5q54 0 100 -20t79.5 -55.5t51.5 -84t16 -104.5l-1 -44h-425l-23 87h331l-16 -18v22q-2 27 -17.5 48.5t-39.5 34t-54 12.5q-44 0 -74.5 -17t-46.5 -50t-16 -80q0 -48 20.5 -83t58 -54.5
t88.5 -19.5q35 0 64 11t62 38l68 -95q-29 -26 -64 -43.5t-72 -26.5t-73 -9z" />
    <glyph glyph-name="f" unicode="f" horiz-adv-x="393" 
d="M112 0v566q0 49 22 89t60.5 63t90.5 23q35 0 66 -11.5t53 -30.5l-42 -105q-13 8 -26.5 13.5t-24.5 5.5q-19 0 -31.5 -6.5t-18.5 -19t-6 -31.5v-556h-71h-41h-31zM33 396v120h336v-120h-336z" />
    <glyph glyph-name="g" unicode="g" horiz-adv-x="663" 
d="M312 -230q-63 0 -124 18.5t-100 48.5l51 101q20 -14 46 -25t54.5 -17t58.5 -6q52 0 85.5 16t50.5 48t17 80v92l24 -5q-6 -33 -33.5 -60.5t-68 -44t-84.5 -16.5q-73 0 -130 34t-90 94t-33 139t32.5 140.5t89 97t128.5 35.5q30 0 57.5 -7t51 -19.5t42 -28t30.5 -33.5
t15 -36l-29 -8l4 121h136v-489q0 -65 -19 -115t-55.5 -84.5t-89 -52.5t-117.5 -18zM316 114q42 0 73.5 19t48.5 53t17 80q0 45 -17 79.5t-48.5 53.5t-73.5 19q-41 0 -72 -19.5t-48.5 -54t-17.5 -78.5q0 -45 17.5 -79.5t48.5 -53.5t72 -19z" />
    <glyph glyph-name="h" unicode="h" horiz-adv-x="622" 
d="M71 0v740h140v-319l-28 -12q11 36 39.5 65.5t68.5 47.5t84 18q60 0 100.5 -24t61 -72.5t20.5 -119.5v-324h-142v313q0 36 -10 60t-30.5 35t-50.5 10q-24 0 -44.5 -7.5t-35 -21.5t-23 -32t-8.5 -39v-318h-70h-41h-31z" />
    <glyph glyph-name="i" unicode="i" horiz-adv-x="306" 
d="M83 0v529h142v-529h-142zM153 637q-41 0 -64 20.5t-23 57.5q0 34 23.5 55.5t63.5 21.5q41 0 64 -20.5t23 -56.5q0 -34 -23.5 -56t-63.5 -22z" />
    <glyph glyph-name="j" unicode="j" horiz-adv-x="299" 
d="M18 -206l-53 110q43 0 69 12t37.5 39.5t11.5 72.5v501h142v-535q0 -65 -24.5 -109.5t-70.5 -67.5t-112 -23zM157 637q-41 0 -64 20.5t-23 57.5q0 34 23.5 55.5t63.5 21.5q41 0 64 -20.5t23 -56.5q0 -34 -23.5 -56t-63.5 -22z" />
    <glyph glyph-name="k" unicode="k" horiz-adv-x="607" 
d="M206 159l-42 117l250 253h187zM71 0v740h142v-740h-142zM429 0l-190 239l100 80l261 -319h-171z" />
    <glyph glyph-name="l" unicode="l" horiz-adv-x="287" 
d="M72 0v740h142v-740h-142z" />
    <glyph glyph-name="m" unicode="m" horiz-adv-x="949" 
d="M70 0v529h137l3 -101l-21 -4q11 26 29.5 47t42.5 36t51 23.5t54 8.5q41 0 74 -13t56 -40.5t36 -72.5l-22 2l7 16q13 24 33 44t45 34t52 22t53 8q62 0 103 -24.5t61.5 -73.5t20.5 -120v-321h-142v311q0 36 -10 59t-29 34.5t-49 11.5q-23 0 -42.5 -7.5t-34 -21t-22.5 -32
t-8 -39.5v-316h-143v312q0 33 -10 56.5t-29 35.5t-47 12q-23 0 -42.5 -7.5t-33.5 -21t-22 -31.5t-8 -39v-317h-143z" />
    <glyph glyph-name="n" unicode="n" horiz-adv-x="622" 
d="M71 0v529h136l4 -108l-28 -12q11 36 39.5 65.5t68.5 47.5t84 18q60 0 100.5 -24t61 -72.5t20.5 -119.5v-324h-142v313q0 36 -10 60t-30.5 35t-50.5 10q-24 0 -44.5 -7.5t-35 -21.5t-23 -32t-8.5 -39v-318h-70h-41h-31z" />
    <glyph glyph-name="o" unicode="o" horiz-adv-x="633" 
d="M317 -10q-81 0 -144.5 35.5t-100 97.5t-36.5 142t36.5 142t100 97.5t144.5 35.5q80 0 143.5 -35.5t99.5 -97.5t36 -142t-36 -142t-99.5 -97.5t-143.5 -35.5zM317 114q39 0 70 19.5t48.5 54t16.5 77.5q1 44 -16.5 78.5t-48.5 54t-70 19.5q-40 0 -71 -20t-49 -54t-17 -78
q-1 -43 17 -77.5t49 -54t71 -19.5z" />
    <glyph glyph-name="p" unicode="p" horiz-adv-x="650" 
d="M71 -220v749h137l4 -119l-26 9q7 32 34.5 59t68.5 44t86 17q69 0 123 -35.5t85 -97t31 -141.5q0 -79 -31 -141t-85 -97.5t-123 -35.5q-46 0 -87.5 17.5t-70 46.5t-36.5 62l33 14v-351h-143zM343 113q39 0 69 19t47 53.5t17 79.5t-17 79t-46.5 53t-69.5 19t-70 -18.5
t-47 -53t-17 -79.5t17 -79.5t47 -53.5t70 -19z" />
    <glyph glyph-name="q" unicode="q" horiz-adv-x="649" 
d="M436 -220v347l29 -5q-2 -25 -18.5 -48.5t-43 -42.5t-58.5 -30t-67 -11q-70 0 -124.5 35.5t-86 97.5t-31.5 142t31 142t85 97.5t122 35.5q39 0 73.5 -11.5t61.5 -30.5t44 -43t19 -50l-35 -5l5 130h136v-750h-142zM307 113q40 0 70 19t46.5 53t16.5 80t-16.5 80.5
t-46.5 53.5t-70 19t-70 -19.5t-46.5 -54t-16.5 -79.5t16.5 -79.5t46.5 -53.5t70 -19z" />
    <glyph glyph-name="r" unicode="r" horiz-adv-x="438" 
d="M71 0v529h137l5 -170l-24 35q12 41 39 74.5t63.5 52.5t76.5 19q17 0 33 -3t27 -7l-38 -156q-11 6 -28.5 10.5t-35.5 4.5q-24 0 -44.5 -8.5t-35.5 -24t-23.5 -36.5t-8.5 -46v-274h-143z" />
    <glyph glyph-name="s" unicode="s" horiz-adv-x="490" 
d="M249 -10q-74 0 -131.5 24.5t-92.5 67.5l89 76q30 -33 68 -47.5t76 -14.5q15 0 27.5 3.5t21.5 10t13.5 16t4.5 20.5q0 22 -18 34q-10 6 -31 13.5t-54 16.5q-51 13 -86.5 30.5t-56.5 39.5q-18 21 -27.5 45.5t-9.5 54.5q0 36 16 65.5t44.5 50.5t65.5 32.5t78 11.5t80 -10
t72.5 -28.5t58.5 -43.5l-76 -84q-18 17 -40.5 31t-46.5 22t-43 8q-17 0 -30.5 -3t-22.5 -9.5t-13.5 -15.5t-4.5 -20t5.5 -21t15.5 -17q11 -6 32.5 -14t58.5 -18q48 -13 81.5 -29t53.5 -37q17 -18 25 -41t8 -51q0 -49 -27.5 -87t-75.5 -60t-108 -22z" />
    <glyph glyph-name="t" unicode="t" horiz-adv-x="394" 
d="M122 0v663h142v-663h-142zM23 402v127h350v-127h-350z" />
    <glyph glyph-name="u" unicode="u" horiz-adv-x="630" 
d="M253 -10q-58 0 -99.5 25.5t-64 73t-22.5 114.5v326h142v-303q0 -36 12 -62.5t34 -40.5t54 -14q23 0 42.5 7.5t34 21.5t22.5 33t8 41v317h142v-529h-135l-5 109l26 12q-12 -37 -40 -67t-67 -47t-84 -17z" />
    <glyph glyph-name="v" unicode="v" horiz-adv-x="595" 
d="M237 0l-222 529h156l141 -395l-33 -6l148 401h152l-233 -529h-109z" />
    <glyph glyph-name="w" unicode="w" horiz-adv-x="823" 
d="M192 0l-177 529l148 1l108 -361l-22 3l119 281h84l124 -282l-24 -2l108 360h148l-180 -529h-103l-125 301l16 -2l-122 -299h-102z" />
    <glyph glyph-name="x" unicode="x" horiz-adv-x="592" 
d="M405 0l-131 187l-40 56l-214 286h172l128 -181l44 -59l211 -289h-170zM18 0l211 289l78 -93l-122 -196h-167zM358 238l-76 93l113 198h167z" />
    <glyph glyph-name="y" unicode="y" horiz-adv-x="607" 
d="M145 -230l116 272l2 -82l-258 569h161l129 -305q8 -17 15.5 -39.5t12.5 -42.5l-24 -11q7 17 14.5 39t15.5 47l111 312h162l-222 -529l-91 -230h-144z" />
    <glyph glyph-name="z" unicode="z" horiz-adv-x="529" 
d="M50 0v90l279 362v-40h-279v117h422v-92l-267 -353l-4 33h278v-117h-429z" />
    <glyph glyph-name="braceleft" unicode="{" horiz-adv-x="422" 
d="M365 -204q-50 10 -87 26.5t-61 40t-35.5 56t-11.5 74.5l1 95q0 53 -23 79.5t-66 27.5h-42v110h44q43 1 65 27t22 80l-1 95q0 82 46.5 128.5t148.5 68.5l30 -100q-38 -13 -59.5 -26t-30 -34.5t-8.5 -58.5l2 -87q0 -58 -32.5 -97t-100.5 -56v11q68 -19 100.5 -58t32.5 -96
l-2 -87q0 -35 8.5 -55.5t30 -33.5t59.5 -26z" />
    <glyph glyph-name="bar" unicode="|" horiz-adv-x="290" 
d="M78 -193v933h134v-933h-134z" />
    <glyph glyph-name="braceright" unicode="}" horiz-adv-x="422" 
d="M56 -204l-30 100q38 13 59 26t30.5 34.5t9.5 58.5l-2 87q0 58 32.5 97t99.5 56l1 -11q-68 19 -100.5 58t-32.5 96l2 87q0 36 -9 56t-30 33t-60 26l30 104q51 -10 87.5 -26.5t61 -40t36 -56t11.5 -74.5l-1 -95q0 -53 23 -79.5t66 -27.5h41v-110h-43q-43 -1 -65 -27
t-22 -80l1 -95q0 -82 -47 -128.5t-149 -68.5z" />
    <glyph glyph-name="asciitilde" unicode="~" horiz-adv-x="543" 
d="M374 209q-16 0 -36 5t-40 12.5t-37 13.5q-14 7 -31 13t-31.5 10t-23.5 4q-19 0 -29 -15.5t-10 -45.5h-101q0 87 35 133.5t107 46.5q12 0 27 -3t29.5 -8.5l29 -11t25.5 -10.5q14 -5 28.5 -11t28.5 -10t24 -4q17 0 27.5 15.5t8.5 39.5l102 -2q0 -56 -15 -94t-44.5 -58
t-73.5 -20z" />
    <glyph glyph-name="uni00A0" unicode="&#xa0;" horiz-adv-x="307" 
 />
    <glyph glyph-name="exclamdown" unicode="&#xa1;" horiz-adv-x="286" 
d="M182 279q8 -61 15.5 -126.5t11.5 -130.5t4 -124v-76h-149v76q0 61 4.5 127t11.5 131t15 123h87zM140 541q39 0 60 -22t21 -63q0 -37 -22.5 -60.5t-58.5 -23.5q-38 0 -59.5 22t-21.5 62q0 38 22.5 61.5t58.5 23.5z" />
    <glyph glyph-name="cent" unicode="&#xa2;" horiz-adv-x="554" 
d="M313 78q-77 0 -138 36t-96 98t-35 141t35 141t96 98t138 36q71 0 129.5 -26t92.5 -72l-78 -94q-14 19 -35 34.5t-45.5 24.5t-50.5 9q-42 0 -74.5 -19.5t-51 -53.5t-18.5 -78q0 -42 19 -76t51.5 -54t74.5 -20q26 0 49 7t43.5 22t37.5 36l77 -94q-34 -43 -94 -69.5
t-127 -26.5zM257 0v108l19 37v413l-19 48v98h112v-99l-17 -42v-420l17 -36v-107h-112z" />
    <glyph glyph-name="sterling" unicode="&#xa3;" horiz-adv-x="629" 
d="M189 53l-75 21q18 10 31.5 29.5t21.5 44t8 49.5q0 14 -2.5 31t-7 37t-11.5 41.5t-15 45.5q-12 37 -18 61t-8.5 41t-2.5 33q0 69 30 120t84 79t128 28q69 0 120.5 -23.5t75.5 -65.5l-105 -82q-12 15 -26.5 24t-32 14t-36.5 5q-31 0 -55 -14t-38 -38t-14 -56
q0 -31 9.5 -63.5t18.5 -61.5q11 -33 20 -66.5t9 -59.5q0 -30 -11 -58.5t-34.5 -56.5t-63.5 -59zM441 -21q-31 0 -66 9t-57 16q-13 4 -30 9t-36 9t-36 4q-32 0 -68 -9.5t-73 -26.5l-51 100q42 26 92.5 40.5t101.5 14.5q30 0 54 -5t67 -20q21 -7 46 -14.5t51 -7.5q24 0 52 8.5
t57 26.5l66 -92q-34 -30 -80.5 -46t-89.5 -16zM44 310v91h420v-91h-420z" />
    <glyph glyph-name="currency" unicode="&#xa4;" horiz-adv-x="557" 
d="M281 113q-56 0 -101 25t-71.5 68.5t-26.5 97.5q0 55 26.5 98t71.5 68t101 25t101 -25t71 -68.5t26 -97.5t-26 -97.5t-71 -68.5t-101 -25zM130 67l-90 90l89 92l88 -91zM124 367l-89 85l90 89l90 -86zM281 222q23 0 39.5 10.5t26.5 29t10 42.5q0 25 -10 44t-26.5 29.5
t-39.5 10.5q-22 0 -39 -10.5t-27 -29.5t-10 -44q0 -24 10 -42.5t27 -29t39 -10.5zM433 72l-91 87l88 91l92 -88zM431 362l-89 89l91 96l90 -90z" />
    <glyph glyph-name="yen" unicode="&#xa5;" horiz-adv-x="679" 
d="M274 0v349l7 -49l-283 400h173l216 -310l-68 3l195 307h167l-271 -411l15 68v-357h-151zM143 113v75l428 -1v-76zM143 241v76l428 -1v-76z" />
    <glyph glyph-name="brokenbar" unicode="&#xa6;" horiz-adv-x="297" 
d="M80 -202v396h136v-396h-136zM80 345v395h136v-395h-136z" />
    <glyph glyph-name="section" unicode="&#xa7;" horiz-adv-x="567" 
d="M340 131l-31 74q31 3 50.5 12.5t28.5 23t9 29.5q0 20 -14 33t-46 24l-99 32q-24 10 -50.5 24.5t-50 35.5t-38 52t-14.5 72q0 36 13 67t40 54.5t68.5 37t97.5 13.5q44 0 83 -10.5t70 -30t54 -46.5l-74 -83q-23 21 -46 34t-45.5 18.5t-44.5 5.5q-37 0 -59 -16.5t-22 -42.5
q0 -16 9.5 -29t27.5 -23.5t43 -18.5l87 -30q75 -26 111 -65.5t34 -95.5q-2 -46 -25.5 -78.5t-66 -51t-100.5 -21.5zM272 -139q-45 0 -88.5 11.5t-80 32.5t-62.5 47l71 90q40 -36 82 -54t77 -18q41 0 63.5 15t22.5 43q0 16 -11.5 28t-30 21.5t-42.5 17.5l-96 33
q-70 25 -104.5 64t-34.5 96q0 41 21.5 75t62.5 55t98 23l30 -79q-23 -3 -39 -12t-24.5 -21.5t-8.5 -30.5q0 -20 16.5 -35t52.5 -27l79 -26q47 -17 85 -39.5t60 -54.5t22 -80q0 -50 -23.5 -89.5t-72.5 -62.5t-125 -23z" />
    <glyph glyph-name="dieresis" unicode="&#xa8;" horiz-adv-x="500" 
d="M364 631q-39 0 -60 20.5t-21 58.5q0 35 22 56.5t59 21.5q39 0 60 -20t21 -58q0 -35 -22 -57t-59 -22zM136 631q-38 0 -59.5 20.5t-21.5 58.5q0 35 22 56.5t59 21.5q39 0 60 -20t21 -58q0 -35 -21.5 -57t-59.5 -22z" />
    <glyph glyph-name="copyright" unicode="&#xa9;" horiz-adv-x="789" 
d="M394 -15q-76 0 -142.5 28t-116 78t-78 116t-28.5 143t28.5 143t78 116t116 78t142.5 28t142 -28t116.5 -78t78.5 -116t28 -143t-28 -143t-78.5 -116t-116.5 -78t-142 -28zM411 143q-60 0 -108 27t-76.5 73.5t-28.5 106.5q0 57 28.5 104t76.5 75t108 28q35 0 68.5 -12
t64.5 -35l-45 -96q-16 12 -30 19t-26.5 10.5t-23.5 3.5q-29 0 -52 -13t-36 -35t-13 -49q0 -29 13 -51.5t36 -35t52 -12.5q19 0 40 8t43 24l46 -96q-31 -22 -66 -33t-71 -11zM394 59q61 0 113.5 22.5t92.5 62.5t62.5 92.5t22.5 113.5t-22.5 114t-62.5 92.5t-92.5 62
t-113.5 22.5q-60 0 -113 -22.5t-92.5 -62t-62.5 -92.5t-23 -114t23 -113.5t62 -92.5t92.5 -62.5t113.5 -22.5z" />
    <glyph glyph-name="ordfeminine" unicode="&#xaa;" horiz-adv-x="383" 
d="M141 391q-38 0 -66 21.5t-43 60t-15 89.5q0 46 17.5 82t48 56.5t70.5 20.5q53 0 79.5 -32.5t26.5 -92.5l-19 52v67h109v-314h-109v73l19 34q0 -30 -14.5 -57t-41.5 -43.5t-62 -16.5zM181 474q19 0 33 10t22 28.5t8 43.5q0 38 -17 60t-47 22q-15 0 -28 -10.5t-20 -28
t-7 -38.5q0 -27 6.5 -46.5t19 -30t30.5 -10.5z" />
    <glyph glyph-name="guillemotleft" unicode="&#xab;" horiz-adv-x="538" 
d="M417 34l-170 219v10l169 222l83 -57l-122 -182l1 27l121 -182zM181 34l-170 219v10l169 222l83 -57l-122 -182l1 27l121 -182z" />
    <glyph glyph-name="logicalnot" unicode="&#xac;" horiz-adv-x="670" 
d="M490 109v210l50 -33h-496v126h582v-303h-136z" />
    <glyph glyph-name="uni00AD" unicode="&#xad;" horiz-adv-x="434" 
d="M56 221v132h327v-132h-327z" />
    <glyph glyph-name="registered" unicode="&#xae;" horiz-adv-x="507" 
d="M259 243q-68 0 -123.5 32.5t-88.5 87t-33 121.5q0 51 19 94.5t52.5 76t78 51.5t95.5 19q50 0 93.5 -19t76.5 -52t52 -76.5t19 -93.5t-18.5 -94t-51.5 -76.5t-76.5 -51.5t-94.5 -19zM259 307q49 0 89.5 23.5t64.5 64t24 89.5t-24 89.5t-64.5 64.5t-89.5 24q-51 0 -92 -24
t-65.5 -64.5t-24.5 -89.5q0 -50 24.5 -90t65.5 -63.5t92 -23.5zM293 367l-37 92l63 16l51 -108h-77zM163 367v239h118q36 0 59 -21t23 -54t-24 -54.5t-58 -21.5h-61l16 11v-99h-73zM236 495l-14 7h39q13 0 22 6.5t9 16.5q0 11 -7.5 17t-21.5 6h-43l16 8v-61z" />
    <glyph glyph-name="macron" unicode="&#xaf;" horiz-adv-x="424" 
d="M90 637v92h320v-92h-320z" />
    <glyph glyph-name="degree" unicode="&#xb0;" horiz-adv-x="532" 
d="M266 395q-46 0 -83 21t-59 57t-22 80q0 45 21.5 81.5t58.5 57.5t84 21t84 -21t58.5 -57.5t21.5 -80.5t-22 -80.5t-59 -57.5t-83 -21zM266 482q19 0 34 9.5t24 26t9 36.5t-9 36.5t-24 25.5t-34 9t-34.5 -9.5t-24 -26t-8.5 -36.5t9 -36.5t24 -25.5t34 -9z" />
    <glyph glyph-name="plusminus" unicode="&#xb1;" horiz-adv-x="622" 
d="M62 304v117h497v-117h-497zM63 -5v119h497v-119h-497zM243 171v391h136v-391h-136z" />
    <glyph glyph-name="uni00B2" unicode="&#xb2;" horiz-adv-x="358" 
d="M62 418l-12 80l101 88q13 10 27.5 23.5t24 29t9.5 30.5q0 14 -7.5 22.5t-22.5 8.5q-18 0 -37 -14.5t-35 -38.5l-71 51q19 29 42.5 50t50.5 31.5t59 10.5q37 0 64 -14t42.5 -38.5t15.5 -53.5q0 -37 -18 -65.5t-43.5 -50.5t-50.5 -39l-58 -48l2 20h175v-83h-258z" />
    <glyph glyph-name="uni00B3" unicode="&#xb3;" horiz-adv-x="351" 
d="M173 412q-25 0 -47 4t-42.5 11.5t-40.5 18.5l41 71q18 -11 35.5 -16t35.5 -5q24 0 39.5 11.5t15.5 31.5q0 17 -14 27.5t-38 10.5q-13 0 -27.5 -3.5t-28.5 -7.5l-22 60l129 95l12 -21h-153v83h208l9 -78l-113 -85l-8 7q9 5 19.5 8t17.5 3q48 0 77.5 -28.5t29.5 -75.5
q0 -36 -18.5 -63.5t-49 -43t-67.5 -15.5z" />
    <glyph glyph-name="acute" unicode="&#xb4;" horiz-adv-x="500" 
d="M174 590l-43 66l167 137l71 -98z" />
    <glyph glyph-name="uni00B5" unicode="&#xb5;" horiz-adv-x="622" 
d="M76 -160v689h138v-307q0 -37 10.5 -62t30.5 -38t49 -13q24 0 43.5 8.5t34 24t23 35.5t8.5 43v309h138v-529h-131l-5 104l13 -11q-17 -35 -41 -57.5t-54 -33.5t-67 -13q-15 0 -29 4.5t-24 12.5t-15 19l12 40l4 -225h-138z" />
    <glyph glyph-name="paragraph" unicode="&#xb6;" horiz-adv-x="747" 
d="M247 0v314l39 -39h-53q-54 0 -96.5 27t-67 74.5t-24.5 107.5q0 65 28 114t78.5 75.5t118.5 26.5h386v-700h-147v660l39 -64h-222l68 56v-652h-147z" />
    <glyph glyph-name="periodcentered" unicode="&#xb7;" horiz-adv-x="247" 
d="M124 253q-39 0 -60 22t-21 63q0 37 22.5 60.5t58.5 23.5q38 0 59 -22t21 -62q0 -38 -22 -61.5t-58 -23.5z" />
    <glyph glyph-name="cedilla" unicode="&#xb8;" horiz-adv-x="500" 
d="M154 -245l-9 68q22 0 45.5 6t40 16t16.5 22q0 13 -13 20t-31 11t-33 4l-16 12l70 110h75l-45 -68q51 -7 76.5 -33t25.5 -62q0 -29 -19 -49.5t-49 -33.5t-65.5 -18.5t-68.5 -4.5z" />
    <glyph glyph-name="uni00B9" unicode="&#xb9;" horiz-adv-x="288" 
d="M119 430v286l14 -34l-58 -36l-42 78l111 66h76v-360h-50h-24.5h-26.5z" />
    <glyph glyph-name="ordmasculine" unicode="&#xba;" horiz-adv-x="385" 
d="M192 392q-48 0 -84.5 21t-58 57t-21.5 82t21.5 83t58 58t84.5 21q47 0 84 -21.5t59 -58.5t22 -82q0 -46 -21.5 -82t-59 -57t-84.5 -21zM191 473q18 0 31.5 10t21 28t7.5 42q0 25 -7 42.5t-20.5 27.5t-32.5 10q-18 0 -31 -10.5t-20.5 -28.5t-7.5 -41q0 -24 7.5 -42t21 -28
t30.5 -10z" />
    <glyph glyph-name="guillemotright" unicode="&#xbb;" horiz-adv-x="541" 
d="M360 36l-82 57l121 182l-1 -27l-121 182l83 57l170 -219v-10zM121 36l-82 57l121 182l-1 -27l-121 182l83 57l170 -219v-10z" />
    <glyph glyph-name="onequarter" unicode="&#xbc;" horiz-adv-x="812" 
d="M127 360v286l14 -34l-58 -36l-42 78l111 66h76v-360h-50h-24.5h-26.5zM95 0l467 700h131l-468 -700h-130zM699 156h75v-83h-75v83zM521 122l-16 34h144l-28 -29v156l29 -11zM715 -1h-106v103l26 -29h-171l-19 77l177 215h93v-366z" />
    <glyph glyph-name="onehalf" unicode="&#xbd;" horiz-adv-x="813" 
d="M127 360v286l14 -34l-58 -36l-42 78l111 66h76v-360h-50h-24.5h-26.5zM97 0l467 700h131l-468 -700h-130zM520 0l-12 80l101 88q13 10 27.5 23.5t24 29t9.5 30.5q0 14 -7.5 22.5t-22.5 8.5q-18 0 -37 -14.5t-35 -38.5l-71 51q19 29 42.5 50t50.5 31.5t59 10.5
q37 0 64 -14t42.5 -38.5t15.5 -53.5q0 -37 -18 -65.5t-43.5 -50.5t-50.5 -39l-58 -48l2 20h175v-83h-258z" />
    <glyph glyph-name="threequarters" unicode="&#xbe;" horiz-adv-x="831" 
d="M152 342q-25 0 -47 4t-42.5 11.5t-40.5 18.5l41 71q18 -11 35.5 -16t35.5 -5q24 0 39.5 11.5t15.5 31.5q0 17 -14 27.5t-38 10.5q-13 0 -27.5 -3.5t-28.5 -7.5l-22 60l129 95l12 -21h-153v83h208l9 -78l-113 -85l-8 7q9 5 19.5 8t17.5 3q48 0 77.5 -28.5t29.5 -75.5
q0 -36 -18.5 -63.5t-49 -43t-67.5 -15.5zM122 0l467 700h131l-468 -700h-130zM718 156h75v-83h-75v83zM540 122l-16 34h144l-28 -29v156l29 -11zM734 -1h-106v103l26 -29h-171l-19 77l177 215h93v-366z" />
    <glyph glyph-name="questiondown" unicode="&#xbf;" horiz-adv-x="528" 
d="M316 304l31 -135q-33 -8 -60.5 -18.5t-49.5 -22.5t-37.5 -27t-24 -33t-8.5 -40t12 -39.5t32 -27t47 -9.5q35 0 69.5 24.5t61.5 76.5l99 -89q-45 -68 -106.5 -105.5t-128.5 -37.5q-65 0 -117 26.5t-82.5 72.5t-30.5 103q0 36 15 70.5t41.5 65t62.5 53.5t79 37l12 55h83z
M352 460q0 -37 -22 -60.5t-59 -23.5q-38 0 -59 22t-21 62q0 38 22 61.5t58 23.5q39 0 60 -22t21 -63z" />
    <glyph glyph-name="Agrave" unicode="&#xc0;" horiz-adv-x="696" 
d="M7 0l275 700h134l273 -700h-154l-141 377q-6 16 -14.5 41t-17.5 53t-17 53.5t-12 42.5h27q-6 -22 -13.5 -46.5t-15.5 -50t-17 -49.5t-17 -47l-141 -374h-149zM135 147l49 120h321l50 -120h-420zM439 750l-219 77l53 109l201 -115z" />
    <glyph glyph-name="Aacute" unicode="&#xc1;" horiz-adv-x="696" 
d="M7 0l275 700h134l273 -700h-154l-141 377q-6 16 -14.5 41t-17.5 53t-17 53.5t-12 42.5h27q-6 -22 -13.5 -46.5t-15.5 -50t-17 -49.5t-17 -47l-141 -374h-149zM135 147l49 120h321l50 -120h-420zM266 750l-34 71l200 115l52 -109z" />
    <glyph glyph-name="Acircumflex" unicode="&#xc2;" horiz-adv-x="696" 
d="M7 0l275 700h134l273 -700h-154l-141 377q-6 16 -14.5 41t-17.5 53t-17 53.5t-12 42.5h27q-6 -22 -13.5 -46.5t-15.5 -50t-17 -49.5t-17 -47l-141 -374h-149zM135 147l49 120h321l50 -120h-420zM218 754l-45 50l132 105h84l133 -105l-46 -50l-143 70h29z" />
    <glyph glyph-name="Atilde" unicode="&#xc3;" horiz-adv-x="696" 
d="M7 0l275 700h134l273 -700h-154l-141 377q-6 16 -14.5 41t-17.5 53t-17 53.5t-12 42.5h27q-6 -22 -13.5 -46.5t-15.5 -50t-17 -49.5t-17 -47l-141 -374h-149zM135 147l49 120h321l50 -120h-420zM424 768q-21 0 -42 6.5t-44 16.5q-18 7 -30.5 11.5t-22.5 4.5
q-13 0 -21.5 -10t-8.5 -29h-93q0 63 36 98t88 35q18 0 36.5 -5.5t42.5 -17.5q16 -7 27.5 -11t20.5 -4q14 0 21.5 10.5t6.5 27.5h92q0 -36 -13.5 -66.5t-38 -48.5t-57.5 -18z" />
    <glyph glyph-name="Adieresis" unicode="&#xc4;" horiz-adv-x="696" 
d="M7 0l275 700h134l273 -700h-154l-141 377q-6 16 -14.5 41t-17.5 53t-17 53.5t-12 42.5h27q-6 -22 -13.5 -46.5t-15.5 -50t-17 -49.5t-17 -47l-141 -374h-149zM135 147l49 120h321l50 -120h-420zM464 755q-40 0 -60.5 21.5t-20.5 57.5q0 33 21 56t60 23q40 0 60.5 -21
t20.5 -58q0 -32 -21 -55.5t-60 -23.5zM233 755q-41 0 -61.5 21.5t-20.5 57.5q0 33 21 56t61 23t60.5 -21t20.5 -58q0 -32 -21 -55.5t-60 -23.5z" />
    <glyph glyph-name="Aring" unicode="&#xc5;" horiz-adv-x="696" 
d="M7 0l275 700h134l273 -700h-154l-141 377q-6 16 -14.5 41t-17.5 53t-17 53.5t-12 42.5h27q-6 -22 -13.5 -46.5t-15.5 -50t-17 -49.5t-17 -47l-141 -374h-149zM135 147l49 120h321l50 -120h-420zM347 675q-32 0 -60.5 16.5t-46.5 43t-18 57.5q0 34 17.5 61.5t46 43.5
t61.5 16q34 0 62.5 -16t46 -43.5t17.5 -61.5q0 -31 -17.5 -57.5t-46 -43t-62.5 -16.5zM347 750q19 0 32 12t13 30q0 20 -13.5 31.5t-31.5 11.5q-17 0 -30 -12t-13 -31q0 -18 13 -30t30 -12z" />
    <glyph glyph-name="AE" unicode="&#xc6;" horiz-adv-x="1041" 
d="M-5 0l488 700h494v-125h-328v-160h283v-121h-283v-169h328v-125h-470v146h-267l82 120h185v292l25 -8l-376 -550h-161z" />
    <glyph glyph-name="Ccedilla" unicode="&#xc7;" horiz-adv-x="689" 
d="M398 -10q-77 0 -141.5 26.5t-112 75t-73.5 115t-26 145.5q0 77 27 142.5t76 114t115 75.5t143 27q50 0 98.5 -13.5t89 -39.5t69.5 -62l-94 -104q-23 24 -49 41.5t-54.5 27t-60.5 9.5q-43 0 -80.5 -16t-65.5 -44.5t-44.5 -69t-16.5 -89.5q0 -50 16 -90.5t45 -69t69.5 -44
t89.5 -15.5q32 0 62 9t55.5 25t45.5 37l74 -117q-25 -27 -65.5 -49t-90.5 -34.5t-101 -12.5zM293 -245l-8 68q21 0 45 6t40.5 16t16.5 22q0 13 -13.5 20t-31 11t-33.5 4l-16 12l70 110h75l-44 -68q51 -7 76 -33t25 -62q0 -29 -18.5 -49.5t-48.5 -33.5t-65.5 -18.5
t-69.5 -4.5z" />
    <glyph glyph-name="Egrave" unicode="&#xc8;" horiz-adv-x="635" 
d="M91 0v700h473v-132h-326v-436h333v-132h-480zM161 293v128h355v-128h-355zM428 750l-219 77l53 109l201 -115z" />
    <glyph glyph-name="Eacute" unicode="&#xc9;" horiz-adv-x="635" 
d="M91 0v700h473v-132h-326v-436h333v-132h-480zM161 293v128h355v-128h-355zM256 750l-34 71l200 115l52 -109z" />
    <glyph glyph-name="Ecircumflex" unicode="&#xca;" horiz-adv-x="635" 
d="M91 0v700h473v-132h-326v-436h333v-132h-480zM161 293v128h355v-128h-355zM208 754l-45 50l132 105h84l133 -105l-46 -50l-143 70h29z" />
    <glyph glyph-name="Edieresis" unicode="&#xcb;" horiz-adv-x="635" 
d="M91 0v700h473v-132h-326v-436h333v-132h-480zM161 293v128h355v-128h-355zM453 755q-40 0 -60.5 21.5t-20.5 57.5q0 33 21 56t60 23q40 0 60.5 -21t20.5 -58q0 -32 -21 -55.5t-60 -23.5zM222 755q-41 0 -61.5 21.5t-20.5 57.5q0 33 21 56t61 23t60.5 -21t20.5 -58
q0 -32 -21 -55.5t-60 -23.5z" />
    <glyph glyph-name="Igrave" unicode="&#xcc;" horiz-adv-x="530" 
d="M73 0v129h117v442h-117v129h384v-129h-117v-442h117v-129h-384zM356 750l-219 77l53 109l201 -115z" />
    <glyph glyph-name="Iacute" unicode="&#xcd;" horiz-adv-x="530" 
d="M73 0v129h117v442h-117v129h384v-129h-117v-442h117v-129h-384zM184 750l-34 71l200 115l52 -109z" />
    <glyph glyph-name="Icircumflex" unicode="&#xce;" horiz-adv-x="530" 
d="M73 0v129h117v442h-117v129h384v-129h-117v-442h117v-129h-384zM135 754l-45 50l132 105h84l133 -105l-46 -50l-143 70h29z" />
    <glyph glyph-name="Idieresis" unicode="&#xcf;" horiz-adv-x="530" 
d="M73 0v129h117v442h-117v129h384v-129h-117v-442h117v-129h-384zM381 755q-40 0 -60.5 21.5t-20.5 57.5q0 33 21 56t60 23q40 0 60.5 -21t20.5 -58q0 -32 -21 -55.5t-60 -23.5zM150 755q-41 0 -61.5 21.5t-20.5 57.5q0 33 21 56t61 23t60.5 -21t20.5 -58q0 -32 -21 -55.5
t-60 -23.5z" />
    <glyph glyph-name="Eth" unicode="&#xd0;" horiz-adv-x="764" 
d="M40 295v110h307v-110h-307zM91 0v700h287q77 0 139.5 -25.5t108 -72t69.5 -110.5t24 -142q0 -77 -24 -141.5t-69 -111t-108 -72t-140 -25.5h-287zM241 109l-16 26h148q45 0 81 15.5t61.5 43t38.5 67.5t13 89t-13 88.5t-38.5 67.5t-61.5 43.5t-81 15.5h-151l19 24v-480z
" />
    <glyph glyph-name="Ntilde" unicode="&#xd1;" horiz-adv-x="802" 
d="M91 0v700h134l387 -523h-28q-4 31 -7 60.5t-5.5 60t-4 63t-2.5 69t-1 79.5v191h147v-700h-136l-395 528l38 -1q5 -52 8.5 -88.5t6 -63.5t3.5 -47t1.5 -38t0.5 -38v-252h-147zM478 768q-21 0 -42 6.5t-44 16.5q-18 7 -30.5 11.5t-22.5 4.5q-13 0 -21.5 -10t-8.5 -29h-93
q0 63 36 98t88 35q18 0 36.5 -5.5t42.5 -17.5q16 -7 27.5 -11t20.5 -4q14 0 21.5 10.5t6.5 27.5h92q0 -36 -13.5 -66.5t-38 -48.5t-57.5 -18z" />
    <glyph glyph-name="Ograve" unicode="&#xd2;" horiz-adv-x="802" 
d="M402 -10q-78 0 -143 27t-113.5 75.5t-74.5 115t-26 144.5q0 79 26 145t74.5 114.5t113.5 75.5t142 27q78 0 142.5 -27t113 -76t74.5 -115t26 -144t-26 -144t-74.5 -115t-113 -76t-141.5 -27zM401 132q45 0 82 16.5t64 46t42.5 69.5t15.5 88t-15.5 88t-42.5 69.5t-64 46
t-82 16.5q-44 0 -81 -16.5t-65 -46t-42.5 -69.5t-14.5 -88t14.5 -88t42.5 -69.5t65 -46t81 -16.5zM492 750l-219 77l53 109l201 -115z" />
    <glyph glyph-name="Oacute" unicode="&#xd3;" horiz-adv-x="802" 
d="M402 -10q-78 0 -143 27t-113.5 75.5t-74.5 115t-26 144.5q0 79 26 145t74.5 114.5t113.5 75.5t142 27q78 0 142.5 -27t113 -76t74.5 -115t26 -144t-26 -144t-74.5 -115t-113 -76t-141.5 -27zM401 132q45 0 82 16.5t64 46t42.5 69.5t15.5 88t-15.5 88t-42.5 69.5t-64 46
t-82 16.5q-44 0 -81 -16.5t-65 -46t-42.5 -69.5t-14.5 -88t14.5 -88t42.5 -69.5t65 -46t81 -16.5zM320 750l-34 71l200 115l52 -109z" />
    <glyph glyph-name="Ocircumflex" unicode="&#xd4;" horiz-adv-x="802" 
d="M402 -10q-78 0 -143 27t-113.5 75.5t-74.5 115t-26 144.5q0 79 26 145t74.5 114.5t113.5 75.5t142 27q78 0 142.5 -27t113 -76t74.5 -115t26 -144t-26 -144t-74.5 -115t-113 -76t-141.5 -27zM401 132q45 0 82 16.5t64 46t42.5 69.5t15.5 88t-15.5 88t-42.5 69.5t-64 46
t-82 16.5q-44 0 -81 -16.5t-65 -46t-42.5 -69.5t-14.5 -88t14.5 -88t42.5 -69.5t65 -46t81 -16.5zM272 754l-45 50l132 105h84l133 -105l-46 -50l-143 70h29z" />
    <glyph glyph-name="Otilde" unicode="&#xd5;" horiz-adv-x="802" 
d="M402 -10q-78 0 -143 27t-113.5 75.5t-74.5 115t-26 144.5q0 79 26 145t74.5 114.5t113.5 75.5t142 27q78 0 142.5 -27t113 -76t74.5 -115t26 -144t-26 -144t-74.5 -115t-113 -76t-141.5 -27zM401 132q45 0 82 16.5t64 46t42.5 69.5t15.5 88t-15.5 88t-42.5 69.5t-64 46
t-82 16.5q-44 0 -81 -16.5t-65 -46t-42.5 -69.5t-14.5 -88t14.5 -88t42.5 -69.5t65 -46t81 -16.5zM477 768q-21 0 -42 6.5t-44 16.5q-18 7 -30.5 11.5t-22.5 4.5q-13 0 -21.5 -10t-8.5 -29h-93q0 63 36 98t88 35q18 0 36.5 -5.5t42.5 -17.5q16 -7 27.5 -11t20.5 -4
q14 0 21.5 10.5t6.5 27.5h92q0 -36 -13.5 -66.5t-38 -48.5t-57.5 -18z" />
    <glyph glyph-name="Odieresis" unicode="&#xd6;" horiz-adv-x="802" 
d="M402 -10q-78 0 -143 27t-113.5 75.5t-74.5 115t-26 144.5q0 79 26 145t74.5 114.5t113.5 75.5t142 27q78 0 142.5 -27t113 -76t74.5 -115t26 -144t-26 -144t-74.5 -115t-113 -76t-141.5 -27zM401 132q45 0 82 16.5t64 46t42.5 69.5t15.5 88t-15.5 88t-42.5 69.5t-64 46
t-82 16.5q-44 0 -81 -16.5t-65 -46t-42.5 -69.5t-14.5 -88t14.5 -88t42.5 -69.5t65 -46t81 -16.5zM517 755q-40 0 -60.5 21.5t-20.5 57.5q0 33 21 56t60 23q40 0 60.5 -21t20.5 -58q0 -32 -21 -55.5t-60 -23.5zM286 755q-41 0 -61.5 21.5t-20.5 57.5q0 33 21 56t61 23
t60.5 -21t20.5 -58q0 -32 -21 -55.5t-60 -23.5z" />
    <glyph glyph-name="multiply" unicode="&#xd7;" horiz-adv-x="517" 
d="M394 61l-357 356l86 83l357 -356zM122 57l-83 86l356 357l84 -85z" />
    <glyph glyph-name="Oslash" unicode="&#xd8;" horiz-adv-x="795" 
d="M134 -33l-63 53l589 721l68 -47zM401 -10q-78 0 -143 27t-113 75.5t-74.5 115t-26.5 144.5q0 79 26.5 145t74.5 114.5t113 75.5t143 27q77 0 142 -27t113 -76t74.5 -115t26.5 -144t-26.5 -144t-74.5 -115t-113 -76t-142 -27zM401 132q44 0 81 16.5t64.5 46t42.5 69.5
t15 88t-15 88t-42.5 69.5t-64.5 46t-81 16.5q-45 0 -82 -16.5t-64.5 -46t-42.5 -69.5t-15 -88t15 -88t42.5 -69.5t64.5 -46t82 -16.5z" />
    <glyph glyph-name="Ugrave" unicode="&#xd9;" horiz-adv-x="757" 
d="M379 -6q-85 0 -151.5 35.5t-104.5 98t-38 141.5v432h151v-423q0 -42 19 -75.5t51.5 -53.5t72.5 -20q41 0 74.5 20t53 53.5t19.5 75.5v423h146v-432q0 -79 -37.5 -141.5t-104.5 -98t-151 -35.5zM470 750l-219 77l53 109l201 -115z" />
    <glyph glyph-name="Uacute" unicode="&#xda;" horiz-adv-x="757" 
d="M379 -6q-85 0 -151.5 35.5t-104.5 98t-38 141.5v432h151v-423q0 -42 19 -75.5t51.5 -53.5t72.5 -20q41 0 74.5 20t53 53.5t19.5 75.5v423h146v-432q0 -79 -37.5 -141.5t-104.5 -98t-151 -35.5zM297 750l-34 71l200 115l52 -109z" />
    <glyph glyph-name="Ucircumflex" unicode="&#xdb;" horiz-adv-x="757" 
d="M379 -6q-85 0 -151.5 35.5t-104.5 98t-38 141.5v432h151v-423q0 -42 19 -75.5t51.5 -53.5t72.5 -20q41 0 74.5 20t53 53.5t19.5 75.5v423h146v-432q0 -79 -37.5 -141.5t-104.5 -98t-151 -35.5zM249 754l-45 50l132 105h84l133 -105l-46 -50l-143 70h29z" />
    <glyph glyph-name="Udieresis" unicode="&#xdc;" horiz-adv-x="757" 
d="M379 -6q-85 0 -151.5 35.5t-104.5 98t-38 141.5v432h151v-423q0 -42 19 -75.5t51.5 -53.5t72.5 -20q41 0 74.5 20t53 53.5t19.5 75.5v423h146v-432q0 -79 -37.5 -141.5t-104.5 -98t-151 -35.5zM494 755q-40 0 -60.5 21.5t-20.5 57.5q0 33 21 56t60 23q40 0 60.5 -21
t20.5 -58q0 -32 -21 -55.5t-60 -23.5zM263 755q-41 0 -61.5 21.5t-20.5 57.5q0 33 21 56t61 23t60.5 -21t20.5 -58q0 -32 -21 -55.5t-60 -23.5z" />
    <glyph glyph-name="Yacute" unicode="&#xdd;" horiz-adv-x="679" 
d="M274 0v349l7 -49l-283 400h173l216 -310l-68 3l195 307h167l-271 -411l15 68v-357h-151zM258 750l-34 71l200 115l52 -109z" />
    <glyph glyph-name="Thorn" unicode="&#xde;" horiz-adv-x="653" 
d="M91 0v700h150v-116h147q63 0 113 -29.5t79.5 -80.5t29.5 -115q0 -65 -29.5 -117.5t-79.5 -83t-113 -30.5h-147v-128h-150zM241 263h130q24 0 43 12.5t30.5 33.5t11.5 48t-11.5 47.5t-30.5 32t-43 11.5h-130v-185z" />
    <glyph glyph-name="germandbls" unicode="&#xdf;" horiz-adv-x="666" 
d="M425 -10q-44 0 -77.5 14t-58.5 42l59 92q21 -17 38.5 -24t35.5 -7q36 0 57.5 24.5t21.5 66.5q0 31 -11 56.5t-32 45.5t-50 34.5t-65 25.5v79q24 10 41 21t27.5 23t16 26t5.5 29q0 33 -23.5 51t-64.5 18q-45 0 -69.5 -29.5t-24.5 -78.5v-499h-139v499q0 70 29 123t82 82.5
t128 29.5q62 0 110.5 -20.5t76 -57.5t27.5 -88q0 -30 -13 -60.5t-38 -55t-58 -39.5l-2 26q41 -13 74.5 -35t58 -52.5t37.5 -67.5t13 -81q0 -61 -27.5 -109t-75 -76t-109.5 -28zM33 377v123h145v-123h-145z" />
    <glyph glyph-name="agrave" unicode="&#xe0;" horiz-adv-x="651" 
d="M269 -10q-66 0 -119 36t-84 98t-31 142t31.5 142t85.5 97t123 35q39 0 71.5 -11.5t57 -31.5t41.5 -46t24 -56l-30 5v129h141v-529h-143v127l32 3q-8 -28 -26 -53t-44.5 -44.5t-59.5 -31t-70 -11.5zM308 113q40 0 70 19t46.5 53.5t16.5 80.5q0 45 -16.5 79t-46.5 53.5
t-70 19.5q-39 0 -68.5 -19.5t-46.5 -53.5t-17 -79q0 -46 17 -80.5t46.5 -53.5t68.5 -19zM382 595l-195 105l71 97l167 -136z" />
    <glyph glyph-name="aacute" unicode="&#xe1;" horiz-adv-x="651" 
d="M269 -10q-66 0 -119 36t-84 98t-31 142t31.5 142t85.5 97t123 35q39 0 71.5 -11.5t57 -31.5t41.5 -46t24 -56l-30 5v129h141v-529h-143v127l32 3q-8 -28 -26 -53t-44.5 -44.5t-59.5 -31t-70 -11.5zM308 113q40 0 70 19t46.5 53.5t16.5 80.5q0 45 -16.5 79t-46.5 53.5
t-70 19.5q-39 0 -68.5 -19.5t-46.5 -53.5t-17 -79q0 -46 17 -80.5t46.5 -53.5t68.5 -19zM250 594l-43 66l167 137l71 -98z" />
    <glyph glyph-name="acircumflex" unicode="&#xe2;" horiz-adv-x="651" 
d="M269 -10q-66 0 -119 36t-84 98t-31 142t31.5 142t85.5 97t123 35q39 0 71.5 -11.5t57 -31.5t41.5 -46t24 -56l-30 5v129h141v-529h-143v127l32 3q-8 -28 -26 -53t-44.5 -44.5t-59.5 -31t-70 -11.5zM308 113q40 0 70 19t46.5 53.5t16.5 80.5q0 45 -16.5 79t-46.5 53.5
t-70 19.5q-39 0 -68.5 -19.5t-46.5 -53.5t-17 -79q0 -46 17 -80.5t46.5 -53.5t68.5 -19zM196 603l-51 44l135 124h92l135 -124l-51 -44l-145 82h30z" />
    <glyph glyph-name="atilde" unicode="&#xe3;" horiz-adv-x="651" 
d="M269 -10q-66 0 -119 36t-84 98t-31 142t31.5 142t85.5 97t123 35q39 0 71.5 -11.5t57 -31.5t41.5 -46t24 -56l-30 5v129h141v-529h-143v127l32 3q-8 -28 -26 -53t-44.5 -44.5t-59.5 -31t-70 -11.5zM308 113q40 0 70 19t46.5 53.5t16.5 80.5q0 45 -16.5 79t-46.5 53.5
t-70 19.5q-39 0 -68.5 -19.5t-46.5 -53.5t-17 -79q0 -46 17 -80.5t46.5 -53.5t68.5 -19zM388 614q-18 0 -34 7t-37 21q-18 15 -28 21t-18 6q-14 0 -24.5 -12.5t-13.5 -38.5l-83 11q2 54 32.5 93t81.5 39q18 0 34 -6.5t36 -21.5q15 -12 26 -19.5t21 -7.5q14 0 24 13.5
t13 37.5l82 -12q0 -34 -14.5 -64.5t-39 -48.5t-58.5 -18z" />
    <glyph glyph-name="adieresis" unicode="&#xe4;" horiz-adv-x="651" 
d="M269 -10q-66 0 -119 36t-84 98t-31 142t31.5 142t85.5 97t123 35q39 0 71.5 -11.5t57 -31.5t41.5 -46t24 -56l-30 5v129h141v-529h-143v127l32 3q-8 -28 -26 -53t-44.5 -44.5t-59.5 -31t-70 -11.5zM308 113q40 0 70 19t46.5 53.5t16.5 80.5q0 45 -16.5 79t-46.5 53.5
t-70 19.5q-39 0 -68.5 -19.5t-46.5 -53.5t-17 -79q0 -46 17 -80.5t46.5 -53.5t68.5 -19zM440 635q-39 0 -60 20.5t-21 58.5q0 35 22 56.5t59 21.5q39 0 60 -20t21 -58q0 -35 -22 -57t-59 -22zM212 635q-38 0 -59.5 20.5t-21.5 58.5q0 35 22 56.5t59 21.5q39 0 60 -20t21 -58
q0 -35 -21.5 -57t-59.5 -22z" />
    <glyph glyph-name="aring" unicode="&#xe5;" horiz-adv-x="651" 
d="M269 -10q-66 0 -119 36t-84 98t-31 142t31.5 142t85.5 97t123 35q39 0 71.5 -11.5t57 -31.5t41.5 -46t24 -56l-30 5v129h141v-529h-143v127l32 3q-8 -28 -26 -53t-44.5 -44.5t-59.5 -31t-70 -11.5zM308 113q40 0 70 19t46.5 53.5t16.5 80.5q0 45 -16.5 79t-46.5 53.5
t-70 19.5q-39 0 -68.5 -19.5t-46.5 -53.5t-17 -79q0 -46 17 -80.5t46.5 -53.5t68.5 -19zM325 604q-30 0 -57 15.5t-43.5 41t-16.5 56.5t16 56.5t43 41t58 15.5q32 0 58.5 -15.5t42.5 -41t16 -56.5t-16 -56.5t-42.5 -41t-58.5 -15.5zM325 678q17 0 29 11t12 28t-12 28.5
t-29 11.5t-29 -11.5t-12 -28.5t12 -28t29 -11z" />
    <glyph glyph-name="ae" unicode="&#xe6;" horiz-adv-x="900" 
d="M215 -10q-52 0 -92.5 20t-64 55.5t-23.5 83.5q0 41 15 72t45 52t74.5 31.5t103.5 10.5h470l-12 -13v21q-1 28 -16 49.5t-39 33.5t-53 12q-44 0 -73.5 -16.5t-45 -49.5t-15.5 -80t21.5 -82t60.5 -55t90 -20q37 0 66.5 10.5t63.5 38.5l63 -97q-29 -25 -63.5 -42t-71 -26
t-73.5 -9q-86 0 -149 34.5t-98 96t-35 140.5q0 61 19.5 112t54 88.5t81.5 58t102 20.5q72 -1 127.5 -35t87 -93.5t30.5 -135.5l-1 -47h-593q-24 0 -42.5 -4.5t-31.5 -14t-19 -22.5t-6 -30q0 -18 8.5 -31.5t24.5 -21.5t36 -8q30 0 56.5 10t47.5 28t33 41l49 -77
q-21 -33 -55 -57.5t-74.5 -38t-83.5 -13.5zM362 251v89q0 19 -7 33.5t-20 24.5t-31 15t-39 5q-41 0 -71.5 -15.5t-56.5 -50.5l-85 85q26 32 61.5 55t78 35.5t89.5 12.5q48 0 85.5 -10.5t65 -31t41.5 -51.5t14 -73v-119z" />
    <glyph glyph-name="ccedilla" unicode="&#xe7;" horiz-adv-x="542" 
d="M301 -10q-76 0 -136 36t-94.5 98t-34.5 141t34.5 141t94.5 98t136 36q71 0 130 -26t92 -72l-78 -94q-14 19 -35 34.5t-45.5 24.5t-50.5 9q-41 0 -72.5 -19.5t-49.5 -53.5t-18 -78q0 -42 18.5 -76t50.5 -54t72 -20q26 0 49 7t43.5 22t37.5 36l77 -94q-33 -43 -93.5 -69.5
t-127.5 -26.5zM205 -245l-9 68q22 0 45.5 6t40 16t16.5 22q0 13 -13 20t-31 11t-33 4l-16 12l70 110h75l-45 -68q51 -7 76.5 -33t25.5 -62q0 -29 -19 -49.5t-49 -33.5t-65.5 -18.5t-68.5 -4.5z" />
    <glyph glyph-name="egrave" unicode="&#xe8;" horiz-adv-x="586" 
d="M322 -10q-86 0 -150.5 35t-100 96t-35.5 140q0 62 20 113t56 88.5t85.5 58t107.5 20.5q54 0 100 -20t79.5 -55.5t51.5 -84t16 -104.5l-1 -44h-425l-23 87h331l-16 -18v22q-2 27 -17.5 48.5t-39.5 34t-54 12.5q-44 0 -74.5 -17t-46.5 -50t-16 -80q0 -48 20.5 -83t58 -54.5
t88.5 -19.5q35 0 64 11t62 38l68 -95q-29 -26 -64 -43.5t-72 -26.5t-73 -9zM361 595l-195 105l71 97l167 -136z" />
    <glyph glyph-name="eacute" unicode="&#xe9;" horiz-adv-x="586" 
d="M322 -10q-86 0 -150.5 35t-100 96t-35.5 140q0 62 20 113t56 88.5t85.5 58t107.5 20.5q54 0 100 -20t79.5 -55.5t51.5 -84t16 -104.5l-1 -44h-425l-23 87h331l-16 -18v22q-2 27 -17.5 48.5t-39.5 34t-54 12.5q-44 0 -74.5 -17t-46.5 -50t-16 -80q0 -48 20.5 -83t58 -54.5
t88.5 -19.5q35 0 64 11t62 38l68 -95q-29 -26 -64 -43.5t-72 -26.5t-73 -9zM229 594l-43 66l167 137l71 -98z" />
    <glyph glyph-name="ecircumflex" unicode="&#xea;" horiz-adv-x="586" 
d="M322 -10q-86 0 -150.5 35t-100 96t-35.5 140q0 62 20 113t56 88.5t85.5 58t107.5 20.5q54 0 100 -20t79.5 -55.5t51.5 -84t16 -104.5l-1 -44h-425l-23 87h331l-16 -18v22q-2 27 -17.5 48.5t-39.5 34t-54 12.5q-44 0 -74.5 -17t-46.5 -50t-16 -80q0 -48 20.5 -83t58 -54.5
t88.5 -19.5q35 0 64 11t62 38l68 -95q-29 -26 -64 -43.5t-72 -26.5t-73 -9zM175 603l-51 44l135 124h92l135 -124l-51 -44l-145 82h30z" />
    <glyph glyph-name="edieresis" unicode="&#xeb;" horiz-adv-x="586" 
d="M322 -10q-86 0 -150.5 35t-100 96t-35.5 140q0 62 20 113t56 88.5t85.5 58t107.5 20.5q54 0 100 -20t79.5 -55.5t51.5 -84t16 -104.5l-1 -44h-425l-23 87h331l-16 -18v22q-2 27 -17.5 48.5t-39.5 34t-54 12.5q-44 0 -74.5 -17t-46.5 -50t-16 -80q0 -48 20.5 -83t58 -54.5
t88.5 -19.5q35 0 64 11t62 38l68 -95q-29 -26 -64 -43.5t-72 -26.5t-73 -9zM419 635q-39 0 -60 20.5t-21 58.5q0 35 22 56.5t59 21.5q39 0 60 -20t21 -58q0 -35 -22 -57t-59 -22zM191 635q-38 0 -59.5 20.5t-21.5 58.5q0 35 22 56.5t59 21.5q39 0 60 -20t21 -58
q0 -35 -21.5 -57t-59.5 -22z" />
    <glyph glyph-name="igrave" unicode="&#xec;" horiz-adv-x="274" 
d="M66 0v529h142v-529h-142zM192 595l-195 105l71 97l167 -136z" />
    <glyph glyph-name="iacute" unicode="&#xed;" horiz-adv-x="274" 
d="M66 0v529h142v-529h-142zM60 594l-43 66l167 137l71 -98z" />
    <glyph glyph-name="icircumflex" unicode="&#xee;" horiz-adv-x="274" 
d="M66 0v529h142v-529h-142zM6 603l-51 44l135 124h92l135 -124l-51 -44l-145 82h30z" />
    <glyph glyph-name="idieresis" unicode="&#xef;" horiz-adv-x="274" 
d="M66 0v529h142v-529h-142zM250 635q-39 0 -60 20.5t-21 58.5q0 35 22 56.5t59 21.5q39 0 60 -20t21 -58q0 -35 -22 -57t-59 -22zM22 635q-38 0 -59.5 20.5t-21.5 58.5q0 35 22 56.5t59 21.5q39 0 60 -20t21 -58q0 -35 -21.5 -57t-59.5 -22z" />
    <glyph glyph-name="eth" unicode="&#xf0;" horiz-adv-x="590" 
d="M294 -7q-74 0 -132.5 35.5t-92 95.5t-33.5 134q0 53 20 100.5t54.5 84t79 57t93.5 20.5q50 0 89.5 -21t66.5 -59.5t37 -91.5l-81 31q-2 44 -11.5 80.5t-26.5 65.5t-43 52t-62 41t-83 32l46 94q62 -15 114.5 -43.5t94 -69.5t70.5 -93.5t44 -115.5t15 -136
q0 -87 -32.5 -153t-91 -103t-135.5 -37zM295 116q35 0 64 19.5t45.5 52.5t16.5 74q0 40 -16.5 72t-45.5 51.5t-64 19.5q-36 0 -64.5 -19t-45.5 -51t-17 -73t17 -74t45.5 -52.5t64.5 -19.5zM152 521l-13 65l155 39l56 25l146 33l18 -66l-113 -26l-42 -22z" />
    <glyph glyph-name="ntilde" unicode="&#xf1;" horiz-adv-x="622" 
d="M71 0v529h136l4 -108l-28 -12q11 36 39.5 65.5t68.5 47.5t84 18q60 0 100.5 -24t61 -72.5t20.5 -119.5v-324h-142v313q0 36 -10 60t-30.5 35t-50.5 10q-24 0 -44.5 -7.5t-35 -21.5t-23 -32t-8.5 -39v-318h-70h-41h-31zM404 614q-18 0 -34 7t-37 21q-18 15 -28 21t-18 6
q-14 0 -24.5 -12.5t-13.5 -38.5l-83 11q2 54 32.5 93t81.5 39q18 0 34 -6.5t36 -21.5q15 -12 26 -19.5t21 -7.5q14 0 24 13.5t13 37.5l82 -12q0 -34 -14.5 -64.5t-39 -48.5t-58.5 -18z" />
    <glyph glyph-name="ograve" unicode="&#xf2;" horiz-adv-x="633" 
d="M317 -10q-81 0 -144.5 35.5t-100 97.5t-36.5 142t36.5 142t100 97.5t144.5 35.5q80 0 143.5 -35.5t99.5 -97.5t36 -142t-36 -142t-99.5 -97.5t-143.5 -35.5zM317 114q39 0 70 19.5t48.5 54t16.5 77.5q1 44 -16.5 78.5t-48.5 54t-70 19.5q-40 0 -71 -20t-49 -54t-17 -78
q-1 -43 17 -77.5t49 -54t71 -19.5zM373 595l-195 105l71 97l167 -136z" />
    <glyph glyph-name="oacute" unicode="&#xf3;" horiz-adv-x="633" 
d="M317 -10q-81 0 -144.5 35.5t-100 97.5t-36.5 142t36.5 142t100 97.5t144.5 35.5q80 0 143.5 -35.5t99.5 -97.5t36 -142t-36 -142t-99.5 -97.5t-143.5 -35.5zM317 114q39 0 70 19.5t48.5 54t16.5 77.5q1 44 -16.5 78.5t-48.5 54t-70 19.5q-40 0 -71 -20t-49 -54t-17 -78
q-1 -43 17 -77.5t49 -54t71 -19.5zM241 594l-43 66l167 137l71 -98z" />
    <glyph glyph-name="ocircumflex" unicode="&#xf4;" horiz-adv-x="633" 
d="M317 -10q-81 0 -144.5 35.5t-100 97.5t-36.5 142t36.5 142t100 97.5t144.5 35.5q80 0 143.5 -35.5t99.5 -97.5t36 -142t-36 -142t-99.5 -97.5t-143.5 -35.5zM317 114q39 0 70 19.5t48.5 54t16.5 77.5q1 44 -16.5 78.5t-48.5 54t-70 19.5q-40 0 -71 -20t-49 -54t-17 -78
q-1 -43 17 -77.5t49 -54t71 -19.5zM187 603l-51 44l135 124h92l135 -124l-51 -44l-145 82h30z" />
    <glyph glyph-name="otilde" unicode="&#xf5;" horiz-adv-x="633" 
d="M317 -10q-81 0 -144.5 35.5t-100 97.5t-36.5 142t36.5 142t100 97.5t144.5 35.5q80 0 143.5 -35.5t99.5 -97.5t36 -142t-36 -142t-99.5 -97.5t-143.5 -35.5zM317 114q39 0 70 19.5t48.5 54t16.5 77.5q1 44 -16.5 78.5t-48.5 54t-70 19.5q-40 0 -71 -20t-49 -54t-17 -78
q-1 -43 17 -77.5t49 -54t71 -19.5zM379 614q-18 0 -34 7t-37 21q-18 15 -28 21t-18 6q-14 0 -24.5 -12.5t-13.5 -38.5l-83 11q2 54 32.5 93t81.5 39q18 0 34 -6.5t36 -21.5q15 -12 26 -19.5t21 -7.5q14 0 24 13.5t13 37.5l82 -12q0 -34 -14.5 -64.5t-39 -48.5t-58.5 -18z
" />
    <glyph glyph-name="odieresis" unicode="&#xf6;" horiz-adv-x="633" 
d="M317 -10q-81 0 -144.5 35.5t-100 97.5t-36.5 142t36.5 142t100 97.5t144.5 35.5q80 0 143.5 -35.5t99.5 -97.5t36 -142t-36 -142t-99.5 -97.5t-143.5 -35.5zM317 114q39 0 70 19.5t48.5 54t16.5 77.5q1 44 -16.5 78.5t-48.5 54t-70 19.5q-40 0 -71 -20t-49 -54t-17 -78
q-1 -43 17 -77.5t49 -54t71 -19.5zM430 635q-39 0 -60 20.5t-21 58.5q0 35 22 56.5t59 21.5q39 0 60 -20t21 -58q0 -35 -22 -57t-59 -22zM202 635q-38 0 -59.5 20.5t-21.5 58.5q0 35 22 56.5t59 21.5q39 0 60 -20t21 -58q0 -35 -21.5 -57t-59.5 -22z" />
    <glyph glyph-name="divide" unicode="&#xf7;" horiz-adv-x="597" 
d="M45 204v118h507v-118h-507zM295 -11q-24 0 -42.5 10t-29 27.5t-10.5 41.5q0 22 10.5 40t29 28t42.5 10q25 0 43.5 -9.5t28.5 -27.5t10 -41t-10 -40.5t-28.5 -28t-43.5 -10.5zM295 378q-24 0 -42.5 10t-29 27.5t-10.5 40.5t10.5 40.5t29 28t42.5 10.5q25 0 43.5 -9.5
t28.5 -27.5t10 -42q0 -21 -10.5 -39t-29 -28.5t-42.5 -10.5z" />
    <glyph glyph-name="oslash" unicode="&#xf8;" horiz-adv-x="633" 
d="M116 -35l-66 48l459 542l67 -49zM317 -10q-81 0 -144.5 35.5t-100 97.5t-36.5 142t36.5 142t100 97.5t144.5 35.5q80 0 143.5 -35.5t99.5 -97.5t36 -142t-36 -142t-99.5 -97.5t-143.5 -35.5zM317 114q39 0 70 19.5t48.5 54t16.5 77.5q1 44 -16.5 78.5t-48.5 54t-70 19.5
q-40 0 -71 -20t-49 -54t-17 -78q-1 -43 17 -77.5t49 -54t71 -19.5z" />
    <glyph glyph-name="ugrave" unicode="&#xf9;" horiz-adv-x="630" 
d="M253 -10q-58 0 -99.5 25.5t-64 73t-22.5 114.5v326h142v-303q0 -36 12 -62.5t34 -40.5t54 -14q23 0 42.5 7.5t34 21.5t22.5 33t8 41v317h142v-529h-135l-5 109l26 12q-12 -37 -40 -67t-67 -47t-84 -17zM371 595l-195 105l71 97l167 -136z" />
    <glyph glyph-name="uacute" unicode="&#xfa;" horiz-adv-x="630" 
d="M253 -10q-58 0 -99.5 25.5t-64 73t-22.5 114.5v326h142v-303q0 -36 12 -62.5t34 -40.5t54 -14q23 0 42.5 7.5t34 21.5t22.5 33t8 41v317h142v-529h-135l-5 109l26 12q-12 -37 -40 -67t-67 -47t-84 -17zM239 594l-43 66l167 137l71 -98z" />
    <glyph glyph-name="ucircumflex" unicode="&#xfb;" horiz-adv-x="630" 
d="M253 -10q-58 0 -99.5 25.5t-64 73t-22.5 114.5v326h142v-303q0 -36 12 -62.5t34 -40.5t54 -14q23 0 42.5 7.5t34 21.5t22.5 33t8 41v317h142v-529h-135l-5 109l26 12q-12 -37 -40 -67t-67 -47t-84 -17zM185 603l-51 44l135 124h92l135 -124l-51 -44l-145 82h30z" />
    <glyph glyph-name="udieresis" unicode="&#xfc;" horiz-adv-x="630" 
d="M253 -10q-58 0 -99.5 25.5t-64 73t-22.5 114.5v326h142v-303q0 -36 12 -62.5t34 -40.5t54 -14q23 0 42.5 7.5t34 21.5t22.5 33t8 41v317h142v-529h-135l-5 109l26 12q-12 -37 -40 -67t-67 -47t-84 -17zM429 635q-39 0 -60 20.5t-21 58.5q0 35 22 56.5t59 21.5
q39 0 60 -20t21 -58q0 -35 -22 -57t-59 -22zM201 635q-38 0 -59.5 20.5t-21.5 58.5q0 35 22 56.5t59 21.5q39 0 60 -20t21 -58q0 -35 -21.5 -57t-59.5 -22z" />
    <glyph glyph-name="yacute" unicode="&#xfd;" horiz-adv-x="607" 
d="M145 -230l116 272l2 -82l-258 569h161l129 -305q8 -17 15.5 -39.5t12.5 -42.5l-24 -11q7 17 14.5 39t15.5 47l111 312h162l-222 -529l-91 -230h-144zM228 594l-43 66l167 137l71 -98z" />
    <glyph glyph-name="thorn" unicode="&#xfe;" horiz-adv-x="650" 
d="M71 -220v960h143v-330l-28 9q7 32 34.5 59t68.5 44t86 17q52 0 95.5 -20t75.5 -57t50 -87t18 -110q0 -79 -31 -141t-85 -97.5t-123 -35.5q-46 0 -87.5 17.5t-70 46.5t-36.5 62l33 14v-351h-143zM343 113q39 0 69 19t47 53.5t17 79.5t-17 79t-46.5 53t-69.5 19t-70 -18.5
t-47 -53t-17 -79.5t17 -79.5t47 -53.5t70 -19z" />
    <glyph glyph-name="ydieresis" unicode="&#xff;" horiz-adv-x="607" 
d="M145 -230l116 272l2 -82l-258 569h161l129 -305q8 -17 15.5 -39.5t12.5 -42.5l-24 -11q7 17 14.5 39t15.5 47l111 312h162l-222 -529l-91 -230h-144zM418 635q-39 0 -60 20.5t-21 58.5q0 35 22 56.5t59 21.5q39 0 60 -20t21 -58q0 -35 -22 -57t-59 -22zM190 635
q-38 0 -59.5 20.5t-21.5 58.5q0 35 22 56.5t59 21.5q39 0 60 -20t21 -58q0 -35 -21.5 -57t-59.5 -22z" />
    <glyph glyph-name="Amacron" unicode="&#x100;" horiz-adv-x="696" 
d="M7 0l275 700h134l273 -700h-154l-141 377q-6 16 -14.5 41t-17.5 53t-17 53.5t-12 42.5h27q-6 -22 -13.5 -46.5t-15.5 -50t-17 -49.5t-17 -47l-141 -374h-149zM135 147l49 120h321l50 -120h-420zM173 788v93h349v-93h-349z" />
    <glyph glyph-name="amacron" unicode="&#x101;" horiz-adv-x="651" 
d="M269 -10q-66 0 -119 36t-84 98t-31 142t31.5 142t85.5 97t123 35q39 0 71.5 -11.5t57 -31.5t41.5 -46t24 -56l-30 5v129h141v-529h-143v127l32 3q-8 -28 -26 -53t-44.5 -44.5t-59.5 -31t-70 -11.5zM308 113q40 0 70 19t46.5 53.5t16.5 80.5q0 45 -16.5 79t-46.5 53.5
t-70 19.5q-39 0 -68.5 -19.5t-46.5 -53.5t-17 -79q0 -46 17 -80.5t46.5 -53.5t68.5 -19zM166 641v92h320v-92h-320z" />
    <glyph glyph-name="Abreve" unicode="&#x102;" horiz-adv-x="696" 
d="M7 0l275 700h134l273 -700h-154l-141 377q-6 16 -14.5 41t-17.5 53t-17 53.5t-12 42.5h27q-6 -22 -13.5 -46.5t-15.5 -50t-17 -49.5t-17 -47l-141 -374h-149zM135 147l49 120h321l50 -120h-420zM348 755q-44 0 -80 19t-60 52t-34 75l94 12q10 -25 31.5 -43t48.5 -18
t48.5 18t31.5 43l94 -12q-9 -42 -33.5 -75t-60 -52t-80.5 -19z" />
    <glyph glyph-name="abreve" unicode="&#x103;" horiz-adv-x="651" 
d="M269 -10q-66 0 -119 36t-84 98t-31 142t31.5 142t85.5 97t123 35q39 0 71.5 -11.5t57 -31.5t41.5 -46t24 -56l-30 5v129h141v-529h-143v127l32 3q-8 -28 -26 -53t-44.5 -44.5t-59.5 -31t-70 -11.5zM308 113q40 0 70 19t46.5 53.5t16.5 80.5q0 45 -16.5 79t-46.5 53.5
t-70 19.5q-39 0 -68.5 -19.5t-46.5 -53.5t-17 -79q0 -46 17 -80.5t46.5 -53.5t68.5 -19zM326 597q-68 0 -113.5 42.5t-60.5 115.5l94 12q11 -34 32.5 -53.5t47.5 -19.5t47.5 19.5t32.5 53.5l94 -12q-15 -73 -60.5 -115.5t-113.5 -42.5z" />
    <glyph glyph-name="Aogonek" unicode="&#x104;" horiz-adv-x="696" 
d="M7 0l275 700h134l273 -700h-154l-141 377q-6 16 -14.5 41t-17.5 53t-17 53.5t-12 42.5h27q-6 -22 -13.5 -46.5t-15.5 -50t-17 -49.5t-17 -47l-141 -374h-149zM135 147l49 120h321l50 -120h-420zM573 -208q-32 0 -59 14t-42.5 38t-15.5 54q0 25 11 48t32.5 43t51.5 35.5
t68 25.5l39 -50q-26 -5 -48.5 -17.5t-35.5 -29t-13 -33.5q0 -14 8 -23.5t21 -9.5q11 0 19 6t15 18l66 -47q-13 -31 -44.5 -51.5t-72.5 -20.5z" />
    <glyph glyph-name="aogonek" unicode="&#x105;" horiz-adv-x="651" 
d="M269 -10q-66 0 -119 36t-84 98t-31 142t31.5 142t85.5 97t123 35q39 0 71.5 -11.5t57 -31.5t41.5 -46t24 -56l-30 5v129h141v-529h-143v127l32 3q-8 -28 -26 -53t-44.5 -44.5t-59.5 -31t-70 -11.5zM308 113q40 0 70 19t46.5 53.5t16.5 80.5q0 45 -16.5 79t-46.5 53.5
t-70 19.5q-39 0 -68.5 -19.5t-46.5 -53.5t-17 -79q0 -46 17 -80.5t46.5 -53.5t68.5 -19zM467 -207q-32 0 -59 14.5t-42.5 39t-15.5 54.5q0 25 11 46.5t32.5 39.5t53.5 32t74 26l37 -45q-28 -6 -51.5 -19t-37.5 -29t-14 -34q0 -14 8 -22t22 -8q10 0 17.5 6t15.5 18l66 -48
q-9 -17 -26 -34t-39.5 -27t-51.5 -10z" />
    <glyph glyph-name="Cacute" unicode="&#x106;" horiz-adv-x="689" 
d="M398 -10q-77 0 -141.5 26.5t-112 75t-73.5 115t-26 145.5q0 77 27 142.5t76 114t115 75.5t143 27q50 0 98.5 -13.5t89 -39.5t69.5 -62l-94 -104q-23 24 -49 41.5t-54.5 27t-60.5 9.5q-43 0 -80.5 -16t-65.5 -44.5t-44.5 -69t-16.5 -89.5q0 -50 16 -90.5t45 -69t69.5 -44
t89.5 -15.5q32 0 62 9t55.5 25t45.5 37l74 -117q-25 -27 -65.5 -49t-90.5 -34.5t-101 -12.5zM322 750l-34 71l200 115l52 -109z" />
    <glyph glyph-name="cacute" unicode="&#x107;" horiz-adv-x="542" 
d="M301 -10q-76 0 -136 36t-94.5 98t-34.5 141t34.5 141t94.5 98t136 36q71 0 130 -26t92 -72l-78 -94q-14 19 -35 34.5t-45.5 24.5t-50.5 9q-41 0 -72.5 -19.5t-49.5 -53.5t-18 -78q0 -42 18.5 -76t50.5 -54t72 -20q26 0 49 7t43.5 22t37.5 36l77 -94q-33 -43 -93.5 -69.5
t-127.5 -26.5zM225 594l-43 66l167 137l71 -98z" />
    <glyph glyph-name="Ccircumflex" unicode="&#x108;" horiz-adv-x="689" 
d="M398 -10q-77 0 -141.5 26.5t-112 75t-73.5 115t-26 145.5q0 77 27 142.5t76 114t115 75.5t143 27q50 0 98.5 -13.5t89 -39.5t69.5 -62l-94 -104q-23 24 -49 41.5t-54.5 27t-60.5 9.5q-43 0 -80.5 -16t-65.5 -44.5t-44.5 -69t-16.5 -89.5q0 -50 16 -90.5t45 -69t69.5 -44
t89.5 -15.5q32 0 62 9t55.5 25t45.5 37l74 -117q-25 -27 -65.5 -49t-90.5 -34.5t-101 -12.5zM274 754l-45 50l132 105h84l133 -105l-46 -50l-143 70h29z" />
    <glyph glyph-name="ccircumflex" unicode="&#x109;" horiz-adv-x="542" 
d="M301 -10q-76 0 -136 36t-94.5 98t-34.5 141t34.5 141t94.5 98t136 36q71 0 130 -26t92 -72l-78 -94q-14 19 -35 34.5t-45.5 24.5t-50.5 9q-41 0 -72.5 -19.5t-49.5 -53.5t-18 -78q0 -42 18.5 -76t50.5 -54t72 -20q26 0 49 7t43.5 22t37.5 36l77 -94q-33 -43 -93.5 -69.5
t-127.5 -26.5zM171 603l-51 44l135 124h92l135 -124l-51 -44l-145 82h30z" />
    <glyph glyph-name="Cdotaccent" unicode="&#x10a;" horiz-adv-x="689" 
d="M398 -10q-77 0 -141.5 26.5t-112 75t-73.5 115t-26 145.5q0 77 27 142.5t76 114t115 75.5t143 27q50 0 98.5 -13.5t89 -39.5t69.5 -62l-94 -104q-23 24 -49 41.5t-54.5 27t-60.5 9.5q-43 0 -80.5 -16t-65.5 -44.5t-44.5 -69t-16.5 -89.5q0 -50 16 -90.5t45 -69t69.5 -44
t89.5 -15.5q32 0 62 9t55.5 25t45.5 37l74 -117q-25 -27 -65.5 -49t-90.5 -34.5t-101 -12.5zM404 757q-42 0 -64.5 21t-22.5 56q0 32 22.5 54.5t64.5 22.5t64.5 -20.5t22.5 -56.5q0 -31 -22.5 -54t-64.5 -23z" />
    <glyph glyph-name="cdotaccent" unicode="&#x10b;" horiz-adv-x="542" 
d="M301 -10q-76 0 -136 36t-94.5 98t-34.5 141t34.5 141t94.5 98t136 36q71 0 130 -26t92 -72l-78 -94q-14 19 -35 34.5t-45.5 24.5t-50.5 9q-41 0 -72.5 -19.5t-49.5 -53.5t-18 -78q0 -42 18.5 -76t50.5 -54t72 -20q26 0 49 7t43.5 22t37.5 36l77 -94q-33 -43 -93.5 -69.5
t-127.5 -26.5zM301 638q-41 0 -64 20t-23 57q0 34 23.5 55.5t63.5 21.5q41 0 64 -20t23 -57q0 -34 -23.5 -55.5t-63.5 -21.5z" />
    <glyph glyph-name="Ccaron" unicode="&#x10c;" horiz-adv-x="689" 
d="M398 -10q-77 0 -141.5 26.5t-112 75t-73.5 115t-26 145.5q0 77 27 142.5t76 114t115 75.5t143 27q50 0 98.5 -13.5t89 -39.5t69.5 -62l-94 -104q-23 24 -49 41.5t-54.5 27t-60.5 9.5q-43 0 -80.5 -16t-65.5 -44.5t-44.5 -69t-16.5 -89.5q0 -50 16 -90.5t45 -69t69.5 -44
t89.5 -15.5q32 0 62 9t55.5 25t45.5 37l74 -117q-25 -27 -65.5 -49t-90.5 -34.5t-101 -12.5zM358 755l-130 107l46 48l145 -68h-30l145 68l46 -48l-130 -107h-92z" />
    <glyph glyph-name="ccaron" unicode="&#x10d;" horiz-adv-x="542" 
d="M301 -10q-76 0 -136 36t-94.5 98t-34.5 141t34.5 141t94.5 98t136 36q71 0 130 -26t92 -72l-78 -94q-14 19 -35 34.5t-45.5 24.5t-50.5 9q-41 0 -72.5 -19.5t-49.5 -53.5t-18 -78q0 -42 18.5 -76t50.5 -54t72 -20q26 0 49 7t43.5 22t37.5 36l77 -94q-33 -43 -93.5 -69.5
t-127.5 -26.5zM255 607l-129 124l51 44l139 -82h-30l139 82l51 -44l-129 -124h-92z" />
    <glyph glyph-name="Dcaron" unicode="&#x10e;" horiz-adv-x="764" 
d="M91 0v700h287q77 0 139.5 -25.5t108 -72t69.5 -110.5t24 -142q0 -77 -24 -141.5t-69 -111t-108 -72t-140 -25.5h-287zM241 109l-16 26h148q45 0 81 15.5t61.5 43t38.5 67.5t13 89t-13 88.5t-38.5 67.5t-61.5 43.5t-81 15.5h-151l19 24v-480zM336 755l-130 107l46 48
l145 -68h-30l145 68l46 -48l-130 -107h-92z" />
    <glyph glyph-name="dcaron" unicode="&#x10f;" horiz-adv-x="721" 
d="M278 -10q-70 0 -124.5 35.5t-86 97t-31.5 142.5q0 79 31.5 141.5t86 98t124.5 35.5q37 0 71.5 -11.5t62 -31.5t44.5 -44.5t19 -50.5l-36 -7v345h143v-740h-135l-6 122l28 -3q-2 -25 -18 -48t-42.5 -41.5t-60 -29t-70.5 -10.5zM310 108q40 0 70 20t47 55t17 82
q0 46 -17 81t-47 55t-70 20t-69.5 -20t-46 -55t-16.5 -81q0 -47 16.5 -82t46 -55t69.5 -20zM670 504l-34 50q14 5 29 13.5t26 20t11 22.5q0 8 -5 12.5t-17 8.5q-20 7 -28 18.5t-8 30.5q0 29 21 44.5t54 15.5q39 0 66 -23.5t27 -67.5q0 -26 -10 -48.5t-28.5 -40.5t-44.5 -32
t-59 -24z" />
    <glyph glyph-name="Dcroat" unicode="&#x110;" horiz-adv-x="764" 
d="M40 295v110h307v-110h-307zM91 0v700h287q77 0 139.5 -25.5t108 -72t69.5 -110.5t24 -142q0 -77 -24 -141.5t-69 -111t-108 -72t-140 -25.5h-287zM241 109l-16 26h148q45 0 81 15.5t61.5 43t38.5 67.5t13 89t-13 88.5t-38.5 67.5t-61.5 43.5t-81 15.5h-151l19 24v-480z
" />
    <glyph glyph-name="dcroat" unicode="&#x111;" horiz-adv-x="648" 
d="M333 579v110h307v-110h-307zM278 -10q-70 0 -124.5 35.5t-86 97t-31.5 142.5q0 79 31.5 141.5t86 98t124.5 35.5q37 0 71.5 -11.5t62 -31.5t44.5 -44.5t19 -50.5l-36 -7v345h143v-740h-135l-6 122l28 -3q-2 -25 -18 -48t-42.5 -41.5t-60 -29t-70.5 -10.5zM310 108
q40 0 70 20t47 55t17 82q0 46 -17 81t-47 55t-70 20t-69.5 -20t-46 -55t-16.5 -81q0 -47 16.5 -82t46 -55t69.5 -20z" />
    <glyph glyph-name="Emacron" unicode="&#x112;" horiz-adv-x="635" 
d="M91 0v700h473v-132h-326v-436h333v-132h-480zM161 293v128h355v-128h-355zM163 788v93h349v-93h-349z" />
    <glyph glyph-name="emacron" unicode="&#x113;" horiz-adv-x="586" 
d="M322 -10q-86 0 -150.5 35t-100 96t-35.5 140q0 62 20 113t56 88.5t85.5 58t107.5 20.5q54 0 100 -20t79.5 -55.5t51.5 -84t16 -104.5l-1 -44h-425l-23 87h331l-16 -18v22q-2 27 -17.5 48.5t-39.5 34t-54 12.5q-44 0 -74.5 -17t-46.5 -50t-16 -80q0 -48 20.5 -83t58 -54.5
t88.5 -19.5q35 0 64 11t62 38l68 -95q-29 -26 -64 -43.5t-72 -26.5t-73 -9zM145 641v92h320v-92h-320z" />
    <glyph glyph-name="Ebreve" unicode="&#x114;" horiz-adv-x="635" 
d="M91 0v700h473v-132h-326v-436h333v-132h-480zM161 293v128h355v-128h-355zM338 755q-44 0 -80 19t-60 52t-34 75l94 12q10 -25 31.5 -43t48.5 -18t48.5 18t31.5 43l94 -12q-9 -42 -33.5 -75t-60 -52t-80.5 -19z" />
    <glyph glyph-name="ebreve" unicode="&#x115;" horiz-adv-x="586" 
d="M322 -10q-86 0 -150.5 35t-100 96t-35.5 140q0 62 20 113t56 88.5t85.5 58t107.5 20.5q54 0 100 -20t79.5 -55.5t51.5 -84t16 -104.5l-1 -44h-425l-23 87h331l-16 -18v22q-2 27 -17.5 48.5t-39.5 34t-54 12.5q-44 0 -74.5 -17t-46.5 -50t-16 -80q0 -48 20.5 -83t58 -54.5
t88.5 -19.5q35 0 64 11t62 38l68 -95q-29 -26 -64 -43.5t-72 -26.5t-73 -9zM305 597q-68 0 -113.5 42.5t-60.5 115.5l94 12q11 -34 32.5 -53.5t47.5 -19.5t47.5 19.5t32.5 53.5l94 -12q-15 -73 -60.5 -115.5t-113.5 -42.5z" />
    <glyph glyph-name="Edotaccent" unicode="&#x116;" horiz-adv-x="635" 
d="M91 0v700h473v-132h-326v-436h333v-132h-480zM161 293v128h355v-128h-355zM338 757q-42 0 -64.5 21t-22.5 56q0 32 22.5 54.5t64.5 22.5t64.5 -20.5t22.5 -56.5q0 -31 -22.5 -54t-64.5 -23z" />
    <glyph glyph-name="edotaccent" unicode="&#x117;" horiz-adv-x="586" 
d="M322 -10q-86 0 -150.5 35t-100 96t-35.5 140q0 62 20 113t56 88.5t85.5 58t107.5 20.5q54 0 100 -20t79.5 -55.5t51.5 -84t16 -104.5l-1 -44h-425l-23 87h331l-16 -18v22q-2 27 -17.5 48.5t-39.5 34t-54 12.5q-44 0 -74.5 -17t-46.5 -50t-16 -80q0 -48 20.5 -83t58 -54.5
t88.5 -19.5q35 0 64 11t62 38l68 -95q-29 -26 -64 -43.5t-72 -26.5t-73 -9zM305 638q-41 0 -64 20t-23 57q0 34 23.5 55.5t63.5 21.5q41 0 64 -20t23 -57q0 -34 -23.5 -55.5t-63.5 -21.5z" />
    <glyph glyph-name="Eogonek" unicode="&#x118;" horiz-adv-x="635" 
d="M91 0v700h473v-132h-326v-436h333v-132h-480zM161 293v128h355v-128h-355zM448 -208q-32 0 -59 14t-42.5 38t-15.5 54q0 25 11 48t32.5 43t51.5 35.5t68 25.5l39 -50q-26 -5 -48.5 -17.5t-35.5 -29t-13 -33.5q0 -14 8 -23.5t21 -9.5q11 0 19 6t15 18l66 -47
q-13 -31 -44.5 -51.5t-72.5 -20.5z" />
    <glyph glyph-name="eogonek" unicode="&#x119;" horiz-adv-x="586" 
d="M386 -204q-54 0 -84 31t-30 74q0 42 25.5 74t70.5 59t102 53l26 -44q-59 -32 -89.5 -59.5t-30.5 -56.5q0 -16 9 -26t23 -10q12 0 20 6.5t17 18.5l65 -48q-10 -17 -27.5 -34t-42 -27.5t-54.5 -10.5zM322 -10q-86 0 -150.5 35t-100 96t-35.5 140q0 62 20 113t56 88.5
t85.5 58t107.5 20.5q54 0 100 -20t79.5 -55.5t51.5 -84t16 -104.5l-1 -44h-425l-23 87h331l-16 -18v22q-2 27 -17.5 48.5t-39.5 34t-54 12.5q-44 0 -74.5 -17t-46.5 -50t-16 -80q0 -48 20.5 -83t58 -54.5t88.5 -19.5q35 0 64 11t62 38l68 -95q-29 -26 -64 -43.5t-72 -26.5
t-73 -9z" />
    <glyph glyph-name="Ecaron" unicode="&#x11a;" horiz-adv-x="635" 
d="M91 0v700h473v-132h-326v-436h333v-132h-480zM161 293v128h355v-128h-355zM292 755l-130 107l46 48l145 -68h-30l145 68l46 -48l-130 -107h-92z" />
    <glyph glyph-name="ecaron" unicode="&#x11b;" horiz-adv-x="586" 
d="M322 -10q-86 0 -150.5 35t-100 96t-35.5 140q0 62 20 113t56 88.5t85.5 58t107.5 20.5q54 0 100 -20t79.5 -55.5t51.5 -84t16 -104.5l-1 -44h-425l-23 87h331l-16 -18v22q-2 27 -17.5 48.5t-39.5 34t-54 12.5q-44 0 -74.5 -17t-46.5 -50t-16 -80q0 -48 20.5 -83t58 -54.5
t88.5 -19.5q35 0 64 11t62 38l68 -95q-29 -26 -64 -43.5t-72 -26.5t-73 -9zM259 607l-129 124l51 44l139 -82h-30l139 82l51 -44l-129 -124h-92z" />
    <glyph glyph-name="Gcircumflex" unicode="&#x11c;" horiz-adv-x="777" 
d="M412 -10q-81 0 -148.5 27.5t-116.5 76.5t-75.5 115t-26.5 143t27.5 142.5t78 114t118.5 75.5t149 27q56 0 107 -15t93 -41t70 -60l-93 -98q-26 25 -54 42.5t-59.5 27t-64.5 9.5q-47 0 -86.5 -17t-69.5 -47t-46.5 -71t-16.5 -89q0 -47 17.5 -88.5t48 -72t71.5 -48
t88 -17.5q34 0 63.5 10t52 28.5t35 43.5t12.5 53v24l20 -28h-200v125h324q1 -11 2.5 -27t2 -31.5t0.5 -24.5q0 -68 -24.5 -125t-68 -98t-102.5 -63.5t-128 -22.5zM279 754l-45 50l132 105h84l133 -105l-46 -50l-143 70h29z" />
    <glyph glyph-name="gcircumflex" unicode="&#x11d;" horiz-adv-x="663" 
d="M312 -230q-63 0 -124 18.5t-100 48.5l51 101q20 -14 46 -25t54.5 -17t58.5 -6q52 0 85.5 16t50.5 48t17 80v92l24 -5q-6 -33 -33.5 -60.5t-68 -44t-84.5 -16.5q-73 0 -130 34t-90 94t-33 139t32.5 140.5t89 97t128.5 35.5q30 0 57.5 -7t51 -19.5t42 -28t30.5 -33.5
t15 -36l-29 -8l4 121h136v-489q0 -65 -19 -115t-55.5 -84.5t-89 -52.5t-117.5 -18zM316 114q42 0 73.5 19t48.5 53t17 80q0 45 -17 79.5t-48.5 53.5t-73.5 19q-41 0 -72 -19.5t-48.5 -54t-17.5 -78.5q0 -45 17.5 -79.5t48.5 -53.5t72 -19zM202 603l-51 44l135 124h92
l135 -124l-51 -44l-145 82h30z" />
    <glyph glyph-name="Gbreve" unicode="&#x11e;" horiz-adv-x="777" 
d="M412 -10q-81 0 -148.5 27.5t-116.5 76.5t-75.5 115t-26.5 143t27.5 142.5t78 114t118.5 75.5t149 27q56 0 107 -15t93 -41t70 -60l-93 -98q-26 25 -54 42.5t-59.5 27t-64.5 9.5q-47 0 -86.5 -17t-69.5 -47t-46.5 -71t-16.5 -89q0 -47 17.5 -88.5t48 -72t71.5 -48
t88 -17.5q34 0 63.5 10t52 28.5t35 43.5t12.5 53v24l20 -28h-200v125h324q1 -11 2.5 -27t2 -31.5t0.5 -24.5q0 -68 -24.5 -125t-68 -98t-102.5 -63.5t-128 -22.5zM409 755q-44 0 -80 19t-60 52t-34 75l94 12q10 -25 31.5 -43t48.5 -18t48.5 18t31.5 43l94 -12
q-9 -42 -33.5 -75t-60 -52t-80.5 -19z" />
    <glyph glyph-name="gbreve" unicode="&#x11f;" horiz-adv-x="663" 
d="M312 -230q-63 0 -124 18.5t-100 48.5l51 101q20 -14 46 -25t54.5 -17t58.5 -6q52 0 85.5 16t50.5 48t17 80v92l24 -5q-6 -33 -33.5 -60.5t-68 -44t-84.5 -16.5q-73 0 -130 34t-90 94t-33 139t32.5 140.5t89 97t128.5 35.5q30 0 57.5 -7t51 -19.5t42 -28t30.5 -33.5
t15 -36l-29 -8l4 121h136v-489q0 -65 -19 -115t-55.5 -84.5t-89 -52.5t-117.5 -18zM316 114q42 0 73.5 19t48.5 53t17 80q0 45 -17 79.5t-48.5 53.5t-73.5 19q-41 0 -72 -19.5t-48.5 -54t-17.5 -78.5q0 -45 17.5 -79.5t48.5 -53.5t72 -19zM332 597q-68 0 -113.5 42.5
t-60.5 115.5l94 12q11 -34 32.5 -53.5t47.5 -19.5t47.5 19.5t32.5 53.5l94 -12q-15 -73 -60.5 -115.5t-113.5 -42.5z" />
    <glyph glyph-name="Gdotaccent" unicode="&#x120;" horiz-adv-x="777" 
d="M412 -10q-81 0 -148.5 27.5t-116.5 76.5t-75.5 115t-26.5 143t27.5 142.5t78 114t118.5 75.5t149 27q56 0 107 -15t93 -41t70 -60l-93 -98q-26 25 -54 42.5t-59.5 27t-64.5 9.5q-47 0 -86.5 -17t-69.5 -47t-46.5 -71t-16.5 -89q0 -47 17.5 -88.5t48 -72t71.5 -48
t88 -17.5q34 0 63.5 10t52 28.5t35 43.5t12.5 53v24l20 -28h-200v125h324q1 -11 2.5 -27t2 -31.5t0.5 -24.5q0 -68 -24.5 -125t-68 -98t-102.5 -63.5t-128 -22.5zM409 757q-42 0 -64.5 21t-22.5 56q0 32 22.5 54.5t64.5 22.5t64.5 -20.5t22.5 -56.5q0 -31 -22.5 -54
t-64.5 -23z" />
    <glyph glyph-name="gdotaccent" unicode="&#x121;" horiz-adv-x="663" 
d="M312 -230q-63 0 -124 18.5t-100 48.5l51 101q20 -14 46 -25t54.5 -17t58.5 -6q52 0 85.5 16t50.5 48t17 80v92l24 -5q-6 -33 -33.5 -60.5t-68 -44t-84.5 -16.5q-73 0 -130 34t-90 94t-33 139t32.5 140.5t89 97t128.5 35.5q30 0 57.5 -7t51 -19.5t42 -28t30.5 -33.5
t15 -36l-29 -8l4 121h136v-489q0 -65 -19 -115t-55.5 -84.5t-89 -52.5t-117.5 -18zM316 114q42 0 73.5 19t48.5 53t17 80q0 45 -17 79.5t-48.5 53.5t-73.5 19q-41 0 -72 -19.5t-48.5 -54t-17.5 -78.5q0 -45 17.5 -79.5t48.5 -53.5t72 -19zM332 638q-41 0 -64 20t-23 57
q0 34 23.5 55.5t63.5 21.5q41 0 64 -20t23 -57q0 -34 -23.5 -55.5t-63.5 -21.5z" />
    <glyph glyph-name="uni0122" unicode="&#x122;" horiz-adv-x="777" 
d="M412 -10q-81 0 -148.5 27.5t-116.5 76.5t-75.5 115t-26.5 143t27.5 142.5t78 114t118.5 75.5t149 27q56 0 107 -15t93 -41t70 -60l-93 -98q-26 25 -54 42.5t-59.5 27t-64.5 9.5q-47 0 -86.5 -17t-69.5 -47t-46.5 -71t-16.5 -89q0 -47 17.5 -88.5t48 -72t71.5 -48
t88 -17.5q34 0 63.5 10t52 28.5t35 43.5t12.5 53v24l20 -28h-200v125h324q1 -11 2.5 -27t2 -31.5t0.5 -24.5q0 -68 -24.5 -125t-68 -98t-102.5 -63.5t-128 -22.5zM334 -277l-34 50q14 5 29 13.5t26 20t11 22.5q0 8 -5 12.5t-17 8.5q-20 7 -28 18.5t-8 30.5q0 29 21 44.5
t54 15.5q39 0 66 -23.5t27 -67.5q0 -26 -10 -48.5t-28.5 -40.5t-44.5 -32t-59 -24z" />
    <glyph glyph-name="uni0123" unicode="&#x123;" horiz-adv-x="663" 
d="M312 -230q-63 0 -124 18.5t-100 48.5l51 101q20 -14 46 -25t54.5 -17t58.5 -6q52 0 85.5 16t50.5 48t17 80v92l24 -5q-6 -33 -33.5 -60.5t-68 -44t-84.5 -16.5q-73 0 -130 34t-90 94t-33 139t32.5 140.5t89 97t128.5 35.5q30 0 57.5 -7t51 -19.5t42 -28t30.5 -33.5
t15 -36l-29 -8l4 121h136v-489q0 -65 -19 -115t-55.5 -84.5t-89 -52.5t-117.5 -18zM316 114q42 0 73.5 19t48.5 53t17 80q0 45 -17 79.5t-48.5 53.5t-73.5 19q-41 0 -72 -19.5t-48.5 -54t-17.5 -78.5q0 -45 17.5 -79.5t48.5 -53.5t72 -19zM335 599q-35 0 -63 22.5t-28 70.5
q0 28 13 50.5t34 40t46 31t49 21.5l34 -51q-13 -3 -28.5 -11.5t-26.5 -20t-11 -24.5q0 -10 7 -13.5t17 -7.5q15 -6 24.5 -16t9.5 -32q0 -30 -22.5 -45t-54.5 -15z" />
    <glyph glyph-name="Hcircumflex" unicode="&#x124;" horiz-adv-x="773" 
d="M532 0v700h150v-700h-150zM91 0v700h150v-700h-150zM151 281l1 136h457v-136h-458zM258 754l-45 50l132 105h84l133 -105l-46 -50l-143 70h29z" />
    <glyph glyph-name="hcircumflex" unicode="&#x125;" horiz-adv-x="622" 
d="M71 0v740h140v-319l-28 -12q11 36 39.5 65.5t68.5 47.5t84 18q60 0 100.5 -24t61 -72.5t20.5 -119.5v-324h-142v313q0 36 -10 60t-30.5 35t-50.5 10q-24 0 -44.5 -7.5t-35 -21.5t-23 -32t-8.5 -39v-318h-70h-41h-31zM182 794l-45 50l132 105h84l133 -105l-46 -50l-143 70
h29z" />
    <glyph glyph-name="Hbar" unicode="&#x126;" horiz-adv-x="832" 
d="M41 476v127h100l66 -10h394l69 10h122v-127h-118l-61 10h-416l-62 -10h-94zM563 0v700h150v-700h-150zM121 0v700h150v-700h-150zM181 281l1 136h457v-136h-458z" />
    <glyph glyph-name="hbar" unicode="&#x127;" horiz-adv-x="622" 
d="M13 583v109h307v-109h-307zM71 0v740h140v-319l-28 -12q11 36 39.5 65.5t68.5 47.5t84 18q60 0 100.5 -24t61 -72.5t20.5 -119.5v-324h-142v313q0 36 -10 60t-30.5 35t-50.5 10q-24 0 -44.5 -7.5t-35 -21.5t-23 -32t-8.5 -39v-318h-70h-41h-31z" />
    <glyph glyph-name="Itilde" unicode="&#x128;" horiz-adv-x="530" 
d="M73 0v129h117v442h-117v129h384v-129h-117v-442h117v-129h-384zM341 768q-21 0 -42 6.5t-44 16.5q-18 7 -30.5 11.5t-22.5 4.5q-13 0 -21.5 -10t-8.5 -29h-93q0 63 36 98t88 35q18 0 36.5 -5.5t42.5 -17.5q16 -7 27.5 -11t20.5 -4q14 0 21.5 10.5t6.5 27.5h92
q0 -36 -13.5 -66.5t-38 -48.5t-57.5 -18z" />
    <glyph glyph-name="itilde" unicode="&#x129;" horiz-adv-x="274" 
d="M66 0v529h142v-529h-142zM199 614q-18 0 -34 7t-37 21q-18 15 -28 21t-18 6q-14 0 -24.5 -12.5t-13.5 -38.5l-83 11q2 54 32.5 93t81.5 39q18 0 34 -6.5t36 -21.5q15 -12 26 -19.5t21 -7.5q14 0 24 13.5t13 37.5l82 -12q0 -34 -14.5 -64.5t-39 -48.5t-58.5 -18z" />
    <glyph glyph-name="Imacron" unicode="&#x12a;" horiz-adv-x="530" 
d="M73 0v129h117v442h-117v129h384v-129h-117v-442h117v-129h-384zM90 788v93h349v-93h-349z" />
    <glyph glyph-name="imacron" unicode="&#x12b;" horiz-adv-x="274" 
d="M66 0v529h142v-529h-142zM-24 641v92h320v-92h-320z" />
    <glyph glyph-name="Ibreve" unicode="&#x12c;" horiz-adv-x="530" 
d="M73 0v129h117v442h-117v129h384v-129h-117v-442h117v-129h-384zM265 755q-44 0 -80 19t-60 52t-34 75l94 12q10 -25 31.5 -43t48.5 -18t48.5 18t31.5 43l94 -12q-9 -42 -33.5 -75t-60 -52t-80.5 -19z" />
    <glyph glyph-name="ibreve" unicode="&#x12d;" horiz-adv-x="274" 
d="M66 0v529h142v-529h-142zM136 597q-68 0 -113.5 42.5t-60.5 115.5l94 12q11 -34 32.5 -53.5t47.5 -19.5t47.5 19.5t32.5 53.5l94 -12q-15 -73 -60.5 -115.5t-113.5 -42.5z" />
    <glyph glyph-name="Iogonek" unicode="&#x12e;" horiz-adv-x="530" 
d="M73 0v129h117v442h-117v129h384v-129h-117v-442h117v-129h-384zM295 -208q-32 0 -59 14t-42.5 38t-15.5 54q0 25 11 48t32.5 43t51.5 35.5t68 25.5l39 -50q-26 -5 -48.5 -17.5t-35.5 -29t-13 -33.5q0 -14 8 -23.5t21 -9.5q11 0 19 6t15 18l66 -47q-13 -31 -44.5 -51.5
t-72.5 -20.5z" />
    <glyph glyph-name="iogonek" unicode="&#x12f;" horiz-adv-x="274" 
d="M66 0v529h142v-529h-142zM136 638q-41 0 -64 20t-23 57q0 34 23.5 55.5t63.5 21.5q41 0 64 -20t23 -57q0 -34 -23.5 -55.5t-63.5 -21.5zM109 -207q-32 0 -59 14.5t-42.5 39t-15.5 54.5q0 25 11 46.5t32.5 39.5t53.5 32t74 26l37 -45q-28 -6 -51.5 -19t-37.5 -29t-14 -34
q0 -14 8 -22t22 -8q10 0 17.5 6t15.5 18l66 -48q-9 -17 -26 -34t-39.5 -27t-51.5 -10z" />
    <glyph glyph-name="Idotaccent" unicode="&#x130;" horiz-adv-x="530" 
d="M73 0v129h117v442h-117v129h384v-129h-117v-442h117v-129h-384zM265 757q-42 0 -64.5 21t-22.5 56q0 32 22.5 54.5t64.5 22.5t64.5 -20.5t22.5 -56.5q0 -31 -22.5 -54t-64.5 -23z" />
    <glyph glyph-name="dotlessi" unicode="&#x131;" horiz-adv-x="274" 
d="M66 0v529h142v-529h-142z" />
    <glyph glyph-name="IJ" unicode="&#x132;" horiz-adv-x="1188" 
d="M73 0v129h117v442h-117v129h384v-129h-117v-442h117v-129h-384zM790 -10q-38 0 -71 9t-60 25t-49 39.5t-37 52.5l87 91q17 -23 31.5 -38t28 -24.5t27.5 -13t30 -3.5q28 0 49.5 13t33 36t11.5 53v337h-128v133h383v-133h-108v-354q0 -50 -17 -91t-48 -70.5t-72.5 -45.5
t-90.5 -16z" />
    <glyph glyph-name="ij" unicode="&#x133;" horiz-adv-x="605" 
d="M83 0v529h142v-529h-142zM153 637q-41 0 -64 20.5t-23 57.5q0 34 23.5 55.5t63.5 21.5q41 0 64 -20.5t23 -56.5q0 -34 -23.5 -56t-63.5 -22zM324 -206l-53 110q43 0 69 12t37.5 39.5t11.5 72.5v501h142v-535q0 -65 -24.5 -109.5t-70.5 -67.5t-112 -23zM463 637
q-41 0 -64 20.5t-23 57.5q0 34 23.5 55.5t63.5 21.5q41 0 64 -20.5t23 -56.5q0 -34 -23.5 -56t-63.5 -22z" />
    <glyph glyph-name="Jcircumflex" unicode="&#x134;" horiz-adv-x="658" 
d="M260 -10q-38 0 -71 9t-60 25t-49 39.5t-37 52.5l87 91q17 -23 31.5 -38t28 -24.5t27.5 -13t30 -3.5q28 0 49.5 13t33 36t11.5 53v337h-128v133h383v-133h-108v-354q0 -50 -17 -91t-48 -70.5t-72.5 -45.5t-90.5 -16zM283 754l-45 50l132 105h84l133 -105l-46 -50l-143 70
h29z" />
    <glyph glyph-name="jcircumflex" unicode="&#x135;" horiz-adv-x="298" 
d="M18 -206l-54 110q44 0 69.5 12t37.5 39.5t12 72.5v501h142v-535q0 -65 -25 -109.5t-71 -67.5t-111 -23zM26 603l-51 44l135 124h92l135 -124l-51 -44l-145 82h30z" />
    <glyph glyph-name="uni0136" unicode="&#x136;" horiz-adv-x="737" 
d="M204 207l-32 136l354 357h182zM91 0v700h150v-700h-150zM545 0l-262 347l103 90l337 -437h-178zM314 -277l-34 50q14 5 29 13.5t26 20t11 22.5q0 8 -5 12.5t-17 8.5q-20 7 -28 18.5t-8 30.5q0 29 21 44.5t54 15.5q39 0 66 -23.5t27 -67.5q0 -26 -10 -48.5t-28.5 -40.5
t-44.5 -32t-59 -24z" />
    <glyph glyph-name="uni0137" unicode="&#x137;" horiz-adv-x="607" 
d="M206 159l-42 117l250 253h187zM71 0v740h142v-740h-142zM429 0l-190 239l100 80l261 -319h-171zM249 -277l-34 51q14 4 29 13t26 20t11 23q0 7 -5 11.5t-17 9.5q-20 7 -28 18.5t-8 29.5q0 29 21.5 44.5t55.5 15.5q39 0 65 -24t26 -68q0 -24 -10 -45t-28.5 -39t-44.5 -33
t-59 -27z" />
    <glyph glyph-name="kgreenlandic" unicode="&#x138;" horiz-adv-x="605" 
d="M202 141l-42 111l250 277h177zM71 0v529h138v-529h-138zM419 0l-184 264l98 68l251 -333z" />
    <glyph glyph-name="Lacute" unicode="&#x139;" horiz-adv-x="606" 
d="M91 0v700h150v-565h317v-135h-467zM86 750l-34 71l200 115l52 -109z" />
    <glyph glyph-name="lacute" unicode="&#x13a;" horiz-adv-x="287" 
d="M72 0v740h142v-740h-142zM62 790l-34 71l200 115l52 -109z" />
    <glyph glyph-name="uni013B" unicode="&#x13b;" horiz-adv-x="606" 
d="M91 0v700h150v-565h317v-135h-467zM249 -277l-34 50q14 5 29 13.5t26 20t11 22.5q0 8 -5 12.5t-17 8.5q-20 7 -28 18.5t-8 30.5q0 29 21 44.5t54 15.5q39 0 66 -23.5t27 -67.5q0 -26 -10 -48.5t-28.5 -40.5t-44.5 -32t-59 -24z" />
    <glyph glyph-name="uni013C" unicode="&#x13c;" horiz-adv-x="287" 
d="M72 0v740h142v-740h-142zM90 -277l-34 51q14 4 29 13t26 20t11 23q0 7 -5 11.5t-17 9.5q-20 7 -28 18.5t-8 29.5q0 29 21.5 44.5t55.5 15.5q39 0 65 -24t26 -68q0 -24 -10 -45t-28.5 -39t-44.5 -33t-59 -27z" />
    <glyph glyph-name="Lcaron" unicode="&#x13d;" horiz-adv-x="606" 
d="M91 0v700h150v-565h317v-135h-467zM377 464l-34 50q14 5 29 13.5t26 20t11 22.5q0 8 -5 12.5t-17 8.5q-20 7 -28 18.5t-8 30.5q0 29 21 44.5t54 15.5q39 0 66 -23.5t27 -67.5q0 -26 -10 -48.5t-28.5 -40.5t-44.5 -32t-59 -24z" />
    <glyph glyph-name="lcaron" unicode="&#x13e;" horiz-adv-x="361" 
d="M72 0v740h142v-740h-142zM310 504l-34 50q14 5 29 13.5t26 20t11 22.5q0 8 -5 12.5t-17 8.5q-20 7 -28 18.5t-8 30.5q0 29 21 44.5t54 15.5q39 0 66 -23.5t27 -67.5q0 -26 -10 -48.5t-28.5 -40.5t-44.5 -32t-59 -24z" />
    <glyph glyph-name="Ldot" unicode="&#x13f;" horiz-adv-x="606" 
d="M91 0v700h150v-565h317v-135h-467zM470 299q-39 0 -60 22t-21 63q0 37 22.5 60.5t58.5 23.5q38 0 59 -22t21 -62q0 -38 -22 -61.5t-58 -23.5z" />
    <glyph glyph-name="ldot" unicode="&#x140;" horiz-adv-x="417" 
d="M72 0v740h142v-740h-142zM354 299q-39 0 -60 22t-21 63q0 37 22.5 60.5t58.5 23.5q38 0 59 -22t21 -62q0 -38 -22 -61.5t-58 -23.5z" />
    <glyph glyph-name="Lslash" unicode="&#x141;" horiz-adv-x="629" 
d="M49 244l-42 107l336 149l44 -111zM115 0v700h150v-565h317v-135h-467z" />
    <glyph glyph-name="lslash" unicode="&#x142;" horiz-adv-x="337" 
d="M43 266l-45 110l295 129l46 -108zM96 0v740h142v-740h-142z" />
    <glyph glyph-name="Nacute" unicode="&#x143;" horiz-adv-x="802" 
d="M91 0v700h134l387 -523h-28q-4 31 -7 60.5t-5.5 60t-4 63t-2.5 69t-1 79.5v191h147v-700h-136l-395 528l38 -1q5 -52 8.5 -88.5t6 -63.5t3.5 -47t1.5 -38t0.5 -38v-252h-147zM320 750l-34 71l200 115l52 -109z" />
    <glyph glyph-name="nacute" unicode="&#x144;" horiz-adv-x="622" 
d="M71 0v529h136l4 -108l-28 -12q11 36 39.5 65.5t68.5 47.5t84 18q60 0 100.5 -24t61 -72.5t20.5 -119.5v-324h-142v313q0 36 -10 60t-30.5 35t-50.5 10q-24 0 -44.5 -7.5t-35 -21.5t-23 -32t-8.5 -39v-318h-70h-41h-31zM266 594l-43 66l167 137l71 -98z" />
    <glyph glyph-name="uni0145" unicode="&#x145;" horiz-adv-x="802" 
d="M91 0v700h134l387 -523h-28q-4 31 -7 60.5t-5.5 60t-4 63t-2.5 69t-1 79.5v191h147v-700h-136l-395 528l38 -1q5 -52 8.5 -88.5t6 -63.5t3.5 -47t1.5 -38t0.5 -38v-252h-147zM348 -277l-34 50q14 5 29 13.5t26 20t11 22.5q0 8 -5 12.5t-17 8.5q-20 7 -28 18.5t-8 30.5
q0 29 21 44.5t54 15.5q39 0 66 -23.5t27 -67.5q0 -26 -10 -48.5t-28.5 -40.5t-44.5 -32t-59 -24z" />
    <glyph glyph-name="uni0146" unicode="&#x146;" horiz-adv-x="622" 
d="M71 0v529h136l4 -108l-28 -12q11 36 39.5 65.5t68.5 47.5t84 18q60 0 100.5 -24t61 -72.5t20.5 -119.5v-324h-142v313q0 36 -10 60t-30.5 35t-50.5 10q-24 0 -44.5 -7.5t-35 -21.5t-23 -32t-8.5 -39v-318h-70h-41h-31zM258 -277l-34 51q14 4 29 13t26 20t11 23
q0 7 -5 11.5t-17 9.5q-20 7 -28 18.5t-8 29.5q0 29 21.5 44.5t55.5 15.5q39 0 65 -24t26 -68q0 -24 -10 -45t-28.5 -39t-44.5 -33t-59 -27z" />
    <glyph glyph-name="Ncaron" unicode="&#x147;" horiz-adv-x="802" 
d="M91 0v700h134l387 -523h-28q-4 31 -7 60.5t-5.5 60t-4 63t-2.5 69t-1 79.5v191h147v-700h-136l-395 528l38 -1q5 -52 8.5 -88.5t6 -63.5t3.5 -47t1.5 -38t0.5 -38v-252h-147zM356 755l-130 107l46 48l145 -68h-30l145 68l46 -48l-130 -107h-92z" />
    <glyph glyph-name="ncaron" unicode="&#x148;" horiz-adv-x="622" 
d="M71 0v529h136l4 -108l-28 -12q11 36 39.5 65.5t68.5 47.5t84 18q60 0 100.5 -24t61 -72.5t20.5 -119.5v-324h-142v313q0 36 -10 60t-30.5 35t-50.5 10q-24 0 -44.5 -7.5t-35 -21.5t-23 -32t-8.5 -39v-318h-70h-41h-31zM296 607l-129 124l51 44l139 -82h-30l139 82l51 -44
l-129 -124h-92z" />
    <glyph glyph-name="napostrophe" unicode="&#x149;" horiz-adv-x="659" 
d="M-81 438l21 262h149l-83 -262h-87zM108 0v529h136l4 -108l-28 -12q11 36 39.5 65.5t68.5 47.5t84 18q60 0 100.5 -24t61 -72.5t20.5 -119.5v-324h-142v313q0 36 -10 60t-30.5 35t-50.5 10q-24 0 -44.5 -7.5t-35 -21.5t-23 -32t-8.5 -39v-318h-70h-41h-31z" />
    <glyph glyph-name="Eng" unicode="&#x14a;" horiz-adv-x="802" 
d="M499 -201l-58 110q26 0 49 5.5t40 17t27.5 28.5t10.5 41v64l8 -66l-367 488l13 11q2 -26 4.5 -52t4.5 -51.5t3.5 -49t2.5 -43t1 -33.5v-269h-147v700h134l373 -504l-15 -8q-5 38 -8.5 74t-6 74.5t-3.5 80.5t-1 92v191h147v-715q0 -61 -25.5 -102.5t-73.5 -62.5t-113 -21z
" />
    <glyph glyph-name="eng" unicode="&#x14b;" horiz-adv-x="622" 
d="M348 -201l-53 110q61 0 90 29t30 86v289q0 36 -10 60t-30.5 35t-50.5 10q-24 0 -44.5 -7.5t-35 -21.5t-23 -32t-8.5 -39v-318h-142v529h136l2 -71q18 23 44.5 41.5t57.5 29.5t64 11q60 0 100.5 -24t61 -72.5t20.5 -119.5v-339q0 -59 -25 -100.5t-71.5 -63.5t-112.5 -22z
" />
    <glyph glyph-name="Omacron" unicode="&#x14c;" horiz-adv-x="802" 
d="M402 -10q-78 0 -143 27t-113.5 75.5t-74.5 115t-26 144.5q0 79 26 145t74.5 114.5t113.5 75.5t142 27q78 0 142.5 -27t113 -76t74.5 -115t26 -144t-26 -144t-74.5 -115t-113 -76t-141.5 -27zM401 132q45 0 82 16.5t64 46t42.5 69.5t15.5 88t-15.5 88t-42.5 69.5t-64 46
t-82 16.5q-44 0 -81 -16.5t-65 -46t-42.5 -69.5t-14.5 -88t14.5 -88t42.5 -69.5t65 -46t81 -16.5zM226 788v93h349v-93h-349z" />
    <glyph glyph-name="omacron" unicode="&#x14d;" horiz-adv-x="633" 
d="M317 -10q-81 0 -144.5 35.5t-100 97.5t-36.5 142t36.5 142t100 97.5t144.5 35.5q80 0 143.5 -35.5t99.5 -97.5t36 -142t-36 -142t-99.5 -97.5t-143.5 -35.5zM317 114q39 0 70 19.5t48.5 54t16.5 77.5q1 44 -16.5 78.5t-48.5 54t-70 19.5q-40 0 -71 -20t-49 -54t-17 -78
q-1 -43 17 -77.5t49 -54t71 -19.5zM157 641v92h320v-92h-320z" />
    <glyph glyph-name="Obreve" unicode="&#x14e;" horiz-adv-x="802" 
d="M402 -10q-78 0 -143 27t-113.5 75.5t-74.5 115t-26 144.5q0 79 26 145t74.5 114.5t113.5 75.5t142 27q78 0 142.5 -27t113 -76t74.5 -115t26 -144t-26 -144t-74.5 -115t-113 -76t-141.5 -27zM401 132q45 0 82 16.5t64 46t42.5 69.5t15.5 88t-15.5 88t-42.5 69.5t-64 46
t-82 16.5q-44 0 -81 -16.5t-65 -46t-42.5 -69.5t-14.5 -88t14.5 -88t42.5 -69.5t65 -46t81 -16.5zM401 755q-44 0 -80 19t-60 52t-34 75l94 12q10 -25 31.5 -43t48.5 -18t48.5 18t31.5 43l94 -12q-9 -42 -33.5 -75t-60 -52t-80.5 -19z" />
    <glyph glyph-name="obreve" unicode="&#x14f;" horiz-adv-x="633" 
d="M317 -10q-81 0 -144.5 35.5t-100 97.5t-36.5 142t36.5 142t100 97.5t144.5 35.5q80 0 143.5 -35.5t99.5 -97.5t36 -142t-36 -142t-99.5 -97.5t-143.5 -35.5zM317 114q39 0 70 19.5t48.5 54t16.5 77.5q1 44 -16.5 78.5t-48.5 54t-70 19.5q-40 0 -71 -20t-49 -54t-17 -78
q-1 -43 17 -77.5t49 -54t71 -19.5zM317 597q-68 0 -113.5 42.5t-60.5 115.5l94 12q11 -34 32.5 -53.5t47.5 -19.5t47.5 19.5t32.5 53.5l94 -12q-15 -73 -60.5 -115.5t-113.5 -42.5z" />
    <glyph glyph-name="Ohungarumlaut" unicode="&#x150;" horiz-adv-x="802" 
d="M402 -10q-78 0 -143 27t-113.5 75.5t-74.5 115t-26 144.5q0 79 26 145t74.5 114.5t113.5 75.5t142 27q78 0 142.5 -27t113 -76t74.5 -115t26 -144t-26 -144t-74.5 -115t-113 -76t-141.5 -27zM401 132q45 0 82 16.5t64 46t42.5 69.5t15.5 88t-15.5 88t-42.5 69.5t-64 46
t-82 16.5q-44 0 -81 -16.5t-65 -46t-42.5 -69.5t-14.5 -88t14.5 -88t42.5 -69.5t65 -46t81 -16.5zM283 752l-47 63l145 141l75 -91zM498 751l-46 64l149 139l75 -93z" />
    <glyph glyph-name="ohungarumlaut" unicode="&#x151;" horiz-adv-x="633" 
d="M317 -10q-81 0 -144.5 35.5t-100 97.5t-36.5 142t36.5 142t100 97.5t144.5 35.5q80 0 143.5 -35.5t99.5 -97.5t36 -142t-36 -142t-99.5 -97.5t-143.5 -35.5zM317 114q39 0 70 19.5t48.5 54t16.5 77.5q1 44 -16.5 78.5t-48.5 54t-70 19.5q-40 0 -71 -20t-49 -54t-17 -78
q-1 -43 17 -77.5t49 -54t71 -19.5zM358 595l-55 51l150 155l82 -87zM154 593l-56 49l142 160l85 -84z" />
    <glyph glyph-name="OE" unicode="&#x152;" horiz-adv-x="1062" 
d="M375 0q-76 0 -137 25t-104 71.5t-66 111t-23 142.5t24.5 142t70.5 111t110.5 72t144.5 25h603v-132h-333v-145h278v-128h-278v-163h333v-132h-623zM197 350q0 -50 12.5 -90t37.5 -67.5t61 -42.5t81 -15h129v430h-116q-49 0 -87 -15t-64.5 -43t-40 -67.5t-13.5 -89.5z" />
    <glyph glyph-name="oe" unicode="&#x153;" horiz-adv-x="1007" 
d="M317 -10q-81 0 -144.5 35.5t-100 97.5t-36.5 142t36.5 142t100 97.5t144.5 35.5q49 0 91 -13.5t76.5 -39.5t58.5 -62h-32q24 37 56 62.5t71.5 39t84.5 13.5q55 0 101.5 -19.5t80 -55t52 -84t16.5 -104.5l-1 -44h-391v87h303l-45 -40v38q0 31 -15.5 53.5t-42.5 35
t-60 12.5q-32 0 -56 -10.5t-40.5 -30t-24 -46t-7.5 -58.5q0 -46 17 -82t52.5 -56.5t91.5 -20.5q36 0 66 11t64 38l68 -95q-29 -25 -64 -43t-71.5 -27t-73.5 -9q-52 0 -96.5 13.5t-79.5 39.5t-59 62l32 1q-23 -37 -57 -62.5t-76 -39.5t-90 -14zM317 114q39 0 70 19.5t48.5 54
t16.5 77.5q1 44 -16.5 78.5t-48.5 54t-70 19.5q-40 0 -71 -20t-49 -54t-17 -78q-1 -43 17 -77.5t49 -54t71 -19.5z" />
    <glyph glyph-name="Racute" unicode="&#x154;" horiz-adv-x="700" 
d="M91 0v700h310q65 0 118 -29.5t83.5 -79.5t30.5 -114q0 -63 -30.5 -114.5t-83.5 -81.5t-118 -30h-165v-251h-145zM488 0l-178 316l154 25l198 -342zM236 373h158q27 0 47.5 12.5t31.5 35t11 50.5q0 30 -13 52t-38 34.5t-58 12.5h-139v-197zM247 750l-34 71l200 115
l52 -109z" />
    <glyph glyph-name="racute" unicode="&#x155;" horiz-adv-x="438" 
d="M71 0v529h137l5 -170l-24 35q12 41 39 74.5t63.5 52.5t76.5 19q17 0 33 -3t27 -7l-38 -156q-11 6 -28.5 10.5t-35.5 4.5q-24 0 -44.5 -8.5t-35.5 -24t-23.5 -36.5t-8.5 -46v-274h-143zM180 594l-43 66l167 137l71 -98z" />
    <glyph glyph-name="uni0156" unicode="&#x156;" horiz-adv-x="700" 
d="M91 0v700h310q65 0 118 -29.5t83.5 -79.5t30.5 -114q0 -63 -30.5 -114.5t-83.5 -81.5t-118 -30h-165v-251h-145zM488 0l-178 316l154 25l198 -342zM236 373h158q27 0 47.5 12.5t31.5 35t11 50.5q0 30 -13 52t-38 34.5t-58 12.5h-139v-197zM296 -277l-34 50q14 5 29 13.5
t26 20t11 22.5q0 8 -5 12.5t-17 8.5q-20 7 -28 18.5t-8 30.5q0 29 21 44.5t54 15.5q39 0 66 -23.5t27 -67.5q0 -26 -10 -48.5t-28.5 -40.5t-44.5 -32t-59 -24z" />
    <glyph glyph-name="uni0157" unicode="&#x157;" horiz-adv-x="438" 
d="M71 0v529h137l5 -170l-24 35q12 41 39 74.5t63.5 52.5t76.5 19q17 0 33 -3t27 -7l-38 -156q-11 6 -28.5 10.5t-35.5 4.5q-24 0 -44.5 -8.5t-35.5 -24t-23.5 -36.5t-8.5 -46v-274h-143zM86 -277l-34 51q14 4 29 13t26 20t11 23q0 7 -5 11.5t-17 9.5q-20 7 -28 18.5
t-8 29.5q0 29 21.5 44.5t55.5 15.5q39 0 65 -24t26 -68q0 -24 -10 -45t-28.5 -39t-44.5 -33t-59 -27z" />
    <glyph glyph-name="Rcaron" unicode="&#x158;" horiz-adv-x="700" 
d="M91 0v700h310q65 0 118 -29.5t83.5 -79.5t30.5 -114q0 -63 -30.5 -114.5t-83.5 -81.5t-118 -30h-165v-251h-145zM488 0l-178 316l154 25l198 -342zM236 373h158q27 0 47.5 12.5t31.5 35t11 50.5q0 30 -13 52t-38 34.5t-58 12.5h-139v-197zM282 755l-130 107l46 48
l145 -68h-30l145 68l46 -48l-130 -107h-92z" />
    <glyph glyph-name="rcaron" unicode="&#x159;" horiz-adv-x="438" 
d="M71 0v529h137l5 -170l-24 35q12 41 39 74.5t63.5 52.5t76.5 19q17 0 33 -3t27 -7l-38 -156q-11 6 -28.5 10.5t-35.5 4.5q-24 0 -44.5 -8.5t-35.5 -24t-23.5 -36.5t-8.5 -46v-274h-143zM210 607l-129 124l51 44l139 -82h-30l139 82l51 -44l-129 -124h-92z" />
    <glyph glyph-name="Sacute" unicode="&#x15a;" horiz-adv-x="631" 
d="M318 -10q-65 0 -118.5 16t-95 47t-74.5 75l94 107q49 -68 97.5 -92.5t105.5 -24.5q31 0 55.5 9t38.5 24.5t14 37.5q0 16 -7 29.5t-20 24t-31 19t-40 15t-48 10.5q-56 13 -98 31.5t-70 46t-41.5 62.5t-13.5 79q0 45 20 83.5t55.5 66.5t82 43t98.5 15q64 0 112 -14
t83.5 -41.5t59.5 -66.5l-95 -92q-21 28 -45.5 47t-53 28.5t-58.5 9.5q-33 0 -57 -8.5t-37.5 -25t-13.5 -38.5q0 -18 9 -32t26 -24.5t41 -18.5t53 -14q55 -11 99 -29t75.5 -43.5t48.5 -60t17 -77.5q0 -71 -34 -121t-94 -76.5t-140 -26.5zM250 750l-34 71l200 115l52 -109z
" />
    <glyph glyph-name="sacute" unicode="&#x15b;" horiz-adv-x="490" 
d="M249 -10q-74 0 -131.5 24.5t-92.5 67.5l89 76q30 -33 68 -47.5t76 -14.5q15 0 27.5 3.5t21.5 10t13.5 16t4.5 20.5q0 22 -18 34q-10 6 -31 13.5t-54 16.5q-51 13 -86.5 30.5t-56.5 39.5q-18 21 -27.5 45.5t-9.5 54.5q0 36 16 65.5t44.5 50.5t65.5 32.5t78 11.5t80 -10
t72.5 -28.5t58.5 -43.5l-76 -84q-18 17 -40.5 31t-46.5 22t-43 8q-17 0 -30.5 -3t-22.5 -9.5t-13.5 -15.5t-4.5 -20t5.5 -21t15.5 -17q11 -6 32.5 -14t58.5 -18q48 -13 81.5 -29t53.5 -37q17 -18 25 -41t8 -51q0 -49 -27.5 -87t-75.5 -60t-108 -22zM169 594l-43 66l167 137
l71 -98z" />
    <glyph glyph-name="Scircumflex" unicode="&#x15c;" horiz-adv-x="631" 
d="M318 -10q-65 0 -118.5 16t-95 47t-74.5 75l94 107q49 -68 97.5 -92.5t105.5 -24.5q31 0 55.5 9t38.5 24.5t14 37.5q0 16 -7 29.5t-20 24t-31 19t-40 15t-48 10.5q-56 13 -98 31.5t-70 46t-41.5 62.5t-13.5 79q0 45 20 83.5t55.5 66.5t82 43t98.5 15q64 0 112 -14
t83.5 -41.5t59.5 -66.5l-95 -92q-21 28 -45.5 47t-53 28.5t-58.5 9.5q-33 0 -57 -8.5t-37.5 -25t-13.5 -38.5q0 -18 9 -32t26 -24.5t41 -18.5t53 -14q55 -11 99 -29t75.5 -43.5t48.5 -60t17 -77.5q0 -71 -34 -121t-94 -76.5t-140 -26.5zM202 754l-45 50l132 105h84l133 -105
l-46 -50l-143 70h29z" />
    <glyph glyph-name="scircumflex" unicode="&#x15d;" horiz-adv-x="490" 
d="M249 -10q-74 0 -131.5 24.5t-92.5 67.5l89 76q30 -33 68 -47.5t76 -14.5q15 0 27.5 3.5t21.5 10t13.5 16t4.5 20.5q0 22 -18 34q-10 6 -31 13.5t-54 16.5q-51 13 -86.5 30.5t-56.5 39.5q-18 21 -27.5 45.5t-9.5 54.5q0 36 16 65.5t44.5 50.5t65.5 32.5t78 11.5t80 -10
t72.5 -28.5t58.5 -43.5l-76 -84q-18 17 -40.5 31t-46.5 22t-43 8q-17 0 -30.5 -3t-22.5 -9.5t-13.5 -15.5t-4.5 -20t5.5 -21t15.5 -17q11 -6 32.5 -14t58.5 -18q48 -13 81.5 -29t53.5 -37q17 -18 25 -41t8 -51q0 -49 -27.5 -87t-75.5 -60t-108 -22zM115 603l-51 44l135 124
h92l135 -124l-51 -44l-145 82h30z" />
    <glyph glyph-name="Scedilla" unicode="&#x15e;" horiz-adv-x="631" 
d="M318 -10q-65 0 -118.5 16t-95 47t-74.5 75l94 107q49 -68 97.5 -92.5t105.5 -24.5q31 0 55.5 9t38.5 24.5t14 37.5q0 16 -7 29.5t-20 24t-31 19t-40 15t-48 10.5q-56 13 -98 31.5t-70 46t-41.5 62.5t-13.5 79q0 45 20 83.5t55.5 66.5t82 43t98.5 15q64 0 112 -14
t83.5 -41.5t59.5 -66.5l-95 -92q-21 28 -45.5 47t-53 28.5t-58.5 9.5q-33 0 -57 -8.5t-37.5 -25t-13.5 -38.5q0 -18 9 -32t26 -24.5t41 -18.5t53 -14q55 -11 99 -29t75.5 -43.5t48.5 -60t17 -77.5q0 -71 -34 -121t-94 -76.5t-140 -26.5zM238 -245l-8 68q21 0 45 6t40.5 16
t16.5 22q0 13 -13.5 20t-31 11t-33.5 4l-16 12l70 110h75l-44 -68q51 -7 76 -33t25 -62q0 -29 -18.5 -49.5t-48.5 -33.5t-65.5 -18.5t-69.5 -4.5z" />
    <glyph glyph-name="scedilla" unicode="&#x15f;" horiz-adv-x="490" 
d="M249 -10q-74 0 -131.5 24.5t-92.5 67.5l89 76q30 -33 68 -47.5t76 -14.5q15 0 27.5 3.5t21.5 10t13.5 16t4.5 20.5q0 22 -18 34q-10 6 -31 13.5t-54 16.5q-51 13 -86.5 30.5t-56.5 39.5q-18 21 -27.5 45.5t-9.5 54.5q0 36 16 65.5t44.5 50.5t65.5 32.5t78 11.5t80 -10
t72.5 -28.5t58.5 -43.5l-76 -84q-18 17 -40.5 31t-46.5 22t-43 8q-17 0 -30.5 -3t-22.5 -9.5t-13.5 -15.5t-4.5 -20t5.5 -21t15.5 -17q11 -6 32.5 -14t58.5 -18q48 -13 81.5 -29t53.5 -37q17 -18 25 -41t8 -51q0 -49 -27.5 -87t-75.5 -60t-108 -22zM154 -245l-9 68
q22 0 45.5 6t40 16t16.5 22q0 13 -13 20t-31 11t-33 4l-16 12l70 110h75l-45 -68q51 -7 76.5 -33t25.5 -62q0 -29 -19 -49.5t-49 -33.5t-65.5 -18.5t-68.5 -4.5z" />
    <glyph glyph-name="Scaron" unicode="&#x160;" horiz-adv-x="631" 
d="M318 -10q-65 0 -118.5 16t-95 47t-74.5 75l94 107q49 -68 97.5 -92.5t105.5 -24.5q31 0 55.5 9t38.5 24.5t14 37.5q0 16 -7 29.5t-20 24t-31 19t-40 15t-48 10.5q-56 13 -98 31.5t-70 46t-41.5 62.5t-13.5 79q0 45 20 83.5t55.5 66.5t82 43t98.5 15q64 0 112 -14
t83.5 -41.5t59.5 -66.5l-95 -92q-21 28 -45.5 47t-53 28.5t-58.5 9.5q-33 0 -57 -8.5t-37.5 -25t-13.5 -38.5q0 -18 9 -32t26 -24.5t41 -18.5t53 -14q55 -11 99 -29t75.5 -43.5t48.5 -60t17 -77.5q0 -71 -34 -121t-94 -76.5t-140 -26.5zM286 755l-130 107l46 48l145 -68h-30
l145 68l46 -48l-130 -107h-92z" />
    <glyph glyph-name="scaron" unicode="&#x161;" horiz-adv-x="490" 
d="M249 -10q-74 0 -131.5 24.5t-92.5 67.5l89 76q30 -33 68 -47.5t76 -14.5q15 0 27.5 3.5t21.5 10t13.5 16t4.5 20.5q0 22 -18 34q-10 6 -31 13.5t-54 16.5q-51 13 -86.5 30.5t-56.5 39.5q-18 21 -27.5 45.5t-9.5 54.5q0 36 16 65.5t44.5 50.5t65.5 32.5t78 11.5t80 -10
t72.5 -28.5t58.5 -43.5l-76 -84q-18 17 -40.5 31t-46.5 22t-43 8q-17 0 -30.5 -3t-22.5 -9.5t-13.5 -15.5t-4.5 -20t5.5 -21t15.5 -17q11 -6 32.5 -14t58.5 -18q48 -13 81.5 -29t53.5 -37q17 -18 25 -41t8 -51q0 -49 -27.5 -87t-75.5 -60t-108 -22zM199 607l-129 124l51 44
l139 -82h-30l139 82l51 -44l-129 -124h-92z" />
    <glyph glyph-name="uni0162" unicode="&#x162;" horiz-adv-x="630" 
d="M237 0v565h-204v135h564v-135h-210v-565h-150zM217 -245l-8 68q21 0 45 6t40.5 16t16.5 22q0 13 -13.5 20t-31 11t-33.5 4l-16 12l70 110h75l-44 -68q51 -7 76 -33t25 -62q0 -29 -18.5 -49.5t-48.5 -33.5t-65.5 -18.5t-69.5 -4.5z" />
    <glyph glyph-name="uni0163" unicode="&#x163;" horiz-adv-x="394" 
d="M122 0v663h142v-663h-142zM23 402v127h350v-127h-350zM100 -245l-9 68q22 0 45.5 6t40 16t16.5 22q0 13 -13 20t-31 11t-33 4l-16 12l70 110h75l-45 -68q51 -7 76.5 -33t25.5 -62q0 -29 -19 -49.5t-49 -33.5t-65.5 -18.5t-68.5 -4.5z" />
    <glyph glyph-name="Tcaron" unicode="&#x164;" horiz-adv-x="630" 
d="M237 0v565h-204v135h564v-135h-210v-565h-150zM269 755l-130 107l46 48l145 -68h-30l145 68l46 -48l-130 -107h-92z" />
    <glyph glyph-name="tcaron" unicode="&#x165;" horiz-adv-x="394" 
d="M122 0v663h142v-663h-142zM23 402v127h350v-127h-350zM337 580l-34 50q14 5 29 13.5t26 20t11 22.5q0 8 -5 12.5t-17 8.5q-20 7 -28 18.5t-8 30.5q0 29 21 44.5t54 15.5q39 0 66 -23.5t27 -67.5q0 -26 -10 -48.5t-28.5 -40.5t-44.5 -32t-59 -24z" />
    <glyph glyph-name="Tbar" unicode="&#x166;" horiz-adv-x="630" 
d="M164 297v109h307v-109h-307zM237 0v565h-204v135h564v-135h-210v-565h-150z" />
    <glyph glyph-name="tbar" unicode="&#x167;" horiz-adv-x="394" 
d="M42 202v110h307v-110h-307zM122 0v663h142v-663h-142zM23 402v127h350v-127h-350z" />
    <glyph glyph-name="Utilde" unicode="&#x168;" horiz-adv-x="757" 
d="M379 -6q-85 0 -151.5 35.5t-104.5 98t-38 141.5v432h151v-423q0 -42 19 -75.5t51.5 -53.5t72.5 -20q41 0 74.5 20t53 53.5t19.5 75.5v423h146v-432q0 -79 -37.5 -141.5t-104.5 -98t-151 -35.5zM455 768q-21 0 -42 6.5t-44 16.5q-18 7 -30.5 11.5t-22.5 4.5
q-13 0 -21.5 -10t-8.5 -29h-93q0 63 36 98t88 35q18 0 36.5 -5.5t42.5 -17.5q16 -7 27.5 -11t20.5 -4q14 0 21.5 10.5t6.5 27.5h92q0 -36 -13.5 -66.5t-38 -48.5t-57.5 -18z" />
    <glyph glyph-name="utilde" unicode="&#x169;" horiz-adv-x="630" 
d="M253 -10q-58 0 -99.5 25.5t-64 73t-22.5 114.5v326h142v-303q0 -36 12 -62.5t34 -40.5t54 -14q23 0 42.5 7.5t34 21.5t22.5 33t8 41v317h142v-529h-135l-5 109l26 12q-12 -37 -40 -67t-67 -47t-84 -17zM378 614q-18 0 -34 7t-37 21q-18 15 -28 21t-18 6
q-14 0 -24.5 -12.5t-13.5 -38.5l-83 11q2 54 32.5 93t81.5 39q18 0 34 -6.5t36 -21.5q15 -12 26 -19.5t21 -7.5q14 0 24 13.5t13 37.5l82 -12q0 -34 -14.5 -64.5t-39 -48.5t-58.5 -18z" />
    <glyph glyph-name="Umacron" unicode="&#x16a;" horiz-adv-x="757" 
d="M379 -6q-85 0 -151.5 35.5t-104.5 98t-38 141.5v432h151v-423q0 -42 19 -75.5t51.5 -53.5t72.5 -20q41 0 74.5 20t53 53.5t19.5 75.5v423h146v-432q0 -79 -37.5 -141.5t-104.5 -98t-151 -35.5zM204 788v93h349v-93h-349z" />
    <glyph glyph-name="umacron" unicode="&#x16b;" horiz-adv-x="630" 
d="M253 -10q-58 0 -99.5 25.5t-64 73t-22.5 114.5v326h142v-303q0 -36 12 -62.5t34 -40.5t54 -14q23 0 42.5 7.5t34 21.5t22.5 33t8 41v317h142v-529h-135l-5 109l26 12q-12 -37 -40 -67t-67 -47t-84 -17zM155 641v92h320v-92h-320z" />
    <glyph glyph-name="Ubreve" unicode="&#x16c;" horiz-adv-x="757" 
d="M379 -6q-85 0 -151.5 35.5t-104.5 98t-38 141.5v432h151v-423q0 -42 19 -75.5t51.5 -53.5t72.5 -20q41 0 74.5 20t53 53.5t19.5 75.5v423h146v-432q0 -79 -37.5 -141.5t-104.5 -98t-151 -35.5zM379 755q-44 0 -80 19t-60 52t-34 75l94 12q10 -25 31.5 -43t48.5 -18
t48.5 18t31.5 43l94 -12q-9 -42 -33.5 -75t-60 -52t-80.5 -19z" />
    <glyph glyph-name="ubreve" unicode="&#x16d;" horiz-adv-x="630" 
d="M253 -10q-58 0 -99.5 25.5t-64 73t-22.5 114.5v326h142v-303q0 -36 12 -62.5t34 -40.5t54 -14q23 0 42.5 7.5t34 21.5t22.5 33t8 41v317h142v-529h-135l-5 109l26 12q-12 -37 -40 -67t-67 -47t-84 -17zM315 597q-68 0 -113.5 42.5t-60.5 115.5l94 12q11 -34 32.5 -53.5
t47.5 -19.5t47.5 19.5t32.5 53.5l94 -12q-15 -73 -60.5 -115.5t-113.5 -42.5z" />
    <glyph glyph-name="Uring" unicode="&#x16e;" horiz-adv-x="757" 
d="M379 -6q-85 0 -151.5 35.5t-104.5 98t-38 141.5v432h151v-423q0 -42 19 -75.5t51.5 -53.5t72.5 -20q41 0 74.5 20t53 53.5t19.5 75.5v423h146v-432q0 -79 -37.5 -141.5t-104.5 -98t-151 -35.5zM378 675q-32 0 -60.5 16.5t-46.5 43t-18 57.5q0 34 17.5 61.5t46 43.5
t61.5 16q34 0 62.5 -16t46 -43.5t17.5 -61.5q0 -31 -17.5 -57.5t-46 -43t-62.5 -16.5zM378 750q19 0 32 12t13 30q0 20 -13.5 31.5t-31.5 11.5q-17 0 -30 -12t-13 -31q0 -18 13 -30t30 -12z" />
    <glyph glyph-name="uring" unicode="&#x16f;" horiz-adv-x="630" 
d="M253 -10q-58 0 -99.5 25.5t-64 73t-22.5 114.5v326h142v-303q0 -36 12 -62.5t34 -40.5t54 -14q23 0 42.5 7.5t34 21.5t22.5 33t8 41v317h142v-529h-135l-5 109l26 12q-12 -37 -40 -67t-67 -47t-84 -17zM315 604q-30 0 -57 15.5t-43.5 41t-16.5 56.5t16 56.5t43 41
t58 15.5q32 0 58.5 -15.5t42.5 -41t16 -56.5t-16 -56.5t-42.5 -41t-58.5 -15.5zM315 678q17 0 29 11t12 28t-12 28.5t-29 11.5t-29 -11.5t-12 -28.5t12 -28t29 -11z" />
    <glyph glyph-name="Uhungarumlaut" unicode="&#x170;" horiz-adv-x="757" 
d="M379 -6q-85 0 -151.5 35.5t-104.5 98t-38 141.5v432h151v-423q0 -42 19 -75.5t51.5 -53.5t72.5 -20q41 0 74.5 20t53 53.5t19.5 75.5v423h146v-432q0 -79 -37.5 -141.5t-104.5 -98t-151 -35.5zM261 752l-47 63l145 141l75 -91zM476 751l-46 64l149 139l75 -93z" />
    <glyph glyph-name="uhungarumlaut" unicode="&#x171;" horiz-adv-x="630" 
d="M253 -10q-58 0 -99.5 25.5t-64 73t-22.5 114.5v326h142v-303q0 -36 12 -62.5t34 -40.5t54 -14q23 0 42.5 7.5t34 21.5t22.5 33t8 41v317h142v-529h-135l-5 109l26 12q-12 -37 -40 -67t-67 -47t-84 -17zM357 595l-55 51l150 155l82 -87zM153 593l-56 49l142 160l85 -84z
" />
    <glyph glyph-name="Uogonek" unicode="&#x172;" horiz-adv-x="757" 
d="M450 -208q-48 0 -81 29.5t-33 79.5q0 32 14 59t39.5 50t59 43t71.5 39l36 -46q-25 -15 -46 -30t-36.5 -30t-24 -30.5t-8.5 -32.5q0 -16 8 -26t22 -10q10 0 18 6t16 18l65 -47q-13 -29 -46 -50.5t-74 -21.5zM379 -6q-85 0 -151.5 35.5t-104.5 98t-38 141.5v432h151v-423
q0 -42 19 -75.5t51.5 -53.5t72.5 -20q41 0 74.5 20t53 53.5t19.5 75.5v423h146v-432q0 -79 -37.5 -141.5t-104.5 -98t-151 -35.5z" />
    <glyph glyph-name="uogonek" unicode="&#x173;" horiz-adv-x="630" 
d="M253 -10q-58 0 -99.5 25.5t-64 73t-22.5 114.5v326h142v-303q0 -36 12 -62.5t34 -40.5t54 -14q23 0 42.5 7.5t34 21.5t22.5 33t8 41v317h142v-529h-135l-5 109l26 12q-12 -37 -40 -67t-67 -47t-84 -17zM451 -207q-32 0 -59 14.5t-42.5 39t-15.5 54.5q0 25 11 46.5
t32.5 39.5t53.5 32t74 26l37 -45q-28 -6 -51.5 -19t-37.5 -29t-14 -34q0 -14 8 -22t22 -8q10 0 17.5 6t15.5 18l66 -48q-9 -17 -26 -34t-39.5 -27t-51.5 -10z" />
    <glyph glyph-name="Wcircumflex" unicode="&#x174;" horiz-adv-x="994" 
d="M224 0l-213 700h154l114 -391q7 -21 12.5 -45.5t9 -47t6 -42t4.5 -32.5l-24 1q9 42 15 70.5t11.5 51t13.5 45.5l110 289h124l108 -289q12 -30 19.5 -57.5t12.5 -53t9 -51.5l-21 -4q3 21 4.5 36.5t3 28.5t3.5 26.5t6 32t12 43.5l113 389h152l-215 -700h-112l-172 414
l16 -2l-161 -412h-115zM367 754l-45 50l132 105h84l133 -105l-46 -50l-143 70h29z" />
    <glyph glyph-name="wcircumflex" unicode="&#x175;" horiz-adv-x="823" 
d="M192 0l-177 529l148 1l108 -361l-22 3l119 281h84l124 -282l-24 -2l108 360h148l-180 -529h-103l-125 301l16 -2l-122 -299h-102zM282 603l-51 44l135 124h92l135 -124l-51 -44l-145 82h30z" />
    <glyph glyph-name="Ycircumflex" unicode="&#x176;" horiz-adv-x="679" 
d="M274 0v349l7 -49l-283 400h173l216 -310l-68 3l195 307h167l-271 -411l15 68v-357h-151zM210 754l-45 50l132 105h84l133 -105l-46 -50l-143 70h29z" />
    <glyph glyph-name="ycircumflex" unicode="&#x177;" horiz-adv-x="607" 
d="M145 -230l116 272l2 -82l-258 569h161l129 -305q8 -17 15.5 -39.5t12.5 -42.5l-24 -11q7 17 14.5 39t15.5 47l111 312h162l-222 -529l-91 -230h-144zM174 603l-51 44l135 124h92l135 -124l-51 -44l-145 82h30z" />
    <glyph glyph-name="Ydieresis" unicode="&#x178;" horiz-adv-x="679" 
d="M274 0v349l7 -49l-283 400h173l216 -310l-68 3l195 307h167l-271 -411l15 68v-357h-151zM455 755q-40 0 -60.5 21.5t-20.5 57.5q0 33 21 56t60 23q40 0 60.5 -21t20.5 -58q0 -32 -21 -55.5t-60 -23.5zM224 755q-41 0 -61.5 21.5t-20.5 57.5q0 33 21 56t61 23t60.5 -21
t20.5 -58q0 -32 -21 -55.5t-60 -23.5z" />
    <glyph glyph-name="Zacute" unicode="&#x179;" horiz-adv-x="675" 
d="M60 0v102l383 511l45 -52h-402v139h521v-101l-381 -512l-46 47h438v-134h-558zM257 750l-34 71l200 115l52 -109z" />
    <glyph glyph-name="zacute" unicode="&#x17a;" horiz-adv-x="529" 
d="M50 0v90l279 362v-40h-279v117h422v-92l-267 -353l-4 33h278v-117h-429zM189 594l-43 66l167 137l71 -98z" />
    <glyph glyph-name="Zdotaccent" unicode="&#x17b;" horiz-adv-x="675" 
d="M60 0v102l383 511l45 -52h-402v139h521v-101l-381 -512l-46 47h438v-134h-558zM338 757q-42 0 -64.5 21t-22.5 56q0 32 22.5 54.5t64.5 22.5t64.5 -20.5t22.5 -56.5q0 -31 -22.5 -54t-64.5 -23z" />
    <glyph glyph-name="zdotaccent" unicode="&#x17c;" horiz-adv-x="529" 
d="M50 0v90l279 362v-40h-279v117h422v-92l-267 -353l-4 33h278v-117h-429zM265 638q-41 0 -64 20t-23 57q0 34 23.5 55.5t63.5 21.5q41 0 64 -20t23 -57q0 -34 -23.5 -55.5t-63.5 -21.5z" />
    <glyph glyph-name="Zcaron" unicode="&#x17d;" horiz-adv-x="675" 
d="M60 0v102l383 511l45 -52h-402v139h521v-101l-381 -512l-46 47h438v-134h-558zM292 755l-130 107l46 48l145 -68h-30l145 68l46 -48l-130 -107h-92z" />
    <glyph glyph-name="zcaron" unicode="&#x17e;" horiz-adv-x="529" 
d="M50 0v90l279 362v-40h-279v117h422v-92l-267 -353l-4 33h278v-117h-429zM219 607l-129 124l51 44l139 -82h-30l139 82l51 -44l-129 -124h-92z" />
    <glyph glyph-name="uni018F" unicode="&#x18f;" horiz-adv-x="774" 
d="M387 -10q-68 0 -128.5 24t-107 68t-75 103t-31.5 128v93h638l9 -124h-493q9 -34 26.5 -62.5t42.5 -49t56 -32t63 -11.5q42 0 77 15.5t61.5 44.5t40.5 70.5t14 93.5q0 51 -14.5 92t-41.5 70t-64.5 44.5t-83.5 15.5q-40 0 -73 -7.5t-62.5 -23t-58.5 -39.5l-72 109
q41 34 81.5 56t87 32t105.5 10q71 0 133.5 -28t110 -77.5t74.5 -114.5t27 -140t-26.5 -140t-74 -114.5t-109 -77.5t-132.5 -28z" />
    <glyph glyph-name="florin" unicode="&#x192;" horiz-adv-x="545" 
d="M106 -31q-30 0 -58 8t-49 24l45 108q15 -8 28 -11.5t30 -3.5q15 0 26.5 8.5t19.5 25t13 41.5l62 358q14 87 63.5 128.5t132.5 41.5q36 0 67 -9t60 -28l-46 -105q-20 10 -34.5 14t-29.5 4q-33 0 -50.5 -18.5t-24.5 -53.5l-62 -357q-16 -90 -64.5 -132.5t-128.5 -42.5z
M81 327v114l381 -1v-114z" />
    <glyph glyph-name="uni019D" unicode="&#x19d;" horiz-adv-x="791" 
d="M14 -201l-58 110q62 0 92.5 30t30.5 89v672h135l386 -523h-27q-6 38 -9.5 75t-6 76.5t-3.5 83.5t-1 97v191h147v-700h-137l-395 528l38 -1q4 -38 7.5 -71t6 -63t4 -57t2 -52t0.5 -50v-240q0 -65 -25 -108.5t-72.5 -65t-114.5 -21.5z" />
    <glyph glyph-name="Ohorn" unicode="&#x1a0;" horiz-adv-x="802" 
d="M401 -10q-77 0 -142 27t-113.5 75.5t-74.5 115t-26 144.5q0 79 26 145t74.5 114.5t113.5 75.5t142 27q23 0 44 -2.5t41 -7.5q15 -3 29.5 -6t29.5 -3q28 0 47.5 14.5t29 42.5t9.5 70h115q0 -40 -7.5 -75t-23.5 -62.5t-44.5 -44.5t-70.5 -20l19 23q43 -31 74 -76t47.5 -99
t16.5 -116q0 -78 -26 -144t-74.5 -115t-113 -76t-142.5 -27zM401 132q45 0 82 16.5t64 46t42.5 69.5t15.5 88t-15.5 88t-42.5 69.5t-64 46t-82 16.5q-44 0 -81 -16.5t-65 -46t-42.5 -69.5t-14.5 -88t14.5 -88t42.5 -69.5t65 -46t81 -16.5z" />
    <glyph glyph-name="ohorn" unicode="&#x1a1;" horiz-adv-x="633" 
d="M317 -10q-81 0 -144.5 35.5t-100 97.5t-36.5 142t36.5 142t100 97.5t144.5 35.5q18 0 35 -2.5t31 -5.5q10 -2 18.5 -3.5t15.5 -1.5q41 0 61.5 29.5t20.5 86.5h109q0 -46 -12.5 -85t-40.5 -65.5t-73 -35.5l11 25q48 -36 75.5 -92t27.5 -125q0 -80 -36 -142t-99.5 -97.5
t-143.5 -35.5zM317 114q39 0 70 19.5t48.5 54t16.5 77.5q1 44 -16.5 78.5t-48.5 54t-70 19.5q-40 0 -71 -20t-49 -54t-17 -78q-1 -43 17 -77.5t49 -54t71 -19.5z" />
    <glyph glyph-name="Uhorn" unicode="&#x1af;" horiz-adv-x="757" 
d="M379 -6q-85 0 -151.5 35.5t-104.5 98t-38 141.5v432h151v-423q0 -42 19 -75.5t51.5 -53.5t72.5 -20q41 0 74.5 20t53 53.5t19.5 75.5v423h54q47 0 67.5 31.5t20.5 89.5h115q0 -53 -16.5 -97t-50.5 -71.5t-85 -34.5l41 49v-399q0 -79 -37.5 -141.5t-104.5 -98t-151 -35.5z
" />
    <glyph glyph-name="uhorn" unicode="&#x1b0;" horiz-adv-x="630" 
d="M253 -10q-58 0 -99.5 25.5t-64 73t-22.5 114.5v326h142v-303q0 -36 12 -62.5t34 -40.5t54 -14q23 0 42.5 7.5t34 21.5t22.5 33t8 41v317q35 0 59 6.5t38.5 20.5t21 35.5t6.5 51.5h109q0 -44 -13 -82.5t-41 -64.5t-73 -34l35 49v-511h-135l-5 119l16 -21q-14 -31 -42 -56
t-63.5 -38.5t-75.5 -13.5z" />
    <glyph glyph-name="uni01C4" unicode="&#x1c4;" horiz-adv-x="1395" 
d="M91 0v700h287q77 0 139.5 -25.5t108 -72t69.5 -110.5t24 -142q0 -77 -24 -141.5t-69 -111t-108 -72t-140 -25.5h-287zM241 109l-16 26h148q45 0 81 15.5t61.5 43t38.5 67.5t13 89t-13 88.5t-38.5 67.5t-61.5 43.5t-81 15.5h-151l19 24v-480zM779 0v102l383 511l45 -52
h-402v139h521v-101l-381 -512l-46 47h438v-134h-558zM1012 755l-130 107l46 48l145 -68h-30l145 68l46 -48l-130 -107h-92z" />
    <glyph glyph-name="uni01C5" unicode="&#x1c5;" horiz-adv-x="1292" 
d="M91 0v700h287q77 0 139.5 -25.5t108 -72t69.5 -110.5t24 -142q0 -77 -24 -141.5t-69 -111t-108 -72t-140 -25.5h-287zM241 109l-16 26h148q45 0 81 15.5t61.5 43t38.5 67.5t13 89t-13 88.5t-38.5 67.5t-61.5 43.5t-81 15.5h-151l19 24v-480zM813 0v90l279 362v-40h-279
v117h422v-92l-267 -353l-4 33h278v-117h-429zM982 607l-129 124l51 44l139 -82h-30l139 82l51 -44l-129 -124h-92z" />
    <glyph glyph-name="uni01C6" unicode="&#x1c6;" horiz-adv-x="1176" 
d="M278 -10q-70 0 -124.5 35.5t-86 97t-31.5 142.5q0 79 31.5 141.5t86 98t124.5 35.5q37 0 71.5 -11.5t62 -31.5t44.5 -44.5t19 -50.5l-36 -7v345h143v-740h-135l-6 122l28 -3q-2 -25 -18 -48t-42.5 -41.5t-60 -29t-70.5 -10.5zM310 108q40 0 70 20t47 55t17 82
q0 46 -17 81t-47 55t-70 20t-69.5 -20t-46 -55t-16.5 -81q0 -47 16.5 -82t46 -55t69.5 -20zM698 0v90l279 362v-40h-279v117h422v-92l-267 -353l-4 33h278v-117h-429zM866 607l-129 124l51 44l139 -82h-30l139 82l51 -44l-129 -124h-92z" />
    <glyph glyph-name="uni01C7" unicode="&#x1c7;" horiz-adv-x="1263" 
d="M91 0v700h150v-565h317v-135h-467zM866 -10q-38 0 -71 9t-60 25t-49 39.5t-37 52.5l87 91q17 -23 31.5 -38t28 -24.5t27.5 -13t30 -3.5q28 0 49.5 13t33 36t11.5 53v337h-128v133h383v-133h-108v-354q0 -50 -17 -91t-48 -70.5t-72.5 -45.5t-90.5 -16z" />
    <glyph glyph-name="uni01C8" unicode="&#x1c8;" horiz-adv-x="905" 
d="M91 0v700h150v-565h317v-135h-467zM624 -206l-53 110q43 0 69 12t37.5 39.5t11.5 72.5v501h142v-535q0 -65 -24.5 -109.5t-70.5 -67.5t-112 -23zM763 637q-41 0 -64 20.5t-23 57.5q0 34 23.5 55.5t63.5 21.5q41 0 64 -20.5t23 -56.5q0 -34 -23.5 -56t-63.5 -22z" />
    <glyph glyph-name="uni01C9" unicode="&#x1c9;" horiz-adv-x="572" 
d="M72 0v740h142v-740h-142zM291 -206l-53 110q43 0 69 12t37.5 39.5t11.5 72.5v501h142v-535q0 -65 -24.5 -109.5t-70.5 -67.5t-112 -23zM430 637q-41 0 -64 20.5t-23 57.5q0 34 23.5 55.5t63.5 21.5q41 0 64 -20.5t23 -56.5q0 -34 -23.5 -56t-63.5 -22z" />
    <glyph glyph-name="uni01CA" unicode="&#x1ca;" horiz-adv-x="1460" 
d="M91 0v700h134l387 -523h-28q-4 31 -7 60.5t-5.5 60t-4 63t-2.5 69t-1 79.5v191h147v-700h-136l-395 528l38 -1q5 -52 8.5 -88.5t6 -63.5t3.5 -47t1.5 -38t0.5 -38v-252h-147zM1062 -10q-38 0 -71 9t-60 25t-49 39.5t-37 52.5l87 91q17 -23 31.5 -38t28 -24.5t27.5 -13
t30 -3.5q28 0 49.5 13t33 36t11.5 53v337h-128v133h383v-133h-108v-354q0 -50 -17 -91t-48 -70.5t-72.5 -45.5t-90.5 -16z" />
    <glyph glyph-name="uni01CB" unicode="&#x1cb;" horiz-adv-x="1102" 
d="M91 0v700h134l387 -523h-28q-4 31 -7 60.5t-5.5 60t-4 63t-2.5 69t-1 79.5v191h147v-700h-136l-395 528l38 -1q5 -52 8.5 -88.5t6 -63.5t3.5 -47t1.5 -38t0.5 -38v-252h-147zM820 -206l-53 110q43 0 69 12t37.5 39.5t11.5 72.5v501h142v-535q0 -65 -24.5 -109.5
t-70.5 -67.5t-112 -23zM959 637q-41 0 -64 20.5t-23 57.5q0 34 23.5 55.5t63.5 21.5q41 0 64 -20.5t23 -56.5q0 -34 -23.5 -56t-63.5 -22z" />
    <glyph glyph-name="uni01CC" unicode="&#x1cc;" horiz-adv-x="921" 
d="M71 0v529h136l4 -108l-28 -12q11 36 39.5 65.5t68.5 47.5t84 18q60 0 100.5 -24t61 -72.5t20.5 -119.5v-324h-142v313q0 36 -10 60t-30.5 35t-50.5 10q-24 0 -44.5 -7.5t-35 -21.5t-23 -32t-8.5 -39v-318h-70h-41h-31zM640 -206l-53 110q43 0 69 12t37.5 39.5t11.5 72.5
v501h142v-535q0 -65 -24.5 -109.5t-70.5 -67.5t-112 -23zM779 637q-41 0 -64 20.5t-23 57.5q0 34 23.5 55.5t63.5 21.5q41 0 64 -20.5t23 -56.5q0 -34 -23.5 -56t-63.5 -22z" />
    <glyph glyph-name="uni01CD" unicode="&#x1cd;" horiz-adv-x="696" 
d="M7 0l275 700h134l273 -700h-154l-141 377q-6 16 -14.5 41t-17.5 53t-17 53.5t-12 42.5h27q-6 -22 -13.5 -46.5t-15.5 -50t-17 -49.5t-17 -47l-141 -374h-149zM135 147l49 120h321l50 -120h-420zM302 755l-130 107l46 48l145 -68h-30l145 68l46 -48l-130 -107h-92z" />
    <glyph glyph-name="uni01CE" unicode="&#x1ce;" horiz-adv-x="651" 
d="M269 -10q-66 0 -119 36t-84 98t-31 142t31.5 142t85.5 97t123 35q39 0 71.5 -11.5t57 -31.5t41.5 -46t24 -56l-30 5v129h141v-529h-143v127l32 3q-8 -28 -26 -53t-44.5 -44.5t-59.5 -31t-70 -11.5zM308 113q40 0 70 19t46.5 53.5t16.5 80.5q0 45 -16.5 79t-46.5 53.5
t-70 19.5q-39 0 -68.5 -19.5t-46.5 -53.5t-17 -79q0 -46 17 -80.5t46.5 -53.5t68.5 -19zM280 607l-129 124l51 44l139 -82h-30l139 82l51 -44l-129 -124h-92z" />
    <glyph glyph-name="uni01CF" unicode="&#x1cf;" horiz-adv-x="530" 
d="M73 0v129h117v442h-117v129h384v-129h-117v-442h117v-129h-384zM219 755l-130 107l46 48l145 -68h-30l145 68l46 -48l-130 -107h-92z" />
    <glyph glyph-name="uni01D0" unicode="&#x1d0;" horiz-adv-x="274" 
d="M66 0v529h142v-529h-142zM90 607l-129 124l51 44l139 -82h-30l139 82l51 -44l-129 -124h-92z" />
    <glyph glyph-name="uni01D1" unicode="&#x1d1;" horiz-adv-x="802" 
d="M402 -10q-78 0 -143 27t-113.5 75.5t-74.5 115t-26 144.5q0 79 26 145t74.5 114.5t113.5 75.5t142 27q78 0 142.5 -27t113 -76t74.5 -115t26 -144t-26 -144t-74.5 -115t-113 -76t-141.5 -27zM401 132q45 0 82 16.5t64 46t42.5 69.5t15.5 88t-15.5 88t-42.5 69.5t-64 46
t-82 16.5q-44 0 -81 -16.5t-65 -46t-42.5 -69.5t-14.5 -88t14.5 -88t42.5 -69.5t65 -46t81 -16.5zM355 755l-130 107l46 48l145 -68h-30l145 68l46 -48l-130 -107h-92z" />
    <glyph glyph-name="uni01D2" unicode="&#x1d2;" horiz-adv-x="633" 
d="M317 -10q-81 0 -144.5 35.5t-100 97.5t-36.5 142t36.5 142t100 97.5t144.5 35.5q80 0 143.5 -35.5t99.5 -97.5t36 -142t-36 -142t-99.5 -97.5t-143.5 -35.5zM317 114q39 0 70 19.5t48.5 54t16.5 77.5q1 44 -16.5 78.5t-48.5 54t-70 19.5q-40 0 -71 -20t-49 -54t-17 -78
q-1 -43 17 -77.5t49 -54t71 -19.5zM271 607l-129 124l51 44l139 -82h-30l139 82l51 -44l-129 -124h-92z" />
    <glyph glyph-name="uni01D3" unicode="&#x1d3;" horiz-adv-x="757" 
d="M379 -6q-85 0 -151.5 35.5t-104.5 98t-38 141.5v432h151v-423q0 -42 19 -75.5t51.5 -53.5t72.5 -20q41 0 74.5 20t53 53.5t19.5 75.5v423h146v-432q0 -79 -37.5 -141.5t-104.5 -98t-151 -35.5zM333 755l-130 107l46 48l145 -68h-30l145 68l46 -48l-130 -107h-92z" />
    <glyph glyph-name="uni01D4" unicode="&#x1d4;" horiz-adv-x="630" 
d="M253 -10q-58 0 -99.5 25.5t-64 73t-22.5 114.5v326h142v-303q0 -36 12 -62.5t34 -40.5t54 -14q23 0 42.5 7.5t34 21.5t22.5 33t8 41v317h142v-529h-135l-5 109l26 12q-12 -37 -40 -67t-67 -47t-84 -17zM269 607l-129 124l51 44l139 -82h-30l139 82l51 -44l-129 -124h-92z
" />
    <glyph glyph-name="Gcaron" unicode="&#x1e6;" horiz-adv-x="777" 
d="M412 -10q-81 0 -148.5 27.5t-116.5 76.5t-75.5 115t-26.5 143t27.5 142.5t78 114t118.5 75.5t149 27q56 0 107 -15t93 -41t70 -60l-93 -98q-26 25 -54 42.5t-59.5 27t-64.5 9.5q-47 0 -86.5 -17t-69.5 -47t-46.5 -71t-16.5 -89q0 -47 17.5 -88.5t48 -72t71.5 -48
t88 -17.5q34 0 63.5 10t52 28.5t35 43.5t12.5 53v24l20 -28h-200v125h324q1 -11 2.5 -27t2 -31.5t0.5 -24.5q0 -68 -24.5 -125t-68 -98t-102.5 -63.5t-128 -22.5zM363 755l-130 107l46 48l145 -68h-30l145 68l46 -48l-130 -107h-92z" />
    <glyph glyph-name="gcaron" unicode="&#x1e7;" horiz-adv-x="663" 
d="M312 -230q-63 0 -124 18.5t-100 48.5l51 101q20 -14 46 -25t54.5 -17t58.5 -6q52 0 85.5 16t50.5 48t17 80v92l24 -5q-6 -33 -33.5 -60.5t-68 -44t-84.5 -16.5q-73 0 -130 34t-90 94t-33 139t32.5 140.5t89 97t128.5 35.5q30 0 57.5 -7t51 -19.5t42 -28t30.5 -33.5
t15 -36l-29 -8l4 121h136v-489q0 -65 -19 -115t-55.5 -84.5t-89 -52.5t-117.5 -18zM316 114q42 0 73.5 19t48.5 53t17 80q0 45 -17 79.5t-48.5 53.5t-73.5 19q-41 0 -72 -19.5t-48.5 -54t-17.5 -78.5q0 -45 17.5 -79.5t48.5 -53.5t72 -19zM286 607l-129 124l51 44l139 -82
h-30l139 82l51 -44l-129 -124h-92z" />
    <glyph glyph-name="uni01EA" unicode="&#x1ea;" horiz-adv-x="802" 
d="M491 -208q-48 0 -81 29.5t-33 79.5q0 32 14.5 59t39.5 50t58.5 43t72.5 39l35 -46q-25 -15 -46 -30t-36.5 -30t-24 -30.5t-8.5 -32.5q0 -16 8 -26t22 -10q10 0 18 6t16 18l65 -47q-13 -29 -45.5 -50.5t-74.5 -21.5zM401 -10q-77 0 -142 27t-113.5 75.5t-74.5 115
t-26 144.5q0 79 26 145t74.5 114.5t113.5 75.5t142 27q78 0 142.5 -27t113 -76t74.5 -115t26 -144t-26 -144t-74.5 -115t-113 -76t-142.5 -27zM401 132q45 0 82 16.5t64 46t42.5 69.5t15.5 88t-15.5 88t-42.5 69.5t-64 46t-82 16.5q-44 0 -81 -16.5t-65 -46t-42.5 -69.5
t-14.5 -88t14.5 -88t42.5 -69.5t65 -46t81 -16.5z" />
    <glyph glyph-name="uni01EB" unicode="&#x1eb;" horiz-adv-x="633" 
d="M379 -204q-51 0 -80.5 31.5t-29.5 74.5q0 42 25 74t69 58.5t100 52.5l18 -47q-50 -31 -79 -56t-29 -57q0 -15 8 -25.5t21 -10.5q10 0 19 6.5t17 18.5l65 -48q-10 -17 -27.5 -34t-42 -27.5t-54.5 -10.5zM317 -10q-81 0 -144.5 35.5t-100 97.5t-36.5 142t36.5 142t100 97.5
t144.5 35.5q80 0 143.5 -35.5t99.5 -97.5t36 -142t-36 -142t-99.5 -97.5t-143.5 -35.5zM317 114q39 0 70 19.5t48.5 54t16.5 77.5q1 44 -16.5 78.5t-48.5 54t-70 19.5q-40 0 -71 -20t-49 -54t-17 -78q-1 -43 17 -77.5t49 -54t71 -19.5z" />
    <glyph glyph-name="uni01F1" unicode="&#x1f1;" horiz-adv-x="1395" 
d="M91 0v700h287q77 0 139.5 -25.5t108 -72t69.5 -110.5t24 -142q0 -77 -24 -141.5t-69 -111t-108 -72t-140 -25.5h-287zM241 109l-16 26h148q45 0 81 15.5t61.5 43t38.5 67.5t13 89t-13 88.5t-38.5 67.5t-61.5 43.5t-81 15.5h-151l19 24v-480zM779 0v102l383 511l45 -52
h-402v139h521v-101l-381 -512l-46 47h438v-134h-558z" />
    <glyph glyph-name="uni01F2" unicode="&#x1f2;" horiz-adv-x="1292" 
d="M91 0v700h287q77 0 139.5 -25.5t108 -72t69.5 -110.5t24 -142q0 -77 -24 -141.5t-69 -111t-108 -72t-140 -25.5h-287zM241 109l-16 26h148q45 0 81 15.5t61.5 43t38.5 67.5t13 89t-13 88.5t-38.5 67.5t-61.5 43.5t-81 15.5h-151l19 24v-480zM813 0v90l279 362v-40h-279
v117h422v-92l-267 -353l-4 33h278v-117h-429z" />
    <glyph glyph-name="Aringacute" unicode="&#x1fa;" horiz-adv-x="696" 
d="M7 0l275 700h134l273 -700h-154l-141 377q-6 16 -14.5 41t-17.5 53t-17 53.5t-12 42.5h27q-6 -22 -13.5 -46.5t-15.5 -50t-17 -49.5t-17 -47l-141 -374h-149zM135 147l49 120h321l50 -120h-420zM347 675q-32 0 -60.5 16.5t-46.5 43t-18 57.5q0 34 17.5 61.5t46 43.5
t61.5 16q34 0 62.5 -16t46 -43.5t17.5 -61.5q0 -31 -17.5 -57.5t-46 -43t-62.5 -16.5zM347 750q19 0 32 12t13 30q0 20 -13.5 31.5t-31.5 11.5q-17 0 -30 -12t-13 -31q0 -18 13 -30t30 -12zM266 933l-34 71l200 115l52 -109z" />
    <glyph glyph-name="aringacute" unicode="&#x1fb;" horiz-adv-x="651" 
d="M269 -10q-66 0 -119 36t-84 98t-31 142t31.5 142t85.5 97t123 35q39 0 71.5 -11.5t57 -31.5t41.5 -46t24 -56l-30 5v129h141v-529h-143v127l32 3q-8 -28 -26 -53t-44.5 -44.5t-59.5 -31t-70 -11.5zM308 113q40 0 70 19t46.5 53.5t16.5 80.5q0 45 -16.5 79t-46.5 53.5
t-70 19.5q-39 0 -68.5 -19.5t-46.5 -53.5t-17 -79q0 -46 17 -80.5t46.5 -53.5t68.5 -19zM325 604q-30 0 -57 15.5t-43.5 41t-16.5 56.5t16 56.5t43 41t58 15.5q32 0 58.5 -15.5t42.5 -41t16 -56.5t-16 -56.5t-42.5 -41t-58.5 -15.5zM325 678q17 0 29 11t12 28t-12 28.5
t-29 11.5t-29 -11.5t-12 -28.5t12 -28t29 -11zM250 856l-43 66l167 137l71 -98z" />
    <glyph glyph-name="AEacute" unicode="&#x1fc;" horiz-adv-x="1041" 
d="M-5 0l488 700h494v-125h-328v-160h283v-121h-283v-169h328v-125h-470v146h-267l82 120h185v292l25 -8l-376 -550h-161zM614 750l-34 71l200 115l52 -109z" />
    <glyph glyph-name="aeacute" unicode="&#x1fd;" horiz-adv-x="900" 
d="M215 -10q-52 0 -92.5 20t-64 55.5t-23.5 83.5q0 41 15 72t45 52t74.5 31.5t103.5 10.5h470l-12 -13v21q-1 28 -16 49.5t-39 33.5t-53 12q-44 0 -73.5 -16.5t-45 -49.5t-15.5 -80t21.5 -82t60.5 -55t90 -20q37 0 66.5 10.5t63.5 38.5l63 -97q-29 -25 -63.5 -42t-71 -26
t-73.5 -9q-86 0 -149 34.5t-98 96t-35 140.5q0 61 19.5 112t54 88.5t81.5 58t102 20.5q72 -1 127.5 -35t87 -93.5t30.5 -135.5l-1 -47h-593q-24 0 -42.5 -4.5t-31.5 -14t-19 -22.5t-6 -30q0 -18 8.5 -31.5t24.5 -21.5t36 -8q30 0 56.5 10t47.5 28t33 41l49 -77
q-21 -33 -55 -57.5t-74.5 -38t-83.5 -13.5zM362 251v89q0 19 -7 33.5t-20 24.5t-31 15t-39 5q-41 0 -71.5 -15.5t-56.5 -50.5l-85 85q26 32 61.5 55t78 35.5t89.5 12.5q48 0 85.5 -10.5t65 -31t41.5 -51.5t14 -73v-119zM379 594l-43 66l167 137l71 -98z" />
    <glyph glyph-name="Oslashacute" unicode="&#x1fe;" horiz-adv-x="795" 
d="M134 -33l-63 53l589 721l68 -47zM401 -10q-78 0 -143 27t-113 75.5t-74.5 115t-26.5 144.5q0 79 26.5 145t74.5 114.5t113 75.5t143 27q77 0 142 -27t113 -76t74.5 -115t26.5 -144t-26.5 -144t-74.5 -115t-113 -76t-142 -27zM401 132q44 0 81 16.5t64.5 46t42.5 69.5
t15 88t-15 88t-42.5 69.5t-64.5 46t-81 16.5q-45 0 -82 -16.5t-64.5 -46t-42.5 -69.5t-15 -88t15 -88t42.5 -69.5t64.5 -46t82 -16.5zM316 750l-34 71l200 115l52 -109z" />
    <glyph glyph-name="oslashacute" unicode="&#x1ff;" horiz-adv-x="633" 
d="M116 -35l-66 48l459 542l67 -49zM317 -10q-81 0 -144.5 35.5t-100 97.5t-36.5 142t36.5 142t100 97.5t144.5 35.5q80 0 143.5 -35.5t99.5 -97.5t36 -142t-36 -142t-99.5 -97.5t-143.5 -35.5zM317 114q39 0 70 19.5t48.5 54t16.5 77.5q1 44 -16.5 78.5t-48.5 54t-70 19.5
q-40 0 -71 -20t-49 -54t-17 -78q-1 -43 17 -77.5t49 -54t71 -19.5zM241 594l-43 66l167 137l71 -98z" />
    <glyph glyph-name="uni0200" unicode="&#x200;" horiz-adv-x="696" 
d="M7 0l275 700h134l273 -700h-154l-141 377q-6 16 -14.5 41t-17.5 53t-17 53.5t-12 42.5h27q-6 -22 -13.5 -46.5t-15.5 -50t-17 -49.5t-17 -47l-141 -374h-149zM135 147l49 120h321l50 -120h-420zM467 745l-168 119l79 88l139 -147zM253 743l-174 117l79 91l144 -146z" />
    <glyph glyph-name="uni0201" unicode="&#x201;" horiz-adv-x="651" 
d="M269 -10q-66 0 -119 36t-84 98t-31 142t31.5 142t85.5 97t123 35q39 0 71.5 -11.5t57 -31.5t41.5 -46t24 -56l-30 5v129h141v-529h-143v127l32 3q-8 -28 -26 -53t-44.5 -44.5t-59.5 -31t-70 -11.5zM308 113q40 0 70 19t46.5 53.5t16.5 80.5q0 45 -16.5 79t-46.5 53.5
t-70 19.5q-39 0 -68.5 -19.5t-46.5 -53.5t-17 -79q0 -46 17 -80.5t46.5 -53.5t68.5 -19zM424 593l-171 125l86 84l142 -160zM221 595l-177 119l82 87l149 -155z" />
    <glyph glyph-name="uni0202" unicode="&#x202;" horiz-adv-x="696" 
d="M7 0l275 700h134l273 -700h-154l-141 377q-6 16 -14.5 41t-17.5 53t-17 53.5t-12 42.5h27q-6 -22 -13.5 -46.5t-15.5 -50t-17 -49.5t-17 -47l-141 -374h-149zM135 147l49 120h321l50 -120h-420zM268 756l-94 12q10 42 34 75t60 51.5t80 18.5q45 0 80.5 -18.5t60 -51.5
t33.5 -75l-94 -12q-10 25 -31.5 43t-48.5 18t-48.5 -18t-31.5 -43z" />
    <glyph glyph-name="uni0203" unicode="&#x203;" horiz-adv-x="651" 
d="M269 -10q-66 0 -119 36t-84 98t-31 142t31.5 142t85.5 97t123 35q39 0 71.5 -11.5t57 -31.5t41.5 -46t24 -56l-30 5v129h141v-529h-143v127l32 3q-8 -28 -26 -53t-44.5 -44.5t-59.5 -31t-70 -11.5zM308 113q40 0 70 19t46.5 53.5t16.5 80.5q0 45 -16.5 79t-46.5 53.5
t-70 19.5q-39 0 -68.5 -19.5t-46.5 -53.5t-17 -79q0 -46 17 -80.5t46.5 -53.5t68.5 -19zM246 607l-94 12q15 74 60.5 116t113.5 42t113.5 -42t60.5 -116l-94 -12q-11 34 -32.5 54t-47.5 20t-47.5 -20t-32.5 -54z" />
    <glyph glyph-name="uni0204" unicode="&#x204;" horiz-adv-x="635" 
d="M91 0v700h473v-132h-326v-436h333v-132h-480zM161 293v128h355v-128h-355zM456 745l-168 119l79 88l139 -147zM242 743l-174 117l79 91l144 -146z" />
    <glyph glyph-name="uni0205" unicode="&#x205;" horiz-adv-x="586" 
d="M322 -10q-86 0 -150.5 35t-100 96t-35.5 140q0 62 20 113t56 88.5t85.5 58t107.5 20.5q54 0 100 -20t79.5 -55.5t51.5 -84t16 -104.5l-1 -44h-425l-23 87h331l-16 -18v22q-2 27 -17.5 48.5t-39.5 34t-54 12.5q-44 0 -74.5 -17t-46.5 -50t-16 -80q0 -48 20.5 -83t58 -54.5
t88.5 -19.5q35 0 64 11t62 38l68 -95q-29 -26 -64 -43.5t-72 -26.5t-73 -9zM403 593l-171 125l86 84l142 -160zM200 595l-177 119l82 87l149 -155z" />
    <glyph glyph-name="uni0206" unicode="&#x206;" horiz-adv-x="635" 
d="M91 0v700h473v-132h-326v-436h333v-132h-480zM161 293v128h355v-128h-355zM258 756l-94 12q10 42 34 75t60 51.5t80 18.5q45 0 80.5 -18.5t60 -51.5t33.5 -75l-94 -12q-10 25 -31.5 43t-48.5 18t-48.5 -18t-31.5 -43z" />
    <glyph glyph-name="uni0207" unicode="&#x207;" horiz-adv-x="586" 
d="M322 -10q-86 0 -150.5 35t-100 96t-35.5 140q0 62 20 113t56 88.5t85.5 58t107.5 20.5q54 0 100 -20t79.5 -55.5t51.5 -84t16 -104.5l-1 -44h-425l-23 87h331l-16 -18v22q-2 27 -17.5 48.5t-39.5 34t-54 12.5q-44 0 -74.5 -17t-46.5 -50t-16 -80q0 -48 20.5 -83t58 -54.5
t88.5 -19.5q35 0 64 11t62 38l68 -95q-29 -26 -64 -43.5t-72 -26.5t-73 -9zM225 607l-94 12q15 74 60.5 116t113.5 42t113.5 -42t60.5 -116l-94 -12q-11 34 -32.5 54t-47.5 20t-47.5 -20t-32.5 -54z" />
    <glyph glyph-name="uni0208" unicode="&#x208;" horiz-adv-x="530" 
d="M73 0v129h117v442h-117v129h384v-129h-117v-442h117v-129h-384zM384 745l-168 119l79 88l139 -147zM170 743l-174 117l79 91l144 -146z" />
    <glyph glyph-name="uni0209" unicode="&#x209;" horiz-adv-x="274" 
d="M66 0v529h142v-529h-142zM234 593l-171 125l86 84l142 -160zM31 595l-177 119l82 87l149 -155z" />
    <glyph glyph-name="uni020A" unicode="&#x20a;" horiz-adv-x="530" 
d="M73 0v129h117v442h-117v129h384v-129h-117v-442h117v-129h-384zM185 756l-94 12q10 42 34 75t60 51.5t80 18.5q45 0 80.5 -18.5t60 -51.5t33.5 -75l-94 -12q-10 25 -31.5 43t-48.5 18t-48.5 -18t-31.5 -43z" />
    <glyph glyph-name="uni020B" unicode="&#x20b;" horiz-adv-x="274" 
d="M66 0v529h142v-529h-142zM56 607l-94 12q15 74 60.5 116t113.5 42t113.5 -42t60.5 -116l-94 -12q-11 34 -32.5 54t-47.5 20t-47.5 -20t-32.5 -54z" />
    <glyph glyph-name="uni020C" unicode="&#x20c;" horiz-adv-x="802" 
d="M402 -10q-78 0 -143 27t-113.5 75.5t-74.5 115t-26 144.5q0 79 26 145t74.5 114.5t113.5 75.5t142 27q78 0 142.5 -27t113 -76t74.5 -115t26 -144t-26 -144t-74.5 -115t-113 -76t-141.5 -27zM401 132q45 0 82 16.5t64 46t42.5 69.5t15.5 88t-15.5 88t-42.5 69.5t-64 46
t-82 16.5q-44 0 -81 -16.5t-65 -46t-42.5 -69.5t-14.5 -88t14.5 -88t42.5 -69.5t65 -46t81 -16.5zM520 745l-168 119l79 88l139 -147zM306 743l-174 117l79 91l144 -146z" />
    <glyph glyph-name="uni020D" unicode="&#x20d;" horiz-adv-x="633" 
d="M317 -10q-81 0 -144.5 35.5t-100 97.5t-36.5 142t36.5 142t100 97.5t144.5 35.5q80 0 143.5 -35.5t99.5 -97.5t36 -142t-36 -142t-99.5 -97.5t-143.5 -35.5zM317 114q39 0 70 19.5t48.5 54t16.5 77.5q1 44 -16.5 78.5t-48.5 54t-70 19.5q-40 0 -71 -20t-49 -54t-17 -78
q-1 -43 17 -77.5t49 -54t71 -19.5zM415 593l-171 125l86 84l142 -160zM212 595l-177 119l82 87l149 -155z" />
    <glyph glyph-name="uni020E" unicode="&#x20e;" horiz-adv-x="802" 
d="M402 -10q-78 0 -143 27t-113.5 75.5t-74.5 115t-26 144.5q0 79 26 145t74.5 114.5t113.5 75.5t142 27q78 0 142.5 -27t113 -76t74.5 -115t26 -144t-26 -144t-74.5 -115t-113 -76t-141.5 -27zM401 132q45 0 82 16.5t64 46t42.5 69.5t15.5 88t-15.5 88t-42.5 69.5t-64 46
t-82 16.5q-44 0 -81 -16.5t-65 -46t-42.5 -69.5t-14.5 -88t14.5 -88t42.5 -69.5t65 -46t81 -16.5zM321 756l-94 12q10 42 34 75t60 51.5t80 18.5q45 0 80.5 -18.5t60 -51.5t33.5 -75l-94 -12q-10 25 -31.5 43t-48.5 18t-48.5 -18t-31.5 -43z" />
    <glyph glyph-name="uni020F" unicode="&#x20f;" horiz-adv-x="633" 
d="M317 -10q-81 0 -144.5 35.5t-100 97.5t-36.5 142t36.5 142t100 97.5t144.5 35.5q80 0 143.5 -35.5t99.5 -97.5t36 -142t-36 -142t-99.5 -97.5t-143.5 -35.5zM317 114q39 0 70 19.5t48.5 54t16.5 77.5q1 44 -16.5 78.5t-48.5 54t-70 19.5q-40 0 -71 -20t-49 -54t-17 -78
q-1 -43 17 -77.5t49 -54t71 -19.5zM237 607l-94 12q15 74 60.5 116t113.5 42t113.5 -42t60.5 -116l-94 -12q-11 34 -32.5 54t-47.5 20t-47.5 -20t-32.5 -54z" />
    <glyph glyph-name="uni0210" unicode="&#x210;" horiz-adv-x="700" 
d="M91 0v700h310q65 0 118 -29.5t83.5 -79.5t30.5 -114q0 -63 -30.5 -114.5t-83.5 -81.5t-118 -30h-165v-251h-145zM488 0l-178 316l154 25l198 -342zM236 373h158q27 0 47.5 12.5t31.5 35t11 50.5q0 30 -13 52t-38 34.5t-58 12.5h-139v-197zM447 745l-168 119l79 88
l139 -147zM233 743l-174 117l79 91l144 -146z" />
    <glyph glyph-name="uni0211" unicode="&#x211;" horiz-adv-x="438" 
d="M71 0v529h137l5 -170l-24 35q12 41 39 74.5t63.5 52.5t76.5 19q17 0 33 -3t27 -7l-38 -156q-11 6 -28.5 10.5t-35.5 4.5q-24 0 -44.5 -8.5t-35.5 -24t-23.5 -36.5t-8.5 -46v-274h-143zM354 593l-171 125l86 84l142 -160zM151 595l-177 119l82 87l149 -155z" />
    <glyph glyph-name="uni0212" unicode="&#x212;" horiz-adv-x="700" 
d="M91 0v700h310q65 0 118 -29.5t83.5 -79.5t30.5 -114q0 -63 -30.5 -114.5t-83.5 -81.5t-118 -30h-165v-251h-145zM488 0l-178 316l154 25l198 -342zM236 373h158q27 0 47.5 12.5t31.5 35t11 50.5q0 30 -13 52t-38 34.5t-58 12.5h-139v-197zM248 756l-94 12q10 42 34 75
t60 51.5t80 18.5q45 0 80.5 -18.5t60 -51.5t33.5 -75l-94 -12q-10 25 -31.5 43t-48.5 18t-48.5 -18t-31.5 -43z" />
    <glyph glyph-name="uni0213" unicode="&#x213;" horiz-adv-x="438" 
d="M71 0v529h137l5 -170l-24 35q12 41 39 74.5t63.5 52.5t76.5 19q17 0 33 -3t27 -7l-38 -156q-11 6 -28.5 10.5t-35.5 4.5q-24 0 -44.5 -8.5t-35.5 -24t-23.5 -36.5t-8.5 -46v-274h-143zM176 607l-94 12q15 74 60.5 116t113.5 42t113.5 -42t60.5 -116l-94 -12
q-11 34 -32.5 54t-47.5 20t-47.5 -20t-32.5 -54z" />
    <glyph glyph-name="uni0214" unicode="&#x214;" horiz-adv-x="757" 
d="M379 -6q-85 0 -151.5 35.5t-104.5 98t-38 141.5v432h151v-423q0 -42 19 -75.5t51.5 -53.5t72.5 -20q41 0 74.5 20t53 53.5t19.5 75.5v423h146v-432q0 -79 -37.5 -141.5t-104.5 -98t-151 -35.5zM498 745l-168 119l79 88l139 -147zM284 743l-174 117l79 91l144 -146z" />
    <glyph glyph-name="uni0215" unicode="&#x215;" horiz-adv-x="630" 
d="M253 -10q-58 0 -99.5 25.5t-64 73t-22.5 114.5v326h142v-303q0 -36 12 -62.5t34 -40.5t54 -14q23 0 42.5 7.5t34 21.5t22.5 33t8 41v317h142v-529h-135l-5 109l26 12q-12 -37 -40 -67t-67 -47t-84 -17zM414 593l-171 125l86 84l142 -160zM211 595l-177 119l82 87
l149 -155z" />
    <glyph glyph-name="uni0216" unicode="&#x216;" horiz-adv-x="757" 
d="M379 -6q-85 0 -151.5 35.5t-104.5 98t-38 141.5v432h151v-423q0 -42 19 -75.5t51.5 -53.5t72.5 -20q41 0 74.5 20t53 53.5t19.5 75.5v423h146v-432q0 -79 -37.5 -141.5t-104.5 -98t-151 -35.5zM299 756l-94 12q10 42 34 75t60 51.5t80 18.5q45 0 80.5 -18.5t60 -51.5
t33.5 -75l-94 -12q-10 25 -31.5 43t-48.5 18t-48.5 -18t-31.5 -43z" />
    <glyph glyph-name="uni0217" unicode="&#x217;" horiz-adv-x="630" 
d="M253 -10q-58 0 -99.5 25.5t-64 73t-22.5 114.5v326h142v-303q0 -36 12 -62.5t34 -40.5t54 -14q23 0 42.5 7.5t34 21.5t22.5 33t8 41v317h142v-529h-135l-5 109l26 12q-12 -37 -40 -67t-67 -47t-84 -17zM235 607l-94 12q15 74 60.5 116t113.5 42t113.5 -42t60.5 -116
l-94 -12q-11 34 -32.5 54t-47.5 20t-47.5 -20t-32.5 -54z" />
    <glyph glyph-name="uni0218" unicode="&#x218;" horiz-adv-x="631" 
d="M318 -10q-65 0 -118.5 16t-95 47t-74.5 75l94 107q49 -68 97.5 -92.5t105.5 -24.5q31 0 55.5 9t38.5 24.5t14 37.5q0 16 -7 29.5t-20 24t-31 19t-40 15t-48 10.5q-56 13 -98 31.5t-70 46t-41.5 62.5t-13.5 79q0 45 20 83.5t55.5 66.5t82 43t98.5 15q64 0 112 -14
t83.5 -41.5t59.5 -66.5l-95 -92q-21 28 -45.5 47t-53 28.5t-58.5 9.5q-33 0 -57 -8.5t-37.5 -25t-13.5 -38.5q0 -18 9 -32t26 -24.5t41 -18.5t53 -14q55 -11 99 -29t75.5 -43.5t48.5 -60t17 -77.5q0 -71 -34 -121t-94 -76.5t-140 -26.5zM282 -277l-34 50q14 5 29 13.5t26 20
t11 22.5q0 8 -5 12.5t-17 8.5q-20 7 -28 18.5t-8 30.5q0 29 21 44.5t54 15.5q39 0 66 -23.5t27 -67.5q0 -26 -10 -48.5t-28.5 -40.5t-44.5 -32t-59 -24z" />
    <glyph glyph-name="uni0219" unicode="&#x219;" horiz-adv-x="490" 
d="M249 -10q-74 0 -131.5 24.5t-92.5 67.5l89 76q30 -33 68 -47.5t76 -14.5q15 0 27.5 3.5t21.5 10t13.5 16t4.5 20.5q0 22 -18 34q-10 6 -31 13.5t-54 16.5q-51 13 -86.5 30.5t-56.5 39.5q-18 21 -27.5 45.5t-9.5 54.5q0 36 16 65.5t44.5 50.5t65.5 32.5t78 11.5t80 -10
t72.5 -28.5t58.5 -43.5l-76 -84q-18 17 -40.5 31t-46.5 22t-43 8q-17 0 -30.5 -3t-22.5 -9.5t-13.5 -15.5t-4.5 -20t5.5 -21t15.5 -17q11 -6 32.5 -14t58.5 -18q48 -13 81.5 -29t53.5 -37q17 -18 25 -41t8 -51q0 -49 -27.5 -87t-75.5 -60t-108 -22zM197 -277l-34 51
q14 4 29 13t26 20t11 23q0 7 -5 11.5t-17 9.5q-20 7 -28 18.5t-8 29.5q0 29 21.5 44.5t55.5 15.5q39 0 65 -24t26 -68q0 -24 -10 -45t-28.5 -39t-44.5 -33t-59 -27z" />
    <glyph glyph-name="uni021A" unicode="&#x21a;" horiz-adv-x="630" 
d="M237 0v565h-204v135h564v-135h-210v-565h-150zM261 -277l-34 50q14 5 29 13.5t26 20t11 22.5q0 8 -5 12.5t-17 8.5q-20 7 -28 18.5t-8 30.5q0 29 21 44.5t54 15.5q39 0 66 -23.5t27 -67.5q0 -26 -10 -48.5t-28.5 -40.5t-44.5 -32t-59 -24z" />
    <glyph glyph-name="uni021B" unicode="&#x21b;" horiz-adv-x="394" 
d="M122 0v663h142v-663h-142zM23 402v127h350v-127h-350zM143 -277l-34 51q14 4 29 13t26 20t11 23q0 7 -5 11.5t-17 9.5q-20 7 -28 18.5t-8 29.5q0 29 21.5 44.5t55.5 15.5q39 0 65 -24t26 -68q0 -24 -10 -45t-28.5 -39t-44.5 -33t-59 -27z" />
    <glyph glyph-name="uni022A" unicode="&#x22a;" horiz-adv-x="802" 
d="M402 -10q-78 0 -143 27t-113.5 75.5t-74.5 115t-26 144.5q0 79 26 145t74.5 114.5t113.5 75.5t142 27q78 0 142.5 -27t113 -76t74.5 -115t26 -144t-26 -144t-74.5 -115t-113 -76t-141.5 -27zM401 132q45 0 82 16.5t64 46t42.5 69.5t15.5 88t-15.5 88t-42.5 69.5t-64 46
t-82 16.5q-44 0 -81 -16.5t-65 -46t-42.5 -69.5t-14.5 -88t14.5 -88t42.5 -69.5t65 -46t81 -16.5zM517 755q-40 0 -60.5 21.5t-20.5 57.5q0 33 21 56t60 23q40 0 60.5 -21t20.5 -58q0 -32 -21 -55.5t-60 -23.5zM286 755q-41 0 -61.5 21.5t-20.5 57.5q0 33 21 56t61 23
t60.5 -21t20.5 -58q0 -32 -21 -55.5t-60 -23.5zM226 965v93h349v-93h-349z" />
    <glyph glyph-name="uni022B" unicode="&#x22b;" horiz-adv-x="633" 
d="M317 -10q-81 0 -144.5 35.5t-100 97.5t-36.5 142t36.5 142t100 97.5t144.5 35.5q80 0 143.5 -35.5t99.5 -97.5t36 -142t-36 -142t-99.5 -97.5t-143.5 -35.5zM317 114q39 0 70 19.5t48.5 54t16.5 77.5q1 44 -16.5 78.5t-48.5 54t-70 19.5q-40 0 -71 -20t-49 -54t-17 -78
q-1 -43 17 -77.5t49 -54t71 -19.5zM430 635q-39 0 -60 20.5t-21 58.5q0 35 22 56.5t59 21.5q39 0 60 -20t21 -58q0 -35 -22 -57t-59 -22zM202 635q-38 0 -59.5 20.5t-21.5 58.5q0 35 22 56.5t59 21.5q39 0 60 -20t21 -58q0 -35 -21.5 -57t-59.5 -22zM157 845v92h320v-92
h-320z" />
    <glyph glyph-name="uni022C" unicode="&#x22c;" horiz-adv-x="802" 
d="M402 -10q-78 0 -143 27t-113.5 75.5t-74.5 115t-26 144.5q0 79 26 145t74.5 114.5t113.5 75.5t142 27q78 0 142.5 -27t113 -76t74.5 -115t26 -144t-26 -144t-74.5 -115t-113 -76t-141.5 -27zM401 132q45 0 82 16.5t64 46t42.5 69.5t15.5 88t-15.5 88t-42.5 69.5t-64 46
t-82 16.5q-44 0 -81 -16.5t-65 -46t-42.5 -69.5t-14.5 -88t14.5 -88t42.5 -69.5t65 -46t81 -16.5zM477 768q-21 0 -42 6.5t-44 16.5q-18 7 -30.5 11.5t-22.5 4.5q-13 0 -21.5 -10t-8.5 -29h-93q0 63 36 98t88 35q18 0 36.5 -5.5t42.5 -17.5q16 -7 27.5 -11t20.5 -4
q14 0 21.5 10.5t6.5 27.5h92q0 -36 -13.5 -66.5t-38 -48.5t-57.5 -18zM226 965v93h349v-93h-349z" />
    <glyph glyph-name="uni022D" unicode="&#x22d;" horiz-adv-x="633" 
d="M317 -10q-81 0 -144.5 35.5t-100 97.5t-36.5 142t36.5 142t100 97.5t144.5 35.5q80 0 143.5 -35.5t99.5 -97.5t36 -142t-36 -142t-99.5 -97.5t-143.5 -35.5zM317 114q39 0 70 19.5t48.5 54t16.5 77.5q1 44 -16.5 78.5t-48.5 54t-70 19.5q-40 0 -71 -20t-49 -54t-17 -78
q-1 -43 17 -77.5t49 -54t71 -19.5zM379 614q-18 0 -34 7t-37 21q-18 15 -28 21t-18 6q-14 0 -24.5 -12.5t-13.5 -38.5l-83 11q2 54 32.5 93t81.5 39q18 0 34 -6.5t36 -21.5q15 -12 26 -19.5t21 -7.5q14 0 24 13.5t13 37.5l82 -12q0 -34 -14.5 -64.5t-39 -48.5t-58.5 -18z
M157 841v92h320v-92h-320z" />
    <glyph glyph-name="uni0230" unicode="&#x230;" horiz-adv-x="802" 
d="M402 -10q-78 0 -143 27t-113.5 75.5t-74.5 115t-26 144.5q0 79 26 145t74.5 114.5t113.5 75.5t142 27q78 0 142.5 -27t113 -76t74.5 -115t26 -144t-26 -144t-74.5 -115t-113 -76t-141.5 -27zM401 132q45 0 82 16.5t64 46t42.5 69.5t15.5 88t-15.5 88t-42.5 69.5t-64 46
t-82 16.5q-44 0 -81 -16.5t-65 -46t-42.5 -69.5t-14.5 -88t14.5 -88t42.5 -69.5t65 -46t81 -16.5zM401 757q-42 0 -64.5 21t-22.5 56q0 32 22.5 54.5t64.5 22.5t64.5 -20.5t22.5 -56.5q0 -31 -22.5 -54t-64.5 -23zM226 965v93h349v-93h-349z" />
    <glyph glyph-name="uni0231" unicode="&#x231;" horiz-adv-x="633" 
d="M317 -10q-81 0 -144.5 35.5t-100 97.5t-36.5 142t36.5 142t100 97.5t144.5 35.5q80 0 143.5 -35.5t99.5 -97.5t36 -142t-36 -142t-99.5 -97.5t-143.5 -35.5zM317 114q39 0 70 19.5t48.5 54t16.5 77.5q1 44 -16.5 78.5t-48.5 54t-70 19.5q-40 0 -71 -20t-49 -54t-17 -78
q-1 -43 17 -77.5t49 -54t71 -19.5zM317 638q-41 0 -64 20t-23 57q0 34 23.5 55.5t63.5 21.5q41 0 64 -20t23 -57q0 -34 -23.5 -55.5t-63.5 -21.5zM157 845v92h320v-92h-320z" />
    <glyph glyph-name="uni0232" unicode="&#x232;" horiz-adv-x="679" 
d="M274 0v349l7 -49l-283 400h173l216 -310l-68 3l195 307h167l-271 -411l15 68v-357h-151zM165 788v93h349v-93h-349z" />
    <glyph glyph-name="uni0233" unicode="&#x233;" horiz-adv-x="607" 
d="M145 -230l116 272l2 -82l-258 569h161l129 -305q8 -17 15.5 -39.5t12.5 -42.5l-24 -11q7 17 14.5 39t15.5 47l111 312h162l-222 -529l-91 -230h-144zM144 641v92h320v-92h-320z" />
    <glyph glyph-name="uni0237" unicode="&#x237;" horiz-adv-x="298" 
d="M18 -206l-54 110q44 0 69.5 12t37.5 39.5t12 72.5v501h142v-535q0 -65 -25 -109.5t-71 -67.5t-111 -23z" />
    <glyph glyph-name="uni0259" unicode="&#x259;" horiz-adv-x="586" 
d="M281 -12q-72 1 -128 35t-87.5 94t-31.5 135l1 44h425l23 -87h-331l16 18v-22q3 -27 17.5 -49t39 -34t54.5 -12q45 0 75.5 17t46 50t15.5 80q0 48 -20.5 83t-57.5 54.5t-89 19.5q-35 0 -64 -11t-62 -38l-68 95q30 26 64.5 43.5t71.5 26.5t73 9q87 0 151 -35t99.5 -96
t35.5 -140q0 -62 -20 -113t-56 -88.5t-85 -58t-108 -20.5z" />
    <glyph glyph-name="uni0272" unicode="&#x272;" horiz-adv-x="634" 
d="M18 -206l-53 110q32 0 54.5 6t36.5 20t20.5 35.5t6.5 52.5v511h136l4 -116l-16 22q15 29 42.5 53t63.5 38t74 14q60 0 100.5 -24.5t61 -72t20.5 -119.5v-324h-142v313q0 37 -10 60.5t-30 34.5t-51 10q-24 0 -44 -7.5t-35 -21.5t-23.5 -32t-8.5 -39v-324
q-1 -63 -25.5 -107.5t-70.5 -68.5t-111 -24z" />
    <glyph glyph-name="uni02BB" unicode="&#x2bb;" horiz-adv-x="265" 
d="M144 447q-29 0 -52.5 15.5t-37.5 43t-14 63.5q0 30 12 58.5t33 53.5t50 44.5t62 28.5l44 -53q-41 -18 -66.5 -43t-25.5 -43q0 -12 8.5 -22t21.5 -19q23 -18 31.5 -32.5t8.5 -31.5q0 -29 -21 -46t-54 -17z" />
    <glyph glyph-name="uni02BC" unicode="&#x2bc;" horiz-adv-x="237" 
d="M42 438l21 262h149l-83 -262h-87z" />
    <glyph glyph-name="uni02BE" unicode="&#x2be;" horiz-adv-x="220" 
d="M55 523v75q17 0 28.5 11t11.5 27q0 17 -11 27.5t-29 10.5l1 76q31 -1 57.5 -16.5t42.5 -41t16 -56.5t-16.5 -56.5t-42.5 -41t-58 -15.5z" />
    <glyph glyph-name="uni02BF" unicode="&#x2bf;" horiz-adv-x="220" 
d="M154 523q-30 0 -56.5 15.5t-43.5 41t-17 56.5t16 56.5t42.5 41t57.5 16.5l1 -76q-17 0 -28.5 -10t-11.5 -28q0 -16 11.5 -27t28.5 -11v-75z" />
    <glyph glyph-name="circumflex" unicode="&#x2c6;" horiz-adv-x="500" 
d="M120 599l-51 44l135 124h92l135 -124l-51 -44l-145 82h30z" />
    <glyph glyph-name="caron" unicode="&#x2c7;" horiz-adv-x="500" 
d="M204 603l-129 124l51 44l139 -82h-30l139 82l51 -44l-129 -124h-92z" />
    <glyph glyph-name="uni02C8" unicode="&#x2c8;" horiz-adv-x="231" 
d="M67 368v344h97v-344h-97z" />
    <glyph glyph-name="uni02CC" unicode="&#x2cc;" horiz-adv-x="246" 
d="M64 -147v344h118v-344h-118z" />
    <glyph glyph-name="breve" unicode="&#x2d8;" horiz-adv-x="402" 
d="M250 593q-68 0 -113.5 42.5t-60.5 115.5l94 12q11 -34 32.5 -53.5t47.5 -19.5t47.5 19.5t32.5 53.5l94 -12q-15 -73 -60.5 -115.5t-113.5 -42.5z" />
    <glyph glyph-name="dotaccent" unicode="&#x2d9;" horiz-adv-x="500" 
d="M250 634q-41 0 -64 20t-23 57q0 34 23.5 55.5t63.5 21.5q41 0 64 -20t23 -57q0 -34 -23.5 -55.5t-63.5 -21.5z" />
    <glyph glyph-name="ring" unicode="&#x2da;" horiz-adv-x="500" 
d="M250 600q-30 0 -57 15.5t-43.5 41t-16.5 56.5t16 56.5t43 41t58 15.5q32 0 58.5 -15.5t42.5 -41t16 -56.5t-16 -56.5t-42.5 -41t-58.5 -15.5zM250 674q17 0 29 11t12 28t-12 28.5t-29 11.5t-29 -11.5t-12 -28.5t12 -28t29 -11z" />
    <glyph glyph-name="ogonek" unicode="&#x2db;" horiz-adv-x="500" 
d="M250 -207q-32 0 -59 14.5t-42.5 39t-15.5 54.5q0 25 11 46.5t32.5 39.5t53.5 32t74 26l37 -45q-28 -6 -51.5 -19t-37.5 -29t-14 -34q0 -14 8 -22t22 -8q10 0 17.5 6t15.5 18l66 -48q-9 -17 -26 -34t-39.5 -27t-51.5 -10z" />
    <glyph glyph-name="tilde" unicode="&#x2dc;" horiz-adv-x="500" 
d="M313 610q-18 0 -34 7t-37 21q-18 15 -28 21t-18 6q-14 0 -24.5 -12.5t-13.5 -38.5l-83 11q2 54 32.5 93t81.5 39q18 0 34 -6.5t36 -21.5q15 -12 26 -19.5t21 -7.5q14 0 24 13.5t13 37.5l82 -12q0 -34 -14.5 -64.5t-39 -48.5t-58.5 -18z" />
    <glyph glyph-name="hungarumlaut" unicode="&#x2dd;" horiz-adv-x="500" 
d="M292 591l-55 51l150 155l82 -87zM88 589l-56 49l142 160l85 -84z" />
    <glyph glyph-name="gravecomb" unicode="&#x300;" 
d="M326 591l-195 105l71 97l167 -136z" />
    <glyph glyph-name="acutecomb" unicode="&#x301;" 
d="M174 590l-43 66l167 137l71 -98z" />
    <glyph glyph-name="uni0302" unicode="&#x302;" 
d="M120 599l-51 44l135 124h92l135 -124l-51 -44l-145 82h30z" />
    <glyph glyph-name="tildecomb" unicode="&#x303;" 
d="M313 610q-18 0 -34 7t-37 21q-18 15 -28 21t-18 6q-14 0 -24.5 -12.5t-13.5 -38.5l-83 11q2 54 32.5 93t81.5 39q18 0 34 -6.5t36 -21.5q15 -12 26 -19.5t21 -7.5q14 0 24 13.5t13 37.5l82 -12q0 -34 -14.5 -64.5t-39 -48.5t-58.5 -18z" />
    <glyph glyph-name="uni0304" unicode="&#x304;" 
d="M90 637v92h320v-92h-320z" />
    <glyph glyph-name="uni0306" unicode="&#x306;" 
d="M250 593q-68 0 -113.5 42.5t-60.5 115.5l94 12q11 -34 32.5 -53.5t47.5 -19.5t47.5 19.5t32.5 53.5l94 -12q-15 -73 -60.5 -115.5t-113.5 -42.5z" />
    <glyph glyph-name="uni0307" unicode="&#x307;" 
d="M250 634q-41 0 -64 20t-23 57q0 34 23.5 55.5t63.5 21.5q41 0 64 -20t23 -57q0 -34 -23.5 -55.5t-63.5 -21.5z" />
    <glyph glyph-name="uni0308" unicode="&#x308;" 
d="M364 631q-39 0 -60 20.5t-21 58.5q0 35 22 56.5t59 21.5q39 0 60 -20t21 -58q0 -35 -22 -57t-59 -22zM136 631q-38 0 -59.5 20.5t-21.5 58.5q0 35 22 56.5t59 21.5q39 0 60 -20t21 -58q0 -35 -21.5 -57t-59.5 -22z" />
    <glyph glyph-name="hookabovecomb" unicode="&#x309;" 
d="M226 588q-7 10 -12.5 20t-5.5 21t6 22.5t24 23.5q15 10 22.5 16.5t7.5 15.5t-8.5 13.5t-21.5 4.5q-19 0 -40 -5.5t-41 -14.5l-21 77q22 12 51.5 20t59.5 8q55 0 86.5 -24t31.5 -62q0 -30 -13 -46.5t-29 -25.5q-16 -10 -26 -18t-10 -18q0 -4 1 -7t2 -7z" />
    <glyph glyph-name="uni030A" unicode="&#x30a;" 
d="M250 600q-30 0 -57 15.5t-43.5 41t-16.5 56.5t16 56.5t43 41t58 15.5q32 0 58.5 -15.5t42.5 -41t16 -56.5t-16 -56.5t-42.5 -41t-58.5 -15.5zM250 674q17 0 29 11t12 28t-12 28.5t-29 11.5t-29 -11.5t-12 -28.5t12 -28t29 -11z" />
    <glyph glyph-name="uni030B" unicode="&#x30b;" 
d="M292 591l-55 51l150 155l82 -87zM88 589l-56 49l142 160l85 -84z" />
    <glyph glyph-name="uni030C" unicode="&#x30c;" 
d="M204 603l-129 124l51 44l139 -82h-30l139 82l51 -44l-129 -124h-92z" />
    <glyph glyph-name="uni030F" unicode="&#x30f;" 
d="M412 589l-171 125l86 84l142 -160zM209 591l-177 119l82 87l149 -155z" />
    <glyph glyph-name="uni0311" unicode="&#x311;" 
d="M170 603l-94 12q15 74 60.5 116t113.5 42t113.5 -42t60.5 -116l-94 -12q-11 34 -32.5 54t-47.5 20t-47.5 -20t-32.5 -54z" />
    <glyph glyph-name="uni0312" unicode="&#x312;" 
d="M253 595q-35 0 -63 22.5t-28 70.5q0 28 13 50.5t34 40t46 31t49 21.5l34 -51q-13 -3 -28.5 -11.5t-26.5 -20t-11 -24.5q0 -10 7 -13.5t17 -7.5q15 -6 24.5 -16t9.5 -32q0 -30 -22.5 -45t-54.5 -15z" />
    <glyph glyph-name="uni031B" unicode="&#x31b;" 
d="M148 446v87q48 0 71.5 28.5t23.5 85.5h109q0 -57 -21.5 -102.5t-66.5 -72t-116 -26.5z" />
    <glyph glyph-name="dotbelowcomb" unicode="&#x323;" 
d="M250 -218q-42 0 -65 20.5t-23 58.5q0 34 23.5 56t64.5 22q42 0 65 -20.5t23 -57.5q0 -35 -23.5 -57t-64.5 -22z" />
    <glyph glyph-name="uni0324" unicode="&#x324;" 
d="M364 -218q-39 0 -60 20.5t-21 57.5q0 35 22 57t59 22q39 0 60 -20.5t21 -58.5q0 -35 -22 -56.5t-59 -21.5zM136 -218q-38 0 -59.5 20.5t-21.5 57.5q0 35 22 57t59 22q39 0 60 -20.5t21 -58.5q0 -35 -21.5 -56.5t-59.5 -21.5z" />
    <glyph glyph-name="uni0326" unicode="&#x326;" 
d="M196 -277l-34 51q14 4 29 13t26 20t11 23q0 7 -5 11.5t-17 9.5q-20 7 -28 18.5t-8 29.5q0 29 21.5 44.5t55.5 15.5q39 0 65 -24t26 -68q0 -24 -10 -45t-28.5 -39t-44.5 -33t-59 -27z" />
    <glyph glyph-name="uni0327" unicode="&#x327;" 
d="M154 -245l-9 68q22 0 45.5 6t40 16t16.5 22q0 13 -13 20t-31 11t-33 4l-16 12l70 110h75l-45 -68q51 -7 76.5 -33t25.5 -62q0 -29 -19 -49.5t-49 -33.5t-65.5 -18.5t-68.5 -4.5z" />
    <glyph glyph-name="uni0328" unicode="&#x328;" 
d="M250 -207q-32 0 -59 14.5t-42.5 39t-15.5 54.5q0 25 11 46.5t32.5 39.5t53.5 32t74 26l37 -45q-28 -6 -51.5 -19t-37.5 -29t-14 -34q0 -14 8 -22t22 -8q10 0 17.5 6t15.5 18l66 -48q-9 -17 -26 -34t-39.5 -27t-51.5 -10z" />
    <glyph glyph-name="uni032E" unicode="&#x32e;" 
d="M250 -235q-66 0 -112.5 42.5t-61.5 115.5l94 12q11 -34 33 -53.5t47 -19.5t47 19.5t33 53.5l94 -12q-15 -73 -61.5 -115.5t-112.5 -42.5z" />
    <glyph glyph-name="uni0331" unicode="&#x331;" 
d="M101 -192v104h298v-104h-298z" />
    <glyph glyph-name="uni0335" unicode="&#x335;" 
d="M97 239v110h306v-110h-306z" />
    <glyph glyph-name="uni0394" unicode="&#x394;" horiz-adv-x="711" 
d="M2 0l353 729l358 -729h-711zM158 64l-40 50h484l-48 -53l-230 469h62z" />
    <glyph glyph-name="uni03A9" unicode="&#x3a9;" horiz-adv-x="710" 
d="M46 0v128h182l-38 -32q-49 47 -85.5 99t-57 106.5t-20.5 110.5q0 65 24.5 120t69.5 96t104.5 63.5t130.5 22.5q70 0 129.5 -22.5t104 -63.5t69 -96.5t24.5 -120.5q0 -55 -20 -109.5t-56.5 -106.5t-85.5 -98l-34 31h177v-128h-263v122q20 22 37 41t30 34.5t20 27.5
q17 26 29.5 52.5t18.5 56.5t6 65q0 38 -13.5 70.5t-39 56.5t-59.5 37.5t-74 13.5q-41 0 -75 -13.5t-59.5 -37.5t-39 -56.5t-13.5 -70.5q0 -43 9.5 -78t27.5 -66t41 -61q10 -14 18.5 -25t17 -20t14.5 -16t11 -11v-122h-262z" />
    <glyph glyph-name="uni03BC" unicode="&#x3bc;" horiz-adv-x="622" 
d="M76 -160v689h138v-307q0 -37 10.5 -62t30.5 -38t49 -13q24 0 43.5 8.5t34 24t23 35.5t8.5 43v309h138v-529h-131l-5 104l13 -11q-17 -35 -41 -57.5t-54 -33.5t-67 -13q-15 0 -29 4.5t-24 12.5t-15 19l12 40l4 -225h-138z" />
    <glyph glyph-name="pi" unicode="&#x3c0;" horiz-adv-x="635" 
d="M108 0v480l17 -78h-91v128h573v-128h-83l9 40v-442h-131v464l10 -62h-186l13 40v-442h-131z" />
    <glyph glyph-name="uni1E08" unicode="&#x1e08;" horiz-adv-x="689" 
d="M398 -10q-77 0 -141.5 26.5t-112 75t-73.5 115t-26 145.5q0 77 27 142.5t76 114t115 75.5t143 27q50 0 98.5 -13.5t89 -39.5t69.5 -62l-94 -104q-23 24 -49 41.5t-54.5 27t-60.5 9.5q-43 0 -80.5 -16t-65.5 -44.5t-44.5 -69t-16.5 -89.5q0 -50 16 -90.5t45 -69t69.5 -44
t89.5 -15.5q32 0 62 9t55.5 25t45.5 37l74 -117q-25 -27 -65.5 -49t-90.5 -34.5t-101 -12.5zM293 -245l-8 68q21 0 45 6t40.5 16t16.5 22q0 13 -13.5 20t-31 11t-33.5 4l-16 12l70 110h75l-44 -68q51 -7 76 -33t25 -62q0 -29 -18.5 -49.5t-48.5 -33.5t-65.5 -18.5
t-69.5 -4.5zM322 750l-34 71l200 115l52 -109z" />
    <glyph glyph-name="uni1E09" unicode="&#x1e09;" horiz-adv-x="542" 
d="M301 -10q-76 0 -136 36t-94.5 98t-34.5 141t34.5 141t94.5 98t136 36q71 0 130 -26t92 -72l-78 -94q-14 19 -35 34.5t-45.5 24.5t-50.5 9q-41 0 -72.5 -19.5t-49.5 -53.5t-18 -78q0 -42 18.5 -76t50.5 -54t72 -20q26 0 49 7t43.5 22t37.5 36l77 -94q-33 -43 -93.5 -69.5
t-127.5 -26.5zM205 -245l-9 68q22 0 45.5 6t40 16t16.5 22q0 13 -13 20t-31 11t-33 4l-16 12l70 110h75l-45 -68q51 -7 76.5 -33t25.5 -62q0 -29 -19 -49.5t-49 -33.5t-65.5 -18.5t-68.5 -4.5zM225 594l-43 66l167 137l71 -98z" />
    <glyph glyph-name="uni1E0C" unicode="&#x1e0c;" horiz-adv-x="764" 
d="M91 0v700h287q77 0 139.5 -25.5t108 -72t69.5 -110.5t24 -142q0 -77 -24 -141.5t-69 -111t-108 -72t-140 -25.5h-287zM241 109l-16 26h148q45 0 81 15.5t61.5 43t38.5 67.5t13 89t-13 88.5t-38.5 67.5t-61.5 43.5t-81 15.5h-151l19 24v-480zM382 -218q-42 0 -65 20.5
t-23 58.5q0 34 23.5 56t64.5 22q42 0 65 -20.5t23 -57.5q0 -35 -23.5 -57t-64.5 -22z" />
    <glyph glyph-name="uni1E0D" unicode="&#x1e0d;" horiz-adv-x="648" 
d="M278 -10q-70 0 -124.5 35.5t-86 97t-31.5 142.5q0 79 31.5 141.5t86 98t124.5 35.5q37 0 71.5 -11.5t62 -31.5t44.5 -44.5t19 -50.5l-36 -7v345h143v-740h-135l-6 122l28 -3q-2 -25 -18 -48t-42.5 -41.5t-60 -29t-70.5 -10.5zM310 108q40 0 70 20t47 55t17 82
q0 46 -17 81t-47 55t-70 20t-69.5 -20t-46 -55t-16.5 -81q0 -47 16.5 -82t46 -55t69.5 -20zM324 -218q-42 0 -65 20.5t-23 58.5q0 34 23.5 56t64.5 22q42 0 65 -20.5t23 -57.5q0 -35 -23.5 -57t-64.5 -22z" />
    <glyph glyph-name="uni1E0E" unicode="&#x1e0e;" horiz-adv-x="764" 
d="M91 0v700h287q77 0 139.5 -25.5t108 -72t69.5 -110.5t24 -142q0 -77 -24 -141.5t-69 -111t-108 -72t-140 -25.5h-287zM241 109l-16 26h148q45 0 81 15.5t61.5 43t38.5 67.5t13 89t-13 88.5t-38.5 67.5t-61.5 43.5t-81 15.5h-151l19 24v-480zM233 -192v104h298v-104h-298z
" />
    <glyph glyph-name="uni1E0F" unicode="&#x1e0f;" horiz-adv-x="648" 
d="M278 -10q-70 0 -124.5 35.5t-86 97t-31.5 142.5q0 79 31.5 141.5t86 98t124.5 35.5q37 0 71.5 -11.5t62 -31.5t44.5 -44.5t19 -50.5l-36 -7v345h143v-740h-135l-6 122l28 -3q-2 -25 -18 -48t-42.5 -41.5t-60 -29t-70.5 -10.5zM310 108q40 0 70 20t47 55t17 82
q0 46 -17 81t-47 55t-70 20t-69.5 -20t-46 -55t-16.5 -81q0 -47 16.5 -82t46 -55t69.5 -20zM174 -192v104h298v-104h-298z" />
    <glyph glyph-name="uni1E14" unicode="&#x1e14;" horiz-adv-x="635" 
d="M91 0v700h473v-132h-326v-436h333v-132h-480zM161 293v128h355v-128h-355zM163 788v93h349v-93h-349zM428 927l-219 77l53 109l201 -115z" />
    <glyph glyph-name="uni1E15" unicode="&#x1e15;" horiz-adv-x="586" 
d="M322 -10q-86 0 -150.5 35t-100 96t-35.5 140q0 62 20 113t56 88.5t85.5 58t107.5 20.5q54 0 100 -20t79.5 -55.5t51.5 -84t16 -104.5l-1 -44h-425l-23 87h331l-16 -18v22q-2 27 -17.5 48.5t-39.5 34t-54 12.5q-44 0 -74.5 -17t-46.5 -50t-16 -80q0 -48 20.5 -83t58 -54.5
t88.5 -19.5q35 0 64 11t62 38l68 -95q-29 -26 -64 -43.5t-72 -26.5t-73 -9zM317 767l-124 131l93 68l93 -158zM145 631v92h320v-92h-320z" />
    <glyph glyph-name="uni1E16" unicode="&#x1e16;" horiz-adv-x="635" 
d="M91 0v700h473v-132h-326v-436h333v-132h-480zM161 293v128h355v-128h-355zM163 788v93h349v-93h-349zM256 927l-34 71l200 115l52 -109z" />
    <glyph glyph-name="uni1E17" unicode="&#x1e17;" horiz-adv-x="586" 
d="M322 -10q-86 0 -150.5 35t-100 96t-35.5 140q0 62 20 113t56 88.5t85.5 58t107.5 20.5q54 0 100 -20t79.5 -55.5t51.5 -84t16 -104.5l-1 -44h-425l-23 87h331l-16 -18v22q-2 27 -17.5 48.5t-39.5 34t-54 12.5q-44 0 -74.5 -17t-46.5 -50t-16 -80q0 -48 20.5 -83t58 -54.5
t88.5 -19.5q35 0 64 11t62 38l68 -95q-29 -26 -64 -43.5t-72 -26.5t-73 -9zM145 631v92h320v-92h-320zM309 767l-62 41l93 158l93 -68z" />
    <glyph glyph-name="uni1E1C" unicode="&#x1e1c;" horiz-adv-x="635" 
d="M91 0v700h473v-132h-326v-436h333v-132h-480zM161 293v128h355v-128h-355zM220 -245l-8 68q21 0 45 6t40.5 16t16.5 22q0 13 -13.5 20t-31 11t-33.5 4l-16 12l70 110h75l-44 -68q51 -7 76 -33t25 -62q0 -29 -18.5 -49.5t-48.5 -33.5t-65.5 -18.5t-69.5 -4.5zM338 755
q-44 0 -80 19t-60 52t-34 75l94 12q10 -25 31.5 -43t48.5 -18t48.5 18t31.5 43l94 -12q-9 -42 -33.5 -75t-60 -52t-80.5 -19z" />
    <glyph glyph-name="uni1E1D" unicode="&#x1e1d;" horiz-adv-x="586" 
d="M322 -10q-86 0 -150.5 35t-100 96t-35.5 140q0 62 20 113t56 88.5t85.5 58t107.5 20.5q54 0 100 -20t79.5 -55.5t51.5 -84t16 -104.5l-1 -44h-425l-23 87h331l-16 -18v22q-2 27 -17.5 48.5t-39.5 34t-54 12.5q-44 0 -74.5 -17t-46.5 -50t-16 -80q0 -48 20.5 -83t58 -54.5
t88.5 -19.5q35 0 64 11t62 38l68 -95q-29 -26 -64 -43.5t-72 -26.5t-73 -9zM225 -245l-9 68q22 0 45.5 6t40 16t16.5 22q0 13 -13 20t-31 11t-33 4l-16 12l70 110h75l-45 -68q51 -7 76.5 -33t25.5 -62q0 -29 -19 -49.5t-49 -33.5t-65.5 -18.5t-68.5 -4.5zM305 597
q-68 0 -113.5 42.5t-60.5 115.5l94 12q11 -34 32.5 -53.5t47.5 -19.5t47.5 19.5t32.5 53.5l94 -12q-15 -73 -60.5 -115.5t-113.5 -42.5z" />
    <glyph glyph-name="uni1E20" unicode="&#x1e20;" horiz-adv-x="777" 
d="M412 -10q-81 0 -148.5 27.5t-116.5 76.5t-75.5 115t-26.5 143t27.5 142.5t78 114t118.5 75.5t149 27q56 0 107 -15t93 -41t70 -60l-93 -98q-26 25 -54 42.5t-59.5 27t-64.5 9.5q-47 0 -86.5 -17t-69.5 -47t-46.5 -71t-16.5 -89q0 -47 17.5 -88.5t48 -72t71.5 -48
t88 -17.5q34 0 63.5 10t52 28.5t35 43.5t12.5 53v24l20 -28h-200v125h324q1 -11 2.5 -27t2 -31.5t0.5 -24.5q0 -68 -24.5 -125t-68 -98t-102.5 -63.5t-128 -22.5zM234 788v93h349v-93h-349z" />
    <glyph glyph-name="uni1E21" unicode="&#x1e21;" horiz-adv-x="663" 
d="M312 -230q-63 0 -124 18.5t-100 48.5l51 101q20 -14 46 -25t54.5 -17t58.5 -6q52 0 85.5 16t50.5 48t17 80v92l24 -5q-6 -33 -33.5 -60.5t-68 -44t-84.5 -16.5q-73 0 -130 34t-90 94t-33 139t32.5 140.5t89 97t128.5 35.5q30 0 57.5 -7t51 -19.5t42 -28t30.5 -33.5
t15 -36l-29 -8l4 121h136v-489q0 -65 -19 -115t-55.5 -84.5t-89 -52.5t-117.5 -18zM316 114q42 0 73.5 19t48.5 53t17 80q0 45 -17 79.5t-48.5 53.5t-73.5 19q-41 0 -72 -19.5t-48.5 -54t-17.5 -78.5q0 -45 17.5 -79.5t48.5 -53.5t72 -19zM172 641v92h320v-92h-320z" />
    <glyph glyph-name="uni1E24" unicode="&#x1e24;" horiz-adv-x="773" 
d="M532 0v700h150v-700h-150zM91 0v700h150v-700h-150zM151 281l1 136h457v-136h-458zM387 -218q-42 0 -65 20.5t-23 58.5q0 34 23.5 56t64.5 22q42 0 65 -20.5t23 -57.5q0 -35 -23.5 -57t-64.5 -22z" />
    <glyph glyph-name="uni1E25" unicode="&#x1e25;" horiz-adv-x="622" 
d="M71 0v740h140v-319l-28 -12q11 36 39.5 65.5t68.5 47.5t84 18q60 0 100.5 -24t61 -72.5t20.5 -119.5v-324h-142v313q0 36 -10 60t-30.5 35t-50.5 10q-24 0 -44.5 -7.5t-35 -21.5t-23 -32t-8.5 -39v-318h-70h-41h-31zM312 -218q-42 0 -65 20.5t-23 58.5q0 34 23.5 56
t64.5 22q42 0 65 -20.5t23 -57.5q0 -35 -23.5 -57t-64.5 -22z" />
    <glyph glyph-name="uni1E2A" unicode="&#x1e2a;" horiz-adv-x="773" 
d="M532 0v700h150v-700h-150zM91 0v700h150v-700h-150zM151 281l1 136h457v-136h-458zM387 -235q-66 0 -112.5 42.5t-61.5 115.5l94 12q11 -34 33 -53.5t47 -19.5t47 19.5t33 53.5l94 -12q-15 -73 -61.5 -115.5t-112.5 -42.5z" />
    <glyph glyph-name="uni1E2B" unicode="&#x1e2b;" horiz-adv-x="622" 
d="M71 0v740h140v-319l-28 -12q11 36 39.5 65.5t68.5 47.5t84 18q60 0 100.5 -24t61 -72.5t20.5 -119.5v-324h-142v313q0 36 -10 60t-30.5 35t-50.5 10q-24 0 -44.5 -7.5t-35 -21.5t-23 -32t-8.5 -39v-318h-70h-41h-31zM312 -235q-66 0 -112.5 42.5t-61.5 115.5l94 12
q11 -34 33 -53.5t47 -19.5t47 19.5t33 53.5l94 -12q-15 -73 -61.5 -115.5t-112.5 -42.5z" />
    <glyph glyph-name="uni1E2E" unicode="&#x1e2e;" horiz-adv-x="530" 
d="M73 0v129h117v442h-117v129h384v-129h-117v-442h117v-129h-384zM183 941l-33 72l200 114l52 -109zM150 755q-41 0 -61.5 21.5t-20.5 57.5q0 33 21 56t61 23t60.5 -21t20.5 -58q0 -32 -21 -55.5t-60 -23.5zM381 755q-40 0 -60.5 21.5t-20.5 57.5q0 33 21 56t60 23
q40 0 60.5 -21t20.5 -58q0 -32 -21 -55.5t-60 -23.5z" />
    <glyph glyph-name="uni1E2F" unicode="&#x1e2f;" horiz-adv-x="274" 
d="M66 0v529h142v-529h-142zM23 621q-39 0 -60 20.5t-21 57.5q0 35 22 57t59 22q39 0 60 -20.5t21 -58.5q0 -35 -22 -56.5t-59 -21.5zM251 621q-39 0 -60 20.5t-21 57.5q0 35 21.5 57t59.5 22t59.5 -20.5t21.5 -58.5q0 -35 -22 -56.5t-59 -21.5zM149 788l-63 41l87 161
l100 -71z" />
    <glyph glyph-name="uni1E36" unicode="&#x1e36;" horiz-adv-x="606" 
d="M91 0v700h150v-565h317v-135h-467zM303 -218q-42 0 -65 20.5t-23 58.5q0 34 23.5 56t64.5 22q42 0 65 -20.5t23 -57.5q0 -35 -23.5 -57t-64.5 -22z" />
    <glyph glyph-name="uni1E37" unicode="&#x1e37;" horiz-adv-x="287" 
d="M72 0v740h142v-740h-142zM144 -218q-42 0 -65 20.5t-23 58.5q0 34 23.5 56t64.5 22q42 0 65 -20.5t23 -57.5q0 -35 -23.5 -57t-64.5 -22z" />
    <glyph glyph-name="uni1E3A" unicode="&#x1e3a;" horiz-adv-x="606" 
d="M91 0v700h150v-565h317v-135h-467zM154 -192v104h298v-104h-298z" />
    <glyph glyph-name="uni1E3B" unicode="&#x1e3b;" horiz-adv-x="287" 
d="M72 0v740h142v-740h-142zM-6 -192v104h298v-104h-298z" />
    <glyph glyph-name="uni1E42" unicode="&#x1e42;" horiz-adv-x="873" 
d="M91 0v700h137l255 -415l-90 1l258 414h131v-700h-147v240q0 90 4.5 162t15.5 143l18 -47l-205 -318h-66l-201 316l17 49q11 -67 15.5 -137.5t4.5 -167.5v-240h-147zM437 -218q-42 0 -65 20.5t-23 58.5q0 34 23.5 56t64.5 22q42 0 65 -20.5t23 -57.5q0 -35 -23.5 -57
t-64.5 -22z" />
    <glyph glyph-name="uni1E43" unicode="&#x1e43;" horiz-adv-x="949" 
d="M70 0v529h137l3 -101l-21 -4q11 26 29.5 47t42.5 36t51 23.5t54 8.5q41 0 74 -13t56 -40.5t36 -72.5l-22 2l7 16q13 24 33 44t45 34t52 22t53 8q62 0 103 -24.5t61.5 -73.5t20.5 -120v-321h-142v311q0 36 -10 59t-29 34.5t-49 11.5q-23 0 -42.5 -7.5t-34 -21t-22.5 -32
t-8 -39.5v-316h-143v312q0 33 -10 56.5t-29 35.5t-47 12q-23 0 -42.5 -7.5t-33.5 -21t-22 -31.5t-8 -39v-317h-143zM475 -218q-42 0 -65 20.5t-23 58.5q0 34 23.5 56t64.5 22q42 0 65 -20.5t23 -57.5q0 -35 -23.5 -57t-64.5 -22z" />
    <glyph glyph-name="uni1E44" unicode="&#x1e44;" horiz-adv-x="802" 
d="M91 0v700h134l387 -523h-28q-4 31 -7 60.5t-5.5 60t-4 63t-2.5 69t-1 79.5v191h147v-700h-136l-395 528l38 -1q5 -52 8.5 -88.5t6 -63.5t3.5 -47t1.5 -38t0.5 -38v-252h-147zM402 757q-42 0 -64.5 21t-22.5 56q0 32 22.5 54.5t64.5 22.5t64.5 -20.5t22.5 -56.5
q0 -31 -22.5 -54t-64.5 -23z" />
    <glyph glyph-name="uni1E45" unicode="&#x1e45;" horiz-adv-x="622" 
d="M71 0v529h136l4 -108l-28 -12q11 36 39.5 65.5t68.5 47.5t84 18q60 0 100.5 -24t61 -72.5t20.5 -119.5v-324h-142v313q0 36 -10 60t-30.5 35t-50.5 10q-24 0 -44.5 -7.5t-35 -21.5t-23 -32t-8.5 -39v-318h-70h-41h-31zM342 638q-41 0 -64 20t-23 57q0 34 23.5 55.5
t63.5 21.5q41 0 64 -20t23 -57q0 -34 -23.5 -55.5t-63.5 -21.5z" />
    <glyph glyph-name="uni1E46" unicode="&#x1e46;" horiz-adv-x="802" 
d="M91 0v700h134l387 -523h-28q-4 31 -7 60.5t-5.5 60t-4 63t-2.5 69t-1 79.5v191h147v-700h-136l-395 528l38 -1q5 -52 8.5 -88.5t6 -63.5t3.5 -47t1.5 -38t0.5 -38v-252h-147zM402 -218q-42 0 -65 20.5t-23 58.5q0 34 23.5 56t64.5 22q42 0 65 -20.5t23 -57.5
q0 -35 -23.5 -57t-64.5 -22z" />
    <glyph glyph-name="uni1E47" unicode="&#x1e47;" horiz-adv-x="622" 
d="M71 0v529h136l4 -108l-28 -12q11 36 39.5 65.5t68.5 47.5t84 18q60 0 100.5 -24t61 -72.5t20.5 -119.5v-324h-142v313q0 36 -10 60t-30.5 35t-50.5 10q-24 0 -44.5 -7.5t-35 -21.5t-23 -32t-8.5 -39v-318h-70h-41h-31zM312 -218q-42 0 -65 20.5t-23 58.5q0 34 23.5 56
t64.5 22q42 0 65 -20.5t23 -57.5q0 -35 -23.5 -57t-64.5 -22z" />
    <glyph glyph-name="uni1E48" unicode="&#x1e48;" horiz-adv-x="802" 
d="M91 0v700h134l387 -523h-28q-4 31 -7 60.5t-5.5 60t-4 63t-2.5 69t-1 79.5v191h147v-700h-136l-395 528l38 -1q5 -52 8.5 -88.5t6 -63.5t3.5 -47t1.5 -38t0.5 -38v-252h-147zM252 -192v104h298v-104h-298z" />
    <glyph glyph-name="uni1E49" unicode="&#x1e49;" horiz-adv-x="622" 
d="M71 0v529h136l4 -108l-28 -12q11 36 39.5 65.5t68.5 47.5t84 18q60 0 100.5 -24t61 -72.5t20.5 -119.5v-324h-142v313q0 36 -10 60t-30.5 35t-50.5 10q-24 0 -44.5 -7.5t-35 -21.5t-23 -32t-8.5 -39v-318h-70h-41h-31zM162 -192v104h298v-104h-298z" />
    <glyph glyph-name="uni1E4C" unicode="&#x1e4c;" horiz-adv-x="802" 
d="M402 -10q-78 0 -143 27t-113.5 75.5t-74.5 115t-26 144.5q0 79 26 145t74.5 114.5t113.5 75.5t142 27q78 0 142.5 -27t113 -76t74.5 -115t26 -144t-26 -144t-74.5 -115t-113 -76t-141.5 -27zM401 132q45 0 82 16.5t64 46t42.5 69.5t15.5 88t-15.5 88t-42.5 69.5t-64 46
t-82 16.5q-44 0 -81 -16.5t-65 -46t-42.5 -69.5t-14.5 -88t14.5 -88t42.5 -69.5t65 -46t81 -16.5zM477 768q-21 0 -42 6.5t-44 16.5q-18 7 -30.5 11.5t-22.5 4.5q-13 0 -21.5 -10t-8.5 -29h-93q0 63 36 98t88 35q18 0 36.5 -5.5t42.5 -17.5q16 -7 27.5 -11t20.5 -4
q14 0 21.5 10.5t6.5 27.5h92q0 -36 -13.5 -66.5t-38 -48.5t-57.5 -18zM320 927l-34 71l200 115l52 -109z" />
    <glyph glyph-name="uni1E4D" unicode="&#x1e4d;" horiz-adv-x="633" 
d="M317 -10q-81 0 -144.5 35.5t-100 97.5t-36.5 142t36.5 142t100 97.5t144.5 35.5q80 0 143.5 -35.5t99.5 -97.5t36 -142t-36 -142t-99.5 -97.5t-143.5 -35.5zM317 114q39 0 70 19.5t48.5 54t16.5 77.5q1 44 -16.5 78.5t-48.5 54t-70 19.5q-40 0 -71 -20t-49 -54t-17 -78
q-1 -43 17 -77.5t49 -54t71 -19.5zM379 614q-18 0 -34 7t-37 21q-18 15 -28 21t-18 6q-14 0 -24.5 -12.5t-13.5 -38.5l-83 11q2 54 32.5 93t81.5 39q18 0 34 -6.5t36 -21.5q15 -12 26 -19.5t21 -7.5q14 0 24 13.5t13 37.5l82 -12q0 -34 -14.5 -64.5t-39 -48.5t-58.5 -18z
M328 779l-63 42l93 157l94 -68z" />
    <glyph glyph-name="uni1E4E" unicode="&#x1e4e;" horiz-adv-x="802" 
d="M402 -10q-78 0 -143 27t-113.5 75.5t-74.5 115t-26 144.5q0 79 26 145t74.5 114.5t113.5 75.5t142 27q78 0 142.5 -27t113 -76t74.5 -115t26 -144t-26 -144t-74.5 -115t-113 -76t-141.5 -27zM401 132q45 0 82 16.5t64 46t42.5 69.5t15.5 88t-15.5 88t-42.5 69.5t-64 46
t-82 16.5q-44 0 -81 -16.5t-65 -46t-42.5 -69.5t-14.5 -88t14.5 -88t42.5 -69.5t65 -46t81 -16.5zM477 768q-21 0 -42 6.5t-44 16.5q-18 7 -30.5 11.5t-22.5 4.5q-13 0 -21.5 -10t-8.5 -29h-93q0 63 36 98t88 35q18 0 36.5 -5.5t42.5 -17.5q16 -7 27.5 -11t20.5 -4
q14 0 21.5 10.5t6.5 27.5h92q0 -36 -13.5 -66.5t-38 -48.5t-57.5 -18zM517 932q-40 0 -60.5 21.5t-20.5 57.5q0 33 21 56t60 23q40 0 60.5 -21t20.5 -58q0 -32 -21 -55.5t-60 -23.5zM286 932q-41 0 -61.5 21.5t-20.5 57.5q0 33 21 56t61 23t60.5 -21t20.5 -58
q0 -32 -21 -55.5t-60 -23.5z" />
    <glyph glyph-name="uni1E4F" unicode="&#x1e4f;" horiz-adv-x="633" 
d="M317 -10q-81 0 -144.5 35.5t-100 97.5t-36.5 142t36.5 142t100 97.5t144.5 35.5q80 0 143.5 -35.5t99.5 -97.5t36 -142t-36 -142t-99.5 -97.5t-143.5 -35.5zM317 114q39 0 70 19.5t48.5 54t16.5 77.5q1 44 -16.5 78.5t-48.5 54t-70 19.5q-40 0 -71 -20t-49 -54t-17 -78
q-1 -43 17 -77.5t49 -54t71 -19.5zM427 809q-38 0 -58.5 19t-20.5 54q0 32 21.5 52.5t57.5 20.5q38 0 58.5 -19t20.5 -54q0 -32 -21 -52.5t-58 -20.5zM205 809q-38 0 -58.5 19t-20.5 54q0 32 21.5 52.5t57.5 20.5q38 0 58.5 -19t20.5 -54q0 -32 -21.5 -52.5t-57.5 -20.5z
M379 614q-18 0 -34 7t-37 21q-18 15 -28.5 21t-17.5 6q-14 0 -24.5 -12.5t-13.5 -38.5l-83 11q1 54 31.5 93t82.5 39q18 0 33.5 -6.5t35.5 -21.5q16 -12 27 -19.5t21 -7.5q14 0 24 13.5t13 37.5l82 -12q-1 -34 -15 -64.5t-39 -48.5t-58 -18z" />
    <glyph glyph-name="uni1E50" unicode="&#x1e50;" horiz-adv-x="802" 
d="M402 -10q-78 0 -143 27t-113.5 75.5t-74.5 115t-26 144.5q0 79 26 145t74.5 114.5t113.5 75.5t142 27q78 0 142.5 -27t113 -76t74.5 -115t26 -144t-26 -144t-74.5 -115t-113 -76t-141.5 -27zM401 132q45 0 82 16.5t64 46t42.5 69.5t15.5 88t-15.5 88t-42.5 69.5t-64 46
t-82 16.5q-44 0 -81 -16.5t-65 -46t-42.5 -69.5t-14.5 -88t14.5 -88t42.5 -69.5t65 -46t81 -16.5zM226 788v93h349v-93h-349zM492 927l-219 77l53 109l201 -115z" />
    <glyph glyph-name="uni1E51" unicode="&#x1e51;" horiz-adv-x="633" 
d="M317 -10q-81 0 -144.5 35.5t-100 97.5t-36.5 142t36.5 142t100 97.5t144.5 35.5q80 0 143.5 -35.5t99.5 -97.5t36 -142t-36 -142t-99.5 -97.5t-143.5 -35.5zM317 114q39 0 70 19.5t48.5 54t16.5 77.5q1 44 -16.5 78.5t-48.5 54t-70 19.5q-40 0 -71 -20t-49 -54t-17 -78
q-1 -43 17 -77.5t49 -54t71 -19.5zM329 767l-124 131l93 68l93 -158zM157 631v92h320v-92h-320z" />
    <glyph glyph-name="uni1E52" unicode="&#x1e52;" horiz-adv-x="802" 
d="M402 -10q-78 0 -143 27t-113.5 75.5t-74.5 115t-26 144.5q0 79 26 145t74.5 114.5t113.5 75.5t142 27q78 0 142.5 -27t113 -76t74.5 -115t26 -144t-26 -144t-74.5 -115t-113 -76t-141.5 -27zM401 132q45 0 82 16.5t64 46t42.5 69.5t15.5 88t-15.5 88t-42.5 69.5t-64 46
t-82 16.5q-44 0 -81 -16.5t-65 -46t-42.5 -69.5t-14.5 -88t14.5 -88t42.5 -69.5t65 -46t81 -16.5zM226 788v93h349v-93h-349zM320 927l-34 71l200 115l52 -109z" />
    <glyph glyph-name="uni1E53" unicode="&#x1e53;" horiz-adv-x="633" 
d="M317 -10q-81 0 -144.5 35.5t-100 97.5t-36.5 142t36.5 142t100 97.5t144.5 35.5q80 0 143.5 -35.5t99.5 -97.5t36 -142t-36 -142t-99.5 -97.5t-143.5 -35.5zM317 114q39 0 70 19.5t48.5 54t16.5 77.5q1 44 -16.5 78.5t-48.5 54t-70 19.5q-40 0 -71 -20t-49 -54t-17 -78
q-1 -43 17 -77.5t49 -54t71 -19.5zM157 631v92h320v-92h-320zM321 767l-62 41l93 158l93 -68z" />
    <glyph glyph-name="uni1E5A" unicode="&#x1e5a;" horiz-adv-x="700" 
d="M91 0v700h310q65 0 118 -29.5t83.5 -79.5t30.5 -114q0 -63 -30.5 -114.5t-83.5 -81.5t-118 -30h-165v-251h-145zM488 0l-178 316l154 25l198 -342zM236 373h158q27 0 47.5 12.5t31.5 35t11 50.5q0 30 -13 52t-38 34.5t-58 12.5h-139v-197zM350 -218q-42 0 -65 20.5
t-23 58.5q0 34 23.5 56t64.5 22q42 0 65 -20.5t23 -57.5q0 -35 -23.5 -57t-64.5 -22z" />
    <glyph glyph-name="uni1E5B" unicode="&#x1e5b;" horiz-adv-x="438" 
d="M71 0v529h137l5 -170l-24 35q12 41 39 74.5t63.5 52.5t76.5 19q17 0 33 -3t27 -7l-38 -156q-11 6 -28.5 10.5t-35.5 4.5q-24 0 -44.5 -8.5t-35.5 -24t-23.5 -36.5t-8.5 -46v-274h-143zM140 -218q-42 0 -65 20.5t-23 58.5q0 34 23.5 56t64.5 22q42 0 65 -20.5t23 -57.5
q0 -35 -23.5 -57t-64.5 -22z" />
    <glyph glyph-name="uni1E5E" unicode="&#x1e5e;" horiz-adv-x="700" 
d="M91 0v700h310q65 0 118 -29.5t83.5 -79.5t30.5 -114q0 -63 -30.5 -114.5t-83.5 -81.5t-118 -30h-165v-251h-145zM488 0l-178 316l154 25l198 -342zM236 373h158q27 0 47.5 12.5t31.5 35t11 50.5q0 30 -13 52t-38 34.5t-58 12.5h-139v-197zM201 -192v104h298v-104h-298z
" />
    <glyph glyph-name="uni1E5F" unicode="&#x1e5f;" horiz-adv-x="438" 
d="M71 0v529h137l5 -170l-24 35q12 41 39 74.5t63.5 52.5t76.5 19q17 0 33 -3t27 -7l-38 -156q-11 6 -28.5 10.5t-35.5 4.5q-24 0 -44.5 -8.5t-35.5 -24t-23.5 -36.5t-8.5 -46v-274h-143zM-10 -192v104h298v-104h-298z" />
    <glyph glyph-name="uni1E60" unicode="&#x1e60;" horiz-adv-x="631" 
d="M318 -10q-65 0 -118.5 16t-95 47t-74.5 75l94 107q49 -68 97.5 -92.5t105.5 -24.5q31 0 55.5 9t38.5 24.5t14 37.5q0 16 -7 29.5t-20 24t-31 19t-40 15t-48 10.5q-56 13 -98 31.5t-70 46t-41.5 62.5t-13.5 79q0 45 20 83.5t55.5 66.5t82 43t98.5 15q64 0 112 -14
t83.5 -41.5t59.5 -66.5l-95 -92q-21 28 -45.5 47t-53 28.5t-58.5 9.5q-33 0 -57 -8.5t-37.5 -25t-13.5 -38.5q0 -18 9 -32t26 -24.5t41 -18.5t53 -14q55 -11 99 -29t75.5 -43.5t48.5 -60t17 -77.5q0 -71 -34 -121t-94 -76.5t-140 -26.5zM332 757q-42 0 -64.5 21t-22.5 56
q0 32 22.5 54.5t64.5 22.5t64.5 -20.5t22.5 -56.5q0 -31 -22.5 -54t-64.5 -23z" />
    <glyph glyph-name="uni1E61" unicode="&#x1e61;" horiz-adv-x="490" 
d="M249 -10q-74 0 -131.5 24.5t-92.5 67.5l89 76q30 -33 68 -47.5t76 -14.5q15 0 27.5 3.5t21.5 10t13.5 16t4.5 20.5q0 22 -18 34q-10 6 -31 13.5t-54 16.5q-51 13 -86.5 30.5t-56.5 39.5q-18 21 -27.5 45.5t-9.5 54.5q0 36 16 65.5t44.5 50.5t65.5 32.5t78 11.5t80 -10
t72.5 -28.5t58.5 -43.5l-76 -84q-18 17 -40.5 31t-46.5 22t-43 8q-17 0 -30.5 -3t-22.5 -9.5t-13.5 -15.5t-4.5 -20t5.5 -21t15.5 -17q11 -6 32.5 -14t58.5 -18q48 -13 81.5 -29t53.5 -37q17 -18 25 -41t8 -51q0 -49 -27.5 -87t-75.5 -60t-108 -22zM245 638q-41 0 -64 20
t-23 57q0 34 23.5 55.5t63.5 21.5q41 0 64 -20t23 -57q0 -34 -23.5 -55.5t-63.5 -21.5z" />
    <glyph glyph-name="uni1E62" unicode="&#x1e62;" horiz-adv-x="631" 
d="M318 -10q-65 0 -118.5 16t-95 47t-74.5 75l94 107q49 -68 97.5 -92.5t105.5 -24.5q31 0 55.5 9t38.5 24.5t14 37.5q0 16 -7 29.5t-20 24t-31 19t-40 15t-48 10.5q-56 13 -98 31.5t-70 46t-41.5 62.5t-13.5 79q0 45 20 83.5t55.5 66.5t82 43t98.5 15q64 0 112 -14
t83.5 -41.5t59.5 -66.5l-95 -92q-21 28 -45.5 47t-53 28.5t-58.5 9.5q-33 0 -57 -8.5t-37.5 -25t-13.5 -38.5q0 -18 9 -32t26 -24.5t41 -18.5t53 -14q55 -11 99 -29t75.5 -43.5t48.5 -60t17 -77.5q0 -71 -34 -121t-94 -76.5t-140 -26.5zM336 -218q-42 0 -65 20.5t-23 58.5
q0 34 23.5 56t64.5 22q42 0 65 -20.5t23 -57.5q0 -35 -23.5 -57t-64.5 -22z" />
    <glyph glyph-name="uni1E63" unicode="&#x1e63;" horiz-adv-x="490" 
d="M249 -10q-74 0 -131.5 24.5t-92.5 67.5l89 76q30 -33 68 -47.5t76 -14.5q15 0 27.5 3.5t21.5 10t13.5 16t4.5 20.5q0 22 -18 34q-10 6 -31 13.5t-54 16.5q-51 13 -86.5 30.5t-56.5 39.5q-18 21 -27.5 45.5t-9.5 54.5q0 36 16 65.5t44.5 50.5t65.5 32.5t78 11.5t80 -10
t72.5 -28.5t58.5 -43.5l-76 -84q-18 17 -40.5 31t-46.5 22t-43 8q-17 0 -30.5 -3t-22.5 -9.5t-13.5 -15.5t-4.5 -20t5.5 -21t15.5 -17q11 -6 32.5 -14t58.5 -18q48 -13 81.5 -29t53.5 -37q17 -18 25 -41t8 -51q0 -49 -27.5 -87t-75.5 -60t-108 -22zM251 -218q-42 0 -65 20.5
t-23 58.5q0 34 23.5 56t64.5 22q42 0 65 -20.5t23 -57.5q0 -35 -23.5 -57t-64.5 -22z" />
    <glyph glyph-name="uni1E64" unicode="&#x1e64;" horiz-adv-x="631" 
d="M318 -10q-65 0 -118.5 16t-95 47t-74.5 75l94 107q49 -68 97.5 -92.5t105.5 -24.5q31 0 55.5 9t38.5 24.5t14 37.5q0 16 -7 29.5t-20 24t-31 19t-40 15t-48 10.5q-56 13 -98 31.5t-70 46t-41.5 62.5t-13.5 79q0 45 20 83.5t55.5 66.5t82 43t98.5 15q64 0 112 -14
t83.5 -41.5t59.5 -66.5l-95 -92q-21 28 -45.5 47t-53 28.5t-58.5 9.5q-33 0 -57 -8.5t-37.5 -25t-13.5 -38.5q0 -18 9 -32t26 -24.5t41 -18.5t53 -14q55 -11 99 -29t75.5 -43.5t48.5 -60t17 -77.5q0 -71 -34 -121t-94 -76.5t-140 -26.5zM413 751l-62 42l93 157l93 -67z
M241 756q-39 0 -60.5 19t-21.5 54q0 32 22 52t60 20q39 0 60.5 -18.5t21.5 -53.5q0 -32 -22 -52.5t-60 -20.5z" />
    <glyph glyph-name="uni1E65" unicode="&#x1e65;" horiz-adv-x="490" 
d="M249 -10q-74 0 -131.5 24.5t-92.5 67.5l89 76q30 -33 68 -47.5t76 -14.5q15 0 27.5 3.5t21.5 10t13.5 16t4.5 20.5q0 22 -18 34q-10 6 -31 13.5t-54 16.5q-51 13 -86.5 30.5t-56.5 39.5q-18 21 -27.5 45.5t-9.5 54.5q0 36 16 65.5t44.5 50.5t65.5 32.5t78 11.5t80 -10
t72.5 -28.5t58.5 -43.5l-76 -84q-18 17 -40.5 31t-46.5 22t-43 8q-17 0 -30.5 -3t-22.5 -9.5t-13.5 -15.5t-4.5 -20t5.5 -21t15.5 -17q11 -6 32.5 -14t58.5 -18q48 -13 81.5 -29t53.5 -37q17 -18 25 -41t8 -51q0 -49 -27.5 -87t-75.5 -60t-108 -22zM326 621l-62 42l93 157
l93 -67zM154 626q-39 0 -60.5 19t-21.5 54q0 32 22 52t60 20q39 0 60.5 -19t21.5 -53q0 -33 -22 -53t-60 -20z" />
    <glyph glyph-name="uni1E66" unicode="&#x1e66;" horiz-adv-x="631" 
d="M318 -10q-65 0 -118.5 16t-95 47t-74.5 75l94 107q49 -68 97.5 -92.5t105.5 -24.5q31 0 55.5 9t38.5 24.5t14 37.5q0 16 -7 29.5t-20 24t-31 19t-40 15t-48 10.5q-56 13 -98 31.5t-70 46t-41.5 62.5t-13.5 79q0 45 20 83.5t55.5 66.5t82 43t98.5 15q64 0 112 -14
t83.5 -41.5t59.5 -66.5l-95 -92q-21 28 -45.5 47t-53 28.5t-58.5 9.5q-33 0 -57 -8.5t-37.5 -25t-13.5 -38.5q0 -18 9 -32t26 -24.5t41 -18.5t53 -14q55 -11 99 -29t75.5 -43.5t48.5 -60t17 -77.5q0 -71 -34 -121t-94 -76.5t-140 -26.5zM286 755l-130 107l46 48l145 -68h-30
l145 68l46 -48l-130 -107h-92zM332 934q-42 0 -64.5 21t-22.5 56q0 32 22.5 54.5t64.5 22.5t64.5 -20.5t22.5 -56.5q0 -31 -22.5 -54t-64.5 -23z" />
    <glyph glyph-name="uni1E67" unicode="&#x1e67;" horiz-adv-x="490" 
d="M249 -10q-74 0 -131.5 24.5t-92.5 67.5l89 76q30 -33 68 -47.5t76 -14.5q15 0 27.5 3.5t21.5 10t13.5 16t4.5 20.5q0 22 -18 34q-10 6 -31 13.5t-54 16.5q-51 13 -86.5 30.5t-56.5 39.5q-18 21 -27.5 45.5t-9.5 54.5q0 36 16 65.5t44.5 50.5t65.5 32.5t78 11.5t80 -10
t72.5 -28.5t58.5 -43.5l-76 -84q-18 17 -40.5 31t-46.5 22t-43 8q-17 0 -30.5 -3t-22.5 -9.5t-13.5 -15.5t-4.5 -20t5.5 -21t15.5 -17q11 -6 32.5 -14t58.5 -18q48 -13 81.5 -29t53.5 -37q17 -18 25 -41t8 -51q0 -49 -27.5 -87t-75.5 -60t-108 -22zM199 603l-129 125l51 44
l139 -82h-30l139 82l51 -44l-129 -125h-92zM245 788q-41 0 -64 20.5t-23 56.5q0 35 23.5 56.5t63.5 21.5q41 0 64 -20.5t23 -57.5q0 -34 -23.5 -55.5t-63.5 -21.5z" />
    <glyph glyph-name="uni1E68" unicode="&#x1e68;" horiz-adv-x="631" 
d="M318 -10q-65 0 -118.5 16t-95 47t-74.5 75l94 107q49 -68 97.5 -92.5t105.5 -24.5q31 0 55.5 9t38.5 24.5t14 37.5q0 16 -7 29.5t-20 24t-31 19t-40 15t-48 10.5q-56 13 -98 31.5t-70 46t-41.5 62.5t-13.5 79q0 45 20 83.5t55.5 66.5t82 43t98.5 15q64 0 112 -14
t83.5 -41.5t59.5 -66.5l-95 -92q-21 28 -45.5 47t-53 28.5t-58.5 9.5q-33 0 -57 -8.5t-37.5 -25t-13.5 -38.5q0 -18 9 -32t26 -24.5t41 -18.5t53 -14q55 -11 99 -29t75.5 -43.5t48.5 -60t17 -77.5q0 -71 -34 -121t-94 -76.5t-140 -26.5zM336 -218q-42 0 -65 20.5t-23 58.5
q0 34 23.5 56t64.5 22q42 0 65 -20.5t23 -57.5q0 -35 -23.5 -57t-64.5 -22zM332 757q-42 0 -64.5 21t-22.5 56q0 32 22.5 54.5t64.5 22.5t64.5 -20.5t22.5 -56.5q0 -31 -22.5 -54t-64.5 -23z" />
    <glyph glyph-name="uni1E69" unicode="&#x1e69;" horiz-adv-x="490" 
d="M249 -10q-74 0 -131.5 24.5t-92.5 67.5l89 76q30 -33 68 -47.5t76 -14.5q15 0 27.5 3.5t21.5 10t13.5 16t4.5 20.5q0 22 -18 34q-10 6 -31 13.5t-54 16.5q-51 13 -86.5 30.5t-56.5 39.5q-18 21 -27.5 45.5t-9.5 54.5q0 36 16 65.5t44.5 50.5t65.5 32.5t78 11.5t80 -10
t72.5 -28.5t58.5 -43.5l-76 -84q-18 17 -40.5 31t-46.5 22t-43 8q-17 0 -30.5 -3t-22.5 -9.5t-13.5 -15.5t-4.5 -20t5.5 -21t15.5 -17q11 -6 32.5 -14t58.5 -18q48 -13 81.5 -29t53.5 -37q17 -18 25 -41t8 -51q0 -49 -27.5 -87t-75.5 -60t-108 -22zM251 -218q-42 0 -65 20.5
t-23 58.5q0 34 23.5 56t64.5 22q42 0 65 -20.5t23 -57.5q0 -35 -23.5 -57t-64.5 -22zM245 638q-41 0 -64 20t-23 57q0 34 23.5 55.5t63.5 21.5q41 0 64 -20t23 -57q0 -34 -23.5 -55.5t-63.5 -21.5z" />
    <glyph glyph-name="uni1E6C" unicode="&#x1e6c;" horiz-adv-x="630" 
d="M237 0v565h-204v135h564v-135h-210v-565h-150zM315 -218q-42 0 -65 20.5t-23 58.5q0 34 23.5 56t64.5 22q42 0 65 -20.5t23 -57.5q0 -35 -23.5 -57t-64.5 -22z" />
    <glyph glyph-name="uni1E6D" unicode="&#x1e6d;" horiz-adv-x="394" 
d="M122 0v663h142v-663h-142zM23 402v127h350v-127h-350zM197 -218q-42 0 -65 20.5t-23 58.5q0 34 23.5 56t64.5 22q42 0 65 -20.5t23 -57.5q0 -35 -23.5 -57t-64.5 -22z" />
    <glyph glyph-name="uni1E6E" unicode="&#x1e6e;" horiz-adv-x="630" 
d="M237 0v565h-204v135h564v-135h-210v-565h-150zM165 -192v104h298v-104h-298z" />
    <glyph glyph-name="uni1E6F" unicode="&#x1e6f;" horiz-adv-x="394" 
d="M122 0v663h142v-663h-142zM23 402v127h350v-127h-350zM47 -192v104h298v-104h-298z" />
    <glyph glyph-name="uni1E78" unicode="&#x1e78;" horiz-adv-x="757" 
d="M379 -6q-85 0 -151.5 35.5t-104.5 98t-38 141.5v432h151v-423q0 -42 19 -75.5t51.5 -53.5t72.5 -20q41 0 74.5 20t53 53.5t19.5 75.5v423h146v-432q0 -79 -37.5 -141.5t-104.5 -98t-151 -35.5zM455 768q-21 0 -42 6.5t-44 16.5q-18 7 -30.5 11.5t-22.5 4.5
q-13 0 -21.5 -10t-8.5 -29h-93q0 63 36 98t88 35q18 0 36.5 -5.5t42.5 -17.5q16 -7 27.5 -11t20.5 -4q14 0 21.5 10.5t6.5 27.5h92q0 -36 -13.5 -66.5t-38 -48.5t-57.5 -18zM297 927l-34 71l200 115l52 -109z" />
    <glyph glyph-name="uni1E79" unicode="&#x1e79;" horiz-adv-x="630" 
d="M253 -10q-58 0 -99.5 25.5t-64 73t-22.5 114.5v326h142v-303q0 -36 12 -62.5t34 -40.5t54 -14q23 0 42.5 7.5t34 21.5t22.5 33t8 41v317h142v-529h-135l-5 109l26 12q-12 -37 -40 -67t-67 -47t-84 -17zM378 614q-18 0 -34 7t-37 21q-18 15 -28 21t-18 6
q-14 0 -24.5 -12.5t-13.5 -38.5l-83 11q2 54 32.5 93t81.5 39q18 0 34 -6.5t36 -21.5q15 -12 26 -19.5t21 -7.5q14 0 24 13.5t13 37.5l82 -12q0 -34 -14.5 -64.5t-39 -48.5t-58.5 -18zM327 779l-63 42l93 157l94 -68z" />
    <glyph glyph-name="uni1E7A" unicode="&#x1e7a;" horiz-adv-x="757" 
d="M379 -6q-85 0 -151.5 35.5t-104.5 98t-38 141.5v432h151v-423q0 -42 19 -75.5t51.5 -53.5t72.5 -20q41 0 74.5 20t53 53.5t19.5 75.5v423h146v-432q0 -79 -37.5 -141.5t-104.5 -98t-151 -35.5zM204 788v93h349v-93h-349zM494 932q-40 0 -60.5 21.5t-20.5 57.5q0 33 21 56
t60 23q40 0 60.5 -21t20.5 -58q0 -32 -21 -55.5t-60 -23.5zM263 932q-41 0 -61.5 21.5t-20.5 57.5q0 33 21 56t61 23t60.5 -21t20.5 -58q0 -32 -21 -55.5t-60 -23.5z" />
    <glyph glyph-name="uni1E7B" unicode="&#x1e7b;" horiz-adv-x="630" 
d="M253 -10q-58 0 -99.5 25.5t-64 73t-22.5 114.5v326h142v-303q0 -36 12 -62.5t34 -40.5t54 -14q23 0 42.5 7.5t34 21.5t22.5 33t8 41v317h142v-529h-135l-5 109l26 12q-12 -37 -40 -67t-67 -47t-84 -17zM155 641v92h320v-92h-320zM429 801q-39 0 -60 20.5t-21 58.5
q0 35 22 56.5t59 21.5q39 0 60 -20t21 -58q0 -35 -22 -57t-59 -22zM201 801q-38 0 -59.5 20.5t-21.5 58.5q0 35 22 56.5t59 21.5q39 0 60 -20t21 -58q0 -35 -21.5 -57t-59.5 -22z" />
    <glyph glyph-name="Wgrave" unicode="&#x1e80;" horiz-adv-x="994" 
d="M224 0l-213 700h154l114 -391q7 -21 12.5 -45.5t9 -47t6 -42t4.5 -32.5l-24 1q9 42 15 70.5t11.5 51t13.5 45.5l110 289h124l108 -289q12 -30 19.5 -57.5t12.5 -53t9 -51.5l-21 -4q3 21 4.5 36.5t3 28.5t3.5 26.5t6 32t12 43.5l113 389h152l-215 -700h-112l-172 414
l16 -2l-161 -412h-115zM588 750l-219 77l53 109l201 -115z" />
    <glyph glyph-name="wgrave" unicode="&#x1e81;" horiz-adv-x="823" 
d="M192 0l-177 529l148 1l108 -361l-22 3l119 281h84l124 -282l-24 -2l108 360h148l-180 -529h-103l-125 301l16 -2l-122 -299h-102zM468 595l-195 105l71 97l167 -136z" />
    <glyph glyph-name="Wacute" unicode="&#x1e82;" horiz-adv-x="994" 
d="M224 0l-213 700h154l114 -391q7 -21 12.5 -45.5t9 -47t6 -42t4.5 -32.5l-24 1q9 42 15 70.5t11.5 51t13.5 45.5l110 289h124l108 -289q12 -30 19.5 -57.5t12.5 -53t9 -51.5l-21 -4q3 21 4.5 36.5t3 28.5t3.5 26.5t6 32t12 43.5l113 389h152l-215 -700h-112l-172 414
l16 -2l-161 -412h-115zM415 750l-34 71l200 115l52 -109z" />
    <glyph glyph-name="wacute" unicode="&#x1e83;" horiz-adv-x="823" 
d="M192 0l-177 529l148 1l108 -361l-22 3l119 281h84l124 -282l-24 -2l108 360h148l-180 -529h-103l-125 301l16 -2l-122 -299h-102zM336 594l-43 66l167 137l71 -98z" />
    <glyph glyph-name="Wdieresis" unicode="&#x1e84;" horiz-adv-x="994" 
d="M224 0l-213 700h154l114 -391q7 -21 12.5 -45.5t9 -47t6 -42t4.5 -32.5l-24 1q9 42 15 70.5t11.5 51t13.5 45.5l110 289h124l108 -289q12 -30 19.5 -57.5t12.5 -53t9 -51.5l-21 -4q3 21 4.5 36.5t3 28.5t3.5 26.5t6 32t12 43.5l113 389h152l-215 -700h-112l-172 414
l16 -2l-161 -412h-115zM612 755q-40 0 -60.5 21.5t-20.5 57.5q0 33 21 56t60 23q40 0 60.5 -21t20.5 -58q0 -32 -21 -55.5t-60 -23.5zM381 755q-41 0 -61.5 21.5t-20.5 57.5q0 33 21 56t61 23t60.5 -21t20.5 -58q0 -32 -21 -55.5t-60 -23.5z" />
    <glyph glyph-name="wdieresis" unicode="&#x1e85;" horiz-adv-x="823" 
d="M192 0l-177 529l148 1l108 -361l-22 3l119 281h84l124 -282l-24 -2l108 360h148l-180 -529h-103l-125 301l16 -2l-122 -299h-102zM525 635q-39 0 -60 20.5t-21 58.5q0 35 22 56.5t59 21.5q39 0 60 -20t21 -58q0 -35 -22 -57t-59 -22zM297 635q-38 0 -59.5 20.5
t-21.5 58.5q0 35 22 56.5t59 21.5q39 0 60 -20t21 -58q0 -35 -21.5 -57t-59.5 -22z" />
    <glyph glyph-name="uni1E8E" unicode="&#x1e8e;" horiz-adv-x="679" 
d="M274 0v349l7 -49l-283 400h173l216 -310l-68 3l195 307h167l-271 -411l15 68v-357h-151zM340 757q-42 0 -64.5 21t-22.5 56q0 32 22.5 54.5t64.5 22.5t64.5 -20.5t22.5 -56.5q0 -31 -22.5 -54t-64.5 -23z" />
    <glyph glyph-name="uni1E8F" unicode="&#x1e8f;" horiz-adv-x="607" 
d="M145 -230l116 272l2 -82l-258 569h161l129 -305q8 -17 15.5 -39.5t12.5 -42.5l-24 -11q7 17 14.5 39t15.5 47l111 312h162l-222 -529l-91 -230h-144zM304 638q-41 0 -64 20t-23 57q0 34 23.5 55.5t63.5 21.5q41 0 64 -20t23 -57q0 -34 -23.5 -55.5t-63.5 -21.5z" />
    <glyph glyph-name="uni1E92" unicode="&#x1e92;" horiz-adv-x="675" 
d="M60 0v102l383 511l45 -52h-402v139h521v-101l-381 -512l-46 47h438v-134h-558zM338 -218q-42 0 -65 20.5t-23 58.5q0 34 23.5 56t64.5 22q42 0 65 -20.5t23 -57.5q0 -35 -23.5 -57t-64.5 -22z" />
    <glyph glyph-name="uni1E93" unicode="&#x1e93;" horiz-adv-x="529" 
d="M50 0v90l279 362v-40h-279v117h422v-92l-267 -353l-4 33h278v-117h-429zM265 -218q-42 0 -65 20.5t-23 58.5q0 34 23.5 56t64.5 22q42 0 65 -20.5t23 -57.5q0 -35 -23.5 -57t-64.5 -22z" />
    <glyph glyph-name="uni1E97" unicode="&#x1e97;" horiz-adv-x="394" 
d="M122 0v663h142v-663h-142zM23 402v127h350v-127h-350zM309 718q-39 0 -60 20.5t-21 58.5q0 35 22 56.5t59 21.5q39 0 60 -20t21 -58q0 -35 -22 -57t-59 -22zM81 718q-38 0 -59.5 20.5t-21.5 58.5q0 35 22 56.5t59 21.5q39 0 60 -20t21 -58q0 -35 -21.5 -57t-59.5 -22z
" />
    <glyph glyph-name="uni1E9E" unicode="&#x1e9e;" horiz-adv-x="795" 
d="M515 -10q-42 0 -82 11t-72.5 30.5t-53.5 43.5l84 99q26 -27 56.5 -43.5t59.5 -16.5q41 0 64.5 18.5t23.5 49.5q0 20 -11.5 35.5t-38 32.5t-71.5 41q-44 24 -70 47t-38 49.5t-12 60.5q0 37 16 67t44.5 53t65.5 36.5t79 15.5l52 -38q-31 11 -79.5 19t-90.5 8q-46 0 -82 -18
t-62 -52.5t-40.5 -83.5t-14.5 -112l-1 -342h-150l1 349q0 113 42.5 197.5t119 131.5t178.5 47q65 0 125.5 -10.5t114.5 -33.5l3 -104q-57 -7 -95 -22.5t-57 -35.5t-19 -44q0 -19 10.5 -34.5t31 -30t51.5 -29.5q49 -22 83 -45.5t52.5 -57.5t18.5 -89t-32.5 -100.5t-86 -72.5
t-117.5 -27z" />
    <glyph glyph-name="uni1EA0" unicode="&#x1ea0;" horiz-adv-x="696" 
d="M7 0l275 700h134l273 -700h-154l-141 377q-6 16 -14.5 41t-17.5 53t-17 53.5t-12 42.5h27q-6 -22 -13.5 -46.5t-15.5 -50t-17 -49.5t-17 -47l-141 -374h-149zM135 147l49 120h321l50 -120h-420zM348 -218q-42 0 -65 20.5t-23 58.5q0 34 23.5 56t64.5 22q42 0 65 -20.5
t23 -57.5q0 -35 -23.5 -57t-64.5 -22z" />
    <glyph glyph-name="uni1EA1" unicode="&#x1ea1;" horiz-adv-x="651" 
d="M269 -10q-66 0 -119 36t-84 98t-31 142t31.5 142t85.5 97t123 35q39 0 71.5 -11.5t57 -31.5t41.5 -46t24 -56l-30 5v129h141v-529h-143v127l32 3q-8 -28 -26 -53t-44.5 -44.5t-59.5 -31t-70 -11.5zM308 113q40 0 70 19t46.5 53.5t16.5 80.5q0 45 -16.5 79t-46.5 53.5
t-70 19.5q-39 0 -68.5 -19.5t-46.5 -53.5t-17 -79q0 -46 17 -80.5t46.5 -53.5t68.5 -19zM326 -218q-42 0 -65 20.5t-23 58.5q0 34 23.5 56t64.5 22q42 0 65 -20.5t23 -57.5q0 -35 -23.5 -57t-64.5 -22z" />
    <glyph glyph-name="uni1EA2" unicode="&#x1ea2;" horiz-adv-x="696" 
d="M7 0l275 700h134l273 -700h-154l-141 377q-6 16 -14.5 41t-17.5 53t-17 53.5t-12 42.5h27q-6 -22 -13.5 -46.5t-15.5 -50t-17 -49.5t-17 -47l-141 -374h-149zM135 147l49 120h321l50 -120h-420zM323 750q-7 9 -12.5 19.5t-5.5 21.5t6 22.5t24 23.5q15 10 22.5 16.5
t7.5 15.5t-8.5 13.5t-21.5 4.5q-19 0 -40 -6t-41 -14l-21 77q22 12 51.5 20t59.5 8q55 0 86.5 -24t31.5 -62q0 -30 -13 -46.5t-29 -25.5q-16 -10 -26 -18t-10 -18q0 -4 1 -7t2 -7z" />
    <glyph glyph-name="uni1EA3" unicode="&#x1ea3;" horiz-adv-x="651" 
d="M269 -10q-66 0 -119 36t-84 98t-31 142t31.5 142t85.5 97t123 35q39 0 71.5 -11.5t57 -31.5t41.5 -46t24 -56l-30 5v129h141v-529h-143v127l32 3q-8 -28 -26 -53t-44.5 -44.5t-59.5 -31t-70 -11.5zM308 113q40 0 70 19t46.5 53.5t16.5 80.5q0 45 -16.5 79t-46.5 53.5
t-70 19.5q-39 0 -68.5 -19.5t-46.5 -53.5t-17 -79q0 -46 17 -80.5t46.5 -53.5t68.5 -19zM301 592q-7 10 -12.5 20t-5.5 21t6 22.5t24 23.5q15 10 22.5 16.5t7.5 15.5t-8.5 13.5t-21.5 4.5q-19 0 -40 -5.5t-41 -14.5l-21 77q22 12 51.5 20t59.5 8q55 0 86.5 -24t31.5 -62
q0 -30 -13 -46.5t-29 -25.5q-16 -10 -26 -18t-10 -18q0 -4 1 -7t2 -7z" />
    <glyph glyph-name="uni1EA4" unicode="&#x1ea4;" horiz-adv-x="696" 
d="M7 0l275 700h134l273 -700h-154l-141 377q-6 16 -14.5 41t-17.5 53t-17 53.5t-12 42.5h27q-6 -22 -13.5 -46.5t-15.5 -50t-17 -49.5t-17 -47l-141 -374h-149zM135 147l49 120h321l50 -120h-420zM217 752l-41 49l129 100h85l129 -100l-41 -49l-145 64h29zM522 875l-60 41
l90 159l96 -69z" />
    <glyph glyph-name="uni1EA5" unicode="&#x1ea5;" horiz-adv-x="651" 
d="M269 -10q-66 0 -119 36t-84 98t-31 142t31.5 142t85.5 97t123 35q39 0 71.5 -11.5t57 -31.5t41.5 -46t24 -56l-30 5v129h141v-529h-143v127l32 3q-8 -28 -26 -53t-44.5 -44.5t-59.5 -31t-70 -11.5zM308 113q40 0 70 19t46.5 53.5t16.5 80.5q0 45 -16.5 79t-46.5 53.5
t-70 19.5q-39 0 -68.5 -19.5t-46.5 -53.5t-17 -79q0 -46 17 -80.5t46.5 -53.5t68.5 -19zM197 603l-44 47l127 110h92l127 -110l-45 -47l-143 70h30zM510 751l-60 42l91 159l96 -69z" />
    <glyph glyph-name="uni1EA6" unicode="&#x1ea6;" horiz-adv-x="696" 
d="M7 0l275 700h134l273 -700h-154l-141 377q-6 16 -14.5 41t-17.5 53t-17 53.5t-12 42.5h27q-6 -22 -13.5 -46.5t-15.5 -50t-17 -49.5t-17 -47l-141 -374h-149zM135 147l49 120h321l50 -120h-420zM217 752l-42 49l130 100h84l130 -100l-41 -49l-145 64h29zM515 875
l-129 132l95 70l92 -159z" />
    <glyph glyph-name="uni1EA7" unicode="&#x1ea7;" horiz-adv-x="651" 
d="M269 -10q-66 0 -119 36t-84 98t-31 142t31.5 142t85.5 97t123 35q39 0 71.5 -11.5t57 -31.5t41.5 -46t24 -56l-30 5v129h141v-529h-143v127l32 3q-8 -28 -26 -53t-44.5 -44.5t-59.5 -31t-70 -11.5zM308 113q40 0 70 19t46.5 53.5t16.5 80.5q0 45 -16.5 79t-46.5 53.5
t-70 19.5q-39 0 -68.5 -19.5t-46.5 -53.5t-17 -79q0 -46 17 -80.5t46.5 -53.5t68.5 -19zM197 603l-44 47l127 109h92l127 -109l-45 -47l-143 70h30zM490 750l-129 132l95 69l91 -158z" />
    <glyph glyph-name="uni1EA8" unicode="&#x1ea8;" horiz-adv-x="696" 
d="M7 0l275 700h134l273 -700h-154l-141 377q-6 16 -14.5 41t-17.5 53t-17 53.5t-12 42.5h27q-6 -22 -13.5 -46.5t-15.5 -50t-17 -49.5t-17 -47l-141 -374h-149zM135 147l49 120h321l50 -120h-420zM218 752l-42 49l130 100h84l130 -100l-41 -49l-145 64h29zM494 872
q-7 8 -12 18t-5 20t4.5 19t21.5 20q12 9 20 15.5t9 11.5q0 10 -9 14.5t-23 4.5q-19 0 -39.5 -5.5t-40.5 -13.5l-19 77q21 12 49.5 19t57.5 7q56 0 88.5 -24t32.5 -63q0 -27 -14.5 -41t-29.5 -24q-17 -9 -26.5 -16.5t-9.5 -15.5q0 -2 0.5 -4.5t1.5 -4.5z" />
    <glyph glyph-name="uni1EA9" unicode="&#x1ea9;" horiz-adv-x="651" 
d="M269 -10q-66 0 -119 36t-84 98t-31 142t31.5 142t85.5 97t123 35q39 0 71.5 -11.5t57 -31.5t41.5 -46t24 -56l-30 5v129h141v-529h-143v127l32 3q-8 -28 -26 -53t-44.5 -44.5t-59.5 -31t-70 -11.5zM308 113q40 0 70 19t46.5 53.5t16.5 80.5q0 45 -16.5 79t-46.5 53.5
t-70 19.5q-39 0 -68.5 -19.5t-46.5 -53.5t-17 -79q0 -46 17 -80.5t46.5 -53.5t68.5 -19zM197 603l-45 47l127 110h93l126 -110l-44 -47l-144 70h30zM477 741q-8 10 -12.5 20t-4.5 20t5.5 20.5t20.5 20.5q14 9 21 15.5t8 14.5q0 9 -9 13.5t-23 4.5q-19 0 -39.5 -4.5
t-40.5 -14.5l-19 78q21 12 49.5 19t57.5 7q56 0 88.5 -24t32.5 -63q0 -29 -14 -44.5t-30 -24.5q-17 -9 -26.5 -16t-9.5 -17q0 -3 0.5 -5.5t1.5 -5.5z" />
    <glyph glyph-name="uni1EAA" unicode="&#x1eaa;" horiz-adv-x="696" 
d="M7 0l275 700h134l273 -700h-154l-141 377q-6 16 -14.5 41t-17.5 53t-17 53.5t-12 42.5h27q-6 -22 -13.5 -46.5t-15.5 -50t-17 -49.5t-17 -47l-141 -374h-149zM135 147l49 120h321l50 -120h-420zM217 752l-42 49l130 100h84l130 -100l-41 -49l-145 64h29zM428 948
q-23 0 -43.5 6.5t-39.5 14.5q-18 8 -30.5 12.5t-22.5 4.5q-15 0 -24.5 -10t-13.5 -27l-84 6q2 52 33 86.5t78 34.5q21 0 38 -6.5t38 -15.5q14 -6 27.5 -11t23.5 -5q15 0 22 10t11 28l84 -6q-1 -33 -13 -61t-33.5 -44.5t-50.5 -16.5z" />
    <glyph glyph-name="uni1EAB" unicode="&#x1eab;" horiz-adv-x="651" 
d="M269 -10q-66 0 -119 36t-84 98t-31 142t31.5 142t85.5 97t123 35q39 0 71.5 -11.5t57 -31.5t41.5 -46t24 -56l-30 5v129h141v-529h-143v127l32 3q-8 -28 -26 -53t-44.5 -44.5t-59.5 -31t-70 -11.5zM308 113q40 0 70 19t46.5 53.5t16.5 80.5q0 45 -16.5 79t-46.5 53.5
t-70 19.5q-39 0 -68.5 -19.5t-46.5 -53.5t-17 -79q0 -46 17 -80.5t46.5 -53.5t68.5 -19zM197 603l-44 47l126 110h93l126 -110l-44 -47l-144 70h30zM403 820q-24 0 -43.5 7t-40.5 16q-15 6 -26 10t-22 4q-14 0 -24.5 -9t-13.5 -27l-83 12q2 48 31.5 82t73.5 34
q20 0 38.5 -6.5t38.5 -15.5q14 -7 26 -11t23 -4q14 0 24 9.5t13 27.5l82 -12q0 -31 -12 -57.5t-33.5 -43t-51.5 -16.5z" />
    <glyph glyph-name="uni1EAC" unicode="&#x1eac;" horiz-adv-x="696" 
d="M7 0l275 700h134l273 -700h-154l-141 377q-6 16 -14.5 41t-17.5 53t-17 53.5t-12 42.5h27q-6 -22 -13.5 -46.5t-15.5 -50t-17 -49.5t-17 -47l-141 -374h-149zM135 147l49 120h321l50 -120h-420zM348 -218q-42 0 -65 20.5t-23 58.5q0 34 23.5 56t64.5 22q42 0 65 -20.5
t23 -57.5q0 -35 -23.5 -57t-64.5 -22zM218 754l-45 50l132 105h84l133 -105l-46 -50l-143 70h29z" />
    <glyph glyph-name="uni1EAD" unicode="&#x1ead;" horiz-adv-x="651" 
d="M269 -10q-66 0 -119 36t-84 98t-31 142t31.5 142t85.5 97t123 35q39 0 71.5 -11.5t57 -31.5t41.5 -46t24 -56l-30 5v129h141v-529h-143v127l32 3q-8 -28 -26 -53t-44.5 -44.5t-59.5 -31t-70 -11.5zM308 113q40 0 70 19t46.5 53.5t16.5 80.5q0 45 -16.5 79t-46.5 53.5
t-70 19.5q-39 0 -68.5 -19.5t-46.5 -53.5t-17 -79q0 -46 17 -80.5t46.5 -53.5t68.5 -19zM326 -218q-42 0 -65 20.5t-23 58.5q0 34 23.5 56t64.5 22q42 0 65 -20.5t23 -57.5q0 -35 -23.5 -57t-64.5 -22zM196 603l-51 44l135 124h92l135 -124l-51 -44l-145 82h30z" />
    <glyph glyph-name="uni1EAE" unicode="&#x1eae;" horiz-adv-x="696" 
d="M7 0l275 700h134l273 -700h-154l-141 377q-6 16 -14.5 41t-17.5 53t-17 53.5t-12 42.5h27q-6 -22 -13.5 -46.5t-15.5 -50t-17 -49.5t-17 -47l-141 -374h-149zM135 147l49 120h321l50 -120h-420zM348 747q-66 0 -113 37t-61 103l89 12q12 -34 35 -48t50 -14t50 14t35 48
l89 -12q-14 -66 -61 -103t-113 -37zM356 887l-57 43l91 159l95 -69z" />
    <glyph glyph-name="uni1EAF" unicode="&#x1eaf;" horiz-adv-x="651" 
d="M269 -10q-66 0 -119 36t-84 98t-31 142t31.5 142t85.5 97t123 35q39 0 71.5 -11.5t57 -31.5t41.5 -46t24 -56l-30 5v129h141v-529h-143v127l32 3q-8 -28 -26 -53t-44.5 -44.5t-59.5 -31t-70 -11.5zM308 113q40 0 70 19t46.5 53.5t16.5 80.5q0 45 -16.5 79t-46.5 53.5
t-70 19.5q-39 0 -68.5 -19.5t-46.5 -53.5t-17 -79q0 -46 17 -80.5t46.5 -53.5t68.5 -19zM326 592q-68 0 -113.5 37.5t-60.5 102.5l91 12q12 -30 34.5 -44.5t48.5 -14.5t48.5 14.5t34.5 44.5l91 -12q-15 -65 -60.5 -102.5t-113.5 -37.5zM335 765l-60 42l90 159l96 -69z" />
    <glyph glyph-name="uni1EB0" unicode="&#x1eb0;" horiz-adv-x="696" 
d="M7 0l275 700h134l273 -700h-154l-141 377q-6 16 -14.5 41t-17.5 53t-17 53.5t-12 42.5h27q-6 -22 -13.5 -46.5t-15.5 -50t-17 -49.5t-17 -47l-141 -374h-149zM135 147l49 120h321l50 -120h-420zM348 747q-66 0 -113 37t-61 103l89 12q13 -34 35 -48t50 -14q27 0 50 14
t35 48l89 -12q-14 -66 -61 -103t-113 -37zM346 887l-129 133l95 69l92 -159z" />
    <glyph glyph-name="uni1EB1" unicode="&#x1eb1;" horiz-adv-x="651" 
d="M269 -10q-66 0 -119 36t-84 98t-31 142t31.5 142t85.5 97t123 35q39 0 71.5 -11.5t57 -31.5t41.5 -46t24 -56l-30 5v129h141v-529h-143v127l32 3q-8 -28 -26 -53t-44.5 -44.5t-59.5 -31t-70 -11.5zM308 113q40 0 70 19t46.5 53.5t16.5 80.5q0 45 -16.5 79t-46.5 53.5
t-70 19.5q-39 0 -68.5 -19.5t-46.5 -53.5t-17 -79q0 -46 17 -80.5t46.5 -53.5t68.5 -19zM326 592q-68 0 -113.5 39t-60.5 107l91 12q12 -33 34.5 -49t48.5 -16t48.5 16t34.5 49l91 -12q-14 -68 -60 -107t-114 -39zM327 764l-130 132l96 70l91 -159z" />
    <glyph glyph-name="uni1EB2" unicode="&#x1eb2;" horiz-adv-x="696" 
d="M7 0l275 700h134l273 -700h-154l-141 377q-6 16 -14.5 41t-17.5 53t-17 53.5t-12 42.5h27q-6 -22 -13.5 -46.5t-15.5 -50t-17 -49.5t-17 -47l-141 -374h-149zM135 147l49 120h321l50 -120h-420zM348 747q-66 0 -113 37t-61 103l89 12q12 -34 35 -48t50 -14t50 14t35 48
l89 -12q-14 -66 -61 -103t-113 -37zM324 885q-7 9 -12 18.5t-5 20.5q1 9 5.5 18.5t20.5 20.5q12 8 20 14.5t8 12.5q0 9 -9 13.5t-23 4.5q-19 0 -39 -5.5t-40 -13.5l-20 78q21 11 49.5 18.5t57.5 7.5q57 0 89 -24t32 -63q0 -27 -14 -41.5t-30 -23.5q-17 -10 -26.5 -17.5
t-9.5 -15.5q0 -2 0.5 -4t1.5 -5z" />
    <glyph glyph-name="uni1EB3" unicode="&#x1eb3;" horiz-adv-x="651" 
d="M269 -10q-66 0 -119 36t-84 98t-31 142t31.5 142t85.5 97t123 35q39 0 71.5 -11.5t57 -31.5t41.5 -46t24 -56l-30 5v129h141v-529h-143v127l32 3q-8 -28 -26 -53t-44.5 -44.5t-59.5 -31t-70 -11.5zM308 113q40 0 70 19t46.5 53.5t16.5 80.5q0 45 -16.5 79t-46.5 53.5
t-70 19.5q-39 0 -68.5 -19.5t-46.5 -53.5t-17 -79q0 -46 17 -80.5t46.5 -53.5t68.5 -19zM326 592q-68 0 -113.5 39t-60.5 107l91 12q12 -33 34.5 -49t48.5 -16t48.5 16t34.5 49l91 -12q-14 -68 -60 -107t-114 -39zM301 764q-8 10 -12.5 20t-4.5 20t5 20t21 21
q13 9 20.5 15.5t7.5 13.5q0 10 -8.5 14.5t-23.5 4.5q-18 0 -38.5 -5.5t-40.5 -13.5l-20 77q21 13 50 19.5t58 6.5q56 0 88 -24t32 -63q0 -29 -13.5 -44.5t-30.5 -24.5q-16 -8 -25.5 -15.5t-9.5 -17.5q0 -3 0.5 -5.5t1.5 -4.5z" />
    <glyph glyph-name="uni1EB4" unicode="&#x1eb4;" horiz-adv-x="696" 
d="M7 0l275 700h134l273 -700h-154l-141 377q-6 16 -14.5 41t-17.5 53t-17 53.5t-12 42.5h27q-6 -22 -13.5 -46.5t-15.5 -50t-17 -49.5t-17 -47l-141 -374h-149zM135 147l49 120h321l50 -120h-420zM348 747q-66 0 -113 35.5t-61 97.5l89 12q12 -31 35 -43t50 -12t50 12
t35 43l89 -12q-14 -62 -61 -97.5t-113 -35.5zM427 947q-21 0 -41 6.5t-40 15.5q-18 8 -30.5 13t-22.5 5q-15 0 -24.5 -10.5t-13.5 -27.5l-84 6q2 53 33 87.5t78 34.5q21 0 39 -7t38 -16q15 -6 27.5 -11.5t22.5 -5.5q15 0 22 10t11 29l84 -6q-1 -34 -13 -62t-34 -44.5
t-52 -16.5z" />
    <glyph glyph-name="uni1EB5" unicode="&#x1eb5;" horiz-adv-x="651" 
d="M269 -10q-66 0 -119 36t-84 98t-31 142t31.5 142t85.5 97t123 35q39 0 71.5 -11.5t57 -31.5t41.5 -46t24 -56l-30 5v129h141v-529h-143v127l32 3q-8 -28 -26 -53t-44.5 -44.5t-59.5 -31t-70 -11.5zM308 113q40 0 70 19t46.5 53.5t16.5 80.5q0 45 -16.5 79t-46.5 53.5
t-70 19.5q-39 0 -68.5 -19.5t-46.5 -53.5t-17 -79q0 -46 17 -80.5t46.5 -53.5t68.5 -19zM326 592q-67 0 -113 39t-60 107l90 12q13 -33 35 -49t48 -16q27 0 49 16t34 49l91 -12q-14 -68 -60 -107t-114 -39zM404 826q-24 0 -43.5 7t-40.5 16q-15 6 -26 10.5t-22 4.5
q-14 0 -24.5 -9.5t-13.5 -27.5l-83 12q2 48 31.5 82.5t73.5 34.5q20 0 38.5 -7t38.5 -16q14 -7 26 -11t23 -4q14 0 24 9.5t13 27.5l82 -12q0 -31 -12 -57.5t-33.5 -43t-51.5 -16.5z" />
    <glyph glyph-name="uni1EB6" unicode="&#x1eb6;" horiz-adv-x="696" 
d="M7 0l275 700h134l273 -700h-154l-141 377q-6 16 -14.5 41t-17.5 53t-17 53.5t-12 42.5h27q-6 -22 -13.5 -46.5t-15.5 -50t-17 -49.5t-17 -47l-141 -374h-149zM135 147l49 120h321l50 -120h-420zM348 -218q-42 0 -65 20.5t-23 58.5q0 34 23.5 56t64.5 22q42 0 65 -20.5
t23 -57.5q0 -35 -23.5 -57t-64.5 -22zM348 755q-44 0 -80 19t-60 52t-34 75l94 12q10 -25 31.5 -43t48.5 -18t48.5 18t31.5 43l94 -12q-9 -42 -33.5 -75t-60 -52t-80.5 -19z" />
    <glyph glyph-name="uni1EB7" unicode="&#x1eb7;" horiz-adv-x="651" 
d="M269 -10q-66 0 -119 36t-84 98t-31 142t31.5 142t85.5 97t123 35q39 0 71.5 -11.5t57 -31.5t41.5 -46t24 -56l-30 5v129h141v-529h-143v127l32 3q-8 -28 -26 -53t-44.5 -44.5t-59.5 -31t-70 -11.5zM308 113q40 0 70 19t46.5 53.5t16.5 80.5q0 45 -16.5 79t-46.5 53.5
t-70 19.5q-39 0 -68.5 -19.5t-46.5 -53.5t-17 -79q0 -46 17 -80.5t46.5 -53.5t68.5 -19zM326 -218q-42 0 -65 20.5t-23 58.5q0 34 23.5 56t64.5 22q42 0 65 -20.5t23 -57.5q0 -35 -23.5 -57t-64.5 -22zM326 597q-68 0 -113.5 42.5t-60.5 115.5l94 12q11 -34 32.5 -53.5
t47.5 -19.5t47.5 19.5t32.5 53.5l94 -12q-15 -73 -60.5 -115.5t-113.5 -42.5z" />
    <glyph glyph-name="uni1EB8" unicode="&#x1eb8;" horiz-adv-x="635" 
d="M91 0v700h473v-132h-326v-436h333v-132h-480zM161 293v128h355v-128h-355zM318 -218q-42 0 -65 20.5t-23 58.5q0 34 23.5 56t64.5 22q42 0 65 -20.5t23 -57.5q0 -35 -23.5 -57t-64.5 -22z" />
    <glyph glyph-name="uni1EB9" unicode="&#x1eb9;" horiz-adv-x="586" 
d="M322 -10q-86 0 -150.5 35t-100 96t-35.5 140q0 62 20 113t56 88.5t85.5 58t107.5 20.5q54 0 100 -20t79.5 -55.5t51.5 -84t16 -104.5l-1 -44h-425l-23 87h331l-16 -18v22q-2 27 -17.5 48.5t-39.5 34t-54 12.5q-44 0 -74.5 -17t-46.5 -50t-16 -80q0 -48 20.5 -83t58 -54.5
t88.5 -19.5q35 0 64 11t62 38l68 -95q-29 -26 -64 -43.5t-72 -26.5t-73 -9zM322 -218q-42 0 -65 20.5t-23 58.5q0 34 23.5 56t64.5 22q42 0 65 -20.5t23 -57.5q0 -35 -23.5 -57t-64.5 -22z" />
    <glyph glyph-name="uni1EBA" unicode="&#x1eba;" horiz-adv-x="635" 
d="M91 0v700h473v-132h-326v-436h333v-132h-480zM161 293v128h355v-128h-355zM313 750q-7 9 -12.5 19.5t-5.5 21.5t6 22.5t24 23.5q15 10 22.5 16.5t7.5 15.5t-8.5 13.5t-21.5 4.5q-19 0 -40 -6t-41 -14l-21 77q22 12 51.5 20t59.5 8q55 0 86.5 -24t31.5 -62
q0 -30 -13 -46.5t-29 -25.5q-16 -10 -26 -18t-10 -18q0 -4 1 -7t2 -7z" />
    <glyph glyph-name="uni1EBB" unicode="&#x1ebb;" horiz-adv-x="586" 
d="M322 -10q-86 0 -150.5 35t-100 96t-35.5 140q0 62 20 113t56 88.5t85.5 58t107.5 20.5q54 0 100 -20t79.5 -55.5t51.5 -84t16 -104.5l-1 -44h-425l-23 87h331l-16 -18v22q-2 27 -17.5 48.5t-39.5 34t-54 12.5q-44 0 -74.5 -17t-46.5 -50t-16 -80q0 -48 20.5 -83t58 -54.5
t88.5 -19.5q35 0 64 11t62 38l68 -95q-29 -26 -64 -43.5t-72 -26.5t-73 -9zM281 592q-7 10 -12.5 20t-5.5 21t6 22.5t24 23.5q15 10 22.5 16.5t7.5 15.5t-8.5 13.5t-21.5 4.5q-19 0 -40 -5.5t-41 -14.5l-21 77q22 12 51.5 20t59.5 8q55 0 86.5 -24t31.5 -62q0 -30 -13 -46.5
t-29 -25.5q-16 -10 -26 -18t-10 -18q0 -4 1 -7t2 -7z" />
    <glyph glyph-name="uni1EBC" unicode="&#x1ebc;" horiz-adv-x="635" 
d="M91 0v700h473v-132h-326v-436h333v-132h-480zM161 293v128h355v-128h-355zM414 768q-21 0 -42 6.5t-44 16.5q-18 7 -30.5 11.5t-22.5 4.5q-13 0 -21.5 -10t-8.5 -29h-93q0 63 36 98t88 35q18 0 36.5 -5.5t42.5 -17.5q16 -7 27.5 -11t20.5 -4q14 0 21.5 10.5t6.5 27.5h92
q0 -36 -13.5 -66.5t-38 -48.5t-57.5 -18z" />
    <glyph glyph-name="uni1EBD" unicode="&#x1ebd;" horiz-adv-x="586" 
d="M322 -10q-86 0 -150.5 35t-100 96t-35.5 140q0 62 20 113t56 88.5t85.5 58t107.5 20.5q54 0 100 -20t79.5 -55.5t51.5 -84t16 -104.5l-1 -44h-425l-23 87h331l-16 -18v22q-2 27 -17.5 48.5t-39.5 34t-54 12.5q-44 0 -74.5 -17t-46.5 -50t-16 -80q0 -48 20.5 -83t58 -54.5
t88.5 -19.5q35 0 64 11t62 38l68 -95q-29 -26 -64 -43.5t-72 -26.5t-73 -9zM368 614q-18 0 -34 7t-37 21q-18 15 -28 21t-18 6q-14 0 -24.5 -12.5t-13.5 -38.5l-83 11q2 54 32.5 93t81.5 39q18 0 34 -6.5t36 -21.5q15 -12 26 -19.5t21 -7.5q14 0 24 13.5t13 37.5l82 -12
q0 -34 -14.5 -64.5t-39 -48.5t-58.5 -18z" />
    <glyph glyph-name="uni1EBE" unicode="&#x1ebe;" horiz-adv-x="635" 
d="M91 0v700h473v-132h-326v-436h333v-132h-480zM161 293v128h355v-128h-355zM207 752l-41 49l129 100h85l129 -100l-41 -49l-145 64h29zM512 875l-60 41l90 159l96 -69z" />
    <glyph glyph-name="uni1EBF" unicode="&#x1ebf;" horiz-adv-x="586" 
d="M322 -10q-86 0 -150.5 35t-100 96t-35.5 140q0 62 20 113t56 88.5t85.5 58t107.5 20.5q54 0 100 -20t79.5 -55.5t51.5 -84t16 -104.5l-1 -44h-425l-23 87h331l-16 -18v22q-2 27 -17.5 48.5t-39.5 34t-54 12.5q-44 0 -74.5 -17t-46.5 -50t-16 -80q0 -48 20.5 -83t58 -54.5
t88.5 -19.5q35 0 64 11t62 38l68 -95q-29 -26 -64 -43.5t-72 -26.5t-73 -9zM177 603l-44 47l127 110h92l127 -110l-45 -47l-143 70h30zM490 751l-60 42l91 159l96 -69z" />
    <glyph glyph-name="uni1EC0" unicode="&#x1ec0;" horiz-adv-x="635" 
d="M91 0v700h473v-132h-326v-436h333v-132h-480zM161 293v128h355v-128h-355zM207 752l-42 49l130 100h84l130 -100l-41 -49l-145 64h29zM505 875l-129 132l95 70l92 -159z" />
    <glyph glyph-name="uni1EC1" unicode="&#x1ec1;" horiz-adv-x="586" 
d="M322 -10q-86 0 -150.5 35t-100 96t-35.5 140q0 62 20 113t56 88.5t85.5 58t107.5 20.5q54 0 100 -20t79.5 -55.5t51.5 -84t16 -104.5l-1 -44h-425l-23 87h331l-16 -18v22q-2 27 -17.5 48.5t-39.5 34t-54 12.5q-44 0 -74.5 -17t-46.5 -50t-16 -80q0 -48 20.5 -83t58 -54.5
t88.5 -19.5q35 0 64 11t62 38l68 -95q-29 -26 -64 -43.5t-72 -26.5t-73 -9zM176 603l-44 47l127 109h92l127 -109l-45 -47l-143 70h30zM469 750l-129 132l95 69l91 -158z" />
    </font>
</defs>
</svg>
